<?xml version="1.0" encoding="utf-8"?>
<!-- Generator: Adobe Illustrator 21.0.0, SVG Export Plug-In . SVG Version: 6.00 Build 0)  -->
<svg version="1.1" id="Layer_1" xmlns="http://www.w3.org/2000/svg" xmlns:xlink="http://www.w3.org/1999/xlink" x="0px" y="0px"
	 width="96px" height="96px" viewBox="0 0 96 96" enable-background="new 0 0 96 96" xml:space="preserve">
<g>
	<g>
		<path fill="#BDFBFC" d="M89,48C89,25.909,71.091,8,49,8S9,25.909,9,48c0,5.885,1.281,11.468,3.564,16.5h72.872
			C87.718,59.468,89,53.885,89,48z"/>
		<path fill="#BDBEC0" d="M12.564,64.5C18.849,78.357,32.794,88,49,88s30.151-9.643,36.436-23.5H12.564z"/>
		<path fill="#E0E0E0" d="M83.607,68c0.659-1.137,1.282-2.296,1.829-3.5H12.564c0.546,1.204,1.17,2.363,1.829,3.5H83.607z"/>
	</g>
	<g>
		
			<line fill="none" stroke="#45413C" stroke-linecap="round" stroke-linejoin="round" stroke-miterlimit="10" x1="10" y1="64.5" x2="88" y2="64.5"/>
		
			<line fill="none" stroke="#45413C" stroke-linecap="round" stroke-linejoin="round" stroke-miterlimit="10" x1="5.5" y1="64.5" x2="8" y2="64.5"/>
		
			<line fill="none" stroke="#45413C" stroke-linecap="round" stroke-linejoin="round" stroke-miterlimit="10" x1="90" y1="64.5" x2="92.5" y2="64.5"/>
	</g>
	<g>
		<line fill="none" stroke="#E0E0E0" stroke-linecap="round" stroke-miterlimit="10" x1="63" y1="75" x2="70.157" y2="75"/>
		<line fill="none" stroke="#E0E0E0" stroke-linecap="round" stroke-miterlimit="10" x1="58.825" y1="75" x2="60.614" y2="75"/>
		<line fill="none" stroke="#E0E0E0" stroke-linecap="round" stroke-miterlimit="10" x1="55.843" y1="75" x2="56.44" y2="75"/>
	</g>
	<g>
		<line fill="none" stroke="#E0E0E0" stroke-linecap="round" stroke-miterlimit="10" x1="33.157" y1="71.5" x2="40.313" y2="71.5"/>
		<line fill="none" stroke="#E0E0E0" stroke-linecap="round" stroke-miterlimit="10" x1="28.982" y1="71.5" x2="30.771" y2="71.5"/>
		<line fill="none" stroke="#E0E0E0" stroke-linecap="round" stroke-miterlimit="10" x1="26" y1="71.5" x2="26.596" y2="71.5"/>
	</g>
	<g>
		<line fill="none" stroke="#E0E0E0" stroke-linecap="round" stroke-miterlimit="10" x1="44.343" y1="82.5" x2="51.5" y2="82.5"/>
		<line fill="none" stroke="#E0E0E0" stroke-linecap="round" stroke-miterlimit="10" x1="40.169" y1="82.5" x2="41.958" y2="82.5"/>
		<line fill="none" stroke="#E0E0E0" stroke-linecap="round" stroke-miterlimit="10" x1="37.187" y1="82.5" x2="37.783" y2="82.5"/>
	</g>
</g>
<g>
	<path fill="#656769" d="M54.729,59.085H48.11V63.5c0,0.552,0.447,1,1,1h4.618c0.552,0,1-0.448,1-1V59.085z"/>
	<rect x="48.11" y="59.085" fill="#525252" width="6.618" height="2.407"/>
	<path fill="#915E3A" stroke="#45413C" stroke-linecap="round" stroke-linejoin="round" stroke-miterlimit="10" d="M81.804,56.077
		H44.5V16.961c0-1.326,1.075-2.4,2.4-2.4h32.504c1.326,0,2.4,1.075,2.4,2.4V56.077z"/>
	
		<rect x="44.5" y="19.976" fill="#915E3A" stroke="#45413C" stroke-linecap="round" stroke-linejoin="round" stroke-miterlimit="10" width="37.304" height="30.084"/>
	<path fill="#915E3A" d="M81.804,16.961c0-1.326-1.075-2.4-2.4-2.4H46.9c-1.326,0-2.4,1.075-2.4,2.4v3.015h37.304V16.961z"/>
	<path fill="#BF8256" d="M81.804,16.961c0-1.326-1.075-2.4-2.4-2.4H46.9c-1.326,0-2.4,1.075-2.4,2.4v0.608h37.304V16.961z"/>
	<g>
		<g>
			
				<rect x="33.077" y="69.633" transform="matrix(-1 -1.224647e-16 1.224647e-16 -1 69.7631 146.75)" fill="#FFCEBF" width="3.61" height="7.484"/>
			
				<rect x="33.077" y="69.633" transform="matrix(-1 -1.224647e-16 1.224647e-16 -1 69.7631 142.6659)" fill="#FFB59E" width="3.61" height="3.4"/>
			
				<rect x="33.077" y="69.633" transform="matrix(-1 -1.224647e-16 1.224647e-16 -1 69.7631 146.75)" fill="none" stroke="#45413C" stroke-linecap="round" stroke-linejoin="round" stroke-miterlimit="10" width="3.61" height="7.484"/>
		</g>
		<path fill="#87898C" stroke="#45413C" stroke-linecap="round" stroke-linejoin="round" stroke-miterlimit="10" d="M38.647,76.901
			c0.201,0.307,0.218,0.7,0.043,1.024c-0.175,0.323-0.513,0.523-0.88,0.523h-4.116c-0.349,0-0.673-0.182-0.854-0.48
			c-0.181-0.298-0.195-0.67-0.034-0.979C33.899,74.879,37.4,74.997,38.647,76.901z"/>
		<g>
			<rect x="25.857" y="69.633" fill="#FFCEBF" width="3.61" height="7.484"/>
			<rect x="25.857" y="69.633" fill="#FFB59E" width="3.61" height="3.4"/>
			
				<rect x="25.857" y="69.633" fill="none" stroke="#45413C" stroke-linecap="round" stroke-linejoin="round" stroke-miterlimit="10" width="3.61" height="7.484"/>
		</g>
		<path fill="#DEA47A" d="M41.5,51.373c0-5.646-4.58-10.229-10.229-10.229c-5.646,0-10.229,4.58-10.229,10.229v0.601h3.61v7.822
			H37.89v-7.822h3.61V51.373z"/>
		<ellipse opacity="0.15" fill="#45413C" cx="31.293" cy="78.948" rx="10" ry="1.5"/>
		<path fill="#DEA47A" d="M28.866,70.626c0.539,0,0.981-0.427,0.999-0.966l0.15-4.45c0.029-0.672,0.583-1.202,1.256-1.202
			c0.673,0,1.227,0.53,1.256,1.202l0.15,4.45c0.018,0.539,0.46,0.966,1,0.966h3.763c0.274,0,0.536-0.112,0.725-0.311
			c0.189-0.198,0.288-0.466,0.274-0.739L37.89,58.593h-6.017H30.67h-6.017l-0.549,10.983c-0.014,0.274,0.085,0.541,0.274,0.739
			c0.189,0.199,0.451,0.311,0.725,0.311H28.866z"/>
		<polygon fill="#BF8256" points="24.442,62.805 38.101,62.805 37.98,60.398 24.562,60.398 		"/>
		<path fill="none" stroke="#45413C" stroke-linecap="round" stroke-linejoin="round" stroke-miterlimit="10" d="M28.866,70.626
			c0.539,0,0.981-0.427,0.999-0.966l0.15-4.45c0.029-0.672,0.583-1.202,1.256-1.202c0.673,0,1.227,0.53,1.256,1.202l0.15,4.45
			c0.018,0.539,0.46,0.966,1,0.966h3.763c0.274,0,0.536-0.112,0.725-0.311c0.189-0.198,0.288-0.466,0.274-0.739L37.89,58.593h-6.017
			H30.67h-6.017l-0.549,10.983c-0.014,0.274,0.085,0.541,0.274,0.739c0.189,0.199,0.451,0.311,0.725,0.311H28.866z"/>
		<path fill="#F0C2A1" d="M31.271,41.144c-5.646,0-10.229,4.58-10.229,10.229v0.601h0.19c0.91-4.717,5.058-8.283,10.038-8.283
			c4.982,0,9.129,3.568,10.038,8.283h0.19v-0.601C41.5,45.727,36.92,41.144,31.271,41.144z"/>
		<path fill="none" stroke="#45413C" stroke-linecap="round" stroke-linejoin="round" stroke-miterlimit="10" d="M41.5,51.373
			c0-5.646-4.58-10.229-10.229-10.229c-5.646,0-10.229,4.58-10.229,10.229v0.601h3.61v7.822H37.89v-7.822h3.61V51.373z"/>
		
			<line fill="#00B8F0" stroke="#45413C" stroke-linecap="round" stroke-linejoin="round" stroke-miterlimit="10" x1="37.89" y1="51.974" x2="37.89" y2="48.364"/>
		
			<line fill="#00B8F0" stroke="#45413C" stroke-linecap="round" stroke-linejoin="round" stroke-miterlimit="10" x1="24.653" y1="51.974" x2="24.653" y2="48.364"/>
		<path fill="#FFCEBF" d="M24.653,62.805c0,0.996-0.808,1.805-1.805,1.805c-0.997,0-1.805-0.809-1.805-1.805V51.974h3.61V62.805z"/>
		
			<rect x="29.466" y="57.991" fill="#FFE500" stroke="#45413C" stroke-linecap="round" stroke-linejoin="round" stroke-miterlimit="10" width="3.61" height="2.407"/>
		
			<rect x="24.653" y="57.991" fill="#A86C4D" stroke="#45413C" stroke-linecap="round" stroke-linejoin="round" stroke-miterlimit="10" width="13.232" height="2.407"/>
		<path fill="#87898C" stroke="#45413C" stroke-linecap="round" stroke-linejoin="round" stroke-miterlimit="10" d="M23.896,76.901
			c-0.201,0.307-0.218,0.7-0.043,1.024c0.175,0.323,0.513,0.523,0.88,0.523h4.116c0.349,0,0.673-0.182,0.854-0.48
			c0.181-0.298,0.195-0.67,0.034-0.979C28.644,74.879,25.143,74.997,23.896,76.901z"/>
		<path fill="none" stroke="#45413C" stroke-linecap="round" stroke-linejoin="round" stroke-miterlimit="10" d="M24.653,62.805
			c0,0.996-0.808,1.805-1.805,1.805c-0.997,0-1.805-0.809-1.805-1.805V51.974h3.61V62.805z"/>
		<path fill="#FFCEBF" d="M41.5,62.805c0,0.996-0.808,1.805-1.805,1.805c-0.997,0-1.805-0.809-1.805-1.805V51.974h3.61V62.805z"/>
		<path fill="none" stroke="#45413C" stroke-linecap="round" stroke-linejoin="round" stroke-miterlimit="10" d="M41.5,62.805
			c0,0.996-0.808,1.805-1.805,1.805c-0.997,0-1.805-0.809-1.805-1.805V51.974h3.61V62.805z"/>
		<path fill="#FFCEBF" stroke="#45413C" stroke-linecap="round" stroke-linejoin="round" stroke-miterlimit="10" d="M31.271,41.144
			c-1.116,0-2.211,0.192-3.25,0.541l3.25,5.476l3.25-5.476C33.482,41.336,32.388,41.144,31.271,41.144z"/>
		<path fill="#F0C2A1" stroke="#45413C" stroke-linecap="round" stroke-linejoin="round" stroke-miterlimit="10" d="M25.857,44.754
			c1.892,0.253,3.583,0.902,5.415,2.407l-3.25-5.476c-0.455,0.152-0.897,0.336-1.326,0.551L25.857,44.754z"/>
		<path fill="#F0C2A1" stroke="#45413C" stroke-linecap="round" stroke-linejoin="round" stroke-miterlimit="10" d="M36.687,44.754
			c-1.892,0.253-3.583,0.902-5.415,2.407l3.25-5.476c0.455,0.152,0.897,0.336,1.326,0.551L36.687,44.754z"/>
		
			<line fill="#FFCEBF" stroke="#45413C" stroke-linecap="round" stroke-linejoin="round" stroke-miterlimit="10" x1="31.271" y1="47.161" x2="31.271" y2="50.169"/>
		<g>
			<path fill="#FFCEBF" stroke="#45413C" stroke-linecap="round" stroke-linejoin="round" stroke-miterlimit="10" d="M31.279,39.144
				c2.69,0,4.941-1.777,5.711-4.213l0.005,0.001c1.902,0,2.018-3.008,0.301-3.008v-1.203c0-3.323-2.693-6.017-6.017-6.017
				c-3.323,0-6.017,2.694-6.017,6.017v1.203c-1.717,0-1.601,3.008,0.301,3.008l0.005-0.001
				C26.338,37.366,28.589,39.144,31.279,39.144z"/>
			<g>
				<path fill="#45413C" d="M29.322,31.322c-0.415,0-0.752,0.336-0.752,0.752c0,0.415,0.336,0.752,0.752,0.752
					c0.416,0,0.752-0.337,0.752-0.752C30.074,31.658,29.737,31.322,29.322,31.322L29.322,31.322z"/>
			</g>
			<g>
				<path fill="#45413C" d="M33.233,31.322c-0.416,0-0.753,0.336-0.753,0.752c0,0.415,0.337,0.752,0.753,0.752
					c0.415,0,0.752-0.337,0.752-0.752C33.985,31.658,33.648,31.322,33.233,31.322L33.233,31.322z"/>
			</g>
			<circle fill="#FFB59E" cx="27.667" cy="33.728" r="0.602"/>
			<circle fill="#FFB59E" cx="34.887" cy="33.728" r="0.602"/>
			<path fill="none" stroke="#45413C" stroke-linecap="round" stroke-linejoin="round" stroke-miterlimit="10" d="M29.775,35.589
				c0.911,0.607,2.097,0.607,3.008,0"/>
		</g>
		<path fill="#BF8256" stroke="#45413C" stroke-linecap="round" stroke-linejoin="round" stroke-miterlimit="10" d="M34.89,23.5
			h-7.237c-1.657,0-3,1.343-3,3v2.415H37.89V26.5C37.89,24.843,36.547,23.5,34.89,23.5z"/>
		<path fill="none" stroke="#45413C" stroke-linejoin="round" stroke-miterlimit="10" d="M31.271,23.5c0,0-3.61,1.806-3.61,4.813"/>
		<path fill="none" stroke="#45413C" stroke-linejoin="round" stroke-miterlimit="10" d="M31.271,23.5c0,0,3.61,1.806,3.61,4.813"/>
		<path fill="#DEA47A" stroke="#45413C" stroke-linecap="round" stroke-linejoin="round" stroke-miterlimit="10" d="M38.175,29.738
			c0.066,0.329-0.038,0.669-0.276,0.905c-0.238,0.236-0.578,0.338-0.907,0.27c-3.204-0.659-8.238-0.659-11.442,0
			c-0.328,0.068-0.669-0.034-0.906-0.27c-0.238-0.236-0.342-0.576-0.276-0.905l0.285-1.425c5.303-1.605,7.95-1.604,13.237,0
			L38.175,29.738z"/>
		<polygon fill="#FF8A14" stroke="#45413C" stroke-linecap="round" stroke-linejoin="round" stroke-miterlimit="10" points="
			36.085,50.771 34.581,51.974 33.077,50.771 33.077,48.364 36.085,48.364 		"/>
	</g>
	<path fill="#8CA4B8" stroke="#45413C" stroke-linecap="round" stroke-linejoin="round" stroke-miterlimit="10" d="M81.804,57.085
		c0,1.104-0.896,2-2,2H46.5c-1.104,0-2-0.896-2-2v-1.009h37.304V57.085z"/>
	<path fill="none" stroke="#45413C" stroke-linecap="round" stroke-linejoin="round" stroke-miterlimit="10" d="M54.729,59.085
		H48.11V63.5c0,0.552,0.447,1,1,1h4.618c0.552,0,1-0.448,1-1V59.085z"/>
	<path fill="#656769" d="M78.193,59.085h-6.618V63.5c0,0.552,0.448,1,1,1h4.618c0.553,0,1-0.448,1-1V59.085z"/>
	<rect x="71.575" y="59.085" fill="#525252" width="6.618" height="2.407"/>
	<path fill="none" stroke="#45413C" stroke-linecap="round" stroke-linejoin="round" stroke-miterlimit="10" d="M78.193,59.085
		h-6.618V63.5c0,0.552,0.448,1,1,1h4.618c0.553,0,1-0.448,1-1V59.085z"/>
	
		<circle fill="#FF6242" stroke="#45413C" stroke-linecap="round" stroke-linejoin="round" stroke-miterlimit="10" cx="77.592" cy="53.069" r="1.203"/>
	
		<circle fill="#FF8A14" stroke="#45413C" stroke-linecap="round" stroke-linejoin="round" stroke-miterlimit="10" cx="72.779" cy="53.069" r="1.204"/>
	
		<circle fill="#FF6242" stroke="#45413C" stroke-linecap="round" stroke-linejoin="round" stroke-miterlimit="10" cx="48.712" cy="53.069" r="1.204"/>
	
		<circle fill="#FF8A14" stroke="#45413C" stroke-linecap="round" stroke-linejoin="round" stroke-miterlimit="10" cx="53.525" cy="53.069" r="1.204"/>
	<path fill="#ADC4D9" stroke="#45413C" stroke-linecap="round" stroke-linejoin="round" stroke-miterlimit="10" d="M86.617,49.06
		c0,0.552-0.448,1-1,1H73.38V19.976h12.237c0.552,0,1,0.448,1,1V49.06z"/>
	<path fill="#8CA4B8" stroke="#45413C" stroke-linecap="round" stroke-linejoin="round" stroke-miterlimit="10" d="M83.211,47.653
		h-6.424c-0.552,0-1-0.448-1-1v-9.432c0-0.552,0.448-1,1-1h6.424c0.552,0,1,0.448,1,1v9.432
		C84.211,47.206,83.763,47.653,83.211,47.653z"/>
	<path fill="#8CA4B8" stroke="#45413C" stroke-linecap="round" stroke-linejoin="round" stroke-miterlimit="10" d="M83.211,33.815
		h-6.424c-0.552,0-1-0.448-1-1v-9.432c0-0.552,0.448-1,1-1h6.424c0.552,0,1,0.448,1,1v9.432
		C84.211,33.367,83.763,33.815,83.211,33.815z"/>
	<rect x="59.542" y="19.976" fill="#87898C" width="13.838" height="30.084"/>
	<rect x="59.542" y="19.976" fill="#656769" width="13.838" height="5.486"/>
	
		<rect x="59.542" y="19.976" fill="none" stroke="#45413C" stroke-linecap="round" stroke-linejoin="round" stroke-miterlimit="10" width="13.838" height="30.084"/>
	<path fill="#DEBB7E" stroke="#45413C" stroke-linecap="round" stroke-linejoin="round" stroke-miterlimit="10" d="M73.38,50.06
		h-9.626v-6.822c0-0.552,0.448-1,1-1h8.626V50.06z"/>
	<path fill="#DEBB7E" stroke="#45413C" stroke-linecap="round" stroke-linejoin="round" stroke-miterlimit="10" d="M73.38,42.238
		h-6.017v-5.017c0-0.552,0.448-1,1-1h5.017V42.238z"/>
	<path fill="#627B8C" stroke="#45413C" stroke-linecap="round" stroke-linejoin="round" stroke-miterlimit="10" d="M84.211,39.005
		h-2.61c-0.552,0-1-0.448-1-1v-1.784h2.61c0.552,0,1,0.448,1,1V39.005z"/>
	<g>
		<path fill="#FFE500" stroke="#45413C" stroke-linecap="round" stroke-linejoin="round" stroke-miterlimit="10" d="M56.533,29.001
			c-3.136-0.766-6.156-0.838-9.025,0v3.178c2.817-1.033,5.836-1.646,9.025-1.902V29.001z"/>
		<path fill="#BF8256" stroke="#45413C" stroke-linecap="round" stroke-linejoin="round" stroke-miterlimit="10" d="M47.508,34.382
			c0,0.776,0.375,1.506,1.008,1.958l3.201,2.288l3.685-2.302c0.704-0.439,1.132-1.211,1.132-2.041v-4.009
			c-3.189,0.256-6.208,0.869-9.025,1.902V34.382z"/>
	</g>
	<path fill="#F7E5C6" stroke="#45413C" stroke-linecap="round" stroke-linejoin="round" stroke-miterlimit="10" d="M69.872,47.052
		h-2.009c-0.276,0-0.5-0.224-0.5-0.5v-4.314h3.009v4.314C70.372,46.828,70.148,47.052,69.872,47.052z"/>
	<path fill="#FF6242" stroke="#45413C" stroke-linecap="round" stroke-linejoin="round" stroke-miterlimit="10" d="M51.72,17.269
		c0,0.498-0.404,0.902-0.902,0.902H48.41c-0.498,0-0.902-0.404-0.902-0.902c0-0.498,0.404-0.902,0.902-0.902h2.407
		C51.316,16.367,51.72,16.771,51.72,17.269z"/>
	<path fill="#FF6242" stroke="#45413C" stroke-linecap="round" stroke-linejoin="round" stroke-miterlimit="10" d="M79.397,17.269
		c0,0.498-0.404,0.902-0.902,0.902h-2.407c-0.498,0-0.902-0.404-0.902-0.902c0-0.498,0.404-0.902,0.902-0.902h2.407
		C78.993,16.367,79.397,16.771,79.397,17.269z"/>
	<path fill="none" stroke="#45413C" stroke-linecap="round" stroke-linejoin="round" stroke-miterlimit="10" d="M81.804,16.961
		c0-1.326-1.075-2.4-2.4-2.4H46.9c-1.326,0-2.4,1.075-2.4,2.4v3.015h37.304V16.961z"/>
</g>
</svg>
