<?xml version="1.0" encoding="utf-8"?>
<!-- Generator: Adobe Illustrator 21.0.0, SVG Export Plug-In . SVG Version: 6.00 Build 0)  -->
<svg version="1.1" id="Layer_1" xmlns="http://www.w3.org/2000/svg" xmlns:xlink="http://www.w3.org/1999/xlink" x="0px" y="0px"
	 width="96px" height="96px" viewBox="0 0 96 96" enable-background="new 0 0 96 96" xml:space="preserve">
<g>
	<g>
		<path fill="#BDFBFC" d="M88,49C88,26.909,70.091,9,48,9S8,26.909,8,49c0,5.885,1.281,11.468,3.564,16.5h72.872
			C86.718,60.468,88,54.885,88,49z"/>
		<path fill="#CDF7AD" d="M11.564,65.5C17.849,79.357,31.794,89,48,89s30.151-9.643,36.436-23.5H11.564z"/>
		<path fill="#E4FFD1" d="M82.607,69c0.659-1.137,1.282-2.296,1.829-3.5H11.564c0.546,1.204,1.17,2.363,1.829,3.5H82.607z"/>
	</g>
	<g>
		
			<line fill="none" stroke="#45413C" stroke-linecap="round" stroke-linejoin="round" stroke-miterlimit="10" x1="9" y1="65.5" x2="87" y2="65.5"/>
		
			<line fill="none" stroke="#45413C" stroke-linecap="round" stroke-linejoin="round" stroke-miterlimit="10" x1="4.5" y1="65.5" x2="7" y2="65.5"/>
		
			<line fill="none" stroke="#45413C" stroke-linecap="round" stroke-linejoin="round" stroke-miterlimit="10" x1="89" y1="65.5" x2="91.5" y2="65.5"/>
	</g>
</g>
<g>
	<g>
		<ellipse opacity="0.15" fill="#45413C" cx="48.293" cy="78.75" rx="15" ry="1.5"/>
		<path fill="#00B8F0" d="M66.893,65.55l-0.004-19.2c0-1.325-1.074-2.4-2.4-2.4H32.093c-1.325,0-2.399,1.075-2.399,2.4l0.004,19.2
			H66.893z"/>
		<path fill="#4ACFFF" d="M34.493,65.55l21.6-21.6h-24c-1.325,0-2.399,1.075-2.399,2.4l0.004,19.2H34.493z"/>
		<path fill="#FFFFFF" stroke="#45413C" stroke-linecap="round" stroke-linejoin="round" stroke-miterlimit="10" d="M66.889,65.55
			v4.8c0,1.326-1.074,2.4-2.4,2.4H32.093c-1.325,0-2.399-1.075-2.399-2.4v-4.8H66.889z"/>
		
			<circle fill="#525252" stroke="#45413C" stroke-linecap="round" stroke-linejoin="round" stroke-miterlimit="10" cx="48.293" cy="69.15" r="1.2"/>
		<polygon fill="#DAEDF7" stroke="#45413C" stroke-linecap="round" stroke-linejoin="round" stroke-miterlimit="10" points="
			54.293,77.55 42.293,77.55 42.893,72.75 53.693,72.75 		"/>
		
			<line fill="none" stroke="#45413C" stroke-linecap="round" stroke-linejoin="round" stroke-miterlimit="10" x1="38.693" y1="77.55" x2="57.893" y2="77.55"/>
		<path fill="none" stroke="#45413C" stroke-linecap="round" stroke-linejoin="round" stroke-miterlimit="10" d="M66.893,65.55
			l-0.004-19.2c0-1.325-1.074-2.4-2.4-2.4H32.093c-1.325,0-2.399,1.075-2.399,2.4l0.004,19.2H66.893z"/>
		<circle fill="#FFFFFF" cx="48.293" cy="54.75" r="7.2"/>
		<path fill="#F0FFE5" d="M51.657,48.386c-1.005-0.532-2.148-0.836-3.364-0.836c-3.977,0-7.2,3.224-7.2,7.2
			c0,1.216,0.305,2.359,0.836,3.364L51.657,48.386z"/>
		
			<circle fill="none" stroke="#45413C" stroke-linecap="round" stroke-linejoin="round" stroke-miterlimit="10" cx="48.293" cy="54.75" r="7.2"/>
		<g>
			<path fill="#6DD627" d="M47.093,58.95c-0.46,0-0.921-0.175-1.272-0.527l-2.4-2.4c-0.703-0.703-0.703-1.842,0-2.545
				c0.703-0.703,1.843-0.703,2.546,0l1.127,1.127l2.928-2.927c0.703-0.704,1.842-0.704,2.545,0c0.703,0.703,0.703,1.842,0,2.545
				l-4.2,4.2C48.014,58.774,47.554,58.95,47.093,58.95z"/>
		</g>
		<path fill="#9CEB60" d="M43.721,56.322l2.545-2.545l-0.3-0.3c-0.703-0.703-1.843-0.703-2.546,0c-0.703,0.703-0.703,1.842,0,2.545
			L43.721,56.322z"/>
		<g>
			<path fill="none" stroke="#45413C" stroke-linecap="round" stroke-linejoin="round" stroke-miterlimit="10" d="M47.093,58.95
				c-0.46,0-0.921-0.175-1.272-0.527l-2.4-2.4c-0.703-0.703-0.703-1.842,0-2.545c0.703-0.703,1.843-0.703,2.546,0l1.127,1.127
				l2.928-2.927c0.703-0.704,1.842-0.704,2.545,0c0.703,0.703,0.703,1.842,0,2.545l-4.2,4.2
				C48.014,58.774,47.554,58.95,47.093,58.95z"/>
		</g>
		<g>
			<path fill="#6DD627" d="M28.511,38.273c0.15,0.531-0.158,1.084-0.689,1.234L6.655,45.509c-0.531,0.15-1.084-0.158-1.234-0.689
				L2.038,32.889c-0.15-0.531,0.158-1.084,0.689-1.234l21.166-6.001c0.531-0.15,1.084,0.158,1.234,0.689L28.511,38.273z"/>
			<path fill="#9CEB60" d="M26.165,29.999L3.074,36.545l-1.036-3.656c-0.15-0.531,0.158-1.084,0.689-1.234l21.166-6.001
				c0.531-0.15,1.084,0.158,1.234,0.689L26.165,29.999z"/>
			<path fill="#C8FFA1" d="M25.165,35.271l-1.31-4.618c-1.275,0.362-2.602-0.379-2.964-1.654L7.038,32.927
				c0.361,1.275-0.38,2.603-1.654,2.964l1.309,4.618c1.275-0.362,2.602,0.379,2.964,1.654l13.854-3.928
				C23.148,36.96,23.89,35.633,25.165,35.271z"/>
			<path fill="#E4FFD1" d="M20.892,29L7.038,32.927c0.361,1.275-0.38,2.603-1.654,2.964l18.472-5.237
				C22.58,31.015,21.254,30.274,20.892,29z"/>
			
				<ellipse transform="matrix(0.9621 -0.2727 0.2727 0.9621 -9.1249 5.5144)" fill="#9CEB60" cx="15.274" cy="35.581" rx="2.4" ry="2.4"/>
			
				<ellipse transform="matrix(0.9621 -0.2727 0.2727 0.9621 -9.1249 5.5144)" fill="none" stroke="#45413C" stroke-linecap="round" stroke-linejoin="round" stroke-miterlimit="10" cx="15.274" cy="35.581" rx="2.4" ry="2.4"/>
			<path fill="none" stroke="#45413C" stroke-linecap="round" stroke-linejoin="round" stroke-miterlimit="10" d="M25.165,35.271
				l-1.31-4.618c-1.275,0.362-2.602-0.379-2.964-1.654L7.038,32.927c0.361,1.275-0.38,2.603-1.654,2.964l1.309,4.618
				c1.275-0.362,2.602,0.379,2.964,1.654l13.854-3.928C23.148,36.96,23.89,35.633,25.165,35.271z"/>
			<path fill="none" stroke="#45413C" stroke-linecap="round" stroke-linejoin="round" stroke-miterlimit="10" d="M28.511,38.273
				c0.15,0.531-0.158,1.084-0.689,1.234L6.655,45.509c-0.531,0.15-1.084-0.158-1.234-0.689L2.038,32.889
				c-0.15-0.531,0.158-1.084,0.689-1.234l21.166-6.001c0.531-0.15,1.084,0.158,1.234,0.689L28.511,38.273z"/>
		</g>
		<g>
			<path fill="#DAEDF7" d="M88.971,45.23l-16.92-4.846c-1.062-0.304-1.677-1.412-1.372-2.473l2.863-9.998
				c0.305-1.062,1.412-1.676,2.474-1.372l16.92,4.846c1.062,0.305,1.676,1.412,1.372,2.474l-2.864,9.998
				C91.14,44.92,90.032,45.535,88.971,45.23z"/>
			
				<rect x="72.684" y="31.225" transform="matrix(0.9613 0.2754 -0.2754 0.9613 12.1562 -21.7351)" fill="#525252" width="21.6" height="2.4"/>
			
				<line fill="none" stroke="#45413C" stroke-linecap="round" stroke-linejoin="round" stroke-miterlimit="10" x1="73.096" y1="38.188" x2="78.864" y2="39.839"/>
			
				<rect x="73.763" y="35.839" transform="matrix(0.9613 0.2754 -0.2754 0.9613 13.3754 -21.1924)" fill="#E8F4FA" width="16.8" height="2.4"/>
			<path fill="none" stroke="#45413C" stroke-linecap="round" stroke-linejoin="round" stroke-miterlimit="10" d="M88.971,45.23
				l-16.92-4.846c-1.062-0.304-1.677-1.412-1.372-2.473l2.863-9.998c0.305-1.062,1.412-1.676,2.474-1.372l16.92,4.846
				c1.062,0.305,1.676,1.412,1.372,2.474l-2.864,9.998C91.14,44.92,90.032,45.535,88.971,45.23z"/>
			
				<rect x="72.684" y="31.225" transform="matrix(0.9613 0.2754 -0.2754 0.9613 12.1562 -21.7351)" fill="none" stroke="#45413C" stroke-linecap="round" stroke-linejoin="round" stroke-miterlimit="10" width="21.6" height="2.4"/>
			
				<rect x="73.763" y="35.839" transform="matrix(0.9613 0.2754 -0.2754 0.9613 13.3754 -21.1924)" fill="none" stroke="#45413C" stroke-linecap="round" stroke-linejoin="round" stroke-miterlimit="10" width="16.8" height="2.4"/>
		</g>
	</g>
	<g>
		<circle fill="#FFE500" cx="48.293" cy="26.329" r="8"/>
		<path fill="#FFF48C" d="M48.293,18.329c-4.418,0-8,3.582-8,8c0,2.209,0.895,4.209,2.343,5.657L53.95,20.672
			C52.502,19.225,50.502,18.329,48.293,18.329z"/>
		<circle fill="none" stroke="#45413C" stroke-miterlimit="10" cx="48.293" cy="26.329" r="8"/>
		
			<line fill="none" stroke="#45413C" stroke-linecap="round" stroke-linejoin="round" stroke-miterlimit="10" x1="48.293" y1="30.329" x2="48.293" y2="31.329"/>
		
			<line fill="none" stroke="#45413C" stroke-linecap="round" stroke-linejoin="round" stroke-miterlimit="10" x1="48.293" y1="21.329" x2="48.293" y2="22.329"/>
		<path fill="none" stroke="#45413C" stroke-linecap="round" stroke-linejoin="round" stroke-miterlimit="10" d="M46.293,28.329
			c0,1.104,0.895,2,2,2c1.104,0,2-0.896,2-2c0-1.105-0.896-2-2-2c-1.105,0-2-0.896-2-2c0-1.105,0.895-2,2-2c1.104,0,2,0.895,2,2"/>
	</g>
</g>
</svg>
