<?xml version="1.0" encoding="utf-8"?>
<!-- Generator: Adobe Illustrator 21.0.0, SVG Export Plug-In . SVG Version: 6.00 Build 0)  -->
<svg version="1.1" id="Layer_1" xmlns="http://www.w3.org/2000/svg" xmlns:xlink="http://www.w3.org/1999/xlink" x="0px" y="0px"
	 width="96px" height="96px" viewBox="0 0 96 96" enable-background="new 0 0 96 96" xml:space="preserve">
<g>
	<g>
		<path fill="#BDFBFC" d="M89,49C89,26.909,71.091,9,49,9S9,26.909,9,49c0,5.885,1.281,11.468,3.564,16.5h72.872
			C87.718,60.468,89,54.885,89,49z"/>
		<path fill="#DEA47A" d="M12.564,65.5C18.849,79.357,32.794,89,49,89s30.151-9.643,36.436-23.5H12.564z"/>
		<path fill="#F0C2A1" d="M83.607,69c0.659-1.137,1.282-2.296,1.829-3.5H12.564c0.546,1.204,1.17,2.363,1.829,3.5H83.607z"/>
	</g>
	<g>
		
			<line fill="none" stroke="#45413C" stroke-linecap="round" stroke-linejoin="round" stroke-miterlimit="10" x1="10" y1="65.5" x2="88" y2="65.5"/>
		
			<line fill="none" stroke="#45413C" stroke-linecap="round" stroke-linejoin="round" stroke-miterlimit="10" x1="5.5" y1="65.5" x2="8" y2="65.5"/>
		
			<line fill="none" stroke="#45413C" stroke-linecap="round" stroke-linejoin="round" stroke-miterlimit="10" x1="90" y1="65.5" x2="92.5" y2="65.5"/>
	</g>
</g>
<g>
	<path fill="#525252" stroke="#45413C" stroke-linecap="round" stroke-linejoin="round" stroke-miterlimit="10" d="M57,42.496
		c3.764,0,7.213,1.343,9.897,3.574c0.001-0.001,0.002-0.003,0.002-0.004c1.34-2.23,2.1-4.81,2.1-7.51v-12.06
		c0-6.7-5.49-12.12-12.22-12c-6.61,0.12-11.78,5.79-11.78,12.4v10.34c0,3.409,0.78,6.368,2.169,8.778
		C49.844,43.816,53.268,42.496,57,42.496z"/>
	<path fill="none" stroke="#45413C" stroke-linecap="round" stroke-linejoin="round" stroke-miterlimit="10" d="M72.5,57.996
		c0-8.56-6.94-15.5-15.5-15.5s-15.5,6.94-15.5,15.5v7.5h31V57.996z"/>
	<path fill="#656769" d="M57,42.496c-8.56,0-15.5,6.94-15.5,15.5v7.5h24.838c-0.387,1.158-1.469,2-2.755,2H60v6h3.583
		c1.022,0,2.002-0.182,2.917-0.5c3.209-1.115,5.641-4.006,6-7.496v-7.504C72.5,49.436,65.56,42.496,57,42.496z"/>
	<path fill="#87898C" d="M57,42.496c-8.561,0-15.5,6.939-15.5,15.5v4.5c0-8.561,6.939-15.5,15.5-15.5s15.5,6.939,15.5,15.5v-4.5
		C72.5,49.435,65.561,42.496,57,42.496z"/>
	<path fill="none" stroke="#45413C" stroke-linecap="round" stroke-linejoin="round" stroke-miterlimit="10" d="M57,42.496
		c-8.56,0-15.5,6.94-15.5,15.5v7.5h24.838c-0.387,1.158-1.469,2-2.755,2H60v6h3.583c1.022,0,2.002-0.182,2.917-0.5
		c5.483-1.906,6-7.5,6-7.5v-7.5C72.5,49.436,65.56,42.496,57,42.496z"/>
	<path fill="#009FD9" stroke="#45413C" stroke-linecap="round" stroke-linejoin="round" stroke-miterlimit="10" d="M65.02,44.736
		c-0.872,2.917-2.886,5.663-5.161,7.626C58.677,53.383,57,55.23,57,57.496c0-2.253-1.658-4.092-2.839-5.116
		c-2.256-1.956-4.279-4.667-5.161-7.574c-0.01-0.02-0.01-0.05-0.02-0.07c2.34-1.42,5.09-2.24,8.02-2.24S62.68,43.316,65.02,44.736z"
		/>
	<path fill="#FFCEBF" d="M60.5,44.996c-1.933,1.933-5.067,1.933-7,0v-5.5h7V44.996z"/>
	<path fill="#FFB59E" d="M53.5,42.982c1.11,0.331,2.283,0.514,3.5,0.514s2.39-0.183,3.5-0.514v-3.486h-7V42.982z"/>
	<path fill="none" stroke="#45413C" stroke-linecap="round" stroke-linejoin="round" stroke-miterlimit="10" d="M60.5,39.496v5.5
		c-1.933,1.933-5.067,1.933-7,0v-5.5H60.5z"/>
	<path fill="#FFCEBF" d="M67,28.996v-2.5c0-5.523-4.477-10-10-10s-10,4.477-10,10v2.5c-1.104,0-2,0.895-2,2c0,1.105,0.896,2,2,2
		c0.042,0,0.081-0.01,0.123-0.012c0.72,4.815,4.861,8.512,9.877,8.512s9.157-3.697,9.877-8.512c0.041,0.003,0.081,0.012,0.123,0.012
		c1.104,0,2-0.895,2-2C69,29.891,68.104,28.996,67,28.996z"/>
	<g>
		<path fill="#FFB59E" d="M67,28.996v-2.5c0-3.371-1.673-6.347-4.229-8.158c-1.773-0.975-3.815-1.522-5.99-1.484
			c-2.209,0.04-4.25,0.711-5.999,1.819C48.48,20.505,47,23.325,47,26.496v2.5c-1.104,0-2,0.896-2,2c0,1.105,0.896,2,2,2
			c0.042,0,0.081-0.01,0.123-0.013c0.151,1.006,0.458,1.959,0.884,2.844c0.067-3.625,2.111-7.973,8.993-7.973
			c6.868,0,8.918,4.809,8.993,7.975c0.426-0.885,0.734-1.839,0.885-2.846c0.041,0.003,0.081,0.013,0.123,0.013c1.104,0,2-0.895,2-2
			C69,29.891,68.104,28.996,67,28.996z"/>
	</g>
	<circle fill="#FFB59E" cx="51.25" cy="33.246" r="1.25"/>
	<path fill="none" stroke="#45413C" stroke-linecap="round" stroke-linejoin="round" stroke-miterlimit="10" d="M66.5,56.496v7
		v1.083c0,1.608-1.309,2.917-2.917,2.917"/>
	
		<line fill="none" stroke="#45413C" stroke-linecap="round" stroke-linejoin="round" stroke-miterlimit="10" x1="57" y1="56.496" x2="57" y2="65.496"/>
	<circle fill="#FFB59E" cx="62.75" cy="33.246" r="1.25"/>
	<path fill="none" stroke="#45413C" stroke-linecap="round" stroke-linejoin="round" stroke-miterlimit="10" d="M53.992,35.785
		c1.822,1.604,4.195,1.604,6.017,0"/>
	<path fill="none" stroke="#45413C" stroke-linecap="round" stroke-linejoin="round" stroke-miterlimit="10" d="M67,28.996v-2.5
		c0-5.523-4.477-10-10-10s-10,4.477-10,10v2.5c-1.104,0-2,0.895-2,2c0,1.105,0.896,2,2,2c0.042,0,0.081-0.01,0.123-0.012
		c0.72,4.815,4.861,8.512,9.877,8.512s9.157-3.697,9.877-8.512c0.041,0.003,0.081,0.012,0.123,0.012c1.104,0,2-0.895,2-2
		C69,29.891,68.104,28.996,67,28.996z"/>
	
		<line fill="none" stroke="#45413C" stroke-linecap="round" stroke-linejoin="round" stroke-miterlimit="10" x1="54.492" y1="29.496" x2="52" y2="27.996"/>
	<g>
		<path fill="#45413C" d="M53,29.996c-0.552,0-1,0.448-1,1s0.448,1,1,1s1-0.448,1-1S53.552,29.996,53,29.996L53,29.996z"/>
	</g>
	
		<line fill="none" stroke="#45413C" stroke-linecap="round" stroke-linejoin="round" stroke-miterlimit="10" x1="59.508" y1="29.496" x2="62" y2="27.996"/>
	<g>
		<path fill="#45413C" d="M61,29.996c-0.552,0-1,0.448-1,1s0.448,1,1,1s1-0.448,1-1S61.552,29.996,61,29.996L61,29.996z"/>
	</g>
	<g>
		<path fill="#87898C" d="M56.78,14.496c-6.61,0.12-11.78,5.79-11.78,12.4v3.002c0-6.61,5.17-12.28,11.78-12.4
			c6.729-0.12,12.22,5.3,12.22,12v-3.002C69,19.796,63.51,14.376,56.78,14.496z"/>
	</g>
	<path fill="#656769" d="M56.78,14.496c-6.61,0.12-11.78,5.79-11.78,12.4v10.34c0,3.41,0.78,6.37,2.17,8.78
		c1.39,2.4,3.39,4.047,5.83,5.267c-0.021-0.027-0.04-0.05-0.062-0.077c-1.728-1.794-3.206-3.987-3.938-6.4
		c-0.01-0.02-0.01-0.05-0.02-0.07c-0.73-2.46-0.98-5.65-0.98-11.08c0-3.66,2-8.16,9-8.16s9,5,9,8.16c0,5.43-0.25,8.62-0.98,11.08
		c-0.1,0.334-0.21,0.652-0.328,0.962l0,0c-0.766,2.01-2.158,3.995-3.667,5.552c-0.064,0.078-0.128,0.151-0.192,0.231
		c2.45-1.22,4.617-3.075,6.006-5.315c0.02-0.03,0.04-0.07,0.06-0.1c1.34-2.23,2.1-4.81,2.1-7.51v-12.06
		C69,19.796,63.51,14.376,56.78,14.496z"/>
	<g>
		<path fill="#87898C" d="M56.78,14.496c-6.61,0.12-11.78,5.79-11.78,12.4v3.812c0-6.61,5.17-12.28,11.78-12.4
			c6.729-0.12,12.22,5.3,12.22,12v-3.812C69,19.796,63.51,14.376,56.78,14.496z"/>
	</g>
	<path fill="none" stroke="#45413C" stroke-linecap="round" stroke-linejoin="round" stroke-miterlimit="10" d="M56.78,14.496
		c-6.61,0.12-11.78,5.79-11.78,12.4v10.34c0,3.41,0.78,6.37,2.17,8.78c1.39,2.4,3.39,4.047,5.83,5.267
		c-0.021-0.027-0.04-0.05-0.062-0.077c-1.728-1.794-3.206-3.987-3.938-6.4c-0.01-0.02-0.01-0.05-0.02-0.07
		c-0.73-2.46-0.98-5.65-0.98-11.08c0-3.66,2-8.16,9-8.16s9,5,9,8.16c0,5.43-0.25,8.62-0.98,11.08c-0.1,0.334-0.21,0.652-0.328,0.962
		l0,0c-0.766,2.01-2.158,3.995-3.667,5.552c-0.064,0.078-0.128,0.151-0.192,0.231c2.45-1.22,4.617-3.075,6.006-5.315
		c0.02-0.03,0.04-0.07,0.06-0.1c1.34-2.23,2.1-4.81,2.1-7.51v-12.06C69,19.796,63.51,14.376,56.78,14.496z"/>
	<path fill="#FFCEBF" stroke="#45413C" stroke-linecap="round" stroke-linejoin="round" stroke-miterlimit="10" d="M60,67.502h-3.5
		c-1.657,0-3,1.343-3,3l0,0c0,1.657,1.343,3,3,3H60V67.502z"/>
	
		<line fill="#FFCEBF" stroke="#45413C" stroke-linecap="round" stroke-linejoin="round" stroke-miterlimit="10" x1="60" y1="73.502" x2="60" y2="67.502"/>
	<ellipse opacity="0.15" fill="#45413C" cx="44.602" cy="74.5" rx="21.102" ry="1.5"/>
	<path fill="#87898C" stroke="#45413C" stroke-linejoin="round" stroke-miterlimit="10" d="M49.284,70.5h2.345l-5.6-17.188
		c-0.156-0.484-0.607-0.812-1.116-0.812h-1.491L49.284,70.5z"/>
	<path fill="#525252" d="M26.423,70.5h22.861l-5.862-18H22.172c-0.375,0-0.727,0.179-0.948,0.482
		c-0.221,0.303-0.283,0.693-0.168,1.05L26.423,70.5z"/>
	<path fill="#656769" d="M22.172,52.5c-0.375,0-0.727,0.179-0.948,0.482c-0.221,0.303-0.283,0.693-0.168,1.05l5.038,15.456
		L43.082,52.5H22.172z"/>
	<path fill="none" stroke="#45413C" stroke-linejoin="round" stroke-miterlimit="10" d="M26.423,70.5h22.861l-5.862-18H22.172
		c-0.375,0-0.727,0.179-0.948,0.482c-0.221,0.303-0.283,0.693-0.168,1.05L26.423,70.5z"/>
	<path fill="#656769" stroke="#45413C" stroke-linejoin="round" stroke-miterlimit="10" d="M26.499,70.5h24v3H28.811
		c-1.295,0-2.311-1.05-2.311-2.345V70.5z"/>
	<path fill="#87898C" stroke="#45413C" stroke-linejoin="round" stroke-miterlimit="10" d="M50.499,70.5h11.5v0.655
		c0,1.295-1.05,2.345-2.345,2.345h-9.155V70.5z"/>
	<path fill="none" stroke="#45413C" stroke-linejoin="round" stroke-miterlimit="10" d="M26.423,70.5h22.861l-5.862-18H22.172
		c-0.375,0-0.727,0.179-0.948,0.482c-0.221,0.303-0.283,0.693-0.168,1.05L26.423,70.5z"/>
	<g>
		<g>
			<path fill="#FF6242" stroke="#45413C" stroke-linejoin="round" stroke-miterlimit="10" d="M37.907,60.333
				c0.139-0.493,0.741-0.49,1.083,0.004c0.731,1.054,1.097,1.58,1.83,2.632c0.733,1.052,1.1,1.578,1.834,2.629
				c0.345,0.493,0.171,1.108-0.312,1.108c-1.031,0-1.547,0-2.578-0.001c-1.031,0-1.547-0.001-2.578-0.001
				c-0.484,0-0.912-0.618-0.771-1.111c0.3-1.053,0.45-1.58,0.749-2.631C37.462,61.909,37.61,61.383,37.907,60.333z"/>
			<path fill="none" stroke="#FFFFFF" stroke-linecap="round" stroke-linejoin="round" stroke-miterlimit="10" d="M38.837,62.217
				c0.124,0.598,0.185,0.898,0.309,1.496"/>
			<path fill="#FFFFFF" d="M39.878,65.209c0.057,0.275-0.086,0.498-0.32,0.498c-0.233,0-0.469-0.224-0.526-0.499
				c-0.057-0.275,0.086-0.498,0.32-0.498C39.586,64.71,39.821,64.934,39.878,65.209z"/>
		</g>
		<g>
			<path fill="#FFE500" stroke="#45413C" stroke-linejoin="round" stroke-miterlimit="10" d="M32.911,60.369
				c0.419,2.071-0.661,3.748-2.411,3.745c-1.751-0.003-3.503-1.689-3.914-3.766c-0.411-2.078,0.663-3.75,2.406-3.741
				C30.735,56.615,32.492,58.297,32.911,60.369z"/>
			<path fill="#45413C" d="M28.402,58.882c-0.233-0.001-0.377,0.223-0.322,0.499c0.055,0.277,0.288,0.502,0.521,0.503
				c0.233,0.001,0.377-0.223,0.321-0.499C28.868,59.108,28.635,58.883,28.402,58.882L28.402,58.882z"/>
			<path fill="#FFE500" stroke="#45413C" stroke-linecap="round" stroke-linejoin="round" stroke-miterlimit="10" d="M29.008,61.607
				c0.237,0.505,0.695,0.878,1.167,0.879c0.471,0.001,0.781-0.369,0.816-0.874"/>
			<path fill="none" stroke="#45413C" stroke-miterlimit="10" d="M27.305,57.594c2.139,0.611,3.21,0.916,5.354,1.525"/>
			<path fill="#45413C" d="M30.619,58.36c-0.174-0.001-0.261-0.001-0.435-0.002c-0.345-0.002-0.558,0.33-0.476,0.74
				c0.041,0.207,0.062,0.31,0.104,0.517c0.082,0.41,0.429,0.744,0.774,0.745c0.174,0.001,0.261,0.001,0.435,0.001
				c0.346,0.001,0.559-0.33,0.476-0.74c-0.042-0.207-0.062-0.31-0.104-0.517C31.31,58.695,30.964,58.361,30.619,58.36L30.619,58.36z
				"/>
		</g>
	</g>
</g>
</svg>
