<?xml version="1.0" encoding="utf-8"?>
<!-- Generator: Adobe Illustrator 21.0.0, SVG Export Plug-In . SVG Version: 6.00 Build 0)  -->
<svg version="1.1" id="Layer_1" xmlns="http://www.w3.org/2000/svg" xmlns:xlink="http://www.w3.org/1999/xlink" x="0px" y="0px"
	 width="96px" height="96px" viewBox="0 0 96 96" enable-background="new 0 0 96 96" xml:space="preserve">
<g>
	<g>
		<path fill="#BDFBFC" d="M87,49C87,26.909,69.091,9,47,9S7,26.909,7,49c0,5.885,1.281,11.468,3.564,16.5h72.872
			C85.718,60.468,87,54.885,87,49z"/>
		<path fill="#FFEF9E" d="M10.564,65.5C16.849,79.357,30.794,89,47,89s30.151-9.643,36.436-23.5H10.564z"/>
		<path fill="#FFFACF" d="M81.607,69c0.659-1.137,1.282-2.296,1.829-3.5H10.564c0.546,1.204,1.17,2.363,1.829,3.5H81.607z"/>
	</g>
	<g>
		
			<line fill="none" stroke="#45413C" stroke-linecap="round" stroke-linejoin="round" stroke-miterlimit="10" x1="8" y1="65.5" x2="86" y2="65.5"/>
		
			<line fill="none" stroke="#45413C" stroke-linecap="round" stroke-linejoin="round" stroke-miterlimit="10" x1="3.5" y1="65.5" x2="6" y2="65.5"/>
		
			<line fill="none" stroke="#45413C" stroke-linecap="round" stroke-linejoin="round" stroke-miterlimit="10" x1="88" y1="65.5" x2="90.5" y2="65.5"/>
	</g>
</g>
<g>
	<path fill="#F0F0F0" d="M81,65h-3.083C76.309,65,75,63.691,75,62.083V58c0-8.561-6.94-15.5-15.5-15.5S44,49.439,44,58v7.5h25.681
		c1.343,3.226,4.529,5.5,8.236,5.5H81V65z"/>
	<path fill="#FFFFFF" d="M59.5,42.5C50.939,42.5,44,49.439,44,58v4.5C44,53.939,50.939,47,59.5,47S75,53.939,75,62.5V58
		C75,49.439,68.061,42.5,59.5,42.5z"/>
	<path fill="none" stroke="#45413C" stroke-linecap="round" stroke-linejoin="round" stroke-miterlimit="10" d="M81,65h-3.083
		C76.309,65,75,63.691,75,62.083V58c0-8.561-6.94-15.5-15.5-15.5S44,49.439,44,58v7.5h25.681c1.343,3.226,4.529,5.5,8.236,5.5H81V65
		z"/>
	<path fill="#FFFFFF" stroke="#45413C" stroke-linecap="round" stroke-linejoin="round" stroke-miterlimit="10" d="M63,41.5h-3.5V63
		l8-11.5L66,49l3-1C69,46.583,65.5,41.5,63,41.5z"/>
	<path fill="#FFFFFF" stroke="#45413C" stroke-linecap="round" stroke-linejoin="round" stroke-miterlimit="10" d="M56,41.5h3.5V63
		l-8-11.5L53,49l-3-1C50,46.583,53.5,41.5,56,41.5z"/>
	<path fill="#B8ECFF" stroke="#45413C" stroke-linecap="round" stroke-linejoin="round" stroke-miterlimit="10" d="M63.663,44.375
		L63,41.5h-7l-0.663,2.875c-0.547,2.371-0.43,4.847,0.34,7.155L59.5,63l3.823-11.47C64.093,49.221,64.21,46.745,63.663,44.375z"/>
	
		<line fill="none" stroke="#45413C" stroke-linecap="round" stroke-linejoin="round" stroke-miterlimit="10" x1="59.5" y1="62.5" x2="59.5" y2="65.5"/>
	<path fill="#B8ECFF" stroke="#45413C" stroke-linecap="round" stroke-linejoin="round" stroke-miterlimit="10" d="M59.5,48.5
		l3.987,2.5c0.619-2.155,0.682-4.435,0.176-6.625L63,41.5C62.47,44.18,61.6,46.68,59.5,48.5z"/>
	<path fill="#FFCEBF" stroke="#45413C" stroke-linecap="round" stroke-linejoin="round" stroke-miterlimit="10" d="M56,39.5v2
		c0.53,2.68,1.4,5.18,3.5,7c2.1-1.82,2.97-4.32,3.5-7v-2H56z"/>
	<path fill="#FFB59E" d="M62.632,43.089c0.141-0.52,0.262-1.051,0.368-1.589v-2h-7v3.486c1.11,0.33,2.283,0.514,3.5,0.514
		C60.584,43.5,61.632,43.354,62.632,43.089z"/>
	<path fill="none" stroke="#45413C" stroke-linecap="round" stroke-linejoin="round" stroke-miterlimit="10" d="M56,39.5v2
		c0.53,2.68,1.4,5.18,3.5,7c2.1-1.82,2.97-4.32,3.5-7v-2H56z"/>
	<path fill="#FFCEBF" stroke="#45413C" stroke-linecap="round" stroke-linejoin="round" stroke-miterlimit="10" d="M69.5,29v-2.5
		c0-5.523-4.477-10-10-10s-10,4.477-10,10V29c-1.104,0-2,0.895-2,2c0,1.105,0.896,2,2,2c0.042,0,0.081-0.01,0.123-0.012
		c0.72,4.815,4.861,8.512,9.877,8.512s9.157-3.697,9.877-8.512C69.419,32.99,69.458,33,69.5,33c1.104,0,2-0.895,2-2
		C71.5,29.895,70.604,29,69.5,29z"/>
	<path fill="none" stroke="#45413C" stroke-linecap="round" stroke-linejoin="round" stroke-miterlimit="10" d="M56.483,35.797
		c1.822,1.604,4.195,1.604,6.017,0"/>
	<circle fill="#FFB59E" cx="53.75" cy="33.25" r="1.25"/>
	<circle fill="#FFB59E" cx="65.25" cy="33.25" r="1.25"/>
	
		<line fill="none" stroke="#45413C" stroke-linecap="round" stroke-linejoin="round" stroke-miterlimit="10" x1="50" y1="56.5" x2="50" y2="65.5"/>
	<path fill="#614B44" d="M66.5,15.503c0-0.874-1.545-2.003-3.5-2.003c-2.984,0-6.5,0-6.5,0c-5.483,0-9.5,4.52-9.5,10.003
		c0,2.091,0.335,4.178,1.44,5.81c0.308-0.193,0.669-0.31,1.06-0.31c0.602,0,1.136,0.272,1.502,0.693
		c0.152-1.39,0.362-3.918,0.091-5.534c1.057,0.352,2.297,0.511,3.6,0.511c5.008,0,10.938-2.345,10.938-5.054
		c-0.311,3.844,0.885,6.846,2.682,9.781c0.332-0.247,0.74-0.398,1.186-0.398c0.5,0,0.952,0.19,1.303,0.494
		c0.024,0.014,0.049,0.02,0.073,0.045C71.684,30.349,74.416,17.262,66.5,15.503z"/>
	<path fill="#947063" d="M56.5,17c0,0,3.516,0,6.5,0c1.955,0,3.5,1.129,3.5,2.003c3.684,0.819,5.061,4.091,5.399,7.274
		c0.381-3.792-0.292-9.639-5.399-10.774c0-0.874-1.545-2.003-3.5-2.003c-2.984,0-6.5,0-6.5,0c-5.483,0-9.5,4.52-9.5,10.003
		c0,0.659,0.039,1.316,0.119,1.96C47.793,20.701,51.542,17,56.5,17z"/>
	<path fill="#B8ECFF" stroke="#45413C" stroke-linecap="round" stroke-linejoin="round" stroke-miterlimit="10" d="M59.5,48.5
		l3.987,2.5c0.619-2.155,0.682-4.435,0.176-6.625L63,41.5C62.47,44.18,61.6,46.68,59.5,48.5z"/>
	<path fill="#B8ECFF" stroke="#45413C" stroke-linecap="round" stroke-linejoin="round" stroke-miterlimit="10" d="M59.5,48.5
		L55.513,51c-0.619-2.155-0.682-4.435-0.176-6.625L56,41.5C56.53,44.18,57.4,46.68,59.5,48.5z"/>
	<path fill="#B8ECFF" stroke="#45413C" stroke-linecap="round" stroke-linejoin="round" stroke-miterlimit="10" d="M59.5,48.5
		L55.513,51c-0.619-2.155-0.682-4.435-0.176-6.625L56,41.5C56.53,44.18,57.4,46.68,59.5,48.5z"/>
	<polygon fill="#FF6242" stroke="#45413C" stroke-linecap="round" stroke-linejoin="round" stroke-miterlimit="10" points="
		59.5,48.5 57.69,49.63 58.5,51.5 60.5,51.5 61.31,49.63 	"/>
	<path fill="#FF6242" stroke="#45413C" stroke-linecap="round" stroke-linejoin="round" stroke-miterlimit="10" d="M60.5,51.5h-2
		c0,0-0.55,1.93-0.83,6L59.5,63l1.83-5.5C61.05,53.43,60.5,51.5,60.5,51.5z"/>
	<path fill="none" stroke="#45413C" stroke-linejoin="round" stroke-miterlimit="10" d="M66.5,15.503c0-0.874-1.545-2.003-3.5-2.003
		c-2.984,0-6.5,0-6.5,0c-5.483,0-9.5,4.52-9.5,10.003c0,2.091,0.335,4.178,1.44,5.81c0.308-0.193,0.669-0.31,1.06-0.31
		c0.602,0,1.136,0.272,1.502,0.693c0.152-1.39,0.362-3.918,0.091-5.534c1.057,0.352,2.297,0.511,3.6,0.511
		c5.008,0,10.938-2.345,10.938-5.054c-0.311,3.844,0.885,6.846,2.682,9.781c0.332-0.247,0.74-0.398,1.186-0.398
		c0.5,0,0.952,0.19,1.303,0.494c0.024,0.014,0.049,0.02,0.073,0.045C71.684,30.349,74.416,17.262,66.5,15.503z"/>
	<path fill="#FFFFFF" d="M59.5,27h-10v4c0,1.5,3.5,2.5,5.5,2.5c1.96,0,2.853-1.28,3.236-2.168c0.218-0.505,0.716-0.832,1.266-0.832
		c0.548,0,1.043,0.326,1.26,0.829C61.145,32.217,62.038,33.5,64,33.5c2,0,5.5-1,5.5-2.5v-4H59.5z"/>
	<path fill="none" stroke="#45413C" stroke-linecap="round" stroke-linejoin="round" stroke-miterlimit="10" d="M65,30
		c-0.31-0.589-0.854-1.003-1.504-1.003c-0.65,0-1.195,0.414-1.504,1.003"/>
	<path fill="none" stroke="#45413C" stroke-linecap="round" stroke-linejoin="round" stroke-miterlimit="10" d="M57.008,30
		c-0.31-0.589-0.854-1.003-1.504-1.003S54.31,29.411,54,30"/>
	<path fill="none" stroke="#45413C" stroke-linecap="round" stroke-linejoin="round" stroke-miterlimit="10" d="M59.5,27h-10v4
		c0,1.5,3.5,2.5,5.5,2.5c1.96,0,2.853-1.28,3.236-2.168c0.218-0.505,0.716-0.832,1.266-0.832c0.548,0,1.043,0.326,1.26,0.829
		C61.145,32.217,62.038,33.5,64,33.5c2,0,5.5-1,5.5-2.5v-4H59.5z"/>
	<path fill="#FFFFFF" stroke="#45413C" stroke-linecap="round" stroke-linejoin="round" stroke-miterlimit="10" d="M71.813,27H69.5
		v2h1.847C71.519,28.544,71.69,27.846,71.813,27z"/>
	<path fill="#FFFFFF" stroke="#45413C" stroke-linecap="round" stroke-linejoin="round" stroke-miterlimit="10" d="M47.187,27H49.5
		v2h-1.847C47.481,28.544,47.31,27.846,47.187,27z"/>
	<path fill="#4AEFF7" d="M81.49,67.292l3.01-4.603L81.152,60.5l-3.01,4.603l-6.361,4.511c-1.159,0.812-1.131,2.537,0.053,3.312
		l5.018,3.282c1.184,0.774,2.776,0.108,3.055-1.279L81.49,67.292z"/>
	<path fill="#A6FBFF" d="M73.281,71.115l6.361-4.511l3.259-4.96L81.152,60.5l-3.01,4.603l-6.361,4.511
		c-1.159,0.812-1.131,2.537,0.053,3.312l0.711,0.465C72.277,72.592,72.511,71.654,73.281,71.115z"/>
	<path fill="#FF6242" d="M71.087,70.5c-0.342,0.843-0.097,1.875,0.747,2.426l5.019,3.282c1.184,0.774,2.776,0.108,3.055-1.279
		l0.918-4.429H71.087z"/>
	<path fill="#FF866E" d="M73.281,71.115l0.867-0.615h-3.061c-0.084,0.208-0.132,0.428-0.144,0.649l-0.001,0.012
		c-0.011,0.22,0.014,0.44,0.074,0.652c0.003,0.012,0.01,0.023,0.013,0.035c0.054,0.179,0.142,0.348,0.247,0.508
		c0.028,0.042,0.056,0.084,0.088,0.125c0.13,0.166,0.28,0.321,0.47,0.445l0.711,0.465C72.277,72.592,72.511,71.654,73.281,71.115z"
		/>
	<path fill="none" stroke="#45413C" stroke-linecap="round" stroke-linejoin="round" stroke-miterlimit="10" d="M81.49,67.292
		l3.01-4.603L81.152,60.5l-3.01,4.603l-6.361,4.511c-1.159,0.812-1.131,2.537,0.053,3.312l5.018,3.282
		c1.184,0.774,2.776,0.108,3.055-1.279L81.49,67.292z"/>
	<g>
		<path fill="#00DBA8" d="M81.107,72.106l-2.224-1.004c-0.755-0.341-1.091-1.229-0.75-1.984l1.234-2.734
			c0.341-0.755,1.229-1.091,1.984-0.75l2.224,1.004c0.893,0.403,1.393,1.402,1.11,2.341c-0.25,0.829-0.632,1.676-1.089,2.412
			C83.08,72.223,82,72.509,81.107,72.106z"/>
		<path fill="#00F5BC" d="M80.529,67.456l4.052,1.829c0.027-0.08,0.053-0.16,0.078-0.239c0.3-0.963-0.173-1.998-1.092-2.413
			l-2.215-1c-0.755-0.341-1.644-0.005-1.984,0.75l-0.823,1.823C78.885,67.451,79.774,67.115,80.529,67.456z"/>
		<path fill="none" stroke="#45413C" stroke-linecap="round" stroke-linejoin="round" stroke-miterlimit="10" d="M81.107,72.106
			l-2.224-1.004c-0.755-0.341-1.091-1.229-0.75-1.984l1.234-2.734c0.341-0.755,1.229-1.091,1.984-0.75l2.224,1.004
			c0.893,0.403,1.393,1.402,1.11,2.341c-0.25,0.829-0.632,1.676-1.089,2.412C83.08,72.223,82,72.509,81.107,72.106z"/>
	</g>
	
		<circle fill="#FF6242" stroke="#45413C" stroke-linecap="round" stroke-linejoin="round" stroke-miterlimit="10" cx="82" cy="56.5" r="1.5"/>
	
		<circle fill="#FF6242" stroke="#45413C" stroke-linecap="round" stroke-linejoin="round" stroke-miterlimit="10" cx="86.5" cy="55.5" r="1"/>
	
		<circle fill="#FF6242" stroke="#45413C" stroke-linecap="round" stroke-linejoin="round" stroke-miterlimit="10" cx="84" cy="49" r="1"/>
	<g>
		<path fill="#A6FBFF" stroke="#45413C" stroke-linecap="round" stroke-linejoin="round" stroke-miterlimit="10" d="M27.5,66.5
			c0,1.105-0.895,2-2,2s-2-0.895-2-2V51c0-0.552,0.448-1,1-1h2c0.552,0,1,0.448,1,1V66.5z"/>
		<ellipse opacity="0.15" fill="#45413C" cx="32.5" cy="72" rx="15" ry="1.5"/>
		<path fill="#DEBB7E" stroke="#45413C" stroke-linecap="round" stroke-linejoin="round" stroke-miterlimit="10" d="M21,71h-1.5
			c-0.552,0-1-0.448-1-1V57.5c0-0.552,0.448-1,1-1H20c0.552,0,1,0.448,1,1V71z"/>
		<path fill="#DEBB7E" stroke="#45413C" stroke-linecap="round" stroke-linejoin="round" stroke-miterlimit="10" d="M46.5,70
			c0,0.552-0.448,1-1,1H44V57.5c0-0.552,0.448-1,1-1h0.5c0.552,0,1,0.448,1,1V70z"/>
		
			<rect x="21" y="68.5" fill="#DEBB7E" stroke="#45413C" stroke-linecap="round" stroke-linejoin="round" stroke-miterlimit="10" width="23" height="2.5"/>
		<path fill="#9CEB60" stroke="#45413C" stroke-linecap="round" stroke-linejoin="round" stroke-miterlimit="10" d="M27.5,66.5
			c0,1.105-0.895,2-2,2s-2-0.895-2-2V54h4V66.5z"/>
		<path fill="#A6FBFF" stroke="#45413C" stroke-linecap="round" stroke-linejoin="round" stroke-miterlimit="10" d="M34.5,66.5
			c0,1.105-0.895,2-2,2c-1.105,0-2-0.895-2-2V51c0-0.552,0.448-1,1-1h2c0.552,0,1,0.448,1,1V66.5z"/>
		<path fill="#FF6196" stroke="#45413C" stroke-linecap="round" stroke-linejoin="round" stroke-miterlimit="10" d="M34.5,66.5
			c0,1.105-0.895,2-2,2c-1.105,0-2-0.895-2-2V54h4V66.5z"/>
		<path fill="#A6FBFF" stroke="#45413C" stroke-linecap="round" stroke-linejoin="round" stroke-miterlimit="10" d="M41.5,66.5
			c0,1.105-0.895,2-2,2s-2-0.895-2-2V51c0-0.552,0.448-1,1-1h2c0.552,0,1,0.448,1,1V66.5z"/>
		<path fill="#FF6242" stroke="#45413C" stroke-linecap="round" stroke-linejoin="round" stroke-miterlimit="10" d="M41.5,66.5
			c0,1.105-0.895,2-2,2s-2-0.895-2-2V54h4V66.5z"/>
		
			<rect x="21" y="59" fill="#DEBB7E" stroke="#45413C" stroke-linecap="round" stroke-linejoin="round" stroke-miterlimit="10" width="23" height="2"/>
	</g>
	<path fill="none" stroke="#45413C" stroke-linecap="round" stroke-linejoin="round" stroke-miterlimit="10" d="M69,56.5v5.583
		c0,1.21,0.243,2.364,0.681,3.417"/>
</g>
</svg>
