<?xml version="1.0" encoding="utf-8"?>
<!-- Generator: Adobe Illustrator 21.0.0, SVG Export Plug-In . SVG Version: 6.00 Build 0)  -->
<svg version="1.1" id="Layer_1" xmlns="http://www.w3.org/2000/svg" xmlns:xlink="http://www.w3.org/1999/xlink" x="0px" y="0px"
	 width="96px" height="96px" viewBox="0 0 96 96" enable-background="new 0 0 96 96" xml:space="preserve">
<g>
	<g>
		<path fill="#CDF7AD" d="M48,89c14.798,0,27.69-8.053,34.608-20H13.392C20.31,80.947,33.202,89,48,89z"/>
		<path fill="#E4FFD1" d="M11.564,65.5c0.546,1.204,1.17,2.363,1.828,3.5h69.215c0.658-1.137,1.282-2.296,1.828-3.5H11.564z"/>
	</g>
	<path fill="#BDFBFC" d="M88,49C88,26.909,70.091,9,48,9S8,26.909,8,49c0,5.885,1.281,11.468,3.564,16.5h72.872
		C86.718,60.468,88,54.885,88,49z"/>
	<g>
		
			<line fill="none" stroke="#45413C" stroke-linecap="round" stroke-linejoin="round" stroke-miterlimit="10" x1="9" y1="65.5" x2="87" y2="65.5"/>
		
			<line fill="none" stroke="#45413C" stroke-linecap="round" stroke-linejoin="round" stroke-miterlimit="10" x1="4.5" y1="65.5" x2="7" y2="65.5"/>
		
			<line fill="none" stroke="#45413C" stroke-linecap="round" stroke-linejoin="round" stroke-miterlimit="10" x1="89" y1="65.5" x2="91.5" y2="65.5"/>
	</g>
</g>
<g>
	<g>
		<ellipse opacity="0.15" fill="#45413C" cx="33.453" cy="79.4" rx="10" ry="1.5"/>
		<path fill="#FFCEBF" stroke="#45413C" stroke-linecap="round" stroke-linejoin="round" stroke-miterlimit="10" d="M41.5,63.9
			c0,0.994-0.806,1.8-1.8,1.8c-0.994,0-1.8-0.806-1.8-1.8v-2.4h3.6V63.9z"/>
		<path fill="#00B8F0" d="M36.826,75.9c0.772,0,1.587,0.147,2.274,0.474V59.099h-6h-1.2h-6v16.8h2.643
			c0.76,0,1.561,0.143,2.242,0.459l0.464-10.66c0.029-0.67,0.581-1.199,1.252-1.199c0.671,0,1.223,0.529,1.252,1.199L34.196,75.9
			H36.826z"/>
		<path fill="#009FD9" d="M39.1,62.099H25.9v6h5.244l0.104-2.401c0.029-0.67,0.581-1.199,1.252-1.199
			c0.671,0,1.223,0.529,1.252,1.199l0.104,2.401H39.1V62.099z"/>
		<path fill="none" stroke="#45413C" stroke-linecap="round" stroke-linejoin="round" stroke-miterlimit="10" d="M36.826,75.9
			c0.772,0,1.587,0.147,2.274,0.474V59.099h-6h-1.2h-6v16.8h2.643c0.76,0,1.561,0.143,2.242,0.459l0.464-10.66
			c0.029-0.67,0.581-1.199,1.252-1.199c0.671,0,1.223,0.529,1.252,1.199L34.196,75.9H36.826z"/>
		<path fill="#DEBB7E" stroke="#45413C" stroke-linecap="round" stroke-linejoin="round" stroke-miterlimit="10" d="M40.783,78.9
			c0-2.149-2.1-3-3.958-3h-2.642v2c0,0.552,0.448,1,1,1H40.783z"/>
		<path fill="#DEBB7E" stroke="#45413C" stroke-linecap="round" stroke-linejoin="round" stroke-miterlimit="10" d="M32.5,78.9
			c0-2.149-2.1-3-3.958-3H25.9v2c0,0.552,0.448,1,1,1H32.5z"/>
		<g>
			<path fill="#FFCEBF" stroke="#45413C" stroke-linecap="round" stroke-linejoin="round" stroke-miterlimit="10" d="M32.51,25.3
				c-3.313,0-6,2.686-6,6v1.2c-1.713,0-1.596,3,0.3,3l0.005-0.001c0.768,2.429,3.013,4.201,5.695,4.201c3.314,0,6-2.687,6-6v-2.4
				C38.51,27.986,35.824,25.3,32.51,25.3z"/>
			<g>
				<path fill="#45413C" d="M31.46,31.9c-0.414,0-0.75,0.335-0.75,0.75c0,0.414,0.336,0.75,0.75,0.75c0.414,0,0.75-0.336,0.75-0.75
					C32.21,32.235,31.874,31.9,31.46,31.9L31.46,31.9z"/>
			</g>
			<g>
				<path fill="#45413C" d="M35.96,31.9c-0.414,0-0.75,0.335-0.75,0.75c0,0.414,0.336,0.75,0.75,0.75c0.414,0,0.75-0.336,0.75-0.75
					C36.71,32.235,36.374,31.9,35.96,31.9L35.96,31.9z"/>
			</g>
			<circle fill="#FFB59E" cx="30.11" cy="35.05" r="0.6"/>
			<path fill="none" stroke="#45413C" stroke-linecap="round" stroke-linejoin="round" stroke-miterlimit="10" d="M32.21,36.043
				c0.795,0.662,1.8,0.746,2.647,0.249c0.121-0.071,0.239-0.154,0.353-0.249"/>
			<g>
				<path fill="#FFC44D" stroke="#45413C" stroke-linecap="round" stroke-linejoin="round" stroke-miterlimit="10" d="
					M29.209,28.884c2.631,2.552,7.168,2.131,9.9,1.207c-0.005-3.641-2.958-6.591-6.6-6.591c-3.646,0-6.6,2.955-6.6,6.6
					c0,0.432,0,2.084,0,2.084S29.209,31.359,29.209,28.884"/>
				<path fill="#FFDB94" d="M32.51,26.409c2.664,0,4.945,1.586,5.988,3.859c0.206-0.059,0.422-0.113,0.612-0.177
					c-0.005-3.641-2.958-6.591-6.6-6.591c-3.646,0-6.6,2.955-6.6,6.6c0,0.432,0,2.084,0,2.084s0.051-0.015,0.085-0.025
					C26.417,28.92,29.156,26.409,32.51,26.409z"/>
				<path fill="none" stroke="#45413C" stroke-linecap="round" stroke-linejoin="round" stroke-miterlimit="10" d="M29.209,28.884
					c2.631,2.552,7.168,2.131,9.9,1.207c-0.005-3.641-2.958-6.591-6.6-6.591c-3.646,0-6.6,2.955-6.6,6.6c0,0.432,0,2.084,0,2.084
					S29.209,31.359,29.209,28.884"/>
				<path fill="none" stroke="#45413C" stroke-linecap="round" stroke-linejoin="round" stroke-miterlimit="10" d="M29.209,28.884
					c-0.304-0.295-0.348-0.248-0.595-0.626"/>
			</g>
		</g>
		<g>
			<path fill="#C0DCEB" stroke="#45413C" stroke-miterlimit="10" d="M29.5,77.099H18.7c-0.663,0-1.2-0.537-1.2-1.2v-7.2
				c0-0.663,0.538-1.2,1.2-1.2h10.8c0.663,0,1.2,0.537,1.2,1.2v7.2C30.7,76.562,30.163,77.099,29.5,77.099z"/>
			<path fill="#DAEDF7" d="M29.5,67.499H18.7c-0.663,0-1.2,0.537-1.2,1.2v3c0-0.663,0.538-1.2,1.2-1.2h10.8
				c0.663,0,1.2,0.537,1.2,1.2v-3C30.7,68.036,30.163,67.499,29.5,67.499z"/>
			<line fill="none" stroke="#45413C" stroke-miterlimit="10" x1="20.5" y1="67.499" x2="20.5" y2="77.055"/>
			<line fill="none" stroke="#45413C" stroke-miterlimit="10" x1="27.7" y1="67.545" x2="27.7" y2="77.099"/>
			<path fill="none" stroke="#45413C" stroke-miterlimit="10" d="M21.7,67.44v-1.47c0-0.812,0.658-1.47,1.47-1.47h1.86
				c0.812,0,1.47,0.659,1.47,1.47v1.47"/>
			<path fill="none" stroke="#45413C" stroke-miterlimit="10" d="M29.5,77.099H18.7c-0.663,0-1.2-0.537-1.2-1.2v-7.2
				c0-0.663,0.538-1.2,1.2-1.2h10.8c0.663,0,1.2,0.537,1.2,1.2v7.2C30.7,76.562,30.163,77.099,29.5,77.099z"/>
		</g>
		<path fill="#FFCEBF" stroke="#45413C" stroke-linecap="round" stroke-linejoin="round" stroke-miterlimit="10" d="M25.9,63.9
			c0,0.994-0.806,1.8-1.8,1.8c-0.994,0-1.8-0.806-1.8-1.8v-2.4h3.6V63.9z"/>
		<path fill="#00B8F0" d="M42.1,51.9c0-5.633-4.567-10.2-10.2-10.2s-10.2,4.567-10.2,10.2v8.6c0,0.552,0.448,1,1,1h3.2v4.5h3.237
			c1.351,0,2.614-0.675,3.363-1.8c0.75,1.124,2.012,1.8,3.363,1.8H39.1v-4.5h2c0.552,0,1-0.448,1-1V51.9z"/>
		<path fill="#4ACFFF" d="M31.9,41.7c-5.633,0-10.2,4.566-10.2,10.2v3.7c0-5.633,4.566-10.2,10.2-10.2s10.2,4.566,10.2,10.2v-3.7
			C42.1,46.266,37.533,41.7,31.9,41.7z"/>
		<path fill="none" stroke="#45413C" stroke-linecap="round" stroke-linejoin="round" stroke-miterlimit="10" d="M42.1,51.9
			c0-5.633-4.567-10.2-10.2-10.2s-10.2,4.567-10.2,10.2v8.6c0,0.552,0.448,1,1,1h3.2v4.5h3.237c1.351,0,2.614-0.675,3.363-1.8
			c0.75,1.124,2.012,1.8,3.363,1.8H39.1v-4.5h2c0.552,0,1-0.448,1-1V51.9z"/>
		
			<line fill="#00B8F0" stroke="#45413C" stroke-linecap="round" stroke-linejoin="round" stroke-miterlimit="10" x1="39.1" y1="61.499" x2="39.1" y2="51.299"/>
		
			<line fill="#00B8F0" stroke="#45413C" stroke-linecap="round" stroke-linejoin="round" stroke-miterlimit="10" x1="25.9" y1="61.499" x2="25.9" y2="51.299"/>
		<path fill="#FFFFFF" stroke="#45413C" stroke-linecap="round" stroke-linejoin="round" stroke-miterlimit="10" d="M32.5,57.299
			l4.169-14.414c-1.424-0.755-3.045-1.186-4.769-1.186c-1.309,0-2.558,0.256-3.708,0.705L32.5,57.299z"/>
		<path fill="#00B8F0" stroke="#45413C" stroke-linecap="round" stroke-linejoin="round" stroke-miterlimit="10" d="M36.669,42.886
			L32.5,57.299l4.8-6.6v-3l2.384-2.384C38.846,44.326,37.824,43.498,36.669,42.886z"/>
		<polygon fill="#FF6242" stroke="#45413C" stroke-linecap="round" stroke-linejoin="round" stroke-miterlimit="10" points="
			32.5,41.718 30.717,51.135 32.5,57.299 34.283,51.135 		"/>
		
			<line fill="#00B8F0" stroke="#45413C" stroke-linecap="round" stroke-linejoin="round" stroke-miterlimit="10" x1="32.5" y1="63.9" x2="32.5" y2="57.299"/>
		<polyline fill="none" stroke="#45413C" stroke-linecap="round" stroke-linejoin="round" stroke-miterlimit="10" points="
			35.712,46.196 32.51,41.718 29.288,46.194 		"/>
		<path fill="#00B8F0" stroke="#45413C" stroke-linecap="round" stroke-linejoin="round" stroke-miterlimit="10" d="M32.5,57.3
			l-4.31-14.904c-1.33,0.52-2.523,1.31-3.513,2.303L27.7,47.7v3L32.5,57.3z"/>
	</g>
	<g>
		<path fill="#6DD627" d="M64.653,31.3c-0.996,0-1.888,0.614-2.243,1.544L49.946,65.5H79.8L67.192,32.836
			c-0.357-0.926-1.247-1.536-2.239-1.536H64.653z"/>
		<polygon fill="#46B000" points="49.946,65.5 64.8,65.5 56.376,48.653 		"/>
		<path fill="none" stroke="#45413C" stroke-linejoin="round" stroke-miterlimit="10" d="M64.653,31.3
			c-0.996,0-1.888,0.614-2.243,1.544L49.946,65.5H79.8L67.192,32.836c-0.357-0.926-1.247-1.536-2.239-1.536H64.653z"/>
		
			<line fill="none" stroke="#45413C" stroke-linecap="round" stroke-linejoin="round" stroke-miterlimit="10" x1="64.8" y1="31.3" x2="64.8" y2="21.7"/>
		<g>
			<path fill="#FF6242" d="M64.8,10.7c0-0.552,0.448-1,1-1h14.453c0.237,0,0.452,0.139,0.548,0.356
				c0.097,0.216,0.057,0.469-0.102,0.645l-3.896,4.33c-0.342,0.38-0.342,0.958,0,1.338l3.896,4.33
				c0.159,0.176,0.199,0.429,0.102,0.646c-0.096,0.216-0.311,0.356-0.548,0.356H64.8V10.7z"/>
			<path fill="#FF866E" d="M80.698,10.701c0.159-0.176,0.199-0.429,0.102-0.645C80.704,9.839,80.489,9.7,80.253,9.7H65.8
				c-0.552,0-1,0.448-1,1v1.4h14.64L80.698,10.701z"/>
			<path fill="none" stroke="#45413C" stroke-linejoin="round" stroke-miterlimit="10" d="M64.8,10.7c0-0.552,0.448-1,1-1h14.453
				c0.237,0,0.452,0.139,0.548,0.356c0.097,0.216,0.057,0.469-0.102,0.645l-3.896,4.33c-0.342,0.38-0.342,0.958,0,1.338l3.896,4.33
				c0.159,0.176,0.199,0.429,0.102,0.646c-0.096,0.216-0.311,0.356-0.548,0.356H64.8V10.7z"/>
		</g>
		<path fill="#6DD627" stroke="#45413C" stroke-linejoin="round" stroke-miterlimit="10" d="M52.973,47.847
			c-0.442-0.885-1.705-0.885-2.146,0L42,65.5h19.8L52.973,47.847z"/>
		<path fill="#FFFFFF" stroke="#45413C" stroke-linejoin="round" stroke-miterlimit="10" d="M48.723,52.054l2.258,2.691
			c0.228,0.272,0.564,0.429,0.919,0.429c0.354,0,0.691-0.157,0.919-0.429l2.258-2.691l-2.104-4.207
			c-0.442-0.885-1.705-0.885-2.146,0L48.723,52.054z"/>
		<path fill="#F0F0F0" d="M60.411,46.172c0.19,0.319,0.515,0.532,0.883,0.578s0.735-0.08,0.998-0.342l1.66-1.66
			c0.469-0.469,1.229-0.469,1.697,0l1.658,1.658c0.262,0.262,0.63,0.388,0.998,0.342c0.368-0.046,0.693-0.26,0.882-0.579
			l1.908-3.222l-3.903-10.112c-0.357-0.926-1.247-1.536-2.239-1.536h-0.301c-0.996,0-1.887,0.614-2.243,1.544l-3.878,10.163
			L60.411,46.172z"/>
		<path fill="#FFFFFF" d="M61.539,36.827c0.484-0.93,1.699-1.544,3.056-1.544h0.41c1.352,0,2.564,0.61,3.051,1.536l2.532,4.813
			l-3.395-8.795c-0.357-0.926-1.247-1.536-2.239-1.536h-0.301c-0.996,0-1.887,0.614-2.243,1.544l-3.306,8.662L61.539,36.827z"/>
		<path fill="none" stroke="#45413C" stroke-linejoin="round" stroke-miterlimit="10" d="M60.411,46.172
			c0.19,0.319,0.515,0.532,0.883,0.578s0.735-0.08,0.998-0.342l1.66-1.66c0.469-0.469,1.229-0.469,1.697,0l1.658,1.658
			c0.262,0.262,0.63,0.388,0.998,0.342c0.368-0.046,0.693-0.26,0.882-0.579l1.908-3.222l-3.903-10.112
			c-0.357-0.926-1.247-1.536-2.239-1.536h-0.301c-0.996,0-1.887,0.614-2.243,1.544l-3.878,10.163L60.411,46.172z"/>
	</g>
</g>
</svg>
