<?xml version="1.0" encoding="utf-8"?>
<!-- Generator: Adobe Illustrator 21.0.0, SVG Export Plug-In . SVG Version: 6.00 Build 0)  -->
<svg version="1.1" id="Layer_1" xmlns="http://www.w3.org/2000/svg" xmlns:xlink="http://www.w3.org/1999/xlink" x="0px" y="0px"
	 width="96px" height="96px" viewBox="0 0 96 96" enable-background="new 0 0 96 96" xml:space="preserve">
<g>
	<g>
		<path fill="#BDFBFC" d="M88,49C88,26.909,70.091,9,48,9S8,26.909,8,49c0,5.885,1.281,11.468,3.564,16.5h72.872
			C86.718,60.468,88,54.885,88,49z"/>
		<path fill="#FFEF9E" d="M11.564,65.5C17.849,79.357,31.794,89,48,89s30.151-9.643,36.436-23.5H11.564z"/>
		<path fill="#FFFACF" d="M82.607,69c0.659-1.137,1.282-2.296,1.829-3.5H11.564c0.546,1.204,1.17,2.363,1.829,3.5H82.607z"/>
	</g>
	<g>
		
			<line fill="none" stroke="#45413C" stroke-linecap="round" stroke-linejoin="round" stroke-miterlimit="10" x1="9" y1="65.5" x2="87" y2="65.5"/>
		
			<line fill="none" stroke="#45413C" stroke-linecap="round" stroke-linejoin="round" stroke-miterlimit="10" x1="4.5" y1="65.5" x2="7" y2="65.5"/>
		
			<line fill="none" stroke="#45413C" stroke-linecap="round" stroke-linejoin="round" stroke-miterlimit="10" x1="89" y1="65.5" x2="91.5" y2="65.5"/>
	</g>
</g>
<g>
	<g>
		<path fill="#00B8F0" d="M42.493,58.3h3h4.8h4.8h4.8h4.8h4.8h3.864c0.516,0,0.936,0.42,0.936,0.936V63.1h-4.8h-4.8h-4.8h-4.8h-4.8
			h-4.8h-4.2L42.493,58.3z"/>
		<polygon fill="#4ACFFF" points="59.893,58.3 55.092,58.3 50.293,58.3 45.492,58.3 42.492,58.3 41.293,63.1 45.492,63.1 
			50.293,63.1 55.092,63.1 55.116,63.1 59.915,58.3 		"/>
		<path fill="#00B8F0" d="M61.093,31.3h2.4h4.2h4.8h4.2h2.4l0.192,0.024l-0.694,6.286c-0.056,0.507-0.484,0.89-0.994,0.89h-0.904
			h-0.6h-3.6h-4.8h-3.6h-0.6h-0.904c-0.51,0-0.938-0.383-0.994-0.89l-0.694-6.286L61.093,31.3z"/>
		<path fill="#4ACFFF" d="M67.693,31.3h-4.2h-2.4l-0.192,0.024l0.694,6.286c0.056,0.507,0.484,0.89,0.994,0.89h0.904h0.6h0.834
			l7.2-7.2H67.693z"/>
		<path fill="#FFFFFF" d="M41.293,63.1l-0.6,2.4h8.4h27.6v-8.004c0-0.876-0.72-1.596-1.596-1.596H49.093h-5.063
			c-0.551,0-1.031,0.375-1.164,0.909L42.493,58.3h3h4.8h4.8h4.8h4.8h4.8h3.864c0.516,0,0.936,0.42,0.936,0.936V63.1h-4.8h-4.8h-4.8
			h-4.8h-4.8h-4.8H41.293z"/>
		<path fill="#FFFFFF" d="M49.093,54.1v1.8h26.004c0.876,0,1.596,0.72,1.596,1.596V65.5h6V54.1c0-0.996-0.804-1.8-1.8-1.8h-1.2
			h-19.2h-9.6C49.897,52.3,49.093,53.104,49.093,54.1z"/>
		<path fill="#E8F4FA" d="M50.893,53.8h9.6h19.2h1.2c0.996,0,1.8,0.804,1.8,1.8v9.9h-6v-6.504v-1.5c0-0.876-0.72-1.596-1.596-1.596
			H49.093v-0.3C49.093,54.604,49.897,53.8,50.893,53.8z"/>
		<path fill="#FFFFFF" d="M61.693,49.9c-0.663,0-1.2,0.537-1.2,1.2v1.2h19.2v-1.2c0-0.663-0.537-1.2-1.2-1.2h-2.4h-12H61.693z"/>
		<path fill="#DAEDF7" d="M61.093,27.7c-0.324,0-0.564,0.276-0.528,0.6l0.336,3.024l0.192-0.024h2.4h4.2h4.8h4.2h2.4l0.192,0.024
			l0.336-3.024c0.036-0.324-0.204-0.6-0.528-0.6h-3h-12H61.093z"/>
		<path fill="#FFFFFF" d="M60.675,29.294h3.102h12.631h3.102l0.11-0.994c0.036-0.324-0.204-0.6-0.528-0.6h-3h-12h-3
			c-0.324,0-0.564,0.276-0.528,0.6L60.675,29.294z"/>
		<path fill="#FFE500" d="M63.493,40.9c-0.663,0-1.2,0.537-1.2,1.2c0,0.663,0.537,1.2,1.2,1.2h0.6h12h0.6c0.663,0,1.2-0.537,1.2-1.2
			c0-0.663-0.537-1.2-1.2-1.2h-0.6h-12H63.493z"/>
		<rect x="64.093" y="43.3" fill="#FFFFFF" width="12" height="6.6"/>
		<polygon fill="#C0DCEB" points="64.093,38.5 64.093,40.9 76.093,40.9 76.093,38.5 72.493,38.5 67.693,38.5 		"/>
		<path fill="#FFFFFF" d="M64.093,27.7h12c0-1.02-0.828-2.4-1.848-2.4h-1.152h-3h-3h-1.152C64.921,25.3,64.093,26.68,64.093,27.7z"
			/>
		
			<rect x="64.093" y="43.3" transform="matrix(-1 -1.224647e-16 1.224647e-16 -1 140.1852 88.6626)" fill="#DAEDF7" width="12" height="2.063"/>
		<path fill="none" stroke="#45413C" stroke-linecap="round" stroke-linejoin="round" stroke-miterlimit="10" d="M41.293,63.1
			l-0.6,2.4h8.4h27.6v-8.004c0-0.876-0.72-1.596-1.596-1.596H49.093h-5.063c-0.551,0-1.031,0.375-1.164,0.909L42.493,58.3h3h4.8h4.8
			h4.8h4.8h4.8h3.864c0.516,0,0.936,0.42,0.936,0.936V63.1h-4.8h-4.8h-4.8h-4.8h-4.8h-4.8H41.293z"/>
		<path fill="none" stroke="#45413C" stroke-linecap="round" stroke-linejoin="round" stroke-miterlimit="10" d="M49.093,54.1v1.8
			h26.004c0.876,0,1.596,0.72,1.596,1.596V65.5h6V54.1c0-0.996-0.804-1.8-1.8-1.8h-1.2h-19.2h-9.6
			C49.897,52.3,49.093,53.104,49.093,54.1z"/>
		<path fill="none" stroke="#45413C" stroke-linecap="round" stroke-linejoin="round" stroke-miterlimit="10" d="M61.693,49.9
			c-0.663,0-1.2,0.537-1.2,1.2v1.2h19.2v-1.2c0-0.663-0.537-1.2-1.2-1.2h-2.4h-12H61.693z"/>
		<path fill="none" stroke="#45413C" stroke-linecap="round" stroke-linejoin="round" stroke-miterlimit="10" d="M61.093,27.7
			c-0.324,0-0.564,0.276-0.528,0.6l0.336,3.024l0.192-0.024h2.4h4.2h4.8h4.2h2.4l0.192,0.024l0.336-3.024
			c0.036-0.324-0.204-0.6-0.528-0.6h-3h-12H61.093z"/>
		<path fill="none" stroke="#45413C" stroke-linecap="round" stroke-linejoin="round" stroke-miterlimit="10" d="M63.493,40.9
			c-0.663,0-1.2,0.537-1.2,1.2c0,0.663,0.537,1.2,1.2,1.2h0.6h12h0.6c0.663,0,1.2-0.537,1.2-1.2c0-0.663-0.537-1.2-1.2-1.2h-0.6h-12
			H63.493z"/>
		
			<rect x="64.093" y="43.3" fill="none" stroke="#45413C" stroke-linecap="round" stroke-linejoin="round" stroke-miterlimit="10" width="12" height="6.6"/>
		<polygon fill="none" stroke="#45413C" stroke-linecap="round" stroke-linejoin="round" stroke-miterlimit="10" points="
			64.093,38.5 64.093,40.9 76.093,40.9 76.093,38.5 72.493,38.5 67.693,38.5 		"/>
		<path fill="none" stroke="#45413C" stroke-linecap="round" stroke-linejoin="round" stroke-miterlimit="10" d="M64.093,27.7h12
			c0-1.02-0.828-2.4-1.848-2.4h-1.152h-3h-3h-1.152C64.921,25.3,64.093,26.68,64.093,27.7z"/>
		<path fill="none" stroke="#45413C" stroke-linecap="round" stroke-linejoin="round" stroke-miterlimit="10" d="M42.493,58.3h3h4.8
			h4.8h4.8h4.8h4.8h3.864c0.516,0,0.936,0.42,0.936,0.936V63.1h-4.8h-4.8h-4.8h-4.8h-4.8h-4.8h-4.2L42.493,58.3z"/>
		<path fill="none" stroke="#45413C" stroke-linecap="round" stroke-linejoin="round" stroke-miterlimit="10" d="M61.093,31.3h2.4
			h4.2h4.8h4.2h2.4l0.192,0.024l-0.694,6.286c-0.056,0.507-0.484,0.89-0.994,0.89h-0.904h-0.6h-3.6h-4.8h-3.6h-0.6h-0.904
			c-0.51,0-0.938-0.383-0.994-0.89l-0.694-6.286L61.093,31.3z"/>
		<path fill="none" stroke="#45413C" stroke-linecap="round" stroke-linejoin="round" stroke-miterlimit="10" d="M61.093,31.3h2.4
			h4.2h4.8h4.2h2.4l0.192,0.024l-0.694,6.286c-0.056,0.507-0.484,0.89-0.994,0.89h-0.904h-0.6h-3.6h-4.8h-3.6h-0.6h-0.904
			c-0.51,0-0.938-0.383-0.994-0.89l-0.694-6.286L61.093,31.3z"/>
		
			<line fill="none" stroke="#45413C" stroke-linecap="round" stroke-linejoin="round" stroke-miterlimit="10" x1="70.193" y1="25.3" x2="70.193" y2="21.1"/>
		
			<line fill="none" stroke="#45413C" stroke-linecap="round" stroke-linejoin="round" stroke-miterlimit="10" x1="67.193" y1="25.3" x2="67.193" y2="24.1"/>
		
			<line fill="none" stroke="#45413C" stroke-linecap="round" stroke-linejoin="round" stroke-miterlimit="10" x1="73.193" y1="25.3" x2="73.193" y2="24.1"/>
		
			<line fill="none" stroke="#45413C" stroke-linecap="round" stroke-linejoin="round" stroke-miterlimit="10" x1="76.793" y1="31.3" x2="76.793" y2="38.5"/>
		
			<line fill="none" stroke="#45413C" stroke-linecap="round" stroke-linejoin="round" stroke-miterlimit="10" x1="72.593" y1="31.3" x2="72.593" y2="38.5"/>
		
			<line fill="none" stroke="#45413C" stroke-linecap="round" stroke-linejoin="round" stroke-miterlimit="10" x1="67.793" y1="31.3" x2="67.793" y2="38.5"/>
		
			<line fill="none" stroke="#45413C" stroke-linecap="round" stroke-linejoin="round" stroke-miterlimit="10" x1="63.593" y1="31.3" x2="63.593" y2="38.5"/>
		
			<line fill="none" stroke="#45413C" stroke-linecap="round" stroke-linejoin="round" stroke-miterlimit="10" x1="69.593" y1="58.3" x2="69.593" y2="63.1"/>
		
			<line fill="none" stroke="#45413C" stroke-linecap="round" stroke-linejoin="round" stroke-miterlimit="10" x1="64.793" y1="58.3" x2="64.793" y2="63.1"/>
		
			<line fill="none" stroke="#45413C" stroke-linecap="round" stroke-linejoin="round" stroke-miterlimit="10" x1="59.993" y1="58.3" x2="59.993" y2="63.1"/>
		
			<line fill="none" stroke="#45413C" stroke-linecap="round" stroke-linejoin="round" stroke-miterlimit="10" x1="55.193" y1="58.3" x2="55.193" y2="63.1"/>
		
			<line fill="none" stroke="#45413C" stroke-linecap="round" stroke-linejoin="round" stroke-miterlimit="10" x1="50.393" y1="58.3" x2="50.393" y2="63.1"/>
		
			<line fill="none" stroke="#45413C" stroke-linecap="round" stroke-linejoin="round" stroke-miterlimit="10" x1="45.593" y1="58.3" x2="45.593" y2="63.1"/>
	</g>
	<path fill="#FFDA8F" stroke="#45413C" stroke-linecap="round" stroke-linejoin="round" stroke-miterlimit="10" d="M26.193,63.75
		c0,0.966,0.784,1.75,1.75,1.75s1.75-0.784,1.75-1.75V62h-3.5V63.75z"/>
	<path fill="#F0F0F0" d="M42.694,62h3.499c0.276,0,0.5-0.224,0.5-0.5V53c0-5.799-4.701-10.5-10.5-10.5s-10.5,4.701-10.5,10.5v8.5
		c0,0.276,0.224,0.5,0.5,0.5h3.5l-1,15h15L42.694,62z"/>
	<g>
		<path fill="#FFFFFF" d="M36.194,42.5c-5.799,0-10.5,4.701-10.5,10.5v2.5c0-5.799,4.701-10.5,10.5-10.5
			c5.799,0,10.5,4.701,10.5,10.5V53C46.694,47.201,41.992,42.5,36.194,42.5z"/>
	</g>
	<path fill="none" stroke="#45413C" stroke-linecap="round" stroke-linejoin="round" stroke-miterlimit="10" d="M42.694,62h3.499
		c0.276,0,0.5-0.224,0.5-0.5V53c0-5.799-4.701-10.5-10.5-10.5s-10.5,4.701-10.5,10.5v8.5c0,0.276,0.224,0.5,0.5,0.5h3.5l-1,15h15
		L42.694,62z"/>
	
		<line fill="#FFFFFF" stroke="#45413C" stroke-linecap="round" stroke-linejoin="round" stroke-miterlimit="10" x1="29.693" y1="62" x2="29.693" y2="50.5"/>
	
		<line fill="#FFFFFF" stroke="#45413C" stroke-linecap="round" stroke-linejoin="round" stroke-miterlimit="10" x1="42.693" y1="62" x2="42.693" y2="50.5"/>
	<path fill="#FFDA8F" stroke="#45413C" stroke-linecap="round" stroke-linejoin="round" stroke-miterlimit="10" d="M43.193,34.5
		c0-0.602-0.434-1.08-1-1.2v-0.8c0-3.314-2.686-6-6-6s-6,2.686-6,6v0.8c-0.566,0.119-1,0.598-1,1.2c0,0.646,0.497,1.16,1.126,1.225
		c0.565,2.726,2.98,4.775,5.874,4.775s5.309-2.049,5.874-4.775C42.696,35.66,43.193,35.146,43.193,34.5z"/>
	<g>
		<path fill="#FFBE3D" d="M40.302,32.21c0.829-0.16,1.573,0.357,1.891,0.933V32.5c0-3.314-2.686-6-6-6c-3.314,0-6,2.686-6,6v0.647
			c0.317-0.577,1.062-1.097,1.893-0.936c1.202,0.233,4.108,0.5,4.108,0.5S39.1,32.443,40.302,32.21z"/>
	</g>
	<path fill="#FFDA8F" stroke="#45413C" stroke-linecap="round" stroke-linejoin="round" stroke-miterlimit="10" d="M42.693,63.75
		c0,0.966,0.783,1.75,1.75,1.75c0.966,0,1.75-0.784,1.75-1.75V62h-3.5V63.75z"/>
	<ellipse opacity="0.15" fill="#45413C" cx="36.193" cy="80.5" rx="13" ry="1.5"/>
	<path fill="none" stroke="#45413C" stroke-linecap="round" stroke-linejoin="round" stroke-miterlimit="10" d="M43.193,34.5
		c0-0.602-0.434-1.08-1-1.2v-0.8c0-3.314-2.686-6-6-6s-6,2.686-6,6v0.8c-0.566,0.119-1,0.598-1,1.2c0,0.646,0.497,1.16,1.126,1.225
		c0.565,2.726,2.98,4.775,5.874,4.775s5.309-2.049,5.874-4.775C42.696,35.66,43.193,35.146,43.193,34.5z"/>
	<circle fill="#45413C" cx="33.943" cy="33.25" r="0.75"/>
	<circle fill="#45413C" cx="38.443" cy="33.25" r="0.75"/>
	<circle fill="#FFBE3D" cx="32.943" cy="35.25" r="0.75"/>
	<circle fill="#FFBE3D" cx="39.443" cy="35.25" r="0.75"/>
	<path fill="#FFDA8F" stroke="#45413C" stroke-linecap="round" stroke-linejoin="round" stroke-miterlimit="10" d="M42.925,79.5
		c0.357,0,0.687-0.191,0.866-0.5c0.179-0.309,0.179-0.691,0-1c-0.519-0.897-1.488-1.5-2.599-1.5h-0.5c-1.111,0-2.08,0.603-2.599,1.5
		c-0.179,0.31-0.179,0.691,0,1.001c0.179,0.31,0.509,0.499,0.867,0.499H42.925z"/>
	<path fill="#FFDA8F" stroke="#45413C" stroke-linecap="round" stroke-linejoin="round" stroke-miterlimit="10" d="M33.425,79.5
		c0.357,0,0.687-0.191,0.866-0.5c0.179-0.309,0.179-0.691,0-1c-0.519-0.897-1.488-1.5-2.599-1.5h-0.5c-1.111,0-2.08,0.603-2.599,1.5
		c-0.179,0.31-0.179,0.691,0,1.001c0.179,0.31,0.509,0.499,0.867,0.499H33.425z"/>
	<path fill="none" stroke="#45413C" stroke-linecap="round" stroke-linejoin="round" stroke-miterlimit="10" d="M29.927,76.758
		c0.422,0.492,1.266,1.617,1.266,2.742c0-1.5,2-2.5,2-2.5"/>
	<path fill="none" stroke="#45413C" stroke-linecap="round" stroke-linejoin="round" stroke-miterlimit="10" d="M42.458,76.758
		c-0.422,0.492-1.266,1.617-1.266,2.742c0-1.5-2-2.5-2-2.5"/>
	<path fill="#C0DCEB" stroke="#45413C" stroke-linecap="round" stroke-linejoin="round" stroke-miterlimit="10" d="M46.443,75.5
		c0,0.552-0.448,1-1,1h-2c-0.552,0-1-0.448-1-1V68c0-0.552,0.448-1,1-1h2c0.552,0,1,0.448,1,1V75.5z"/>
	<path fill="#DAEDF7" d="M45.443,67h-2c-0.552,0-1,0.448-1,1v2c0-0.552,0.448-1,1-1h2c0.552,0,1,0.448,1,1v-2
		C46.443,67.448,45.995,67,45.443,67z"/>
	<path fill="none" stroke="#45413C" stroke-linecap="round" stroke-linejoin="round" stroke-miterlimit="10" d="M46.443,75.5
		c0,0.552-0.448,1-1,1h-2c-0.552,0-1-0.448-1-1V68c0-0.552,0.448-1,1-1h2c0.552,0,1,0.448,1,1V75.5z"/>
	
		<line fill="none" stroke="#45413C" stroke-linecap="round" stroke-linejoin="round" stroke-miterlimit="10" x1="44.443" y1="65.5" x2="44.443" y2="67"/>
	<path fill="#656769" stroke="#45413C" stroke-linecap="round" stroke-linejoin="round" stroke-miterlimit="10" d="M39.193,37
		c0,0-1-1-3-1s-3,1-3,1s-2.831-0.591-2.549,0.491c1.395,5.356,5.549,5.009,5.549,5.009s4.149,0.346,5.547-5
		C42.023,36.417,39.193,37,39.193,37z"/>
	<path fill="none" stroke="#45413C" stroke-linecap="round" stroke-linejoin="round" stroke-miterlimit="10" d="M34.692,38.023
		c0.908,0.606,2.092,0.606,3,0"/>
	<path fill="#FFFFFF" stroke="#45413C" stroke-linecap="round" stroke-linejoin="round" stroke-miterlimit="10" d="M36.193,45.5
		c-0.349,0-0.683-0.059-1-0.154V54c0,0.276,0.224,0.5,0.5,0.5h1c0.276,0,0.5-0.224,0.5-0.5v-8.654
		C36.876,45.441,36.542,45.5,36.193,45.5z"/>
	<path fill="#FFDA8F" stroke="#45413C" stroke-linecap="round" stroke-linejoin="round" stroke-miterlimit="10" d="M39.517,43.046
		c-1.045-0.349-2.161-0.546-3.323-0.546c-1.163,0-2.278,0.197-3.323,0.546c0.447,1.419,1.757,2.454,3.323,2.454
		C37.76,45.5,39.07,44.464,39.517,43.046z"/>
	<path fill="#FF6242" stroke="#45413C" stroke-linecap="round" stroke-linejoin="round" stroke-miterlimit="10" d="M40.693,26.5
		c0-2-1.343-3-3-3h-1.5h-1.5c-1.657,0-3.001,1-3,3c-3.419,0.855-6.5,8-3.574,19.79c1.721-2.068,4.219-3.463,7.047-3.738l0.063-0.127
		c-1.5-0.278-4.284-1.504-4.908-6.688c-0.001-0.004-0.003-0.008-0.004-0.012c-0.629-0.065-1.126-0.579-1.126-1.225
		c0-0.602,0.434-1.08,1-1.2V32c0-0.728,0.927-1.714,2.001-1.5c1.17,0.233,4,0.5,4,0.5s2.83-0.267,4-0.5
		c1.074-0.214,2.001,0.772,2.001,1.5v1.3c0.566,0.119,1,0.598,1,1.2c0,0.646-0.497,1.16-1.126,1.225
		c-0.001,0.004-0.003,0.008-0.004,0.012c-0.624,5.184-3.409,6.41-4.908,6.688l0.063,0.127c2.828,0.275,5.327,1.67,7.047,3.738
		C47.193,34.5,44.112,27.355,40.693,26.5z"/>
	
		<line fill="none" stroke="#45413C" stroke-linecap="round" stroke-linejoin="round" stroke-miterlimit="10" x1="30.193" y1="26.5" x2="42.193" y2="26.5"/>
</g>
</svg>
