<?xml version="1.0" encoding="utf-8"?>
<!-- Generator: Adobe Illustrator 21.0.0, SVG Export Plug-In . SVG Version: 6.00 Build 0)  -->
<svg version="1.1" id="Layer_1" xmlns="http://www.w3.org/2000/svg" xmlns:xlink="http://www.w3.org/1999/xlink" x="0px" y="0px"
	 width="96px" height="96px" viewBox="0 0 96 96" enable-background="new 0 0 96 96" xml:space="preserve">
<g>
	<g>
		<path fill="#BDFBFC" d="M88,49C88,26.909,70.091,9,48,9S8,26.909,8,49c0,5.885,1.281,11.468,3.564,16.5h72.872
			C86.718,60.468,88,54.885,88,49z"/>
		<path fill="#FFEF9E" d="M11.564,65.5C17.849,79.357,31.794,89,48,89s30.151-9.643,36.436-23.5H11.564z"/>
		<path fill="#FFFACF" d="M82.607,69c0.659-1.137,1.282-2.296,1.829-3.5H11.564c0.546,1.204,1.17,2.363,1.829,3.5H82.607z"/>
	</g>
	<g>
		
			<line fill="none" stroke="#45413C" stroke-linecap="round" stroke-linejoin="round" stroke-miterlimit="10" x1="9" y1="65.5" x2="87" y2="65.5"/>
		
			<line fill="none" stroke="#45413C" stroke-linecap="round" stroke-linejoin="round" stroke-miterlimit="10" x1="4.5" y1="65.5" x2="7" y2="65.5"/>
		
			<line fill="none" stroke="#45413C" stroke-linecap="round" stroke-linejoin="round" stroke-miterlimit="10" x1="89" y1="65.5" x2="91.5" y2="65.5"/>
	</g>
</g>
<g>
	<g>
		<path fill="#00B8F0" d="M67.5,59.45c0,1.988-1.612,3.6-3.6,3.6H29.1c-1.988,0-3.6-1.612-3.6-3.6v-22.8c0-1.988,1.612-3.6,3.6-3.6
			h34.8c1.988,0,3.6,1.612,3.6,3.6V59.45z"/>
		<path fill="#4ACFFF" d="M50.901,33.05H29.1c-1.988,0-3.6,1.612-3.6,3.6v21.801L50.901,33.05z"/>
		<path fill="#009FD9" d="M37.5,51.65c-1.32,0-2.4-1.08-2.4-2.4v-0.399l-2.4,2.4v0.399c0,1.32,1.08,2.4,2.4,2.4h30
			c1.32,0,2.4-1.08,2.4-2.4H37.5z"/>
		<polygon fill="#009FD9" points="35.1,33.05 32.7,33.05 32.7,51.251 35.1,48.851 		"/>
		<path fill="none" stroke="#45413C" stroke-linecap="round" stroke-linejoin="round" stroke-miterlimit="10" d="M67.5,59.45
			c0,1.988-1.612,3.6-3.6,3.6H29.1c-1.988,0-3.6-1.612-3.6-3.6v-22.8c0-1.988,1.612-3.6,3.6-3.6h34.8c1.988,0,3.6,1.612,3.6,3.6
			V59.45z"/>
		<path fill="#FFFFFF" stroke="#45413C" stroke-linecap="round" stroke-linejoin="round" stroke-miterlimit="10" d="M63.9,63.05
			c1.988,0,3.6-1.612,3.6-3.6v-1.2h-42v1.2c0,1.988,1.612,3.6,3.6,3.6H63.9z"/>
		<polygon fill="#E0E0E0" points="50.1,67.85 42.9,67.85 43.5,63.05 49.5,63.05 		"/>
		<polygon fill="#87898C" points="49.725,64.85 43.275,64.85 43.5,63.05 49.5,63.05 		"/>
		<polygon fill="none" stroke="#45413C" stroke-linecap="round" stroke-linejoin="round" stroke-miterlimit="10" points="
			50.1,67.85 42.9,67.85 43.5,63.05 49.5,63.05 		"/>
		<path fill="#FFFFFF" stroke="#45413C" stroke-linecap="round" stroke-linejoin="round" stroke-miterlimit="10" d="M54.3,70.25
			H38.7c0-1.326,1.075-2.4,2.4-2.4h10.8C53.225,67.85,54.3,68.924,54.3,70.25z"/>
		<path fill="#DAEDF7" stroke="#45413C" stroke-linecap="round" stroke-linejoin="round" stroke-miterlimit="10" d="M69.9,49.35
			c0,1.32-1.08,2.4-2.4,2.4h-30c-1.32,0-2.4-1.08-2.4-2.4v-20.4h34.8V49.35z"/>
		<path fill="#FFFFFF" stroke="#45413C" stroke-linecap="round" stroke-linejoin="round" stroke-miterlimit="10" d="M69.9,28.95
			H35.1v-4.8c0-1.32,1.08-2.4,2.4-2.4h30c1.32,0,2.4,1.08,2.4,2.4V28.95z"/>
		
			<circle fill="#FF6242" stroke="#45413C" stroke-linecap="round" stroke-linejoin="round" stroke-miterlimit="10" cx="38.7" cy="25.35" r="1.2"/>
		
			<circle fill="#FFF48C" stroke="#45413C" stroke-linecap="round" stroke-linejoin="round" stroke-miterlimit="10" cx="43.5" cy="25.35" r="1.2"/>
		
			<circle fill="#6DD627" stroke="#45413C" stroke-linecap="round" stroke-linejoin="round" stroke-miterlimit="10" cx="48.3" cy="25.35" r="1.2"/>
		<path fill="#6DD627" stroke="#45413C" stroke-linecap="round" stroke-linejoin="round" stroke-miterlimit="10" d="M50.7,39.95
			c0,0.552-0.448,1-1,1h-2.8c-0.552,0-1-0.448-1-1v-2.8c0-0.552,0.448-1,1-1h2.8c0.552,0,1,0.448,1,1V39.95z"/>
		<path fill="#FF6242" stroke="#45413C" stroke-linecap="round" stroke-linejoin="round" stroke-miterlimit="10" d="M58.5,39.95
			c0,0.552-0.448,1-1,1h-2.8c-0.552,0-1-0.448-1-1v-2.8c0-0.552,0.448-1,1-1h2.8c0.552,0,1,0.448,1,1V39.95z"/>
		<path fill="#6DD627" stroke="#45413C" stroke-linecap="round" stroke-linejoin="round" stroke-miterlimit="10" d="M66.3,39.95
			c0,0.552-0.448,1-1,1h-2.8c-0.552,0-1-0.448-1-1v-2.8c0-0.552,0.448-1,1-1h2.8c0.552,0,1,0.448,1,1V39.95z"/>
		<path fill="#FF6242" stroke="#45413C" stroke-linecap="round" stroke-linejoin="round" stroke-miterlimit="10" d="M50.7,47.15
			c0,0.552-0.448,1-1,1h-2.8c-0.552,0-1-0.448-1-1v-2.8c0-0.552,0.448-1,1-1h2.8c0.552,0,1,0.448,1,1V47.15z"/>
		<path fill="#6DD627" stroke="#45413C" stroke-linecap="round" stroke-linejoin="round" stroke-miterlimit="10" d="M58.5,47.15
			c0,0.552-0.448,1-1,1h-2.8c-0.552,0-1-0.448-1-1v-2.8c0-0.552,0.448-1,1-1h2.8c0.552,0,1,0.448,1,1V47.15z"/>
		<path fill="#FFE500" stroke="#45413C" stroke-linecap="round" stroke-linejoin="round" stroke-miterlimit="10" d="M66.3,47.15
			c0,0.552-0.448,1-1,1h-2.8c-0.552,0-1-0.448-1-1v-2.8c0-0.552,0.448-1,1-1h2.8c0.552,0,1,0.448,1,1V47.15z"/>
		<path fill="#00B8F0" stroke="#45413C" stroke-linecap="round" stroke-linejoin="round" stroke-miterlimit="10" d="M43.5,32.75
			c0,0.552-0.448,1-1,1h-2.8c-0.552,0-1-0.448-1-1v-0.4c0-0.552,0.448-1,1-1h2.8c0.552,0,1,0.448,1,1V32.75z"/>
		<path fill="#00B8F0" stroke="#45413C" stroke-linejoin="round" stroke-miterlimit="10" d="M66.3,32.75c0,0.552-0.448,1-1,1H46.9
			c-0.552,0-1-0.448-1-1v-0.4c0-0.552,0.448-1,1-1h18.4c0.552,0,1,0.448,1,1V32.75z"/>
		
			<line fill="none" stroke="#45413C" stroke-linecap="round" stroke-linejoin="round" stroke-miterlimit="10" x1="38.7" y1="36.15" x2="43.5" y2="36.15"/>
		
			<line fill="none" stroke="#45413C" stroke-linecap="round" stroke-linejoin="round" stroke-miterlimit="10" x1="38.7" y1="38.55" x2="43.5" y2="38.55"/>
		
			<line fill="none" stroke="#45413C" stroke-linecap="round" stroke-linejoin="round" stroke-miterlimit="10" x1="38.7" y1="40.95" x2="43.5" y2="40.95"/>
		
			<line fill="none" stroke="#45413C" stroke-linecap="round" stroke-linejoin="round" stroke-miterlimit="10" x1="38.7" y1="43.35" x2="43.5" y2="43.35"/>
		
			<line fill="none" stroke="#45413C" stroke-linecap="round" stroke-linejoin="round" stroke-miterlimit="10" x1="38.7" y1="45.75" x2="43.5" y2="45.75"/>
		
			<line fill="none" stroke="#45413C" stroke-linecap="round" stroke-linejoin="round" stroke-miterlimit="10" x1="38.7" y1="48.15" x2="41.7" y2="48.15"/>
		<path fill="#FFFFFF" stroke="#45413C" stroke-linejoin="round" stroke-miterlimit="10" d="M77.705,61.183
			c-0.174,0.637-0.523,0.659-0.777,0.05l-3.936-9.445c-0.254-0.609,0.037-0.9,0.646-0.646l9.445,3.936
			c0.609,0.254,0.587,0.604-0.05,0.777l-3.029,0.826c-0.637,0.174-1.3,0.837-1.473,1.473L77.705,61.183z"/>
		
			<circle fill="#DAEDF7" stroke="#45413C" stroke-linecap="round" stroke-linejoin="round" stroke-miterlimit="10" cx="46.5" cy="60.65" r="0.5"/>
	</g>
	<ellipse opacity="0.15" fill="#45413C" cx="46.5" cy="71" rx="15.25" ry="1.5"/>
</g>
</svg>
