<?xml version="1.0" encoding="utf-8"?>
<!-- Generator: Adobe Illustrator 21.0.0, SVG Export Plug-In . SVG Version: 6.00 Build 0)  -->
<svg version="1.1" id="Layer_1" xmlns="http://www.w3.org/2000/svg" xmlns:xlink="http://www.w3.org/1999/xlink" x="0px" y="0px"
	 width="96px" height="96px" viewBox="0 0 96 96" enable-background="new 0 0 96 96" xml:space="preserve">
<circle fill="#BDFBFC" cx="48" cy="48.986" r="40"/>
<g>
	<path fill="#6DD627" d="M52.139,53.546c0,1.657-1.343,3-3,3h-15.6c-1.657,0-3-1.343-3-3v-14c0-0.552,0.448-1,1-1h19.6
		c0.552,0,1,0.448,1,1V53.546z"/>
	<path fill="#46B000" d="M41.339,53.546c-4.058,0-7.79-1.359-10.8-3.625v3.625c0,1.657,1.343,3,3,3h15.6c1.657,0,3-1.343,3-3v-3.625
		C49.129,52.186,45.397,53.546,41.339,53.546z"/>
	<path fill="#6DD627" d="M50.864,36.146c0.305,0,0.592-0.139,0.782-0.377c0.19-0.238,0.262-0.55,0.194-0.847
		c-1.099-4.796-5.371-8.377-10.5-8.377s-9.402,3.581-10.5,8.377c-0.068,0.297,0.003,0.609,0.193,0.847
		c0.19,0.238,0.478,0.377,0.783,0.377H50.864z"/>
	<path fill="#9CEB60" d="M31.135,35.851c1.437-4.269,5.45-7.347,10.204-7.347c4.754,0,8.767,3.078,10.204,7.347
		c0.032-0.03,0.075-0.047,0.103-0.082c0.19-0.238,0.261-0.55,0.193-0.847c-1.098-4.796-5.371-8.377-10.5-8.377
		s-9.402,3.581-10.5,8.377c-0.068,0.297,0.003,0.609,0.193,0.847C31.06,35.804,31.103,35.82,31.135,35.851z"/>
	<path fill="none" stroke="#45413C" stroke-linecap="round" stroke-linejoin="round" stroke-miterlimit="10" d="M52.139,53.546
		c0,1.657-1.343,3-3,3h-15.6c-1.657,0-3-1.343-3-3v-14c0-0.552,0.448-1,1-1h19.6c0.552,0,1,0.448,1,1V53.546z"/>
	<path fill="none" stroke="#45413C" stroke-linecap="round" stroke-linejoin="round" stroke-miterlimit="10" d="M50.864,36.146
		c0.305,0,0.592-0.139,0.782-0.377c0.19-0.238,0.262-0.55,0.194-0.847c-1.099-4.796-5.371-8.377-10.5-8.377s-9.402,3.581-10.5,8.377
		c-0.068,0.297,0.003,0.609,0.193,0.847c0.19,0.238,0.478,0.377,0.783,0.377H50.864z"/>
	<path fill="#6DD627" stroke="#45413C" stroke-linecap="round" stroke-linejoin="round" stroke-miterlimit="10" d="M36.939,63.745
		h-2c-1.104,0-2-0.896-2-2v-5.2h6v5.2C38.939,62.85,38.044,63.745,36.939,63.745z"/>
	<path fill="#6DD627" stroke="#45413C" stroke-linecap="round" stroke-linejoin="round" stroke-miterlimit="10" d="M45.739,63.745h2
		c1.105,0,2-0.896,2-2v-5.2h-6v5.2C43.739,62.85,44.635,63.745,45.739,63.745z"/>
	<g>
		<path fill="#6DD627" stroke="#45413C" stroke-miterlimit="10" d="M56.937,42.146c0.855,0,1.682-0.457,2.115-1.262l4.2-7.8
			c0.629-1.167,0.192-2.623-0.975-3.251c-1.169-0.63-2.624-0.191-3.251,0.975l-4.2,7.8c-0.629,1.167-0.192,2.623,0.975,3.251
			C56.164,42.055,56.553,42.146,56.937,42.146z"/>
	</g>
	<path fill="#6DD627" stroke="#45413C" stroke-miterlimit="10" d="M23.339,49.346c0,1.326,1.074,2.4,2.4,2.4
		c1.326,0,2.4-1.074,2.4-2.4v-8.4c0-1.326-1.074-2.4-2.4-2.4c-1.326,0-2.4,1.074-2.4,2.4V49.346z"/>
	
		<line fill="none" stroke="#45413C" stroke-linecap="round" stroke-linejoin="round" stroke-miterlimit="10" x1="44.939" y1="27.146" x2="48.84" y2="23.246"/>
	
		<line fill="none" stroke="#45413C" stroke-linecap="round" stroke-linejoin="round" stroke-miterlimit="10" x1="37.739" y1="27.146" x2="33.84" y2="23.246"/>
	
		<circle fill="#FFFFFF" stroke="#45413C" stroke-linecap="round" stroke-linejoin="round" stroke-miterlimit="10" cx="37.739" cy="32.546" r="1.2"/>
	
		<circle fill="#FFFFFF" stroke="#45413C" stroke-linecap="round" stroke-linejoin="round" stroke-miterlimit="10" cx="44.939" cy="32.546" r="1.2"/>
	<ellipse opacity="0.15" fill="#45413C" cx="57.122" cy="75.146" rx="8" ry="1.5"/>
	<path fill="#FFFFFF" stroke="#45413C" stroke-linecap="round" stroke-linejoin="round" stroke-miterlimit="10" d="M66.539,67.484
		c0,1.631-1.323,2.954-2.954,2.954H50.293c-1.631,0-2.954-1.322-2.954-2.954V40.899c0-1.631,1.322-2.954,2.954-2.954h13.292
		c1.631,0,2.954,1.322,2.954,2.954V67.484z"/>
	<rect x="47.339" y="43.853" fill="#00B8F0" width="19.2" height="22.154"/>
	<polygon fill="#4ACFFF" points="47.339,60.271 63.712,43.853 47.339,43.853 	"/>
	
		<rect x="47.339" y="43.853" fill="none" stroke="#45413C" stroke-linecap="round" stroke-linejoin="round" stroke-miterlimit="10" width="19.2" height="22.154"/>
	
		<line fill="none" stroke="#45413C" stroke-linecap="round" stroke-linejoin="round" stroke-miterlimit="10" x1="52.795" y1="40.899" x2="56.488" y2="40.899"/>
	
		<line fill="none" stroke="#45413C" stroke-linecap="round" stroke-linejoin="round" stroke-miterlimit="10" x1="59.442" y1="40.899" x2="60.18" y2="40.899"/>
	<g>
		<path fill="#45413C" d="M56.939,67.484c-0.408,0-0.738,0.331-0.738,0.739c0,0.408,0.331,0.738,0.738,0.738
			c0.408,0,0.738-0.331,0.738-0.738C57.677,67.815,57.347,67.484,56.939,67.484L56.939,67.484z"/>
	</g>
</g>
</svg>
