<?xml version="1.0" encoding="utf-8"?>
<!-- Generator: Adobe Illustrator 21.0.0, SVG Export Plug-In . SVG Version: 6.00 Build 0)  -->
<svg version="1.1" id="Layer_1" xmlns="http://www.w3.org/2000/svg" xmlns:xlink="http://www.w3.org/1999/xlink" x="0px" y="0px"
	 width="96px" height="96px" viewBox="0 0 96 96" enable-background="new 0 0 96 96" xml:space="preserve">
<g>
	<g>
		<path fill="#BDFBFC" d="M87.5,49c0-22.091-17.909-40-40-40s-40,17.909-40,40c0,5.885,1.281,11.468,3.564,16.5h72.872
			C86.218,60.468,87.5,54.885,87.5,49z"/>
		<path fill="#FCEFD9" d="M11.064,65.5C17.349,79.357,31.294,89,47.5,89s30.151-9.643,36.436-23.5H11.064z"/>
		<path fill="#FFF5E3" d="M82.107,69c0.659-1.137,1.282-2.296,1.829-3.5H11.064c0.546,1.204,1.17,2.363,1.829,3.5H82.107z"/>
	</g>
	<g>
		
			<line fill="none" stroke="#45413C" stroke-linecap="round" stroke-linejoin="round" stroke-miterlimit="10" x1="8.5" y1="65.5" x2="86.5" y2="65.5"/>
		
			<line fill="none" stroke="#45413C" stroke-linecap="round" stroke-linejoin="round" stroke-miterlimit="10" x1="4" y1="65.5" x2="6.5" y2="65.5"/>
		
			<line fill="none" stroke="#45413C" stroke-linecap="round" stroke-linejoin="round" stroke-miterlimit="10" x1="88.5" y1="65.5" x2="91" y2="65.5"/>
	</g>
</g>
<g>
	<path fill="#FFCEBF" d="M66.794,40.77c0-8.243-7.784-12.598-14.85-12.598c-10.133,0-15.438,7.81-15.438,16.591
		c0,4.986,1.197,8.386,5.531,11.301V65.5h16.591v-5.53h3.954c2.312,0,4.341-1.44,4.341-3.753v-4.543c0,0,1.438,0.043,2.495,0
		C72.923,51.529,66.794,42.152,66.794,40.77z"/>
	<path fill="#FFB59E" d="M36.506,44.762c0,3.401,0.557,6.065,2.288,8.34c1.476,0.41,3.024,0.647,4.631,0.647
		c9.545,0,17.282-7.737,17.282-17.282c0-2.363-0.478-4.613-1.336-6.665c-2.311-1.08-4.914-1.63-7.425-1.63
		C41.811,28.171,36.506,35.981,36.506,44.762z"/>
	<path fill="none" stroke="#45413C" stroke-linecap="round" stroke-linejoin="round" stroke-miterlimit="10" d="M66.794,40.77
		c0-8.243-7.784-12.598-14.85-12.598c-10.133,0-15.438,7.81-15.438,16.591c0,4.986,1.197,8.386,5.531,11.301V65.5h16.591v-5.53
		h3.954c2.312,0,4.341-1.44,4.341-3.753v-4.543c0,0,1.438,0.043,2.495,0C72.923,51.529,66.794,42.152,66.794,40.77z"/>
	<path fill="#E8F4FA" stroke="#45413C" stroke-linecap="round" stroke-linejoin="round" stroke-miterlimit="10" d="M32.63,25.713
		c5.939-5.939,15.568-5.939,21.507,0c5.939,5.939,5.939,15.568,0,21.507c-5.609,5.609-14.506,5.914-20.48,0.928l-2.493,2.493
		l-1.955-1.955l2.493-2.494C26.716,40.218,27.021,31.322,32.63,25.713z"/>
	<circle fill="#00B8F0" cx="43.424" cy="36.466" r="11.925"/>
	<g>
		<path fill="#FF6242" d="M27.523,48.416c0.188-0.188,0.442-0.293,0.707-0.293c0.265,0,0.52,0.105,0.707,0.293l2.496,2.496
			c0.39,0.39,0.39,1.024,0,1.414l-7.623,7.623c-1.08,1.08-2.831,1.08-3.911,0c-1.08-1.08-1.08-2.831,0-3.91L27.523,48.416z"/>
		<path fill="#FF866E" d="M30.15,49.628l-1.212-1.212c-0.39-0.39-1.024-0.39-1.414,0L19.9,56.039
			c-1.068,1.068-1.075,2.789-0.032,3.871L30.15,49.628z"/>
		<path fill="none" stroke="#45413C" stroke-linecap="round" stroke-linejoin="round" stroke-miterlimit="10" d="M27.523,48.416
			c0.188-0.188,0.442-0.293,0.707-0.293c0.265,0,0.52,0.105,0.707,0.293l2.496,2.496c0.39,0.39,0.39,1.024,0,1.414l-7.623,7.623
			c-1.08,1.08-2.831,1.08-3.911,0c-1.08-1.08-1.08-2.831,0-3.91L27.523,48.416z"/>
	</g>
	<path fill="#80DDFF" d="M43.424,27.523c6.08,0,11.087,4.553,11.822,10.434c0.061-0.49,0.103-0.985,0.103-1.491
		c0-6.586-5.339-11.925-11.925-11.925c-6.586,0-11.925,5.339-11.925,11.925c0,0.506,0.042,1.001,0.103,1.491
		C32.337,32.076,37.344,27.523,43.424,27.523z"/>
	
		<circle fill="none" stroke="#45413C" stroke-linecap="round" stroke-linejoin="round" stroke-miterlimit="10" cx="43.424" cy="36.466" r="11.925"/>
	<path fill="#00F5BC" d="M39.276,39.923c0,0.381,0.309,0.691,0.691,0.691h6.913c0.382,0,0.691-0.31,0.691-0.691V33.01
		c0-0.382-0.31-0.692-0.692-0.692h-6.913c-0.382,0-0.691,0.309-0.691,0.691V39.923z"/>
	<path fill="#8CFFE4" d="M46.88,32.319h-6.912c-0.382,0-0.691,0.309-0.691,0.691v6.913c0,0.197,0.083,0.374,0.215,0.5l7.889-7.889
		C47.255,32.402,47.077,32.319,46.88,32.319z"/>
	<path fill="none" stroke="#45413C" stroke-linecap="round" stroke-linejoin="round" stroke-miterlimit="10" d="M39.276,39.923
		c0,0.381,0.309,0.691,0.691,0.691h6.913c0.382,0,0.691-0.31,0.691-0.691V33.01c0-0.382-0.31-0.692-0.692-0.692h-6.913
		c-0.382,0-0.691,0.309-0.691,0.691V39.923z"/>
	
		<line fill="none" stroke="#45413C" stroke-linecap="round" stroke-linejoin="round" stroke-miterlimit="10" x1="46.88" y1="32.319" x2="46.88" y2="30.245"/>
	
		<line fill="none" stroke="#45413C" stroke-linecap="round" stroke-linejoin="round" stroke-miterlimit="10" x1="43.424" y1="32.319" x2="43.424" y2="30.245"/>
	
		<line fill="none" stroke="#45413C" stroke-linecap="round" stroke-linejoin="round" stroke-miterlimit="10" x1="39.968" y1="32.319" x2="39.968" y2="30.245"/>
	
		<line fill="none" stroke="#45413C" stroke-linecap="round" stroke-linejoin="round" stroke-miterlimit="10" x1="46.88" y1="42.688" x2="46.88" y2="40.614"/>
	
		<line fill="none" stroke="#45413C" stroke-linecap="round" stroke-linejoin="round" stroke-miterlimit="10" x1="43.424" y1="42.688" x2="43.424" y2="40.614"/>
	
		<line fill="none" stroke="#45413C" stroke-linecap="round" stroke-linejoin="round" stroke-miterlimit="10" x1="39.968" y1="42.688" x2="39.968" y2="40.614"/>
	
		<line fill="none" stroke="#45413C" stroke-linecap="round" stroke-linejoin="round" stroke-miterlimit="10" x1="49.646" y1="33.01" x2="47.572" y2="33.01"/>
	
		<line fill="none" stroke="#45413C" stroke-linecap="round" stroke-linejoin="round" stroke-miterlimit="10" x1="49.646" y1="36.466" x2="47.572" y2="36.466"/>
	
		<line fill="none" stroke="#45413C" stroke-linecap="round" stroke-linejoin="round" stroke-miterlimit="10" x1="49.646" y1="39.923" x2="47.572" y2="39.923"/>
	
		<line fill="none" stroke="#45413C" stroke-linecap="round" stroke-linejoin="round" stroke-miterlimit="10" x1="39.276" y1="33.01" x2="37.202" y2="33.01"/>
	
		<line fill="none" stroke="#45413C" stroke-linecap="round" stroke-linejoin="round" stroke-miterlimit="10" x1="39.276" y1="36.466" x2="37.202" y2="36.466"/>
	
		<line fill="none" stroke="#45413C" stroke-linecap="round" stroke-linejoin="round" stroke-miterlimit="10" x1="39.276" y1="39.923" x2="37.202" y2="39.923"/>
	
		<line fill="none" stroke="#45413C" stroke-linecap="round" stroke-linejoin="round" stroke-miterlimit="10" x1="44.115" y1="37.849" x2="42.042" y2="37.849"/>
	
		<circle fill="none" stroke="#45413C" stroke-linecap="round" stroke-linejoin="round" stroke-miterlimit="10" cx="61.397" cy="44.762" r="0.5"/>
</g>
</svg>
