<?xml version="1.0" encoding="utf-8"?>
<!-- Generator: Adobe Illustrator 21.0.0, SVG Export Plug-In . SVG Version: 6.00 Build 0)  -->
<svg version="1.1" id="Layer_1" xmlns="http://www.w3.org/2000/svg" xmlns:xlink="http://www.w3.org/1999/xlink" x="0px" y="0px"
	 width="96px" height="96px" viewBox="0 0 96 96" enable-background="new 0 0 96 96" xml:space="preserve">
<g>
	<g>
		<path fill="#F7E5C6" d="M88.096,48c0-22.091-17.909-40-40-40s-40,17.909-40,40c0,5.885,1.281,11.468,3.564,16.5h72.872
			C86.814,59.468,88.096,53.885,88.096,48z"/>
		<path fill="#FF6242" d="M11.66,64.5C17.945,78.357,31.89,88,48.096,88c16.206,0,30.151-9.643,36.436-23.5H11.66z"/>
		<path fill="#FF866E" d="M82.703,68c0.659-1.137,1.282-2.296,1.829-3.5H11.66c0.546,1.204,1.17,2.363,1.829,3.5H82.703z"/>
	</g>
	<g>
		
			<line fill="none" stroke="#45413C" stroke-linecap="round" stroke-linejoin="round" stroke-miterlimit="10" x1="9.096" y1="64.5" x2="87.096" y2="64.5"/>
		
			<line fill="none" stroke="#45413C" stroke-linecap="round" stroke-linejoin="round" stroke-miterlimit="10" x1="4.596" y1="64.5" x2="7.096" y2="64.5"/>
		
			<line fill="none" stroke="#45413C" stroke-linecap="round" stroke-linejoin="round" stroke-miterlimit="10" x1="89.096" y1="64.5" x2="91.596" y2="64.5"/>
	</g>
</g>
<g>
	<path fill="#FFCEBF" stroke="#45413C" stroke-linecap="round" stroke-linejoin="round" stroke-miterlimit="10" d="M31.898,60.035
		c-0.994,0-1.8-0.806-1.8-1.8c0-0.994,0.806-1.8,1.8-1.8h3.6v3.6H31.898z"/>
	<path fill="#FFCEBF" stroke="#45413C" stroke-linecap="round" stroke-linejoin="round" stroke-miterlimit="10" d="M65.498,60.035
		c0.994,0,1.8-0.806,1.8-1.8c0-0.994-0.806-1.8-1.8-1.8h-3.6v3.6H65.498z"/>
	<path fill="#87898C" d="M48.698,63.936c0.375,0.562,1.478,1.312,2.056,1.621c0.578,0.309,1.231,0.479,1.907,0.479h1.619h1.018
		v-6.013V54.01c0.627,2.121,2.193,3.658,3.352,4.715c1.475,1.346,3.261,1.91,5.049,1.91c-0.581-1.547-0.581-3.252,0-4.8
		c-3.783,0-4.157-4.62-6.071-8.57c-1.429-2.952-3.718-5.529-8.93-5.529c-5.211,0-7.5,2.577-8.93,5.529
		c-1.914,3.95-2.287,8.57-6.07,8.57c0.58,1.548,0.58,3.253,0,4.8c1.788,0,3.574-0.564,5.049-1.91
		c1.158-1.057,2.725-2.594,3.351-4.715v6.013v6.013h1.019h1.619c0.675,0,1.329-0.169,1.907-0.479
		C47.22,65.248,48.324,64.498,48.698,63.936z"/>
	<ellipse opacity="0.15" fill="#45413C" cx="48.698" cy="79.598" rx="14.494" ry="1.5"/>
	<g>
		<path fill="#BDBEC0" d="M38.283,51.326c1.667-2.951,4.337-5.529,10.415-5.529c6.078,0,8.747,2.578,10.415,5.529
			c0.23,0.408,0.438,0.822,0.636,1.238c-0.698-1.576-1.251-3.505-2.121-5.3c-1.43-2.952-3.719-5.529-8.93-5.529
			c-5.211,0-7.5,2.577-8.93,5.529c-0.868,1.792-1.42,3.717-2.117,5.29C37.849,52.143,38.055,51.73,38.283,51.326z"/>
		<path fill="#BDBEC0" d="M63.326,58.937c-0.108-1.044-0.002-2.104,0.373-3.103c-1.862,0-2.897-1.122-3.697-2.729
			C61.052,55.425,61.8,57.699,63.326,58.937z"/>
		<path fill="#BDBEC0" d="M34.07,58.937c1.525-1.238,2.273-3.511,3.323-5.83c-0.8,1.608-1.834,2.728-3.696,2.728
			C34.072,56.832,34.178,57.894,34.07,58.937z"/>
	</g>
	<path fill="none" stroke="#45413C" stroke-linecap="round" stroke-linejoin="round" stroke-miterlimit="10" d="M48.698,63.936
		c0.375,0.562,1.478,1.312,2.056,1.621c0.578,0.309,1.231,0.479,1.907,0.479h1.619h1.018v-6.013V54.01
		c0.627,2.121,2.193,3.658,3.352,4.715c1.475,1.346,3.261,1.91,5.049,1.91c-0.581-1.547-0.581-3.252,0-4.8
		c-3.783,0-4.157-4.62-6.071-8.57c-1.429-2.952-3.718-5.529-8.93-5.529c-5.211,0-7.5,2.577-8.93,5.529
		c-1.914,3.95-2.287,8.57-6.07,8.57c0.58,1.548,0.58,3.253,0,4.8c1.788,0,3.574-0.564,5.049-1.91
		c1.158-1.057,2.725-2.594,3.351-4.715v6.013v6.013h1.019h1.619c0.675,0,1.329-0.169,1.907-0.479
		C47.22,65.248,48.324,64.498,48.698,63.936z"/>
	<g>
		<path fill="#FFFFFF" stroke="#45413C" stroke-linecap="round" stroke-linejoin="round" stroke-miterlimit="10" d="M27.098,22.498
			L20.323,42.26c-0.265,0.771-0.119,1.625,0.387,2.266l6.517,8.254c0.89,1.128,2.565,1.226,3.581,0.21l1.692-1.691L27.098,22.498z"
			/>
		<path fill="#FF6242" stroke="#45413C" stroke-linecap="round" stroke-linejoin="round" stroke-miterlimit="10" d="M20.709,44.525
			l6.517,8.254c0.89,1.128,2.565,1.226,3.581,0.21l0.018-0.019l-9.883-12.518l-0.62,1.807
			C20.058,43.031,20.203,43.885,20.709,44.525z"/>
		<polygon fill="#FF6242" stroke="#45413C" stroke-linecap="round" stroke-linejoin="round" stroke-miterlimit="10" points="
			21.879,37.72 32.467,51.132 31.503,45.99 22.816,34.987 		"/>
		<polygon fill="#FF6242" stroke="#45413C" stroke-linecap="round" stroke-linejoin="round" stroke-miterlimit="10" points="
			27.098,22.498 23.753,32.254 30.539,40.849 		"/>
		<path fill="#FFE500" stroke="#45413C" stroke-linecap="round" stroke-linejoin="round" stroke-miterlimit="10" d="M30.098,64.498
			h-7.2l0.441-1.323c0.453-1.36,1.726-2.277,3.159-2.277c1.434,0,2.706,0.917,3.159,2.277L30.098,64.498z"/>
		
			<line fill="none" stroke="#45413C" stroke-linecap="round" stroke-linejoin="round" stroke-miterlimit="10" x1="26.498" y1="51.897" x2="26.498" y2="60.897"/>
		
			<circle fill="#FFE500" stroke="#45413C" stroke-linecap="round" stroke-linejoin="round" stroke-miterlimit="10" cx="27.098" cy="21.297" r="1.2"/>
		<polygon fill="#2AC3F2" stroke="#45413C" stroke-linecap="round" stroke-linejoin="round" stroke-miterlimit="10" points="
			25.837,38.813 29.035,32.828 27.098,22.498 22.816,34.987 		"/>
	</g>
	<g>
		<path fill="#FFFFFF" stroke="#45413C" stroke-linecap="round" stroke-linejoin="round" stroke-miterlimit="10" d="M70.298,22.498
			l6.776,19.762c0.265,0.771,0.119,1.625-0.387,2.266l-6.517,8.254c-0.89,1.128-2.565,1.226-3.58,0.21l-1.692-1.691L70.298,22.498z"
			/>
		<path fill="#FF6242" stroke="#45413C" stroke-linecap="round" stroke-linejoin="round" stroke-miterlimit="10" d="M76.687,44.525
			l-6.517,8.254c-0.89,1.128-2.565,1.226-3.58,0.21l-0.019-0.019l9.883-12.518l0.62,1.807
			C77.339,43.031,77.193,43.885,76.687,44.525z"/>
		<polygon fill="#FF6242" stroke="#45413C" stroke-linecap="round" stroke-linejoin="round" stroke-miterlimit="10" points="
			75.517,37.72 64.929,51.132 65.893,45.99 74.58,34.987 		"/>
		<polygon fill="#FF6242" stroke="#45413C" stroke-linecap="round" stroke-linejoin="round" stroke-miterlimit="10" points="
			70.298,22.498 73.643,32.254 66.858,40.849 		"/>
		<path fill="#FFE500" stroke="#45413C" stroke-linecap="round" stroke-linejoin="round" stroke-miterlimit="10" d="M67.298,64.498
			h7.2l-0.441-1.323c-0.453-1.36-1.725-2.277-3.159-2.277c-1.433,0-2.706,0.917-3.159,2.277L67.298,64.498z"/>
		
			<line fill="none" stroke="#45413C" stroke-linecap="round" stroke-linejoin="round" stroke-miterlimit="10" x1="70.898" y1="51.897" x2="70.898" y2="60.897"/>
		
			<circle fill="#FFE500" stroke="#45413C" stroke-linecap="round" stroke-linejoin="round" stroke-miterlimit="10" cx="70.298" cy="21.297" r="1.2"/>
		<polygon fill="#00B8F0" stroke="#45413C" stroke-linecap="round" stroke-linejoin="round" stroke-miterlimit="10" points="
			71.56,38.812 68.361,32.828 70.298,22.498 74.581,34.987 		"/>
	</g>
	<path fill="#87898C" stroke="#45413C" stroke-linecap="round" stroke-linejoin="round" stroke-miterlimit="10" d="M49.298,59.098
		h-1.2h-6v19.2h4.8l0.548-12.601c0.029-0.671,0.581-1.199,1.252-1.199c0.671,0,1.223,0.528,1.252,1.199l0.547,12.601h4.8v-19.2
		H49.298z"/>
	<path fill="#656769" d="M55.298,62.098h-13.2v6h5.244l0.104-2.4c0.029-0.671,0.581-1.199,1.252-1.199
		c0.671,0,1.223,0.528,1.252,1.199l0.104,2.4h5.243V62.098z"/>
	<path fill="none" stroke="#45413C" stroke-linecap="round" stroke-linejoin="round" stroke-miterlimit="10" d="M49.298,59.098h-1.2
		h-6v19.2h4.8l0.548-12.601c0.029-0.671,0.581-1.199,1.252-1.199c0.671,0,1.223,0.528,1.252,1.199l0.547,12.601h4.8v-19.2H49.298z"
		/>
	<path fill="#DEBB7E" stroke="#45413C" stroke-linecap="round" stroke-linejoin="round" stroke-miterlimit="10" d="M40.898,78.898
		h6.6C47.498,74.693,40.898,75.107,40.898,78.898z"/>
	<path fill="#DEBB7E" stroke="#45413C" stroke-linecap="round" stroke-linejoin="round" stroke-miterlimit="10" d="M56.498,78.898
		h-6.6C49.898,74.693,56.498,75.107,56.498,78.898z"/>
	<g id="XMLID_2_">
		<g>
			<g>
				<g id="XMLID_4_">
					<g>
						<path fill="#FFCEBF" stroke="#45413C" stroke-linecap="round" stroke-linejoin="round" stroke-miterlimit="10" d="
							M48.698,39.735c2.683,0,4.927-1.772,5.695-4.2h0.005c1.897,0,2.012-3,0.3-3v-1.199c0-3.314-2.686-6-6-6c-3.314,0-6,2.686-6,6
							v1.199c-1.712,0-1.597,3,0.3,3h0.005C43.771,37.963,46.016,39.735,48.698,39.735z"/>
						<g>
							<path fill="#45413C" d="M46.746,31.935c-0.415,0-0.75,0.336-0.75,0.75c0,0.414,0.335,0.75,0.75,0.75
								c0.414,0,0.75-0.336,0.75-0.75C47.496,32.271,47.16,31.935,46.746,31.935L46.746,31.935z"/>
						</g>
						<g>
							<path fill="#45413C" d="M50.646,31.935c-0.415,0-0.75,0.336-0.75,0.75c0,0.414,0.335,0.75,0.75,0.75
								c0.414,0,0.75-0.336,0.75-0.75C51.396,32.271,51.06,31.935,50.646,31.935L50.646,31.935z"/>
						</g>
						<circle fill="#FFB59E" cx="45.096" cy="34.336" r="0.6"/>
						<circle fill="#FFB59E" cx="52.296" cy="34.336" r="0.6"/>
						<path fill="none" stroke="#45413C" stroke-linecap="round" stroke-linejoin="round" stroke-miterlimit="10" d="M47.198,36.19
							c0.909,0.606,2.092,0.606,3,0"/>
					</g>
				</g>
				<g>
					<path fill="#FFC44D" stroke="#45413C" stroke-linecap="round" stroke-linejoin="round" stroke-miterlimit="10" d="
						M45.407,28.92c2.631,2.552,7.169,2.131,9.9,1.207c-0.005-3.642-2.957-6.592-6.599-6.592c-3.645,0-6.601,2.955-6.601,6.601
						c0,0.432,0,2.084,0,2.084S45.407,31.395,45.407,28.92"/>
					<path fill="#FFDB94" d="M48.709,26.444c2.664,0,4.945,1.587,5.988,3.858c0.206-0.058,0.422-0.112,0.611-0.176
						c-0.005-3.642-2.957-6.592-6.599-6.592c-3.645,0-6.601,2.955-6.601,6.601c0,0.432,0,2.084,0,2.084s0.051-0.015,0.085-0.024
						C42.614,28.956,45.354,26.444,48.709,26.444z"/>
					<path fill="none" stroke="#45413C" stroke-linecap="round" stroke-linejoin="round" stroke-miterlimit="10" d="M45.407,28.92
						c2.631,2.552,7.169,2.131,9.9,1.207c-0.005-3.642-2.957-6.592-6.599-6.592c-3.645,0-6.601,2.955-6.601,6.601
						c0,0.432,0,2.084,0,2.084S45.407,31.395,45.407,28.92"/>
					<path fill="none" stroke="#45413C" stroke-linecap="round" stroke-linejoin="round" stroke-miterlimit="10" d="M45.407,28.92
						c-0.305-0.295-0.348-0.248-0.595-0.627"/>
				</g>
			</g>
		</g>
	</g>
	<path fill="#FFFFFF" stroke="#45413C" stroke-linecap="round" stroke-linejoin="round" stroke-miterlimit="10" d="M48.698,57.298
		l4.28-14.799c-1.158-0.483-2.56-0.764-4.28-0.764c-1.721,0-3.123,0.281-4.28,0.764L48.698,57.298z"/>
	<path fill="#87898C" stroke="#45413C" stroke-linecap="round" stroke-linejoin="round" stroke-miterlimit="10" d="M48.698,57.298
		l-4.28-14.799c-1.391,0.58-2.429,1.451-3.243,2.475l2.724,2.723v3L48.698,57.298z"/>
	<path fill="#87898C" stroke="#45413C" stroke-linecap="round" stroke-linejoin="round" stroke-miterlimit="10" d="M48.698,57.298
		l4.28-14.799c1.391,0.58,2.429,1.451,3.243,2.475l-2.724,2.723v3L48.698,57.298z"/>
	<polygon fill="#FF6242" stroke="#45413C" stroke-linecap="round" stroke-linejoin="round" stroke-miterlimit="10" points="
		50.481,51.135 48.698,41.735 46.915,51.134 48.698,57.298 	"/>
	<polyline fill="none" stroke="#45413C" stroke-linecap="round" stroke-linejoin="round" stroke-miterlimit="10" points="
		51.911,46.193 48.698,41.735 45.484,46.195 	"/>
	
		<line fill="#00B8F0" stroke="#45413C" stroke-linecap="round" stroke-linejoin="round" stroke-miterlimit="10" x1="55.298" y1="61.498" x2="55.298" y2="51.298"/>
	
		<line fill="#00B8F0" stroke="#45413C" stroke-linecap="round" stroke-linejoin="round" stroke-miterlimit="10" x1="48.698" y1="63.898" x2="48.698" y2="57.298"/>
	
		<line fill="#00B8F0" stroke="#45413C" stroke-linecap="round" stroke-linejoin="round" stroke-miterlimit="10" x1="42.098" y1="61.498" x2="42.098" y2="51.298"/>
	<path fill="#BF8256" stroke="#45413C" stroke-linecap="round" stroke-linejoin="round" stroke-miterlimit="10" d="M59.098,75.298
		h-20.8c-0.552,0-1,0.448-1,1v1.601c0,0.552,0.448,1,1,1h20.8c0.552,0,1-0.448,1-1v-1.601
		C60.098,75.746,59.651,75.298,59.098,75.298z"/>
	<path fill="#ADC4D9" stroke="#45413C" stroke-linecap="round" stroke-linejoin="round" stroke-miterlimit="10" d="M61.898,54.897
		h-26.4l2.172,6.517c0.136,0.408,0.518,0.684,0.949,0.684h20.159c0.43,0,0.812-0.275,0.948-0.684L61.898,54.897z"/>
	<path fill="none" stroke="#45413C" stroke-linecap="round" stroke-linejoin="round" stroke-miterlimit="10" d="M62.498,51.298
		l-0.886-7.217c-0.179-1.696-1.609-2.983-3.314-2.983"/>
	<path fill="#ADC4D9" stroke="#45413C" stroke-linecap="round" stroke-linejoin="round" stroke-miterlimit="10" d="M58.298,41.197
		c0,0.276-0.224,0.5-0.5,0.5h-2.2c-0.497,0-0.9-0.402-0.9-0.899c0-0.497,0.403-0.9,0.9-0.9h2.2c0.276,0,0.5,0.224,0.5,0.5V41.197z"
		/>
	<path fill="none" stroke="#45413C" stroke-linecap="round" stroke-linejoin="round" stroke-miterlimit="10" d="M34.898,51.298
		l0.886-7.217c0.179-1.696,1.609-2.983,3.314-2.983"/>
	<path fill="#ADC4D9" stroke="#45413C" stroke-linecap="round" stroke-linejoin="round" stroke-miterlimit="10" d="M39.098,41.197
		c0,0.276,0.224,0.5,0.5,0.5h2.2c0.497,0,0.9-0.402,0.9-0.899c0-0.497-0.403-0.9-0.9-0.9h-2.2c-0.276,0-0.5,0.224-0.5,0.5V41.197z"
		/>
	<path fill="#BF8256" stroke="#45413C" stroke-linecap="round" stroke-linejoin="round" stroke-miterlimit="10" d="M55.498,72.898
		h-13.6c-0.552,0-1,0.447-1,1v1.399h15.6v-1.399C56.498,73.346,56.05,72.898,55.498,72.898z"/>
	<path fill="#BF8256" d="M64.298,53.098c0-0.994-0.806-1.8-1.8-1.8h-27.6c-0.994,0-1.8,0.806-1.8,1.8c0,0.994,0.806,1.8,1.8,1.8
		h27.6C63.492,54.897,64.298,54.092,64.298,53.098z"/>
	<path fill="#DEA47A" d="M62.498,51.298h-27.6c-0.994,0-1.8,0.806-1.8,1.8h31.2C64.298,52.103,63.492,51.298,62.498,51.298z"/>
	<path fill="none" stroke="#45413C" stroke-linecap="round" stroke-linejoin="round" stroke-miterlimit="10" d="M64.298,53.098
		c0-0.994-0.806-1.8-1.8-1.8h-27.6c-0.994,0-1.8,0.806-1.8,1.8c0,0.994,0.806,1.8,1.8,1.8h27.6
		C63.492,54.897,64.298,54.092,64.298,53.098z"/>
	<polygon fill="#BF8256" points="52.898,62.098 44.498,62.098 45.548,72.898 51.848,72.898 	"/>
	<path fill="#915E3A" d="M44.856,65.779c1.113,0.705,2.428,1.119,3.842,1.119c1.414,0,2.729-0.414,3.842-1.119l0.358-3.682h-8.4
		L44.856,65.779z"/>
	<polygon fill="none" stroke="#45413C" stroke-linecap="round" stroke-linejoin="round" stroke-miterlimit="10" points="
		52.898,62.098 44.498,62.098 45.548,72.898 51.848,72.898 	"/>
	
		<circle fill="#EBCB00" stroke="#45413C" stroke-linecap="round" stroke-linejoin="round" stroke-miterlimit="10" cx="48.698" cy="59.697" r="4.8"/>
	
		<circle fill="#00B8F0" stroke="#45413C" stroke-linecap="round" stroke-linejoin="round" stroke-miterlimit="10" cx="48.698" cy="59.697" r="2.4"/>
</g>
</svg>
