<?xml version="1.0" encoding="utf-8"?>
<!-- Generator: Adobe Illustrator 21.0.0, SVG Export Plug-In . SVG Version: 6.00 Build 0)  -->
<svg version="1.1" id="Layer_1" xmlns="http://www.w3.org/2000/svg" xmlns:xlink="http://www.w3.org/1999/xlink" x="0px" y="0px"
	 width="96px" height="96px" viewBox="0 0 96 96" enable-background="new 0 0 96 96" xml:space="preserve">
<g>
	<g>
		<path fill="#BDFBFC" d="M88.5,48c0-22.091-17.909-40-40-40s-40,17.909-40,40c0,5.885,1.281,11.468,3.564,16.5h72.872
			C87.218,59.468,88.5,53.885,88.5,48z"/>
		<path fill="#FCEFD9" d="M12.064,64.5C18.349,78.357,32.294,88,48.5,88s30.151-9.643,36.436-23.5H12.064z"/>
		<path fill="#FFF5E3" d="M83.107,68c0.659-1.137,1.282-2.296,1.829-3.5H12.064c0.546,1.204,1.17,2.363,1.829,3.5H83.107z"/>
	</g>
	<g>
		
			<line fill="none" stroke="#45413C" stroke-linecap="round" stroke-linejoin="round" stroke-miterlimit="10" x1="9.5" y1="64.5" x2="87.5" y2="64.5"/>
		
			<line fill="none" stroke="#45413C" stroke-linecap="round" stroke-linejoin="round" stroke-miterlimit="10" x1="5" y1="64.5" x2="7.5" y2="64.5"/>
		
			<line fill="none" stroke="#45413C" stroke-linecap="round" stroke-linejoin="round" stroke-miterlimit="10" x1="89.5" y1="64.5" x2="92" y2="64.5"/>
	</g>
</g>
<g>
	<path fill="#00B8F0" d="M68.354,64.5v-7.666c0-8.625-6.989-15.644-15.644-15.644c-8.66,0-15.644,7.023-15.644,15.644V64.5H68.354z"
		/>
	<path fill="#4ACFFF" d="M52.71,41.19c-8.66,0-15.644,7.023-15.644,15.644v4.808c0-8.621,6.983-15.644,15.644-15.644
		c8.655,0,15.644,7.018,15.644,15.644v-4.808C68.354,48.208,61.365,41.19,52.71,41.19z"/>
	<ellipse opacity="0.15" fill="#45413C" cx="19.804" cy="72.588" rx="15" ry="1.5"/>
	<ellipse opacity="0.15" fill="#45413C" cx="63.304" cy="76" rx="19.5" ry="1.5"/>
	<path fill="#FFCEBF" stroke="#45413C" stroke-linecap="round" stroke-linejoin="round" stroke-miterlimit="10" d="M53.312,69.879
		h-3.61v4.813h3.61c1.329,0,2.407-1.078,2.407-2.407C55.718,70.956,54.641,69.879,53.312,69.879z"/>
	<path fill="none" stroke="#45413C" stroke-linejoin="round" stroke-miterlimit="10" d="M68.354,64.5v-7.666
		c0-8.625-6.989-15.644-15.644-15.644c-8.66,0-15.644,7.023-15.644,15.644V64.5H68.354z"/>
	<path fill="#00B8F0" stroke="#45413C" stroke-linecap="round" stroke-linejoin="round" stroke-miterlimit="10" d="M52.709,50.625
		l-3.045-5.724c-0.371-0.697-0.565-1.474-0.564-2.263V41.6v-4.814c0,0-3.61-1.203-5.415,0c-1.805,1.204-3.43,3.307-3.008,5.415
		c0.303,1.517,1.338,2.784,2.764,3.385L52.709,50.625z"/>
	<path fill="#FFFFFF" stroke="#45413C" stroke-linecap="round" stroke-linejoin="round" stroke-miterlimit="10" d="M44.414,41.057
		l4.685,2.783c0,0,0-3.894,0.001-7.054c0,0-3.61-1.202-5.415,0c-0.194,0.13-0.384,0.274-0.571,0.423
		C42.564,38.598,43.052,40.247,44.414,41.057z"/>
	<path fill="#00B8F0" stroke="#45413C" stroke-linecap="round" stroke-linejoin="round" stroke-miterlimit="10" d="M52.71,50.625
		l3.046-5.724c0.371-0.697,0.564-1.474,0.564-2.263l0-1.039v-4.814c0,0,3.61-1.203,5.415,0c1.805,1.204,3.43,3.307,3.008,5.415
		c-0.303,1.517-1.338,2.784-2.764,3.385L52.71,50.625z"/>
	<path fill="#FFFFFF" stroke="#45413C" stroke-linecap="round" stroke-linejoin="round" stroke-miterlimit="10" d="M61.005,41.057
		l-4.685,2.783c0,0,0-3.894,0-7.054c0,0,3.61-1.202,5.415,0c0.194,0.13,0.384,0.274,0.571,0.423
		C62.855,38.598,62.368,40.247,61.005,41.057z"/>
	<path fill="#FFCEBF" d="M56.319,42.639c0,0.789-0.194,1.566-0.564,2.262l-3.046,5.725L49.663,44.9
		c-0.371-0.696-0.564-1.473-0.564-2.262v-4.214h7.22V42.639z"/>
	
		<line fill="none" stroke="#45413C" stroke-linecap="round" stroke-linejoin="round" stroke-miterlimit="10" x1="62.336" y1="55.845" x2="62.336" y2="55.243"/>
	
		<line fill="none" stroke="#45413C" stroke-linecap="round" stroke-linejoin="round" stroke-miterlimit="10" x1="62.336" y1="64.464" x2="62.336" y2="55.243"/>
	
		<line fill="none" stroke="#45413C" stroke-linecap="round" stroke-linejoin="round" stroke-miterlimit="10" x1="43.083" y1="63.862" x2="43.083" y2="55.243"/>
	<path fill="#FFB59E" d="M49.099,41.629c2.143,0.969,5.045,0.982,7.22,0v-3.204h-7.22V41.629z"/>
	<path fill="none" stroke="#45413C" stroke-linecap="round" stroke-linejoin="round" stroke-miterlimit="10" d="M56.319,42.639
		c0,0.789-0.194,1.566-0.564,2.262l-3.046,5.725L49.663,44.9c-0.371-0.696-0.564-1.473-0.564-2.262v-4.214h7.22V42.639z"/>
	<path fill="#FFCEBF" stroke="#45413C" stroke-linecap="round" stroke-linejoin="round" stroke-miterlimit="10" d="M62.938,27.79
		v-2.406c0-5.649-4.579-10.228-10.228-10.228c-5.649,0-10.229,4.579-10.229,10.228v2.406c-0.997,0-1.805,0.809-1.805,1.806v0.602
		c0,0.996,0.808,1.805,1.805,1.805c0.058,0,0.111-0.012,0.167-0.017c0.847,4.795,5.024,8.44,10.062,8.44
		c5.038,0,9.215-3.646,10.062-8.44c0.056,0.005,0.109,0.017,0.166,0.017c0.997,0,1.805-0.809,1.805-1.805v-0.602
		C64.743,28.599,63.935,27.79,62.938,27.79z"/>
	<circle fill="#FFB59E" cx="58.726" cy="32.002" r="1.203"/>
	<circle fill="#FFB59E" cx="46.693" cy="32.002" r="1.203"/>
	<path fill="none" stroke="#45413C" stroke-linecap="round" stroke-linejoin="round" stroke-miterlimit="10" d="M58.125,28.793
		c-0.31-0.589-0.854-1.003-1.504-1.003c-0.65,0-1.195,0.414-1.504,1.003"/>
	<path fill="none" stroke="#45413C" stroke-linecap="round" stroke-linejoin="round" stroke-miterlimit="10" d="M50.303,28.793
		c-0.31-0.589-0.854-1.003-1.504-1.003c-0.65,0-1.195,0.414-1.504,1.003"/>
	<path fill="none" stroke="#45413C" stroke-linecap="round" stroke-linejoin="round" stroke-miterlimit="10" d="M49.701,34.38
		c1.822,1.604,4.195,1.604,6.017,0"/>
	<path fill="#00B8F0" stroke="#45413C" stroke-linecap="round" stroke-linejoin="round" stroke-miterlimit="10" d="M37.066,59.225
		v4.591c0,6.339,5.139,11.479,11.478,11.479h1.157v-5.017c0-0.552-0.448-1-1-1h-0.157c-3.016,0-5.461-2.445-5.461-5.462v-4.767"/>
	<path fill="#FFFFFF" stroke="#45413C" stroke-linecap="round" stroke-linejoin="round" stroke-miterlimit="10" d="M47.896,45.812
		c0,0,1.805,4.212,1.805,10.229"/>
	<path fill="#FFFFFF" stroke="#45413C" stroke-linecap="round" stroke-linejoin="round" stroke-miterlimit="10" d="M57.523,45.812
		c0,0-1.805,4.212-1.805,10.229"/>
	<path fill="#FFDF3D" d="M51.506,13.321c-7.22,0-10.229,5.275-10.229,10.229v4.212c3.009,0,3.009-3.61,3.009-3.61
		s7.22,1.203,12.033-2.406c0,0,3.008,6.017,7.822,6.017V23.55c0-6.051-1.276-8.424-7.22-8.424
		C56.921,15.126,56.32,13.321,51.506,13.321z"/>
	<path fill="#FFEF9E" d="M52.71,16.33c4.883,0,9.137,3.133,11.432,7.783V23.55c0-6.051-1.276-8.424-7.22-8.424
		c0,0-0.602-1.805-5.415-1.805c-7.22,0-10.229,5.275-10.229,10.229v0.563C43.572,19.463,47.827,16.33,52.71,16.33z"/>
	<path fill="none" stroke="#45413C" stroke-linecap="round" stroke-linejoin="round" stroke-miterlimit="10" d="M51.506,13.321
		c-7.22,0-10.229,5.275-10.229,10.229v4.212c3.009,0,3.009-3.61,3.009-3.61s7.22,1.203,12.033-2.406c0,0,3.008,6.017,7.822,6.017
		V23.55c0-6.051-1.276-8.424-7.22-8.424C56.921,15.126,56.32,13.321,51.506,13.321z"/>
	<g>
		<path fill="#E8F4FA" stroke="#45413C" stroke-linecap="round" stroke-linejoin="round" stroke-miterlimit="10" d="M36.129,43.326
			l-17.291,3.549c-0.541,0.111-1.069-0.237-1.181-0.778l-1.05-5.113c-0.053-0.26-0.001-0.53,0.145-0.752
			c0.146-0.221,0.374-0.376,0.634-0.429l17.291-3.55L36.129,43.326z"/>
		<polyline fill="none" stroke="#45413C" stroke-linecap="round" stroke-linejoin="round" stroke-miterlimit="10" points="
			23.234,51.981 23.83,51.227 23.83,47.755 		"/>
		<path fill="#656769" stroke="#45413C" stroke-linecap="round" stroke-linejoin="round" stroke-miterlimit="10" d="M21.657,56.067
			l-1.921-1.45l1.812-2.4c0.4-0.531,1.155-0.636,1.685-0.235c0.531,0.4,0.636,1.154,0.236,1.685L21.657,56.067z"/>
		
			<line fill="none" stroke="#45413C" stroke-linecap="round" stroke-linejoin="round" stroke-miterlimit="10" x1="19.618" y1="53.634" x2="5.177" y2="47.617"/>
		
			<line fill="none" stroke="#45413C" stroke-linecap="round" stroke-linejoin="round" stroke-miterlimit="10" x1="19.016" y1="57.845" x2="4.576" y2="51.828"/>
		<path fill="#FFFFFF" d="M35.408,39.811l-0.73-3.558l-17.291,3.55c-0.26,0.053-0.488,0.208-0.634,0.429
			c-0.146,0.222-0.198,0.492-0.145,0.752l0.529,2.577L35.408,39.811z"/>
		<path fill="none" stroke="#45413C" stroke-linecap="round" stroke-linejoin="round" stroke-miterlimit="10" d="M36.129,43.326
			l-17.291,3.549c-0.541,0.111-1.069-0.237-1.181-0.778l-1.05-5.113c-0.053-0.26-0.001-0.53,0.145-0.752
			c0.146-0.221,0.374-0.376,0.634-0.429l17.291-3.55L36.129,43.326z"/>
		<path fill="#656769" stroke="#45413C" stroke-linecap="round" stroke-linejoin="round" stroke-miterlimit="10" d="M36.129,43.326
			l1.378-0.283c0.541-0.111,0.889-0.64,0.778-1.181l-1.049-5.113c-0.111-0.541-0.64-0.89-1.181-0.778l-1.378,0.282L36.129,43.326z"
			/>
		
			<line fill="none" stroke="#45413C" stroke-linecap="round" stroke-linejoin="round" stroke-miterlimit="10" x1="33.288" y1="41.452" x2="33.771" y2="43.81"/>
		
			<line fill="none" stroke="#45413C" stroke-linecap="round" stroke-linejoin="round" stroke-miterlimit="10" x1="32.32" y1="36.737" x2="32.804" y2="39.095"/>
		
			<line fill="none" stroke="#45413C" stroke-linecap="round" stroke-linejoin="round" stroke-miterlimit="10" x1="30.93" y1="41.937" x2="31.414" y2="44.294"/>
		
			<line fill="none" stroke="#45413C" stroke-linecap="round" stroke-linejoin="round" stroke-miterlimit="10" x1="29.962" y1="37.221" x2="30.446" y2="39.579"/>
		<path fill="none" stroke="#45413C" stroke-linecap="round" stroke-linejoin="round" stroke-miterlimit="10" d="M24.115,47.635
			l-2.178-10.609l3.233-1.447c0.752-0.338,1.567,0.33,1.384,1.135l-1.17,5.134l3.098,4.257c0.485,0.668,0,1.603-0.825,1.589
			L24.115,47.635z"/>
		<path fill="none" stroke="#45413C" stroke-linecap="round" stroke-linejoin="round" stroke-miterlimit="10" d="M21.937,37.025
			l-3.951-0.353c-0.873-0.077-1.417,0.925-0.875,1.614l3.558,4.527l-1.579,5.162c-0.248,0.811,0.564,1.544,1.346,1.214l3.68-1.556"
			/>
		<path fill="#8CA4B8" stroke="#45413C" stroke-linecap="round" stroke-linejoin="round" stroke-miterlimit="10" d="M16.648,41.183
			l-0.295,0.061c-1.465,0.301-2.408,1.732-2.107,3.196c0.3,1.465,1.731,2.409,3.196,2.108l0.295-0.06L16.648,41.183z"/>
		
			<line fill="none" stroke="#45413C" stroke-linecap="round" stroke-linejoin="round" stroke-miterlimit="10" x1="20.669" y1="42.814" x2="25.384" y2="41.847"/>
		
			<circle fill="#656769" stroke="#45413C" stroke-linecap="round" stroke-linejoin="round" stroke-miterlimit="10" cx="19.618" cy="56.04" r="3.009"/>
		
			<circle fill="#ADC4D9" stroke="#45413C" stroke-linecap="round" stroke-linejoin="round" stroke-miterlimit="10" cx="19.618" cy="56.04" r="1.203"/>
	</g>
	<path fill="none" stroke="#45413C" stroke-linecap="round" stroke-linejoin="round" stroke-miterlimit="10" d="M49.352,31.371
		h-3.261c-1.329,0-2.407-1.077-2.407-2.407v-2.008c0-0.552,0.448-1,1-1h6.078c0.718,0,1.276,0.624,1.197,1.337l-0.215,1.936
		C51.61,30.448,50.579,31.371,49.352,31.371z"/>
	<path fill="none" stroke="#45413C" stroke-linecap="round" stroke-linejoin="round" stroke-miterlimit="10" d="M56.067,31.371
		h3.261c1.329,0,2.407-1.078,2.407-2.407v-2.008c0-0.552-0.448-1-1-1h-6.079c-0.717,0-1.275,0.623-1.196,1.336l0.215,1.938
		C53.811,30.449,54.841,31.371,56.067,31.371z"/>
	
		<line fill="none" stroke="#45413C" stroke-linecap="round" stroke-linejoin="round" stroke-miterlimit="10" x1="51.908" y1="27.762" x2="53.512" y2="27.762"/>
	<path fill="#FFFFFF" stroke="#45413C" stroke-linecap="round" stroke-linejoin="round" stroke-miterlimit="10" d="M31.371,70.715
		c0,0.552-0.448,1-1,1H8.304c-0.552,0-1-0.448-1-1v-0.407c0-0.552,0.448-1,1-1h22.067c0.552,0,1,0.448,1,1V70.715z"/>
	<path fill="#FFFFFF" stroke="#45413C" stroke-linecap="round" stroke-linejoin="round" stroke-miterlimit="10" d="M32.574,68.308
		c0,0.552-0.448,1-1,1H9.507c-0.552,0-1-0.448-1-1v-0.406c0-0.552,0.448-1,1-1h22.067c0.552,0,1,0.448,1,1V68.308z"/>
	<path fill="#FFFFFF" stroke="#45413C" stroke-linecap="round" stroke-linejoin="round" stroke-miterlimit="10" d="M31.371,65.901
		c0,0.552-0.448,1-1,1H8.304c-0.552,0-1-0.448-1-1v-0.407c0-0.552,0.448-1,1-1h22.067c0.552,0,1,0.448,1,1V65.901z"/>
	<path fill="#FFFFFF" stroke="#45413C" stroke-linecap="round" stroke-linejoin="round" stroke-miterlimit="10" d="M32.574,63.494
		c0,0.552-0.448,1-1,1H9.507c-0.552,0-1-0.448-1-1v-0.406c0-0.552,0.448-1,1-1h22.067c0.552,0,1,0.448,1,1V63.494z"/>
	<g>
		<path fill="#E8F4FA" stroke="#45413C" stroke-linejoin="round" stroke-miterlimit="10" d="M57.897,72.285h-2.406l5.748-17.818
			c0.16-0.496,0.623-0.833,1.146-0.833h1.53"/>
		<path fill="#ADC4D9" stroke="#45413C" stroke-linejoin="round" stroke-miterlimit="10" d="M81.363,72.285H57.897l6.017-18.651
			h21.812c0.385,0,0.747,0.184,0.973,0.495c0.227,0.311,0.29,0.711,0.172,1.077L81.363,72.285z"/>
		<polygon fill="#C0DCEB" points="79.785,53.634 63.914,53.634 57.897,72.285 61.133,72.285 		"/>
		<path fill="#C0DCEB" stroke="#45413C" stroke-linejoin="round" stroke-miterlimit="10" d="M81.363,72.285H56.694v3.009h22.262
			c1.329,0,2.407-1.077,2.407-2.407V72.285z"/>
		<path fill="#E8F4FA" stroke="#45413C" stroke-linejoin="round" stroke-miterlimit="10" d="M56.694,72.285H45.262
			c-0.332,0-0.602,0.269-0.602,0.602c0,1.33,1.078,2.407,2.407,2.407h9.627V72.285z"/>
		<g>
			<g>
				<path fill="#FFFFFF" stroke="#45413C" stroke-linejoin="round" stroke-miterlimit="10" d="M74.553,62.295
					c-0.007-0.748,0.61-1.107,0.639-1.125c-0.348-0.508-0.889-0.578-1.081-0.586c-0.46-0.047-0.898,0.271-1.132,0.271
					c-0.232,0-0.593-0.265-0.975-0.258c-0.502,0.008-0.965,0.292-1.223,0.741c-0.521,0.904-0.133,2.245,0.375,2.979
					c0.248,0.359,0.544,0.763,0.933,0.747c0.375-0.014,0.516-0.241,0.969-0.241c0.453,0,0.58,0.241,0.976,0.234
					c0.403-0.007,0.658-0.366,0.904-0.726c0.286-0.417,0.403-0.82,0.41-0.841C75.336,63.486,74.561,63.189,74.553,62.295z"/>
			</g>
			
				<line fill="none" stroke="#45413C" stroke-linecap="round" stroke-linejoin="round" stroke-miterlimit="10" x1="73.541" y1="59.049" x2="74.083" y2="58.506"/>
		</g>
		<path fill="none" stroke="#45413C" stroke-linejoin="round" stroke-miterlimit="10" d="M81.363,72.285H57.897l6.017-18.651h21.812
			c0.385,0,0.747,0.184,0.973,0.495c0.227,0.311,0.29,0.711,0.172,1.077L81.363,72.285z"/>
	</g>
	<g>
		<g>
			<path fill="#ADC4D9" stroke="#45413C" stroke-linecap="round" stroke-linejoin="round" stroke-miterlimit="10" d="M66.142,24.151
				h-2v-2.194c0-6.304-5.128-11.432-11.432-11.432c-6.303,0-11.432,5.128-11.432,11.432v2.194h-2v-2.194
				c0-7.406,6.026-13.432,13.432-13.432c7.406,0,13.432,6.025,13.432,13.432V24.151z"/>
		</g>
		<g>
			<path fill="#656769" d="M46.694,12.587c-0.604,0-1.194-0.304-1.534-0.854c-0.525-0.847-0.265-1.959,0.583-2.484
				c4.179-2.592,9.757-2.591,13.934-0.001c0.847,0.525,1.108,1.638,0.583,2.484c-0.524,0.85-1.639,1.109-2.484,0.583
				c-3.033-1.879-7.093-1.883-10.131,0.001C47.348,12.5,47.02,12.587,46.694,12.587z"/>
		</g>
		<path fill="#87898C" d="M45.742,10.897c4.179-2.592,9.757-2.591,13.934-0.001c0.289,0.179,0.509,0.427,0.654,0.708
			c0.426-0.828,0.151-1.858-0.654-2.357c-4.177-2.59-9.755-2.591-13.934,0.001c-0.805,0.5-1.08,1.529-0.654,2.357
			C45.233,11.323,45.453,11.076,45.742,10.897z"/>
		<g>
			<path fill="none" stroke="#45413C" stroke-miterlimit="10" d="M46.694,12.587c-0.604,0-1.194-0.304-1.534-0.854
				c-0.525-0.847-0.265-1.959,0.583-2.484c4.179-2.592,9.757-2.591,13.934-0.001c0.847,0.525,1.108,1.638,0.583,2.484
				c-0.524,0.85-1.639,1.109-2.484,0.583c-3.033-1.879-7.093-1.883-10.131,0.001C47.348,12.5,47.02,12.587,46.694,12.587z"/>
		</g>
		<path fill="#656769" d="M41.481,34.38h-2.61V24.151h2.61c0.553,0,1,0.447,1,1v8.228C42.481,33.932,42.034,34.38,41.481,34.38z"/>
		<path fill="#8CA4B8" d="M38.871,24.151c-1.333,0-3.657,1.807-3.657,5.114c0,3.307,2.323,5.114,3.657,5.114V24.151z"/>
		<path fill="#87898C" d="M41.481,24.151h-2.61v1.873h2.61c0.553,0,1,0.447,1,1v-1.873C42.481,24.599,42.034,24.151,41.481,24.151z"
			/>
		<path fill="#ADC4D9" d="M35.214,29.266c0,0.327,0.023,0.639,0.065,0.937c0.385-2.71,2.39-4.178,3.591-4.178v-1.873
			C37.538,24.151,35.214,25.959,35.214,29.266z"/>
		<g>
			<path fill="none" stroke="#45413C" stroke-linecap="round" stroke-linejoin="round" stroke-miterlimit="10" d="M41.481,34.38
				h-2.61V24.151h2.61c0.553,0,1,0.447,1,1v8.228C42.481,33.932,42.034,34.38,41.481,34.38z"/>
			<path fill="none" stroke="#45413C" stroke-linecap="round" stroke-linejoin="round" stroke-miterlimit="10" d="M38.871,24.151
				c-1.333,0-3.657,1.807-3.657,5.114c0,3.307,2.323,5.114,3.657,5.114V24.151z"/>
		</g>
		<path fill="#656769" d="M63.938,34.38h2.61V24.151h-2.61c-0.552,0-1,0.448-1,1v8.228C62.938,33.932,63.386,34.38,63.938,34.38z"/>
		<path fill="#8CA4B8" d="M66.548,24.151c1.333,0,3.657,1.807,3.657,5.114c0,3.307-2.323,5.114-3.657,5.114V24.151z"/>
		<path fill="#87898C" d="M63.938,24.151h2.61v1.873h-2.61c-0.553,0-1,0.447-1,1v-1.873C62.938,24.599,63.386,24.151,63.938,24.151z
			"/>
		<path fill="#ADC4D9" d="M70.205,29.266c0,0.327-0.023,0.639-0.065,0.937c-0.385-2.71-2.39-4.178-3.591-4.178v-1.873
			C67.882,24.151,70.205,25.959,70.205,29.266z"/>
		<g>
			<path fill="none" stroke="#45413C" stroke-linecap="round" stroke-linejoin="round" stroke-miterlimit="10" d="M63.938,34.38
				h2.61V24.151h-2.61c-0.552,0-1,0.448-1,1v8.228C62.938,33.932,63.386,34.38,63.938,34.38z"/>
			<path fill="none" stroke="#45413C" stroke-linecap="round" stroke-linejoin="round" stroke-miterlimit="10" d="M66.548,24.151
				c1.333,0,3.657,1.807,3.657,5.114c0,3.307-2.323,5.114-3.657,5.114V24.151z"/>
		</g>
	</g>
</g>
</svg>
