<?xml version="1.0" encoding="utf-8"?>
<!-- Generator: Adobe Illustrator 21.0.0, SVG Export Plug-In . SVG Version: 6.00 Build 0)  -->
<svg version="1.1" id="Layer_1" xmlns="http://www.w3.org/2000/svg" xmlns:xlink="http://www.w3.org/1999/xlink" x="0px" y="0px"
	 width="96px" height="96px" viewBox="0 0 96 96" enable-background="new 0 0 96 96" xml:space="preserve">
<g>
	<g>
		<path fill="#BDFBFC" d="M87.5,49c0-22.091-17.909-40-40-40s-40,17.909-40,40c0,5.885,1.281,11.468,3.564,16.5h72.872
			C86.218,60.468,87.5,54.885,87.5,49z"/>
		<path fill="#FCEFD9" d="M11.064,65.5C17.349,79.357,31.294,89,47.5,89s30.151-9.643,36.436-23.5H11.064z"/>
		<path fill="#FFF5E3" d="M82.107,69c0.659-1.137,1.282-2.296,1.829-3.5H11.064c0.546,1.204,1.17,2.363,1.829,3.5H82.107z"/>
	</g>
	<g>
		
			<line fill="none" stroke="#45413C" stroke-linecap="round" stroke-linejoin="round" stroke-miterlimit="10" x1="8.5" y1="65.5" x2="86.5" y2="65.5"/>
		
			<line fill="none" stroke="#45413C" stroke-linecap="round" stroke-linejoin="round" stroke-miterlimit="10" x1="4" y1="65.5" x2="6.5" y2="65.5"/>
		
			<line fill="none" stroke="#45413C" stroke-linecap="round" stroke-linejoin="round" stroke-miterlimit="10" x1="88.5" y1="65.5" x2="91" y2="65.5"/>
	</g>
</g>
<g>
	<ellipse opacity="0.15" fill="#45413C" cx="45.023" cy="71.777" rx="24.795" ry="1.5"/>
	<path fill="#F0F0F0" d="M68.673,69.577c0,0.607-0.493,1.1-1.1,1.1H39.617c-0.607,0-1.1-0.493-1.1-1.1v-38.5
		c0-0.607,0.493-1.1,1.1-1.1h23.1c0.292,0,0.571,0.116,0.778,0.322l4.855,4.855c0.206,0.207,0.322,0.486,0.322,0.778V69.577z"/>
	<path fill="#FFFFFF" d="M38.517,34.377c0-0.607,0.493-1.1,1.1-1.1h26.856l-2.978-2.978c-0.207-0.206-0.486-0.322-0.778-0.322h-23.1
		c-0.607,0-1.1,0.493-1.1,1.1V34.377z"/>
	<path fill="none" stroke="#45413C" stroke-linejoin="round" stroke-miterlimit="10" d="M68.673,69.577c0,0.607-0.493,1.1-1.1,1.1
		H39.617c-0.607,0-1.1-0.493-1.1-1.1v-38.5c0-0.607,0.493-1.1,1.1-1.1h23.1c0.292,0,0.571,0.116,0.778,0.322l4.855,4.855
		c0.206,0.207,0.322,0.486,0.322,0.778V69.577z"/>
	<circle fill="none" stroke="#46B000" stroke-miterlimit="10" cx="60.517" cy="60.777" r="5.5"/>
	<polyline fill="none" stroke="#46B000" stroke-linecap="round" stroke-linejoin="round" stroke-miterlimit="10" points="
		57.767,60.777 59.967,62.977 63.542,58.852 	"/>
	
		<line fill="none" stroke="#45413C" stroke-linecap="round" stroke-linejoin="round" stroke-miterlimit="10" x1="45.667" y1="43.177" x2="62.717" y2="43.177"/>
	
		<line fill="none" stroke="#45413C" stroke-linecap="round" stroke-linejoin="round" stroke-miterlimit="10" x1="47.223" y1="39.877" x2="54.53" y2="39.877"/>
	
		<line fill="none" stroke="#45413C" stroke-linecap="round" stroke-linejoin="round" stroke-miterlimit="10" x1="45.667" y1="46.477" x2="62.717" y2="46.477"/>
	
		<line fill="none" stroke="#45413C" stroke-linecap="round" stroke-linejoin="round" stroke-miterlimit="10" x1="45.667" y1="49.777" x2="62.717" y2="49.777"/>
	<path fill="#FFFFFF" stroke="#45413C" stroke-linejoin="round" stroke-miterlimit="10" d="M63.173,34.477c0,0.552,0.448,1,1,1
		h4.393c-0.054-0.117-0.122-0.229-0.215-0.322l-4.855-4.855c-0.093-0.093-0.205-0.161-0.322-0.215V34.477z"/>
	<path fill="#FF6242" d="M53.273,66.377c0,0.552-0.448,1-1,1h-32.1c-0.552,0-1-0.448-1-1v-2.7c0-2.209,1.791-4,4-4h26.1
		c2.209,0,4,1.791,4,4V66.377z"/>
	<path fill="#FF866E" d="M53.273,63.677c0-2.209-1.791-4-4-4h-26.1c-2.209,0-4,1.791-4,4v2.7c0,0.071,0.026,0.133,0.04,0.2
		c0.204-2.018,1.888-3.6,3.96-3.6h26.1c2.072,0,3.756,1.582,3.959,3.6c0.014-0.066,0.041-0.129,0.041-0.2V63.677z"/>
	<path fill="#FF6242" d="M41.373,45.377h-10.3c-0.249,0-0.484-0.051-0.704-0.134c0.538,1.122,2.004,5.04,2.004,14.434h7.7
		c0-9.394,1.466-13.312,2.004-14.434C41.857,45.326,41.622,45.377,41.373,45.377z"/>
	<path fill="#E04122" d="M31.073,45.377c-0.249,0-0.484-0.051-0.704-0.134c0.146,0.305,0.361,0.825,0.596,1.595h10.515
		c0.235-0.771,0.45-1.291,0.597-1.595c-0.22,0.083-0.456,0.134-0.704,0.134H31.073z"/>
	<path fill="#656769" d="M50.751,69.993c-0.136,0.408-0.518,0.684-0.949,0.684H22.644c-0.431,0-0.813-0.275-0.949-0.684
		l-0.872-2.617h30.8L50.751,69.993z"/>
	<path fill="none" stroke="#45413C" stroke-linejoin="round" stroke-miterlimit="10" d="M53.273,66.377c0,0.552-0.448,1-1,1h-32.1
		c-0.552,0-1-0.448-1-1v-2.7c0-2.209,1.791-4,4-4h26.1c2.209,0,4,1.791,4,4V66.377z"/>
	<path fill="none" stroke="#45413C" stroke-linejoin="round" stroke-miterlimit="10" d="M41.373,45.377h-10.3
		c-0.249,0-0.484-0.051-0.704-0.134c0.538,1.122,2.004,5.04,2.004,14.434h7.7c0-9.394,1.466-13.312,2.004-14.434
		C41.857,45.326,41.622,45.377,41.373,45.377z"/>
	<path fill="none" stroke="#45413C" stroke-linejoin="round" stroke-miterlimit="10" d="M50.751,69.993
		c-0.136,0.408-0.518,0.684-0.949,0.684H22.644c-0.431,0-0.813-0.275-0.949-0.684l-0.872-2.617h30.8L50.751,69.993z"/>
	
		<line fill="none" stroke="#45413C" stroke-linejoin="round" stroke-miterlimit="10" x1="32.308" y1="56.377" x2="40.138" y2="56.377"/>
	<path fill="#FF6242" d="M41.373,45.377h-10.3c-1.105,0-2-0.895-2-2v-4.8c0-1.104,0.895-2,2-2h10.3c1.104,0,2,0.896,2,2v4.8
		C43.373,44.482,42.478,45.377,41.373,45.377z"/>
	<path fill="#FF866E" d="M41.373,36.577h-10.3c-1.105,0-2,0.896-2,2v2.75c0-1.104,0.895-2,2-2h10.3c1.104,0,2,0.896,2,2v-2.75
		C43.373,37.473,42.478,36.577,41.373,36.577z"/>
	<path fill="none" stroke="#45413C" stroke-linejoin="round" stroke-miterlimit="10" d="M41.373,45.377h-10.3c-1.105,0-2-0.895-2-2
		v-4.8c0-1.104,0.895-2,2-2h10.3c1.104,0,2,0.896,2,2v4.8C43.373,44.482,42.478,45.377,41.373,45.377z"/>
</g>
</svg>
