<?xml version="1.0" encoding="utf-8"?>
<!-- Generator: Adobe Illustrator 21.0.0, SVG Export Plug-In . SVG Version: 6.00 Build 0)  -->
<svg version="1.1" id="Layer_1" xmlns="http://www.w3.org/2000/svg" xmlns:xlink="http://www.w3.org/1999/xlink" x="0px" y="0px"
	 width="96px" height="96px" viewBox="0 0 96 96" enable-background="new 0 0 96 96" xml:space="preserve">
<g>
	<g>
		<path fill="#BDFBFC" d="M87.7,49c0-22.091-17.909-40-40-40s-40,17.909-40,40c0,5.885,1.281,11.468,3.564,16.5h72.872
			C86.419,60.468,87.7,54.885,87.7,49z"/>
		<path fill="#FCEFD9" d="M11.264,65.5C17.549,79.357,31.494,89,47.7,89c16.206,0,30.151-9.643,36.436-23.5H11.264z"/>
		<path fill="#FFF5E3" d="M82.308,69c0.659-1.137,1.282-2.296,1.829-3.5H11.264c0.546,1.204,1.17,2.363,1.829,3.5H82.308z"/>
	</g>
	<g>
		
			<line fill="none" stroke="#45413C" stroke-linecap="round" stroke-linejoin="round" stroke-miterlimit="10" x1="8.7" y1="65.5" x2="86.7" y2="65.5"/>
		
			<line fill="none" stroke="#45413C" stroke-linecap="round" stroke-linejoin="round" stroke-miterlimit="10" x1="4.2" y1="65.5" x2="6.7" y2="65.5"/>
		
			<line fill="none" stroke="#45413C" stroke-linecap="round" stroke-linejoin="round" stroke-miterlimit="10" x1="88.7" y1="65.5" x2="91.2" y2="65.5"/>
	</g>
</g>
<g>
	<g>
		<g>
			<g>
				<path fill="#00DBA8" d="M53.215,42.788c-6.265,2.025-10.8,7.9-10.8,14.84v7.8h10.8V42.788z"/>
				<path fill="#00DBA8" d="M62.815,42.788c6.265,2.025,10.8,7.9,10.8,14.84v7.8h-10.8V42.788z"/>
				<path fill="#00F5BC" d="M42.415,57.628v4.454c0-6.939,4.535-12.814,10.8-14.84v-4.454C46.95,44.813,42.415,50.688,42.415,57.628
					z"/>
				<path fill="#00F5BC" d="M62.815,42.788v4.454c6.265,2.025,10.8,7.9,10.8,14.84v-4.454
					C73.616,50.688,69.081,44.813,62.815,42.788z"/>
				
					<line fill="none" stroke="#45413C" stroke-linecap="round" stroke-linejoin="round" stroke-miterlimit="10" x1="48.415" y1="58.227" x2="48.415" y2="65.427"/>
				
					<line fill="none" stroke="#45413C" stroke-linecap="round" stroke-linejoin="round" stroke-miterlimit="10" x1="67.616" y1="58.227" x2="67.616" y2="65.427"/>
				<path fill="none" stroke="#45413C" stroke-linecap="round" stroke-linejoin="round" stroke-miterlimit="10" d="M53.215,42.788
					c-6.265,2.025-10.8,7.9-10.8,14.84v7.8h10.8V42.788z"/>
				<path fill="none" stroke="#45413C" stroke-linecap="round" stroke-linejoin="round" stroke-miterlimit="10" d="M62.815,42.788
					c6.265,2.025,10.8,7.9,10.8,14.84v7.8h-10.8V42.788z"/>
				<path fill="#FFFFFF" stroke="#45413C" stroke-linecap="round" stroke-linejoin="round" stroke-miterlimit="10" d="
					M58.015,42.028c-1.675,0-3.288,0.271-4.8,0.76v22.64h9.6v-22.64C61.305,42.3,59.688,42.028,58.015,42.028z"/>
				<g>
					<path fill="#D18660" d="M61.616,42.451v-2.823h-7.2v2.824c-0.395,0.094-0.784,0.201-1.167,0.324
						c0.271,3.292,2.3,5.852,4.767,5.852s4.496-2.56,4.767-5.852C62.4,42.653,62.01,42.546,61.616,42.451z"/>
					<path fill="#BD704A" d="M61.616,42.451v-2.823h-7.2v2.824c-0.395,0.094-0.784,0.201-1.167,0.324
						c0.014,0.173,0.053,0.334,0.076,0.503c1.405,0.729,2.998,1.149,4.691,1.149s3.285-0.419,4.691-1.149
						c0.024-0.169,0.062-0.33,0.076-0.503C62.4,42.653,62.01,42.546,61.616,42.451z"/>
					<path fill="none" stroke="#45413C" stroke-linecap="round" stroke-linejoin="round" stroke-miterlimit="10" d="M61.616,42.451
						v-2.823h-7.2v2.824c-0.395,0.094-0.784,0.201-1.167,0.324c0.271,3.292,2.3,5.852,4.767,5.852s4.496-2.56,4.767-5.852
						C62.4,42.653,62.01,42.546,61.616,42.451z"/>
				</g>
			</g>
			<g>
				<g>
					<path fill="#724F3D" d="M71.265,24.831c-0.588-0.533-1.2-0.952-1.779-1.256c1.861,0.078,3.331-0.427,3.452-1.269
						c0.142-0.983-1.605-2.049-3.901-2.38c-1.178-0.169-2.266-0.109-3.071,0.119c-0.075-0.094-0.154-0.184-0.232-0.274
						c0.627,0.071,1.331,0.074,2.081-0.021c2.301-0.293,4.065-1.329,3.94-2.315c-0.125-0.986-2.092-1.549-4.394-1.256
						c-1.112,0.141-2.093,0.458-2.802,0.858c0.177-0.138,0.354-0.278,0.527-0.435c1.724-1.552,2.582-3.409,1.917-4.148
						c-0.665-0.739-2.602-0.08-4.326,1.472c-0.979,0.882-1.664,1.855-1.964,2.674c-0.026-0.008-0.051-0.014-0.077-0.021
						c0.408-0.613,0.776-1.404,1.033-2.311c0.633-2.231,0.371-4.261-0.585-4.531c-0.934-0.266-2.181,1.25-2.828,3.399
						c-1.069-2.01-2.619-3.269-3.489-2.816c-0.882,0.459-0.729,2.499,0.341,4.557c0.304,0.584,0.65,1.097,1.008,1.535
						c-0.271,0.051-0.535,0.116-0.798,0.188c-0.3-0.817-0.985-1.792-1.965-2.674c-1.724-1.552-3.661-2.211-4.326-1.472
						c-0.665,0.738,0.193,2.596,1.917,4.148c0.174,0.156,0.351,0.297,0.527,0.435c-0.709-0.399-1.689-0.717-2.802-0.858
						c-2.301-0.293-4.268,0.27-4.393,1.256c-0.125,0.986,1.639,2.022,3.939,2.315c0.751,0.096,1.457,0.092,2.084,0.02
						c-0.078,0.091-0.157,0.182-0.233,0.275c-0.806-0.229-1.894-0.289-3.073-0.12c-2.296,0.331-4.042,1.396-3.901,2.38
						c0.121,0.843,1.591,1.348,3.452,1.269c-0.579,0.304-1.191,0.723-1.779,1.256c-1.719,1.557-2.572,3.417-1.905,4.153
						c0.53,0.585,1.858,0.276,3.243-0.65c-0.179,0.286-0.352,0.586-0.509,0.911c-1.009,2.09-1.1,4.133-0.205,4.565
						c0.895,0.433,2.439-0.911,3.447-3c0.191-0.396,0.338-0.786,0.463-1.167c0.195,0.277,0.318,0.609,0.318,0.984
						c0,0,0.6-1.935,0.213-4.249c1.054,0.351,2.787-1.151,2.787-1.151v-2.399c0,0,3.545,1.2,5.4,1.2s5.4-1.2,5.4-1.2v2.399
						c0,0,1.733,1.503,2.787,1.151c-0.387,2.314,0.213,4.249,0.213,4.249c0-0.373,0.122-0.704,0.315-0.982
						c0.125,0.381,0.271,0.77,0.462,1.164c1.008,2.089,2.552,3.433,3.447,3c0.895-0.433,0.804-2.476-0.205-4.565
						c-0.157-0.325-0.331-0.625-0.509-0.911c1.385,0.927,2.713,1.235,3.243,0.65C73.837,28.248,72.984,26.387,71.265,24.831z"/>
					<g>
						<path fill="#A86C4D" d="M55.037,12.312c0.797-0.414,2.218,0.74,3.198,2.582c0.594-1.971,1.736-3.359,2.592-3.116
							c0.634,0.18,0.929,1.206,0.828,2.53c0.004-0.014,0.009-0.026,0.013-0.04c0.633-2.231,0.371-4.261-0.586-4.531
							c-0.934-0.266-2.18,1.25-2.828,3.399c-1.069-2.01-2.619-3.269-3.489-2.816c-0.679,0.354-0.739,1.646-0.245,3.161
							C54.54,12.915,54.703,12.486,55.037,12.312z"/>
						<path fill="#A86C4D" d="M61.547,15.157c-0.048,0.254-0.108,0.513-0.183,0.775c-0.235,0.832,0.028,0.495,0.925-0.313
							c1.58-1.423,3.356-2.027,3.965-1.35c0.173,0.192,0.223,0.474,0.184,0.801c0.751-1.09,1.017-2.113,0.564-2.615
							c-0.665-0.739-2.602-0.08-4.326,1.472C62.235,14.326,61.862,14.744,61.547,15.157z"/>
						<path fill="#A86C4D" d="M66.116,19.927c0.072,0.083,0.924,1.036,2.003,1.191c2.105,0.303,3.706,1.279,3.576,2.181
							c-0.002,0.014-0.011,0.025-0.014,0.039c0.713-0.219,1.19-0.573,1.256-1.033c0.126-0.879-1.258-1.818-3.19-2.246
							C69.091,20.477,66.69,19.993,66.116,19.927z"/>
						<path fill="#A86C4D" d="M64.498,18.072c-0.159,0.143-0.321,0.271-0.483,0.399c0.649-0.366,1.549-0.657,2.568-0.787
							c2.11-0.267,3.913,0.248,4.028,1.152c0.003,0.021-0.008,0.042-0.007,0.064c0.765-0.429,1.216-0.951,1.151-1.464
							c-0.125-0.986-2.092-1.549-4.394-1.256c-0.539,0.068-1.045,0.18-1.507,0.32C65.52,17.02,65.062,17.563,64.498,18.072z"/>
						<path fill="#A86C4D" d="M49.776,14.269c0.61-0.678,2.385-0.073,3.965,1.35c0.898,0.809,1.928,1.457,1.662,0.962
							c-0.028,0.007-0.057,0.012-0.085,0.02c-0.3-0.817-0.985-1.792-1.965-2.674c-1.724-1.552-3.66-2.211-4.326-1.472
							c-0.453,0.502-0.187,1.525,0.565,2.615C49.553,14.743,49.602,14.462,49.776,14.269z"/>
						<path fill="#A86C4D" d="M71.265,24.831c-0.24-0.218-0.485-0.403-0.728-0.582c-0.544,0.166-1.235,0.247-2.007,0.215
							c0.531,0.278,1.092,0.662,1.631,1.151c1.458,1.32,2.221,2.868,1.845,3.629c0.506,0.08,0.921,0.008,1.163-0.26
							C73.837,28.248,72.984,26.387,71.265,24.831z"/>
						<path fill="#A86C4D" d="M45.427,18.899c0.001-0.021-0.009-0.043-0.007-0.064c0.115-0.904,1.918-1.42,4.027-1.152
							c1.02,0.13,1.919,0.421,2.568,0.787c-0.162-0.127-0.323-0.256-0.483-0.399c-0.565-0.509-1.022-1.052-1.357-1.572
							c-0.461-0.141-0.967-0.252-1.506-0.32c-2.301-0.293-4.268,0.27-4.394,1.256C44.211,17.948,44.663,18.471,45.427,18.899z"/>
						<path fill="#A86C4D" d="M68.935,28.827c0.164,0.262,0.323,0.536,0.467,0.835c0.87,1.802,0.985,3.55,0.314,4.083
							c0.343,0.15,0.663,0.191,0.925,0.065c0.843-0.407,0.8-2.244-0.048-4.2C70.095,29.484,69.522,29.219,68.935,28.827z"/>
						<path fill="#A86C4D" d="M46.629,29.662c0.145-0.299,0.303-0.573,0.467-0.835c-0.587,0.393-1.16,0.657-1.658,0.783
							c-0.848,1.956-0.891,3.793-0.048,4.2c0.262,0.126,0.582,0.085,0.925-0.065C45.644,33.212,45.759,31.464,46.629,29.662z"/>
						<path fill="#A86C4D" d="M45.869,25.615c0.539-0.489,1.1-0.873,1.631-1.151c-0.772,0.032-1.463-0.049-2.007-0.215
							c-0.244,0.179-0.488,0.364-0.728,0.582c-1.719,1.557-2.572,3.417-1.905,4.153c0.243,0.268,0.657,0.34,1.163,0.26
							C43.647,28.483,44.411,26.935,45.869,25.615z"/>
						<path fill="#A86C4D" d="M44.349,23.339c-0.003-0.014-0.012-0.025-0.014-0.039c-0.13-0.901,1.471-1.878,3.576-2.181
							c1.081-0.156,2.393-1.104,1.704-1.191c-1.12-0.142-2.675,0.55-3.333,0.132c-1.933,0.428-3.316,1.367-3.19,2.246
							C43.159,22.765,43.636,23.12,44.349,23.339z"/>
					</g>
					<path fill="none" stroke="#45413C" stroke-linecap="round" stroke-linejoin="round" stroke-miterlimit="10" d="M71.265,24.831
						c-0.588-0.533-1.2-0.952-1.779-1.256c1.861,0.078,3.331-0.427,3.452-1.269c0.142-0.983-1.605-2.049-3.901-2.38
						c-1.178-0.169-2.266-0.109-3.071,0.119c-0.075-0.094-0.154-0.184-0.232-0.274c0.627,0.071,1.331,0.074,2.081-0.021
						c2.301-0.293,4.065-1.329,3.94-2.315c-0.125-0.986-2.092-1.549-4.394-1.256c-1.112,0.141-2.093,0.458-2.802,0.858
						c0.177-0.138,0.354-0.278,0.527-0.435c1.724-1.552,2.582-3.409,1.917-4.148c-0.665-0.739-2.602-0.08-4.326,1.472
						c-0.979,0.882-1.664,1.855-1.964,2.674c-0.026-0.008-0.051-0.014-0.077-0.021c0.408-0.613,0.776-1.404,1.033-2.311
						c0.633-2.231,0.371-4.261-0.585-4.531c-0.934-0.266-2.181,1.25-2.828,3.399c-1.069-2.01-2.619-3.269-3.489-2.816
						c-0.882,0.459-0.729,2.499,0.341,4.557c0.304,0.584,0.65,1.097,1.008,1.535c-0.271,0.051-0.535,0.116-0.798,0.188
						c-0.3-0.817-0.985-1.792-1.965-2.674c-1.724-1.552-3.661-2.211-4.326-1.472c-0.665,0.738,0.193,2.596,1.917,4.148
						c0.174,0.156,0.351,0.297,0.527,0.435c-0.709-0.399-1.689-0.717-2.802-0.858c-2.301-0.293-4.268,0.27-4.393,1.256
						c-0.125,0.986,1.639,2.022,3.939,2.315c0.751,0.096,1.457,0.092,2.084,0.02c-0.078,0.091-0.157,0.182-0.233,0.275
						c-0.806-0.229-1.894-0.289-3.073-0.12c-2.296,0.331-4.042,1.396-3.901,2.38c0.121,0.843,1.591,1.348,3.452,1.269
						c-0.579,0.304-1.191,0.723-1.779,1.256c-1.719,1.557-2.572,3.417-1.905,4.153c0.53,0.585,1.858,0.276,3.243-0.65
						c-0.179,0.286-0.352,0.586-0.509,0.911c-1.009,2.09-1.1,4.133-0.205,4.565c0.895,0.433,2.439-0.911,3.447-3
						c0.191-0.396,0.338-0.786,0.463-1.167c0.195,0.277,0.318,0.609,0.318,0.984c0,0,0.6-1.935,0.213-4.249
						c1.054,0.351,2.787-1.151,2.787-1.151v-2.399c0,0,3.545,1.2,5.4,1.2s5.4-1.2,5.4-1.2v2.399c0,0,1.733,1.503,2.787,1.151
						c-0.387,2.314,0.213,4.249,0.213,4.249c0-0.373,0.122-0.704,0.315-0.982c0.125,0.381,0.271,0.77,0.462,1.164
						c1.008,2.089,2.552,3.433,3.447,3c0.895-0.433,0.804-2.476-0.205-4.565c-0.157-0.325-0.331-0.625-0.509-0.911
						c1.385,0.927,2.713,1.235,3.243,0.65C73.837,28.248,72.984,26.387,71.265,24.831z"/>
				</g>
				<g>
					<path fill="#D18660" stroke="#45413C" stroke-linecap="round" stroke-linejoin="round" stroke-miterlimit="10" d="
						M66.417,30.628c0,0-0.6-1.935-0.213-4.249c-1.054,0.351-2.787-1.151-2.787-1.151v-2.399c0,0-3.546,1.2-5.4,1.2
						s-5.4-1.2-5.4-1.2v2.399c0,0-1.733,1.503-2.787,1.151c0.387,2.314-0.213,4.249-0.213,4.249c0-2.245-3.6-2.419-3.6,0v0.6
						c0,0.994,0.806,1.801,1.8,1.801c0.057,0,0.11-0.012,0.166-0.017c0.845,4.781,5.01,8.416,10.034,8.416
						c5.024,0,9.19-3.635,10.034-8.416c0.055,0.005,0.109,0.017,0.166,0.017c0.994,0,1.8-0.807,1.8-1.801v-0.6
						C70.017,28.211,66.417,28.382,66.417,30.628z"/>
					<circle fill="#BD704A" cx="52.017" cy="33.028" r="1.2"/>
					<circle fill="#BD704A" cx="64.017" cy="33.028" r="1.2"/>
					<path fill="none" stroke="#45413C" stroke-linecap="round" stroke-linejoin="round" stroke-miterlimit="10" d="M55.017,35.428
						c1.817,1.601,4.184,1.601,6,0"/>
					<g>
						<path fill="none" stroke="#45413C" stroke-linecap="round" stroke-linejoin="round" stroke-miterlimit="10" d="M63.417,30.028
							c-0.308-0.587-0.851-1-1.5-1c-0.648,0-1.191,0.413-1.5,1"/>
						<path fill="none" stroke="#45413C" stroke-linecap="round" stroke-linejoin="round" stroke-miterlimit="10" d="M55.617,29.828
							c-0.309-0.587-0.852-1-1.5-1c-0.649,0-1.191,0.413-1.5,1"/>
					</g>
				</g>
			</g>
		</g>
		<g>
			<g>
				<path fill="#E0E0E0" stroke="#45413C" stroke-linecap="round" stroke-linejoin="round" stroke-miterlimit="10" d="
					M65.215,63.027h-14.4c-0.663,0-1.2-0.537-1.2-1.2v-8.399c0-0.663,0.537-1.2,1.2-1.2h14.4c0.663,0,1.2,0.537,1.2,1.2v8.399
					C66.415,62.49,65.878,63.027,65.215,63.027z"/>
				
					<rect x="49.616" y="54.627" fill="#656769" stroke="#45413C" stroke-linecap="round" stroke-linejoin="round" stroke-miterlimit="10" width="16.8" height="6"/>
				<path fill="#BDBEC0" stroke="#45413C" stroke-linecap="round" stroke-linejoin="round" stroke-miterlimit="10" d="
					M60.274,50.428h-4.517c-0.454,0-0.87,0.257-1.073,0.663l-0.488,0.977c-0.25,0.5-0.38,1.051-0.38,1.609v9.351h8.4v-9.351
					c0-0.559-0.13-1.109-0.38-1.609l-0.488-0.977C61.144,50.684,60.728,50.428,60.274,50.428z"/>
				
					<circle fill="#656769" stroke="#45413C" stroke-linecap="round" stroke-linejoin="round" stroke-miterlimit="10" cx="58.015" cy="57.627" r="4.2"/>
				<circle fill="#00B8F0" cx="58.015" cy="57.627" r="2.4"/>
				<path fill="#4ACFFF" d="M56.318,59.324c-0.937-0.937-0.937-2.457,0-3.394c0.937-0.938,2.457-0.938,3.394,0L56.318,59.324z"/>
				
					<circle fill="none" stroke="#45413C" stroke-linecap="round" stroke-linejoin="round" stroke-miterlimit="10" cx="58.015" cy="57.627" r="2.4"/>
			</g>
			<path fill="#DEBB7E" stroke="#45413C" stroke-linecap="round" stroke-linejoin="round" stroke-miterlimit="10" d="M61.616,40.898
				v3.193c0.739,0.919,1.2,2.067,1.2,3.336v4.8h2.4v-4.8C65.215,44.679,63.769,42.287,61.616,40.898z"/>
			<path fill="#DEBB7E" stroke="#45413C" stroke-linecap="round" stroke-linejoin="round" stroke-miterlimit="10" d="M50.815,47.428
				v4.8h2.4v-4.8c0-1.27,0.461-2.417,1.2-3.336v-3.193C52.262,42.287,50.815,44.679,50.815,47.428z"/>
		</g>
	</g>
	<g>
		<rect x="30.116" y="40.928" fill="#87898C" width="9" height="8"/>
		<rect x="30.116" y="40.928" fill="#656769" width="9" height="5.25"/>
		
			<rect x="30.116" y="40.928" fill="none" stroke="#45413C" stroke-linecap="round" stroke-linejoin="round" stroke-miterlimit="10" width="9" height="8"/>
		<path fill="#656769" stroke="#45413C" stroke-linecap="round" stroke-linejoin="round" stroke-miterlimit="10" d="M40.616,44.323
			h-12c-0.552,0-1-0.447-1-1v-7c0-0.552,0.448-1,1-1h12c0.553,0,1,0.448,1,1v7C41.616,43.876,41.168,44.323,40.616,44.323z"/>
		<path fill="#656769" stroke="#45413C" stroke-linecap="round" stroke-linejoin="round" stroke-miterlimit="10" d="M39.616,56.928
			h-10c-0.552,0-1-0.447-1-1v-6c0-0.552,0.448-1,1-1h10c0.553,0,1,0.448,1,1v6C40.616,56.48,40.168,56.928,39.616,56.928z"/>
		<path fill="#00B8F0" d="M39.116,42.323h-9c-0.276,0-0.5-0.224-0.5-0.5v-4c0-0.275,0.224-0.5,0.5-0.5h9c0.276,0,0.5,0.225,0.5,0.5
			v4C39.616,42.1,39.392,42.323,39.116,42.323z"/>
		<path fill="#4ACFFF" d="M32.616,42.323h-2.5c-0.276,0-0.5-0.224-0.5-0.5v-4c0-0.275,0.224-0.5,0.5-0.5h7.5L32.616,42.323z"/>
		<path fill="none" stroke="#45413C" stroke-linecap="round" stroke-linejoin="round" stroke-miterlimit="10" d="M39.116,42.323h-9
			c-0.276,0-0.5-0.224-0.5-0.5v-4c0-0.275,0.224-0.5,0.5-0.5h9c0.276,0,0.5,0.225,0.5,0.5v4
			C39.616,42.1,39.392,42.323,39.116,42.323z"/>
		<path fill="#FF6242" stroke="#45413C" stroke-linecap="round" stroke-linejoin="round" stroke-miterlimit="10" d="M36.616,52.928
			h-4c-0.552,0-1,0.448-1,1v3h6v-3C37.616,53.376,37.168,52.928,36.616,52.928z"/>
		<polygon fill="#525252" stroke="#45413C" stroke-linecap="round" stroke-linejoin="round" stroke-miterlimit="10" points="
			36.116,58.928 33.116,58.928 32.616,56.928 36.616,56.928 		"/>
	</g>
	<ellipse opacity="0.15" fill="#45413C" cx="33.616" cy="75.427" rx="15.5" ry="1.5"/>
	<g>
		<path fill="#E0E0E0" d="M45.616,74.927h-24c-0.552,0-1-0.447-1-1v-13c0-0.552,0.448-1,1-1h24c0.553,0,1,0.448,1,1v13
			C46.616,74.48,46.168,74.927,45.616,74.927z"/>
		<path fill="#F0F0F0" d="M45.616,59.928h-24c-0.552,0-1,0.448-1,1v2c0-0.552,0.448-1,1-1h24c0.553,0,1,0.448,1,1v-2
			C46.616,60.376,46.168,59.928,45.616,59.928z"/>
		<rect x="20.616" y="63.928" fill="#656769" width="26" height="8"/>
		<rect x="20.616" y="63.928" fill="#87898C" width="26" height="1.5"/>
		
			<rect x="20.616" y="63.928" fill="none" stroke="#45413C" stroke-linecap="round" stroke-linejoin="round" stroke-miterlimit="10" width="26" height="8"/>
		<path fill="#656769" stroke="#45413C" stroke-linecap="round" stroke-linejoin="round" stroke-miterlimit="10" d="M43.616,57.928
			h-1c-0.552,0-1,0.448-1,1v1h3v-1C44.616,58.376,44.168,57.928,43.616,57.928z"/>
		<path fill="#656769" stroke="#45413C" stroke-linecap="round" stroke-linejoin="round" stroke-miterlimit="10" d="M25.616,57.928
			h-2c-0.552,0-1,0.448-1,1v1h4v-1C26.616,58.376,26.169,57.928,25.616,57.928z"/>
		<path fill="none" stroke="#45413C" stroke-linecap="round" stroke-linejoin="round" stroke-miterlimit="10" d="M45.616,74.927h-24
			c-0.552,0-1-0.447-1-1v-13c0-0.552,0.448-1,1-1h24c0.553,0,1,0.448,1,1v13C46.616,74.48,46.168,74.927,45.616,74.927z"/>
		<path fill="#656769" stroke="#45413C" stroke-linecap="round" stroke-linejoin="round" stroke-miterlimit="10" d="M42.116,68.927
			c0.829,0,1.5-0.671,1.5-1.5c0-0.828-0.671-1.5-1.5-1.5h-1.5v3H42.116z"/>
		<path fill="#BDBEC0" d="M37.998,56.928h-6.764c-0.379,0-0.725,0.214-0.895,0.553l-0.985,1.97
			c-0.486,0.972-0.739,2.044-0.739,3.131v12.347h12V62.581c0-1.087-0.253-2.159-0.738-3.131l-0.985-1.97
			C38.723,57.141,38.377,56.928,37.998,56.928z"/>
		<path fill="#E0E0E0" d="M39.877,59.45l-0.985-1.97c-0.17-0.339-0.516-0.553-0.895-0.553h-6.763c-0.379,0-0.725,0.214-0.895,0.553
			l-0.985,1.97c-0.486,0.972-0.739,2.044-0.739,3.131v2c0-1.087,0.253-2.159,0.739-3.131l0.985-1.97
			c0.17-0.339,0.516-0.553,0.895-0.553h6.763c0.379,0,0.725,0.214,0.895,0.553l0.985,1.97c0.486,0.972,0.738,2.044,0.738,3.131v-2
			C40.616,61.494,40.363,60.422,39.877,59.45z"/>
		<path fill="none" stroke="#45413C" stroke-linecap="round" stroke-linejoin="round" stroke-miterlimit="10" d="M37.998,56.928
			h-6.764c-0.379,0-0.725,0.214-0.895,0.553l-0.985,1.97c-0.486,0.972-0.739,2.044-0.739,3.131v12.347h12V62.581
			c0-1.087-0.253-2.159-0.738-3.131l-0.985-1.97C38.723,57.141,38.377,56.928,37.998,56.928z"/>
		<circle fill="#656769" cx="34.616" cy="67.927" r="6"/>
		<path fill="#87898C" d="M34.616,63.928c2.973,0,5.433,2.163,5.91,5c0.055-0.325,0.09-0.658,0.09-1c0-3.313-2.686-6-6-6
			c-3.313,0-6,2.686-6,6c0,0.342,0.035,0.675,0.09,1C29.183,66.091,31.644,63.928,34.616,63.928z"/>
		<circle fill="#00B8F0" cx="34.616" cy="67.927" r="4"/>
		<path fill="#4ACFFF" d="M31.788,70.757c-1.562-1.562-1.562-4.095,0-5.657c1.562-1.562,4.095-1.562,5.657,0L31.788,70.757z"/>
		
			<circle fill="none" stroke="#45413C" stroke-linecap="round" stroke-linejoin="round" stroke-miterlimit="10" cx="34.616" cy="67.927" r="6"/>
		
			<circle fill="none" stroke="#45413C" stroke-linecap="round" stroke-linejoin="round" stroke-miterlimit="10" cx="34.616" cy="67.927" r="4"/>
		
			<line fill="none" stroke="#45413C" stroke-linecap="round" stroke-linejoin="round" stroke-miterlimit="10" x1="31.616" y1="59.928" x2="37.616" y2="59.928"/>
		
			<line fill="none" stroke="#45413C" stroke-linecap="round" stroke-linejoin="round" stroke-miterlimit="10" x1="24.616" y1="63.928" x2="24.616" y2="71.927"/>
		
			<line fill="none" stroke="#45413C" stroke-linecap="round" stroke-linejoin="round" stroke-miterlimit="10" x1="23.616" y1="61.928" x2="26.616" y2="61.928"/>
	</g>
</g>
</svg>
