<?xml version="1.0" encoding="utf-8"?>
<!-- Generator: Adobe Illustrator 21.0.0, SVG Export Plug-In . SVG Version: 6.00 Build 0)  -->
<svg version="1.1" id="Layer_1" xmlns="http://www.w3.org/2000/svg" xmlns:xlink="http://www.w3.org/1999/xlink" x="0px" y="0px"
	 width="96px" height="96px" viewBox="0 0 96 96" enable-background="new 0 0 96 96" xml:space="preserve">
<g>
	<g>
		<path fill="#BDFBFC" d="M89.1,49c0-22.091-17.909-40-40-40s-40,17.909-40,40c0,5.885,1.282,11.468,3.564,16.5h72.872
			C87.819,60.468,89.1,54.885,89.1,49z"/>
		<path fill="#FFEF9E" d="M12.664,65.5C18.949,79.357,32.894,89,49.1,89c16.206,0,30.151-9.643,36.436-23.5H12.664z"/>
		<path fill="#FFFACF" d="M83.707,69c0.659-1.137,1.282-2.296,1.829-3.5H12.664c0.546,1.204,1.17,2.363,1.829,3.5H83.707z"/>
	</g>
	<g>
		
			<line fill="none" stroke="#45413C" stroke-linecap="round" stroke-linejoin="round" stroke-miterlimit="10" x1="10.1" y1="65.5" x2="88.1" y2="65.5"/>
		
			<line fill="none" stroke="#45413C" stroke-linecap="round" stroke-linejoin="round" stroke-miterlimit="10" x1="5.6" y1="65.5" x2="8.1" y2="65.5"/>
		
			<line fill="none" stroke="#45413C" stroke-linecap="round" stroke-linejoin="round" stroke-miterlimit="10" x1="90.1" y1="65.5" x2="92.6" y2="65.5"/>
	</g>
</g>
<g>
	<g>
		<g>
			<path fill="#87898C" stroke="#45413C" stroke-miterlimit="10" d="M70.855,45.471c0.11-0.012,0.22-0.043,0.326-0.095
				c0.497-0.241,0.703-0.839,0.462-1.336c-1.353-2.784-1.424-4.017-1.274-6.586c0.033-0.551-0.388-1.024-0.939-1.056
				c-0.553-0.034-1.025,0.388-1.057,0.94c-0.165,2.823-0.076,4.393,1.471,7.576C70.035,45.306,70.446,45.517,70.855,45.471z"/>
		</g>
	</g>
	<g>
		<g>
			<path fill="#87898C" stroke="#45413C" stroke-miterlimit="10" d="M74.119,44.061c0.022-0.001,0.043-0.002,0.065-0.004
				c0.55-0.054,0.952-0.542,0.899-1.092c-0.521-5.378-1.111-9.391-3.982-12.073c-0.404-0.378-1.036-0.355-1.414,0.049
				c-0.377,0.404-0.355,1.036,0.048,1.413c2.174,2.03,2.793,4.973,3.357,10.803C73.143,43.686,73.596,44.078,74.119,44.061z"/>
		</g>
	</g>
	<g>
		<g>
			<path fill="#87898C" stroke="#45413C" stroke-miterlimit="10" d="M55.991,45.471c-0.11-0.012-0.22-0.043-0.326-0.095
				c-0.497-0.241-0.703-0.839-0.462-1.336c1.353-2.784,1.424-4.017,1.274-6.586c-0.033-0.551,0.388-1.024,0.94-1.056
				c0.553-0.034,1.025,0.388,1.057,0.94c0.165,2.823,0.076,4.393-1.471,7.576C56.811,45.306,56.4,45.517,55.991,45.471z"/>
		</g>
	</g>
	<path fill="#D18660" d="M66.923,42.839v-3.391h-7v3.391c-6.872,1.589-12,7.733-12,15.089v7.5h31v-7.5
		C78.923,50.572,73.795,44.428,66.923,42.839z"/>
	<path fill="#E09F7E" d="M63.423,42.448c-8.561,0-15.5,6.939-15.5,15.5v4.5c0-8.561,6.939-15.5,15.5-15.5
		c8.56,0,15.5,6.939,15.5,15.5v-4.5C78.923,49.387,71.984,42.448,63.423,42.448z"/>
	<path fill="#D18660" d="M59.923,42.913c1.11,0.331,2.283,0.515,3.5,0.515c1.217,0,2.39-0.184,3.5-0.515v-3.465h-7V42.913z"/>
	<path fill="#FFFFFF" stroke="#45413C" stroke-linejoin="round" stroke-miterlimit="10" d="M72.923,59.928
		c-1.932-3.22-2.608-7.039-1.899-10.727l0.822-4.274c-1.181-0.767-2.467-1.385-3.84-1.81l-1.106,6.849
		c-0.275,1.707-1.748,2.962-3.477,2.962s-3.202-1.255-3.478-2.962l-1.105-6.849c-1.373,0.425-2.659,1.043-3.84,1.81l0.822,4.274
		c0.709,3.688,0.033,7.507-1.899,10.727v5.5h19V59.928z"/>
	
		<line fill="none" stroke="#45413C" stroke-linecap="round" stroke-linejoin="round" stroke-miterlimit="10" x1="53.923" y1="56.428" x2="53.923" y2="65.427"/>
	
		<line fill="none" stroke="#45413C" stroke-linecap="round" stroke-linejoin="round" stroke-miterlimit="10" x1="72.923" y1="56.428" x2="72.923" y2="65.427"/>
	<path fill="none" stroke="#45413C" stroke-linecap="round" stroke-linejoin="round" stroke-miterlimit="10" d="M66.923,42.839
		v-3.391h-7v3.391c-6.872,1.589-12,7.733-12,15.089v7.5h31v-7.5C78.923,50.572,73.795,44.428,66.923,42.839z"/>
	<ellipse opacity="0.15" fill="#45413C" cx="30.471" cy="72.927" rx="19.5" ry="1.5"/>
	<path fill="#EBCB00" stroke="#45413C" stroke-linejoin="round" stroke-miterlimit="10" d="M67.923,41.099
		c-0.237-0.226-0.667-0.282-1-0.282v2.022c0.828,1.278,0.667,2.124,0.667,3.476c0,6.952-2.866,12.989-4.167,12.989
		c-1.301,0-4.167-6.037-4.167-12.989c0-1.352-0.16-2.197,0.667-3.476v-2.022c-0.333,0-0.763,0.057-1,0.282
		c-1.69,1.608-1.667,3.164-1.667,5.215c0,6.447,2.694,14.989,6.167,14.989c3.473,0,6.167-8.542,6.167-14.989
		C69.59,44.263,69.614,42.707,67.923,41.099z"/>
	<circle fill="#EBCB00" cx="63.423" cy="61.428" r="2.5"/>
	<path fill="#FFE500" d="M63.423,58.928c-1.381,0-2.5,1.119-2.5,2.5c0,0.693,0.282,1.319,0.737,1.772l3.536-3.535
		C64.742,59.209,64.116,58.928,63.423,58.928z"/>
	<circle fill="none" stroke="#45413C" stroke-linejoin="round" stroke-miterlimit="10" cx="63.423" cy="61.428" r="2.5"/>
	<path fill="none" stroke="#45413C" stroke-miterlimit="10" d="M78.825,56.179c-0.441,0.161-0.913,0.248-1.402,0.248
		c-2.485,0-4.5-2.239-4.5-5c0-1.662,0.729-3.134,1.851-4.043"/>
	<path fill="none" stroke="#45413C" stroke-miterlimit="10" d="M78.474,54.191c-0.323,0.152-0.678,0.236-1.051,0.236
		c-1.491,0-2.7-1.344-2.7-3c0-1.075,0.509-2.018,1.272-2.547"/>
	
		<line fill="none" stroke="#45413C" stroke-linecap="round" stroke-linejoin="round" stroke-miterlimit="10" x1="47.923" y1="61.428" x2="53.923" y2="61.428"/>
	
		<line fill="none" stroke="#45413C" stroke-linecap="round" stroke-linejoin="round" stroke-miterlimit="10" x1="47.923" y1="63.428" x2="53.923" y2="63.428"/>
	<g>
		<path fill="#C0DCEB" d="M48.471,53.428h-36v-3.5c0-1.104,0.896-2,2-2h32c1.104,0,2,0.896,2,2V53.428z"/>
		<path fill="#F0F0F0" stroke="#45413C" stroke-linejoin="round" stroke-miterlimit="10" d="M48.471,69.927c0,1.104-0.896,2-2,2h-32
			c-1.104,0-2-0.896-2-2v-16.5h36V69.927z"/>
		
			<rect x="26.471" y="53.428" fill="#C0DCEB" stroke="#45413C" stroke-linejoin="round" stroke-miterlimit="10" width="8" height="18.5"/>
		<rect x="26.471" y="57.428" fill="#BDBEC0" width="8" height="4.5"/>
		<polygon fill="#E0E0E0" points="26.471,57.428 26.471,61.928 27.067,61.928 31.567,57.428 		"/>
		<path fill="#E8F4FA" d="M48.471,49.928c0-1.104-0.896-2-2-2h-32c-1.104,0-2,0.896-2,2v2c0-1.104,0.896-2,2-2h32
			c1.104,0,2,0.896,2,2V49.928z"/>
		<path fill="none" stroke="#45413C" stroke-linejoin="round" stroke-miterlimit="10" d="M48.471,53.428h-36v-3.5
			c0-1.104,0.896-2,2-2h32c1.104,0,2,0.896,2,2V53.428z"/>
		<path fill="#FF8A14" stroke="#45413C" stroke-linejoin="round" stroke-miterlimit="10" d="M45.971,53.428h-31v-2
			c0-0.552,0.448-1,1-1h29c0.552,0,1,0.448,1,1V53.428z"/>
		<g>
			<circle fill="#656769" cx="19.471" cy="63.428" r="5"/>
			<path fill="#525252" d="M19.471,59.928c2.507,0,4.582,1.844,4.944,4.25c0.037-0.245,0.056-0.495,0.056-0.75c0-2.762-2.238-5-5-5
				s-5,2.238-5,5c0,0.255,0.019,0.505,0.056,0.75C14.889,61.771,16.964,59.928,19.471,59.928z"/>
			<circle fill="none" stroke="#45413C" stroke-linejoin="round" stroke-miterlimit="10" cx="19.471" cy="63.428" r="5"/>
			<circle fill="#525252" cx="19.471" cy="64.427" r="2.5"/>
			<circle fill="#87898C" cx="19.471" cy="63.428" r="2"/>
			<path fill="#BDBEC0" d="M19.471,62.928c0.839,0,1.557,0.517,1.854,1.25c0.094-0.232,0.146-0.485,0.146-0.75c0-1.104-0.896-2-2-2
				s-2,0.896-2,2c0,0.265,0.052,0.518,0.146,0.75C17.914,63.445,18.632,62.928,19.471,62.928z"/>
			<circle fill="none" stroke="#45413C" stroke-linejoin="round" stroke-miterlimit="10" cx="19.471" cy="63.428" r="2"/>
		</g>
		<g>
			<circle fill="#656769" cx="41.471" cy="63.428" r="5"/>
			<path fill="#525252" d="M41.471,59.928c2.507,0,4.582,1.844,4.944,4.25c0.037-0.245,0.056-0.495,0.056-0.75c0-2.762-2.238-5-5-5
				s-5,2.238-5,5c0,0.255,0.019,0.505,0.056,0.75C36.889,61.771,38.964,59.928,41.471,59.928z"/>
			<circle fill="none" stroke="#45413C" stroke-linejoin="round" stroke-miterlimit="10" cx="41.471" cy="63.428" r="5"/>
			<circle fill="#525252" cx="41.471" cy="64.427" r="2.5"/>
			<circle fill="#87898C" cx="41.471" cy="63.428" r="2"/>
			<path fill="#BDBEC0" d="M41.471,62.928c0.839,0,1.557,0.517,1.854,1.25c0.094-0.232,0.146-0.485,0.146-0.75c0-1.104-0.896-2-2-2
				s-2,0.896-2,2c0,0.265,0.052,0.518,0.146,0.75C39.914,63.445,40.632,62.928,41.471,62.928z"/>
			<circle fill="none" stroke="#45413C" stroke-linejoin="round" stroke-miterlimit="10" cx="41.471" cy="63.428" r="2"/>
		</g>
		
			<rect x="26.471" y="57.428" fill="none" stroke="#45413C" stroke-linejoin="round" stroke-miterlimit="10" width="8" height="4.5"/>
		
			<line fill="none" stroke="#45413C" stroke-linecap="round" stroke-linejoin="round" stroke-miterlimit="10" x1="28.471" y1="64.927" x2="32.471" y2="64.927"/>
		
			<line fill="none" stroke="#45413C" stroke-linecap="round" stroke-linejoin="round" stroke-miterlimit="10" x1="28.471" y1="66.927" x2="32.471" y2="66.927"/>
		
			<line fill="none" stroke="#45413C" stroke-linecap="round" stroke-linejoin="round" stroke-miterlimit="10" x1="28.471" y1="68.927" x2="32.471" y2="68.927"/>
		<path fill="none" stroke="#45413C" stroke-linejoin="round" stroke-miterlimit="10" d="M15.971,47.928v-4.5c0-0.553,0.448-1,1-1
			h0.5"/>
		<path fill="none" stroke="#45413C" stroke-linejoin="round" stroke-miterlimit="10" d="M44.971,47.928v-4.5c0-0.553-0.448-1-1-1
			h-0.5"/>
		<path fill="#656769" d="M43.971,42.178c0,0.69-0.56,1.25-1.25,1.25h-24.5c-0.691,0-1.25-0.56-1.25-1.25
			c0-0.69,0.559-1.25,1.25-1.25h24.5C43.412,40.928,43.971,41.487,43.971,42.178z"/>
		<path fill="#87898C" d="M18.221,42.178h24.5c0.463,0,0.866,0.251,1.083,0.625c0.106-0.184,0.167-0.397,0.167-0.625
			c0-0.69-0.56-1.25-1.25-1.25h-24.5c-0.69,0-1.25,0.56-1.25,1.25c0,0.228,0.061,0.441,0.168,0.625
			C17.355,42.429,17.758,42.178,18.221,42.178z"/>
		<path fill="none" stroke="#45413C" stroke-linejoin="round" stroke-miterlimit="10" d="M43.971,42.178c0,0.69-0.56,1.25-1.25,1.25
			h-24.5c-0.691,0-1.25-0.56-1.25-1.25c0-0.69,0.559-1.25,1.25-1.25h24.5C43.412,40.928,43.971,41.487,43.971,42.178z"/>
		<path fill="#C0DCEB" stroke="#45413C" stroke-linejoin="round" stroke-miterlimit="10" d="M42.971,47.928h-4.5v-1
			c0-0.552,0.448-1,1-1h2.5c0.552,0,1,0.448,1,1V47.928z"/>
		<path fill="#C0DCEB" stroke="#45413C" stroke-linejoin="round" stroke-miterlimit="10" d="M20.971,47.928h-2v-1
			c0-0.552,0.448-1,1-1c0.552,0,1,0.448,1,1V47.928z"/>
		<path fill="#C0DCEB" stroke="#45413C" stroke-linejoin="round" stroke-miterlimit="10" d="M24.971,47.928h-2v-1
			c0-0.552,0.448-1,1-1c0.552,0,1,0.448,1,1V47.928z"/>
		<path fill="#C0DCEB" stroke="#45413C" stroke-linejoin="round" stroke-miterlimit="10" d="M28.971,47.928h-2v-1
			c0-0.552,0.448-1,1-1c0.552,0,1,0.448,1,1V47.928z"/>
		
			<line fill="none" stroke="#45413C" stroke-linecap="round" stroke-linejoin="round" stroke-miterlimit="10" x1="38.971" y1="52.095" x2="38.971" y2="53.428"/>
		
			<rect x="12.471" y="53.428" fill="#C0DCEB" stroke="#45413C" stroke-linejoin="round" stroke-miterlimit="10" width="36" height="2"/>
	</g>
	<g>
		<g>
			<path fill="#87898C" stroke="#45413C" stroke-miterlimit="10" d="M52.728,44.061c-0.022-0.001-0.043-0.002-0.065-0.004
				c-0.55-0.054-0.952-0.542-0.899-1.092c0.521-5.378,1.111-9.391,3.982-12.073c0.404-0.378,1.036-0.355,1.414,0.049
				c0.377,0.404,0.355,1.036-0.048,1.413c-2.174,2.03-2.793,4.973-3.357,10.803C53.703,43.686,53.25,44.078,52.728,44.061z"/>
		</g>
	</g>
	<path fill="#D18660" stroke="#45413C" stroke-linecap="round" stroke-linejoin="round" stroke-miterlimit="10" d="M73.423,28.948
		v-2.5c0-5.523-4.477-10-10-10c-5.523,0-10,4.477-10,10v2.5c-1.104,0-2,0.896-2,2c0,1.105,0.896,2,2,2
		c0.042,0,0.081-0.01,0.123-0.013c0.72,4.815,4.861,8.513,9.877,8.513c5.016,0,9.157-3.697,9.877-8.513
		c0.042,0.003,0.081,0.013,0.123,0.013c1.104,0,2-0.896,2-2C75.423,29.844,74.527,28.948,73.423,28.948z"/>
	<circle fill="#BD704A" cx="57.673" cy="33.198" r="1.25"/>
	<circle fill="#BD704A" cx="69.173" cy="33.198" r="1.25"/>
	<path fill="#87898C" stroke="#45413C" stroke-linejoin="round" stroke-miterlimit="10" d="M51.423,30.948c0-1.104,0.896-2,2-2
		h0.073c1.201-2.69,2.307-5.043,2.33-5.09c0.235-0.5,0.021-1.096-0.479-1.33c-0.499-0.236-1.095-0.021-1.331,0.479
		c-0.184,0.391-4.516,9.605-5.345,12.525c-0.835,2.941-1.118,6.947-1.129,7.116c-0.038,0.551,0.378,1.028,0.929,1.066
		c0.023,0.001,0.047,0.002,0.07,0.002c0.521,0,0.96-0.403,0.997-0.932c0.003-0.039,0.281-3.968,1.058-6.706
		c0.229-0.807,0.767-2.178,1.415-3.715C51.647,32.001,51.423,31.5,51.423,30.948z"/>
	<path fill="#87898C" stroke="#45413C" stroke-linejoin="round" stroke-miterlimit="10" d="M75.423,30.948c0-1.104-0.896-2-2-2
		H73.35c-1.201-2.69-2.307-5.043-2.33-5.09c-0.235-0.5-0.021-1.096,0.479-1.33c0.499-0.236,1.095-0.021,1.331,0.479
		c0.184,0.391,4.516,9.605,5.345,12.525c0.835,2.941,1.118,6.947,1.129,7.116c0.038,0.551-0.378,1.028-0.929,1.066
		c-0.023,0.001-0.047,0.002-0.07,0.002c-0.521,0-0.961-0.403-0.997-0.932c-0.003-0.039-0.281-3.968-1.058-6.706
		c-0.229-0.807-0.767-2.178-1.415-3.715C75.199,32.001,75.423,31.5,75.423,30.948z"/>
	<g>
		<g>
			
				<rect x="62.423" y="17.427" fill="#87898C" stroke="#45413C" stroke-linejoin="round" stroke-miterlimit="10" width="2" height="4"/>
		</g>
	</g>
	<g>
		<g>
			
				<rect x="58.669" y="18.119" transform="matrix(0.9919 -0.1269 0.1269 0.9919 -2.0708 7.7348)" fill="#87898C" stroke="#45413C" stroke-linejoin="round" stroke-miterlimit="10" width="2" height="4"/>
		</g>
	</g>
	<g>
		<g>
			
				<rect x="65.177" y="19.119" transform="matrix(0.1269 -0.9919 0.9919 0.1269 38.6956 84.2001)" fill="#87898C" stroke="#45413C" stroke-linejoin="round" stroke-miterlimit="10" width="4" height="2"/>
		</g>
	</g>
	
		<rect x="57.923" y="21.427" fill="#FF6242" stroke="#45413C" stroke-linejoin="round" stroke-miterlimit="10" width="11" height="3"/>
	<path fill="#FF6242" d="M73.364,24.427c0.6,0,1.063-0.526,1-1.123c-0.532-5.003-4.586-9.377-10.94-9.377
		c-6.312,0-10.404,4.336-10.94,9.377c-0.063,0.597,0.399,1.123,1,1.123h4.441v-0.5c0-3.038,2.462-5.5,5.5-5.5
		c3.038,0,5.5,2.462,5.5,5.5v0.5H73.364z"/>
	<path fill="#FF866E" d="M52.802,24.14c1.169-4.294,5.018-7.713,10.621-7.713c5.637,0,9.458,3.443,10.621,7.713
		c0.22-0.21,0.354-0.507,0.319-0.836c-0.532-5.003-4.586-9.377-10.94-9.377c-6.312,0-10.405,4.336-10.94,9.377
		C52.447,23.633,52.582,23.93,52.802,24.14z"/>
	<path fill="none" stroke="#45413C" stroke-linejoin="round" stroke-miterlimit="10" d="M73.364,24.427c0.6,0,1.063-0.526,1-1.123
		c-0.532-5.003-4.586-9.377-10.94-9.377c-6.312,0-10.404,4.336-10.94,9.377c-0.063,0.597,0.399,1.123,1,1.123h4.441v-0.5
		c0-3.038,2.462-5.5,5.5-5.5c3.038,0,5.5,2.462,5.5,5.5v0.5H73.364z"/>
	<g>
		
			<line fill="none" stroke="#45413C" stroke-linecap="round" stroke-linejoin="round" stroke-miterlimit="10" x1="62.423" y1="26.927" x2="64.423" y2="26.927"/>
		
			<line fill="none" stroke="#45413C" stroke-linecap="round" stroke-linejoin="round" stroke-miterlimit="10" x1="61.923" y1="28.427" x2="64.923" y2="28.427"/>
		<path fill="#525252" d="M69.232,32.428c1,0,3.34-0.615,3.183-3.267c-0.092-1.551-1.441-2.733-2.995-2.733h-4.997
			C64.669,27.899,64.849,32.426,69.232,32.428z"/>
		<path fill="#656769" d="M69.42,26.427h-4.997c0.135,0.813,0.255,2.562,1.073,3.962l3.959-3.959
			C69.444,26.43,69.432,26.427,69.42,26.427z"/>
		<path fill="none" stroke="#45413C" stroke-linecap="round" stroke-linejoin="round" stroke-miterlimit="10" d="M69.232,32.428
			c1,0,3.34-0.615,3.183-3.267c-0.092-1.551-1.441-2.733-2.995-2.733h-4.997C64.669,27.899,64.849,32.426,69.232,32.428z"/>
		<path fill="#525252" d="M57.614,32.428c-1.001,0-3.34-0.615-3.184-3.267c0.092-1.551,1.441-2.733,2.996-2.733h4.997
			C62.178,27.899,61.997,32.426,57.614,32.428z"/>
		<path fill="#656769" d="M57.426,26.427c-1.554,0-2.904,1.183-2.996,2.733c-0.046,0.78,0.127,1.38,0.416,1.843l4.577-4.576H57.426z
			"/>
		<path fill="none" stroke="#45413C" stroke-linecap="round" stroke-linejoin="round" stroke-miterlimit="10" d="M57.614,32.428
			c-1.001,0-3.34-0.615-3.184-3.267c0.092-1.551,1.441-2.733,2.996-2.733h4.997C62.178,27.899,61.997,32.426,57.614,32.428z"/>
	</g>
	<circle fill="#FFFFFF" stroke="#45413C" stroke-linejoin="round" stroke-miterlimit="10" cx="73.923" cy="32.428" r="1"/>
	<path fill="#724F3D" stroke="#45413C" stroke-linejoin="round" stroke-miterlimit="10" d="M67.923,37.803
		c0.001-0.708-0.009-1.226-0.29-2.335c-0.19-0.76-0.89-1.29-1.69-1.29h-5.04c-0.8,0-1.5,0.53-1.69,1.29
		c-0.28,1.109-0.29,1.627-0.29,2.335c-1.786-0.239-3.831-1.255-4.331-1.715c1.66,3.17,4.99,5.34,8.83,5.34
		c3.84,0,7.17-2.17,8.83-5.34C71.753,36.548,69.708,37.563,67.923,37.803z M64.563,39.758c-0.37,0.069-0.75,0.13-1.14,0.17
		c-0.39-0.04-0.77-0.101-1.14-0.17c-0.96-0.181-1.61-1.05-1.6-2.021c0.01-0.64,0.1-0.68,0.26-1.31c0.02-0.09,0.12-0.15,0.23-0.15
		h4.5c0.11,0,0.21,0.061,0.23,0.15c0.16,0.63,0.25,0.67,0.26,1.31C66.173,38.708,65.523,39.577,64.563,39.758z"/>
</g>
</svg>
