<?xml version="1.0" encoding="utf-8"?>
<!-- Generator: Adobe Illustrator 21.0.0, SVG Export Plug-In . SVG Version: 6.00 Build 0)  -->
<svg version="1.1" id="Layer_1" xmlns="http://www.w3.org/2000/svg" xmlns:xlink="http://www.w3.org/1999/xlink" x="0px" y="0px"
	 width="96px" height="96px" viewBox="0 0 96 96" enable-background="new 0 0 96 96" xml:space="preserve">
<g>
	<g>
		<path fill="#BDFBFC" d="M87.565,49c0-22.091-17.909-40-40-40s-40,17.909-40,40c0,5.885,1.281,11.468,3.564,16.5h72.872
			C86.284,60.468,87.565,54.885,87.565,49z"/>
		<path fill="#FCEFD9" d="M11.129,65.5C17.414,79.357,31.359,89,47.565,89c16.206,0,30.151-9.643,36.436-23.5H11.129z"/>
		<path fill="#FFF5E3" d="M82.173,69c0.659-1.137,1.282-2.296,1.829-3.5H11.129c0.546,1.204,1.17,2.363,1.829,3.5H82.173z"/>
	</g>
	<g>
		
			<line fill="none" stroke="#45413C" stroke-linecap="round" stroke-linejoin="round" stroke-miterlimit="10" x1="8.565" y1="65.5" x2="86.565" y2="65.5"/>
		
			<line fill="none" stroke="#45413C" stroke-linecap="round" stroke-linejoin="round" stroke-miterlimit="10" x1="4.065" y1="65.5" x2="6.565" y2="65.5"/>
		
			<line fill="none" stroke="#45413C" stroke-linecap="round" stroke-linejoin="round" stroke-miterlimit="10" x1="88.565" y1="65.5" x2="91.065" y2="65.5"/>
	</g>
</g>
<g>
	<ellipse opacity="0.15" fill="#45413C" cx="45.815" cy="76.769" rx="16.8" ry="1.5"/>
	<path fill="#E8F4FA" d="M58.415,73.477c0,1.104-0.896,2-2,2h-21.2c-1.104,0-2-0.896-2-2v-35.6c0-1.104,0.896-2,2-2h21.2
		c1.104,0,2,0.896,2,2V73.477z"/>
	<path fill="#FFFFFF" d="M58.415,37.876c0-1.104-0.896-2-2-2h-21.2c-1.104,0-2,0.896-2,2v3.6c0-1.104,0.896-2,2-2h21.2
		c1.104,0,2,0.896,2,2V37.876z"/>
	<circle fill="#C0DCEB" cx="45.815" cy="66.267" r="7.8"/>
	<circle fill="#FFFFFF" cx="45.815" cy="64.077" r="7.8"/>
	<circle fill="#E8F4FA" cx="45.815" cy="64.077" r="3"/>
	<path fill="none" stroke="#45413C" stroke-linecap="round" stroke-linejoin="round" stroke-miterlimit="10" d="M58.415,73.477
		c0,1.104-0.896,2-2,2h-21.2c-1.104,0-2-0.896-2-2v-35.6c0-1.104,0.896-2,2-2h21.2c1.104,0,2,0.896,2,2V73.477z"/>
	
		<circle fill="none" stroke="#45413C" stroke-linecap="round" stroke-linejoin="round" stroke-miterlimit="10" cx="45.815" cy="64.077" r="7.8"/>
	
		<circle fill="none" stroke="#45413C" stroke-linecap="round" stroke-linejoin="round" stroke-miterlimit="10" cx="45.815" cy="64.077" r="3"/>
	<g>
		<path fill="#4ACFFF" d="M54.815,51.676c0,0.552-0.448,1-1,1h-16c-0.552,0-1-0.448-1-1v-11.2c0-0.552,0.448-1,1-1h16
			c0.552,0,1,0.448,1,1V51.676z"/>
		<path fill="#80DDFF" d="M36.815,51.324l11.847-11.847H37.815c-0.552,0-1,0.448-1,1V51.324z"/>
		<path fill="#FFFFFF" d="M44.918,43.097c-0.186-0.109-0.415-0.109-0.602-0.003c-0.187,0.107-0.302,0.305-0.302,0.521v5.08
			c0,0.218,0.118,0.418,0.308,0.524c0.189,0.106,0.422,0.101,0.607-0.013l4.233-2.605c0.18-0.11,0.288-0.307,0.285-0.518
			c-0.002-0.211-0.115-0.405-0.297-0.511L44.918,43.097z"/>
		<path fill="none" stroke="#45413C" stroke-linecap="round" stroke-linejoin="round" stroke-miterlimit="10" d="M54.815,51.676
			c0,0.552-0.448,1-1,1h-16c-0.552,0-1-0.448-1-1v-11.2c0-0.552,0.448-1,1-1h16c0.552,0,1,0.448,1,1V51.676z"/>
		<path fill="none" stroke="#45413C" stroke-linecap="round" stroke-linejoin="round" stroke-miterlimit="10" d="M44.918,43.097
			c-0.186-0.109-0.415-0.109-0.602-0.003c-0.187,0.107-0.302,0.305-0.302,0.521v5.08c0,0.218,0.118,0.418,0.308,0.524
			c0.189,0.106,0.422,0.101,0.607-0.013l4.233-2.605c0.18-0.11,0.288-0.307,0.285-0.518c-0.002-0.211-0.115-0.405-0.297-0.511
			L44.918,43.097z"/>
	</g>
	<g>
		<g>
			
				<circle fill="none" stroke="#48CF3E" stroke-linecap="round" stroke-linejoin="round" stroke-miterlimit="10" cx="40.963" cy="27.129" r="2.24"/>
			
				<circle fill="none" stroke="#48CF3E" stroke-linecap="round" stroke-linejoin="round" stroke-miterlimit="10" cx="52.163" cy="24.889" r="2.24"/>
			<path fill="none" stroke="#48CF3E" stroke-linecap="round" stroke-linejoin="round" stroke-miterlimit="10" d="M43.203,27.129
				v-9.267c0-0.491,0.298-0.932,0.754-1.114l8.8-3.52c0.37-0.148,0.789-0.103,1.118,0.121c0.33,0.223,0.527,0.595,0.527,0.994
				v10.547"/>
		</g>
	</g>
	<g>
		<g>
			
				<circle fill="none" stroke="#FF4064" stroke-linecap="round" stroke-linejoin="round" stroke-miterlimit="10" cx="22.416" cy="43.094" r="1.875"/>
			<polyline fill="none" stroke="#FF4064" stroke-linecap="round" stroke-linejoin="round" stroke-miterlimit="10" points="
				24.291,43.094 24.291,34.656 27.104,36.531 			"/>
		</g>
	</g>
	<g>
		<g>
			
				<circle fill="none" stroke="#FFB700" stroke-linecap="round" stroke-linejoin="round" stroke-miterlimit="10" cx="66.122" cy="43.169" r="1.2"/>
			<polyline fill="none" stroke="#FFB700" stroke-linecap="round" stroke-linejoin="round" stroke-miterlimit="10" points="
				67.322,43.168 67.322,37.769 69.123,38.969 			"/>
		</g>
	</g>
	<g>
		
			<line fill="none" stroke="#00AED9" stroke-linecap="round" stroke-linejoin="round" stroke-miterlimit="10" x1="68.523" y1="51.869" x2="68.523" y2="50.969"/>
		
			<line fill="none" stroke="#00AED9" stroke-linecap="round" stroke-linejoin="round" stroke-miterlimit="10" x1="70.432" y1="52.66" x2="71.068" y2="52.023"/>
		
			<line fill="none" stroke="#00AED9" stroke-linecap="round" stroke-linejoin="round" stroke-miterlimit="10" x1="71.223" y1="54.569" x2="72.123" y2="54.569"/>
		
			<line fill="none" stroke="#00AED9" stroke-linecap="round" stroke-linejoin="round" stroke-miterlimit="10" x1="70.432" y1="56.478" x2="71.068" y2="57.114"/>
		
			<line fill="none" stroke="#00AED9" stroke-linecap="round" stroke-linejoin="round" stroke-miterlimit="10" x1="68.523" y1="57.269" x2="68.523" y2="58.168"/>
		
			<line fill="none" stroke="#00AED9" stroke-linecap="round" stroke-linejoin="round" stroke-miterlimit="10" x1="66.613" y1="56.478" x2="65.977" y2="57.114"/>
		
			<line fill="none" stroke="#00AED9" stroke-linecap="round" stroke-linejoin="round" stroke-miterlimit="10" x1="65.822" y1="54.569" x2="64.923" y2="54.569"/>
		
			<line fill="none" stroke="#00AED9" stroke-linecap="round" stroke-linejoin="round" stroke-miterlimit="10" x1="66.613" y1="52.66" x2="65.977" y2="52.023"/>
	</g>
	<g>
		
			<line fill="none" stroke="#00AED9" stroke-linecap="round" stroke-linejoin="round" stroke-miterlimit="10" x1="62.523" y1="29.369" x2="62.523" y2="26.969"/>
		
			<line fill="none" stroke="#00AED9" stroke-linecap="round" stroke-linejoin="round" stroke-miterlimit="10" x1="61.322" y1="28.169" x2="63.723" y2="28.169"/>
	</g>
	<g>
		
			<line fill="none" stroke="#00AED9" stroke-linecap="round" stroke-linejoin="round" stroke-miterlimit="10" x1="29.523" y1="29.369" x2="29.523" y2="24.569"/>
		
			<line fill="none" stroke="#00AED9" stroke-linecap="round" stroke-linejoin="round" stroke-miterlimit="10" x1="27.123" y1="26.969" x2="31.923" y2="26.969"/>
	</g>
	<g>
		
			<line fill="none" stroke="#00AED9" stroke-linecap="round" stroke-linejoin="round" stroke-miterlimit="10" x1="21.815" y1="55.168" x2="21.815" y2="52.769"/>
		
			<line fill="none" stroke="#00AED9" stroke-linecap="round" stroke-linejoin="round" stroke-miterlimit="10" x1="20.615" y1="53.969" x2="23.015" y2="53.969"/>
	</g>
</g>
</svg>
