<?xml version="1.0" encoding="utf-8"?>
<!-- Generator: Adobe Illustrator 21.0.0, SVG Export Plug-In . SVG Version: 6.00 Build 0)  -->
<svg version="1.1" id="Layer_1" xmlns="http://www.w3.org/2000/svg" xmlns:xlink="http://www.w3.org/1999/xlink" x="0px" y="0px"
	 width="96px" height="96px" viewBox="0 0 96 96" enable-background="new 0 0 96 96" xml:space="preserve">
<g>
	<g>
		<path fill="#CDF7AD" d="M47,89.01c14.798,0,27.69-8.054,34.608-20H12.392C19.31,80.956,32.202,89.01,47,89.01z"/>
		<path fill="#E4FFD1" d="M10.564,65.51c0.546,1.204,1.17,2.363,1.828,3.5h69.215c0.658-1.137,1.282-2.296,1.828-3.5H10.564z"/>
	</g>
	<path fill="#BDFBFC" d="M87,49.01c0-22.091-17.909-40-40-40s-40,17.909-40,40c0,5.885,1.281,11.468,3.564,16.5h72.872
		C85.718,60.478,87,54.895,87,49.01z"/>
	<g>
		
			<line fill="none" stroke="#45413C" stroke-linecap="round" stroke-linejoin="round" stroke-miterlimit="10" x1="8" y1="65.51" x2="86" y2="65.51"/>
		
			<line fill="none" stroke="#45413C" stroke-linecap="round" stroke-linejoin="round" stroke-miterlimit="10" x1="3.5" y1="65.51" x2="6" y2="65.51"/>
		
			<line fill="none" stroke="#45413C" stroke-linecap="round" stroke-linejoin="round" stroke-miterlimit="10" x1="88" y1="65.51" x2="90.5" y2="65.51"/>
	</g>
</g>
<g>
	<g>
		<path fill="#FFFFFF" stroke="#45413C" stroke-linejoin="round" stroke-miterlimit="10" d="M53.2,21.61c0-1.325-1.075-2.4-2.4-2.4
			c-0.306,0-0.595,0.063-0.864,0.167C49.631,17.47,47.992,16.01,46,16.01c-1.992,0-3.631,1.46-3.936,3.367
			c-0.269-0.104-0.558-0.167-0.864-0.167c-1.326,0-2.4,1.075-2.4,2.4c0,1.326,1.075,2.4,2.4,2.4h9.6
			C52.125,24.01,53.2,22.935,53.2,21.61z"/>
		<path fill="#FFFFFF" stroke="#45413C" stroke-linejoin="round" stroke-miterlimit="10" d="M53.2,21.61c0-1.325-1.075-2.4-2.4-2.4
			c-0.306,0-0.595,0.063-0.864,0.167C49.631,17.47,47.992,16.01,46,16.01c-1.992,0-3.631,1.46-3.936,3.367
			c-0.269-0.104-0.558-0.167-0.864-0.167c-1.326,0-2.4,1.075-2.4,2.4c0,1.326,1.075,2.4,2.4,2.4h9.6
			C52.125,24.01,53.2,22.935,53.2,21.61z"/>
	</g>
	<path fill="#FFF2E8" stroke="#45413C" stroke-linejoin="round" stroke-miterlimit="10" d="M79.233,45.442V38.9c0-0.552-0.448-1-1-1
		h-2.8c-0.552,0-1,0.448-1,1v2.387L79.233,45.442z"/>
	<polygon fill="#FFFFFF" points="80.466,65.5 56.466,65.5 56.466,51.271 68.466,40.862 80.466,51.27 	"/>
	<path fill="#F0F0F0" d="M68.466,40.862l-12,10.409v2.406l10.817-9.383c0.679-0.589,1.687-0.589,2.365,0l10.817,9.382V51.27
		L68.466,40.862z"/>
	<polygon fill="none" stroke="#45413C" stroke-linejoin="round" stroke-miterlimit="10" points="80.466,65.5 56.466,65.5 
		56.466,51.271 68.466,40.862 80.466,51.27 	"/>
	<path fill="#FF6242" d="M55.3,51.7c-0.53,0.001-1.03-0.231-1.372-0.634c-0.311-0.367-0.46-0.832-0.422-1.311
		c0.039-0.479,0.263-0.915,0.629-1.226l13.165-11.4c0.325-0.276,0.738-0.43,1.166-0.43c0.428,0,0.841,0.154,1.166,0.431
		l13.167,11.399c0.366,0.311,0.59,0.746,0.628,1.226c0.039,0.479-0.111,0.944-0.423,1.311c-0.341,0.403-0.841,0.634-1.371,0.634
		c-0.428,0-0.843-0.152-1.167-0.43l-12-10.407l-12,10.409C56.143,51.548,55.728,51.7,55.3,51.7z"/>
	<path fill="#FF866E" d="M54.135,50.529l13.165-11.4c0.325-0.276,0.738-0.43,1.166-0.43c0.428,0,0.841,0.154,1.166,0.431
		l13.167,11.399c0.127,0.108,0.23,0.235,0.321,0.37c0.227-0.337,0.34-0.733,0.307-1.144c-0.039-0.479-0.263-0.915-0.628-1.226
		L69.632,37.13c-0.325-0.278-0.738-0.431-1.166-0.431c-0.428,0-0.841,0.154-1.166,0.43l-13.165,11.4
		c-0.367,0.311-0.59,0.746-0.629,1.226c-0.033,0.411,0.08,0.808,0.307,1.145C53.904,50.765,54.008,50.637,54.135,50.529z"/>
	<path fill="none" stroke="#45413C" stroke-linejoin="round" stroke-miterlimit="10" d="M55.3,51.7
		c-0.53,0.001-1.03-0.231-1.372-0.634c-0.311-0.367-0.46-0.832-0.422-1.311c0.039-0.479,0.263-0.915,0.629-1.226l13.165-11.4
		c0.325-0.276,0.738-0.43,1.166-0.43c0.428,0,0.841,0.154,1.166,0.431l13.167,11.399c0.366,0.311,0.59,0.746,0.628,1.226
		c0.039,0.479-0.111,0.944-0.423,1.311c-0.341,0.403-0.841,0.634-1.371,0.634c-0.428,0-0.843-0.152-1.167-0.43l-12-10.407
		l-12,10.409C56.143,51.548,55.728,51.7,55.3,51.7z"/>
	<path fill="#FFA694" stroke="#45413C" stroke-linejoin="round" stroke-miterlimit="10" d="M75.633,37.9h2.4v-1.4
		c0-0.552-0.448-1-1-1h-0.4c-0.552,0-1,0.448-1,1V37.9z"/>
	<path fill="#FFFFFF" stroke="#45413C" stroke-linejoin="round" stroke-miterlimit="10" d="M68.433,65.5h-9.6v-1.4
		c0-0.552,0.448-1,1-1h7.6c0.552,0,1,0.448,1,1V65.5z"/>
	<path fill="#DEBB7E" stroke="#45413C" stroke-linejoin="round" stroke-miterlimit="10" d="M67.233,63.1h-7.2v-5.4
		c0-1.988,1.612-3.6,3.6-3.6c1.988,0,3.6,1.612,3.6,3.6V63.1z"/>
	
		<line fill="none" stroke="#45413C" stroke-linecap="round" stroke-linejoin="round" stroke-miterlimit="10" x1="64.833" y1="60.1" x2="64.833" y2="58.9"/>
	<circle fill="#00B8F0" cx="68.433" cy="48.1" r="2.4"/>
	<path fill="#4ACFFF" d="M70.13,46.403c-0.434-0.434-1.034-0.703-1.697-0.703c-1.326,0-2.4,1.074-2.4,2.4
		c0,0.663,0.269,1.263,0.703,1.697L70.13,46.403z"/>
	
		<circle fill="none" stroke="#45413C" stroke-linecap="round" stroke-linejoin="round" stroke-miterlimit="10" cx="68.433" cy="48.1" r="2.4"/>
	<path fill="#00B8F0" d="M76.833,60.9c0,0.552-0.448,1-1,1h-2.8c-0.552,0-1-0.448-1-1v-5.2c0-0.552,0.448-1,1-1h2.8
		c0.552,0,1,0.448,1,1V60.9z"/>
	<path fill="#4ACFFF" d="M76.818,55.625c-0.041-0.515-0.459-0.925-0.985-0.925h-2.8c-0.552,0-1,0.448-1,1v4.71L76.818,55.625z"/>
	<path fill="none" stroke="#45413C" stroke-linecap="round" stroke-linejoin="round" stroke-miterlimit="10" d="M76.833,60.9
		c0,0.552-0.448,1-1,1h-2.8c-0.552,0-1-0.448-1-1v-5.2c0-0.552,0.448-1,1-1h2.8c0.552,0,1,0.448,1,1V60.9z"/>
	<path fill="#FF6242" stroke="#45413C" stroke-linejoin="round" stroke-miterlimit="10" d="M50.2,56.01c0,1.105-0.895,2-2,2H35.4
		c-1.105,0-2-0.895-2-2v-8c0-1.104,0.895-2,2-2h12.8c1.105,0,2,0.896,2,2V56.01z"/>
	<path fill="#FFFFFF" stroke="#45413C" stroke-linejoin="round" stroke-miterlimit="10" d="M33.4,49.01v-1c0-1.105,0.895-2,2-2h12.8
		c1.105,0,2,0.895,2,2v1H33.4z"/>
	<path fill="#F0F0F0" d="M51.538,40.989c-0.163,0.49-0.622,0.82-1.138,0.82H20.8c-0.516,0-0.975-0.33-1.138-0.82l-0.4-1.2
		c-0.122-0.366-0.061-0.768,0.165-1.081c0.226-0.313,0.588-0.498,0.973-0.498h30.4c0.386,0,0.748,0.186,0.973,0.498
		c0.226,0.313,0.287,0.715,0.165,1.081L51.538,40.989z"/>
	<path fill="#FFFFFF" d="M19.446,40.343c0.227-0.297,0.579-0.473,0.954-0.473h30.4c0.375,0,0.727,0.176,0.954,0.473l0.185-0.554
		c0.122-0.366,0.061-0.768-0.165-1.081c-0.225-0.313-0.588-0.498-0.974-0.498H20.4c-0.386,0-0.748,0.186-0.973,0.498
		c-0.226,0.313-0.287,0.715-0.165,1.081L19.446,40.343z"/>
	<path fill="none" stroke="#45413C" stroke-linejoin="round" stroke-miterlimit="10" d="M51.538,40.989
		c-0.163,0.49-0.622,0.82-1.138,0.82H20.8c-0.516,0-0.975-0.33-1.138-0.82l-0.4-1.2c-0.122-0.366-0.061-0.768,0.165-1.081
		c0.226-0.313,0.588-0.498,0.973-0.498h30.4c0.386,0,0.748,0.186,0.973,0.498c0.226,0.313,0.287,0.715,0.165,1.081L51.538,40.989z"
		/>
	<path fill="#FFFFFF" stroke="#45413C" stroke-linejoin="round" stroke-miterlimit="10" d="M29.8,34.81
		c0-0.26-0.084-0.512-0.24-0.72l-0.6-0.8c-0.227-0.302-0.582-0.48-0.96-0.48s-0.733,0.178-0.96,0.48l-0.6,0.8
		c-0.156,0.208-0.24,0.46-0.24,0.72v38.2h3.6V34.81z"/>
	<ellipse opacity="0.15" fill="#45413C" cx="34" cy="75.11" rx="15.6" ry="1.5"/>
	<path fill="#6DD627" stroke="#45413C" stroke-linecap="round" stroke-linejoin="round" stroke-miterlimit="10" d="M38.2,71.994
		c0-1.223-0.992-2.215-2.215-2.215c-0.366,0-0.706,0.097-1.01,0.254c-0.466-1.019-1.488-1.731-2.682-1.731
		c-0.432,0-0.839,0.098-1.209,0.264c-0.723-1.464-2.216-2.48-3.96-2.48c-2.395,0-4.334,1.904-4.416,4.28
		c-0.394-0.361-0.915-0.587-1.492-0.587c-1.224,0-2.215,0.992-2.215,2.215c0,1.223,0.992,2.215,2.215,2.215h14.769
		C37.461,74.21,38.2,73.122,38.2,71.994z"/>
	
		<line fill="#FFFFFF" stroke="#45413C" stroke-linejoin="round" stroke-miterlimit="10" x1="35.8" y1="46.01" x2="35.8" y2="41.81"/>
	
		<line fill="#FFFFFF" stroke="#45413C" stroke-linejoin="round" stroke-miterlimit="10" x1="47.2" y1="46.01" x2="47.2" y2="41.81"/>
	
		<line fill="none" stroke="#FFFFFF" stroke-linecap="round" stroke-linejoin="round" stroke-miterlimit="10" x1="38.8" y1="52.01" x2="44.8" y2="52.01"/>
	
		<line fill="none" stroke="#FFFFFF" stroke-linecap="round" stroke-linejoin="round" stroke-miterlimit="10" x1="37" y1="55.01" x2="46.6" y2="55.01"/>
</g>
</svg>
