<?xml version="1.0" encoding="utf-8"?>
<!-- Generator: Adobe Illustrator 21.0.0, SVG Export Plug-In . SVG Version: 6.00 Build 0)  -->
<svg version="1.1" id="Layer_1" xmlns="http://www.w3.org/2000/svg" xmlns:xlink="http://www.w3.org/1999/xlink" x="0px" y="0px"
	 width="96px" height="96px" viewBox="0 0 96 96" enable-background="new 0 0 96 96" xml:space="preserve">
<circle fill="#CCFFF3" cx="47" cy="49" r="40"/>
<g>
	<path fill="#E8F4FA" stroke="#45413C" stroke-linecap="round" stroke-linejoin="round" stroke-miterlimit="10" d="M62.725,43.785
		h-2.694c-0.552,0-1,0.448-1,1v5.566h4.694v-5.566C63.725,44.233,63.277,43.785,62.725,43.785z"/>
	<path fill="#00F5BC" stroke="#45413C" stroke-linecap="round" stroke-linejoin="round" stroke-miterlimit="10" d="M38.659,17.047
		l-3.029,1.582l-0.934-3.258c-0.086-0.298-0.506-0.3-0.595-0.004l-0.971,3.237l-2.829-1.717c-0.255-0.155-0.56,0.104-0.449,0.381
		l1.441,3.587c0.507-1.111,1.623-1.877,2.913-1.877c1.344,0,2.493,0.836,2.967,2.024l1.903-3.532
		C39.221,17.2,38.93,16.906,38.659,17.047z"/>
	<polygon fill="#00AD85" stroke="#45413C" stroke-linecap="round" stroke-linejoin="round" stroke-miterlimit="10" points="
		25.345,15.715 21.405,15.715 22.005,20.41 24.745,20.41 	"/>
	<path fill="#00AD85" d="M43.733,33.977l-2.388-2.581c-0.401-0.433-0.863-0.776-1.364-1.013l-2.236-1.056h-5.302l-4.179,4.125
		v26.325h12.476v-15l4.911-5.039L43.733,33.977z"/>
	<polygon fill="#00DBA8" points="40.739,59.778 40.739,53.142 31.865,59.778 	"/>
	<path fill="none" stroke="#45413C" stroke-linecap="round" stroke-linejoin="round" stroke-miterlimit="10" d="M43.733,33.977
		l-2.388-2.581c-0.401-0.433-0.863-0.776-1.364-1.013l-2.236-1.056h-5.302l-4.179,4.125v26.325h12.476v-15l4.911-5.039
		L43.733,33.977z"/>
	<path fill="#E8F4FA" d="M43.305,43.135c-0.421,0.357-1.052,0.305-1.409-0.116l-3.234-3.813l6.841-5.802
		c0.421-0.357,1.052-0.305,1.41,0.116l2.587,3.05c0.357,0.421,0.305,1.052-0.116,1.41L43.305,43.135z"/>
	<path fill="#00F5BC" d="M43.305,43.135c-0.421,0.357-1.052,0.305-1.409-0.116l-3.234-3.813l6.841-5.802
		c0.421-0.357,1.052-0.305,1.41,0.116l2.587,3.051c0.357,0.421,0.305,1.052-0.116,1.41L43.305,43.135z"/>
	<path fill="#00DBA8" d="M44.662,41.985v-7.867l-6,5.089l3.234,3.813c0.357,0.421,0.988,0.473,1.409,0.116L44.662,41.985z"/>
	<path fill="none" stroke="#45413C" stroke-linecap="round" stroke-linejoin="round" stroke-miterlimit="10" d="M43.305,43.135
		c-0.421,0.357-1.052,0.305-1.409-0.116l-3.234-3.813l6.841-5.802c0.421-0.357,1.052-0.305,1.41,0.116l2.587,3.051
		c0.357,0.421,0.305,1.052-0.116,1.41L43.305,43.135z"/>
	<path fill="#00F5BC" d="M25.515,18.656c-0.088-0.474-0.501-0.817-0.983-0.817h-1.24c-1.484,0-2.687,1.203-2.687,2.687
		c0,1.096,0.659,2.036,1.6,2.454v4.69c0,1.349,0.536,2.644,1.49,3.598l5.11,5.11L25.515,18.656z"/>
	<path fill="#00DBA8" d="M23.695,31.267l5.11,5.11l-2.912-15.686c-0.24-0.17-0.552-0.281-0.912-0.281H23.45
		c-1.087,0-2.048,0.377-2.701,0.957c0.24,0.72,0.769,1.307,1.456,1.611v4.69C22.205,29.019,22.741,30.313,23.695,31.267z"/>
	<path fill="none" stroke="#45413C" stroke-linecap="round" stroke-linejoin="round" stroke-miterlimit="10" d="M25.515,18.656
		c-0.088-0.473-0.501-0.818-0.982-0.818h-1.241c-1.484,0-2.687,1.203-2.687,2.687c0,1.096,0.659,2.036,1.6,2.454v4.69
		c0,1.349,0.536,2.644,1.49,3.598l5.11,5.11C28.805,36.377,26.18,22.239,25.515,18.656z"/>
	<path fill="#E8F4FA" d="M37.805,29.327h-7.2l0.4-7.357c0.112-1.684,1.511-2.993,3.2-2.993l0,0c1.688,0,3.087,1.309,3.2,2.993
		L37.805,29.327z"/>
	<path fill="#00DBA8" d="M37.805,29.327h-7.2l0.4-7.357c0.112-1.684,1.511-2.993,3.2-2.993l0,0c1.688,0,3.087,1.309,3.2,2.993
		L37.805,29.327z"/>
	<path fill="#00F5BC" d="M34.949,27.283c-0.477,0.247-1.043,0.247-1.52,0c-1.569-0.816-2.449-2.428-2.484-4.197l-0.34,6.242h7.2
		l-0.34-6.243C37.43,24.854,36.519,26.467,34.949,27.283z"/>
	<path fill="#00F5BC" d="M34.205,20.322c1.533,0,2.834,1.026,3.243,2.444l-0.043-0.795c-0.112-1.684-1.511-2.993-3.199-2.993
		c-1.688,0-3.087,1.309-3.2,2.993l-0.043,0.795C31.371,21.348,32.672,20.322,34.205,20.322z"/>
	<path fill="none" stroke="#45413C" stroke-linecap="round" stroke-linejoin="round" stroke-miterlimit="10" d="M37.805,29.327h-7.2
		l0.4-7.357c0.112-1.684,1.511-2.993,3.2-2.993l0,0c1.688,0,3.087,1.309,3.2,2.993L37.805,29.327z"/>
	<path fill="#00F5BC" d="M27.605,24.977l-3.514,6.15c-0.455,0.796-0.534,1.754-0.216,2.614l3.949,7.936l9.981-12.35l-4.764-0.177
		c-1.051-0.007-2.051-0.453-2.758-1.23L27.605,24.977z"/>
	<path fill="#00DBA8" d="M35.846,31.474l-4.694,0.167c-1.051-0.006-2.051-0.453-2.758-1.23l-2.392-2.628l-1.911,3.345
		c-0.455,0.796-0.534,1.754-0.216,2.614l3.585,7.204L35.846,31.474z"/>
	<path fill="none" stroke="#45413C" stroke-linecap="round" stroke-linejoin="round" stroke-miterlimit="10" d="M27.605,24.977
		l-3.514,6.15c-0.455,0.796-0.534,1.754-0.216,2.614l3.585,7.204l10.345-11.618l-4.764-0.177c-1.051-0.007-2.051-0.453-2.758-1.23
		L27.605,24.977z"/>
	<path fill="none" stroke="#45413C" stroke-linecap="round" stroke-linejoin="round" stroke-miterlimit="10" d="M37.472,22.979
		c0,1.811-0.922,3.471-2.523,4.303l0,0c-0.477,0.248-1.043,0.248-1.52,0l0,0c-1.601-0.832-2.49-2.492-2.49-4.303"/>
	
		<line fill="none" stroke="#45413C" stroke-linecap="round" stroke-linejoin="round" stroke-miterlimit="10" x1="22.205" y1="22.979" x2="23.893" y2="22.979"/>
	<path fill="#FFF48C" d="M24.905,12.108c0.169-0.195,0.298-0.422,0.38-0.673l0.606-1.442l-1.163-0.36l0.425-2.788l-3.071,2.574
		l0.001,0.001c-0.373,0.357-0.608,0.856-0.608,1.413c0,1.081,0.876,1.957,1.958,1.957c0.578,0,1.092-0.255,1.45-0.653l0.005,0.005
		L24.905,12.108z"/>
	<path fill="#FFE500" d="M24.882,12.136l0.005,0.005l0.019-0.033c0.169-0.195,0.298-0.422,0.38-0.673l0.606-1.442l-1.163-0.36
		l0.068-0.446l-1.511,1.266l0.001,0.001c-0.373,0.357-0.608,0.856-0.608,1.413c0,0.299,0.072,0.579,0.192,0.832
		c0.179,0.054,0.365,0.092,0.562,0.092C24.009,12.79,24.523,12.534,24.882,12.136z"/>
	<path fill="none" stroke="#45413C" stroke-linecap="round" stroke-linejoin="round" stroke-miterlimit="10" d="M24.905,12.108
		c0.169-0.195,0.298-0.422,0.38-0.673l0.606-1.442l-1.163-0.36l0.425-2.788l-3.071,2.574l0.001,0.001
		c-0.373,0.357-0.608,0.856-0.608,1.413c0,1.081,0.876,1.957,1.958,1.957c0.578,0,1.092-0.255,1.45-0.653l0.005,0.005L24.905,12.108
		z"/>
	<path fill="#00F5BC" stroke="#45413C" stroke-linecap="round" stroke-linejoin="round" stroke-miterlimit="10" d="M48.45,40.962
		l-1.866,1.428c-0.658,0.504-1.6,0.378-2.103-0.28l0,0c-0.504-0.658-0.378-1.6,0.28-2.103l1.866-1.428
		c0.658-0.504,1.6-0.378,2.103,0.28l0,0C49.233,39.517,49.108,40.458,48.45,40.962z"/>
	<path fill="none" stroke="#45413C" stroke-linecap="round" stroke-linejoin="round" stroke-miterlimit="10" d="M31.006,22.545
		c0,0,1.475-1.118,3.2-1.118s3.172,0.887,3.172,0.887"/>
	
		<line fill="none" stroke="#45413C" stroke-linecap="round" stroke-linejoin="round" stroke-miterlimit="10" x1="29.544" y1="27.108" x2="26.668" y2="32.154"/>
	
		<line fill="none" stroke="#45413C" stroke-linecap="round" stroke-linejoin="round" stroke-miterlimit="10" x1="31.436" y1="28.779" x2="29.434" y2="32.292"/>
	
		<line fill="none" stroke="#45413C" stroke-linecap="round" stroke-linejoin="round" stroke-miterlimit="10" x1="26.668" y1="35.758" x2="25.832" y2="37.224"/>
	
		<line fill="none" stroke="#45413C" stroke-linecap="round" stroke-linejoin="round" stroke-miterlimit="10" x1="38.457" y1="59.778" x2="38.457" y2="53.929"/>
	
		<line fill="none" stroke="#45413C" stroke-linecap="round" stroke-linejoin="round" stroke-miterlimit="10" x1="34.155" y1="59.778" x2="34.155" y2="57.007"/>
	<path fill="#F7E5C6" stroke="#45413C" stroke-linecap="round" stroke-linejoin="round" stroke-miterlimit="10" d="M44.341,66.629
		H22.419v-5.852c0-0.552,0.448-1,1-1h19.923c0.552,0,1,0.448,1,1V66.629z"/>
	<path fill="#F7E5C6" stroke="#45413C" stroke-linecap="round" stroke-linejoin="round" stroke-miterlimit="10" d="M46.605,66.629
		h-26.45v-3.114c0-0.552,0.448-1,1-1h24.45c0.552,0,1,0.448,1,1V66.629z"/>
	<path fill="#87898C" stroke="#45413C" stroke-linecap="round" stroke-linejoin="round" stroke-miterlimit="10" d="M74.887,66.629
		H54.201v-3.114c0-0.552,0.448-1,1-1h18.686c0.552,0,1,0.448,1,1V66.629z"/>
	<g>
		<g>
			<path fill="#FFFFFF" d="M64.481,28.94c0-0.958-0.777-1.736-1.736-1.736c-0.221,0-0.43,0.045-0.625,0.121
				c-0.221-1.379-1.406-2.435-2.846-2.435s-2.626,1.056-2.846,2.435c-0.194-0.075-0.404-0.121-0.625-0.121
				c-0.958,0-1.736,0.777-1.736,1.736c0,0.958,0.777,1.736,1.736,1.736h6.942C63.704,30.675,64.481,29.898,64.481,28.94z"/>
			<path fill="#FFFFFF" d="M64.481,28.94c0-0.958-0.777-1.736-1.736-1.736c-0.221,0-0.43,0.045-0.625,0.121
				c-0.221-1.379-1.406-2.435-2.846-2.435s-2.626,1.056-2.846,2.435c-0.194-0.075-0.404-0.121-0.625-0.121
				c-0.958,0-1.736,0.777-1.736,1.736c0,0.958,0.777,1.736,1.736,1.736h6.942C63.704,30.675,64.481,29.898,64.481,28.94z"/>
		</g>
		<g>
			<path fill="none" stroke="#45413C" stroke-linejoin="round" stroke-miterlimit="10" d="M64.481,28.94
				c0-0.958-0.777-1.736-1.736-1.736c-0.221,0-0.43,0.045-0.625,0.121c-0.221-1.379-1.406-2.435-2.846-2.435
				s-2.626,1.056-2.846,2.435c-0.194-0.075-0.404-0.121-0.625-0.121c-0.958,0-1.736,0.777-1.736,1.736
				c0,0.958,0.777,1.736,1.736,1.736h6.942C63.704,30.675,64.481,29.898,64.481,28.94z"/>
			<path fill="none" stroke="#45413C" stroke-linejoin="round" stroke-miterlimit="10" d="M64.481,28.94
				c0-0.958-0.777-1.736-1.736-1.736c-0.221,0-0.43,0.045-0.625,0.121c-0.221-1.379-1.406-2.435-2.846-2.435
				s-2.626,1.056-2.846,2.435c-0.194-0.075-0.404-0.121-0.625-0.121c-0.958,0-1.736,0.777-1.736,1.736
				c0,0.958,0.777,1.736,1.736,1.736h6.942C63.704,30.675,64.481,29.898,64.481,28.94z"/>
		</g>
	</g>
	<path fill="#E8F4FA" stroke="#45413C" stroke-linecap="round" stroke-linejoin="round" stroke-miterlimit="10" d="M59.756,46.823
		h-1.45c-0.276,0-0.5,0.224-0.5,0.5v3.028h2.45v-3.028C60.256,47.047,60.032,46.823,59.756,46.823z"/>
	<path fill="#E8F4FA" stroke="#45413C" stroke-linecap="round" stroke-linejoin="round" stroke-miterlimit="10" d="M64.45,46.823H63
		c-0.276,0-0.5,0.224-0.5,0.5v3.028h2.45v-3.028C64.95,47.047,64.726,46.823,64.45,46.823z"/>
	<path fill="#E8F4FA" stroke="#45413C" stroke-linecap="round" stroke-linejoin="round" stroke-miterlimit="10" d="M64.605,50.351
		h-6.436c-0.552,0-1,0.448-1,1v11.164h8.436V51.351C65.605,50.799,65.157,50.351,64.605,50.351z"/>
	<path fill="#80DDFF" stroke="#45413C" stroke-linecap="round" stroke-linejoin="round" stroke-miterlimit="10" d="M73.313,62.515
		h-5.93l0.56-13.253c0.023-0.535,0.463-0.958,0.999-0.958h2.812c0.536,0,0.976,0.422,0.999,0.958L73.313,62.515z"/>
	<path fill="#00F5BC" d="M37.745,29.327l-9.86,11.149c-0.394,0.445-0.608,1.073-0.588,1.723l-0.414,16.833
		c-0.015,0.531,0.447,0.888,0.842,0.651l11.132-8.746c1.463-0.912,2.381-2.728,2.381-4.709v-8.546c0-0.969-0.044-1.937-0.132-2.9
		l-0.32-3.52c-0.029-0.32-0.203-0.593-0.452-0.711L37.745,29.327z"/>
	<path fill="#00DBA8" d="M41.238,37.682c0-0.647-0.027-1.293-0.066-1.938l-0.083-0.704c-0.057-0.485-0.4-0.901-0.889-1.079
		l-4.955-1.807l-7.36,8.323c-0.394,0.445-0.608,1.073-0.588,1.723l-0.414,16.833c-0.015,0.531,0.447,0.888,0.842,0.651l11.132-8.746
		c1.463-0.912,2.381-2.728,2.381-4.709V37.682z"/>
	<path fill="none" stroke="#45413C" stroke-linecap="round" stroke-linejoin="round" stroke-miterlimit="10" d="M26.859,47.034
		c-0.058-0.665,0.147-1.324,0.555-1.779l6.339-7.077"/>
	<path fill="none" stroke="#45413C" stroke-linecap="round" stroke-linejoin="round" stroke-miterlimit="10" d="M41.106,34.782
		l-0.32-3.52c-0.029-0.32-0.203-0.594-0.452-0.712l-2.589-1.223l-9.86,11.149c-0.394,0.445-0.608,1.073-0.588,1.723L27.2,45.557
		c-0.259,0.422-0.388,0.945-0.341,1.477L26.85,59.076c0,0.521,0.455,0.86,0.842,0.627l11.164-8.766
		c1.463-0.912,2.381-2.728,2.381-4.709v-8.544C41.238,36.714,41.194,35.746,41.106,34.782z"/>
	
		<line fill="none" stroke="#45413C" stroke-linecap="round" stroke-linejoin="round" stroke-miterlimit="10" x1="36.872" y1="34.061" x2="40.042" y2="30.522"/>
	
		<line fill="none" stroke="#45413C" stroke-linecap="round" stroke-linejoin="round" stroke-miterlimit="10" x1="29.864" y1="48.057" x2="35.064" y2="42.605"/>
	<path fill="none" stroke="#45413C" stroke-linecap="round" stroke-linejoin="round" stroke-miterlimit="10" d="M36.148,53.038
		c1.463-0.912,2.381-2.728,2.381-4.709V36.803"/>
	
		<line fill="none" stroke="#45413C" stroke-linecap="round" stroke-linejoin="round" stroke-miterlimit="10" x1="28.935" y1="54.917" x2="32.868" y2="51.452"/>
	<polygon fill="#F0F0F0" stroke="#45413C" stroke-linecap="round" stroke-linejoin="round" stroke-miterlimit="10" points="
		60.25,43.785 61.387,37.652 62.525,43.785 	"/>
	
		<line fill="none" stroke="#45413C" stroke-linecap="round" stroke-linejoin="round" stroke-miterlimit="10" x1="61.378" y1="50.351" x2="61.378" y2="59.065"/>
	
		<line fill="none" stroke="#45413C" stroke-linecap="round" stroke-linejoin="round" stroke-miterlimit="10" x1="61.387" y1="37.652" x2="61.387" y2="35.577"/>
	
		<line fill="none" stroke="#45413C" stroke-linecap="round" stroke-linejoin="round" stroke-miterlimit="10" x1="57.169" y1="52.927" x2="58.947" y2="52.927"/>
	
		<line fill="none" stroke="#45413C" stroke-linecap="round" stroke-linejoin="round" stroke-miterlimit="10" x1="57.169" y1="55.527" x2="58.947" y2="55.527"/>
	
		<line fill="none" stroke="#45413C" stroke-linecap="round" stroke-linejoin="round" stroke-miterlimit="10" x1="63.827" y1="52.927" x2="65.605" y2="52.927"/>
	
		<line fill="none" stroke="#45413C" stroke-linecap="round" stroke-linejoin="round" stroke-miterlimit="10" x1="63.827" y1="55.527" x2="65.605" y2="55.527"/>
	<polyline fill="none" stroke="#45413C" stroke-linecap="round" stroke-linejoin="round" stroke-miterlimit="10" points="
		68.069,48.82 70.348,62.515 72.627,48.82 	"/>
	<path fill="#DAEDF7" stroke="#45413C" stroke-linecap="round" stroke-linejoin="round" stroke-miterlimit="10" d="M71.062,46.127
		h-1.525c-0.552,0-1,0.448-1,1v1.177h3.525v-1.177C72.062,46.575,71.615,46.127,71.062,46.127z"/>
	
		<line fill="none" stroke="#45413C" stroke-linecap="round" stroke-linejoin="round" stroke-miterlimit="10" x1="70.3" y1="46.127" x2="70.3" y2="43.09"/>
	<path fill="#E8F4FA" stroke="#45413C" stroke-linecap="round" stroke-linejoin="round" stroke-miterlimit="10" d="M66.324,57.98
		h-1.438c-0.552,0-1,0.448-1,1v3.535h3.438V58.98C67.324,58.428,66.876,57.98,66.324,57.98z"/>
	<path fill="#E8F4FA" stroke="#45413C" stroke-linecap="round" stroke-linejoin="round" stroke-miterlimit="10" d="M57.888,57.98
		H56.45c-0.552,0-1,0.448-1,1v3.535h3.438V58.98C58.888,58.428,58.44,57.98,57.888,57.98z"/>
	<path fill="#00F5BC" stroke="#45413C" stroke-linecap="round" stroke-linejoin="round" stroke-miterlimit="10" d="M27.35,14.295
		c0,0.784-0.635,1.42-1.42,1.42H20.82c-0.784,0-1.42-0.635-1.42-1.42V13.79c0-0.552,0.448-1,1-1h5.95c0.552,0,1,0.448,1,1V14.295z"
		/>
	<g>
		<path fill="#00DFEB" d="M76.135,65.069c-2.439,0-2.439,1.56-4.879,1.56c-2.437,0-2.437-1.56-4.875-1.56
			c-2.437,0-2.437,1.56-4.874,1.56c-2.438,0-2.438-1.56-4.875-1.56c-2.438,0-2.438,1.56-4.875,1.56c-2.438,0-2.438-1.56-4.875-1.56
			c-2.437,0-2.437,1.56-4.873,1.56c-2.436,0-2.436-1.56-4.871-1.56c-2.437,0-2.437,1.56-4.874,1.56c-2.434,0-2.434-1.56-4.869-1.56
			c-2.437,0-2.437,1.56-4.874,1.56c-2.437,0-2.437-1.56-4.875-1.56c-2.437,0-2.437,1.56-4.874,1.56
			c-0.948,0-1.527-0.237-2.024-0.526c6.418,13.52,20.191,22.871,36.152,22.871c15.963,0,29.737-9.353,36.154-22.875
			c-0.5,0.291-1.081,0.531-2.036,0.531C78.577,66.63,78.577,65.069,76.135,65.069z"/>
		<path fill="#4AEFF7" d="M12.773,69.55c2.437,0,2.437-1.56,4.874-1.56s2.437,1.56,4.874,1.56c2.437,0,2.437-1.56,4.874-1.56
			c2.435,0,2.435,1.56,4.869,1.56c2.437,0,2.437-1.56,4.873-1.56c2.436,0,2.436,1.56,4.871,1.56c2.437,0,2.437-1.56,4.873-1.56
			c2.438,0,2.438,1.56,4.875,1.56c2.438,0,2.438-1.56,4.875-1.56c2.438,0,2.438,1.56,4.875,1.56c2.437,0,2.437-1.56,4.874-1.56
			c2.438,0,2.438,1.56,4.875,1.56c2.439,0,2.439-1.56,4.879-1.56c2.441,0,2.441,1.56,4.882,1.56c0.064,0,0.126-0.001,0.187-0.003
			c0.67-1.115,1.288-2.266,1.849-3.448c-0.501,0.291-1.081,0.531-2.036,0.531c-2.441,0-2.441-1.56-4.882-1.56
			c-2.439,0-2.439,1.56-4.879,1.56c-2.437,0-2.437-1.56-4.875-1.56c-2.437,0-2.437,1.56-4.874,1.56c-2.438,0-2.438-1.56-4.875-1.56
			c-2.438,0-2.438,1.56-4.875,1.56c-2.438,0-2.438-1.56-4.875-1.56c-2.437,0-2.437,1.56-4.873,1.56c-2.436,0-2.436-1.56-4.871-1.56
			c-2.437,0-2.437,1.56-4.873,1.56c-2.435,0-2.435-1.56-4.869-1.56c-2.437,0-2.437,1.56-4.874,1.56c-2.438,0-2.438-1.56-4.874-1.56
			s-2.437,1.56-4.874,1.56c-0.948,0-1.527-0.237-2.024-0.526c0.561,1.181,1.177,2.33,1.847,3.444
			C12.653,69.549,12.712,69.55,12.773,69.55z"/>
		<path fill="none" stroke="#45413C" stroke-linecap="round" stroke-linejoin="round" stroke-miterlimit="10" d="M7.9,65.069
			c2.436,0,2.436,1.56,4.872,1.56c2.437,0,2.437-1.56,4.874-1.56c2.437,0,2.437,1.56,4.875,1.56c2.437,0,2.437-1.56,4.874-1.56
			c2.435,0,2.435,1.56,4.869,1.56c2.437,0,2.437-1.56,4.874-1.56c2.435,0,2.435,1.56,4.871,1.56c2.437,0,2.437-1.56,4.873-1.56
			c2.438,0,2.438,1.56,4.875,1.56c2.438,0,2.438-1.56,4.875-1.56c2.438,0,2.438,1.56,4.875,1.56c2.437,0,2.437-1.56,4.874-1.56
			c2.437,0,2.437,1.56,4.875,1.56c2.439,0,2.439-1.56,4.879-1.56c2.441,0,2.441,1.56,4.882,1.56c2.441,0,2.441-1.56,4.882-1.56"/>
		<g>
			<path fill="none" stroke="#A6FBFF" stroke-linecap="round" stroke-linejoin="round" stroke-miterlimit="10" d="M21.559,72.534
				c2.437,0,2.437-1.56,4.874-1.56c2.437,0,2.437,1.56,4.875,1.56c2.437,0,2.437-1.56,4.874-1.56c2.435,0,2.435,1.56,4.869,1.56
				c2.437,0,2.437-1.56,4.874-1.56c2.435,0,2.435,1.56,4.871,1.56"/>
			<path fill="none" stroke="#A6FBFF" stroke-linecap="round" stroke-linejoin="round" stroke-miterlimit="10" d="M36.069,81.707
				c2.437,0,2.437-1.56,4.874-1.56c2.435,0,2.435,1.56,4.869,1.56c2.437,0,2.437-1.56,4.874-1.56c2.435,0,2.435,1.56,4.871,1.56"/>
			<path fill="none" stroke="#A6FBFF" stroke-linecap="round" stroke-linejoin="round" stroke-miterlimit="10" d="M71.683,74.96
				c-2.434,0-2.434,1.56-4.869,1.56c-2.437,0-2.437-1.56-4.874-1.56c-2.435,0-2.435,1.56-4.871,1.56"/>
		</g>
	</g>
</g>
</svg>
