<?xml version="1.0" encoding="utf-8"?>
<!-- Generator: Adobe Illustrator 21.0.0, SVG Export Plug-In . SVG Version: 6.00 Build 0)  -->
<svg version="1.1" id="Layer_1" xmlns="http://www.w3.org/2000/svg" xmlns:xlink="http://www.w3.org/1999/xlink" x="0px" y="0px"
	 width="96px" height="96px" viewBox="0 0 96 96" enable-background="new 0 0 96 96" xml:space="preserve">
<circle fill="#BDFBFC" cx="49.191" cy="49.01" r="40"/>
<g>
	<g>
		<g>
			<path fill="#FFFFFF" d="M78.212,46.083c-0.23,0-0.448,0.047-0.651,0.126c-0.23-1.436-1.464-2.536-2.965-2.536
				c-1.501,0-2.735,1.1-2.965,2.536c-0.202-0.079-0.421-0.126-0.651-0.126c-0.998,0-1.808,0.81-1.808,1.808
				c0,0.998,0.81,1.808,1.808,1.808h7.231c0.998,0,1.808-0.809,1.808-1.808C80.02,46.892,79.21,46.083,78.212,46.083z"/>
			<path fill="#FFFFFF" d="M78.212,46.083c-0.23,0-0.448,0.047-0.651,0.126c-0.23-1.436-1.464-2.536-2.965-2.536
				c-1.501,0-2.735,1.1-2.965,2.536c-0.202-0.079-0.421-0.126-0.651-0.126c-0.998,0-1.808,0.81-1.808,1.808
				c0,0.998,0.81,1.808,1.808,1.808h7.231c0.998,0,1.808-0.809,1.808-1.808C80.02,46.892,79.21,46.083,78.212,46.083z"/>
		</g>
		<g>
			<path fill="none" stroke="#45413C" stroke-linejoin="round" stroke-miterlimit="10" d="M78.212,46.083
				c-0.23,0-0.448,0.047-0.651,0.126c-0.23-1.436-1.464-2.536-2.965-2.536c-1.501,0-2.735,1.1-2.965,2.536
				c-0.202-0.079-0.421-0.126-0.651-0.126c-0.998,0-1.808,0.81-1.808,1.808c0,0.998,0.81,1.808,1.808,1.808h7.231
				c0.998,0,1.808-0.809,1.808-1.808C80.02,46.892,79.21,46.083,78.212,46.083z"/>
			<path fill="none" stroke="#45413C" stroke-linejoin="round" stroke-miterlimit="10" d="M78.212,46.083
				c-0.23,0-0.448,0.047-0.651,0.126c-0.23-1.436-1.464-2.536-2.965-2.536c-1.501,0-2.735,1.1-2.965,2.536
				c-0.202-0.079-0.421-0.126-0.651-0.126c-0.998,0-1.808,0.81-1.808,1.808c0,0.998,0.81,1.808,1.808,1.808h7.231
				c0.998,0,1.808-0.809,1.808-1.808C80.02,46.892,79.21,46.083,78.212,46.083z"/>
		</g>
	</g>
	<g>
		<g>
			<path fill="#FFFFFF" d="M28.822,32.212c-0.191,0-0.372,0.039-0.54,0.104c-0.191-1.193-1.216-2.106-2.462-2.106
				c-1.246,0-2.271,0.914-2.462,2.106c-0.168-0.065-0.349-0.104-0.54-0.104c-0.829,0-1.501,0.672-1.501,1.501
				c0,0.829,0.672,1.501,1.501,1.501h6.006c0.829,0,1.501-0.672,1.501-1.501C30.324,32.884,29.652,32.212,28.822,32.212z"/>
			<path fill="#FFFFFF" d="M28.822,32.212c-0.191,0-0.372,0.039-0.54,0.104c-0.191-1.193-1.216-2.106-2.462-2.106
				c-1.246,0-2.271,0.914-2.462,2.106c-0.168-0.065-0.349-0.104-0.54-0.104c-0.829,0-1.501,0.672-1.501,1.501
				c0,0.829,0.672,1.501,1.501,1.501h6.006c0.829,0,1.501-0.672,1.501-1.501C30.324,32.884,29.652,32.212,28.822,32.212z"/>
		</g>
		<g>
			<path fill="none" stroke="#45413C" stroke-linejoin="round" stroke-miterlimit="10" d="M28.822,32.212
				c-0.191,0-0.372,0.039-0.54,0.104c-0.191-1.193-1.216-2.106-2.462-2.106c-1.246,0-2.271,0.914-2.462,2.106
				c-0.168-0.065-0.349-0.104-0.54-0.104c-0.829,0-1.501,0.672-1.501,1.501c0,0.829,0.672,1.501,1.501,1.501h6.006
				c0.829,0,1.501-0.672,1.501-1.501C30.324,32.884,29.652,32.212,28.822,32.212z"/>
			<path fill="none" stroke="#45413C" stroke-linejoin="round" stroke-miterlimit="10" d="M28.822,32.212
				c-0.191,0-0.372,0.039-0.54,0.104c-0.191-1.193-1.216-2.106-2.462-2.106c-1.246,0-2.271,0.914-2.462,2.106
				c-0.168-0.065-0.349-0.104-0.54-0.104c-0.829,0-1.501,0.672-1.501,1.501c0,0.829,0.672,1.501,1.501,1.501h6.006
				c0.829,0,1.501-0.672,1.501-1.501C30.324,32.884,29.652,32.212,28.822,32.212z"/>
		</g>
	</g>
	<path fill="#4ACFFF" d="M58.738,85.718H39.651l2.537-50.738c0.037-0.739,0.647-1.319,1.386-1.319h11.241
		c0.74,0,1.35,0.58,1.387,1.319L58.738,85.718z"/>
	<path fill="#80DDFF" d="M43.574,33.661c-0.74,0-1.35,0.58-1.386,1.319L39.91,80.523l16.811-35.154l-0.519-10.39
		c-0.037-0.739-0.647-1.319-1.387-1.319H43.574z"/>
	<path fill="none" stroke="#45413C" stroke-linecap="round" stroke-linejoin="round" stroke-miterlimit="10" d="M58.738,85.718
		H39.651l2.537-50.738c0.037-0.739,0.647-1.319,1.386-1.319h11.241c0.74,0,1.35,0.58,1.387,1.319L58.738,85.718z"/>
	<polygon fill="#009FD9" points="43.989,33.661 49.194,85.718 54.4,33.661 	"/>
	<polygon fill="#4ACFFF" points="46.774,61.512 53.047,47.19 54.4,33.661 43.989,33.661 	"/>
	<polygon fill="none" stroke="#45413C" stroke-linecap="round" stroke-linejoin="round" stroke-miterlimit="10" points="
		43.989,33.661 49.194,85.718 54.4,33.661 	"/>
	<path fill="#ADC4D9" stroke="#45413C" stroke-linecap="round" stroke-linejoin="round" stroke-miterlimit="10" d="M53.952,31.661
		h-9.515c-0.552,0-1-0.448-1-1l0,0c0-0.552,0.448-1,1-1h9.515c0.552,0,1,0.448,1,1l0,0C54.952,31.213,54.504,31.661,53.952,31.661z"
		/>
	<path fill="#ADC4D9" stroke="#45413C" stroke-linecap="round" stroke-linejoin="round" stroke-miterlimit="10" d="M53.952,33.661
		h-9.515c-0.552,0-1-0.448-1-1l0,0c0-0.552,0.448-1,1-1h9.515c0.552,0,1,0.448,1,1l0,0C54.952,33.213,54.504,33.661,53.952,33.661z"
		/>
	
		<line fill="none" stroke="#45413C" stroke-linecap="round" stroke-linejoin="round" stroke-miterlimit="10" x1="49.194" y1="27.661" x2="49.194" y2="10.309"/>
	<path fill="#ADC4D9" d="M39.651,87.845C42.71,88.594,45.904,89,49.194,89s6.485-0.406,9.544-1.155v-2.127H39.651V87.845z"/>
	<polyline fill="none" stroke="#45413C" stroke-linecap="round" stroke-linejoin="round" stroke-miterlimit="10" points="
		58.738,87.595 58.738,85.718 39.651,85.718 39.651,87.595 	"/>
	<path fill="#BDBEC0" stroke="#45413C" stroke-linecap="round" stroke-linejoin="round" stroke-miterlimit="10" d="M53.952,28.661
		c0-0.552-0.448-1-1-1h-7.515c-0.552,0-1,0.448-1,1v1h9.515V28.661z"/>
	<polygon fill="#BDBEC0" stroke="#45413C" stroke-linecap="round" stroke-linejoin="round" stroke-miterlimit="10" points="
		48.087,27.661 48.087,25.848 48.715,24.364 49.674,24.364 50.302,25.848 50.302,27.661 	"/>
	<polyline fill="none" stroke="#45413C" stroke-linecap="round" stroke-linejoin="round" stroke-miterlimit="10" points="
		52.952,27.661 49.674,17.838 48.715,17.838 45.437,27.661 	"/>
	
		<line fill="none" stroke="#45413C" stroke-linecap="round" stroke-linejoin="round" stroke-miterlimit="10" x1="48.087" y1="17.838" x2="50.295" y2="17.838"/>
	
		<line fill="none" stroke="#45413C" stroke-linecap="round" stroke-linejoin="round" stroke-miterlimit="10" x1="49.194" y1="40.655" x2="49.194" y2="44.822"/>
	
		<line fill="none" stroke="#45413C" stroke-linecap="round" stroke-linejoin="round" stroke-miterlimit="10" x1="50.819" y1="40.655" x2="50.819" y2="44.822"/>
	
		<line fill="none" stroke="#45413C" stroke-linecap="round" stroke-linejoin="round" stroke-miterlimit="10" x1="47.569" y1="40.655" x2="47.569" y2="44.822"/>
</g>
</svg>
