<?xml version="1.0" encoding="utf-8"?>
<!-- Generator: Adobe Illustrator 21.0.0, SVG Export Plug-In . SVG Version: 6.00 Build 0)  -->
<svg version="1.1" id="Layer_1" xmlns="http://www.w3.org/2000/svg" xmlns:xlink="http://www.w3.org/1999/xlink" x="0px" y="0px"
	 width="96px" height="96px" viewBox="0 0 96 96" enable-background="new 0 0 96 96" xml:space="preserve">
<g>
	<g>
		<path fill="#BDFBFC" d="M87.7,48c0-22.091-17.909-40-40-40s-40,17.909-40,40c0,5.885,1.281,11.468,3.564,16.5h72.872
			C86.419,59.468,87.7,53.885,87.7,48z"/>
		<path fill="#FCEFD9" d="M11.264,64.5C17.549,78.357,31.494,88,47.7,88s30.151-9.643,36.436-23.5H11.264z"/>
		<path fill="#FFF5E3" d="M82.307,68c0.659-1.137,1.282-2.296,1.829-3.5H11.264c0.546,1.204,1.17,2.363,1.829,3.5H82.307z"/>
	</g>
	<g>
		
			<line fill="none" stroke="#45413C" stroke-linecap="round" stroke-linejoin="round" stroke-miterlimit="10" x1="8.7" y1="64.5" x2="86.7" y2="64.5"/>
		
			<line fill="none" stroke="#45413C" stroke-linecap="round" stroke-linejoin="round" stroke-miterlimit="10" x1="4.2" y1="64.5" x2="6.7" y2="64.5"/>
		
			<line fill="none" stroke="#45413C" stroke-linecap="round" stroke-linejoin="round" stroke-miterlimit="10" x1="88.7" y1="64.5" x2="91.2" y2="64.5"/>
	</g>
</g>
<g>
	<ellipse opacity="0.15" fill="#45413C" cx="37.999" cy="79.5" rx="10" ry="1.5"/>
	<g>
		<g>
			<path fill="#656769" stroke="#45413C" stroke-linecap="round" stroke-linejoin="round" stroke-miterlimit="10" d="M53.218,57.395
				c0.25,0.278,0.631,0.399,0.995,0.317c0.708-0.16,1.522-0.3,2.417-0.418l-0.562,10.341c-0.037,0.687,0.51,1.265,1.198,1.265h8.266
				c0.688,0,1.236-0.578,1.198-1.265l-0.562-10.341c0.895,0.118,1.709,0.258,2.417,0.418c0.364,0.082,0.746-0.039,0.995-0.317
				c0.144-0.16,0.219-0.326,0.219-0.496c0-0.75-1.464-1.419-3.754-1.859c-1.757-0.338-2.2-0.541-4.646-0.541
				c-2.446,0-2.889,0.203-4.646,0.541c-2.29,0.44-3.754,1.109-3.754,1.859C52.999,57.07,53.075,57.235,53.218,57.395z"/>
			<path fill="#FF6242" stroke="#45413C" stroke-linecap="round" stroke-linejoin="round" stroke-miterlimit="10" d="M66.168,57.294
				c-0.718-0.126-1.784-0.394-4.769-0.394c-2.985,0-4.05,0.268-4.769,0.394L56.521,59.3h9.756L66.168,57.294z"/>
		</g>
		<g>
			<path fill="#FFFFFF" stroke="#45413C" stroke-linecap="round" stroke-linejoin="round" stroke-miterlimit="10" d="M59.975,43.228
				c-0.301-0.948-1.313-1.472-2.26-1.171c-0.948,0.301-1.472,1.312-1.171,2.26l2.568,6.109l2.288-0.726L59.975,43.228z"/>
			<path fill="#FFFFFF" stroke="#45413C" stroke-linecap="round" stroke-linejoin="round" stroke-miterlimit="10" d="M62.823,43.228
				c0.301-0.948,1.312-1.472,2.26-1.171c0.948,0.301,1.472,1.312,1.171,2.26l-2.568,6.109L61.399,49.7L62.823,43.228z"/>
			
				<circle fill="#FFFFFF" stroke="#45413C" stroke-linecap="round" stroke-linejoin="round" stroke-miterlimit="10" cx="61.399" cy="50.9" r="3.6"/>
			<g>
				<path fill="#45413C" d="M61.399,51.5c-0.331,0-0.6,0.269-0.6,0.6s0.269,0.6,0.6,0.6c0.331,0,0.6-0.269,0.6-0.6
					S61.73,51.5,61.399,51.5L61.399,51.5z"/>
			</g>
		</g>
	</g>
	<path fill="#FF6242" d="M41.599,42.5L52.44,68.747c0.264,0.64-0.19,1.334-0.882,1.379c-7.037,0.46-4.809,5.749-13.56,5.373
		c-8.751,0.376-6.523-4.913-13.56-5.373c-0.691-0.045-1.146-0.739-0.882-1.379L34.399,42.5H41.599z"/>
	<path fill="#E04122" d="M34.399,42.5l-5.846,14.154c0.504,0.778,1.133,1.478,1.878,2.06c0.229,0.179,0.379,0.438,0.397,0.728
		l0.927,14.669c1.259,0.886,2.993,1.53,6.244,1.39c3.252,0.14,4.986-0.504,6.244-1.39l0.854-13.518
		c0.044-0.696,0.767-1.15,1.403-0.863c0.778,0.352,1.62,0.587,2.501,0.692L41.599,42.5H34.399z"/>
	<path fill="none" stroke="#45413C" stroke-linecap="round" stroke-linejoin="round" stroke-miterlimit="10" d="M41.599,42.5
		L52.44,68.747c0.264,0.64-0.19,1.334-0.882,1.379c-7.037,0.46-4.809,5.749-13.56,5.373c-8.751,0.376-6.523-4.913-13.56-5.373
		c-0.691-0.045-1.146-0.739-0.882-1.379L34.399,42.5H41.599z"/>
	<polygon fill="#656769" points="32.599,58.7 33.799,77.9 42.199,77.9 43.399,58.7 	"/>
	<polygon fill="#525252" points="42.911,66.5 43.399,58.7 32.599,58.7 33.086,66.5 	"/>
	
		<line fill="none" stroke="#45413C" stroke-linecap="round" stroke-linejoin="round" stroke-miterlimit="10" x1="37.999" y1="58.7" x2="37.999" y2="77.9"/>
	<polygon fill="none" stroke="#45413C" stroke-linecap="round" stroke-linejoin="round" stroke-miterlimit="10" points="
		32.599,58.7 33.799,77.9 42.199,77.9 43.399,58.7 	"/>
	<path fill="#525252" stroke="#45413C" stroke-linecap="round" stroke-linejoin="round" stroke-miterlimit="10" d="M33.866,78.5
		c-0.357,0-0.687-0.191-0.866-0.5c-0.179-0.309-0.179-0.691,0-1c0.519-0.897,1.488-1.5,2.599-1.5c1.326,0,2.4,1.075,2.4,2.4v0.6
		H33.866z"/>
	<path fill="#525252" stroke="#45413C" stroke-linecap="round" stroke-linejoin="round" stroke-miterlimit="10" d="M42.131,78.5
		c0.357,0,0.687-0.191,0.866-0.5c0.179-0.309,0.179-0.691,0-1c-0.519-0.897-1.488-1.5-2.599-1.5c-1.326,0-2.4,1.075-2.4,2.4v0.6
		H42.131z"/>
	<path fill="#656769" d="M49.999,55.1c-1.655,0-3-1.346-3-3v-1.8c0-4.97-4.03-9-9-9c-4.971,0-9,4.03-9,9v1.8
		c0,2.558,1.466,4.777,3.6,5.871V63.5h10.8V52.1c0,3.639,2.961,6.6,6.6,6.6h1.8v-3.6H49.999z"/>
	<path fill="#87898C" d="M37.999,41.3c-4.971,0-9,4.029-9,9v1.8h0.045c0.452-4.548,4.288-8.1,8.955-8.1s8.503,3.552,8.955,8.1h0.045
		v-1.8C46.999,45.329,42.97,41.3,37.999,41.3z"/>
	<path fill="none" stroke="#45413C" stroke-linecap="round" stroke-linejoin="round" stroke-miterlimit="10" d="M49.999,55.1
		c-1.655,0-3-1.346-3-3v-1.8c0-4.97-4.03-9-9-9c-4.971,0-9,4.03-9,9v1.8c0,2.558,1.466,4.777,3.6,5.871V63.5h10.8V52.1
		c0,3.639,2.961,6.6,6.6,6.6h1.8v-3.6H49.999z"/>
	<path fill="#FFFFFF" stroke="#45413C" stroke-linecap="round" stroke-linejoin="round" stroke-miterlimit="10" d="M37.999,41.3
		c-1.434,0-2.785,0.344-3.988,0.941L37.507,55.1h0.492v1.8h0.002l3.986-14.659C40.784,41.644,39.433,41.3,37.999,41.3z"/>
	
		<line fill="none" stroke="#45413C" stroke-linecap="round" stroke-linejoin="round" stroke-miterlimit="10" x1="37.999" y1="41.3" x2="37.999" y2="63.5"/>
	<path fill="none" stroke="#45413C" stroke-linecap="round" stroke-linejoin="round" stroke-miterlimit="10" d="M33.196,49.364
		L36.85,55.1h0.657l-3.496-12.859c-1.067,0.529-2.013,1.261-2.788,2.149l1.974,1.974V49.364z"/>
	<path fill="none" stroke="#45413C" stroke-linecap="round" stroke-linejoin="round" stroke-miterlimit="10" d="M44.775,44.39
		l-1.974,1.974v3l-4.8,7.536l3.986-14.659C43.054,42.77,44,43.501,44.775,44.39z"/>
	<path fill="none" stroke="#45413C" stroke-linecap="round" stroke-linejoin="round" stroke-miterlimit="10" d="M32.599,57.971
		c0.901,0.462,1.919,0.729,3,0.729h2.4v-3.6h-2.4c-1.654,0-3-1.346-3-3l-0.001-0.6"/>
	<path fill="#FFFFFF" stroke="#45413C" stroke-linecap="round" stroke-linejoin="round" stroke-miterlimit="10" d="M39.799,58.7
		c0.994,0,1.8-0.806,1.8-1.8c0-0.994-0.806-1.8-1.8-1.8h-1.8v3.6H39.799z"/>
	
		<line fill="#656769" stroke="#45413C" stroke-linecap="round" stroke-linejoin="round" stroke-miterlimit="10" x1="43.399" y1="52.1" x2="43.399" y2="51.5"/>
	<path fill="#FFFFFF" stroke="#45413C" stroke-linecap="round" stroke-linejoin="round" stroke-miterlimit="10" d="M53.599,58.7
		c0.994,0,1.8-0.806,1.8-1.8c0-0.994-0.806-1.8-1.8-1.8h-1.8v3.6H53.599z"/>
	<path fill="#FF6242" stroke="#45413C" stroke-linejoin="round" stroke-miterlimit="10" d="M37.999,42.5L37.416,42
		c-0.68-0.583-1.486-0.994-2.418-1.183c-0.294-0.06-0.6,0.016-0.832,0.206c-0.232,0.19-0.367,0.475-0.367,0.775v1.404
		c0,0.3,0.135,0.584,0.367,0.774c0.232,0.19,0.538,0.267,0.832,0.207c0.932-0.189,1.738-0.6,2.418-1.183L37.999,42.5z"/>
	<path fill="#FF6242" stroke="#45413C" stroke-linejoin="round" stroke-miterlimit="10" d="M37.999,42.5l0.583-0.5
		c0.68-0.583,1.486-0.994,2.418-1.183c0.294-0.06,0.6,0.016,0.832,0.206c0.232,0.19,0.367,0.475,0.367,0.775v1.404
		c0,0.3-0.135,0.584-0.367,0.774c-0.232,0.19-0.538,0.267-0.832,0.207c-0.932-0.189-1.738-0.6-2.418-1.183L37.999,42.5z"/>
	<circle fill="#FF6242" stroke="#45413C" stroke-linejoin="round" stroke-miterlimit="10" cx="37.999" cy="42.5" r="1.2"/>
	<g>
		<g>
			<path fill="#614B44" d="M46.711,31.618c0.57-0.337,0.623-1.304,0.117-2.16c-0.241-0.408-0.567-0.713-0.902-0.889
				c0.332-0.057,0.613-0.201,0.753-0.461c0.316-0.582-0.135-1.439-1.009-1.914c-0.574-0.312-1.171-0.358-1.613-0.204
				c-0.084-0.103-0.174-0.2-0.263-0.298c0.402-0.153,0.69-0.424,0.751-0.775c0.114-0.653-0.588-1.321-1.567-1.491
				c-0.706-0.123-1.358,0.049-1.713,0.397c-0.008-0.004-0.016-0.008-0.024-0.012c0.222-0.2,0.358-0.444,0.358-0.712
				c0-0.663-0.806-1.2-1.8-1.2c-0.994,0-1.8,0.537-1.8,1.2c0-0.663-0.806-1.2-1.8-1.2c-0.994,0-1.8,0.537-1.8,1.2
				c0,0.268,0.136,0.512,0.358,0.712c-0.008,0.004-0.016,0.008-0.024,0.012c-0.355-0.348-1.007-0.52-1.713-0.397
				c-0.979,0.171-1.681,0.838-1.567,1.491c0.061,0.351,0.349,0.622,0.751,0.775c-0.089,0.099-0.179,0.195-0.263,0.298
				c-0.443-0.154-1.04-0.108-1.613,0.204c-0.874,0.475-1.325,1.332-1.009,1.914c0.141,0.259,0.421,0.403,0.753,0.461
				c-0.336,0.175-0.661,0.48-0.902,0.889c-0.506,0.856-0.453,1.823,0.117,2.16c0.203,0.12,0.444,0.14,0.693,0.083
				c-0.392,0.341-0.582,1.041-0.434,1.793c0.191,0.976,0.873,1.663,1.523,1.536c0.093-0.018,0.178-0.056,0.259-0.103
				c1.366,2.259,3.839,3.773,6.671,3.773c2.832,0,5.304-1.515,6.671-3.773c0.081,0.048,0.166,0.085,0.259,0.103
				c0.65,0.127,1.333-0.56,1.523-1.536c0.147-0.752-0.043-1.451-0.434-1.793C46.267,31.758,46.508,31.738,46.711,31.618z"/>
			<path fill="#947063" d="M46.828,29.458c-0.241-0.408-0.567-0.713-0.902-0.889c0.332-0.057,0.613-0.201,0.753-0.461
				c0.316-0.582-0.135-1.439-1.009-1.914c-0.574-0.312-1.171-0.358-1.613-0.204c-0.084-0.103-0.174-0.2-0.263-0.298
				c0.402-0.153,0.69-0.424,0.751-0.775c0.114-0.653-0.588-1.321-1.567-1.491c-0.706-0.123-1.358,0.049-1.713,0.397
				c-0.008-0.004-0.016-0.008-0.024-0.012c0.222-0.2,0.358-0.444,0.358-0.712c0-0.663-0.806-1.2-1.8-1.2c-0.994,0-1.8,0.537-1.8,1.2
				c0-0.663-0.806-1.2-1.8-1.2c-0.994,0-1.8,0.537-1.8,1.2c0,0.268,0.136,0.512,0.358,0.712c-0.008,0.004-0.016,0.008-0.024,0.012
				c-0.355-0.348-1.007-0.52-1.713-0.397c-0.979,0.171-1.681,0.838-1.567,1.491c0.061,0.351,0.349,0.622,0.751,0.775
				c-0.089,0.099-0.179,0.195-0.263,0.298c-0.443-0.154-1.04-0.108-1.613,0.204c-0.874,0.475-1.325,1.332-1.009,1.914
				c0.141,0.259,0.421,0.403,0.753,0.461c-0.336,0.175-0.661,0.48-0.902,0.889c-0.506,0.856-0.453,1.823,0.117,2.16
				c0.139,0.082,0.3,0.103,0.466,0.099c0.741-3.882,4.148-6.817,8.246-6.817s7.505,2.935,8.246,6.817
				c0.166,0.004,0.327-0.016,0.466-0.099C47.282,31.281,47.334,30.314,46.828,29.458z"/>
			<path fill="none" stroke="#45413C" stroke-linecap="round" stroke-linejoin="round" stroke-miterlimit="10" d="M46.711,31.618
				c0.57-0.337,0.623-1.304,0.117-2.16c-0.241-0.408-0.567-0.713-0.902-0.889c0.332-0.057,0.613-0.201,0.753-0.461
				c0.316-0.582-0.135-1.439-1.009-1.914c-0.574-0.312-1.171-0.358-1.613-0.204c-0.084-0.103-0.174-0.2-0.263-0.298
				c0.402-0.153,0.69-0.424,0.751-0.775c0.114-0.653-0.588-1.321-1.567-1.491c-0.706-0.123-1.358,0.049-1.713,0.397
				c-0.008-0.004-0.016-0.008-0.024-0.012c0.222-0.2,0.358-0.444,0.358-0.712c0-0.663-0.806-1.2-1.8-1.2c-0.994,0-1.8,0.537-1.8,1.2
				c0-0.663-0.806-1.2-1.8-1.2c-0.994,0-1.8,0.537-1.8,1.2c0,0.268,0.136,0.512,0.358,0.712c-0.008,0.004-0.016,0.008-0.024,0.012
				c-0.355-0.348-1.007-0.52-1.713-0.397c-0.979,0.171-1.681,0.838-1.567,1.491c0.061,0.351,0.349,0.622,0.751,0.775
				c-0.089,0.099-0.179,0.195-0.263,0.298c-0.443-0.154-1.04-0.108-1.613,0.204c-0.874,0.475-1.325,1.332-1.009,1.914
				c0.141,0.259,0.421,0.403,0.753,0.461c-0.336,0.175-0.661,0.48-0.902,0.889c-0.506,0.856-0.453,1.823,0.117,2.16
				c0.203,0.12,0.444,0.14,0.693,0.083c-0.392,0.341-0.582,1.041-0.434,1.793c0.191,0.976,0.873,1.663,1.523,1.536
				c0.093-0.018,0.178-0.056,0.259-0.103c1.366,2.259,3.839,3.773,6.671,3.773c2.832,0,5.304-1.515,6.671-3.773
				c0.081,0.048,0.166,0.085,0.259,0.103c0.65,0.127,1.333-0.56,1.523-1.536c0.147-0.752-0.043-1.451-0.434-1.793
				C46.267,31.758,46.508,31.738,46.711,31.618z"/>
		</g>
		<g>
			<path fill="#FFCEBF" stroke="#45413C" stroke-linecap="round" stroke-linejoin="round" stroke-miterlimit="10" d="M44.007,32.1
				l-0.855-2.549c-0.199-0.594-0.821-0.934-1.429-0.782l-1.978,0.494c-1.146,0.287-2.346,0.287-3.492,0l-1.974-0.493
				c-0.609-0.152-1.233,0.191-1.43,0.787L32.007,32.1c-1.712,0-1.597,3,0.3,3l0.005-0.001c0.768,2.429,3.013,4.201,5.695,4.201
				c2.683,0,4.927-1.772,5.695-4.201l0.005,0.001C45.604,35.1,45.719,32.1,44.007,32.1z"/>
			<circle fill="#FFB59E" cx="35.007" cy="34.141" r="0.6"/>
			<circle fill="#FFB59E" cx="41.007" cy="34.141" r="0.6"/>
			<path fill="none" stroke="#45413C" stroke-linecap="round" stroke-linejoin="round" stroke-miterlimit="10" d="M36.507,35.846
				c0.908,0.605,2.092,0.605,3,0"/>
			<g>
				<path fill="#45413C" d="M36.054,31.591c-0.414,0-0.75,0.336-0.75,0.75c0,0.414,0.336,0.75,0.75,0.75s0.75-0.336,0.75-0.75
					C36.804,31.927,36.468,31.591,36.054,31.591L36.054,31.591z"/>
			</g>
			<g>
				<path fill="#45413C" d="M39.954,31.591c-0.414,0-0.75,0.336-0.75,0.75c0,0.414,0.336,0.75,0.75,0.75s0.75-0.336,0.75-0.75
					C40.704,31.927,40.368,31.591,39.954,31.591L39.954,31.591z"/>
			</g>
		</g>
	</g>
</g>
<path fill="none" stroke="#48CF3E" stroke-linecap="round" stroke-linejoin="round" stroke-miterlimit="10" d="M64.101,35.778
	c-1.172-1.172-1.172-3.071,0-4.243c2.273-2.273,5.332-0.029,4.066,1.237c-1.259,1.259-3.515-1.789-1.237-4.066
	c2.273-2.273,5.332-0.029,4.066,1.237c-1.259,1.259-3.515-1.789-1.237-4.066c1.172-1.172,3.071-1.172,4.243,0"/>
<path fill="none" stroke="#FFB700" stroke-linecap="round" stroke-linejoin="round" stroke-miterlimit="10" d="M53.032,22
	c2.273-2.273,0.029-5.332-1.237-4.066c-1.259,1.259,1.789,3.515,4.066,1.238c2.273-2.273,0.029-5.332-1.238-4.066
	c-1.259,1.259,1.789,3.515,4.066,1.237"/>
<path fill="none" stroke="#FF4064" stroke-linecap="round" stroke-linejoin="round" stroke-miterlimit="10" d="M76.191,44.468
	c-2.273-2.273-5.332-0.029-4.066,1.237c1.259,1.259,3.515-1.789,1.237-4.066c-2.273-2.273-5.332-0.029-4.066,1.238
	c1.259,1.259,3.514-1.789,1.237-4.066"/>
<g>
	
		<line fill="none" stroke="#00AED9" stroke-linecap="round" stroke-linejoin="round" stroke-miterlimit="10" x1="77.5" y1="50.75" x2="77.5" y2="50"/>
	
		<line fill="none" stroke="#00AED9" stroke-linecap="round" stroke-linejoin="round" stroke-miterlimit="10" x1="79.091" y1="51.409" x2="79.621" y2="50.879"/>
	
		<line fill="none" stroke="#00AED9" stroke-linecap="round" stroke-linejoin="round" stroke-miterlimit="10" x1="79.75" y1="53" x2="80.5" y2="53"/>
	
		<line fill="none" stroke="#00AED9" stroke-linecap="round" stroke-linejoin="round" stroke-miterlimit="10" x1="79.091" y1="54.591" x2="79.621" y2="55.121"/>
	
		<line fill="none" stroke="#00AED9" stroke-linecap="round" stroke-linejoin="round" stroke-miterlimit="10" x1="77.5" y1="55.25" x2="77.5" y2="56"/>
	
		<line fill="none" stroke="#00AED9" stroke-linecap="round" stroke-linejoin="round" stroke-miterlimit="10" x1="75.909" y1="54.591" x2="75.379" y2="55.121"/>
	
		<line fill="none" stroke="#00AED9" stroke-linecap="round" stroke-linejoin="round" stroke-miterlimit="10" x1="75.25" y1="53" x2="74.5" y2="53"/>
	
		<line fill="none" stroke="#00AED9" stroke-linecap="round" stroke-linejoin="round" stroke-miterlimit="10" x1="75.909" y1="51.409" x2="75.379" y2="50.879"/>
</g>
<g>
	
		<line fill="none" stroke="#00AED9" stroke-linecap="round" stroke-linejoin="round" stroke-miterlimit="10" x1="55.5" y1="35.5" x2="55.5" y2="33.5"/>
	
		<line fill="none" stroke="#00AED9" stroke-linecap="round" stroke-linejoin="round" stroke-miterlimit="10" x1="54.5" y1="34.5" x2="56.5" y2="34.5"/>
</g>
<g>
	
		<line fill="none" stroke="#00AED9" stroke-linecap="round" stroke-linejoin="round" stroke-miterlimit="10" x1="77" y1="33.5" x2="77" y2="31.5"/>
	
		<line fill="none" stroke="#00AED9" stroke-linecap="round" stroke-linejoin="round" stroke-miterlimit="10" x1="76" y1="32.5" x2="78" y2="32.5"/>
</g>
</svg>
