<?xml version="1.0" encoding="utf-8"?>
<!-- Generator: Adobe Illustrator 21.0.0, SVG Export Plug-In . SVG Version: 6.00 Build 0)  -->
<svg version="1.1" id="Layer_1" xmlns="http://www.w3.org/2000/svg" xmlns:xlink="http://www.w3.org/1999/xlink" x="0px" y="0px"
	 width="96px" height="96px" viewBox="0 0 96 96" enable-background="new 0 0 96 96" xml:space="preserve">
<circle fill="#BDFBFC" cx="48" cy="47" r="40"/>
<g>
	<g>
		<path fill="#FFFFFF" stroke="#45413C" stroke-linejoin="round" stroke-miterlimit="10" d="M39.163,24.844
			c-0.331,0-0.645,0.068-0.937,0.181c-0.331-2.067-2.108-3.651-4.268-3.651c-2.16,0-3.937,1.584-4.268,3.651
			c-0.292-0.113-0.606-0.181-0.937-0.181c-1.437,0-2.602,1.165-2.602,2.602c0,1.437,1.165,2.602,2.602,2.602h10.41
			c1.437,0,2.602-1.165,2.602-2.602C41.765,26.009,40.6,24.844,39.163,24.844z"/>
		<path fill="#FFFFFF" stroke="#45413C" stroke-linejoin="round" stroke-miterlimit="10" d="M39.163,24.844
			c-0.331,0-0.645,0.068-0.937,0.181c-0.331-2.067-2.108-3.651-4.268-3.651c-2.16,0-3.937,1.584-4.268,3.651
			c-0.292-0.113-0.606-0.181-0.937-0.181c-1.437,0-2.602,1.165-2.602,2.602c0,1.437,1.165,2.602,2.602,2.602h10.41
			c1.437,0,2.602-1.165,2.602-2.602C41.765,26.009,40.6,24.844,39.163,24.844z"/>
	</g>
	<g>
		<path fill="#FFFFFF" stroke="#45413C" stroke-linejoin="round" stroke-miterlimit="10" d="M76.898,31.133
			c-0.331,0-0.645,0.068-0.937,0.181c-0.331-2.067-2.108-3.651-4.268-3.651c-2.16,0-3.937,1.583-4.268,3.651
			c-0.291-0.113-0.606-0.181-0.937-0.181c-1.437,0-2.602,1.165-2.602,2.602c0,1.437,1.165,2.603,2.602,2.603h10.41
			c1.437,0,2.602-1.165,2.602-2.603C79.5,32.299,78.335,31.133,76.898,31.133z"/>
		<path fill="#FFFFFF" stroke="#45413C" stroke-linejoin="round" stroke-miterlimit="10" d="M76.898,31.133
			c-0.331,0-0.645,0.068-0.937,0.181c-0.331-2.067-2.108-3.651-4.268-3.651c-2.16,0-3.937,1.583-4.268,3.651
			c-0.291-0.113-0.606-0.181-0.937-0.181c-1.437,0-2.602,1.165-2.602,2.602c0,1.437,1.165,2.603,2.602,2.603h10.41
			c1.437,0,2.602-1.165,2.602-2.603C79.5,32.299,78.335,31.133,76.898,31.133z"/>
	</g>
	<path fill="#BF8256" d="M44.963,53.904l11.486-15.718c0.204-0.279,0.53-0.444,0.875-0.444c0.346,0,0.671,0.165,0.876,0.444
		l11.486,15.718H44.963z"/>
	<path fill="#DEA47A" d="M56.516,41.997c0.188-0.258,0.488-0.41,0.807-0.41c0.319,0,0.619,0.152,0.807,0.41l8.701,11.907h2.853
		L58.199,38.187c-0.204-0.279-0.529-0.444-0.876-0.444c-0.346,0-0.671,0.165-0.875,0.444L44.963,53.904h2.853L56.516,41.997z"/>
	<path fill="none" stroke="#45413C" stroke-linecap="round" stroke-linejoin="round" stroke-miterlimit="10" d="M44.963,53.904
		l11.486-15.718c0.204-0.279,0.53-0.444,0.875-0.444c0.346,0,0.671,0.165,0.876,0.444l11.486,15.718H44.963z"/>
	<path fill="#BF8256" d="M38.783,53.904l10.234-12.04c0.206-0.242,0.508-0.382,0.826-0.382c0.318,0,0.62,0.14,0.826,0.382
		l10.234,12.04H38.783z"/>
	<path fill="#DEA47A" d="M49.082,45.692c0.19-0.224,0.468-0.353,0.762-0.353c0.293,0,0.572,0.129,0.762,0.353l6.98,8.212h3.318
		L50.67,41.864c-0.206-0.242-0.508-0.382-0.826-0.382c-0.318,0-0.62,0.14-0.826,0.382l-10.234,12.04h3.318L49.082,45.692z"/>
	<path fill="none" stroke="#45413C" stroke-linecap="round" stroke-linejoin="round" stroke-miterlimit="10" d="M38.783,53.904
		l10.234-12.04c0.206-0.242,0.508-0.382,0.826-0.382c0.318,0,0.62,0.14,0.826,0.382l10.234,12.04H38.783z"/>
	
		<line fill="none" stroke="#45413C" stroke-linecap="round" stroke-linejoin="round" stroke-miterlimit="10" x1="30.434" y1="53.904" x2="30.434" y2="48.7"/>
	<polygon fill="#6DD627" stroke="#45413C" stroke-linecap="round" stroke-linejoin="round" stroke-miterlimit="10" points="
		35.639,44.796 31.735,40.242 34.337,40.242 30.434,35.688 26.53,40.242 29.133,40.242 25.229,44.796 28.482,44.796 25.229,48.7 
		30.434,48.7 35.639,48.7 32.386,44.796 	"/>
	<g>
		<path fill="#00B8F0" d="M26.316,53.904c-0.278,0-0.544,0.116-0.733,0.32c-0.189,0.204-0.286,0.478-0.265,0.755
			C26.201,66.747,36.007,76.025,48,76.025c11.993,0,21.799-9.278,22.682-21.045c0.021-0.278-0.075-0.551-0.264-0.755
			c-0.189-0.204-0.455-0.321-0.733-0.321H26.316z"/>
		<path fill="#009FD9" d="M69.976,53.948C67.38,63.663,58.534,70.82,48,70.82s-19.38-7.157-21.976-16.872
			c-0.167,0.051-0.32,0.145-0.442,0.276c-0.189,0.204-0.286,0.477-0.265,0.755C26.201,66.747,36.007,76.025,48,76.025
			c11.993,0,21.799-9.277,22.682-21.044c0.021-0.277-0.075-0.551-0.264-0.755C70.297,54.094,70.143,53.999,69.976,53.948z"/>
		<path fill="none" stroke="#45413C" stroke-linecap="round" stroke-linejoin="round" stroke-miterlimit="10" d="M26.316,53.904
			c-0.278,0-0.544,0.116-0.733,0.32c-0.189,0.204-0.286,0.478-0.265,0.755C26.201,66.747,36.007,76.025,48,76.025
			c11.993,0,21.799-9.278,22.682-21.045c0.021-0.278-0.075-0.551-0.264-0.755c-0.189-0.204-0.455-0.321-0.733-0.321H26.316z"/>
		<path fill="#6DD627" stroke="#45413C" stroke-linecap="round" stroke-linejoin="round" stroke-miterlimit="10" d="M34.988,53.904
			c-1.437,0-2.602,1.165-2.602,2.602c0,1.437,1.165,2.602,2.602,2.602c1.161,0,2.188,0.755,2.534,1.863L39.7,67.94
			c0.293,0.939,1.163,1.579,2.147,1.579c1.242,0,2.25-1.007,2.25-2.25v-1.831c0-1.97,0.782-3.859,2.175-5.251
			c0.69-0.69,1.078-1.626,1.078-2.602c0-2.033-1.648-3.68-3.68-3.68H34.988z"/>
		<path fill="#6DD627" d="M65.566,67.7v-4.236c0-2.046-1.659-3.705-3.705-3.705c-1.547,0-2.801,1.254-2.801,2.801
			c0,1.383-1.009,2.559-2.375,2.769l-0.69,0.106c-3.186,0.49-5.653,3.047-6.029,6.248l-0.502,4.268
			C55.95,75.539,61.687,72.423,65.566,67.7z"/>
		<path fill="#46B000" d="M65.566,63.464c0-0.287-0.033-0.566-0.094-0.833c-3.741,4.488-9.175,7.513-15.326,8.089
			c-0.082,0.314-0.143,0.635-0.181,0.964l-0.502,4.268c6.487-0.413,12.225-3.529,16.104-8.252V63.464z"/>
		<path fill="none" stroke="#45413C" stroke-linecap="round" stroke-linejoin="round" stroke-miterlimit="10" d="M65.566,67.7
			v-4.236c0-2.046-1.659-3.705-3.705-3.705c-1.547,0-2.801,1.254-2.801,2.801c0,1.383-1.009,2.559-2.375,2.769l-0.69,0.106
			c-3.186,0.49-5.653,3.047-6.029,6.248l-0.502,4.268C55.95,75.539,61.687,72.423,65.566,67.7z"/>
	</g>
	
		<line fill="none" stroke="#45413C" stroke-linecap="round" stroke-linejoin="round" stroke-miterlimit="10" x1="42.145" y1="53.904" x2="42.145" y2="50.001"/>
	<polygon fill="#6DD627" stroke="#45413C" stroke-linecap="round" stroke-linejoin="round" stroke-miterlimit="10" points="
		47.349,46.097 43.446,41.543 46.048,41.543 42.145,36.989 38.241,41.543 40.843,41.543 36.94,46.097 40.193,46.097 36.94,50.001 
		42.145,50.001 47.349,50.001 44.097,46.097 	"/>
</g>
</svg>
