<?xml version="1.0" encoding="utf-8"?>
<!-- Generator: Adobe Illustrator 21.0.0, SVG Export Plug-In . SVG Version: 6.00 Build 0)  -->
<svg version="1.1" id="Layer_1" xmlns="http://www.w3.org/2000/svg" xmlns:xlink="http://www.w3.org/1999/xlink" x="0px" y="0px"
	 width="96px" height="96px" viewBox="0 0 96 96" enable-background="new 0 0 96 96" xml:space="preserve">
<g>
	<g>
		<path fill="#CDF7AD" d="M48.1,87c14.798,0,27.69-8.053,34.608-20H13.492C20.41,78.947,33.302,87,48.1,87z"/>
		<path fill="#E4FFD1" d="M11.664,63.5c0.546,1.204,1.17,2.363,1.828,3.5h69.215c0.658-1.137,1.282-2.296,1.828-3.5H11.664z"/>
	</g>
	<path fill="#BDFBFC" d="M88.1,47c0-22.091-17.909-40-40-40s-40,17.909-40,40c0,5.885,1.281,11.468,3.564,16.5h72.872
		C86.818,58.468,88.1,52.885,88.1,47z"/>
	<g>
		
			<line fill="none" stroke="#45413C" stroke-linecap="round" stroke-linejoin="round" stroke-miterlimit="10" x1="9.1" y1="63.5" x2="87.1" y2="63.5"/>
		
			<line fill="none" stroke="#45413C" stroke-linecap="round" stroke-linejoin="round" stroke-miterlimit="10" x1="4.6" y1="63.5" x2="7.1" y2="63.5"/>
		
			<line fill="none" stroke="#45413C" stroke-linecap="round" stroke-linejoin="round" stroke-miterlimit="10" x1="89.1" y1="63.5" x2="91.6" y2="63.5"/>
	</g>
</g>
<g>
	<rect x="60.7" y="21.5" fill="#F0D5A8" width="15.6" height="42"/>
	<rect x="60.7" y="37.1" fill="#DEBB7E" width="15.6" height="26.4"/>
	
		<rect x="60.7" y="21.5" fill="none" stroke="#45413C" stroke-linecap="round" stroke-linejoin="round" stroke-miterlimit="10" width="15.6" height="42"/>
	<path fill="#F7E5C6" d="M76.3,21.5H60.7v-1.2c0-4.308,3.492-7.8,7.8-7.8l0,0c4.308,0,7.8,3.492,7.8,7.8V21.5z"/>
	<path fill="#F0D5A8" d="M60.917,21.5h15.166c-0.814-3.438-3.896-6-7.583-6S61.731,18.062,60.917,21.5z"/>
	<path fill="none" stroke="#45413C" stroke-linecap="round" stroke-linejoin="round" stroke-miterlimit="10" d="M76.3,21.5H60.7
		v-1.2c0-4.308,3.492-7.8,7.8-7.8l0,0c4.308,0,7.8,3.492,7.8,7.8V21.5z"/>
	
		<line fill="none" stroke="#45413C" stroke-linecap="round" stroke-linejoin="round" stroke-miterlimit="10" x1="73.3" y1="58.1" x2="73.3" y2="20.3"/>
	
		<line fill="none" stroke="#45413C" stroke-linecap="round" stroke-linejoin="round" stroke-miterlimit="10" x1="70.3" y1="58.1" x2="70.3" y2="20.3"/>
	
		<line fill="none" stroke="#45413C" stroke-linecap="round" stroke-linejoin="round" stroke-miterlimit="10" x1="66.7" y1="41.3" x2="66.7" y2="20.3"/>
	
		<line fill="none" stroke="#45413C" stroke-linecap="round" stroke-linejoin="round" stroke-miterlimit="10" x1="63.7" y1="38.3" x2="63.7" y2="20.3"/>
	<path fill="#FF866E" stroke="#45413C" stroke-linecap="round" stroke-linejoin="round" stroke-miterlimit="10" d="M48.7,26.8
		c0-0.276-0.224-0.5-0.5-0.5h-5c-0.276,0-0.5,0.224-0.5,0.5v3.7h6V26.8z"/>
	
		<rect x="43.9" y="22.7" fill="#F0F0F0" stroke="#45413C" stroke-linecap="round" stroke-linejoin="round" stroke-miterlimit="10" width="3.6" height="3.6"/>
	<path fill="#BDBEC0" stroke="#45413C" stroke-linecap="round" stroke-linejoin="round" stroke-miterlimit="10" d="M42.7,22.7h6
		l-2.616-3.139c-0.095-0.114-0.236-0.18-0.384-0.18s-0.289,0.066-0.384,0.18L42.7,22.7z"/>
	<path fill="#F0F0F0" stroke="#45413C" stroke-linecap="round" stroke-linejoin="round" stroke-miterlimit="10" d="M58.087,35.899
		c-0.254-0.393-0.602-0.717-1.012-0.942l-8.606-4.734l-1.892-1.04c-0.546-0.3-1.208-0.3-1.755,0l-1.892,1.04l-8.606,4.734
		c-0.41,0.225-0.758,0.549-1.012,0.942L27.1,45.5v18h37.2v-18L58.087,35.899z"/>
	<path fill="#FF6242" d="M61.9,63.5H29.5V48.9c0-0.552,0.448-1,1-1h30.4c0.552,0,1,0.448,1,1V63.5z"/>
	<path fill="#E04122" d="M31.09,43.959c-0.198,0.308-0.212,0.699-0.037,1.02c0.175,0.321,0.512,0.521,0.878,0.521h27.537
		c0.366,0,0.702-0.2,0.878-0.521c0.175-0.321,0.161-0.712-0.036-1.02l-4.132-6.427c-0.182-0.283-0.434-0.515-0.731-0.672
		l-9.142-4.84c-0.378-0.2-0.831-0.2-1.209,0l-9.142,4.84c-0.298,0.158-0.549,0.389-0.731,0.672L31.09,43.959z"/>
	<path fill="#FF6242" d="M58.676,45.5l-3.304-5.568c-0.168-0.283-0.401-0.514-0.675-0.672l-8.439-4.84c-0.349-0.2-0.767-0.2-1.116,0
		l-8.439,4.84c-0.275,0.158-0.507,0.389-0.675,0.672L32.724,45.5H58.676z"/>
	<path fill="none" stroke="#45413C" stroke-linecap="round" stroke-linejoin="round" stroke-miterlimit="10" d="M31.09,43.959
		c-0.198,0.308-0.212,0.699-0.037,1.02c0.175,0.321,0.512,0.521,0.878,0.521h27.537c0.366,0,0.702-0.2,0.878-0.521
		c0.175-0.321,0.161-0.712-0.036-1.02l-4.132-6.427c-0.182-0.283-0.434-0.515-0.731-0.672l-9.142-4.84c-0.378-0.2-0.831-0.2-1.209,0
		l-9.142,4.84c-0.298,0.158-0.549,0.389-0.731,0.672L31.09,43.959z"/>
	
		<rect x="41.5" y="52.7" fill="#656769" stroke="#45413C" stroke-linecap="round" stroke-linejoin="round" stroke-miterlimit="10" width="8.4" height="10.8"/>
	<rect x="34.3" y="52.7" fill="#FF866E" width="7.2" height="10.8"/>
	<rect x="34.3" y="52.7" fill="#FF6242" width="7.2" height="1.479"/>
	
		<rect x="34.3" y="52.7" fill="none" stroke="#45413C" stroke-linecap="round" stroke-linejoin="round" stroke-miterlimit="10" width="7.2" height="10.8"/>
	<path fill="#656769" stroke="#45413C" stroke-linecap="round" stroke-linejoin="round" stroke-miterlimit="10" d="M48.1,38.9
		c0-0.552-0.448-1-1-1h-2.8c-0.552,0-1,0.448-1,1v6.6h4.8V38.9z"/>
	<path fill="#FF866E" stroke="#45413C" stroke-linecap="round" stroke-linejoin="round" stroke-miterlimit="10" d="M43.3,38.9h-1.4
		c-0.552,0-1,0.448-1,1v5.6h2.4V38.9z"/>
	<path fill="#FF866E" stroke="#45413C" stroke-linecap="round" stroke-linejoin="round" stroke-miterlimit="10" d="M50.5,39.9
		c0-0.552-0.448-1-1-1h-1.4v6.6h2.4V39.9z"/>
	<path fill="#F0F0F0" stroke="#45413C" stroke-linecap="round" stroke-linejoin="round" stroke-miterlimit="10" d="M58.1,51.7
		c0,0.552-0.448,1-1,1H34.3c-0.552,0-1-0.448-1-1v-0.4c0-0.552,0.448-1,1-1h22.8c0.552,0,1,0.448,1,1V51.7z"/>
	
		<line fill="#F0F0F0" stroke="#45413C" stroke-linecap="round" stroke-linejoin="round" stroke-miterlimit="10" x1="32.5" y1="37.155" x2="24.382" y2="49.7"/>
	
		<line fill="#F0F0F0" stroke="#45413C" stroke-linecap="round" stroke-linejoin="round" stroke-miterlimit="10" x1="58.9" y1="37.155" x2="67.018" y2="49.7"/>
	
		<line fill="none" stroke="#45413C" stroke-linecap="round" stroke-linejoin="round" stroke-miterlimit="10" x1="34.3" y1="52.7" x2="41.5" y2="63.5"/>
	
		<line fill="none" stroke="#45413C" stroke-linecap="round" stroke-linejoin="round" stroke-miterlimit="10" x1="41.5" y1="52.7" x2="34.3" y2="63.5"/>
	<rect x="49.9" y="52.7" fill="#FF866E" width="7.2" height="10.8"/>
	<rect x="49.9" y="52.7" fill="#FF6242" width="7.2" height="1.479"/>
	
		<rect x="49.9" y="52.7" fill="none" stroke="#45413C" stroke-linecap="round" stroke-linejoin="round" stroke-miterlimit="10" width="7.2" height="10.8"/>
	
		<line fill="none" stroke="#45413C" stroke-linecap="round" stroke-linejoin="round" stroke-miterlimit="10" x1="49.9" y1="52.7" x2="57.1" y2="63.5"/>
	
		<line fill="none" stroke="#45413C" stroke-linecap="round" stroke-linejoin="round" stroke-miterlimit="10" x1="57.1" y1="52.7" x2="49.9" y2="63.5"/>
	
		<line fill="none" stroke="#45413C" stroke-linecap="round" stroke-linejoin="round" stroke-miterlimit="10" x1="43.3" y1="40.7" x2="40.9" y2="43.7"/>
	
		<line fill="none" stroke="#45413C" stroke-linecap="round" stroke-linejoin="round" stroke-miterlimit="10" x1="48.1" y1="40.7" x2="50.5" y2="43.7"/>
	
		<line fill="none" stroke="#45413C" stroke-linecap="round" stroke-linejoin="round" stroke-miterlimit="10" x1="78.7" y1="20.3" x2="78.7" y2="61.7"/>
	
		<rect x="76.3" y="21.5" fill="none" stroke="#45413C" stroke-linecap="round" stroke-linejoin="round" stroke-miterlimit="10" width="2.4" height="7.2"/>
	
		<rect x="76.3" y="35.9" fill="none" stroke="#45413C" stroke-linecap="round" stroke-linejoin="round" stroke-miterlimit="10" width="2.4" height="7.2"/>
	
		<rect x="76.3" y="50.3" fill="none" stroke="#45413C" stroke-linecap="round" stroke-linejoin="round" stroke-miterlimit="10" width="2.4" height="7.2"/>
	<g>
		<path fill="#6DD627" stroke="#45413C" stroke-linejoin="round" stroke-miterlimit="10" d="M21.1,52.1
			c0,3.173-1.137,5.912-2.4,5.912c-1.263,0-2.4-2.739-2.4-5.912c0-3.173,2.4-11.488,2.4-11.488S21.1,48.927,21.1,52.1z"/>
		<line fill="none" stroke="#45413C" stroke-linejoin="round" stroke-miterlimit="10" x1="18.7" y1="58.012" x2="18.7" y2="63.5"/>
	</g>
	<path fill="#E04122" d="M61.9,49.894H29.5V48.9c0-0.552,0.448-1,1-1h30.4c0.552,0,1,0.448,1,1V49.894z"/>
	<path fill="none" stroke="#45413C" stroke-linecap="round" stroke-linejoin="round" stroke-miterlimit="10" d="M61.9,63.5H29.5
		V48.9c0-0.552,0.448-1,1-1h30.4c0.552,0,1,0.448,1,1V63.5z"/>
</g>
</svg>
