<?xml version="1.0" encoding="utf-8"?>
<!-- Generator: Adobe Illustrator 21.0.0, SVG Export Plug-In . SVG Version: 6.00 Build 0)  -->
<svg version="1.1" id="Layer_1" xmlns="http://www.w3.org/2000/svg" xmlns:xlink="http://www.w3.org/1999/xlink" x="0px" y="0px"
	 width="96px" height="96px" viewBox="0 0 96 96" enable-background="new 0 0 96 96" xml:space="preserve">
<circle fill="#BDFBFC" cx="48.193" cy="47" r="40"/>
<g>
	<path fill="#F0F0F0" d="M68.693,53.5h-12v-18h9.032c0.297,0,0.578,0.132,0.768,0.36l2.2,2.64V53.5z"/>
	<path fill="#FFFFFF" d="M66.493,35.86c-0.19-0.228-0.471-0.36-0.768-0.36h-9.032v3h9.032c0.297,0,0.578,0.132,0.768,0.36l2.2,2.64
		v-3L66.493,35.86z"/>
	<path fill="none" stroke="#45413C" stroke-linecap="round" stroke-linejoin="round" stroke-miterlimit="10" d="M68.693,53.5h-12
		v-18h9.032c0.297,0,0.578,0.132,0.768,0.36l2.2,2.64V53.5z"/>
	
		<rect x="68.693" y="50" fill="#6DD627" stroke="#45413C" stroke-linecap="round" stroke-linejoin="round" stroke-miterlimit="10" width="7.5" height="3.5"/>
	
		<rect x="68.693" y="46.5" fill="#FF6242" stroke="#45413C" stroke-linecap="round" stroke-linejoin="round" stroke-miterlimit="10" width="7.5" height="3.5"/>
	
		<rect x="68.693" y="43" fill="#FFE500" stroke="#45413C" stroke-linecap="round" stroke-linejoin="round" stroke-miterlimit="10" width="7.5" height="3.5"/>
	<path fill="#FF6242" d="M68.693,43h7.5v-3c0-0.276-0.224-0.5-0.5-0.5h-7V43z"/>
	<path fill="#FF866E" d="M75.693,39.5h-7v2h7c0.276,0,0.5,0.224,0.5,0.5v-2C76.193,39.724,75.969,39.5,75.693,39.5z"/>
	<path fill="none" stroke="#45413C" stroke-linecap="round" stroke-linejoin="round" stroke-miterlimit="10" d="M68.693,43h7.5v-3
		c0-0.276-0.224-0.5-0.5-0.5h-7V43z"/>
	
		<rect x="47.193" y="50" fill="#FFE500" stroke="#45413C" stroke-linecap="round" stroke-linejoin="round" stroke-miterlimit="10" width="7.5" height="3.5"/>
	
		<rect x="47.193" y="46.5" fill="#6DD627" stroke="#45413C" stroke-linecap="round" stroke-linejoin="round" stroke-miterlimit="10" width="7.5" height="3.5"/>
	
		<rect x="47.193" y="43" fill="#6DD627" stroke="#45413C" stroke-linecap="round" stroke-linejoin="round" stroke-miterlimit="10" width="7.5" height="3.5"/>
	<path fill="#FF6242" d="M47.193,43h7.5v-3c0-0.276-0.224-0.5-0.5-0.5h-6.5c-0.276,0-0.5,0.224-0.5,0.5V43z"/>
	<path fill="#FF866E" d="M54.193,39.5h-6.5c-0.276,0-0.5,0.224-0.5,0.5v2c0-0.276,0.224-0.5,0.5-0.5h6.5c0.276,0,0.5,0.224,0.5,0.5
		v-2C54.693,39.724,54.469,39.5,54.193,39.5z"/>
	<path fill="none" stroke="#45413C" stroke-linecap="round" stroke-linejoin="round" stroke-miterlimit="10" d="M47.193,43h7.5v-3
		c0-0.276-0.224-0.5-0.5-0.5h-6.5c-0.276,0-0.5,0.224-0.5,0.5V43z"/>
	
		<rect x="39.693" y="50" fill="#6DD627" stroke="#45413C" stroke-linecap="round" stroke-linejoin="round" stroke-miterlimit="10" width="7.5" height="3.5"/>
	
		<rect x="39.693" y="46.5" fill="#FF6242" stroke="#45413C" stroke-linecap="round" stroke-linejoin="round" stroke-miterlimit="10" width="7.5" height="3.5"/>
	<path fill="#FFE500" d="M39.693,46.5h7.5V43h-7c-0.276,0-0.5,0.224-0.5,0.5V46.5z"/>
	<path fill="#FFF48C" d="M40.193,43c-0.276,0-0.5,0.224-0.5,0.5v2c0-0.276,0.224-0.5,0.5-0.5h7v-2H40.193z"/>
	<path fill="none" stroke="#45413C" stroke-linecap="round" stroke-linejoin="round" stroke-miterlimit="10" d="M39.693,46.5h7.5V43
		h-7c-0.276,0-0.5,0.224-0.5,0.5V46.5z"/>
	
		<rect x="30.193" y="50" fill="#FF6242" stroke="#45413C" stroke-linecap="round" stroke-linejoin="round" stroke-miterlimit="10" width="7.5" height="3.5"/>
	
		<rect x="30.193" y="46.5" fill="#6DD627" stroke="#45413C" stroke-linecap="round" stroke-linejoin="round" stroke-miterlimit="10" width="7.5" height="3.5"/>
	<path fill="#6DD627" d="M30.193,46.5h7.5v-3c0-0.276-0.224-0.5-0.5-0.5h-6.5c-0.276,0-0.5,0.224-0.5,0.5V46.5z"/>
	
		<rect x="24.193" y="43.5" fill="#FF866E" stroke="#45413C" stroke-linecap="round" stroke-linejoin="round" stroke-miterlimit="10" width="2" height="6.5"/>
	<path fill="#FF866E" d="M76.193,41.5h1c0.552,0,1,0.448,1,1v11h-2V41.5z"/>
	<path fill="#FFA694" d="M77.193,41.5h-1V44h1c0.552,0,1,0.448,1,1v-2.5C78.193,41.947,77.745,41.5,77.193,41.5z"/>
	<path fill="#FF866E" stroke="#45413C" stroke-linecap="round" stroke-linejoin="round" stroke-miterlimit="10" d="M26.193,50v-3.5
		h1.086c0.265,0,0.52,0.105,0.707,0.293L31.193,50H26.193z"/>
	<path fill="#FF866E" stroke="#45413C" stroke-linecap="round" stroke-linejoin="round" stroke-miterlimit="10" d="M26.193,41.5h-2
		c-0.552,0-1,0.448-1,1l0,0c0,0.552,0.448,1,1,1h2c0.552,0,1-0.448,1-1l0,0C27.193,41.947,26.745,41.5,26.193,41.5z"/>
	<rect x="54.693" y="32.5" fill="#00B8F0" width="10" height="3"/>
	<polygon fill="#4ACFFF" points="64.193,32.5 58.693,35.5 54.693,35.5 54.693,32.5 	"/>
	
		<rect x="54.693" y="32.5" fill="none" stroke="#45413C" stroke-linecap="round" stroke-linejoin="round" stroke-miterlimit="10" width="10" height="3"/>
	<path fill="#FF6242" stroke="#45413C" stroke-linecap="round" stroke-linejoin="round" stroke-miterlimit="10" d="M61.626,28
		h-1.934c-0.552,0-1,0.448-1,1v1.5h5l-1.209-2.014C62.303,28.184,61.978,28,61.626,28z"/>
	<path fill="#FFFFFF" stroke="#45413C" stroke-linecap="round" stroke-linejoin="round" stroke-miterlimit="10" d="M56.693,37.5h-1
		c-0.552,0-1-0.448-1-1v-1h2V37.5z"/>
	<path fill="#FFFFFF" stroke="#45413C" stroke-linecap="round" stroke-linejoin="round" stroke-miterlimit="10" d="M63.693,30.5h-8
		c-0.552,0-1,0.448-1,1v1h10v-1C64.693,30.948,64.245,30.5,63.693,30.5z"/>
	<path fill="#ADC4D9" d="M67.721,64.5H24.259c-0.351,0-0.677-0.184-0.858-0.485l-3.024-5.04c-0.789-1.315-1.66-2.579-2.608-3.785
		l-2.806-3.571C14.448,50.962,14.916,50,15.75,50h16.812c0.41,0,0.811,0.126,1.147,0.361l4.483,3.139h40v4.764
		c0,0.757-0.428,1.45-1.106,1.789l-8.472,4.236C68.337,64.428,68.031,64.5,67.721,64.5z"/>
	<path fill="#8CA4B8" d="M33.709,52.361C33.373,52.126,32.973,52,32.562,52H15.75c-0.152,0-0.286,0.041-0.41,0.097l2.43,3.092
		c0.948,1.206,1.819,2.471,2.608,3.785l3.024,5.04c0.181,0.301,0.506,0.486,0.858,0.486H67.72c0.311,0,0.617-0.072,0.895-0.211
		l8.472-4.236c0.678-0.339,1.106-1.031,1.106-1.789V55.5h-40L33.709,52.361z"/>
	<path fill="none" stroke="#45413C" stroke-linecap="round" stroke-linejoin="round" stroke-miterlimit="10" d="M67.721,64.5H24.259
		c-0.351,0-0.677-0.184-0.858-0.485l-3.024-5.04c-0.789-1.315-1.66-2.579-2.608-3.785l-2.806-3.571
		C14.448,50.962,14.916,50,15.75,50h16.812c0.41,0,0.811,0.126,1.147,0.361l4.483,3.139h40v4.764c0,0.757-0.428,1.45-1.106,1.789
		l-8.472,4.236C68.337,64.428,68.031,64.5,67.721,64.5z"/>
	
		<line fill="none" stroke="#45413C" stroke-linecap="round" stroke-linejoin="round" stroke-miterlimit="10" x1="68.693" y1="38.5" x2="68.693" y2="31.5"/>
	
		<line fill="none" stroke="#45413C" stroke-linecap="round" stroke-linejoin="round" stroke-miterlimit="10" x1="59.693" y1="28" x2="59.693" y2="24.5"/>
	
		<line fill="none" stroke="#45413C" stroke-linecap="round" stroke-linejoin="round" stroke-miterlimit="10" x1="23.193" y1="42.5" x2="15.693" y2="50"/>
	<polygon fill="#DAEDF7" stroke="#45413C" stroke-linecap="round" stroke-linejoin="round" stroke-miterlimit="10" points="
		59.193,48 68.693,42.5 68.693,40 59.193,45.5 	"/>
	<polygon fill="#DAEDF7" stroke="#45413C" stroke-linecap="round" stroke-linejoin="round" stroke-miterlimit="10" points="
		59.193,53.5 68.693,48 68.693,45.5 59.193,51 	"/>
	
		<rect x="59.193" y="40" fill="#FFAA54" stroke="#45413C" stroke-linecap="round" stroke-linejoin="round" stroke-miterlimit="10" width="9.5" height="2.5"/>
	
		<rect x="59.193" y="45.5" fill="#FFAA54" stroke="#45413C" stroke-linecap="round" stroke-linejoin="round" stroke-miterlimit="10" width="9.5" height="2.5"/>
	
		<rect x="59.193" y="51" fill="#FFAA54" stroke="#45413C" stroke-linecap="round" stroke-linejoin="round" stroke-miterlimit="10" width="9.5" height="2.5"/>
	<path fill="#FF6242" stroke="#45413C" stroke-linecap="round" stroke-linejoin="round" stroke-miterlimit="10" d="M68.559,64.289
		l7.578-3.789H38.193l-5.252-3.425c-0.325-0.212-0.705-0.325-1.093-0.325H18.863c0.51,0.726,1.002,1.464,1.459,2.225l3.024,5.04
		c0.181,0.301,0.506,0.485,0.858,0.485h43.462C67.975,64.5,68.282,64.428,68.559,64.289z"/>
	
		<line fill="none" stroke="#45413C" stroke-linecap="round" stroke-linejoin="round" stroke-miterlimit="10" x1="58.193" y1="32.5" x2="58.193" y2="35.5"/>
	
		<line fill="none" stroke="#45413C" stroke-linecap="round" stroke-linejoin="round" stroke-miterlimit="10" x1="61.693" y1="32.5" x2="61.693" y2="35.5"/>
	<g>
		<path fill="#00DFEB" d="M77.428,63.095c-2.439,0-2.439,1.56-4.879,1.56c-2.437,0-2.437-1.56-4.875-1.56
			c-2.437,0-2.437,1.56-4.874,1.56c-2.438,0-2.438-1.56-4.875-1.56c-2.438,0-2.438,1.56-4.875,1.56c-2.438,0-2.438-1.56-4.875-1.56
			c-2.437,0-2.437,1.56-4.873,1.56c-2.435,0-2.435-1.56-4.871-1.56c-2.437,0-2.437,1.56-4.874,1.56c-2.435,0-2.435-1.56-4.869-1.56
			c-2.437,0-2.437,1.56-4.874,1.56c-2.437,0-2.437-1.56-4.875-1.56c-2.437,0-2.437,1.56-4.874,1.56
			c-0.948,0-1.527-0.237-2.024-0.526C18.459,77.649,32.232,87,48.193,87c15.963,0,29.737-9.353,36.154-22.875
			c-0.5,0.291-1.081,0.531-2.036,0.531C79.869,64.655,79.869,63.095,77.428,63.095z"/>
		<path fill="#4AEFF7" d="M14.065,67.56c2.437,0,2.437-1.56,4.874-1.56c2.437,0,2.437,1.56,4.875,1.56
			c2.437,0,2.437-1.56,4.874-1.56c2.435,0,2.435,1.56,4.869,1.56c2.437,0,2.437-1.56,4.874-1.56c2.435,0,2.435,1.56,4.871,1.56
			c2.436,0,2.436-1.56,4.873-1.56c2.438,0,2.438,1.56,4.875,1.56S55.487,66,57.925,66c2.438,0,2.438,1.56,4.875,1.56
			c2.437,0,2.437-1.56,4.874-1.56c2.437,0,2.437,1.56,4.875,1.56c2.439,0,2.439-1.56,4.879-1.56c2.441,0,2.441,1.56,4.882,1.56
			c0.067,0,0.133-0.001,0.197-0.004c0.666-1.11,1.281-2.255,1.839-3.432c-0.5,0.291-1.081,0.531-2.036,0.531
			c-2.441,0-2.441-1.56-4.882-1.56c-2.439,0-2.439,1.56-4.879,1.56c-2.438,0-2.438-1.56-4.875-1.56c-2.437,0-2.437,1.56-4.874,1.56
			c-2.438,0-2.438-1.56-4.875-1.56c-2.438,0-2.438,1.56-4.875,1.56s-2.438-1.56-4.875-1.56c-2.437,0-2.437,1.56-4.873,1.56
			c-2.435,0-2.435-1.56-4.871-1.56c-2.437,0-2.437,1.56-4.874,1.56c-2.435,0-2.435-1.56-4.869-1.56c-2.437,0-2.437,1.56-4.874,1.56
			c-2.438,0-2.438-1.56-4.875-1.56c-2.437,0-2.437,1.56-4.874,1.56c-0.948,0-1.527-0.237-2.024-0.526
			c0.558,1.175,1.171,2.319,1.837,3.428C13.939,67.559,14.001,67.56,14.065,67.56z"/>
		<path fill="none" stroke="#45413C" stroke-linecap="round" stroke-linejoin="round" stroke-miterlimit="10" d="M9.193,63.095
			c2.436,0,2.436,1.56,4.873,1.56c2.437,0,2.437-1.56,4.874-1.56c2.437,0,2.437,1.56,4.875,1.56c2.437,0,2.437-1.56,4.874-1.56
			c2.435,0,2.435,1.56,4.869,1.56c2.437,0,2.437-1.56,4.874-1.56c2.435,0,2.435,1.56,4.871,1.56c2.437,0,2.437-1.56,4.873-1.56
			c2.438,0,2.438,1.56,4.875,1.56c2.438,0,2.438-1.56,4.875-1.56c2.438,0,2.438,1.56,4.875,1.56c2.437,0,2.437-1.56,4.874-1.56
			c2.437,0,2.437,1.56,4.875,1.56c2.439,0,2.439-1.56,4.879-1.56c2.441,0,2.441,1.56,4.882,1.56s2.441-1.56,4.882-1.56"/>
		<g>
			<path fill="none" stroke="#A6FBFF" stroke-linecap="round" stroke-linejoin="round" stroke-miterlimit="10" d="M22.851,70.56
				c2.437,0,2.437-1.56,4.874-1.56c2.437,0,2.437,1.56,4.875,1.56c2.437,0,2.437-1.56,4.874-1.56c2.435,0,2.435,1.56,4.869,1.56
				c2.437,0,2.437-1.56,4.874-1.56c2.435,0,2.435,1.56,4.871,1.56"/>
			<path fill="none" stroke="#A6FBFF" stroke-linecap="round" stroke-linejoin="round" stroke-miterlimit="10" d="M37.361,79.733
				c2.437,0,2.437-1.56,4.874-1.56c2.435,0,2.435,1.56,4.869,1.56c2.437,0,2.437-1.56,4.874-1.56c2.435,0,2.435,1.56,4.871,1.56"/>
			<path fill="none" stroke="#A6FBFF" stroke-linecap="round" stroke-linejoin="round" stroke-miterlimit="10" d="M72.976,72.985
				c-2.435,0-2.435,1.56-4.869,1.56c-2.437,0-2.437-1.56-4.874-1.56c-2.435,0-2.435,1.56-4.871,1.56"/>
		</g>
	</g>
	<path fill="#9CEB60" d="M37.193,43h-6.5c-0.276,0-0.5,0.224-0.5,0.5v2c0-0.276,0.224-0.5,0.5-0.5h6.5c0.276,0,0.5,0.224,0.5,0.5v-2
		C37.693,43.224,37.469,43,37.193,43z"/>
	<path fill="none" stroke="#45413C" stroke-linecap="round" stroke-linejoin="round" stroke-miterlimit="10" d="M30.193,46.5h7.5v-3
		c0-0.276-0.224-0.5-0.5-0.5h-6.5c-0.276,0-0.5,0.224-0.5,0.5V46.5z"/>
	<path fill="none" stroke="#45413C" stroke-linecap="round" stroke-linejoin="round" stroke-miterlimit="10" d="M76.193,41.5h1
		c0.552,0,1,0.448,1,1v11h-2V41.5z"/>
</g>
</svg>
