<?xml version="1.0" encoding="utf-8"?>
<!-- Generator: Adobe Illustrator 21.0.0, SVG Export Plug-In . SVG Version: 6.00 Build 0)  -->
<svg version="1.1" id="Layer_1" xmlns="http://www.w3.org/2000/svg" xmlns:xlink="http://www.w3.org/1999/xlink" x="0px" y="0px"
	 width="96px" height="96px" viewBox="0 0 96 96" enable-background="new 0 0 96 96" xml:space="preserve">
<g>
	<path fill="#BDFBFC" d="M88,47C88,24.909,70.091,7,48,7S8,24.909,8,47c0,5.885,1.281,11.468,3.564,16.5h72.872
		C86.718,58.468,88,52.885,88,47z"/>
	<path fill="#C0DCEB" d="M11.564,63.5C17.849,77.357,31.794,87,48,87s30.151-9.643,36.436-23.5H11.564z"/>
	<path fill="#DAEDF7" d="M82.635,67c0.655-1.133,1.257-2.3,1.801-3.5H11.564c0.544,1.2,1.146,2.367,1.801,3.5H82.635z"/>
</g>
<g>
	
		<line fill="none" stroke="#45413C" stroke-linecap="round" stroke-linejoin="round" stroke-miterlimit="10" x1="9" y1="63.5" x2="87" y2="63.5"/>
	
		<line fill="none" stroke="#45413C" stroke-linecap="round" stroke-linejoin="round" stroke-miterlimit="10" x1="4.5" y1="63.5" x2="7" y2="63.5"/>
	
		<line fill="none" stroke="#45413C" stroke-linecap="round" stroke-linejoin="round" stroke-miterlimit="10" x1="89" y1="63.5" x2="91.5" y2="63.5"/>
</g>
<g>
	
		<ellipse opacity="0.15" fill="#45413C" stroke="#45413C" stroke-width="0" stroke-miterlimit="10" cx="48.5" cy="78.5" rx="21.5" ry="1.5"/>
	<path fill="#00DBA8" d="M84.257,64.355c-0.54-0.901-1.529-1.461-2.579-1.461c-0.542,0-1.075,0.147-1.55,0.429l-1.999,1.2
		c-0.193,0.115-0.411,0.176-0.635,0.176c-0.679,0-1.233-0.554-1.233-1.233v-7.703c0-8.774-7.155-15.644-15.644-15.644
		c-8.428,0-15.644,6.813-15.644,15.644v7.733h25.27c0,3.998,3.252,7.22,7.249,7.22c1.31,0,2.6-0.356,3.73-1.032l2.001-1.202
		C84.646,67.629,85.109,65.778,84.257,64.355z"/>
	<path fill="#00F5BC" d="M60.618,44.938c8.488,0,15.644,6.869,15.644,15.644v-4.818c0-8.774-7.155-15.644-15.644-15.644
		c-8.428,0-15.644,6.813-15.644,15.644v4.818C44.974,51.751,52.19,44.938,60.618,44.938z"/>
	<path fill="none" stroke="#45413C" stroke-linejoin="round" stroke-miterlimit="10" d="M84.257,64.355
		c-0.54-0.901-1.529-1.461-2.579-1.461c-0.542,0-1.075,0.147-1.55,0.429l-1.999,1.2c-0.193,0.115-0.411,0.176-0.635,0.176
		c-0.679,0-1.233-0.554-1.233-1.233v-7.703c0-8.774-7.155-15.644-15.644-15.644c-8.428,0-15.644,6.813-15.644,15.644v7.733h25.27
		c0,3.998,3.252,7.22,7.249,7.22c1.31,0,2.6-0.356,3.73-1.032l2.001-1.202C84.646,67.629,85.109,65.778,84.257,64.355z"/>
	<path fill="#C0DCEB" d="M40.762,63.496H18.5V52.463c0-0.552,0.448-1,1-1h20.262c0.552,0,1,0.448,1,1V63.496z"/>
	<path fill="#FFCEBF" stroke="#45413C" stroke-linecap="round" stroke-linejoin="round" stroke-miterlimit="10" d="M70.846,26.72
		v-2.407c0-5.649-4.58-10.228-10.229-10.228s-10.229,4.579-10.229,10.228v2.407c-0.997,0-1.805,0.808-1.805,1.805v0.602
		c0,0.997,0.808,1.805,1.805,1.805c0.057,0,0.111-0.011,0.166-0.017c0.847,4.795,5.025,8.44,10.062,8.44
		c5.038,0,9.215-3.645,10.062-8.44c0.056,0.005,0.109,0.017,0.166,0.017c0.997,0,1.805-0.808,1.805-1.805v-0.602
		C72.651,27.528,71.843,26.72,70.846,26.72z"/>
	
		<line fill="none" stroke="#45413C" stroke-linecap="round" stroke-linejoin="round" stroke-miterlimit="10" x1="70.244" y1="63.496" x2="70.244" y2="54.172"/>
	
		<line fill="none" stroke="#45413C" stroke-linecap="round" stroke-linejoin="round" stroke-miterlimit="10" x1="50.991" y1="63.496" x2="50.991" y2="54.172"/>
	<path fill="#FFCEBF" d="M64.227,42.769c-0.71,1.334-2.098,2.168-3.61,2.168c-1.512,0-2.9-0.834-3.61-2.168v-5.415h7.22V42.769z"/>
	<path fill="#FFB59E" d="M57.007,40.558c2.143,0.968,5.045,0.983,7.22,0v-3.204h-7.22V40.558z"/>
	<path fill="none" stroke="#45413C" stroke-linecap="round" stroke-linejoin="round" stroke-miterlimit="10" d="M64.227,42.769
		c-0.71,1.334-2.098,2.168-3.61,2.168c-1.512,0-2.9-0.834-3.61-2.168v-5.415h7.22V42.769z"/>
	<circle fill="#FFB59E" cx="54.601" cy="30.931" r="1.203"/>
	<circle fill="#FFB59E" cx="66.634" cy="30.931" r="1.203"/>
	<path fill="none" stroke="#45413C" stroke-linecap="round" stroke-linejoin="round" stroke-miterlimit="10" d="M66.033,27.723
		c-0.31-0.589-0.854-1.003-1.504-1.003c-0.651,0-1.195,0.414-1.504,1.003"/>
	<path fill="none" stroke="#45413C" stroke-linecap="round" stroke-linejoin="round" stroke-miterlimit="10" d="M58.211,27.723
		c-0.31-0.589-0.854-1.003-1.504-1.003c-0.651,0-1.195,0.414-1.504,1.003"/>
	<path fill="#656769" stroke="#45413C" stroke-linecap="round" stroke-linejoin="round" stroke-miterlimit="10" d="M49.186,24.387
		v2.303c1.762,0.136,2.585,1.096,3.008,2.407v-5.215C50.385,24.147,49.186,24.387,49.186,24.387z"/>
	<path fill="#656769" stroke="#45413C" stroke-linecap="round" stroke-linejoin="round" stroke-miterlimit="10" d="M69.041,23.882
		v5.215c0.424-1.311,1.246-2.271,3.008-2.407v-2.303C72.049,24.387,70.85,24.147,69.041,23.882z"/>
	<path fill="#00DBA8" d="M62.969,10.509c-1.568-0.085-3.135-0.085-4.703,0c-4.736,0.256-8.537,4.065-8.916,8.793
		c-0.099,1.237-0.164,3.83-0.164,5.085c0,0,6.017-1.203,11.432-1.203c5.415,0,11.432,1.203,11.432,1.203
		c0-1.255-0.065-3.848-0.164-5.085C71.506,14.575,67.705,10.765,62.969,10.509z"/>
	<path fill="#00F5BC" d="M49.35,22.333c0.379-4.728,4.181-8.537,8.916-8.793c1.568-0.085,3.135-0.085,4.703,0
		c4.736,0.256,8.537,4.065,8.916,8.793c0.041,0.512,0.076,1.257,0.103,2.042c0.04,0.008,0.061,0.012,0.061,0.012
		c0-1.255-0.065-3.848-0.164-5.085c-0.379-4.727-4.18-8.537-8.916-8.793c-1.568-0.085-3.136-0.085-4.703,0
		c-4.736,0.256-8.537,4.065-8.916,8.793c-0.099,1.237-0.164,3.83-0.164,5.085c0,0,0.021-0.004,0.061-0.012
		C49.273,23.59,49.308,22.845,49.35,22.333z"/>
	<path fill="none" stroke="#45413C" stroke-linecap="round" stroke-linejoin="round" stroke-miterlimit="10" d="M62.969,10.509
		c-1.568-0.085-3.135-0.085-4.703,0c-4.736,0.256-8.537,4.065-8.916,8.793c-0.099,1.237-0.164,3.83-0.164,5.085
		c0,0,6.017-1.203,11.432-1.203c5.415,0,11.432,1.203,11.432,1.203c0-1.255-0.065-3.848-0.164-5.085
		C71.506,14.575,67.705,10.765,62.969,10.509z"/>
	<path fill="#CCFFF3" stroke="#45413C" stroke-linecap="round" stroke-linejoin="round" stroke-miterlimit="10" d="M67.838,30.931
		c0,0-3.61,0.676-7.22-1.129c-3.61,1.805-7.22,1.129-7.22,1.129c0.618,1.813,0.72,3.786,0.472,5.867
		c1.8,1.588,4.158,2.556,6.748,2.556c2.59,0,4.949-0.969,6.748-2.556C67.118,34.717,67.219,32.744,67.838,30.931z"/>
	
		<line fill="none" stroke="#45413C" stroke-linecap="round" stroke-linejoin="round" stroke-miterlimit="10" x1="52.194" y1="29.097" x2="53.397" y2="30.931"/>
	
		<line fill="none" stroke="#45413C" stroke-linecap="round" stroke-linejoin="round" stroke-miterlimit="10" x1="69.041" y1="29.097" x2="67.838" y2="30.931"/>
	<polyline fill="#CCFFF3" stroke="#45413C" stroke-linecap="round" stroke-linejoin="round" stroke-miterlimit="10" points="
		53.999,34.014 60.618,32.811 67.236,34.014 	"/>
	<polyline fill="#CCFFF3" stroke="#45413C" stroke-linecap="round" stroke-linejoin="round" stroke-miterlimit="10" points="
		53.999,35.819 60.618,37.022 67.236,35.819 	"/>
	<path fill="#E8F4FA" d="M40.762,52.463c0-0.552-0.448-1-1-1H19.5c-0.552,0-1,0.448-1,1v3.212c0-0.665,0.539-1.203,1.203-1.203
		h19.855c0.665,0,1.203,0.539,1.203,1.203V52.463z"/>
	<path fill="none" stroke="#45413C" stroke-linejoin="round" stroke-miterlimit="10" d="M40.762,63.496H18.5V52.463
		c0-0.552,0.448-1,1-1h20.262c0.552,0,1,0.448,1,1V63.496z"/>
	<path fill="#FFFFFF" stroke="#45413C" stroke-linejoin="round" stroke-miterlimit="10" d="M39.559,51.463H19.704v-2.008
		c0-0.552,0.448-1,1-1h17.855c0.552,0,1,0.448,1,1V51.463z"/>
	<rect x="26.322" y="45.446" fill="#BDBEC0" width="6.618" height="3.008"/>
	<rect x="26.322" y="45.446" fill="#87898C" width="6.618" height="1.504"/>
	
		<rect x="26.322" y="45.446" fill="none" stroke="#45413C" stroke-linejoin="round" stroke-miterlimit="10" width="6.618" height="3.008"/>
	<path fill="#FFFFFF" stroke="#45413C" stroke-linejoin="round" stroke-miterlimit="10" d="M41.966,43.446c0,1.105-0.895,2-2,2
		H19.297c-1.105,0-2-0.895-2-2V29.997c0-1.105,0.895-2,2-2h20.669c1.105,0,2,0.895,2,2V43.446z"/>
	<path fill="#FFFFFF" stroke="#45413C" stroke-linejoin="round" stroke-miterlimit="10" d="M23.915,63.496h-2.407v-5.415
		c0-1.864,1.218-3.449,2.899-4.002c0.305-0.1,0.639-0.048,0.899,0.14c0.26,0.188,0.414,0.489,0.414,0.81v0.431
		c0,0.414-0.256,0.786-0.643,0.934c-0.679,0.26-1.162,0.918-1.162,1.687V63.496z"/>
	<path fill="#FFFFFF" stroke="#45413C" stroke-linejoin="round" stroke-miterlimit="10" d="M29.932,63.496h-2.407v-5.415
		c0-1.864,1.218-3.449,2.899-4.002c0.305-0.1,0.639-0.048,0.899,0.14c0.26,0.188,0.414,0.489,0.414,0.81v0.431
		c0,0.414-0.256,0.786-0.643,0.934c-0.679,0.26-1.162,0.918-1.162,1.687V63.496z"/>
	<circle fill="#6DD627" stroke="#45413C" stroke-linejoin="round" stroke-miterlimit="10" cx="35.949" cy="55.073" r="1.203"/>
	<circle fill="#FF6242" stroke="#45413C" stroke-linejoin="round" stroke-miterlimit="10" cx="35.949" cy="59.284" r="1.203"/>
	<path fill="#525252" d="M38.957,41.438c0,0.552-0.448,1-1,1H21.305c-0.552,0-1-0.448-1-1v-9.432c0-0.552,0.448-1,1-1h16.652
		c0.552,0,1,0.448,1,1V41.438z"/>
	<polyline fill="none" stroke="#6DD627" stroke-linejoin="round" stroke-miterlimit="10" points="20.305,37.624 23.314,37.624 
		25.119,33.412 26.322,40.031 28.127,35.217 29.33,37.624 31.737,37.624 32.94,39.429 34.144,34.616 35.347,37.624 38.957,37.624 	
		"/>
	<path fill="none" stroke="#45413C" stroke-linejoin="round" stroke-miterlimit="10" d="M38.957,41.438c0,0.552-0.448,1-1,1H21.305
		c-0.552,0-1-0.448-1-1v-9.432c0-0.552,0.448-1,1-1h16.652c0.552,0,1,0.448,1,1V41.438z"/>
	
		<line fill="none" stroke="#45413C" stroke-linejoin="round" stroke-miterlimit="10" x1="28.76" y1="55.104" x2="30.461" y2="56.805"/>
	
		<line fill="none" stroke="#45413C" stroke-linejoin="round" stroke-miterlimit="10" x1="27.525" y1="58.081" x2="29.932" y2="58.683"/>
	
		<line fill="none" stroke="#45413C" stroke-linejoin="round" stroke-miterlimit="10" x1="27.525" y1="61.09" x2="29.932" y2="61.09"/>
	
		<line fill="none" stroke="#45413C" stroke-linejoin="round" stroke-miterlimit="10" x1="22.744" y1="55.105" x2="24.444" y2="56.805"/>
	
		<line fill="none" stroke="#45413C" stroke-linejoin="round" stroke-miterlimit="10" x1="21.509" y1="58.081" x2="23.915" y2="58.683"/>
	
		<line fill="none" stroke="#45413C" stroke-linejoin="round" stroke-miterlimit="10" x1="21.509" y1="61.09" x2="23.915" y2="61.09"/>
	<path fill="#E8F4FA" stroke="#45413C" stroke-linejoin="round" stroke-miterlimit="10" d="M87.3,47.644
		c-0.154-0.196-0.404-0.292-0.65-0.248c-0.246,0.043-0.448,0.219-0.525,0.456l-2.979,9.09l1.837,2.122l1.012-3.087l0.338-0.266
		c0.892-0.701,1.556-1.65,1.909-2.728C88.84,51.157,88.487,49.153,87.3,47.644z"/>
	<path fill="#87898C" stroke="#45413C" stroke-linejoin="round" stroke-miterlimit="10" d="M81.627,71.238
		c-0.233,0.712-0.936,1.213-1.676,1.097c-0.943-0.148-1.492-1.089-1.208-1.957l4.403-13.436l1.944,2.245
		c0.219,0.253,0.289,0.602,0.185,0.919L81.627,71.238z"/>
	
		<line fill="none" stroke="#45413C" stroke-linejoin="round" stroke-miterlimit="10" x1="82.209" y1="59.8" x2="84.506" y2="62.452"/>
	<path fill="#FFFACF" stroke="#45413C" stroke-linecap="round" stroke-linejoin="round" stroke-miterlimit="10" d="M84.386,69.553
		c-0.285,0.451-0.833,0.661-1.346,0.515l-2.676-0.761c-1.534-0.436-2.424-2.033-1.989-3.568l0.395-1.389
		c0.436-1.534,2.033-2.425,3.568-1.989l2.676,0.761c0.514,0.146,0.869,0.612,0.874,1.146C85.905,66.138,85.384,67.974,84.386,69.553
		z"/>
	<path fill="#FFFEF2" d="M78.937,68.38c0.014-0.191,0.048-0.383,0.102-0.574l0.395-1.389c0.436-1.534,2.033-2.424,3.568-1.988
		l2.846,0.809c0.029-0.321,0.042-0.643,0.04-0.967c-0.005-0.534-0.361-1-0.875-1.147l-2.675-0.76
		c-1.534-0.436-3.132,0.454-3.568,1.988l-0.395,1.389C78.104,66.694,78.347,67.672,78.937,68.38z"/>
	<path fill="none" stroke="#45413C" stroke-linecap="round" stroke-linejoin="round" stroke-miterlimit="10" d="M84.385,69.554
		c-0.285,0.451-0.833,0.66-1.346,0.514l-2.675-0.76c-1.534-0.436-2.424-2.033-1.989-3.568l0.395-1.389
		c0.436-1.534,2.033-2.425,3.568-1.989l2.675,0.76c0.513,0.146,0.869,0.612,0.875,1.145c0.009,0.896-0.107,1.784-0.339,2.64
		C85.296,67.839,84.905,68.731,84.385,69.554z"/>
	<path fill="#E0E0E0" stroke="#45413C" stroke-linejoin="round" stroke-miterlimit="10" d="M60.613,77.478
		c-0.381,0.634-1.066,1.022-1.806,1.022H38.192c-0.74,0-1.425-0.388-1.806-1.022L35.5,76h26L60.613,77.478z"/>
	<path fill="#00DBA8" stroke="#45413C" stroke-linejoin="round" stroke-miterlimit="10" d="M65.5,69.5c-5,0-3.473-2.5-7.5-2.5h-0.5
		h-9h-9H39c-4.027,0-2.5,2.5-7.5,2.5l-4,9c5,0,3.5-2.5,7.527-2.5H48.5h13.473C66,76,64.5,78.5,69.5,78.5L65.5,69.5z"/>
	
		<line fill="none" stroke="#45413C" stroke-linecap="round" stroke-linejoin="round" stroke-miterlimit="10" x1="59.5" y1="69" x2="61" y2="74.5"/>
	
		<line fill="none" stroke="#45413C" stroke-linecap="round" stroke-linejoin="round" stroke-miterlimit="10" x1="37.5" y1="69" x2="36" y2="74.5"/>
	<g>
		
			<ellipse transform="matrix(0.5528 -0.8333 0.8333 0.5528 -34.4603 64.7899)" fill="none" stroke="#45413C" stroke-linejoin="round" stroke-miterlimit="10" cx="43.132" cy="64.5" rx="1.5" ry="1.5"/>
		
			<ellipse transform="matrix(0.5528 -0.8333 0.8333 0.5528 -39.1686 64.3501)" fill="none" stroke="#45413C" stroke-linejoin="round" stroke-miterlimit="10" cx="40.368" cy="68.667" rx="1.5" ry="1.5"/>
		<polyline fill="none" stroke="#45413C" stroke-linejoin="round" stroke-miterlimit="10" points="42.303,65.75 50.5,72.388 
			41.197,67.417 		"/>
	</g>
	<path fill="#DAEDF7" stroke="#45413C" stroke-linejoin="round" stroke-miterlimit="10" d="M54.344,72.092l-0.643-1.894
		l-6.155,2.091l0,0c0.656,1.018,1.922,1.459,3.069,1.07L54.344,72.092z"/>
	<path fill="#87898C" stroke="#45413C" stroke-linejoin="round" stroke-miterlimit="10" d="M54.505,72.566l-0.965-2.84l10.505-3.727
		c0.252-0.089,0.53-0.074,0.77,0.043c0.241,0.117,0.425,0.325,0.511,0.578l0.322,0.947c0.176,0.518-0.097,1.081-0.612,1.264
		L54.505,72.566z"/>
</g>
</svg>
