<?xml version="1.0" encoding="utf-8"?>
<!-- Generator: Adobe Illustrator 21.0.0, SVG Export Plug-In . SVG Version: 6.00 Build 0)  -->
<svg version="1.1" id="Layer_1" xmlns="http://www.w3.org/2000/svg" xmlns:xlink="http://www.w3.org/1999/xlink" x="0px" y="0px"
	 width="96px" height="96px" viewBox="0 0 96 96" enable-background="new 0 0 96 96" xml:space="preserve">
<g>
	<g>
		<path fill="#BDFBFC" d="M87,48C87,25.909,69.091,8,47,8S7,25.909,7,48c0,5.885,1.281,11.468,3.564,16.5h72.872
			C85.718,59.468,87,53.885,87,48z"/>
		<path fill="#FFEF9E" d="M10.564,64.5C16.849,78.357,30.794,88,47,88s30.151-9.643,36.436-23.5H10.564z"/>
		<path fill="#FFFACF" d="M81.607,68c0.659-1.137,1.282-2.296,1.829-3.5H10.564c0.546,1.204,1.17,2.363,1.829,3.5H81.607z"/>
	</g>
	<g>
		
			<line fill="none" stroke="#45413C" stroke-linecap="round" stroke-linejoin="round" stroke-miterlimit="10" x1="8" y1="64.5" x2="86" y2="64.5"/>
		
			<line fill="none" stroke="#45413C" stroke-linecap="round" stroke-linejoin="round" stroke-miterlimit="10" x1="3.5" y1="64.5" x2="6" y2="64.5"/>
		
			<line fill="none" stroke="#45413C" stroke-linecap="round" stroke-linejoin="round" stroke-miterlimit="10" x1="88" y1="64.5" x2="90.5" y2="64.5"/>
	</g>
</g>
<g>
	<g>
		<path fill="#FFFFFF" stroke="#45413C" stroke-linecap="round" stroke-linejoin="round" stroke-miterlimit="10" d="M83.054,48.856
			H43.344v-19.66c0-1.105,0.896-2,2-2h35.711c1.104,0,2,0.895,2,2V48.856z"/>
		<path fill="#ADC4D9" stroke="#45413C" stroke-linecap="round" stroke-linejoin="round" stroke-miterlimit="10" d="M84.859,50.06
			c0,0.665-0.539,1.203-1.203,1.203H42.742c-0.665,0-1.203-0.539-1.203-1.203s0.539-1.203,1.203-1.203h40.914
			C84.321,48.856,84.859,49.395,84.859,50.06z"/>
		<g>
			<path fill="#45413C" d="M54.341,35.418h-0.639c-0.52,0-0.736-0.379-0.736-0.748c0-0.379,0.271-0.746,0.736-0.746h1.539
				c0.466,0,0.726,0.335,0.726,0.769v6.165c0,0.541-0.347,0.844-0.812,0.844c-0.466,0-0.813-0.303-0.813-0.844V35.418z"/>
			<path fill="#45413C" d="M59.302,36.675c0-0.39,0.249-0.649,0.65-0.649c0.401,0,0.65,0.26,0.65,0.649v1.571h1.571
				c0.401,0,0.65,0.26,0.65,0.65c0,0.389-0.249,0.649-0.65,0.649h-1.571v1.571c0,0.39-0.249,0.649-0.65,0.649
				c-0.401,0-0.65-0.26-0.65-0.649v-1.571h-1.571c-0.401,0-0.65-0.261-0.65-0.649c0-0.391,0.249-0.65,0.65-0.65h1.571V36.675z"/>
			<path fill="#45413C" d="M64.846,35.418h-0.639c-0.52,0-0.736-0.379-0.736-0.748c0-0.379,0.271-0.746,0.736-0.746h1.539
				c0.466,0,0.726,0.335,0.726,0.769v6.165c0,0.541-0.347,0.844-0.812,0.844c-0.466,0-0.813-0.303-0.813-0.844V35.418z"/>
			<path fill="#45413C" d="M72.678,37.032c0.401,0,0.65,0.261,0.65,0.65c0,0.39-0.249,0.649-0.65,0.649h-4.442
				c-0.401,0-0.65-0.26-0.65-0.649c0-0.39,0.249-0.65,0.65-0.65H72.678z M72.678,39.459c0.401,0,0.65,0.26,0.65,0.65
				c0,0.39-0.249,0.65-0.65,0.65h-4.442c-0.401,0-0.65-0.261-0.65-0.65c0-0.391,0.249-0.65,0.65-0.65H72.678z"/>
		</g>
		<path fill="#DEA47A" stroke="#45413C" stroke-linecap="round" stroke-linejoin="round" stroke-miterlimit="10" d="M76.639,54.271
			H51.564c-0.552,0-1,0.448-1,1v1.008c0,0.552,0.448,1,1,1h25.075c0.552,0,1-0.448,1-1v-1.008
			C77.639,54.719,77.192,54.271,76.639,54.271z"/>
		<rect x="51.767" y="57.28" fill="#DEA47A" width="24.669" height="7.22"/>
		<rect x="51.767" y="57.28" fill="#BF8256" width="24.669" height="2.407"/>
		
			<rect x="51.767" y="57.28" fill="none" stroke="#45413C" stroke-linecap="round" stroke-linejoin="round" stroke-miterlimit="10" width="24.669" height="7.22"/>
		
			<rect x="74.631" y="46.45" fill="#FF6242" stroke="#45413C" stroke-linecap="round" stroke-linejoin="round" stroke-miterlimit="10" width="2.407" height="7.822"/>
		
			<rect x="72.224" y="46.45" fill="#FF6242" stroke="#45413C" stroke-linecap="round" stroke-linejoin="round" stroke-miterlimit="10" width="2.407" height="7.822"/>
		
			<rect x="68.316" y="46.296" transform="matrix(0.9158 0.4016 -0.4016 0.9158 26.0145 -23.6919)" fill="#009FD9" stroke="#45413C" stroke-linecap="round" stroke-linejoin="round" stroke-miterlimit="10" width="2.407" height="7.822"/>
	</g>
	<g>
		<path fill="#FF87AF" d="M38.531,58.436H27.7v2.407h-3.61v-10.83c0-5.441,4.436-8.945,9.025-9.04
			c4.589,0.095,9.025,3.599,9.025,9.04v3.724c0,1.264,1.028,2.293,2.293,2.293c0.683,0,1.324-0.301,1.763-0.826l1.778-2.135
			c0.343-0.413,0.848-0.649,1.385-0.649c0.42,0,0.83,0.148,1.155,0.416c0.766,0.639,0.87,1.78,0.234,2.545l-1.78,2.135
			c-1.127,1.349-2.779,2.123-4.535,2.123c-3.255,0-5.903-2.648-5.903-5.903L38.531,58.436z"/>
		<g>
			<path fill="#FFB0CA" d="M33.115,44.289c4.589,0.095,9.025,3.599,9.025,9.04c0-0.646,0-3.317,0-3.317
				c0-5.441-4.436-8.945-9.025-9.04c-4.589,0.095-9.025,3.599-9.025,9.04v3.317C24.09,47.887,28.527,44.383,33.115,44.289z"/>
		</g>
		<path fill="none" stroke="#45413C" stroke-linejoin="round" stroke-miterlimit="10" d="M38.531,58.436H27.7v2.407h-3.61v-10.83
			c0-5.441,4.436-8.945,9.025-9.04c4.589,0.095,9.025,3.599,9.025,9.04v3.724c0,1.264,1.028,2.293,2.293,2.293
			c0.683,0,1.324-0.301,1.763-0.826l1.778-2.135c0.343-0.413,0.848-0.649,1.385-0.649c0.42,0,0.83,0.148,1.155,0.416
			c0.766,0.639,0.87,1.78,0.234,2.545l-1.78,2.135c-1.127,1.349-2.779,2.123-4.535,2.123c-3.255,0-5.903-2.648-5.903-5.903
			L38.531,58.436z"/>
		<g>
			<path fill="#FFDA8F" stroke="#45413C" stroke-miterlimit="10" d="M33.107,39.182c2.69,0,4.941-1.777,5.711-4.213l0.005,0.001
				c1.902,0,2.018-3.008,0.301-3.008v-1.203c0-3.323-2.694-6.017-6.017-6.017c-3.323,0-6.017,2.694-6.017,6.017v1.203
				c-1.717,0-1.601,3.008,0.301,3.008l0.005-0.001C28.167,37.404,30.417,39.182,33.107,39.182z"/>
			<circle fill="#FFBE3D" cx="30.099" cy="33.917" r="0.602"/>
			<circle fill="#FFBE3D" cx="36.116" cy="33.917" r="0.602"/>
			<path fill="none" stroke="#45413C" stroke-linecap="round" stroke-linejoin="round" stroke-miterlimit="10" d="M31.603,35.627
				c0.911,0.607,2.098,0.607,3.008,0"/>
			<g>
				<g>
					<path fill="none" stroke="#45413C" stroke-linecap="round" stroke-linejoin="round" stroke-miterlimit="10" d="M30.099,32.211
						c0.332-0.332,0.871-0.332,1.203,0"/>
					<path fill="none" stroke="#45413C" stroke-linecap="round" stroke-linejoin="round" stroke-miterlimit="10" d="M34.912,32.211
						c0.332-0.332,0.871-0.332,1.203,0"/>
				</g>
			</g>
		</g>
		<ellipse opacity="0.15" fill="#45413C" cx="33" cy="79.094" rx="10" ry="1.5"/>
		<path fill="#FF6196" stroke="#45413C" stroke-linejoin="round" stroke-miterlimit="10" d="M33.115,77.689
			c0,0.665-0.539,1.203-1.203,1.203h-2.67c-0.371,0-0.72-0.171-0.949-0.463c-0.228-0.292-0.309-0.673-0.219-1.032l0.83-3.318h4.212
			V77.689z"/>
		<path fill="#FF6196" stroke="#45413C" stroke-linejoin="round" stroke-miterlimit="10" d="M33.115,77.689
			c0,0.665,0.539,1.203,1.203,1.203h2.671c0.371,0,0.72-0.171,0.948-0.463c0.228-0.292,0.309-0.673,0.219-1.032l-0.83-3.318h-4.212
			V77.689z"/>
		<path fill="#FFDA8F" stroke="#45413C" stroke-linecap="round" stroke-linejoin="round" stroke-miterlimit="10" d="M27.7,62.647
			c0,0.997-0.808,1.805-1.805,1.805c-0.997,0-1.805-0.808-1.805-1.805v-1.805h3.61V62.647z"/>
		<path fill="#FFDA8F" stroke="#45413C" stroke-linecap="round" stroke-linejoin="round" stroke-miterlimit="10" d="M33.115,74.605
			c0,0.997-1.109,1.805-2.106,1.805c-0.997,0-2.106-0.808-2.106-1.805v-0.526h4.212V74.605z"/>
		<path fill="#FFDA8F" stroke="#45413C" stroke-linecap="round" stroke-linejoin="round" stroke-miterlimit="10" d="M37.327,74.605
			c0,0.997-1.109,1.805-2.106,1.805c-0.997,0-2.106-0.808-2.106-1.805v-0.526h4.212V74.605z"/>
		
			<line fill="#FFFFFF" stroke="#45413C" stroke-linecap="round" stroke-linejoin="round" stroke-miterlimit="10" x1="33.115" y1="47.605" x2="33.115" y2="58.436"/>
		<path fill="none" stroke="#45413C" stroke-linecap="round" stroke-linejoin="round" stroke-miterlimit="10" d="M38.53,53.736
			c0-0.747,0.231-1.477,0.663-2.086c0.324-0.457,0.54-1.215,0.54-1.972"/>
		<path fill="none" stroke="#45413C" stroke-linecap="round" stroke-linejoin="round" stroke-miterlimit="10" d="M26.497,49.678
			c0,0.757,0.216,1.515,0.54,1.972c0.432,0.609,0.663,1.339,0.663,2.086v4.7"/>
		<path fill="#FFDA8F" stroke="#45413C" stroke-linecap="round" stroke-linejoin="round" stroke-miterlimit="10" d="M49.428,56.964
			l1.321-1.584c0.636-0.765,0.532-1.906-0.234-2.545c-0.326-0.268-0.736-0.416-1.155-0.416c-0.537,0-1.042,0.236-1.385,0.649
			l-1.11,1.333L49.428,56.964z"/>
		
			<line fill="none" stroke="#45413C" stroke-linecap="round" stroke-linejoin="round" stroke-miterlimit="10" x1="49.39" y1="54.224" x2="58.987" y2="43.815"/>
		<polygon fill="#FF6196" stroke="#45413C" stroke-linejoin="round" stroke-miterlimit="10" points="27.7,58.436 28.904,74.079 
			37.327,74.079 38.53,58.436 		"/>
		
			<line fill="#00B8F0" stroke="#45413C" stroke-linecap="round" stroke-linejoin="round" stroke-miterlimit="10" x1="33.115" y1="74.079" x2="33.115" y2="62.647"/>
		<path fill="#BF8DF2" d="M41.49,32.708c-1.275-3.84-3.684-9.17-8.374-9.17s-7.1,5.33-8.374,9.17
			c-0.962,2.896,0.432,6.049,3.201,7.329l2.775,1.297c-1.082,0.308-2.108,0.807-3.017,1.474c0.678,2.028,1.079,4.797,5.414,4.797
			c4.335,0,4.736-2.769,5.414-4.797c-0.908-0.667-1.935-1.166-3.016-1.474l2.776-1.297C41.058,38.757,42.451,35.604,41.49,32.708z
			 M33.115,39.182c-3.428,0-4.903-2.62-5.719-4.213c-0.99-1.935,2.314-7.219,5.719-7.219c3.405,0,6.709,5.285,5.719,7.219
			C38.019,36.562,36.544,39.182,33.115,39.182z"/>
		<path fill="#DABFF5" d="M33,26.844c3.687,0,6.876,2.326,8.451,5.719c-1.281-3.842-3.677-9.024-8.336-9.024
			c-4.135,0-6.496,4.142-7.871,7.754C26.965,28.604,29.794,26.844,33,26.844z"/>
		<path fill="none" stroke="#45413C" stroke-linecap="round" stroke-linejoin="round" stroke-miterlimit="10" d="M30.709,43.995
			c0,0,1.038,0.602,2.407,0.602c1.369,0,2.407-0.602,2.407-0.602"/>
		<path fill="none" stroke="#45413C" stroke-linejoin="round" stroke-miterlimit="10" d="M41.49,32.708
			c-1.275-3.84-3.684-9.17-8.374-9.17s-7.1,5.33-8.374,9.17c-0.962,2.896,0.432,6.049,3.201,7.329l2.775,1.297
			c-1.082,0.308-2.108,0.807-3.017,1.474c0.678,2.028,1.079,4.797,5.414,4.797c4.335,0,4.736-2.769,5.414-4.797
			c-0.908-0.667-1.935-1.166-3.016-1.474l2.776-1.297C41.058,38.757,42.451,35.604,41.49,32.708z M33.115,39.182
			c-3.428,0-4.903-2.62-5.719-4.213c-0.99-1.935,2.314-7.219,5.719-7.219c3.405,0,6.709,5.285,5.719,7.219
			C38.019,36.562,36.544,39.182,33.115,39.182z"/>
	</g>
</g>
</svg>
