<?xml version="1.0" encoding="utf-8"?>
<!-- Generator: Adobe Illustrator 21.0.0, SVG Export Plug-In . SVG Version: 6.00 Build 0)  -->
<svg version="1.1" id="Layer_1" xmlns="http://www.w3.org/2000/svg" xmlns:xlink="http://www.w3.org/1999/xlink" x="0px" y="0px"
	 width="96px" height="96px" viewBox="0 0 96 96" enable-background="new 0 0 96 96" xml:space="preserve">
<g>
	<g>
		<path fill="#CDF7AD" d="M48.1,88c14.798,0,27.69-8.053,34.608-20H13.492C20.41,79.947,33.302,88,48.1,88z"/>
		<path fill="#E4FFD1" d="M11.664,64.5c0.546,1.204,1.17,2.363,1.828,3.5h69.215c0.658-1.137,1.282-2.296,1.828-3.5H11.664z"/>
	</g>
	<path fill="#BDFBFC" d="M88.1,48c0-22.091-17.909-40-40-40s-40,17.909-40,40c0,5.885,1.281,11.468,3.564,16.5h72.872
		C86.818,59.468,88.1,53.885,88.1,48z"/>
	<g>
		
			<line fill="none" stroke="#45413C" stroke-linecap="round" stroke-linejoin="round" stroke-miterlimit="10" x1="9.1" y1="64.5" x2="87.1" y2="64.5"/>
		
			<line fill="none" stroke="#45413C" stroke-linecap="round" stroke-linejoin="round" stroke-miterlimit="10" x1="4.6" y1="64.5" x2="7.1" y2="64.5"/>
		
			<line fill="none" stroke="#45413C" stroke-linecap="round" stroke-linejoin="round" stroke-miterlimit="10" x1="89.1" y1="64.5" x2="91.6" y2="64.5"/>
	</g>
</g>
<g>
	<path fill="#FF6242" d="M80.1,64.5H59.7V22.3c0-0.552,0.448-1,1-1h18.4c0.552,0,1,0.448,1,1V64.5z"/>
	<path fill="#FF866E" d="M79.1,21.3H60.7c-0.553,0-1,0.448-1,1v3c0-0.552,0.447-1,1-1h18.4c0.552,0,1,0.448,1,1v-3
		C80.1,21.748,79.652,21.3,79.1,21.3z"/>
	<path fill="none" stroke="#45413C" stroke-linecap="round" stroke-linejoin="round" stroke-miterlimit="10" d="M80.1,64.5H59.7
		V22.3c0-0.552,0.448-1,1-1h18.4c0.552,0,1,0.448,1,1V64.5z"/>
	
		<rect x="20.1" y="32.7" fill="#FFE500" stroke="#45413C" stroke-linecap="round" stroke-linejoin="round" stroke-miterlimit="10" width="39.6" height="2.4"/>
	
		<rect x="20.1" y="39.3" fill="#FF6242" stroke="#45413C" stroke-linecap="round" stroke-linejoin="round" stroke-miterlimit="10" width="39.6" height="2.4"/>
	<polygon fill="#00B8F0" points="48.3,41.7 31.5,41.7 20.1,41.7 20.1,64.5 31.5,64.5 48.3,64.5 59.7,64.5 59.7,41.7 	"/>
	<polygon fill="#4ACFFF" points="51.748,41.7 20.1,41.7 20.1,64.5 28.948,64.5 	"/>
	<g>
		<path fill="#8CA4B8" stroke="#45413C" stroke-linecap="round" stroke-linejoin="round" stroke-miterlimit="10" d="M27.9,62.1h-4.2
			c-0.663,0-1.2,0.537-1.2,1.2l0,0c0,0.663,0.537,1.2,1.2,1.2h4.2c0.663,0,1.2-0.537,1.2-1.2l0,0C29.1,62.637,28.563,62.1,27.9,62.1
			z"/>
		<path fill="none" stroke="#45413C" stroke-linecap="round" stroke-linejoin="round" stroke-miterlimit="10" d="M22.5,63.3v-5.808
			c0-0.507,0.201-0.994,0.56-1.353l1.24-1.24h3l1.24,1.24c0.359,0.359,0.56,0.845,0.56,1.353V63.3"/>
		<path fill="#BDBEC0" stroke="#45413C" stroke-linecap="round" stroke-linejoin="round" stroke-miterlimit="10" d="M27.3,54.9h-3
			v-1.4c0-0.552,0.448-1,1-1h1c0.552,0,1,0.448,1,1V54.9z"/>
	</g>
	<g>
		<path fill="#8CA4B8" stroke="#45413C" stroke-linecap="round" stroke-linejoin="round" stroke-miterlimit="10" d="M42,63.3
			c0-0.663-0.537-1.2-1.2-1.2h-4.2c-0.663,0-1.2,0.537-1.2,1.2l0,0c0,0.663,0.537,1.2,1.2,1.2h4.2C41.463,64.5,42,63.963,42,63.3
			L42,63.3z"/>
		<path fill="none" stroke="#45413C" stroke-linecap="round" stroke-linejoin="round" stroke-miterlimit="10" d="M35.4,63.3v-5.808
			c0-0.507,0.201-0.994,0.56-1.353l1.24-1.24h3l1.24,1.24c0.359,0.359,0.56,0.845,0.56,1.353V63.3"/>
		<path fill="#BDBEC0" stroke="#45413C" stroke-linecap="round" stroke-linejoin="round" stroke-miterlimit="10" d="M40.2,54.9h-3
			v-1.4c0-0.552,0.448-1,1-1h1c0.552,0,1,0.448,1,1V54.9z"/>
	</g>
	<g>
		<path fill="#8CA4B8" stroke="#45413C" stroke-linecap="round" stroke-linejoin="round" stroke-miterlimit="10" d="M54.9,63.3
			c0-0.663-0.537-1.2-1.2-1.2h-4.2c-0.663,0-1.2,0.537-1.2,1.2l0,0c0,0.663,0.537,1.2,1.2,1.2h4.2
			C54.363,64.5,54.9,63.963,54.9,63.3L54.9,63.3z"/>
		<path fill="none" stroke="#45413C" stroke-linecap="round" stroke-linejoin="round" stroke-miterlimit="10" d="M48.3,63.3v-5.808
			c0-0.507,0.201-0.994,0.56-1.353l1.24-1.24h3l1.24,1.24c0.359,0.359,0.56,0.845,0.56,1.353V63.3"/>
		<path fill="#BDBEC0" stroke="#45413C" stroke-linecap="round" stroke-linejoin="round" stroke-miterlimit="10" d="M53.1,54.9h-3
			v-1.4c0-0.552,0.448-1,1-1h1c0.552,0,1,0.448,1,1V54.9z"/>
	</g>
	<polygon fill="none" stroke="#45413C" stroke-linecap="round" stroke-linejoin="round" stroke-miterlimit="10" points="48.3,41.7 
		31.5,41.7 20.1,41.7 20.1,64.5 31.5,64.5 48.3,64.5 59.7,64.5 59.7,41.7 	"/>
	<path fill="#FF6242" d="M82.5,64.5H57.3v-17c0-0.552,0.448-1,1-1h23.2c0.552,0,1,0.448,1,1V64.5z"/>
	<path fill="#FF866E" d="M81.5,46.5H58.3c-0.552,0-1,0.448-1,1v1.781c0-0.552,0.448-1,1-1h23.2c0.552,0,1,0.448,1,1V47.5
		C82.5,46.948,82.052,46.5,81.5,46.5z"/>
	<path fill="none" stroke="#45413C" stroke-linecap="round" stroke-linejoin="round" stroke-miterlimit="10" d="M82.5,64.5H57.3v-17
		c0-0.552,0.448-1,1-1h23.2c0.552,0,1,0.448,1,1V64.5z"/>
	<path fill="#BDBEC0" d="M16.5,64.5h3.6V31.3c0-0.552-0.448-1-1-1h-1.6c-0.552,0-1,0.448-1,1V64.5z"/>
	<rect x="16.5" y="37.5" fill="#87898C" width="3.6" height="27"/>
	<path fill="none" stroke="#45413C" stroke-linecap="round" stroke-linejoin="round" stroke-miterlimit="10" d="M16.5,64.5h3.6V31.3
		c0-0.552-0.448-1-1-1h-1.6c-0.552,0-1,0.448-1,1V64.5z"/>
	
		<rect x="20.1" y="35.1" fill="#87898C" stroke="#45413C" stroke-linecap="round" stroke-linejoin="round" stroke-miterlimit="10" width="39.6" height="4.2"/>
	<rect x="60.9" y="50.7" fill="#00B8F0" width="18" height="13.8"/>
	<polygon fill="#4ACFFF" points="68.737,50.7 60.9,50.7 60.9,58.537 	"/>
	
		<rect x="60.9" y="50.7" fill="none" stroke="#45413C" stroke-linecap="round" stroke-linejoin="round" stroke-miterlimit="10" width="18" height="13.8"/>
	<polygon fill="#4ACFFF" points="66.3,56.1 69.9,56.1 66.3,59.7 	"/>
	
		<rect x="66.3" y="56.1" fill="none" stroke="#45413C" stroke-linecap="round" stroke-linejoin="round" stroke-miterlimit="10" width="3.6" height="8.4"/>
	<polygon fill="#4ACFFF" points="69.9,56.1 73.5,56.1 69.9,59.7 	"/>
	
		<rect x="69.9" y="56.1" fill="none" stroke="#45413C" stroke-linecap="round" stroke-linejoin="round" stroke-miterlimit="10" width="3.6" height="8.4"/>
	<circle fill="#FFF48C" cx="69.9" cy="32.1" r="7.2"/>
	<path fill="#FFE500" d="M69.9,29.7c-3.134,0-5.792,2.005-6.782,4.8c0.99,2.795,3.648,4.8,6.782,4.8s5.792-2.005,6.782-4.8
		C75.692,31.705,73.034,29.7,69.9,29.7z"/>
	
		<circle fill="none" stroke="#45413C" stroke-linecap="round" stroke-linejoin="round" stroke-miterlimit="10" cx="69.9" cy="32.1" r="7.2"/>
	<path fill="#BDBEC0" stroke="#45413C" stroke-linecap="round" stroke-linejoin="round" stroke-miterlimit="10" d="M69.476,35.918
		l-0.849,0.848c-0.234,0.234-0.614,0.234-0.848,0l-2.546-2.546c-0.234-0.234-0.234-0.614,0-0.848l0.848-0.848
		c0.234-0.234,0.614-0.234,0.849,0l2.546,2.546C69.71,35.304,69.71,35.684,69.476,35.918z"/>
	<path fill="#BDBEC0" stroke="#45413C" stroke-linecap="round" stroke-linejoin="round" stroke-miterlimit="10" d="M74.567,30.827
		l-0.849,0.848c-0.234,0.234-0.614,0.234-0.849,0l-2.546-2.546c-0.234-0.234-0.234-0.614,0-0.848l0.849-0.849
		c0.234-0.234,0.614-0.234,0.849,0l2.546,2.546C74.801,30.213,74.801,30.593,74.567,30.827z"/>
	
		<rect x="68.7" y="29.7" transform="matrix(0.7071 0.7071 -0.7071 0.7071 43.1714 -40.0249)" fill="#BDBEC0" stroke="#45413C" stroke-linecap="round" stroke-linejoin="round" stroke-miterlimit="10" width="2.4" height="4.8"/>
	
		<line fill="none" stroke="#45413C" stroke-linecap="round" stroke-linejoin="round" stroke-miterlimit="10" x1="66.3" y1="56.1" x2="66.3" y2="50.7"/>
	
		<line fill="none" stroke="#45413C" stroke-linecap="round" stroke-linejoin="round" stroke-miterlimit="10" x1="73.5" y1="56.1" x2="73.5" y2="50.7"/>
	
		<line fill="none" stroke="#45413C" stroke-linecap="round" stroke-linejoin="round" stroke-miterlimit="10" x1="73.5" y1="60.3" x2="78.9" y2="60.3"/>
	
		<line fill="none" stroke="#45413C" stroke-linecap="round" stroke-linejoin="round" stroke-miterlimit="10" x1="66.3" y1="60.3" x2="60.9" y2="60.3"/>
	
		<line fill="none" stroke="#45413C" stroke-linecap="round" stroke-linejoin="round" stroke-miterlimit="10" x1="31.5" y1="41.7" x2="31.5" y2="64.5"/>
	
		<line fill="none" stroke="#45413C" stroke-linecap="round" stroke-linejoin="round" stroke-miterlimit="10" x1="48.3" y1="41.7" x2="48.3" y2="64.5"/>
	
		<line fill="none" stroke="#45413C" stroke-linecap="round" stroke-linejoin="round" stroke-miterlimit="10" x1="20.1" y1="47.1" x2="57.3" y2="47.1"/>
	
		<line fill="none" stroke="#45413C" stroke-linecap="round" stroke-linejoin="round" stroke-miterlimit="10" x1="20.1" y1="59.1" x2="57.3" y2="59.1"/>
</g>
</svg>
