<?xml version="1.0" encoding="utf-8"?>
<!-- Generator: Adobe Illustrator 21.0.0, SVG Export Plug-In . SVG Version: 6.00 Build 0)  -->
<svg version="1.1" id="Layer_1" xmlns="http://www.w3.org/2000/svg" xmlns:xlink="http://www.w3.org/1999/xlink" x="0px" y="0px"
	 width="96px" height="96px" viewBox="0 0 96 96" enable-background="new 0 0 96 96" xml:space="preserve">
<g>
	<g>
		<path fill="#BDFBFC" d="M87.892,48c0-22.091-17.909-40-40-40s-40,17.909-40,40c0,5.885,1.282,11.468,3.564,16.5h72.872
			C86.61,59.468,87.892,53.885,87.892,48z"/>
		<path fill="#FCEFD9" d="M11.455,64.5C17.741,78.357,31.685,88,47.891,88c16.206,0,30.151-9.643,36.436-23.5H11.455z"/>
		<path fill="#FFF5E3" d="M82.499,68c0.659-1.137,1.282-2.296,1.829-3.5H11.455c0.546,1.204,1.17,2.363,1.829,3.5H82.499z"/>
	</g>
	<g>
		
			<line fill="none" stroke="#45413C" stroke-linecap="round" stroke-linejoin="round" stroke-miterlimit="10" x1="8.892" y1="64.5" x2="86.892" y2="64.5"/>
		
			<line fill="none" stroke="#45413C" stroke-linecap="round" stroke-linejoin="round" stroke-miterlimit="10" x1="4.391" y1="64.5" x2="6.891" y2="64.5"/>
		
			<line fill="none" stroke="#45413C" stroke-linecap="round" stroke-linejoin="round" stroke-miterlimit="10" x1="88.892" y1="64.5" x2="91.392" y2="64.5"/>
	</g>
</g>
<g>
	<ellipse opacity="0.15" fill="#45413C" cx="38.291" cy="79.5" rx="10" ry="1.5"/>
	<path fill="#614B44" d="M36.365,47.475c0.614,0.27,1.258,0.425,1.927,0.425c0.668,0,1.312-0.155,1.927-0.425
		c0.432,0.632,1.022,1.025,1.673,1.025c1.325,0,2.4-1.612,2.4-3.6c0-0.207-0.018-0.407-0.041-0.605c0.014,0,0.027,0.005,0.041,0.005
		c0.994,0,1.8-0.94,1.8-2.1c0-0.647-0.256-1.219-0.651-1.604c1.06-0.374,1.851-1.793,1.851-3.496c0-1.122-0.35-2.112-0.886-2.772
		c0.179-0.326,0.286-0.712,0.286-1.128c0-1.16-0.806-2.1-1.8-2.1c-0.085,0-0.167,0.016-0.25,0.029
		c-1.213-3.587-3.601-6.029-6.35-6.029s-5.138,2.442-6.35,6.029c-0.082-0.013-0.164-0.029-0.25-0.029c-0.994,0-1.8,0.94-1.8,2.1
		c0,0.416,0.107,0.802,0.286,1.128c-0.537,0.66-0.886,1.65-0.886,2.772c0,1.704,0.791,3.123,1.851,3.496
		c-0.395,0.385-0.651,0.957-0.651,1.604c0,1.16,0.806,2.1,1.8,2.1c0.014,0,0.027-0.004,0.041-0.005
		c-0.022,0.198-0.041,0.398-0.041,0.605c0,1.988,1.075,3.6,2.4,3.6C35.343,48.5,35.932,48.107,36.365,47.475z"/>
	<path fill="none" stroke="#45413C" stroke-linecap="round" stroke-linejoin="round" stroke-miterlimit="10" d="M36.365,47.475
		c0.614,0.27,1.258,0.425,1.927,0.425c0.668,0,1.312-0.155,1.927-0.425c0.432,0.632,1.022,1.025,1.673,1.025
		c1.325,0,2.4-1.612,2.4-3.6c0-0.207-0.018-0.407-0.041-0.605c0.014,0,0.027,0.005,0.041,0.005c0.994,0,1.8-0.94,1.8-2.1
		c0-0.647-0.256-1.219-0.651-1.604c1.06-0.374,1.851-1.793,1.851-3.496c0-1.122-0.35-2.112-0.886-2.772
		c0.179-0.326,0.286-0.712,0.286-1.128c0-1.16-0.806-2.1-1.8-2.1c-0.085,0-0.167,0.016-0.25,0.029
		c-1.213-3.587-3.601-6.029-6.35-6.029s-5.138,2.442-6.35,6.029c-0.082-0.013-0.164-0.029-0.25-0.029c-0.994,0-1.8,0.94-1.8,2.1
		c0,0.416,0.107,0.802,0.286,1.128c-0.537,0.66-0.886,1.65-0.886,2.772c0,1.704,0.791,3.123,1.851,3.496
		c-0.395,0.385-0.651,0.957-0.651,1.604c0,1.16,0.806,2.1,1.8,2.1c0.014,0,0.027-0.004,0.041-0.005
		c-0.022,0.198-0.041,0.398-0.041,0.605c0,1.988,1.075,3.6,2.4,3.6C35.343,48.5,35.932,48.107,36.365,47.475z"/>
	<path fill="#FFDA8F" stroke="#45413C" stroke-linecap="round" stroke-linejoin="round" stroke-miterlimit="10" d="M32.291,33.5
		c0,3.314,2.686,6,6,6c3.314,0,6-2.686,6-6v-2.4c0-3.314-2.686-6-6-6c-3.314,0-6,2.686-6,6V33.5z"/>
	<circle fill="#FFBE3D" cx="34.689" cy="34.1" r="0.6"/>
	<circle fill="#FFBE3D" cx="41.889" cy="34.1" r="0.6"/>
	<path fill="none" stroke="#45413C" stroke-linecap="round" stroke-linejoin="round" stroke-miterlimit="10" d="M36.791,35.955
		c0.908,0.606,2.092,0.606,3,0"/>
	<path fill="none" stroke="#45413C" stroke-linecap="round" stroke-linejoin="round" stroke-miterlimit="10" d="M35.291,32.549
		c0.331-0.331,0.869-0.331,1.2,0"/>
	<path fill="none" stroke="#45413C" stroke-linecap="round" stroke-linejoin="round" stroke-miterlimit="10" d="M40.091,32.549
		c0.331-0.331,0.869-0.331,1.2,0"/>
	<path fill="#525252" d="M41.519,24.5h-6.456c-1.233,0-2.265,0.934-2.388,2.161L32.291,30.5l1.955-0.978
		c0.285-0.142,0.614-0.166,0.916-0.065l2.749,0.916c0.246,0.082,0.513,0.082,0.759,0l2.749-0.916
		c0.302-0.101,0.631-0.077,0.916,0.065l1.955,0.978l-0.384-3.839C43.785,25.434,42.752,24.5,41.519,24.5z"/>
	<path fill="#656769" d="M34.682,26.5h7.219c0.834,0,1.585,0.342,2.079,0.883l-0.072-0.722c-0.123-1.227-1.155-2.161-2.388-2.161
		h-6.456c-1.233,0-2.265,0.934-2.388,2.161l-0.072,0.722C33.097,26.842,33.849,26.5,34.682,26.5z"/>
	<path fill="none" stroke="#45413C" stroke-linecap="round" stroke-linejoin="round" stroke-miterlimit="10" d="M41.519,24.5h-6.456
		c-1.233,0-2.265,0.934-2.388,2.161L32.291,30.5l1.955-0.978c0.285-0.142,0.614-0.166,0.916-0.065l2.749,0.916
		c0.246,0.082,0.513,0.082,0.759,0l2.749-0.916c0.302-0.101,0.631-0.077,0.916,0.065l1.955,0.978l-0.384-3.839
		C43.785,25.434,42.752,24.5,41.519,24.5z"/>
	
		<line fill="none" stroke="#45413C" stroke-linecap="round" stroke-linejoin="round" stroke-miterlimit="10" x1="28.091" y1="24.5" x2="48.491" y2="24.5"/>
	<path fill="#525252" stroke="#45413C" stroke-linecap="round" stroke-linejoin="round" stroke-miterlimit="10" d="M39.491,23.9
		c0-0.663-0.537-1.2-1.2-1.2c-0.663,0-1.2,0.537-1.2,1.2v0.6h2.4V23.9z"/>
	
		<line fill="none" stroke="#45413C" stroke-linecap="round" stroke-linejoin="round" stroke-miterlimit="10" x1="49.691" y1="35.9" x2="49.691" y2="27.5"/>
	
		<line fill="none" stroke="#45413C" stroke-linecap="round" stroke-linejoin="round" stroke-miterlimit="10" x1="47.891" y1="34.1" x2="47.891" y2="28.536"/>
	
		<line fill="none" stroke="#45413C" stroke-linecap="round" stroke-linejoin="round" stroke-miterlimit="10" x1="48.491" y1="26.3" x2="48.491" y2="24.5"/>
	
		<circle fill="#525252" stroke="#45413C" stroke-linecap="round" stroke-linejoin="round" stroke-miterlimit="10" cx="48.491" cy="27.5" r="1.2"/>
	<polygon fill="#FFDA8F" stroke="#45413C" stroke-linecap="round" stroke-linejoin="round" stroke-miterlimit="10" points="
		38.291,77.9 41.891,77.9 42.491,68.3 38.291,68.3 	"/>
	<polygon fill="#FFBE3D" points="38.291,73.7 38.291,68.3 42.491,68.3 42.154,73.7 	"/>
	<polygon fill="none" stroke="#45413C" stroke-linecap="round" stroke-linejoin="round" stroke-miterlimit="10" points="
		38.291,77.9 41.891,77.9 42.491,68.3 38.291,68.3 	"/>
	<polygon fill="#FFDA8F" stroke="#45413C" stroke-linecap="round" stroke-linejoin="round" stroke-miterlimit="10" points="
		38.291,77.9 34.691,77.9 34.091,68.3 38.291,68.3 	"/>
	<polygon fill="#FFBE3D" points="38.291,73.7 38.291,68.3 34.091,68.3 34.429,73.7 	"/>
	<polygon fill="none" stroke="#45413C" stroke-linecap="round" stroke-linejoin="round" stroke-miterlimit="10" points="
		38.291,77.9 34.691,77.9 34.091,68.3 38.291,68.3 	"/>
	
		<line fill="none" stroke="#45413C" stroke-linecap="round" stroke-linejoin="round" stroke-miterlimit="10" x1="38.291" y1="68.3" x2="38.291" y2="77.9"/>
	<path fill="#656769" stroke="#45413C" stroke-linecap="round" stroke-linejoin="round" stroke-miterlimit="10" d="M34.159,78.5
		c-0.357,0-0.687-0.191-0.866-0.5c-0.179-0.309-0.179-0.691,0-1c0.519-0.897,1.488-1.5,2.599-1.5c1.326,0,2.4,1.075,2.4,2.4
		c0,0.331-0.269,0.6-0.6,0.6H34.159z"/>
	<path fill="#656769" stroke="#45413C" stroke-linecap="round" stroke-linejoin="round" stroke-miterlimit="10" d="M42.424,78.5
		c0.357,0,0.687-0.191,0.866-0.5c0.179-0.309,0.179-0.691,0-1c-0.519-0.897-1.488-1.5-2.599-1.5c-1.326,0-2.4,1.075-2.4,2.4
		c0,0.331,0.269,0.6,0.6,0.6H42.424z"/>
	<path fill="#FFFFFF" stroke="#45413C" stroke-linecap="round" stroke-linejoin="round" stroke-miterlimit="10" d="M47.291,50.3
		c0-4.971-4.029-9-9-9c-4.971,0-9,4.029-9,9v3.3h14.4v7.5h3.6V50.3z"/>
	
		<line fill="none" stroke="#45413C" stroke-linecap="round" stroke-linejoin="round" stroke-miterlimit="10" x1="32.891" y1="60.5" x2="32.891" y2="48.5"/>
	
		<line fill="none" stroke="#45413C" stroke-linecap="round" stroke-linejoin="round" stroke-miterlimit="10" x1="43.691" y1="60.5" x2="43.691" y2="48.5"/>
	
		<line fill="none" stroke="#45413C" stroke-linecap="round" stroke-linejoin="round" stroke-miterlimit="10" x1="38.293" y1="43.7" x2="38.291" y2="56.9"/>
	<path fill="#FFFFFF" stroke="#45413C" stroke-linecap="round" stroke-linejoin="round" stroke-miterlimit="10" d="M36.309,45.022
		l1.983-1.321L38.29,43.7l0.001-0.001l-2.959-1.901c-0.639,0.222-1.245,0.515-1.809,0.868L36.309,45.022z"/>
	<path fill="#FFFFFF" stroke="#45413C" stroke-linecap="round" stroke-linejoin="round" stroke-miterlimit="10" d="M40.274,45.022
		l-1.983-1.321l0.002-0.001l-0.002-0.001l2.959-1.901c0.639,0.222,1.245,0.515,1.809,0.868L40.274,45.022z"/>
	<path fill="#FFDA8F" stroke="#45413C" stroke-linecap="round" stroke-linejoin="round" stroke-miterlimit="10" d="M43.691,62.9
		c0,0.994,0.806,1.8,1.8,1.8c0.994,0,1.8-0.806,1.8-1.8v-1.8h-3.6V62.9z"/>
	<path fill="#FFDA8F" stroke="#45413C" stroke-linecap="round" stroke-linejoin="round" stroke-miterlimit="10" d="M32.891,52.001
		c0,0,0,0.72,0,1.128c0,2.937-2.371,5.398-5.4,5.398c-2.685,0-3.864-1.626-5.773-3.534c-0.703-0.703-0.703-1.842,0-2.545
		c0.703-0.703,1.842-0.703,2.545,0c1.545,1.545,2.067,2.458,3.227,2.458c1.057,0,1.8-0.812,1.8-1.775
		c0-0.37,0.002-1.128,0.002-1.128H32.891z"/>
	<path fill="#FFFFFF" stroke="#45413C" stroke-linecap="round" stroke-linejoin="round" stroke-miterlimit="10" d="M24.264,52.447
		c1.545,1.545,2.067,2.458,3.227,2.458c1.057,0,1.8-0.812,1.8-1.775c0-0.37,0.002-1.128,0.002-1.128h3.598c0,0,0,0.72,0,1.128
		c0,2.937-2.371,5.398-5.4,5.398c-2.685,0-3.864-1.626-5.773-3.534L24.264,52.447z"/>
	<path fill="#87898C" d="M31.329,43.696c-1.634,1.72-2.638,4.043-2.638,6.604v1.8h0.003l-0.003,1.03c0,0.67-0.515,1.175-1.2,1.175
		c-0.5,0-0.844-0.253-1.455-0.88l-2.026,4.559c0.937,0.684,2.005,1.143,3.482,1.143c2.386,0,4.434-1.41,5.4-3.43V70.3
		c0,0.552,0.448,1,1,1h4.4V49.54L31.329,43.696z"/>
	<path fill="#656769" d="M31.329,43.696c-1.634,1.72-2.638,4.043-2.638,6.604v1.701h9.6V49.54L31.329,43.696z"/>
	<path fill="none" stroke="#45413C" stroke-linecap="round" stroke-linejoin="round" stroke-miterlimit="10" d="M31.329,43.696
		c-1.634,1.72-2.638,4.043-2.638,6.604v1.8h0.003l-0.003,1.03c0,0.67-0.515,1.175-1.2,1.175c-0.5,0-0.844-0.253-1.455-0.88
		l-2.026,4.559c0.937,0.684,2.005,1.143,3.482,1.143c2.386,0,4.434-1.41,5.4-3.43V70.3c0,0.552,0.448,1,1,1h4.4V49.54L31.329,43.696
		z"/>
	<g>
		<path fill="#87898C" d="M45.254,43.696l-6.962,5.844V71.3h4.4c0.552,0,1-0.448,1-1V58.7h3.2c0.552,0,1-0.448,1-1v-7.4
			C47.891,47.74,46.888,45.416,45.254,43.696z"/>
	</g>
	<path fill="#656769" d="M45.254,43.696l-6.962,5.844v2.461h9.6V50.3C47.891,47.74,46.888,45.416,45.254,43.696z"/>
	<g>
		<path fill="none" stroke="#45413C" stroke-linecap="round" stroke-linejoin="round" stroke-miterlimit="10" d="M45.254,43.696
			l-6.962,5.844v0.76v21h4.4c0.552,0,1-0.448,1-1V58.7h3.2c0.552,0,1-0.448,1-1v-7.4C47.891,47.74,46.888,45.416,45.254,43.696z"/>
	</g>
	
		<line fill="none" stroke="#45413C" stroke-linecap="round" stroke-linejoin="round" stroke-miterlimit="10" x1="32.891" y1="48.5" x2="32.891" y2="55.7"/>
	
		<line fill="none" stroke="#45413C" stroke-linecap="round" stroke-linejoin="round" stroke-miterlimit="10" x1="43.691" y1="48.5" x2="43.691" y2="58.7"/>
	<path fill="#525252" d="M38.291,49.54c0,0-3.909-3.281-6.959-5.841C29.7,45.42,28.691,47.74,28.691,50.3h19.2
		c0-2.56-1.008-4.88-2.641-6.601L38.291,49.54z"/>
	<path fill="#656769" d="M46.138,50.3h1.754c0-2.56-1.008-4.88-2.641-6.601l-3.311,2.779C43.717,47.268,45.19,48.615,46.138,50.3z"
		/>
	<path fill="#656769" d="M34.644,46.478c-1.073-0.901-2.244-1.883-3.311-2.779C29.7,45.42,28.691,47.74,28.691,50.3h1.754
		C31.393,48.615,32.866,47.268,34.644,46.478z"/>
	<path fill="none" stroke="#45413C" stroke-linecap="round" stroke-linejoin="round" stroke-miterlimit="10" d="M38.291,49.54
		c0,0-3.909-3.281-6.959-5.841C29.7,45.42,28.691,47.74,28.691,50.3h19.2c0-2.56-1.008-4.88-2.641-6.601L38.291,49.54z"/>
	<path fill="#FFE500" d="M31.333,43.699c3.049,2.559,6.959,5.841,6.959,5.841l6.959-5.841c-0.326-0.343-0.675-0.663-1.047-0.955
		c-0.374-0.294-0.9-0.283-1.263,0.024L38.291,46.7l-4.648-3.933c-0.362-0.306-0.89-0.317-1.263-0.023
		C32.008,43.036,31.659,43.356,31.333,43.699z"/>
	<path fill="#FFF48C" d="M41.939,46.478l3.311-2.779c-0.326-0.343-0.675-0.663-1.047-0.955c-0.374-0.294-0.9-0.284-1.263,0.024
		l-3.554,3.007C40.285,45.883,41.142,46.124,41.939,46.478z"/>
	<path fill="#FFF48C" d="M37.197,45.774l-3.554-3.007c-0.362-0.306-0.89-0.317-1.263-0.023c-0.372,0.292-0.722,0.612-1.047,0.955
		c1.067,0.896,2.237,1.878,3.311,2.779C35.441,46.124,36.298,45.883,37.197,45.774z"/>
	<path fill="none" stroke="#45413C" stroke-linecap="round" stroke-linejoin="round" stroke-miterlimit="10" d="M31.333,43.699
		c3.049,2.559,6.959,5.841,6.959,5.841l6.959-5.841c-0.326-0.343-0.675-0.663-1.047-0.955c-0.374-0.294-0.9-0.283-1.263,0.024
		L38.291,46.7l-4.648-3.933c-0.362-0.306-0.89-0.317-1.263-0.023C32.008,43.036,31.659,43.356,31.333,43.699z"/>
	<path fill="#FFFFFF" stroke="#45413C" stroke-linecap="round" stroke-linejoin="round" stroke-miterlimit="10" d="M22.691,58.23
		c-0.138,0.736-0.909,1.167-1.608,0.9l-1.237-0.473c-0.699-0.267-0.986-1.103-0.598-1.743l2.732-4.507l0.971-5.18
		c0.138-0.736,0.909-1.167,1.608-0.9l1.237,0.473c0.699,0.267,0.986,1.103,0.598,1.743l-2.732,4.507L22.691,58.23z"/>
	<path fill="#FFDA8F" stroke="#45413C" stroke-linecap="round" stroke-linejoin="round" stroke-miterlimit="10" d="M23.082,50.645
		c0.59,0.114,1.102,0.451,1.438,0.949c0.391,0.579,0.494,1.296,0.271,1.975c-0.361,1.101-1.574,1.689-2.712,1.469l-0.572-0.111
		c-0.802-0.155-1.332-0.922-1.194-1.727l0.253-1.479c0.142-0.83,0.938-1.381,1.764-1.221L23.082,50.645z"/>
	<path fill="none" stroke="#45413C" stroke-linecap="round" stroke-linejoin="round" stroke-miterlimit="10" d="M60.192,44.499v-1
		c0-0.63,0.296-1.222,0.8-1.6l1.2-0.9"/>
	<g>
		<path fill="#45413C" d="M62.192,39.999c-0.552,0-1,0.448-1,1c0,0.552,0.448,1,1,1s1-0.448,1-1
			C63.192,40.446,62.744,39.999,62.192,39.999L62.192,39.999z"/>
	</g>
	<path fill="none" stroke="#45413C" stroke-linecap="round" stroke-linejoin="round" stroke-miterlimit="10" d="M71.192,44.499v-1
		c0-0.63-0.296-1.222-0.8-1.6l-1.2-0.9"/>
	<g>
		<path fill="#45413C" d="M69.192,39.999c-0.552,0-1,0.448-1,1c0,0.552,0.448,1,1,1s1-0.448,1-1
			C70.192,40.446,69.744,39.999,69.192,39.999L69.192,39.999z"/>
	</g>
	<path fill="#BF8256" stroke="#45413C" stroke-linecap="round" stroke-linejoin="round" stroke-miterlimit="10" d="M73.5,62.5h-16
		c-0.552,0-1,0.448-1,1v1h18v-1C74.5,62.948,74.052,62.5,73.5,62.5z"/>
	<path fill="#BF8256" d="M73.5,43.499h-16c-0.552,0-1,0.448-1,1v8c0,0.552,0.448,1,1,1h16c0.552,0,1-0.448,1-1v-8
		C74.5,43.946,74.052,43.499,73.5,43.499z"/>
	<path fill="#DEA47A" d="M73.5,43.5h-16c-0.552,0-1,0.448-1,1v2c0-0.552,0.448-1,1-1h16c0.552,0,1,0.448,1,1v-2
		C74.5,43.948,74.052,43.5,73.5,43.5z"/>
	<path fill="none" stroke="#45413C" stroke-linecap="round" stroke-linejoin="round" stroke-miterlimit="10" d="M73.5,43.499h-16
		c-0.552,0-1,0.448-1,1v8c0,0.552,0.448,1,1,1h16c0.552,0,1-0.448,1-1v-8C74.5,43.946,74.052,43.499,73.5,43.499z"/>
	<rect x="59.5" y="53.499" fill="#BF8256" width="12" height="9.001"/>
	<rect x="59.5" y="53.499" fill="#915E3A" width="12" height="2.5"/>
	
		<rect x="59.5" y="53.499" fill="none" stroke="#45413C" stroke-linecap="round" stroke-linejoin="round" stroke-miterlimit="10" width="12" height="9.001"/>
	
		<circle fill="#FFE500" stroke="#45413C" stroke-linecap="round" stroke-linejoin="round" stroke-miterlimit="10" cx="65.692" cy="48.499" r="3"/>
	<rect x="61.5" y="53.499" fill="#F7E5C6" width="8" height="9.001"/>
	<rect x="61.5" y="53.5" fill="#F0D5A8" width="8" height="2.5"/>
	
		<rect x="61.5" y="53.499" fill="none" stroke="#45413C" stroke-linecap="round" stroke-linejoin="round" stroke-miterlimit="10" width="8" height="9.001"/>
	<path fill="#6DD627" stroke="#45413C" stroke-linecap="round" stroke-linejoin="round" stroke-miterlimit="10" d="M81.157,34.795
		c-1.35,2.011-3.235,3.079-5.653,3.205L73.5,34.467c2.419-0.126,4.303-1.195,5.654-3.206L81.157,34.795z"/>
	<path fill="#00B8F0" stroke="#45413C" stroke-linecap="round" stroke-linejoin="round" stroke-miterlimit="10" d="M63.644,19.642
		c1.829,0.861,2.947,2.281,3.356,4.261L64.337,26c-0.408-1.98-1.527-3.4-3.356-4.261L63.644,19.642z"/>
	<path fill="#00B8F0" stroke="#45413C" stroke-linecap="round" stroke-linejoin="round" stroke-miterlimit="10" d="M29.422,69.869
		c-2.011,0.202-3.701-0.441-5.069-1.929l1.206-3.168c1.368,1.488,3.058,2.131,5.069,1.929L29.422,69.869z"/>
	<path fill="#FF6242" stroke="#45413C" stroke-linecap="round" stroke-linejoin="round" stroke-miterlimit="10" d="M46.144,17.961
		c-2.006,0.275-3.72-0.307-5.144-1.746L42.091,13c1.424,1.439,3.138,2.022,5.144,1.746L46.144,17.961z"/>
	<path fill="#FF6242" stroke="#45413C" stroke-linecap="round" stroke-linejoin="round" stroke-miterlimit="10" d="M55.5,35.122
		c0.623-1.926,1.891-3.219,3.806-3.876l2.423,2.378c-1.915,0.658-3.183,1.95-3.806,3.876L55.5,35.122z"/>
	<path fill="#FFE500" stroke="#45413C" stroke-linecap="round" stroke-linejoin="round" stroke-miterlimit="10" d="M21.736,34.84
		c0.71,2.003,0.478,3.889-0.698,5.66L17.5,40.064c1.176-1.77,1.409-3.657,0.698-5.66L21.736,34.84z"/>
	<path fill="#FFE500" stroke="#45413C" stroke-linecap="round" stroke-linejoin="round" stroke-miterlimit="10" d="M66,70.764
		c-0.813,1.963-2.249,3.209-4.308,3.736l-2.335-2.692c2.059-0.527,3.495-1.773,4.308-3.736L66,70.764z"/>
</g>
</svg>
