<?xml version="1.0" encoding="utf-8"?>
<!-- Generator: Adobe Illustrator 21.0.0, SVG Export Plug-In . SVG Version: 6.00 Build 0)  -->
<svg version="1.1" id="Layer_1" xmlns="http://www.w3.org/2000/svg" xmlns:xlink="http://www.w3.org/1999/xlink" x="0px" y="0px"
	 width="96px" height="96px" viewBox="0 0 96 96" enable-background="new 0 0 96 96" xml:space="preserve">
<g>
	<g>
		<path fill="#CDF7AD" d="M48,88c14.798,0,27.69-8.053,34.608-20H13.392C20.31,79.947,33.202,88,48,88z"/>
		<path fill="#E4FFD1" d="M11.564,64.5c0.546,1.204,1.17,2.363,1.828,3.5h69.215c0.658-1.137,1.282-2.296,1.828-3.5H11.564z"/>
	</g>
	<path fill="#BDFBFC" d="M88,48C88,25.909,70.091,8,48,8S8,25.909,8,48c0,5.885,1.281,11.468,3.564,16.5h72.872
		C86.718,59.468,88,53.885,88,48z"/>
	<g>
		
			<line fill="none" stroke="#45413C" stroke-linecap="round" stroke-linejoin="round" stroke-miterlimit="10" x1="9" y1="64.5" x2="87" y2="64.5"/>
		
			<line fill="none" stroke="#45413C" stroke-linecap="round" stroke-linejoin="round" stroke-miterlimit="10" x1="4.5" y1="64.5" x2="7" y2="64.5"/>
		
			<line fill="none" stroke="#45413C" stroke-linecap="round" stroke-linejoin="round" stroke-miterlimit="10" x1="89" y1="64.5" x2="91.5" y2="64.5"/>
	</g>
</g>
<g>
	<path fill="#F7E5C6" d="M47.7,64.488h-9.627V39.014c0-0.552,0.448-1,1-1H47.7V64.488z"/>
	<path fill="#FFF5E3" d="M47.7,40.722h-9.627v-1.708c0-0.552,0.448-1,1-1H47.7V40.722z"/>
	<path fill="none" stroke="#45413C" stroke-linecap="round" stroke-linejoin="round" stroke-miterlimit="10" d="M47.7,64.488h-9.627
		V39.014c0-0.552,0.448-1,1-1H47.7V64.488z"/>
	<path fill="#FFFEF2" d="M92.224,49.446c0,0.997-0.808,1.805-1.805,1.805H75.377v-3.61h15.042
		C91.415,47.641,92.224,48.449,92.224,49.446z"/>
	<path fill="#FFFFFF" d="M92.038,50.243c0.118-0.24,0.185-0.511,0.185-0.797c0-0.997-0.808-1.805-1.805-1.805H75.377v1.594h15.042
		C91.129,49.235,91.744,49.646,92.038,50.243z"/>
	<rect x="75.377" y="47.641" fill="#F7E5C6" width="1.745" height="3.61"/>
	<path fill="none" stroke="#45413C" stroke-linecap="round" stroke-linejoin="round" stroke-miterlimit="10" d="M92.224,49.446
		c0,0.997-0.808,1.805-1.805,1.805H75.377v-3.61h15.042C91.415,47.641,92.224,48.449,92.224,49.446z"/>
	<polygon fill="#C0DCEB" points="83.199,64.488 86.207,64.488 88.614,51.251 85.605,51.251 	"/>
	<polygon fill="#ADC4D9" points="85.292,52.972 88.301,52.972 88.614,51.251 85.605,51.251 	"/>
	<polygon fill="none" stroke="#45413C" stroke-linecap="round" stroke-linejoin="round" stroke-miterlimit="10" points="
		83.199,64.488 86.207,64.488 88.614,51.251 85.605,51.251 	"/>
	<path fill="#FFFEF2" d="M75.377,64.488H47.7V20.964c0-0.552,0.448-1,1-1h25.677c0.552,0,1,0.448,1,1V64.488z"/>
	<rect x="47.7" y="39.218" fill="#F7E5C6" width="27.677" height="3.008"/>
	<rect x="47.7" y="22.972" fill="#F7E5C6" width="27.677" height="3.008"/>
	<path fill="none" stroke="#45413C" stroke-linecap="round" stroke-linejoin="round" stroke-miterlimit="10" d="M75.377,64.488H47.7
		V20.964c0-0.552,0.448-1,1-1h25.677c0.552,0,1,0.448,1,1V64.488z"/>
	<path fill="#DAEDF7" stroke="#45413C" stroke-linecap="round" stroke-linejoin="round" stroke-miterlimit="10" d="M76.58,38.218
		c0,0.552-0.448,1-1,1H47.496c-0.552,0-1-0.448-1-1v-1.008c0-0.552,0.448-1,1-1H75.58c0.552,0,1,0.448,1,1V38.218z"/>
	<path fill="#DAEDF7" d="M76.58,22.972H46.496v-2.008c0-0.552,0.448-1,1-1H75.58c0.552,0,1,0.448,1,1V22.972z"/>
	<path fill="#FFFFFF" d="M75.58,19.964H47.496c-0.552,0-1,0.448-1,1v1.504c0-0.552,0.448-1,1-1H75.58c0.552,0,1,0.448,1,1v-1.504
		C76.58,20.412,76.132,19.964,75.58,19.964z"/>
	<rect x="52.278" y="19.964" fill="#C0DCEB" width="2.04" height="3.008"/>
	<rect x="68.758" y="19.964" fill="#C0DCEB" width="2.04" height="3.008"/>
	<path fill="none" stroke="#45413C" stroke-linecap="round" stroke-linejoin="round" stroke-miterlimit="10" d="M76.58,22.972
		H46.496v-2.008c0-0.552,0.448-1,1-1H75.58c0.552,0,1,0.448,1,1V22.972z"/>
	<path fill="#F0F0F0" d="M68.758,22.777c0,1.105-0.896,2-2,2h-10.44c-1.104,0-2-0.895-2-2v-10.44c0-1.105,0.896-2,2-2h10.44
		c1.104,0,2,0.895,2,2V22.777z"/>
	<path fill="#FFFFFF" d="M66.758,10.337h-10.44c-1.104,0-2,0.895-2,2v1.755c0-1.105,0.896-2,2-2h10.44c1.104,0,2,0.895,2,2v-1.755
		C68.758,11.233,67.863,10.337,66.758,10.337z"/>
	<path fill="none" stroke="#45413C" stroke-linecap="round" stroke-linejoin="round" stroke-miterlimit="10" d="M68.758,22.777
		c0,1.105-0.896,2-2,2h-10.44c-1.104,0-2-0.895-2-2v-10.44c0-1.105,0.896-2,2-2h10.44c1.104,0,2,0.895,2,2V22.777z"/>
	<path fill="#FF6242" stroke="#45413C" stroke-linecap="round" stroke-linejoin="round" stroke-miterlimit="10" d="M65.352,15.752
		h-2.008v-2.008c0-0.552-0.448-1-1-1h-1.61c-0.552,0-1,0.448-1,1v2.008h-2.008c-0.552,0-1,0.448-1,1v1.61c0,0.552,0.448,1,1,1h2.008
		v2.008c0,0.552,0.448,1,1,1h1.61c0.552,0,1-0.448,1-1v-2.008h2.008c0.552,0,1-0.448,1-1v-1.61
		C66.352,16.2,65.904,15.752,65.352,15.752z"/>
	<path fill="#00B8F0" d="M68.157,64.488H54.92V52.251c0-0.552,0.448-1,1-1h11.237c0.552,0,1,0.448,1,1V64.488z"/>
	<path fill="#4ACFFF" d="M67.157,51.251H55.92c-0.552,0-1,0.448-1,1v11.568l12.525-12.525
		C67.354,51.266,67.257,51.251,67.157,51.251z"/>
	<path fill="none" stroke="#45413C" stroke-linecap="round" stroke-linejoin="round" stroke-miterlimit="10" d="M68.157,64.488
		H54.92V52.251c0-0.552,0.448-1,1-1h11.237c0.552,0,1,0.448,1,1V64.488z"/>
	
		<line fill="none" stroke="#45413C" stroke-linecap="round" stroke-linejoin="round" stroke-miterlimit="10" x1="61.538" y1="51.251" x2="61.538" y2="64.488"/>
	<g>
		<path fill="#00B8F0" d="M56.123,32.201c0,0.552-0.448,1-1,1H52.31c-0.552,0-1-0.448-1-1v-3.415c0-0.552,0.448-1,1-1h2.813
			c0.552,0,1,0.448,1,1V32.201z"/>
		<path fill="#4ACFFF" d="M55.757,28.013c-0.173-0.142-0.394-0.227-0.634-0.227H52.31c-0.552,0-1,0.448-1,1v3.415
			c0,0.08,0.01,0.158,0.027,0.232L55.757,28.013z"/>
		<path fill="none" stroke="#45413C" stroke-linecap="round" stroke-linejoin="round" stroke-miterlimit="10" d="M56.123,32.201
			c0,0.552-0.448,1-1,1H52.31c-0.552,0-1-0.448-1-1v-3.415c0-0.552,0.448-1,1-1h2.813c0.552,0,1,0.448,1,1V32.201z"/>
	</g>
	<g>
		<path fill="#00B8F0" d="M63.945,32.201c0,0.552-0.448,1-1,1h-2.813c-0.552,0-1-0.448-1-1v-3.415c0-0.552,0.448-1,1-1h2.813
			c0.552,0,1,0.448,1,1V32.201z"/>
		<path fill="#4ACFFF" d="M63.579,28.013c-0.173-0.142-0.394-0.227-0.634-0.227h-2.813c-0.552,0-1,0.448-1,1v3.415
			c0,0.08,0.01,0.158,0.027,0.232L63.579,28.013z"/>
		<path fill="none" stroke="#45413C" stroke-linecap="round" stroke-linejoin="round" stroke-miterlimit="10" d="M63.945,32.201
			c0,0.552-0.448,1-1,1h-2.813c-0.552,0-1-0.448-1-1v-3.415c0-0.552,0.448-1,1-1h2.813c0.552,0,1,0.448,1,1V32.201z"/>
	</g>
	<g>
		<path fill="#00B8F0" d="M71.767,32.201c0,0.552-0.448,1-1,1h-2.813c-0.552,0-1-0.448-1-1v-3.415c0-0.552,0.448-1,1-1h2.813
			c0.552,0,1,0.448,1,1V32.201z"/>
		<path fill="#4ACFFF" d="M71.401,28.013c-0.173-0.142-0.394-0.227-0.635-0.227h-2.813c-0.552,0-1,0.448-1,1v3.415
			c0,0.08,0.009,0.158,0.027,0.232L71.401,28.013z"/>
		<path fill="none" stroke="#45413C" stroke-linecap="round" stroke-linejoin="round" stroke-miterlimit="10" d="M71.767,32.201
			c0,0.552-0.448,1-1,1h-2.813c-0.552,0-1-0.448-1-1v-3.415c0-0.552,0.448-1,1-1h2.813c0.552,0,1,0.448,1,1V32.201z"/>
	</g>
	<g>
		<path fill="#00B8F0" d="M71.767,46.641c0,0.552-0.448,1-1,1h-2.813c-0.552,0-1-0.448-1-1v-3.415c0-0.552,0.448-1,1-1h2.813
			c0.552,0,1,0.448,1,1V46.641z"/>
		<path fill="#4ACFFF" d="M71.401,42.453c-0.173-0.142-0.394-0.227-0.635-0.227h-2.813c-0.552,0-1,0.448-1,1v3.415
			c0,0.08,0.009,0.158,0.027,0.232L71.401,42.453z"/>
		<path fill="none" stroke="#45413C" stroke-linecap="round" stroke-linejoin="round" stroke-miterlimit="10" d="M71.767,46.641
			c0,0.552-0.448,1-1,1h-2.813c-0.552,0-1-0.448-1-1v-3.415c0-0.552,0.448-1,1-1h2.813c0.552,0,1,0.448,1,1V46.641z"/>
	</g>
	<g>
		<path fill="#00B8F0" d="M63.945,46.641c0,0.552-0.448,1-1,1h-2.813c-0.552,0-1-0.448-1-1v-3.415c0-0.552,0.448-1,1-1h2.813
			c0.552,0,1,0.448,1,1V46.641z"/>
		<path fill="#4ACFFF" d="M63.579,42.453c-0.173-0.142-0.394-0.227-0.634-0.227h-2.813c-0.552,0-1,0.448-1,1v3.415
			c0,0.08,0.01,0.158,0.027,0.232L63.579,42.453z"/>
		<path fill="none" stroke="#45413C" stroke-linecap="round" stroke-linejoin="round" stroke-miterlimit="10" d="M63.945,46.641
			c0,0.552-0.448,1-1,1h-2.813c-0.552,0-1-0.448-1-1v-3.415c0-0.552,0.448-1,1-1h2.813c0.552,0,1,0.448,1,1V46.641z"/>
	</g>
	<g>
		<path fill="#00B8F0" d="M56.123,46.641c0,0.552-0.448,1-1,1H52.31c-0.552,0-1-0.448-1-1v-3.415c0-0.552,0.448-1,1-1h2.813
			c0.552,0,1,0.448,1,1V46.641z"/>
		<path fill="#4ACFFF" d="M55.757,42.453c-0.173-0.142-0.394-0.227-0.634-0.227H52.31c-0.552,0-1,0.448-1,1v3.415
			c0,0.08,0.01,0.158,0.027,0.232L55.757,42.453z"/>
		<path fill="none" stroke="#45413C" stroke-linecap="round" stroke-linejoin="round" stroke-miterlimit="10" d="M56.123,46.641
			c0,0.552-0.448,1-1,1H52.31c-0.552,0-1-0.448-1-1v-3.415c0-0.552,0.448-1,1-1h2.813c0.552,0,1,0.448,1,1V46.641z"/>
	</g>
	<g>
		<path fill="#00B8F0" d="M45.293,46.641c0,0.552-0.448,1-1,1h-2.813c-0.552,0-1-0.448-1-1v-3.415c0-0.552,0.448-1,1-1h2.813
			c0.552,0,1,0.448,1,1V46.641z"/>
		<path fill="#4ACFFF" d="M44.927,42.453c-0.173-0.142-0.394-0.227-0.634-0.227H41.48c-0.552,0-1,0.448-1,1v3.415
			c0,0.08,0.01,0.158,0.027,0.232L44.927,42.453z"/>
		<path fill="none" stroke="#45413C" stroke-linecap="round" stroke-linejoin="round" stroke-miterlimit="10" d="M45.293,46.641
			c0,0.552-0.448,1-1,1h-2.813c-0.552,0-1-0.448-1-1v-3.415c0-0.552,0.448-1,1-1h2.813c0.552,0,1,0.448,1,1V46.641z"/>
	</g>
	<g>
		<path fill="#00B8F0" d="M45.293,55.666c0,0.552-0.448,1-1,1h-2.813c-0.552,0-1-0.448-1-1v-3.415c0-0.552,0.448-1,1-1h2.813
			c0.552,0,1,0.448,1,1V55.666z"/>
		<path fill="#4ACFFF" d="M44.927,51.478c-0.173-0.142-0.394-0.227-0.634-0.227H41.48c-0.552,0-1,0.448-1,1v3.415
			c0,0.08,0.01,0.158,0.027,0.232L44.927,51.478z"/>
		<path fill="none" stroke="#45413C" stroke-linecap="round" stroke-linejoin="round" stroke-miterlimit="10" d="M45.293,55.666
			c0,0.552-0.448,1-1,1h-2.813c-0.552,0-1-0.448-1-1v-3.415c0-0.552,0.448-1,1-1h2.813c0.552,0,1,0.448,1,1V55.666z"/>
	</g>
	<g>
		<path fill="#F0F0F0" d="M31.492,41.624c-5.981,0-10.83,4.849-10.83,10.83v3.61v0.438c0,3.571,2.009,6.243,3.916,7.641
			l-0.784,7.056c-0.031,0.283,0.059,0.565,0.249,0.777c0.19,0.212,0.461,0.333,0.745,0.333h13.409c0.284,0,0.555-0.121,0.745-0.333
			c0.19-0.212,0.28-0.495,0.249-0.777l-0.784-7.056c1.906-1.398,3.916-4.071,3.916-7.641v-0.438v-3.61
			C42.322,46.473,37.473,41.624,31.492,41.624z"/>
		<g>
			<path fill="#FFFFFF" d="M31.492,41.624c-5.982,0-10.83,4.849-10.83,10.83v3.61l0.026,0.034
				c0.273-5.739,4.998-10.311,10.804-10.311c5.806,0,10.531,4.572,10.804,10.311l0.026-0.034v-3.61
				C42.322,46.473,37.473,41.624,31.492,41.624z"/>
		</g>
		<path fill="none" stroke="#45413C" stroke-linecap="round" stroke-linejoin="round" stroke-miterlimit="10" d="M31.492,41.624
			c-5.981,0-10.83,4.849-10.83,10.83v3.61v0.438c0,3.571,2.009,6.243,3.916,7.641l-0.784,7.056
			c-0.031,0.283,0.059,0.565,0.249,0.777c0.19,0.212,0.461,0.333,0.745,0.333h13.409c0.284,0,0.555-0.121,0.745-0.333
			c0.19-0.212,0.28-0.495,0.249-0.777l-0.784-7.056c1.906-1.398,3.916-4.071,3.916-7.641v-0.438v-3.61
			C42.322,46.473,37.473,41.624,31.492,41.624z"/>
		<ellipse opacity="0.15" fill="#45413C" cx="31.661" cy="79.928" rx="9.5" ry="1.5"/>
		<g>
			<path fill="#FFCEBF" stroke="#45413C" stroke-linecap="round" stroke-linejoin="round" stroke-miterlimit="10" d="M31.5,39.624
				c2.69,0,4.941-1.777,5.711-4.213l0.005,0.001c1.902,0,2.018-3.008,0.301-3.008v-1.203c0-3.323-2.694-6.017-6.017-6.017
				c-3.323,0-6.017,2.694-6.017,6.017v1.203c-1.717,0-1.601,3.008,0.301,3.008l0.005-0.001C26.559,37.847,28.81,39.624,31.5,39.624z
				"/>
			<g>
				<g>
					<path fill="#45413C" d="M29.542,31.802c-0.415,0-0.752,0.337-0.752,0.752s0.337,0.752,0.752,0.752s0.752-0.337,0.752-0.752
						S29.958,31.802,29.542,31.802L29.542,31.802z"/>
				</g>
			</g>
			<g>
				<g>
					<path fill="#45413C" d="M33.453,31.802c-0.415,0-0.752,0.337-0.752,0.752s0.337,0.752,0.752,0.752
						c0.415,0,0.752-0.337,0.752-0.752S33.869,31.802,33.453,31.802L33.453,31.802z"/>
				</g>
			</g>
			<circle fill="#FFB59E" cx="27.888" cy="34.209" r="0.602"/>
			<circle fill="#FFB59E" cx="35.108" cy="34.209" r="0.602"/>
			<path fill="none" stroke="#45413C" stroke-linecap="round" stroke-linejoin="round" stroke-miterlimit="10" d="M29.995,36.069
				c0.911,0.607,2.098,0.607,3.008,0"/>
		</g>
		<g>
			<path fill="#614B44" stroke="#45413C" stroke-linecap="round" stroke-linejoin="round" stroke-miterlimit="10" d="M28.182,28.778
				c2.638,2.559,7.188,2.137,9.928,1.21c-0.005-3.651-2.966-6.61-6.618-6.61c-3.656,0-6.619,2.963-6.619,6.619
				c0,0.433,0,2.09,0,2.09S28.182,31.26,28.182,28.778"/>
			<path fill="#947063" d="M31.492,26.296c2.672,0,4.959,1.591,6.005,3.87c0.206-0.059,0.423-0.113,0.613-0.177
				c-0.005-3.651-2.966-6.61-6.618-6.61c-3.656,0-6.619,2.963-6.619,6.619c0,0.433,0,2.09,0,2.09s0.051-0.014,0.086-0.024
				C25.381,28.815,28.128,26.296,31.492,26.296z"/>
			<path fill="none" stroke="#45413C" stroke-linecap="round" stroke-linejoin="round" stroke-miterlimit="10" d="M28.182,28.778
				c2.638,2.559,7.188,2.137,9.928,1.21c-0.005-3.651-2.966-6.61-6.618-6.61c-3.656,0-6.619,2.963-6.619,6.619
				c0,0.433,0,2.09,0,2.09S28.182,31.26,28.182,28.778"/>
			<path fill="none" stroke="#45413C" stroke-linecap="round" stroke-linejoin="round" stroke-miterlimit="10" d="M28.182,28.778
				c-0.305-0.296-0.349-0.249-0.597-0.628"/>
		</g>
		<polygon fill="#656769" stroke="#45413C" stroke-linecap="round" stroke-linejoin="round" stroke-miterlimit="10" points="
			29.687,78.327 29.948,72.31 24.873,72.31 24.873,78.327 		"/>
		<polygon fill="#656769" stroke="#45413C" stroke-linecap="round" stroke-linejoin="round" stroke-miterlimit="10" points="
			33.297,78.327 33.035,72.31 38.11,72.31 38.11,78.327 		"/>
		<path fill="#915E3A" stroke="#45413C" stroke-linecap="round" stroke-linejoin="round" stroke-miterlimit="10" d="M24.116,77.381
			c-0.201,0.307-0.218,0.7-0.043,1.024c0.175,0.323,0.513,0.523,0.88,0.523h4.116c0.349,0,0.673-0.182,0.854-0.48
			c0.181-0.298,0.195-0.67,0.034-0.979C28.865,75.359,25.363,75.477,24.116,77.381z"/>
		<path fill="#915E3A" stroke="#45413C" stroke-linecap="round" stroke-linejoin="round" stroke-miterlimit="10" d="M38.867,77.381
			c0.201,0.307,0.218,0.7,0.043,1.024c-0.175,0.323-0.513,0.523-0.88,0.523h-4.117c-0.349,0-0.673-0.182-0.854-0.48
			c-0.182-0.298-0.195-0.67-0.034-0.979C34.119,75.359,37.62,75.477,38.867,77.381z"/>
		<path fill="none" d="M32.747,65.69c-0.006-0.138-0.047-0.265-0.093-0.388c-0.317-0.208-0.599-0.46-0.85-0.753
			c-0.102-0.027-0.202-0.061-0.312-0.061c-0.11,0-0.21,0.034-0.312,0.061c-0.25,0.293-0.533,0.545-0.85,0.753
			c-0.047,0.123-0.088,0.25-0.094,0.388l-0.288,6.62h3.087L32.747,65.69z"/>
		<path fill="none" stroke="#45413C" stroke-linecap="round" stroke-linejoin="round" stroke-miterlimit="10" d="M24.873,52.454
			v4.048c0,1.693,0.721,3.131,2.337,4.265c0.378,0.265,0.526,0.756,0.356,1.185l-0.852,2.157c-0.107,0.271-0.327,0.482-0.603,0.578
			c-0.275,0.095-0.579,0.066-0.831-0.081c-0.231-0.135-0.469-0.29-0.707-0.465"/>
		<path fill="none" stroke="#45413C" stroke-linecap="round" stroke-linejoin="round" stroke-miterlimit="10" d="M38.11,52.454
			v4.048c0,1.693-0.721,3.131-2.338,4.265c-0.378,0.265-0.526,0.756-0.356,1.185l0.852,2.157c0.107,0.271,0.327,0.482,0.603,0.578
			c0.276,0.095,0.579,0.066,0.831-0.081c0.231-0.135,0.468-0.29,0.707-0.465"/>
		<polygon fill="#B8ECFF" stroke="#45413C" stroke-linecap="round" stroke-linejoin="round" stroke-miterlimit="10" points="
			28.575,46.966 31.492,54.259 34.409,46.966 31.492,44.633 		"/>
		<polygon fill="#00B8F0" stroke="#45413C" stroke-linejoin="round" stroke-miterlimit="10" points="29.841,50.134 31.492,44.633 
			33.142,50.134 31.492,54.259 		"/>
		<path fill="#FFCEBF" stroke="#45413C" stroke-linecap="round" stroke-linejoin="round" stroke-miterlimit="10" d="M31.492,41.624
			c-0.84,0-1.657,0.096-2.442,0.276l2.442,2.732l2.442-2.732C33.149,41.72,32.331,41.624,31.492,41.624z"/>
		<path fill="#B8ECFF" stroke="#45413C" stroke-linecap="round" stroke-linejoin="round" stroke-miterlimit="10" d="M28.575,46.966
			l2.917-2.334l-2.442-2.732c-0.766,0.177-1.501,0.435-2.196,0.764L28.575,46.966z"/>
		<path fill="#B8ECFF" stroke="#45413C" stroke-linecap="round" stroke-linejoin="round" stroke-miterlimit="10" d="M34.409,46.966
			l-2.917-2.334l2.442-2.732c0.766,0.177,1.501,0.435,2.196,0.764L34.409,46.966z"/>
		<path fill="#FFFFFF" stroke="#45413C" stroke-linejoin="round" stroke-miterlimit="10" d="M26.678,47.641l-0.536,2.68
			c-0.04,0.199,0.044,0.402,0.213,0.514l5.136,3.424l-4.633-11.583c-0.548,0.26-1.072,0.559-1.564,0.904l-1.35,3.375
			c-0.062,0.154-0.043,0.329,0.05,0.466c0.093,0.137,0.248,0.22,0.414,0.22H26.678z"/>
		<path fill="#FFFFFF" stroke="#45413C" stroke-linejoin="round" stroke-miterlimit="10" d="M36.305,47.641l0.536,2.68
			c0.04,0.199-0.044,0.402-0.213,0.514l-5.136,3.424l4.633-11.583c0.548,0.26,1.072,0.559,1.564,0.904l1.35,3.375
			c0.062,0.154,0.043,0.329-0.05,0.466c-0.093,0.137-0.248,0.22-0.414,0.22H36.305z"/>
		
			<line fill="none" stroke="#45413C" stroke-linecap="round" stroke-linejoin="round" stroke-miterlimit="10" x1="31.492" y1="72.31" x2="31.492" y2="54.259"/>
	</g>
</g>
</svg>
