<?xml version="1.0" encoding="utf-8"?>
<!-- Generator: Adobe Illustrator 21.0.0, SVG Export Plug-In . SVG Version: 6.00 Build 0)  -->
<svg version="1.1" id="Layer_1" xmlns="http://www.w3.org/2000/svg" xmlns:xlink="http://www.w3.org/1999/xlink" x="0px" y="0px"
	 width="96px" height="96px" viewBox="0 0 96 96" enable-background="new 0 0 96 96" xml:space="preserve">
<circle fill="#BDFBFC" cx="47" cy="55" r="40"/>
<g>
	<path fill="#FFFFFF" stroke="#45413C" stroke-linejoin="round" stroke-miterlimit="10" d="M60,4.407C60,3.078,58.922,2,57.593,2
		H37.136c-1.329,0-2.407,1.078-2.407,2.407v18.491c0,1.329,1.077,2.406,2.406,2.406h4.416c0.552,0,1,0.448,1,1v2.603
		c0,0.404,0.244,0.769,0.617,0.924c0.374,0.155,0.804,0.069,1.09-0.217l4.017-4.017c0.188-0.188,0.442-0.293,0.707-0.293h8.611
		c1.329,0,2.407-1.078,2.407-2.407V4.407z"/>
	<g>
		<g>
			<polygon fill="#D18660" points="26.322,79.275 26.58,73.713 22.712,73.713 22.712,79.275 			"/>
			<polygon fill="#BD704A" points="26.451,76.492 26.58,73.713 22.712,73.713 22.712,76.492 			"/>
			<polygon fill="none" stroke="#45413C" stroke-linecap="round" stroke-linejoin="round" stroke-miterlimit="10" points="
				26.322,79.275 26.58,73.713 22.712,73.713 22.712,79.275 			"/>
		</g>
		<g>
			<polygon fill="#D18660" points="31.135,79.275 30.877,73.713 34.745,73.713 34.745,79.275 			"/>
			<polygon fill="#BD704A" points="31.006,76.492 30.877,73.713 34.745,73.713 34.745,76.492 			"/>
			<polygon fill="none" stroke="#45413C" stroke-linecap="round" stroke-linejoin="round" stroke-miterlimit="10" points="
				31.135,79.275 30.877,73.713 34.745,73.713 34.745,79.275 			"/>
		</g>
		<path fill="#DEA47A" d="M37.753,54.23c0-5.317-4.31-9.627-9.626-9.627c-5.317,0-9.627,4.31-9.627,9.627v1.203h3.61v7.822h13.237
			v-7.822h2.407V54.23z"/>
		<g>
			<path fill="#D18660" stroke="#45413C" stroke-linecap="round" stroke-linejoin="round" stroke-miterlimit="10" d="M29.33,28.163
				c-3.323,0-6.017,2.694-6.017,6.017v1.203c-1.718,0-1.6,3.008,0.301,3.008l0.005-0.001c0.77,2.436,3.021,4.213,5.711,4.213
				c3.323,0,6.017-2.693,6.017-6.017V34.18C35.347,30.856,32.653,28.163,29.33,28.163z"/>
			<g>
				<path fill="#45413C" d="M28.277,35.383c-0.416,0-0.753,0.337-0.753,0.752c0,0.415,0.337,0.752,0.753,0.752
					c0.415,0,0.752-0.337,0.752-0.752C29.029,35.72,28.692,35.383,28.277,35.383L28.277,35.383z"/>
			</g>
			<g>
				<path fill="#45413C" d="M32.79,35.383c-0.415,0-0.752,0.337-0.752,0.752c0,0.415,0.337,0.752,0.752,0.752
					c0.416,0,0.752-0.337,0.752-0.752C33.542,35.72,33.205,35.383,32.79,35.383L32.79,35.383z"/>
			</g>
			<circle fill="#BD704A" cx="26.923" cy="37.939" r="0.602"/>
			<path fill="none" stroke="#45413C" stroke-linecap="round" stroke-linejoin="round" stroke-miterlimit="10" d="M29.33,39.649
				c0.638,0.532,1.444,0.598,2.124,0.199c0.097-0.057,0.191-0.123,0.283-0.199"/>
		</g>
		<path fill="#87898C" stroke="#45413C" stroke-linecap="round" stroke-linejoin="round" stroke-miterlimit="10" d="M22.11,36.736
			L22.11,36.736v-6.769h3.008v3.76C25.118,35.389,23.771,36.736,22.11,36.736z"/>
		<path fill="#F0C2A1" d="M28.127,44.602c-5.317,0-9.627,4.31-9.627,9.627v1.203h0.17c0.833-4.467,4.747-7.852,9.457-7.852
			c4.709,0,8.622,3.384,9.456,7.852h0.17V54.23C37.753,48.913,33.443,44.602,28.127,44.602z"/>
		<path fill="none" stroke="#45413C" stroke-linecap="round" stroke-linejoin="round" stroke-miterlimit="10" d="M37.753,54.23
			c0-5.317-4.31-9.627-9.626-9.627c-5.317,0-9.627,4.31-9.627,9.627v1.203h3.61v7.822h13.237v-7.822h2.407V54.23z"/>
		<ellipse opacity="0.15" fill="#45413C" cx="29.5" cy="82.407" rx="10" ry="1.5"/>
		<path fill="#915E3A" stroke="#45413C" stroke-linecap="round" stroke-linejoin="round" stroke-miterlimit="10" d="M32.347,26.357
			H25.11c-1.657,0-3,1.343-3,3v2.415h13.237v-2.415C35.347,27.701,34.004,26.357,32.347,26.357z"/>
		<path fill="#915E3A" stroke="#45413C" stroke-linejoin="round" stroke-miterlimit="10" d="M28.729,26.357
			c0,0-3.61,1.805-3.61,4.813"/>
		<path fill="#915E3A" stroke="#45413C" stroke-linejoin="round" stroke-miterlimit="10" d="M28.729,26.357
			c0,0,3.61,1.805,3.61,4.813"/>
		<g>
			<path fill="#DEA47A" d="M26.234,74.085c0.531,0,0.97-0.416,0.999-0.946l0.24-4.47c0.029-0.672,0.583-1.202,1.256-1.202
				c0.673,0,1.226,0.53,1.256,1.202l0.24,4.47c0.028,0.531,0.467,0.946,0.999,0.946h3.124c0.552,0,1-0.448,1-1V62.052H29.33h-1.203
				H22.11v11.033c0,0.552,0.448,1,1,1H26.234z"/>
			<rect x="22.11" y="63.255" fill="#BF8256" width="13.237" height="2.407"/>
			<path fill="none" stroke="#45413C" stroke-linecap="round" stroke-linejoin="round" stroke-miterlimit="10" d="M27.473,68.669
				c0.029-0.672,0.583-1.202,1.256-1.202c0.673,0,1.226,0.53,1.256,1.202l0.24,4.47c0.028,0.531,0.467,0.946,0.999,0.946h3.124
				c0.552,0,1-0.448,1-1V62.052H29.33h-1.203H22.11v11.033c0,0.552,0.448,1,1,1h3.124c0.531,0,0.97-0.416,0.999-0.946L27.473,68.669
				z"/>
		</g>
		<path fill="#87898C" stroke="#45413C" stroke-linecap="round" stroke-linejoin="round" stroke-miterlimit="10" d="M37.152,81.907
			c0-2.154-2.106-3.008-3.969-3.008h-1.649c-0.552,0-1,0.448-1,1v1.008c0,0.552,0.448,1,1,1H37.152z"/>
		<path fill="#87898C" stroke="#45413C" stroke-linecap="round" stroke-linejoin="round" stroke-miterlimit="10" d="M28.729,81.907
			c0-2.154-2.106-3.008-3.969-3.008h-1.65c-0.552,0-1,0.448-1,1v1.008c0,0.552,0.448,1,1,1H28.729z"/>
		<path fill="#D18660" stroke="#45413C" stroke-linecap="round" stroke-linejoin="round" stroke-miterlimit="10" d="M22.11,66.263
			c0,0.996-0.808,1.805-1.805,1.805c-0.997,0-1.805-0.809-1.805-1.805V55.432h3.61V66.263z"/>
		
			<line fill="#00B8F0" stroke="#45413C" stroke-linecap="round" stroke-linejoin="round" stroke-miterlimit="10" x1="35.347" y1="55.432" x2="35.347" y2="51.823"/>
		
			<line fill="#00B8F0" stroke="#45413C" stroke-linecap="round" stroke-linejoin="round" stroke-miterlimit="10" x1="22.11" y1="55.432" x2="22.11" y2="51.823"/>
		<path fill="#D18660" stroke="#45413C" stroke-linecap="round" stroke-linejoin="round" stroke-miterlimit="10" d="M28.127,44.602
			c-0.932,0-1.831,0.139-2.684,0.387l3.285,5.63l3.082-5.284C30.675,44.865,29.432,44.602,28.127,44.602z"/>
		<path fill="#F0C2A1" stroke="#45413C" stroke-linecap="round" stroke-linejoin="round" stroke-miterlimit="10" d="M33.483,46.23
			c-0.523-0.351-1.083-0.65-1.673-0.894l-3.082,5.283c1.642-1.349,3.171-2.01,4.833-2.315c0.304-0.056,0.493-0.358,0.396-0.651
			L33.483,46.23z"/>
		<path fill="#F0C2A1" stroke="#45413C" stroke-linecap="round" stroke-linejoin="round" stroke-miterlimit="10" d="M28.729,50.619
			l-3.285-5.629c-0.413,0.119-0.814,0.264-1.202,0.435L23.5,47.654c-0.097,0.293,0.092,0.595,0.396,0.651
			C25.557,48.61,27.086,49.271,28.729,50.619z"/>
		
			<line fill="#FFCEBF" stroke="#45413C" stroke-linecap="round" stroke-linejoin="round" stroke-miterlimit="10" x1="28.729" y1="50.619" x2="28.729" y2="53.628"/>
		
			<rect x="22.11" y="61.45" fill="#A86C4D" stroke="#45413C" stroke-linecap="round" stroke-linejoin="round" stroke-miterlimit="10" width="13.237" height="2.407"/>
		
			<rect x="26.923" y="61.45" fill="#FFE500" stroke="#45413C" stroke-linecap="round" stroke-linejoin="round" stroke-miterlimit="10" width="3.61" height="2.407"/>
		<path fill="#DEA47A" stroke="#45413C" stroke-linecap="round" stroke-linejoin="round" stroke-miterlimit="10" d="M22.11,31.772
			l1.367,1.822c0.253,0.337,0.69,0.479,1.093,0.356c2.54-0.776,6.579-0.856,10.105,0.013c0.392,0.097,0.804-0.052,1.044-0.377
			c0.24-0.325,0.261-0.762,0.053-1.109l-0.424-0.706C32.94,30.569,26.923,30.569,22.11,31.772z"/>
		<path fill="#DEBB7E" d="M41.567,51.823H31.534c-0.553,0-1,0.447-1,1v10.034c0,0.552,0.447,1,1,1h10.033c0.552,0,1-0.448,1-1
			V52.823C42.567,52.27,42.119,51.823,41.567,51.823z"/>
		<path fill="#F0D5A8" d="M41.567,51.823H31.534c-0.553,0-1,0.447-1,1v2.143c0-0.553,0.447-1,1-1h10.033c0.552,0,1,0.447,1,1v-2.143
			C42.567,52.27,42.119,51.823,41.567,51.823z"/>
		<path fill="none" stroke="#45413C" stroke-linecap="round" stroke-linejoin="round" stroke-miterlimit="10" d="M42.567,62.857
			c0,0.552-0.448,1-1,1H31.534c-0.553,0-1-0.448-1-1V52.823c0-0.553,0.447-1,1-1h10.033c0.552,0,1,0.447,1,1V62.857z"/>
		<path fill="#D18660" stroke="#45413C" stroke-linecap="round" stroke-linejoin="round" stroke-miterlimit="10" d="M41.771,61.236
			c-0.45-0.89-1.537-1.245-2.426-0.795c-0.889,0.451-1.245,1.537-0.795,2.426l0.635,1.255c0.12,0.237,0.329,0.416,0.581,0.499
			c0.252,0.083,0.527,0.062,0.763-0.058l1.436-0.728c0.493-0.25,0.69-0.851,0.44-1.344L41.771,61.236z"/>
		<path fill="#F7E5C6" stroke="#45413C" stroke-linecap="round" stroke-linejoin="round" stroke-miterlimit="10" d="M37.855,57.238
			h-2.61c-0.276,0-0.5-0.224-0.5-0.5v-4.915h3.61v4.915C38.355,57.014,38.132,57.238,37.855,57.238z"/>
	</g>
	<g>
		<path fill="#F7E5C6" d="M56.39,18.287c0,0.552-0.448,1-1,1h-16.05c-0.552,0-1-0.448-1-1v-8.83c0-0.552,0.448-1,1-1h16.05
			c0.552,0,1,0.448,1,1V18.287z"/>
		<path fill="#F0D5A8" d="M46.335,15.06c0.633,0.38,1.425,0.38,2.058,0l7.996-4.798V9.457c0-0.552-0.448-1-1-1h-16.05
			c-0.552,0-1,0.448-1,1v0.805L46.335,15.06z"/>
		<path fill="#F7E5C6" stroke="#45413C" stroke-linecap="round" stroke-linejoin="round" stroke-miterlimit="10" d="M55.39,8.457
			h-16.05c-0.236,0-0.444,0.094-0.615,0.231l7.611,4.567c0.633,0.38,1.425,0.38,2.058,0l7.611-4.567
			C55.833,8.551,55.626,8.457,55.39,8.457z"/>
		<path fill="none" stroke="#45413C" stroke-linecap="round" stroke-linejoin="round" stroke-miterlimit="10" d="M56.39,18.287
			c0,0.552-0.448,1-1,1h-16.05c-0.552,0-1-0.448-1-1v-8.83c0-0.552,0.448-1,1-1h16.05c0.552,0,1,0.448,1,1V18.287z"/>
	</g>
	<g>
		<path fill="#FFCEBF" stroke="#45413C" stroke-linecap="round" stroke-linejoin="round" stroke-miterlimit="10" d="M58,66.263
			c0,0.996,0.808,1.805,1.805,1.805c0.997,0,1.805-0.809,1.805-1.805V55.432H58V66.263z"/>
		<ellipse opacity="0.15" fill="#45413C" cx="66" cy="82.407" rx="10" ry="1.5"/>
		<path fill="#00B8F0" d="M68.904,80.272l-0.623-11.603c-0.029-0.672-0.583-1.202-1.256-1.202c-0.673,0-1.226,0.53-1.255,1.202
			l-0.623,11.607l-4.74-0.011V62.052h6.017h1.204h6.017v18.224L68.904,80.272z"/>
		
			<rect x="60.407" y="63.255" transform="matrix(-1 -1.224647e-16 1.224647e-16 -1 134.0503 128.9162)" fill="#009FD9" width="13.237" height="2.407"/>
		<path fill="none" stroke="#45413C" stroke-linecap="round" stroke-linejoin="round" stroke-miterlimit="10" d="M68.904,80.272
			l-0.623-11.603c-0.029-0.672-0.583-1.202-1.256-1.202c-0.673,0-1.226,0.53-1.255,1.202l-0.623,11.607l-4.74-0.011V62.052h6.017
			h1.204h6.017v18.224L68.904,80.272z"/>
		<path fill="#DEBB7E" stroke="#45413C" stroke-linecap="round" stroke-linejoin="round" stroke-miterlimit="10" d="M58.602,81.907
			c0-2.154,2.106-3.008,3.969-3.008h2.65v2.008c0,0.552-0.448,1-1,1H58.602z"/>
		<path fill="#DEBB7E" stroke="#45413C" stroke-linecap="round" stroke-linejoin="round" stroke-miterlimit="10" d="M67.025,81.907
			c0-2.154,2.106-3.008,3.969-3.008h2.649v2.008c0,0.552-0.448,1-1,1H67.025z"/>
		<path fill="#FFCEBF" stroke="#45413C" stroke-linecap="round" stroke-linejoin="round" stroke-miterlimit="10" d="M67.025,28.163
			c3.323,0,6.017,2.694,6.017,6.017v1.203c1.718,0,1.6,3.008-0.301,3.008l-0.005-0.001c-0.77,2.436-3.021,4.213-5.711,4.213
			c-3.323,0-6.017-2.693-6.017-6.017V34.18C61.008,30.856,63.702,28.163,67.025,28.163z"/>
		<g>
			<path fill="#45413C" d="M68.078,34.781c-0.415,0-0.752,0.336-0.752,0.752c0,0.415,0.337,0.752,0.752,0.752
				c0.415,0,0.752-0.337,0.752-0.752C68.83,35.117,68.493,34.781,68.078,34.781L68.078,34.781z"/>
		</g>
		<g>
			<path fill="#45413C" d="M63.565,34.781c-0.416,0-0.752,0.336-0.752,0.752c0,0.415,0.336,0.752,0.752,0.752
				c0.416,0,0.752-0.337,0.752-0.752C64.317,35.117,63.981,34.781,63.565,34.781L63.565,34.781z"/>
		</g>
		<circle fill="#FFB59E" cx="69.432" cy="37.939" r="0.602"/>
		<path fill="none" stroke="#45413C" stroke-linecap="round" stroke-linejoin="round" stroke-miterlimit="10" d="M67.326,38.935
			c-0.797,0.664-1.805,0.747-2.655,0.249c-0.121-0.071-0.24-0.154-0.354-0.249"/>
		<path fill="#FFE500" d="M61.008,33.578c-1.203-0.603-0.491-3.705,0.602-4.212l-0.782-0.626c-0.738-0.591-0.321-1.781,0.625-1.781
			h7.378c2.658,0,4.813,2.155,4.813,4.813v3.61c-3.61,0-3.534-2.839-6.619-3.61c-0.079,0.701-0.976,1.361-2.407,1.806
			c0-1.806-1.805-1.806-1.805-1.806L61.008,33.578z"/>
		<path fill="#FFF48C" d="M73.612,31.217c-0.275-2.397-2.311-4.258-4.781-4.258h-7.378c-0.945,0-1.363,1.19-0.625,1.781l0.782,0.626
			h7.124C70.599,29.366,72.32,30.069,73.612,31.217z"/>
		<path fill="none" stroke="#45413C" stroke-linecap="round" stroke-linejoin="round" stroke-miterlimit="10" d="M61.008,33.578
			c-1.203-0.603-0.491-3.705,0.602-4.212l-0.782-0.626c-0.738-0.591-0.321-1.781,0.625-1.781h7.378c2.658,0,4.813,2.155,4.813,4.813
			v3.61c-3.61,0-3.534-2.839-6.619-3.61c-0.079,0.701-0.976,1.361-2.407,1.806c0-1.806-1.805-1.806-1.805-1.806L61.008,33.578z"/>
		<path fill="#F0F0F0" d="M58,54.23c0-5.317,4.31-9.627,9.627-9.627c5.316,0,9.626,4.31,9.626,9.627v1.203h-3.61v7.822H60.407
			v-7.822H58V54.23z"/>
		<path fill="#FFFFFF" d="M67.627,44.602c-5.317,0-9.627,4.31-9.627,9.627v1.203h0.17c0.833-4.467,4.747-7.852,9.457-7.852
			c4.709,0,8.622,3.384,9.457,7.852h0.17V54.23C77.253,48.913,72.943,44.602,67.627,44.602z"/>
		<path fill="none" stroke="#45413C" stroke-linecap="round" stroke-linejoin="round" stroke-miterlimit="10" d="M58,54.23
			c0-5.317,4.31-9.627,9.627-9.627c5.316,0,9.626,4.31,9.626,9.627v1.203h-3.61v7.822H60.407v-7.822H58V54.23z"/>
		
			<line fill="#00B8F0" stroke="#45413C" stroke-linecap="round" stroke-linejoin="round" stroke-miterlimit="10" x1="60.407" y1="55.432" x2="60.407" y2="51.823"/>
		
			<line fill="#00B8F0" stroke="#45413C" stroke-linecap="round" stroke-linejoin="round" stroke-miterlimit="10" x1="73.644" y1="55.432" x2="73.644" y2="51.823"/>
		<path fill="#FFCEBF" stroke="#45413C" stroke-linecap="round" stroke-linejoin="round" stroke-miterlimit="10" d="M67.025,48.213
			c-1.627,0-2.926-1.3-2.978-2.915c1.108-0.444,2.313-0.696,3.58-0.696c0.816,0,1.605,0.113,2.362,0.305
			C70.159,46.7,68.783,48.213,67.025,48.213z"/>
		<path fill="#FFCEBF" stroke="#45413C" stroke-miterlimit="10" d="M73.644,55.432v0.603c0,3.305-2.851,5.415-4.813,5.415h-1.203
			c-0.996,0-1.805,0.81-1.805,1.805c0,0.996,0.81,1.805,1.805,1.805h1.203c3.977,0,8.423-3.859,8.423-9.025v-0.603H73.644z"/>
	</g>
</g>
</svg>
