<?xml version="1.0" encoding="utf-8"?>
<!-- Generator: Adobe Illustrator 21.0.0, SVG Export Plug-In . SVG Version: 6.00 Build 0)  -->
<svg version="1.1" id="Layer_1" xmlns="http://www.w3.org/2000/svg" xmlns:xlink="http://www.w3.org/1999/xlink" x="0px" y="0px"
	 width="96px" height="96px" viewBox="0 0 96 96" enable-background="new 0 0 96 96" xml:space="preserve">
<g>
	<g>
		<path fill="#BDFBFC" d="M89,49C89,26.909,71.091,9,49,9S9,26.909,9,49c0,5.885,1.281,11.468,3.564,16.5h72.872
			C87.718,60.468,89,54.885,89,49z"/>
		<path fill="#FFEF9E" d="M12.564,65.5C18.849,79.357,32.794,89,49,89s30.151-9.643,36.436-23.5H12.564z"/>
		<path fill="#FFFACF" d="M83.607,69c0.659-1.137,1.282-2.296,1.829-3.5H12.564c0.546,1.204,1.17,2.363,1.829,3.5H83.607z"/>
	</g>
	<g>
		
			<line fill="none" stroke="#45413C" stroke-linecap="round" stroke-linejoin="round" stroke-miterlimit="10" x1="10" y1="65.5" x2="88" y2="65.5"/>
		
			<line fill="none" stroke="#45413C" stroke-linecap="round" stroke-linejoin="round" stroke-miterlimit="10" x1="5.5" y1="65.5" x2="8" y2="65.5"/>
		
			<line fill="none" stroke="#45413C" stroke-linecap="round" stroke-linejoin="round" stroke-miterlimit="10" x1="90" y1="65.5" x2="92.5" y2="65.5"/>
	</g>
</g>
<g>
	<g>
		<path fill="#DEA47A" stroke="#45413C" stroke-linecap="round" stroke-linejoin="round" stroke-miterlimit="10" d="M65,38H54v-2.5
			c0-1.105,0.895-2,2-2h7c1.105,0,2,0.895,2,2V38z"/>
		<path fill="#BF8DF2" stroke="#45413C" stroke-linecap="round" stroke-linejoin="round" stroke-miterlimit="10" d="M54,38h-5v-3
			c0-1.105,0.895-2,2-2h1c1.105,0,2,0.895,2,2V38z"/>
		<g>
			<circle fill="#525252" cx="48.5" cy="61.5" r="4"/>
			<path fill="#656769" d="M44.5,61.5c0-2.209,1.791-4,4-4s4,1.791,4,4c0,0.471-0.096,0.917-0.246,1.337l-1.157-0.765
				c-0.565-0.373-1.228-0.572-1.905-0.572h-1.383c-0.677,0-1.34,0.199-1.905,0.572l-1.158,0.765
				C44.596,62.417,44.5,61.971,44.5,61.5z"/>
			
				<circle fill="none" stroke="#45413C" stroke-linecap="round" stroke-linejoin="round" stroke-miterlimit="10" cx="48.5" cy="61.5" r="4"/>
			<circle fill="#E0E0E0" cx="48.5" cy="61.5" r="2"/>
			<path fill="#BDBEC0" d="M48.5,61c-0.839,0-1.555,0.518-1.852,1.25c-0.094-0.232-0.148-0.484-0.148-0.75c0-1.104,0.895-2,2-2
				s2,0.896,2,2c0,0.266-0.054,0.518-0.148,0.75C50.055,61.518,49.339,61,48.5,61z"/>
			
				<circle fill="none" stroke="#45413C" stroke-linecap="round" stroke-linejoin="round" stroke-miterlimit="10" cx="48.5" cy="61.5" r="2"/>
		</g>
		<path fill="#FFFFFF" d="M79.042,41H37.711c-0.642,1.587-1.211,3.542-1.211,5.5V51H76c4.694,0,8.5,3.806,8.5,8.5l0,0v-9
			C84.5,48.659,81.707,44.185,79.042,41z"/>
		<path fill="#E0E0E0" d="M37.711,41h41.331l0.001,0.001c0.398,0.475,0.797,0.98,1.19,1.499H37.181
			c0.062-0.196,0.127-0.387,0.192-0.578c0.109-0.311,0.218-0.624,0.335-0.913L37.711,41z"/>
		<path fill="none" stroke="#45413C" stroke-linecap="round" stroke-linejoin="round" stroke-miterlimit="10" d="M79.042,41
			c2.666,3.185,5.458,7.659,5.458,9.5v9c0-4.694-3.806-8.5-8.5-8.5H36.5v-4.5c0-1.958,0.569-3.913,1.211-5.5H79.042z"/>
		<path fill="#656769" d="M76.5,61.5l-2.106-4.211C73.846,56.193,72.726,55.5,71.5,55.5h-4c-1.226,0-2.346,0.693-2.894,1.789
			L62.5,61.5H76.5z"/>
		<path fill="#525252" d="M74.968,58.5c-0.584-0.924-1.603-1.5-2.71-1.5c-0.01,0-0.015,0-0.015,0H66.75h-0.015
			c-1.108,0-2.125,0.575-2.71,1.5H64l0.606-1.211c0.548-1.096,1.669-1.789,2.894-1.789h4c1.226,0,2.346,0.692,2.895,1.789L75,58.5
			H74.968z"/>
		<path fill="none" stroke="#45413C" stroke-linecap="round" stroke-linejoin="round" stroke-miterlimit="10" d="M76.5,61.5
			l-2.106-4.211C73.846,56.193,72.726,55.5,71.5,55.5h-4c-1.226,0-2.346,0.693-2.894,1.789L62.5,61.5H76.5z"/>
		<g>
			<circle fill="#525252" cx="69.5" cy="61.5" r="4"/>
			<path fill="#656769" d="M69.5,59c-1.952,0-3.573,1.4-3.924,3.25c-0.046-0.243-0.076-0.493-0.076-0.75c0-2.209,1.791-4,4-4
				s4,1.791,4,4c0,0.257-0.029,0.507-0.076,0.75C73.073,60.4,71.452,59,69.5,59z"/>
			
				<circle fill="none" stroke="#45413C" stroke-linecap="round" stroke-linejoin="round" stroke-miterlimit="10" cx="69.5" cy="61.5" r="4"/>
			<circle fill="#E0E0E0" cx="69.5" cy="61.5" r="2"/>
			<path fill="#BDBEC0" d="M69.5,61c-0.839,0-1.555,0.518-1.852,1.25c-0.094-0.232-0.148-0.484-0.148-0.75c0-1.104,0.895-2,2-2
				s2,0.896,2,2c0,0.266-0.054,0.518-0.148,0.75C71.055,61.518,70.339,61,69.5,61z"/>
			
				<circle fill="none" stroke="#45413C" stroke-linecap="round" stroke-linejoin="round" stroke-miterlimit="10" cx="69.5" cy="61.5" r="2"/>
		</g>
		<path fill="#FF6196" d="M76.5,61.5l-2.115-4.229c-0.543-1.085-1.652-1.771-2.866-1.771H71.5h-4h-0.02
			c-1.214,0-2.323,0.686-2.866,1.771L62.5,61.5h-10l-1.403-0.928C50.531,60.199,49.869,60,49.192,60h-1.383
			c-0.677,0-1.34,0.199-1.905,0.572L44.5,61.5h-8V51H76c4.695,0,8.5,3.806,8.5,8.5v2H76.5z"/>
		<path fill="#FF87AF" d="M76,51H36.5v1.5H76c4.694,0,8.5,3.806,8.5,8.5v-1.5C84.5,54.806,80.694,51,76,51z"/>
		<path fill="none" stroke="#45413C" stroke-linecap="round" stroke-linejoin="round" stroke-miterlimit="10" d="M76.5,61.5
			l-2.115-4.229c-0.543-1.085-1.652-1.771-2.866-1.771H71.5h-4h-0.02c-1.214,0-2.323,0.686-2.866,1.771L62.5,61.5h-10l-1.403-0.928
			C50.531,60.199,49.869,60,49.192,60h-1.383c-0.677,0-1.34,0.199-1.905,0.572L44.5,61.5h-8V51H76c4.695,0,8.5,3.806,8.5,8.5v2H76.5
			z"/>
		<path fill="#E0E0E0" d="M36.5,59.5h5c0.552,0,1,0.448,1,1s-0.448,1-1,1h-5c-0.552,0-1-0.448-1-1S35.948,59.5,36.5,59.5z"/>
		<path fill="#FFFFFF" d="M41.5,60.5h-5c-0.366,0-0.673,0.207-0.847,0.5c-0.089-0.149-0.153-0.314-0.153-0.5c0-0.552,0.448-1,1-1h5
			c0.552,0,1,0.448,1,1c0,0.186-0.065,0.351-0.153,0.5C42.173,60.707,41.866,60.5,41.5,60.5z"/>
		<path fill="none" stroke="#45413C" stroke-linecap="round" stroke-linejoin="round" stroke-miterlimit="10" d="M36.5,59.5h5
			c0.552,0,1,0.448,1,1s-0.448,1-1,1h-5c-0.552,0-1-0.448-1-1S35.948,59.5,36.5,59.5z"/>
		<path fill="#E0E0E0" d="M79.5,59.5h5c0.552,0,1,0.448,1,1s-0.448,1-1,1h-5c-0.552,0-1-0.448-1-1S78.948,59.5,79.5,59.5z"/>
		<path fill="#FFFFFF" d="M84.5,60.5h-5c-0.366,0-0.673,0.207-0.847,0.5c-0.089-0.149-0.153-0.314-0.153-0.5c0-0.552,0.448-1,1-1h5
			c0.552,0,1,0.448,1,1c0,0.186-0.065,0.351-0.153,0.5C85.173,60.707,84.866,60.5,84.5,60.5z"/>
		<path fill="none" stroke="#45413C" stroke-linecap="round" stroke-linejoin="round" stroke-miterlimit="10" d="M79.5,59.5h5
			c0.552,0,1,0.448,1,1s-0.448,1-1,1h-5c-0.552,0-1-0.448-1-1S78.948,59.5,79.5,59.5z"/>
		<path fill="#FFE500" d="M84.5,57h0.999c0.553,0,1.001-0.448,1.001-1v-1c0-0.552-0.447-0.999-0.999-0.999H84.5V57z"/>
		<path fill="#FFF48C" d="M85.501,54c0.552,0,0.999,0.447,0.999,0.999v1c0,0.089-0.029,0.168-0.05,0.25
			c-0.113-0.427-0.485-0.749-0.949-0.749H84.5V54H85.501z"/>
		<path fill="none" stroke="#45413C" stroke-linecap="round" stroke-linejoin="round" stroke-miterlimit="10" d="M84.5,57h0.999
			c0.553,0,1.001-0.448,1.001-1v-1c0-0.552-0.447-0.999-0.999-0.999H84.5V57z"/>
		<path fill="#FFFFFF" stroke="#45413C" stroke-linecap="round" stroke-linejoin="round" stroke-miterlimit="10" d="M77.935,39.734
			L79.042,41H37.711C38.5,39,40,37.5,47,37.5S75.981,37.485,77.935,39.734z"/>
		<path fill="#00B8F0" d="M84.143,49h-8.144C75.447,49,75,48.553,75,48.001v-3.997C75,43.45,75.45,43,76.004,43h4.603
			C82.144,45.091,83.519,47.356,84.143,49z"/>
		<path fill="#4ACFFF" d="M80.5,43h-4.496C75.45,43,75,43.45,75,44.004v3.997c0,0.146,0.035,0.283,0.091,0.408L80.5,43z"/>
		<path fill="#00B8F0" d="M60,48c0,0.552,0.448,1,1,1h11c0.553,0,1-0.448,1-1v-4c0-0.552-0.448-1-1-1H61c-0.553,0-1,0.448-1,1V48z"
			/>
		<path fill="#4ACFFF" d="M61,49h2.5l6-6H61c-0.553,0-1,0.448-1,1v4C60,48.552,60.448,49,61,49z"/>
		
			<line fill="#FFFFFF" stroke="#45413C" stroke-linecap="round" stroke-linejoin="round" stroke-miterlimit="10" x1="43.5" y1="43" x2="40" y2="43"/>
		
			<line fill="#FFFFFF" stroke="#45413C" stroke-linecap="round" stroke-linejoin="round" stroke-miterlimit="10" x1="43" y1="45" x2="39.5" y2="45"/>
		
			<line fill="#FFFFFF" stroke="#45413C" stroke-linecap="round" stroke-linejoin="round" stroke-miterlimit="10" x1="42.5" y1="47" x2="39" y2="47"/>
		
			<line fill="#FFFFFF" stroke="#45413C" stroke-linecap="round" stroke-linejoin="round" stroke-miterlimit="10" x1="42" y1="49" x2="38.5" y2="49"/>
		<path fill="#00B8F0" d="M57,43c0.552,0,1,0.448,1,1v4.031C58,48.566,57.566,49,57.031,49H57H46c-0.232,0-0.449-0.111-0.585-0.299
			c-0.135-0.188-0.172-0.429-0.099-0.649l1.368-4.103C46.873,43.382,47.403,43,47.5,43H57z"/>
		<path fill="#4ACFFF" d="M45.316,48.051c-0.073,0.22-0.036,0.461,0.099,0.649C45.55,48.889,45.768,49,46,49h2.5l6-6h-7
			c-0.097,0-0.627,0.382-0.816,0.949L45.316,48.051z"/>
		<path fill="none" stroke="#45413C" stroke-linecap="round" stroke-linejoin="round" stroke-miterlimit="10" d="M57,43
			c0.552,0,1,0.448,1,1v4.031C58,48.566,57.566,49,57.031,49H57H46c-0.232,0-0.449-0.111-0.585-0.299
			c-0.135-0.188-0.172-0.429-0.099-0.649l1.368-4.103C46.873,43.382,47.403,43,47.5,43H57z"/>
		<path fill="none" stroke="#45413C" stroke-linecap="round" stroke-linejoin="round" stroke-miterlimit="10" d="M60,48
			c0,0.552,0.448,1,1,1h11c0.553,0,1-0.448,1-1v-4c0-0.552-0.448-1-1-1H61c-0.553,0-1,0.448-1,1V48z"/>
		<path fill="none" stroke="#45413C" stroke-linecap="round" stroke-linejoin="round" stroke-miterlimit="10" d="M84.143,49h-8.144
			C75.447,49,75,48.553,75,48.001v-3.997C75,43.45,75.45,43,76.004,43h4.603C82.144,45.091,83.519,47.356,84.143,49z"/>
		<path fill="#FF6242" d="M34.5,56.003c0,0.827,0.67,1.497,1.497,1.497H36.5V53h-0.499c-0.829,0-1.501,0.672-1.501,1.501
			c0,0,0,0,0,0V56.003z"/>
		<path fill="#FF866E" d="M36.001,53H36.5v1.5h-0.499c-0.829,0-1.501,0.672-1.501,1.501v-1.5C34.5,53.672,35.172,53,36.001,53z"/>
		<path fill="none" stroke="#45413C" stroke-linecap="round" stroke-linejoin="round" stroke-miterlimit="10" d="M34.5,56.003
			c0,0.827,0.67,1.497,1.497,1.497H36.5V53h-0.499c-0.829,0-1.501,0.672-1.501,1.501c0,0,0,0,0,0V56.003z"/>
		<g>
			
				<circle fill="#FF6242" stroke="#45413C" stroke-linecap="round" stroke-linejoin="round" stroke-miterlimit="10" cx="57" cy="56.5" r="1.5"/>
			
				<ellipse fill="#FFE500" stroke="#45413C" stroke-linecap="round" stroke-linejoin="round" stroke-miterlimit="10" cx="57" cy="53.25" rx="1" ry="1.75"/>
			
				<ellipse transform="matrix(0.7071 -0.7071 0.7071 0.7071 -22.3047 54.5555)" fill="#FFE500" stroke="#45413C" stroke-linecap="round" stroke-linejoin="round" stroke-miterlimit="10" cx="54.702" cy="54.202" rx="1" ry="1.75"/>
			
				<ellipse fill="#FFE500" stroke="#45413C" stroke-linecap="round" stroke-linejoin="round" stroke-miterlimit="10" cx="53.75" cy="56.5" rx="1.75" ry="1"/>
			
				<ellipse transform="matrix(0.7071 -0.7071 0.7071 0.7071 -25.5547 55.9016)" fill="#FFE500" stroke="#45413C" stroke-linecap="round" stroke-linejoin="round" stroke-miterlimit="10" cx="54.702" cy="58.798" rx="1.75" ry="1"/>
			
				<ellipse fill="#FFE500" stroke="#45413C" stroke-linecap="round" stroke-linejoin="round" stroke-miterlimit="10" cx="57" cy="59.75" rx="1" ry="1.75"/>
			
				<ellipse transform="matrix(0.7071 -0.7071 0.7071 0.7071 -24.2085 59.1517)" fill="#FFE500" stroke="#45413C" stroke-linecap="round" stroke-linejoin="round" stroke-miterlimit="10" cx="59.298" cy="58.798" rx="1" ry="1.75"/>
			
				<ellipse fill="#FFE500" stroke="#45413C" stroke-linecap="round" stroke-linejoin="round" stroke-miterlimit="10" cx="60.25" cy="56.5" rx="1.75" ry="1"/>
			
				<ellipse transform="matrix(0.7071 -0.7071 0.7071 0.7071 -20.9585 57.8055)" fill="#FFE500" stroke="#45413C" stroke-linecap="round" stroke-linejoin="round" stroke-miterlimit="10" cx="59.298" cy="54.202" rx="1.75" ry="1"/>
		</g>
		<path fill="#F7E5C6" stroke="#45413C" stroke-linecap="round" stroke-linejoin="round" stroke-miterlimit="10" d="M60,38
			c0,0.552-0.448,1-1,1s-1-0.448-1-1v-4.5c0-0.552,0.448-1,1-1s1,0.448,1,1V38z"/>
		<g>
			
				<ellipse transform="matrix(0.1837 -0.983 0.983 0.1837 9.6084 121.5712)" fill="#FFE500" stroke="#45413C" stroke-linecap="round" stroke-linejoin="round" stroke-miterlimit="10" cx="78.001" cy="55.001" rx="3" ry="3"/>
			
				<line fill="none" stroke="#45413C" stroke-linecap="round" stroke-linejoin="round" stroke-miterlimit="10" x1="78.552" y1="52.052" x2="77.45" y2="57.95"/>
			<polyline fill="none" stroke="#45413C" stroke-linecap="round" stroke-linejoin="round" stroke-miterlimit="10" points="
				79.976,57.258 78.092,54.509 75.344,56.392 			"/>
		</g>
	</g>
	<g>
		<path fill="#FFE500" stroke="#45413C" stroke-linecap="round" stroke-linejoin="round" stroke-miterlimit="10" d="M30.5,31
			c-0.406,0-0.782-0.123-1.097-0.33c0,0-1.903,10.83-1.403,13.83s2.5,3.5,3.5,3c1-0.5-0.971-16.503-0.971-16.503
			C30.519,30.997,30.51,31,30.5,31z"/>
		
			<circle fill="#FFE500" stroke="#45413C" stroke-linecap="round" stroke-linejoin="round" stroke-miterlimit="10" cx="30.5" cy="29" r="2"/>
		<path fill="#A86C4D" d="M46,45.5c0.343,0,0.634-0.079,0.879-0.2c0.295-0.146,0.499-0.428,0.546-0.753
			c0.047-0.326-0.069-0.653-0.311-0.877C46.5,43.102,46.5,42,46.5,42v-9.5c0-4.418-3.582-8-8-8s-8,3.582-8,8V42
			c0,0,0,1.102-0.614,1.67c-0.241,0.223-0.357,0.551-0.31,0.877s0.251,0.607,0.545,0.754c0.244,0.121,0.535,0.2,0.879,0.2H46z"/>
		<path fill="#DE926A" d="M38.5,27c4.418,0,8,3.582,8,8v-2.5c0-4.418-3.582-8-8-8s-8,3.582-8,8V35C30.5,30.582,34.082,27,38.5,27z"
			/>
		<path fill="none" stroke="#45413C" stroke-linecap="round" stroke-linejoin="round" stroke-miterlimit="10" d="M46,45.5
			c0.343,0,0.634-0.079,0.879-0.2c0.295-0.146,0.499-0.428,0.546-0.753c0.047-0.326-0.069-0.653-0.311-0.877
			C46.5,43.102,46.5,42,46.5,42v-9.5c0-4.418-3.582-8-8-8s-8,3.582-8,8V42c0,0,0,1.102-0.614,1.67
			c-0.241,0.223-0.357,0.551-0.31,0.877s0.251,0.607,0.545,0.754c0.244,0.121,0.535,0.2,0.879,0.2H46z"/>
		<path fill="#FFCEBF" stroke="#45413C" stroke-linecap="round" stroke-linejoin="round" stroke-miterlimit="10" d="M44.5,33.3v-0.8
			c0-0.702-0.127-1.374-0.349-2H32.849c-0.222,0.626-0.349,1.298-0.349,2v0.8c-0.566,0.119-1,0.598-1,1.2
			c0,0.646,0.497,1.16,1.126,1.225c0.565,2.726,2.98,4.775,5.874,4.775s5.309-2.049,5.874-4.775C45.003,35.66,45.5,35.146,45.5,34.5
			C45.5,33.898,45.066,33.419,44.5,33.3z"/>
		<path fill="none" stroke="#45413C" stroke-linecap="round" stroke-linejoin="round" stroke-miterlimit="10" d="M37,37.046
			c0.908,0.606,2.092,0.606,3,0"/>
		<path fill="#FFE500" stroke="#45413C" stroke-linecap="round" stroke-linejoin="round" stroke-miterlimit="10" d="M30.562,31.5
			h15.876c-0.135-1.082-0.486-2.097-1.008-3H31.57C31.048,29.403,30.697,30.418,30.562,31.5z"/>
		<circle fill="#FFAA54" cx="35.5" cy="34" r="2"/>
		<path fill="#FFCC99" d="M34.086,35.414c-0.781-0.781-0.781-2.047,0-2.828c0.781-0.781,2.047-0.781,2.828,0L34.086,35.414z"/>
		<circle fill="#FFAA54" cx="41.5" cy="34" r="2"/>
		<path fill="#FFCC99" d="M40.086,35.414c-0.781-0.781-0.781-2.047,0-2.828c0.781-0.781,2.047-0.781,2.828,0L40.086,35.414z"/>
		<path fill="none" stroke="#45413C" stroke-linecap="round" stroke-linejoin="round" stroke-miterlimit="10" d="M37.5,34
			c0-0.552,0.448-1,1-1s1,0.448,1,1"/>
		
			<circle fill="none" stroke="#45413C" stroke-linecap="round" stroke-linejoin="round" stroke-miterlimit="10" cx="35.5" cy="34" r="2"/>
		
			<circle fill="none" stroke="#45413C" stroke-linecap="round" stroke-linejoin="round" stroke-miterlimit="10" cx="41.5" cy="34" r="2"/>
		<ellipse opacity="0.15" fill="#45413C" cx="38.5" cy="80" rx="13" ry="1.5"/>
		<path fill="#FFCEBF" d="M32,75.5v1.714c0,1.262,1.023,2.286,2.286,2.286c1.234,0,2.245-0.98,2.285-2.213l0.057-1.787H32z"/>
		<polygon fill="#FFB59E" points="36.58,77 36.627,75.5 32,75.5 32,77 		"/>
		<path fill="none" stroke="#45413C" stroke-linecap="round" stroke-linejoin="round" stroke-miterlimit="10" d="M32,75.5v1.714
			c0,1.262,1.023,2.286,2.286,2.286c1.234,0,2.245-0.98,2.285-2.213l0.057-1.787H32z"/>
		<path fill="#FFCEBF" d="M44.999,75.5v1.714c0,1.262-1.023,2.286-2.286,2.286c-1.234,0-2.245-0.98-2.285-2.213L40.372,75.5H44.999z
			"/>
		<polygon fill="#FFB59E" points="40.42,77 40.372,75.5 44.999,75.5 44.999,77 		"/>
		<path fill="none" stroke="#45413C" stroke-linecap="round" stroke-linejoin="round" stroke-miterlimit="10" d="M44.999,75.5v1.714
			c0,1.262-1.023,2.286-2.286,2.286c-1.234,0-2.245-0.98-2.285-2.213L40.372,75.5H44.999z"/>
		<path fill="#FF87AF" d="M45,61l1.843,13.363c0.083,0.601-0.384,1.137-0.991,1.137h-5.479l-0.268-8.445
			C40.078,66.188,39.368,65.5,38.5,65.5s-1.578,0.688-1.605,1.555L36.627,75.5h-5.48c-0.607,0-1.073-0.536-0.991-1.137L32,61H45z"/>
		<polygon fill="#FF6196" points="45.414,64 45,61 32,61 31.587,64 		"/>
		<path fill="#9F5AE5" d="M30.157,74.363c-0.083,0.601,0.384,1.137,0.991,1.137h5.479l0.127-4h-6.202L30.157,74.363z"/>
		<path fill="#9F5AE5" d="M40.374,75.5h5.479c0.606,0,1.073-0.536,0.991-1.137L46.449,71.5h-6.202L40.374,75.5z"/>
		<polygon fill="#FF8A14" points="40.151,68.5 40.247,71.5 46.449,71.5 46.035,68.5 		"/>
		<polygon fill="#FF8A14" points="30.966,68.5 30.552,71.5 36.754,71.5 36.85,68.5 		"/>
		<path fill="none" stroke="#45413C" stroke-linecap="round" stroke-linejoin="round" stroke-miterlimit="10" d="M45,61
			l1.843,13.363c0.083,0.601-0.384,1.137-0.991,1.137h-5.479l-0.268-8.445C40.078,66.188,39.368,65.5,38.5,65.5
			s-1.578,0.688-1.605,1.555L36.627,75.5h-5.48c-0.607,0-1.073-0.536-0.991-1.137L32,61H45z"/>
		
			<line fill="none" stroke="#45413C" stroke-linecap="round" stroke-linejoin="round" stroke-miterlimit="10" x1="46.035" y1="68.5" x2="40.151" y2="68.5"/>
		
			<line fill="none" stroke="#45413C" stroke-linecap="round" stroke-linejoin="round" stroke-miterlimit="10" x1="40.247" y1="71.5" x2="46.449" y2="71.5"/>
		
			<line fill="none" stroke="#45413C" stroke-linecap="round" stroke-linejoin="round" stroke-miterlimit="10" x1="36.85" y1="68.5" x2="30.966" y2="68.5"/>
		
			<line fill="none" stroke="#45413C" stroke-linecap="round" stroke-linejoin="round" stroke-miterlimit="10" x1="30.552" y1="71.5" x2="36.754" y2="71.5"/>
		<path fill="#00DBA8" d="M45,62l0.002-1H32l0,1h-3.5v-9.5c0-5.523,4.477-10,10-10s10,4.477,10,10V62H45z"/>
		<path fill="#00F5BC" d="M38.5,42.5c-5.523,0-10,4.477-10,10V55c0-5.523,4.477-10,10-10c5.523,0,10,4.477,10,10v-2.5
			C48.5,46.977,44.023,42.5,38.5,42.5z"/>
		<path fill="#00DFEB" d="M44.908,44.826C43.172,43.375,40.939,42.5,38.5,42.5s-4.672,0.875-6.408,2.326
			c2.257,4.288,4.811,9.141,5.887,11.185c0.222,0.422,0.823,0.416,1.045-0.006L44.908,44.826z"/>
		<path fill="none" stroke="#45413C" stroke-linecap="round" stroke-linejoin="round" stroke-miterlimit="10" d="M44.908,44.826
			C43.172,43.375,40.939,42.5,38.5,42.5s-4.672,0.875-6.408,2.326c2.257,4.288,4.811,9.141,5.887,11.185
			c0.222,0.422,0.823,0.416,1.045-0.006L44.908,44.826z"/>
		<path fill="#FF8A14" d="M44.493,44.509C42.822,43.253,40.751,42.5,38.5,42.5s-4.322,0.753-5.993,2.009l5.52,7.36
			c0.237,0.316,0.711,0.316,0.947,0L44.493,44.509z"/>
		<path fill="none" stroke="#45413C" stroke-linecap="round" stroke-linejoin="round" stroke-miterlimit="10" d="M32.507,44.509
			l5.52,7.36c0.237,0.316,0.711,0.316,0.947,0l5.52-7.36"/>
		<path fill="none" stroke="#45413C" stroke-linecap="round" stroke-linejoin="round" stroke-miterlimit="10" d="M45,62l0.002-1H32
			l0,1h-3.5v-9.5c0-5.523,4.477-10,10-10s10,4.477,10,10V62H45z"/>
		<path fill="#FFCEBF" stroke="#45413C" stroke-linecap="round" stroke-linejoin="round" stroke-miterlimit="10" d="M41.141,42.853
			C40.3,42.624,39.414,42.5,38.5,42.5c-0.988,0-1.943,0.144-2.845,0.411l2.286,4.892c0.216,0.463,0.879,0.453,1.08-0.017
			L41.141,42.853z"/>
		
			<line fill="none" stroke="#45413C" stroke-linecap="round" stroke-linejoin="round" stroke-miterlimit="10" x1="45" y1="50.5" x2="45" y2="61"/>
		
			<line fill="none" stroke="#45413C" stroke-linecap="round" stroke-linejoin="round" stroke-miterlimit="10" x1="32" y1="50.5" x2="32" y2="61"/>
		<path fill="#FFCEBF" stroke="#45413C" stroke-linecap="round" stroke-linejoin="round" stroke-miterlimit="10" d="M28.5,63.75
			c0,0.966,0.783,1.75,1.75,1.75c0.966,0,1.75-0.784,1.75-1.75V62h-3.5V63.75z"/>
		<path fill="#FFCEBF" stroke="#45413C" stroke-linecap="round" stroke-linejoin="round" stroke-miterlimit="10" d="M45,63.75
			c0,0.966,0.784,1.75,1.75,1.75s1.75-0.784,1.75-1.75V62H45V63.75z"/>
		
			<rect x="28.5" y="60" fill="#00DFEB" stroke="#45413C" stroke-linecap="round" stroke-linejoin="round" stroke-miterlimit="10" width="3.5" height="2"/>
		
			<rect x="28.5" y="58" fill="#FF8A14" stroke="#45413C" stroke-linecap="round" stroke-linejoin="round" stroke-miterlimit="10" width="3.5" height="2"/>
		
			<rect x="45" y="60" fill="#00DFEB" stroke="#45413C" stroke-linecap="round" stroke-linejoin="round" stroke-miterlimit="10" width="3.5" height="2"/>
		
			<rect x="45" y="58" fill="#FF8A14" stroke="#45413C" stroke-linecap="round" stroke-linejoin="round" stroke-miterlimit="10" width="3.5" height="2"/>
		<path fill="#A86C4D" stroke="#45413C" stroke-linecap="round" stroke-linejoin="round" stroke-miterlimit="10" d="M44.5,31.5v11
			c0,0,0,1.102,0.614,1.67c0.241,0.223,0.357,0.551,0.311,0.877c-0.047,0.326-0.251,0.607-0.545,0.754
			C44.634,45.921,44.343,46,44,46c0,0-1.5,0-1.5-1.5v-13H44.5z"/>
		<path fill="#A86C4D" stroke="#45413C" stroke-linecap="round" stroke-linejoin="round" stroke-miterlimit="10" d="M32.5,31.5V41
			c0,0,0,1.102-0.614,1.67c-0.241,0.223-0.357,0.551-0.31,0.877s0.251,0.607,0.545,0.754c0.245,0.121,0.535,0.2,0.879,0.2
			c0,0,1.5,0,1.5-1.5V31.5H32.5z"/>
	</g>
</g>
</svg>
