<?xml version="1.0" encoding="utf-8"?>
<!-- Generator: Adobe Illustrator 21.0.0, SVG Export Plug-In . SVG Version: 6.00 Build 0)  -->
<svg version="1.1" id="Layer_1" xmlns="http://www.w3.org/2000/svg" xmlns:xlink="http://www.w3.org/1999/xlink" x="0px" y="0px"
	 width="96px" height="96px" viewBox="0 0 96 96" enable-background="new 0 0 96 96" xml:space="preserve">
<g>
	<g>
		<path fill="#BDFBFC" d="M89.5,49c0-22.091-17.909-40-40-40s-40,17.909-40,40c0,5.885,1.281,11.468,3.564,16.5h72.872
			C88.218,60.468,89.5,54.885,89.5,49z"/>
		<path fill="#FCEFD9" d="M13.064,65.5C19.349,79.357,33.294,89,49.5,89s30.151-9.643,36.436-23.5H13.064z"/>
		<path fill="#FFF5E3" d="M84.107,69c0.659-1.137,1.282-2.296,1.829-3.5H13.064c0.546,1.204,1.17,2.363,1.829,3.5H84.107z"/>
	</g>
	<g>
		
			<line fill="none" stroke="#45413C" stroke-linecap="round" stroke-linejoin="round" stroke-miterlimit="10" x1="10.5" y1="65.5" x2="88.5" y2="65.5"/>
		
			<line fill="none" stroke="#45413C" stroke-linecap="round" stroke-linejoin="round" stroke-miterlimit="10" x1="6" y1="65.5" x2="8.5" y2="65.5"/>
		
			<line fill="none" stroke="#45413C" stroke-linecap="round" stroke-linejoin="round" stroke-miterlimit="10" x1="90.5" y1="65.5" x2="93" y2="65.5"/>
	</g>
</g>
<g>
	<ellipse opacity="0.15" fill="#45413C" cx="41.938" cy="77" rx="18" ry="1.5"/>
	<g>
		<g>
			<path fill="#E8F4FA" d="M56.899,42.101c-8.615,0-15.6,6.984-15.6,15.6L41.292,65.5L66.5,65.501c0,4.565-3.364,5.4-5.925,5.4H58.1
				v5.4h2.476c4.926,0,11.925-1.051,11.925-10.801v-7.799C72.5,49.085,65.516,42.101,56.899,42.101z"/>
			<g>
				<path fill="#FFFFFF" d="M56.899,42.101c-8.615,0-15.6,6.984-15.6,15.6L41.292,65.5h0.004l0.004-4c0-8.616,6.984-15.6,15.6-15.6
					c8.616,0,15.601,6.984,15.601,15.6v-3.799C72.5,49.085,65.516,42.101,56.899,42.101z"/>
			</g>
			<path fill="none" stroke="#45413C" stroke-linecap="round" stroke-linejoin="round" stroke-miterlimit="10" d="M56.899,42.101
				c-8.615,0-15.6,6.984-15.6,15.6L41.292,65.5L66.5,65.501c0,4.565-3.364,5.4-5.925,5.4H58.1v5.4h2.476
				c4.926,0,11.925-1.051,11.925-10.801v-7.799C72.5,49.085,65.516,42.101,56.899,42.101z"/>
			<polygon fill="#D18660" points="60.5,42.701 56.899,45.101 53.3,42.701 53.3,39.701 60.5,39.701 			"/>
			<path fill="#BD704A" d="M53.3,42.572c0.091,0.042,0.177,0.086,0.271,0.124c2.016,0.806,4.642,0.806,6.656,0
				c0.096-0.038,0.182-0.083,0.272-0.124v-2.871h-7.2V42.572z"/>
			<polygon fill="none" stroke="#45413C" stroke-linecap="round" stroke-linejoin="round" stroke-miterlimit="10" points="
				60.5,42.701 56.899,45.101 53.3,42.701 53.3,39.701 60.5,39.701 			"/>
			<path fill="#6DD627" stroke="#45413C" stroke-linecap="round" stroke-linejoin="round" stroke-miterlimit="10" d="M56.899,45.101
				l-2.902,17.412c-0.064,0.382-0.005,0.775,0.169,1.122l0.933,1.866H58.7l0.933-1.867c0.173-0.347,0.232-0.739,0.168-1.121
				L56.899,45.101z"/>
			<path fill="#FFFFFF" stroke="#45413C" stroke-linecap="round" stroke-linejoin="round" stroke-miterlimit="10" d="M61.689,47.869
				l2.723-3.839c-1.161-0.639-2.416-1.121-3.732-1.449l-3.78,2.52l3.426,2.937C60.741,48.393,61.373,48.315,61.689,47.869z"/>
			<path fill="#FFFFFF" stroke="#45413C" stroke-linecap="round" stroke-linejoin="round" stroke-miterlimit="10" d="M52.11,47.869
				l-2.723-3.839c1.16-0.639,2.416-1.121,3.732-1.449l3.78,2.52l-3.426,2.937C53.059,48.393,52.427,48.315,52.11,47.869z"/>
			
				<line fill="none" stroke="#45413C" stroke-linecap="round" stroke-linejoin="round" stroke-miterlimit="10" x1="47.3" y1="58.301" x2="47.3" y2="65.501"/>
			
				<line fill="none" stroke="#45413C" stroke-linecap="round" stroke-linejoin="round" stroke-miterlimit="10" x1="66.5" y1="58.301" x2="66.5" y2="65.501"/>
			<path fill="#D18660" stroke="#45413C" stroke-linecap="round" stroke-linejoin="round" stroke-miterlimit="10" d="M58.1,75.701
				h-1.8c-1.325,0-2.4-1.075-2.4-2.4c0-1.325,1.075-2.4,2.4-2.4h1.8V75.701z"/>
		</g>
		<g>
			<path fill="#D18660" stroke="#45413C" stroke-linecap="round" stroke-linejoin="round" stroke-miterlimit="10" d="M67.102,28.9
				v-2.4c0-5.633-4.567-10.2-10.2-10.2s-10.2,4.566-10.2,10.2v2.4c-0.993,0-1.8,0.806-1.8,1.8v0.6c0,0.994,0.807,1.8,1.8,1.8
				c0.058,0,0.11-0.012,0.166-0.017c0.845,4.781,5.011,8.417,10.034,8.417c5.024,0,9.189-3.635,10.034-8.417
				c0.056,0.005,0.109,0.017,0.166,0.017c0.994,0,1.8-0.806,1.8-1.8v-0.6C68.901,29.706,68.096,28.9,67.102,28.9z"/>
			<circle fill="#BD704A" cx="50.901" cy="33.101" r="1.2"/>
			<circle fill="#BD704A" cx="62.901" cy="33.101" r="1.2"/>
			<path fill="none" stroke="#45413C" stroke-linecap="round" stroke-linejoin="round" stroke-miterlimit="10" d="M53.901,35.5
				c1.816,1.6,4.184,1.6,6,0"/>
			<g>
				<path fill="none" stroke="#45413C" stroke-linecap="round" stroke-linejoin="round" stroke-miterlimit="10" d="M62.302,30.101
					c-0.309-0.587-0.852-1-1.5-1c-0.648,0-1.192,0.413-1.5,1"/>
				<path fill="none" stroke="#45413C" stroke-linecap="round" stroke-linejoin="round" stroke-miterlimit="10" d="M54.501,29.9
					c-0.309-0.587-0.851-1-1.5-1c-0.648,0-1.19,0.413-1.5,1"/>
			</g>
			<g>
				<path fill="#614B44" d="M48.501,30.701c0,0,0.601-1.935,0.213-4.25c1.055,0.352,2.787-1.15,2.787-1.15v-2.4
					c0,0,3.546,1.2,5.4,1.2s5.4-1.2,5.4-1.2v2.4c0,0,1.733,1.502,2.787,1.15c-0.388,2.315,0.213,4.25,0.213,4.25
					c0-1.171,1.109-1.998,2.336-1.665c0.008-0.012,0.015-0.026,0.023-0.038c-0.178-0.058-0.363-0.098-0.56-0.098v-2.4
					c0-5.633-4.567-10.2-10.2-10.2s-10.2,4.566-10.2,10.2v2.4c-0.196,0-0.382,0.039-0.559,0.098
					c0.009,0.012,0.015,0.026,0.023,0.038C47.392,28.703,48.501,29.53,48.501,30.701z"/>
				<path fill="#947063" d="M56.901,18.701c5.633,0,10.2,4.567,10.2,10.2v-2.4c0-5.633-4.567-10.2-10.2-10.2s-10.2,4.566-10.2,10.2
					v2.4C46.701,23.267,51.269,18.701,56.901,18.701z"/>
				<path fill="none" stroke="#45413C" stroke-linecap="round" stroke-linejoin="round" stroke-miterlimit="10" d="M48.501,30.701
					c0,0,0.601-1.935,0.213-4.25c1.055,0.352,2.787-1.15,2.787-1.15v-2.4c0,0,3.546,1.2,5.4,1.2s5.4-1.2,5.4-1.2v2.4
					c0,0,1.733,1.502,2.787,1.15c-0.388,2.315,0.213,4.25,0.213,4.25c0-1.171,1.109-1.998,2.336-1.665
					c0.008-0.012,0.015-0.026,0.023-0.038c-0.178-0.058-0.363-0.098-0.56-0.098v-2.4c0-5.633-4.567-10.2-10.2-10.2
					s-10.2,4.566-10.2,10.2v2.4c-0.196,0-0.382,0.039-0.559,0.098c0.009,0.012,0.015,0.026,0.023,0.038
					C47.392,28.703,48.501,29.53,48.501,30.701z"/>
			</g>
		</g>
	</g>
	<g>
		<path fill="none" stroke="#45413C" stroke-linecap="round" stroke-linejoin="round" stroke-miterlimit="10" d="M44.899,33.101v1.8
			c0,2.982,2.418,5.4,5.4,5.4h0.6"/>
		<path fill="none" stroke="#45413C" stroke-linecap="round" stroke-linejoin="round" stroke-miterlimit="10" d="M43.7,28.301v-1.2
			c0-7.29,5.909-13.2,13.199-13.2c7.291,0,13.2,5.91,13.2,13.2v1.2"/>
		<g>
			<path fill="#FFFFFF" stroke="#45413C" stroke-linecap="round" stroke-linejoin="round" stroke-miterlimit="10" d="M46.1,34.301
				H43.7c-0.663,0-1.2-0.537-1.2-1.2v-3.6c0-0.663,0.537-1.2,1.2-1.2H46.1V34.301z"/>
			<path fill="#656769" stroke="#45413C" stroke-linecap="round" stroke-linejoin="round" stroke-miterlimit="10" d="M44.899,33.101
				c0,0.663,0.538,1.2,1.2,1.2c0.663,0,1.2-0.537,1.2-1.2v-3.6c0-0.663-0.537-1.2-1.2-1.2c-0.662,0-1.2,0.537-1.2,1.2V33.101z"/>
		</g>
		<g>
			<path fill="#FFFFFF" stroke="#45413C" stroke-linecap="round" stroke-linejoin="round" stroke-miterlimit="10" d="M67.7,34.301
				H70.1c0.663,0,1.2-0.537,1.2-1.2v-3.6c0-0.663-0.537-1.2-1.2-1.2H67.7V34.301z"/>
			<path fill="#656769" stroke="#45413C" stroke-linecap="round" stroke-linejoin="round" stroke-miterlimit="10" d="M68.899,33.101
				c0,0.663-0.537,1.2-1.199,1.2c-0.663,0-1.2-0.537-1.2-1.2v-3.6c0-0.663,0.537-1.2,1.2-1.2c0.662,0,1.199,0.537,1.199,1.2V33.101z
				"/>
		</g>
		
			<circle fill="#656769" stroke="#45413C" stroke-linecap="round" stroke-linejoin="round" stroke-miterlimit="10" cx="52.7" cy="40.301" r="1.8"/>
	</g>
	<g>
		<path fill="#ADC4D9" d="M26,74h19.5l-5-15.5H22.374c-0.32,0-0.62,0.153-0.809,0.411c-0.188,0.258-0.242,0.591-0.143,0.895L26,74z"
			/>
		<path fill="#C0DCEB" d="M22.374,58.5c-0.32,0-0.62,0.153-0.809,0.411c-0.188,0.258-0.241,0.591-0.143,0.895l3.681,11.411
			L37.82,58.5H22.374z"/>
		<g>
			<path fill="#E8F4FA" stroke="#45413C" stroke-linejoin="round" stroke-miterlimit="10" d="M45.5,74h2l-4.776-14.807
				c-0.133-0.412-0.518-0.692-0.952-0.692H40.5"/>
			<path fill="#C0DCEB" stroke="#45413C" stroke-linejoin="round" stroke-miterlimit="10" d="M26,74h20.5v2.5H28
				c-1.104,0-2-0.895-2-2V74z"/>
			<path fill="#E8F4FA" stroke="#45413C" stroke-linejoin="round" stroke-miterlimit="10" d="M46.5,74h9.5
				c0.276,0,0.5,0.224,0.5,0.5c0,1.105-0.896,2-2,2h-8V74z"/>
			<g>
				<g>
					<path fill="#FFFFFF" stroke="#45413C" stroke-linejoin="round" stroke-miterlimit="10" d="M34.341,65.698
						c-0.006-0.622,0.507-0.92,0.531-0.935c-0.289-0.422-0.739-0.48-0.899-0.487c-0.382-0.039-0.746,0.226-0.941,0.226
						c-0.193,0-0.493-0.22-0.81-0.214c-0.417,0.007-0.802,0.243-1.016,0.616c-0.433,0.752-0.111,1.866,0.312,2.475
						c0.206,0.299,0.452,0.634,0.775,0.621c0.312-0.011,0.429-0.2,0.805-0.2c0.376,0,0.482,0.2,0.811,0.195
						c0.335-0.006,0.547-0.304,0.751-0.603c0.237-0.347,0.335-0.682,0.34-0.699C34.993,66.688,34.348,66.441,34.341,65.698z"/>
				</g>
				
					<line fill="none" stroke="#45413C" stroke-linecap="round" stroke-linejoin="round" stroke-miterlimit="10" x1="33.501" y1="63" x2="33.951" y2="62.549"/>
			</g>
			<path fill="none" stroke="#45413C" stroke-linejoin="round" stroke-miterlimit="10" d="M26,74h19.5l-5-15.5H22.374
				c-0.32,0-0.62,0.153-0.809,0.411c-0.188,0.258-0.242,0.591-0.143,0.895L26,74z"/>
		</g>
	</g>
</g>
</svg>
