<?xml version="1.0" encoding="utf-8"?>
<!-- Generator: Adobe Illustrator 21.0.0, SVG Export Plug-In . SVG Version: 6.00 Build 0)  -->
<svg version="1.1" id="Layer_1" xmlns="http://www.w3.org/2000/svg" xmlns:xlink="http://www.w3.org/1999/xlink" x="0px" y="0px"
	 width="96px" height="96px" viewBox="0 0 96 96" enable-background="new 0 0 96 96" xml:space="preserve">
<g>
	<g>
		<path fill="#BDFBFC" d="M87.5,49c0-22.091-17.909-40-40-40s-40,17.909-40,40c0,5.885,1.281,11.468,3.564,16.5h72.872
			C86.218,60.468,87.5,54.885,87.5,49z"/>
		<path fill="#FCEFD9" d="M11.064,65.5C17.349,79.357,31.294,89,47.5,89s30.151-9.643,36.436-23.5H11.064z"/>
		<path fill="#FFF5E3" d="M82.107,69c0.659-1.137,1.282-2.296,1.829-3.5H11.064c0.546,1.204,1.17,2.363,1.829,3.5H82.107z"/>
	</g>
	<g>
		
			<line fill="none" stroke="#45413C" stroke-linecap="round" stroke-linejoin="round" stroke-miterlimit="10" x1="8.5" y1="65.5" x2="86.5" y2="65.5"/>
		
			<line fill="none" stroke="#45413C" stroke-linecap="round" stroke-linejoin="round" stroke-miterlimit="10" x1="4" y1="65.5" x2="6.5" y2="65.5"/>
		
			<line fill="none" stroke="#45413C" stroke-linecap="round" stroke-linejoin="round" stroke-miterlimit="10" x1="88.5" y1="65.5" x2="91" y2="65.5"/>
	</g>
</g>
<g>
	<path fill="#FFB0CA" d="M54.9,42.099c-8.615,0-15.6,6.984-15.6,15.6v7.8h25.2c0,4.565-3.364,5.4-5.925,5.4h-2.476v5.4h2.476
		c4.926,0,11.925-1.051,11.925-10.801v-7.799C70.501,49.083,63.517,42.099,54.9,42.099z"/>
	<g>
		<path fill="#FFDF3D" d="M60.9,43.9c3.313,0,6-2.686,6-6v-12c0-6.892-5.81-12.427-12.799-11.974
			C47.724,14.339,42.9,19.919,42.9,26.311V37.9c0,3.314,2.687,6,6,6H60.9z"/>
		<path fill="#FFEF9E" d="M54.102,13.926C47.724,14.339,42.9,19.919,42.9,26.311v3c0-6.392,4.823-11.972,11.201-12.385
			C61.091,16.473,66.9,22.008,66.9,28.9v-3C66.9,19.008,61.091,13.473,54.102,13.926z"/>
		<path fill="none" stroke="#45413C" stroke-linecap="round" stroke-linejoin="round" stroke-miterlimit="10" d="M60.9,43.9
			c3.313,0,6-2.686,6-6v-12c0-6.892-5.81-12.427-12.799-11.974C47.724,14.339,42.9,19.919,42.9,26.311V37.9c0,3.314,2.687,6,6,6
			H60.9z"/>
	</g>
	<path fill="#FFCCDD" d="M54.9,42.099c-8.616,0-15.6,6.984-15.6,15.6V61.9c0-8.615,6.984-15.6,15.6-15.6s15.6,6.984,15.6,15.6
		v-4.201C70.501,49.083,63.516,42.099,54.9,42.099z"/>
	<path fill="none" stroke="#45413C" stroke-linecap="round" stroke-linejoin="round" stroke-miterlimit="10" d="M54.9,42.099
		c-8.615,0-15.6,6.984-15.6,15.6v7.8h25.2c0,4.565-3.364,5.4-5.925,5.4h-2.476v5.4h2.476c4.926,0,11.925-1.051,11.925-10.801v-7.799
		C70.501,49.083,63.517,42.099,54.9,42.099z"/>
	
		<line fill="none" stroke="#45413C" stroke-linecap="round" stroke-linejoin="round" stroke-miterlimit="10" x1="45.301" y1="58.299" x2="45.301" y2="65.499"/>
	
		<line fill="none" stroke="#45413C" stroke-linecap="round" stroke-linejoin="round" stroke-miterlimit="10" x1="64.501" y1="58.299" x2="64.501" y2="65.499"/>
	<ellipse opacity="0.15" fill="#45413C" cx="39.938" cy="77" rx="18" ry="1.5"/>
	<path fill="#FFCEBF" stroke="#45413C" stroke-linecap="round" stroke-linejoin="round" stroke-miterlimit="10" d="M56.101,75.7
		h-1.8c-1.325,0-2.4-1.075-2.4-2.4c0-1.326,1.075-2.4,2.4-2.4h1.8V75.7z"/>
	
		<line fill="none" stroke="#45413C" stroke-linecap="round" stroke-linejoin="round" stroke-miterlimit="10" x1="54.9" y1="49.9" x2="54.9" y2="65.5"/>
	<polygon fill="#FFCEBF" points="58.5,42.7 54.9,49.9 51.3,42.7 51.3,39.7 58.5,39.7 	"/>
	<path fill="#FFB59E" d="M51.3,42.571c0.091,0.041,0.176,0.086,0.272,0.124c2.015,0.806,4.641,0.806,6.656,0
		c0.096-0.038,0.181-0.083,0.272-0.124V39.7h-7.2V42.571z"/>
	<polygon fill="none" stroke="#45413C" stroke-linecap="round" stroke-linejoin="round" stroke-miterlimit="10" points="58.5,42.7 
		54.9,49.9 51.3,42.7 51.3,39.7 58.5,39.7 	"/>
	<path fill="#FFB0CA" stroke="#45413C" stroke-linecap="round" stroke-linejoin="round" stroke-miterlimit="10" d="M49.278,48.231
		c0.193,0.251,0.494,0.396,0.81,0.39c0.317-0.006,0.612-0.161,0.796-0.419l1.791-2.507c0.253-0.355,0.248-0.833-0.014-1.181
		l-1.478-1.97c-1.699,0.415-3.289,1.109-4.719,2.03L49.278,48.231z"/>
	<path fill="#FFB0CA" stroke="#45413C" stroke-linecap="round" stroke-linejoin="round" stroke-miterlimit="10" d="M60.523,48.231
		c-0.193,0.251-0.494,0.396-0.81,0.39c-0.317-0.006-0.612-0.161-0.796-0.419l-1.791-2.507c-0.253-0.355-0.248-0.833,0.014-1.181
		l1.478-1.97c1.699,0.415,3.289,1.109,4.719,2.03L60.523,48.231z"/>
	<g>
		<path fill="#FFCEBF" stroke="#45413C" stroke-linecap="round" stroke-linejoin="round" stroke-miterlimit="10" d="M65.102,28.9
			v-2.4c0-0.281-0.02-0.557-0.042-0.832c-1.581,0.906-3.407,1.432-5.36,1.432c-3.314,0-6.275-1.497-8.256-3.847
			c-0.901,2.61-3.043,4.447-5.544,4.447c-0.41,0-0.811-0.05-1.198-0.144V28.9c-0.994,0-1.8,0.806-1.8,1.8v0.6
			c0,0.994,0.806,1.8,1.8,1.8c0.057,0,0.11-0.012,0.165-0.017c0.845,4.781,5.011,8.417,10.035,8.417
			c5.023,0,9.189-3.635,10.034-8.417c0.055,0.005,0.109,0.017,0.166,0.017c0.994,0,1.8-0.806,1.8-1.8v-0.6
			C66.902,29.706,66.096,28.9,65.102,28.9z"/>
		<circle fill="#FFB59E" cx="48.902" cy="33.1" r="1.2"/>
		<circle fill="#FFB59E" cx="60.902" cy="33.1" r="1.2"/>
		<path fill="none" stroke="#45413C" stroke-linecap="round" stroke-linejoin="round" stroke-miterlimit="10" d="M51.902,35.5
			c1.816,1.6,4.183,1.6,6,0"/>
		<g>
			<path fill="none" stroke="#45413C" stroke-linecap="round" stroke-linejoin="round" stroke-miterlimit="10" d="M60.302,30.1
				c-0.309-0.587-0.852-1-1.5-1c-0.649,0-1.191,0.413-1.5,1"/>
			<path fill="none" stroke="#45413C" stroke-linecap="round" stroke-linejoin="round" stroke-miterlimit="10" d="M52.502,29.9
				c-0.309-0.587-0.851-1-1.5-1c-0.648,0-1.191,0.413-1.5,1"/>
		</g>
	</g>
	<g>
		<path fill="none" stroke="#45413C" stroke-linecap="round" stroke-linejoin="round" stroke-miterlimit="10" d="M40.5,33.1v1.8
			c0,2.982,2.417,5.4,5.4,5.4h3"/>
		<g>
			<path fill="#FFFFFF" stroke="#45413C" stroke-linecap="round" stroke-linejoin="round" stroke-miterlimit="10" d="M44.101,34.3
				h-2.4c-0.663,0-1.2-0.537-1.2-1.2v-3.6c0-0.663,0.537-1.2,1.2-1.2h2.4V34.3z"/>
			<path fill="#656769" stroke="#45413C" stroke-linecap="round" stroke-linejoin="round" stroke-miterlimit="10" d="M42.9,33.1
				c0,0.663,0.537,1.2,1.2,1.2c0.663,0,1.2-0.537,1.2-1.2v-3.6c0-0.663-0.537-1.2-1.2-1.2c-0.663,0-1.2,0.537-1.2,1.2V33.1z"/>
		</g>
		<g>
			<path fill="#FFFFFF" stroke="#45413C" stroke-linecap="round" stroke-linejoin="round" stroke-miterlimit="10" d="M65.7,34.3h2.4
				c0.663,0,1.2-0.537,1.2-1.2v-3.6c0-0.663-0.537-1.2-1.2-1.2h-2.4V34.3z"/>
			<path fill="#656769" stroke="#45413C" stroke-linecap="round" stroke-linejoin="round" stroke-miterlimit="10" d="M66.9,33.1
				c0,0.663-0.537,1.2-1.2,1.2c-0.663,0-1.2-0.537-1.2-1.2v-3.6c0-0.663,0.537-1.2,1.2-1.2c0.663,0,1.2,0.537,1.2,1.2V33.1z"/>
		</g>
		
			<circle fill="#656769" stroke="#45413C" stroke-linecap="round" stroke-linejoin="round" stroke-miterlimit="10" cx="50.7" cy="40.3" r="1.8"/>
		<path fill="none" stroke="#45413C" stroke-linecap="round" stroke-linejoin="round" stroke-miterlimit="10" d="M40.5,31.3v-5.4
			c0-7.953,6.447-14.4,14.4-14.4s14.4,6.447,14.4,14.4v5.4"/>
	</g>
	<g>
		<path fill="#ADC4D9" d="M23.5,74H43l-5-15.5H19.874c-0.32,0-0.62,0.153-0.809,0.411c-0.188,0.258-0.242,0.591-0.143,0.895L23.5,74
			z"/>
		<path fill="#C0DCEB" d="M19.874,58.5c-0.32,0-0.62,0.153-0.809,0.411c-0.188,0.258-0.241,0.591-0.143,0.895l3.681,11.411
			L35.32,58.5H19.874z"/>
		<g>
			<path fill="#E8F4FA" stroke="#45413C" stroke-linejoin="round" stroke-miterlimit="10" d="M43,74h2l-4.776-14.807
				c-0.133-0.412-0.518-0.692-0.952-0.692H38"/>
			<path fill="#C0DCEB" stroke="#45413C" stroke-linejoin="round" stroke-miterlimit="10" d="M23.5,74H44v2.5H25.5
				c-1.104,0-2-0.895-2-2V74z"/>
			<path fill="#E8F4FA" stroke="#45413C" stroke-linejoin="round" stroke-miterlimit="10" d="M44,74h9.5c0.276,0,0.5,0.224,0.5,0.5
				c0,1.105-0.896,2-2,2h-8V74z"/>
			<g>
				<g>
					<path fill="#FFFFFF" stroke="#45413C" stroke-linejoin="round" stroke-miterlimit="10" d="M31.841,65.698
						c-0.006-0.622,0.507-0.92,0.531-0.935c-0.289-0.422-0.739-0.48-0.899-0.487c-0.382-0.039-0.746,0.226-0.941,0.226
						c-0.193,0-0.493-0.22-0.81-0.214c-0.417,0.007-0.802,0.243-1.016,0.616c-0.433,0.752-0.111,1.866,0.312,2.475
						c0.206,0.299,0.452,0.634,0.775,0.621c0.312-0.011,0.429-0.2,0.805-0.2s0.482,0.2,0.811,0.195
						c0.335-0.006,0.547-0.304,0.752-0.603c0.237-0.347,0.335-0.682,0.34-0.699C32.493,66.688,31.848,66.441,31.841,65.698z"/>
				</g>
				
					<line fill="none" stroke="#45413C" stroke-linecap="round" stroke-linejoin="round" stroke-miterlimit="10" x1="31.001" y1="63" x2="31.451" y2="62.549"/>
			</g>
			<path fill="none" stroke="#45413C" stroke-linejoin="round" stroke-miterlimit="10" d="M23.5,74H43l-5-15.5H19.874
				c-0.32,0-0.62,0.153-0.809,0.411c-0.188,0.258-0.242,0.591-0.143,0.895L23.5,74z"/>
		</g>
	</g>
</g>
</svg>
