<?xml version="1.0" encoding="utf-8"?>
<!-- Generator: Adobe Illustrator 21.0.0, SVG Export Plug-In . SVG Version: 6.00 Build 0)  -->
<svg version="1.1" id="Layer_1" xmlns="http://www.w3.org/2000/svg" xmlns:xlink="http://www.w3.org/1999/xlink" x="0px" y="0px"
	 width="96px" height="96px" viewBox="0 0 96 96" enable-background="new 0 0 96 96" xml:space="preserve">
<g>
	<g>
		<path fill="#BDFBFC" d="M87,49C87,26.908,69.091,9,47,9S7,26.908,7,49c0,5.885,1.281,11.468,3.564,16.5h72.872
			C85.718,60.468,87,54.885,87,49z"/>
		<path fill="#FFEF9E" d="M10.564,65.5C16.849,79.356,30.794,89,47,89s30.151-9.643,36.436-23.5H10.564z"/>
		<path fill="#FFFACF" d="M81.607,69c0.659-1.137,1.282-2.296,1.829-3.5H10.564c0.546,1.204,1.17,2.363,1.829,3.5H81.607z"/>
	</g>
	<g>
		
			<line fill="none" stroke="#45413C" stroke-linecap="round" stroke-linejoin="round" stroke-miterlimit="10" x1="8" y1="65.5" x2="86" y2="65.5"/>
		
			<line fill="none" stroke="#45413C" stroke-linecap="round" stroke-linejoin="round" stroke-miterlimit="10" x1="3.5" y1="65.5" x2="6" y2="65.5"/>
		
			<line fill="none" stroke="#45413C" stroke-linecap="round" stroke-linejoin="round" stroke-miterlimit="10" x1="88" y1="65.5" x2="90.5" y2="65.5"/>
	</g>
</g>
<g>
	<ellipse opacity="0.15" fill="#45413C" cx="33.75" cy="79.5" rx="15.25" ry="1.5"/>
	<path fill="#FF87AF" stroke="#45413C" stroke-linecap="round" stroke-linejoin="round" stroke-miterlimit="10" d="M54.5,53.047V54
		c0,1.105,0.895,2,2,2h9v-1c0-1.105-0.895-2-2-2H62l-1.573-1.966c-0.211-0.264-0.619-0.247-0.806,0.035L59,52
		c-1.031,0.378-2.244,0.371-3.254,0.082C55.118,51.902,54.5,52.394,54.5,53.047z"/>
	<path fill="#9F5AE5" stroke="#45413C" stroke-linecap="round" stroke-linejoin="round" stroke-miterlimit="10" d="M74.5,27
		c0,0.552-0.448,1-1,1h-6c-0.552,0-1-0.448-1-1v-3c0-0.276,0.224-0.5,0.5-0.5h7c0.276,0,0.5,0.224,0.5,0.5V27z"/>
	<path fill="#BF8DF2" stroke="#45413C" stroke-linecap="round" stroke-linejoin="round" stroke-miterlimit="10" d="M74.5,24
		c0,1.105-0.895,2-2,2h-4c-1.105,0-2-0.895-2-2l0,0c0-0.276,0.224-0.5,0.5-0.5h7C74.276,23.5,74.5,23.723,74.5,24L74.5,24z"/>
	<g>
		<path fill="#FF6242" stroke="#45413C" stroke-linecap="round" stroke-linejoin="round" stroke-miterlimit="10" d="M56,39h1.5
			c2,1,2.5,1.5,2.5,3h-3.091C54,42,54,39.5,51.5,39.5c-1.381,0-2.5-1.119-2.5-2.5l0.329-1.317c0.083-0.333,0.466-0.487,0.754-0.3
			C51.122,36.057,53.426,37.528,56,39z"/>
		
			<line fill="none" stroke="#45413C" stroke-linecap="round" stroke-linejoin="round" stroke-miterlimit="10" x1="50.5" y1="39.291" x2="50.5" y2="42"/>
	</g>
	<g>
		<path fill="#656769" stroke="#45413C" stroke-linecap="round" stroke-linejoin="round" stroke-miterlimit="10" d="M70.5,39H72
			c2,1,2.5,1.5,2.5,3h-3.091C68.5,42,68.5,39.5,66,39.5c-1.381,0-2.5-1.119-2.5-2.5l0.329-1.317c0.083-0.333,0.466-0.487,0.754-0.3
			C65.622,36.057,67.926,37.528,70.5,39z"/>
		
			<line fill="none" stroke="#45413C" stroke-linecap="round" stroke-linejoin="round" stroke-miterlimit="10" x1="65" y1="39.291" x2="65" y2="42"/>
	</g>
	
		<line fill="none" stroke="#45413C" stroke-linecap="round" stroke-linejoin="round" stroke-miterlimit="10" x1="79.5" y1="39.291" x2="79.5" y2="42"/>
	<path fill="#FFAA54" stroke="#45413C" stroke-linecap="round" stroke-linejoin="round" stroke-miterlimit="10" d="M61.704,25.411
		c0.187,0.607,0.074,1.266-0.303,1.776C61.024,27.698,60.427,28,59.792,28h-6.084c-0.635,0-1.232-0.301-1.609-0.812
		c-0.377-0.51-0.489-1.17-0.303-1.776L53,21.5h7.5L61.704,25.411z"/>
	<path fill="none" stroke="#45413C" stroke-linecap="round" stroke-linejoin="round" stroke-miterlimit="10" d="M53,21.5v-0.75
		c0-2.071,1.679-3.75,3.75-3.75s3.75,1.679,3.75,3.75v0.75"/>
	<path fill="#FF8A14" stroke="#45413C" stroke-linecap="round" stroke-linejoin="round" stroke-miterlimit="10" d="M58,24.25
		c0,0.69-0.56,1.25-1.25,1.25s-1.25-0.56-1.25-1.25V21.5H58V24.25z"/>
	<path fill="#FFFFFF" stroke="#45413C" stroke-linecap="round" stroke-linejoin="round" stroke-miterlimit="10" d="M65.5,56v-1
		c0-1.105-0.896-2-2-2H62v3H65.5z"/>
	<path fill="#FFFFFF" stroke="#45413C" stroke-linecap="round" stroke-linejoin="round" stroke-miterlimit="10" d="M55,53.5h-0.5V54
		c0,1.105,0.896,2,2,2H57v-0.5C57,54.395,56.104,53.5,55,53.5z"/>
	<path fill="#FFCC99" stroke="#45413C" stroke-linecap="round" stroke-linejoin="round" stroke-miterlimit="10" d="M85,56H72.5v-2.5
		H84c0.552,0,1,0.448,1,1V56z"/>
	<path fill="#FFB0CA" stroke="#45413C" stroke-linecap="round" stroke-linejoin="round" stroke-miterlimit="10" d="M84,53.5H72.5
		c-0.552,0-1-0.448-1-1V52c0-0.552,0.448-1,1-1H83c0.552,0,1,0.448,1,1V53.5z"/>
	<path fill="#FFFFFF" stroke="#45413C" stroke-linecap="round" stroke-linejoin="round" stroke-miterlimit="10" d="M81.077,28H46.25
		c-0.69,0-1.25,0.56-1.25,1.25c0,0.69,0.56,1.25,1.25,1.25H82.5"/>
	<path fill="#FFFFFF" stroke="#45413C" stroke-linecap="round" stroke-linejoin="round" stroke-miterlimit="10" d="M86.4,42H46.25
		c-0.69,0-1.25,0.56-1.25,1.25s0.56,1.25,1.25,1.25h40.51"/>
	<path fill="#FFFFFF" stroke="#45413C" stroke-linecap="round" stroke-linejoin="round" stroke-miterlimit="10" d="M86.402,56H46.25
		c-0.69,0-1.25,0.56-1.25,1.25s0.56,1.25,1.25,1.25h39.628"/>
	<g>
		<g>
			<path fill="#FFDA8F" stroke="#45413C" stroke-linecap="round" stroke-linejoin="round" stroke-miterlimit="10" d="M26.5,34.5
				c0-0.602,0.434-1.08,1-1.2v-0.8c0-3.314,2.686-6,6-6c3.314,0,6,2.686,6,6v0.8c0.566,0.119,1,0.598,1,1.2
				c0,0.646-0.497,1.16-1.126,1.225c-0.565,2.726-2.98,4.775-5.874,4.775s-5.309-2.049-5.874-4.775
				C26.997,35.66,26.5,35.146,26.5,34.5z"/>
			<circle fill="#FFBE3D" cx="36.75" cy="35.25" r="0.75"/>
			<circle fill="#FFBE3D" cx="30.25" cy="35.25" r="0.75"/>
			<path fill="none" stroke="#45413C" stroke-linecap="round" stroke-linejoin="round" stroke-miterlimit="10" d="M35,37.045
				c-0.908,0.606-2.092,0.606-3,0"/>
			<path fill="#FFBE3D" d="M30.25,36c-0.414,0-0.75-0.336-0.75-0.75s0.336-0.75,0.75-0.75c0.414,0,0.75,0.336,0.75,0.75"/>
			<g>
				<g>
					<path fill="none" stroke="#45413C" stroke-linecap="round" stroke-linejoin="round" stroke-miterlimit="10" d="M31,33.416
						c0.332-0.332,0.871-0.332,1.203,0"/>
				</g>
			</g>
			<g>
				<g>
					<path fill="none" stroke="#45413C" stroke-linecap="round" stroke-linejoin="round" stroke-miterlimit="10" d="M34.797,33.416
						c0.332-0.332,0.871-0.332,1.203,0"/>
				</g>
			</g>
		</g>
		<path fill="#FFDA8F" d="M50.917,49.38c-0.21-0.09-0.44-0.13-0.67-0.13c-0.71,0-1.34,0.42-1.62,1.08l-1.47,3.54
			c-0.35,0.84-1.17,1.38-2.08,1.38h-0.33c-1.24,0-2.25-1.01-2.25-2.25v-1.5c0-4.982-4.112-8.998-8.997-9
			c-4.885,0.002-8.997,4.018-8.997,9V53c0,1.24-1.01,2.25-2.25,2.25h-0.33c-0.91,0-1.73-0.54-2.08-1.38l-1.47-3.54
			c-0.28-0.66-0.91-1.08-1.62-1.08c-0.23,0-0.46,0.04-0.67,0.13c-0.89,0.38-1.32,1.4-0.95,2.29l1.48,3.54
			c0.89,2.15,2.98,3.54,5.31,3.54h0.33c3,0,5.47-2.31,5.72-5.25h0.03v4H33.5H39v-4c0,0,0.626,5.25,5.747,5.25h0.33
			c2.33,0,4.42-1.39,5.31-3.54l1.48-3.54C52.237,50.78,51.807,49.76,50.917,49.38z"/>
		<path fill="#FFE9BD" d="M24.503,53.499c0-4.982,4.112-8.998,8.997-9c4.885,0.002,8.997,4.018,8.997,9V53v-1.5
			c0-4.982-4.112-8.998-8.997-9c-4.885,0.002-8.997,4.018-8.997,9V53V53.499z"/>
		<path fill="none" stroke="#45413C" stroke-linecap="round" stroke-linejoin="round" stroke-miterlimit="10" d="M50.917,49.38
			c-0.21-0.09-0.44-0.13-0.67-0.13c-0.71,0-1.34,0.42-1.62,1.08l-1.47,3.54c-0.35,0.84-1.17,1.38-2.08,1.38h-0.33
			c-1.24,0-2.25-1.01-2.25-2.25v-1.5c0-4.982-4.112-8.998-8.997-9c-4.885,0.002-8.997,4.018-8.997,9V53c0,1.24-1.01,2.25-2.25,2.25
			h-0.33c-0.91,0-1.73-0.54-2.08-1.38l-1.47-3.54c-0.28-0.66-0.91-1.08-1.62-1.08c-0.23,0-0.46,0.04-0.67,0.13
			c-0.89,0.38-1.32,1.4-0.95,2.29l1.48,3.54c0.89,2.15,2.98,3.54,5.31,3.54h0.33c3,0,5.47-2.31,5.72-5.25h0.03v4H33.5H39v-4
			c0,0,0.626,5.25,5.747,5.25h0.33c2.33,0,4.42-1.39,5.31-3.54l1.48-3.54C52.237,50.78,51.807,49.76,50.917,49.38z"/>
		
			<line fill="#FFCEBF" stroke="#45413C" stroke-linecap="round" stroke-linejoin="round" stroke-miterlimit="10" x1="21.923" y1="55.25" x2="19.426" y2="62"/>
		<path fill="#656769" d="M39.003,78.5v-21h-11v21c0,0.552,0.448,1,1,1h9C38.555,79.5,39.003,79.052,39.003,78.5z"/>
		<polygon fill="#525252" points="39,60 39.003,57.5 28.003,57.5 28,60 		"/>
		<path fill="none" stroke="#45413C" stroke-linecap="round" stroke-linejoin="round" stroke-miterlimit="10" d="M39.003,78.5v-21
			h-11v21c0,0.552,0.448,1,1,1h9C38.555,79.5,39.003,79.052,39.003,78.5z"/>
		
			<line fill="none" stroke="#45413C" stroke-linecap="round" stroke-linejoin="round" stroke-miterlimit="10" x1="33.503" y1="65" x2="33.503" y2="79.5"/>
		<path fill="#FF6242" stroke="#45413C" stroke-linecap="round" stroke-linejoin="round" stroke-miterlimit="10" d="M33.503,79.5
			c0-1.657-1.343-3-3-3h-0.5c-1.131,0-2.115,0.626-2.627,1.549c-0.36,0.651,0.153,1.451,0.897,1.451H33.503z"/>
		<path fill="#FF6242" stroke="#45413C" stroke-linecap="round" stroke-linejoin="round" stroke-miterlimit="10" d="M38.732,79.5
			c0.744,0,1.257-0.799,0.897-1.451c-0.511-0.924-1.496-1.549-2.627-1.549h-0.5c-1.657,0-3,1.343-3,3H38.732z"/>
		<path fill="#E8F4FA" d="M39.57,52.14c-0.23,0.31-0.48,0.99-0.57,1.36v4H28v-4c-0.09-0.37-0.28-1.05-0.51-1.36
			c-0.96-1.35-0.25-2.13,1.01-4.64v-3.47c0.63-0.42,1.32-0.77,2.04-1.02c0.32,1.49,1.32,4.13,2.99,4.98
			c1.36-0.68,2.42-3.26,2.92-4.99c0.73,0.26,1.42,0.61,2.06,1.04v3.46c0.18,0.37,0.36,0.7,0.521,1
			C39.96,50.25,40.39,50.99,39.57,52.14z"/>
		<path fill="#FFFFFF" d="M30.54,43.01c-0.725,0.257-1.41,0.604-2.04,1.029v2c0.792-0.535,1.672-0.947,2.608-1.21
			C30.839,44.167,30.65,43.521,30.54,43.01z"/>
		<path fill="#FFFFFF" d="M36.448,43.006c-0.158,0.546-0.371,1.175-0.632,1.803c0.969,0.263,1.878,0.684,2.694,1.237v-2
			C37.874,43.615,37.181,43.264,36.448,43.006z"/>
		<path fill="none" stroke="#45413C" stroke-linecap="round" stroke-linejoin="round" stroke-miterlimit="10" d="M39.57,52.14
			c-0.23,0.31-0.48,0.99-0.57,1.36v4H28v-4c-0.09-0.37-0.28-1.05-0.51-1.36c-0.96-1.35-0.25-2.13,1.01-4.64v-3.47
			c0.63-0.42,1.32-0.77,2.04-1.02c0.32,1.49,1.32,4.13,2.99,4.98c1.36-0.68,2.42-3.26,2.92-4.99c0.73,0.26,1.42,0.61,2.06,1.04v3.46
			c0.18,0.37,0.36,0.7,0.521,1C39.96,50.25,40.39,50.99,39.57,52.14z"/>
		
			<line fill="#FFCEBF" stroke="#45413C" stroke-linecap="round" stroke-linejoin="round" stroke-miterlimit="10" x1="21.923" y1="55.25" x2="24.42" y2="62"/>
		<path fill="#9F5AE5" stroke="#45413C" stroke-linecap="round" stroke-linejoin="round" stroke-miterlimit="10" d="M26.003,65.5
			c0,0.552-0.448,1-1,1h-6c-0.552,0-1-0.448-1-1v-3c0-0.276,0.224-0.5,0.5-0.5h7c0.276,0,0.5,0.224,0.5,0.5V65.5z"/>
		<path fill="#BF8DF2" stroke="#45413C" stroke-linecap="round" stroke-linejoin="round" stroke-miterlimit="10" d="M26.003,62.5
			c0,1.105-0.895,2-2,2h-4c-1.105,0-2-0.895-2-2l0,0c0-0.276,0.224-0.5,0.5-0.5h7C25.779,62,26.003,62.223,26.003,62.5L26.003,62.5z
			"/>
		<path fill="#BD704A" d="M41.5,32.5v14.9c-1.05-2.03-2.85-3.6-5-4.38V39.7c1.45-0.85,2.52-2.28,2.87-3.98
			c0.63-0.06,1.13-0.57,1.13-1.22c0-0.6-0.43-1.08-1-1.2v-0.02c0.1-0.03,0.11-0.06,0-0.08c-2.02-0.27-4.59-4.2-6.48-4.2
			c0-0.83-0.67-1.5-1.5-1.5c-0.53,0-1.04,0.21-1.41,0.59c-0.38,0.37-0.59,0.88-0.59,1.41v0.11c0.09,0.05-1.93,3.73-2.02,3.68
			c-0.04,0.01-0.06,0.02-0.06,0.03c-0.54,0.13-0.94,0.6-0.94,1.18c0,0.65,0.5,1.16,1.13,1.22c0.39,1.89,1.67,3.46,3.38,4.24
			c-0.58,1.37-0.62,2.29-0.42,3.03c0.52,2,2.72,2.67,0.43,7.26c-2.33-1.27-4.06-2.17-4.91-3.86c-0.39-0.77-0.6-1.7-0.61-2.91V28.09
			c0.02-1.98,1.63-3.59,3.61-3.59c0.9,0,1.77,0.36,2.41,1c2.25-1.13,4.95-0.85,6.93,0.7C40.32,27.67,41.52,29.94,41.5,32.5z"/>
		<g>
			<path fill="#D18660" d="M38.45,26.2c-1.98-1.55-4.68-1.83-6.93-0.7c-0.64-0.64-1.51-1-2.41-1c-1.98,0-3.59,1.61-3.61,3.59v2
				c0.02-1.98,1.63-3.59,3.61-3.59c0.9,0,1.77,0.36,2.41,1c2.25-1.13,4.95-0.85,6.93,0.7c1.87,1.47,3.07,3.74,3.05,6.3v-2
				C41.52,29.94,40.32,27.67,38.45,26.2z"/>
		</g>
		<path fill="none" stroke="#45413C" stroke-linecap="round" stroke-linejoin="round" stroke-miterlimit="10" d="M41.5,32.5v14.9
			c-1.05-2.03-2.85-3.6-5-4.38V39.7c1.45-0.85,2.52-2.28,2.87-3.98c0.63-0.06,1.13-0.57,1.13-1.22c0-0.6-0.43-1.08-1-1.2v-0.02
			c0.1-0.03,0.11-0.06,0-0.08c-2.02-0.27-4.59-4.2-6.48-4.2c0-0.83-0.67-1.5-1.5-1.5c-0.53,0-1.04,0.21-1.41,0.59
			c-0.38,0.37-0.59,0.88-0.59,1.41v0.11c0.09,0.05-1.93,3.73-2.02,3.68c-0.04,0.01-0.06,0.02-0.06,0.03
			c-0.54,0.13-0.94,0.6-0.94,1.18c0,0.65,0.5,1.16,1.13,1.22c0.39,1.89,1.67,3.46,3.38,4.24c-0.58,1.37-0.62,2.29-0.42,3.03
			c0.52,2,2.72,2.67,0.43,7.26c-2.33-1.27-4.06-2.17-4.91-3.86c-0.39-0.77-0.6-1.7-0.61-2.91V28.09c0.02-1.98,1.63-3.59,3.61-3.59
			c0.9,0,1.77,0.36,2.41,1c2.25-1.13,4.95-0.85,6.93,0.7C40.32,27.67,41.52,29.94,41.5,32.5z"/>
		<g>
			<path fill="#F7E5C6" stroke="#45413C" stroke-linecap="round" stroke-linejoin="round" stroke-miterlimit="10" d="M46.041,72.676
				h-1.915c-0.569,0-1.023-0.473-0.999-1.042l0.457-10.958h3l0.457,10.958C47.063,72.203,46.609,72.676,46.041,72.676z"/>
			
				<line fill="none" stroke="#45413C" stroke-linecap="round" stroke-linejoin="round" stroke-miterlimit="10" x1="45.083" y1="60.676" x2="45.083" y2="54.176"/>
		</g>
		<g>
			<path fill="#FFE500" stroke="#45413C" stroke-linecap="round" stroke-linejoin="round" stroke-miterlimit="10" d="M41.489,72.483
				l-1.882-0.355c-0.559-0.105-0.917-0.655-0.789-1.209L41.3,60.236l2.948,0.556l-1.583,10.853
				C42.582,72.207,42.048,72.589,41.489,72.483z"/>
			
				<line fill="none" stroke="#45413C" stroke-linecap="round" stroke-linejoin="round" stroke-miterlimit="10" x1="42.774" y1="60.514" x2="43.979" y2="54.126"/>
		</g>
		<g>
			<path fill="#00B8F0" stroke="#45413C" stroke-linecap="round" stroke-linejoin="round" stroke-miterlimit="10" d="M48.677,72.483
				l1.882-0.355c0.559-0.105,0.917-0.655,0.789-1.209l-2.481-10.684l-2.948,0.556l1.583,10.853
				C47.584,72.207,48.118,72.589,48.677,72.483z"/>
			
				<line fill="none" stroke="#45413C" stroke-linecap="round" stroke-linejoin="round" stroke-miterlimit="10" x1="47.393" y1="60.514" x2="46.187" y2="54.126"/>
		</g>
	</g>
	<path fill="#FF8A14" stroke="#45413C" stroke-linecap="round" stroke-linejoin="round" stroke-miterlimit="10" d="M85.751,39h-0.74
		c-2.574-1.471-4.889-2.942-5.928-3.617c-0.288-0.187-0.67-0.033-0.754,0.3L78,37c0,1.381,1.119,2.5,2.5,2.5c2.5,0,2,2.5,4.909,2.5
		H86.4"/>
</g>
</svg>
