<?xml version="1.0" encoding="utf-8"?>
<!-- Generator: Adobe Illustrator 21.0.0, SVG Export Plug-In . SVG Version: 6.00 Build 0)  -->
<svg version="1.1" id="Layer_1" xmlns="http://www.w3.org/2000/svg" xmlns:xlink="http://www.w3.org/1999/xlink" x="0px" y="0px"
	 width="96px" height="96px" viewBox="0 0 96 96" enable-background="new 0 0 96 96" xml:space="preserve">
<g>
	<g>
		<path fill="#CDF7AD" d="M47.188,89c14.798,0,27.69-8.053,34.608-20H12.581C19.498,80.947,32.391,89,47.188,89z"/>
		<path fill="#E4FFD1" d="M10.752,65.5c0.546,1.204,1.17,2.363,1.828,3.5h69.215c0.658-1.137,1.282-2.296,1.828-3.5H10.752z"/>
	</g>
	<path fill="#BDFBFC" d="M87.188,49c0-22.091-17.909-40-40-40s-40,17.909-40,40c0,5.885,1.282,11.468,3.564,16.5h72.872
		C85.907,60.468,87.188,54.885,87.188,49z"/>
	<g>
		
			<line fill="none" stroke="#45413C" stroke-linecap="round" stroke-linejoin="round" stroke-miterlimit="10" x1="8.189" y1="65.5" x2="86.188" y2="65.5"/>
		
			<line fill="none" stroke="#45413C" stroke-linecap="round" stroke-linejoin="round" stroke-miterlimit="10" x1="3.688" y1="65.5" x2="6.188" y2="65.5"/>
		
			<line fill="none" stroke="#45413C" stroke-linecap="round" stroke-linejoin="round" stroke-miterlimit="10" x1="88.188" y1="65.5" x2="90.688" y2="65.5"/>
	</g>
</g>
<g>
	<path fill="#FFCEBF" stroke="#45413C" stroke-linecap="round" stroke-linejoin="round" stroke-miterlimit="10" d="M29.694,27
		c-3.314,0-6,2.686-6,6v0.8c-0.566,0.119-1,0.598-1,1.2c0,0.646,0.497,1.16,1.126,1.225C24.385,38.951,26.8,41,29.694,41
		c3.314,0,6-2.686,6-6v-2C35.694,29.686,33.007,27,29.694,27z"/>
	<circle fill="#45413C" cx="28.944" cy="33.75" r="0.75"/>
	<circle fill="#45413C" cx="32.944" cy="33.75" r="0.75"/>
	<circle fill="#FFB59E" cx="26.944" cy="35.75" r="0.75"/>
	<path fill="none" stroke="#45413C" stroke-linecap="round" stroke-linejoin="round" stroke-miterlimit="10" d="M29.194,37.546
		c0.908,0.606,2.092,0.606,3,0"/>
	<ellipse opacity="0.15" fill="#45413C" cx="29.697" cy="80" rx="8.5" ry="1.5"/>
	<path fill="#FFF48C" stroke="#45413C" stroke-linecap="round" stroke-linejoin="round" stroke-miterlimit="10" d="M30.708,79.5
		c-0.744,0-1.257-0.799-0.897-1.451c0.511-0.924,1.496-1.549,2.627-1.549h0.5c1.131,0,2.115,0.626,2.627,1.549
		c0.36,0.651-0.153,1.451-0.897,1.451H30.708z"/>
	<path fill="#FFF48C" stroke="#45413C" stroke-linecap="round" stroke-linejoin="round" stroke-miterlimit="10" d="M24.722,79.5
		c-0.744,0-1.257-0.799-0.897-1.451c0.511-0.924,1.496-1.549,2.627-1.549h0.5c1.131,0,2.115,0.626,2.627,1.549
		c0.36,0.651-0.153,1.451-0.897,1.451H24.722z"/>
	<path fill="#FFFFFF" stroke="#45413C" stroke-linecap="round" stroke-linejoin="round" stroke-miterlimit="10" d="M21.204,77
		h16.977c0.557,0,1.013-0.462,1.003-1.019C38.958,63.764,34.694,59.5,34.694,59.5c-0.922-1.411-1.671-3.9,0.5-7.401V49
		c0,0-2.001-2.998-5.5-0.002c-3.499-2.995-5.5,0.502-5.5,0.502v2.599c2.171,3.501,1.422,5.99,0.5,7.401c0,0-4.281,3.33-4.492,16.485
		C20.193,76.541,20.647,77,21.204,77z"/>
	<path fill="#FFDF3D" d="M36.58,29.019c-0.459-2.056-2.284-3.519-4.391-3.519c-0.881,0-1.739,0.247-2.496,0.692
		c-0.757-0.445-1.615-0.692-2.496-0.692c-2.107,0-3.932,1.462-4.391,3.519C22.348,31.074,20.694,33,22.194,36.5s-2.5,6.5,4.5,8
		c-2-5,1-4.5-0.5-9c-0.852-2.554-1-4.5,1-4.5c1.313,0,1.901-0.357,2.5-0.949c0.599,0.592,1.687,1.449,3,1.449c2,0,3,1.5,3,1.5
		c-2.5,4,2.5,7-2.5,11.5c7-2,3-5.5,4-8C38.608,32.965,37.039,31.074,36.58,29.019z"/>
	<g>
		<path fill="#FFEF9E" d="M22.807,31.019c0.459-2.056,2.284-3.519,4.391-3.519c0.881,0,1.739,0.247,2.496,0.692
			c0.757-0.445,1.615-0.692,2.496-0.692c2.107,0,3.932,1.462,4.391,3.519c0.263,1.178,0.888,2.303,1.11,3.713
			c0.383-2.456-0.734-4.03-1.11-5.713c-0.459-2.056-2.284-3.519-4.391-3.519c-0.881,0-1.739,0.247-2.496,0.692
			c-0.757-0.445-1.615-0.692-2.496-0.692c-2.107,0-3.932,1.462-4.391,3.519c-0.375,1.68-1.547,3.275-1.144,5.713
			C21.895,33.325,22.545,32.192,22.807,31.019z"/>
	</g>
	<path fill="none" stroke="#45413C" stroke-linecap="round" stroke-linejoin="round" stroke-miterlimit="10" d="M36.58,29.019
		c-0.459-2.056-2.284-3.519-4.391-3.519c-0.881,0-1.739,0.247-2.496,0.692c-0.757-0.445-1.615-0.692-2.496-0.692
		c-2.107,0-3.932,1.462-4.391,3.519C22.348,31.074,20.694,33,22.194,36.5s-2.5,6.5,4.5,8c-2-5,1-4.5-0.5-9c-0.852-2.554-1-4.5,1-4.5
		c1.313,0,1.901-0.357,2.5-0.949c0.599,0.592,1.687,1.449,3,1.449c2,0,3,1.5,3,1.5c-2.5,4,2.5,7-2.5,11.5c7-2,3-5.5,4-8
		C38.608,32.965,37.039,31.074,36.58,29.019z"/>
	
		<line fill="none" stroke="#45413C" stroke-linecap="round" stroke-linejoin="round" stroke-miterlimit="10" x1="37.694" y1="30" x2="21.694" y2="30"/>
	<path fill="#6DD627" stroke="#45413C" stroke-linecap="round" stroke-linejoin="round" stroke-miterlimit="10" d="M34.234,31.535
		c-0.185-0.847,0.281-1.347,0.959-1.495c0.678-0.148,1.31,0.112,1.495,0.959c0.185,0.847-0.691,2.722-0.691,2.722
		S34.42,32.382,34.234,31.535z"/>
	<path fill="#6DD627" stroke="#45413C" stroke-linecap="round" stroke-linejoin="round" stroke-miterlimit="10" d="M24.421,27.74
		c0.661,0.562,0.593,1.242,0.143,1.771s-1.11,0.705-1.771,0.143c-0.661-0.562-1.1-2.584-1.1-2.584S23.761,27.179,24.421,27.74z"/>
	<path fill="#FFFFFF" stroke="#45413C" stroke-linecap="round" stroke-linejoin="round" stroke-miterlimit="10" d="M28.194,28.5
		c-0.197,0-0.385,0.04-0.558,0.11c-0.173-0.638-0.75-1.11-1.442-1.11c-0.829,0-1.5,0.672-1.5,1.5c0,0.269,0.076,0.517,0.2,0.735
		c-0.42,0.266-0.7,0.731-0.7,1.265c0,0.828,0.671,1.5,1.5,1.5c0.794,0,1.436-0.618,1.49-1.398c0.267,0.245,0.62,0.398,1.01,0.398
		c0.829,0,1.5-0.672,1.5-1.5S29.022,28.5,28.194,28.5z"/>
	<path fill="#FFCEBF" d="M49.68,53.282l-0.053-0.421c-0.172-1.38-1.023-2.567-2.274-3.177c-0.558-0.271-1.179-0.415-1.795-0.415
		c-0.74,0-1.469,0.202-2.108,0.585l-3.853,2.312c-0.091,0.055-0.196,0.084-0.305,0.084c-0.331,0-0.6-0.269-0.6-0.6V51.5
		c0-4.97-4.03-9-9-9c-4.97,0-9,4.03-9,9v0.75V53v2.566c0,2.107,0.696,4.195,1.96,5.88l1.39,1.854c0.329,0.438,0.853,0.7,1.401,0.7
		c0.382,0,0.745-0.121,1.05-0.351c0.771-0.578,0.928-1.677,0.35-2.449l-1.39-1.854c-0.813-1.084-1.261-2.426-1.261-3.78V49.5
		c0,0,2.001-3.498,5.5-0.502c3.499-2.995,5.5,0.002,5.5,0.002v2.5v0.15c0,2.261,1.839,4.1,4.1,4.1c0.743,0,1.473-0.202,2.108-0.584
		l3.848-2.309c0.095-0.057,0.202-0.087,0.311-0.087c0.091,0,0.18,0.021,0.263,0.061c0.183,0.089,0.307,0.263,0.332,0.464
		l0.053,0.422c0.108,0.875,0.851,1.535,1.726,1.535c0.077,0,0.155-0.006,0.229-0.016C49.118,55.116,49.8,54.239,49.68,53.282z"/>
	<g>
		<path fill="#FFDCD1" d="M38.694,51.5c0-4.97-4.03-9-9-9s-9,4.03-9,9c0,0.731,0,1.269,0,2c0-4.97,4.03-9,9-9
			c4.057,0,7.726,2.73,8.73,6.858c0.022,0.093,0.109,0.155,0.203,0.147L38.694,51.5z"/>
	</g>
	<path fill="none" stroke="#45413C" stroke-linecap="round" stroke-linejoin="round" stroke-miterlimit="10" d="M49.68,53.282
		l-0.053-0.421c-0.172-1.38-1.023-2.567-2.274-3.177c-0.558-0.271-1.179-0.415-1.795-0.415c-0.74,0-1.469,0.202-2.108,0.585
		l-3.853,2.312c-0.091,0.055-0.196,0.084-0.305,0.084c-0.331,0-0.6-0.269-0.6-0.6V51.5c0-4.97-4.03-9-9-9c-4.97,0-9,4.03-9,9v0.75
		V53v2.566c0,2.107,0.696,4.195,1.96,5.88l1.39,1.854c0.329,0.438,0.853,0.7,1.401,0.7c0.382,0,0.745-0.121,1.05-0.351
		c0.771-0.578,0.928-1.677,0.35-2.449l-1.39-1.854c-0.813-1.084-1.261-2.426-1.261-3.78V49.5c0,0,2.001-3.498,5.5-0.502
		c3.499-2.995,5.5,0.002,5.5,0.002v2.5v0.15c0,2.261,1.839,4.1,4.1,4.1c0.743,0,1.473-0.202,2.108-0.584l3.848-2.309
		c0.095-0.057,0.202-0.087,0.311-0.087c0.091,0,0.18,0.021,0.263,0.061c0.183,0.089,0.307,0.263,0.332,0.464l0.053,0.422
		c0.108,0.875,0.851,1.535,1.726,1.535c0.077,0,0.155-0.006,0.229-0.016C49.118,55.116,49.8,54.239,49.68,53.282z"/>
	
		<line fill="none" stroke="#45413C" stroke-linecap="round" stroke-linejoin="round" stroke-miterlimit="10" x1="29.694" y1="46.5" x2="29.694" y2="49"/>
	
		<line fill="none" stroke="#45413C" stroke-linecap="round" stroke-linejoin="round" stroke-miterlimit="10" x1="47.193" y1="9" x2="47.193" y2="22.953"/>
	<path fill="#FF6242" stroke="#45413C" stroke-linecap="round" stroke-linejoin="round" stroke-miterlimit="10" d="M47.19,29
		c-5.679-2.521-3.515-9.532,0-6.047C50.705,19.468,52.873,26.477,47.19,29z"/>
	
		<line fill="none" stroke="#45413C" stroke-linecap="round" stroke-linejoin="round" stroke-miterlimit="10" x1="36.193" y1="10.531" x2="36.193" y2="18.041"/>
	<path fill="#FF87AF" stroke="#45413C" stroke-linecap="round" stroke-linejoin="round" stroke-miterlimit="10" d="M36.19,21.5
		c-3.249-1.442-2.011-5.453,0-3.459C38.201,16.047,39.441,20.057,36.19,21.5z"/>
	
		<line fill="none" stroke="#45413C" stroke-linecap="round" stroke-linejoin="round" stroke-miterlimit="10" x1="58.193" y1="10.625" x2="58.195" y2="18.041"/>
	<path fill="#FF87AF" stroke="#45413C" stroke-linecap="round" stroke-linejoin="round" stroke-miterlimit="10" d="M58.195,21.5
		c3.249-1.442,2.011-5.453,0-3.459C56.184,16.047,54.944,20.057,58.195,21.5z"/>
	<g>
		<path fill="#D18660" stroke="#45413C" stroke-linecap="round" stroke-linejoin="round" stroke-miterlimit="10" d="M64.179,27
			c3.314,0,6,2.686,6,6v0.8c0.566,0.119,1,0.598,1,1.2c0,0.646-0.497,1.16-1.126,1.225C69.487,38.951,67.073,41,64.179,41
			c-3.314,0-6-2.686-6-6v-2C58.179,29.686,60.865,27,64.179,27z"/>
		<ellipse opacity="0.15" fill="#45413C" cx="64.178" cy="80" rx="10" ry="1.5"/>
		<g>
			<path fill="#87898C" d="M57.679,61v17.5c0,0.552,0.447,1,0.999,1h2.531c0.54,0,0.982-0.429,1-0.968l0.362-11.411
				c0.023-0.723,0.492-1.393,1.193-1.569c1.043-0.262,1.987,0.501,2.019,1.503l0.364,11.477c0.017,0.54,0.46,0.968,0.999,0.968
				h2.531c0.552,0,1-0.448,1.001-1V61H57.679z"/>
			<rect x="57.679" y="61" fill="#656769" width="13" height="2.5"/>
			<path fill="none" stroke="#45413C" stroke-linecap="round" stroke-linejoin="round" stroke-miterlimit="10" d="M57.679,61v17.5
				c0,0.552,0.447,1,0.999,1h2.531c0.54,0,0.982-0.429,1-0.968l0.362-11.411c0.023-0.723,0.492-1.393,1.193-1.569
				c1.043-0.262,1.987,0.501,2.019,1.503l0.364,11.477c0.017,0.54,0.46,0.968,0.999,0.968h2.531c0.552,0,1-0.448,1.001-1V61H57.679z
				"/>
		</g>
		<path fill="#525252" stroke="#45413C" stroke-linecap="round" stroke-linejoin="round" stroke-miterlimit="10" d="M70.907,79.5
			c0.744,0,1.257-0.799,0.897-1.451c-0.511-0.924-1.496-1.549-2.627-1.549h-0.5c-1.131,0-2.115,0.626-2.627,1.549
			c-0.36,0.651,0.153,1.451,0.897,1.451H70.907z"/>
		<path fill="#525252" stroke="#45413C" stroke-linecap="round" stroke-linejoin="round" stroke-miterlimit="10" d="M61.407,79.5
			c0.744,0,1.257-0.799,0.897-1.451c-0.511-0.924-1.496-1.549-2.627-1.549h-0.5c-1.131,0-2.115,0.626-2.627,1.549
			c-0.36,0.651,0.153,1.451,0.897,1.451H61.407z"/>
		<path fill="#FFFFFF" stroke="#45413C" stroke-linecap="round" stroke-linejoin="round" stroke-miterlimit="10" d="M67.419,61
			h-6.48l-0.03-17.95c1.02-0.36,2.12-0.55,3.27-0.55c1.15,0,2.25,0.19,3.27,0.55L67.419,61z"/>
		
			<line fill="none" stroke="#45413C" stroke-linecap="round" stroke-linejoin="round" stroke-miterlimit="10" x1="64.179" y1="46" x2="64.179" y2="61"/>
		<g>
			<path fill="#D18660" stroke="#45413C" stroke-linecap="round" stroke-linejoin="round" stroke-miterlimit="10" d="M67.179,42.969
				c-0.956-0.304-1.975-0.469-3.032-0.469c-1.057,0-2.075,0.164-3.031,0.468L64.147,46L67.179,42.969z"/>
		</g>
		<path fill="#87898C" d="M62.179,51.5c0,5.945-1.767,12.124-3,15c0,0-0.72,1.57-1.5,0v-9.26c-1.569,2.277-7.238,4.639-10.49-0.86
			l3.93-2.14c0.413,0.661,0.737,1.185,1.56,0.98c1.119-0.216,1-1.22,1-2.22c0-4.568,2.98-8.574,7.23-9.97v0.02L62.179,51.5z"/>
		<path fill="#BDBEC0" d="M53.681,53.437c0.028-4.527,2.998-7.047,7.228-8.437h0.293l-0.293-1.95v-0.02
			c-4.25,1.396-7.23,5.402-7.23,9.97C53.679,53.147,53.681,53.292,53.681,53.437z"/>
		<path fill="none" stroke="#45413C" stroke-linecap="round" stroke-linejoin="round" stroke-miterlimit="10" d="M62.179,51.5
			c0,5.945-1.767,12.124-3,15c0,0-0.72,1.57-1.5,0v-9.26c-1.569,2.277-7.238,4.639-10.49-0.86l3.93-2.14
			c0.413,0.661,0.737,1.185,1.56,0.98c1.119-0.216,1-1.22,1-2.22c0-4.568,2.98-8.574,7.23-9.97v0.02L62.179,51.5z"/>
		<path fill="#87898C" d="M71.179,45.2c-1.07-0.96-2.33-1.71-3.73-2.17v0.02l-1.27,8.45c0,3.55,0.58,6.88,1.24,9.5
			c0.08,0.35,0.17,0.68,0.26,1c0.108,0,0.19,0.027,0.29,0.035l2.081,1.822c0.375,0.328,0.939,0.336,1.312,0.005
			c1.145-1.018,3.317-3.457,3.317-7.362C74.679,52.792,75.109,48.726,71.179,45.2z"/>
		<path fill="#BDBEC0" d="M67.449,45c1.4,0.46,2.66,1.21,3.73,2.17c2.945,2.642,3.442,5.589,3.505,8.46
			c0.035-3.467,0.12-7.178-3.505-10.43c-1.07-0.96-2.33-1.71-3.73-2.17v0.02L67.156,45H67.449z"/>
		<path fill="none" stroke="#45413C" stroke-linecap="round" stroke-linejoin="round" stroke-miterlimit="10" d="M71.179,45.2
			c-1.07-0.96-2.33-1.71-3.73-2.17v0.02l-1.27,8.45c0,3.55,0.58,6.88,1.24,9.5c0.08,0.35,0.17,0.68,0.26,1
			c0.108,0,0.19,0.027,0.29,0.035l2.081,1.822c0.375,0.328,0.939,0.336,1.312,0.005c1.145-1.018,3.317-3.457,3.317-7.362
			C74.679,52.792,75.109,48.726,71.179,45.2z"/>
		
			<line fill="none" stroke="#45413C" stroke-linecap="round" stroke-linejoin="round" stroke-miterlimit="10" x1="57.678" y1="50.5" x2="57.678" y2="57.24"/>
		<circle fill="#45413C" cx="64.929" cy="33.75" r="0.75"/>
		<circle fill="#45413C" cx="60.929" cy="33.75" r="0.75"/>
		<circle fill="#BD704A" cx="66.929" cy="35.75" r="0.75"/>
		<path fill="none" stroke="#45413C" stroke-linecap="round" stroke-linejoin="round" stroke-miterlimit="10" d="M64.679,37.546
			c-0.908,0.606-2.092,0.606-3,0"/>
		<path fill="#D18660" d="M48.033,55.919c0.592,0.161,1.213,0.082,1.745-0.223c0.619-0.355,1.035-0.966,1.136-1.688
			c0.164-1.172-0.683-2.256-1.825-2.565l-0.575-0.156c-0.804-0.218-1.636,0.246-1.871,1.046l-0.433,1.47
			c-0.243,0.824,0.239,1.687,1.068,1.912L48.033,55.919z"/>
		<path fill="#E09F7E" d="M46.644,53.832c0.236-0.799,1.067-1.264,1.871-1.046l0.575,0.156c0.793,0.215,1.435,0.807,1.704,1.539
			c0.055-0.152,0.099-0.309,0.122-0.473c0.164-1.172-0.683-2.256-1.825-2.565l-0.575-0.156c-0.804-0.218-1.635,0.246-1.871,1.046
			l-0.433,1.47c-0.116,0.393-0.063,0.792,0.109,1.129L46.644,53.832z"/>
		<path fill="none" stroke="#45413C" stroke-linecap="round" stroke-linejoin="round" stroke-miterlimit="10" d="M48.033,55.919
			c0.592,0.161,1.213,0.082,1.745-0.223c0.619-0.355,1.035-0.966,1.136-1.688c0.164-1.172-0.683-2.256-1.825-2.565l-0.575-0.156
			c-0.804-0.218-1.636,0.246-1.871,1.046l-0.433,1.47c-0.243,0.824,0.239,1.687,1.068,1.912L48.033,55.919z"/>
		<path fill="#614B44" d="M58.179,32c-1.203-0.602-0.729-3.722,0.364-4.229l-0.782-0.626c-0.738-0.59-0.321-1.645,0.625-1.645h7.378
			c2.658,0,4.916,2.019,4.916,4.677v3.61c-3.61,0-3.636-2.839-6.721-3.61c-0.079,0.701-0.977,1.361-2.407,1.805
			c0-1.805-1.805-1.805-1.805-1.805L58.179,32z"/>
		<g>
			<path fill="#947063" d="M65.763,25.5h-7.377c-0.945,0-1.363,1.054-0.625,1.645l0.471,0.377c0.052-0.007,0.098-0.022,0.154-0.022
				h7.377c2.659,0,4.916,2.019,4.916,4.677v-2C70.679,27.519,68.422,25.5,65.763,25.5z"/>
		</g>
		<path fill="none" stroke="#45413C" stroke-linecap="round" stroke-linejoin="round" stroke-miterlimit="10" d="M58.179,32
			c-1.203-0.602-0.729-3.722,0.364-4.229l-0.782-0.626c-0.738-0.59-0.321-1.645,0.625-1.645h7.378c2.658,0,4.916,2.019,4.916,4.677
			v3.61c-3.61,0-3.636-2.839-6.721-3.61c-0.079,0.701-0.977,1.361-2.407,1.805c0-1.805-1.805-1.805-1.805-1.805L58.179,32z"/>
		<path fill="#656769" d="M68.179,47l2-0.5l-0.391-2.345c-0.726-0.464-1.505-0.852-2.338-1.126L66.179,51.5
			c0,2.507,0.291,4.906,0.692,7.023l2.808-8.023L68.179,47z"/>
		<path fill="#87898C" d="M70.159,46.36c-0.82-0.58-1.73-1.04-2.71-1.36h-0.29l0.29-1.97c0.894,0.298,1.53,0.624,2.34,1.12
			L70.159,46.36z"/>
		<path fill="none" stroke="#45413C" stroke-linecap="round" stroke-linejoin="round" stroke-miterlimit="10" d="M68.179,47l2-0.5
			l-0.391-2.345c-0.726-0.464-1.505-0.852-2.338-1.126L66.179,51.5c0,2.507,0.291,4.906,0.692,7.023l2.808-8.023L68.179,47z"/>
		<path fill="none" stroke="#45413C" stroke-linecap="round" stroke-linejoin="round" stroke-miterlimit="10" d="M70.679,50.5
			l-0.002,6.123c0,1.767-1.403,4.607-2.748,5.377"/>
		<path fill="#656769" d="M62.179,51.5c0,2.38-0.28,4.78-0.7,7l-2.8-8l1.5-3.5l-2-0.5l0.39-2.35c0.18-0.11,0.37-0.23,0.56-0.33
			c0.18-0.1,0.37-0.2,0.559-0.29c0.4-0.2,0.8-0.36,1.22-0.5v0.02L62.179,51.5z"/>
		<path fill="#87898C" d="M61.199,45h-0.29c-0.96,0.32-1.86,0.69-2.67,1.14l0.33-1.99c0.98-0.6,1.635-0.885,2.34-1.12v0.02
			L61.199,45z"/>
		<path fill="none" stroke="#45413C" stroke-linecap="round" stroke-linejoin="round" stroke-miterlimit="10" d="M62.179,51.5
			c0,2.38-0.28,4.78-0.7,7l-2.8-8l1.5-3.5l-2-0.5l0.39-2.35c0.18-0.11,0.37-0.23,0.56-0.33c0.18-0.1,0.37-0.2,0.559-0.29
			c0.4-0.2,0.8-0.36,1.22-0.5v0.02L62.179,51.5z"/>
		<g>
			<path fill="#656769" stroke="#45413C" stroke-linejoin="round" stroke-miterlimit="10" d="M64.179,47l0.583-0.5
				c0.617-0.529,1.104-0.789,1.702-0.908c0.625-0.125,1.215,0.342,1.215,0.98v0.856c0,0.638-0.589,1.105-1.215,0.98
				c-0.599-0.119-1.085-0.379-1.702-0.908L64.179,47z"/>
			<path fill="#656769" stroke="#45413C" stroke-linejoin="round" stroke-miterlimit="10" d="M64.179,47l-0.583-0.5
				c-0.618-0.529-1.104-0.789-1.702-0.908c-0.625-0.125-1.214,0.342-1.214,0.98v0.856c0,0.638,0.589,1.105,1.214,0.98
				c0.598-0.119,1.085-0.379,1.702-0.908L64.179,47z"/>
			<circle fill="#656769" stroke="#45413C" stroke-linejoin="round" stroke-miterlimit="10" cx="64.179" cy="47" r="1"/>
		</g>
	</g>
</g>
</svg>
