<?xml version="1.0" encoding="utf-8"?>
<!-- Generator: Adobe Illustrator 21.0.0, SVG Export Plug-In . SVG Version: 6.00 Build 0)  -->
<svg version="1.1" id="Layer_1" xmlns="http://www.w3.org/2000/svg" xmlns:xlink="http://www.w3.org/1999/xlink" x="0px" y="0px"
	 width="96px" height="96px" viewBox="0 0 96 96" enable-background="new 0 0 96 96" xml:space="preserve">
<g>
	<g>
		<path fill="#BDFBFC" d="M88.5,49c0-22.091-17.909-40-40-40s-40,17.909-40,40c0,5.885,1.281,11.468,3.564,16.5h72.872
			C87.218,60.468,88.5,54.885,88.5,49z"/>
		<path fill="#FCEFD9" d="M12.064,65.5C18.349,79.357,32.294,89,48.5,89s30.151-9.643,36.436-23.5H12.064z"/>
		<path fill="#FFF5E3" d="M83.107,69c0.659-1.137,1.282-2.296,1.829-3.5H12.064c0.546,1.204,1.17,2.363,1.829,3.5H83.107z"/>
	</g>
	<g>
		
			<line fill="none" stroke="#45413C" stroke-linecap="round" stroke-linejoin="round" stroke-miterlimit="10" x1="9.5" y1="65.5" x2="87.5" y2="65.5"/>
		
			<line fill="none" stroke="#45413C" stroke-linecap="round" stroke-linejoin="round" stroke-miterlimit="10" x1="5" y1="65.5" x2="7.5" y2="65.5"/>
		
			<line fill="none" stroke="#45413C" stroke-linecap="round" stroke-linejoin="round" stroke-miterlimit="10" x1="89.5" y1="65.5" x2="92" y2="65.5"/>
	</g>
</g>
<g>
	<g>
		<g>
			<ellipse opacity="0.15" fill="#45413C" cx="48.5" cy="75.493" rx="23.941" ry="1.5"/>
			<path fill="#F0F0F0" stroke="#45413C" stroke-linecap="round" stroke-linejoin="round" stroke-miterlimit="10" d="M68.5,69.322
				h-40c-0.552,0-1,0.448-1,1v2.19h42v-2.19C69.5,69.77,69.052,69.322,68.5,69.322z"/>
			<path fill="#BDBEC0" stroke="#45413C" stroke-linecap="round" stroke-linejoin="round" stroke-miterlimit="10" d="M69.5,72.512
				h-42c0.652,1.304,1.984,2.127,3.442,2.127h35.133c1.445,0,2.771-0.818,3.417-2.111C69.497,72.518,69.5,72.512,69.5,72.512z"/>
			<path fill="#00B8F0" d="M66.31,48.993c0-1.105-0.895-2-2-2H32.69c-1.105,0-2,0.895-2,2v20.329h35.62V48.993z"/>
			<path fill="#4ACFFF" d="M32.69,46.993c-1.105,0-2,0.895-2,2v20.329h0.202l22.329-22.329H32.69z"/>
			<path fill="none" stroke="#45413C" stroke-miterlimit="10" d="M66.31,48.993c0-1.105-0.896-2-2-2H32.69c-1.104,0-2,0.895-2,2
				v20.329h35.62V48.993z"/>
		</g>
		<g>
			<path fill="#6DD627" stroke="#45413C" stroke-miterlimit="10" d="M76.028,56.655l2.991-1.95l0.871-4.443
				c0.047-0.238-0.084-0.475-0.31-0.562c-0.059-0.023-0.119-0.034-0.18-0.034c-0.171,0-0.335,0.088-0.428,0.241l-3.513,5.807
				L76.028,56.655z"/>
			<path fill="#6DD627" stroke="#45413C" stroke-linecap="round" stroke-linejoin="round" stroke-miterlimit="10" d="M71.899,54.705
				l4.87,3.175l-4.823-7.973c-0.093-0.153-0.257-0.241-0.428-0.241c-0.061,0-0.121,0.011-0.18,0.034
				c-0.226,0.087-0.357,0.325-0.311,0.562L71.899,54.705z"/>
			<path fill="#9CEB60" stroke="#45413C" stroke-linecap="round" stroke-linejoin="round" stroke-miterlimit="10" d="M80.331,54.287
				c-0.094-0.082-0.212-0.124-0.331-0.124c-0.095,0-0.19,0.027-0.273,0.081l-7.286,4.75h6.021l1.989-4.113
				C80.548,54.678,80.499,54.435,80.331,54.287z"/>
			<path fill="#46B000" stroke="#45413C" stroke-miterlimit="10" d="M75.459,55.714l1.511-2.499l-1.016-4.825
				c-0.048-0.228-0.247-0.393-0.48-0.397c-0.003,0-0.006,0-0.009,0c-0.229,0-0.429,0.156-0.485,0.379l-1.159,4.635L75.459,55.714z"
				/>
			<path fill="#9CEB60" stroke="#45413C" stroke-linecap="round" stroke-linejoin="round" stroke-miterlimit="10" d="M78.478,58.993
				l-7.286-4.75c-0.083-0.054-0.178-0.081-0.273-0.081c-0.119,0-0.237,0.042-0.331,0.124c-0.169,0.149-0.217,0.391-0.119,0.593
				l1.989,4.113H78.478z"/>
			<path fill="#FFFFFF" stroke="#45413C" stroke-linejoin="round" stroke-miterlimit="10" d="M78.919,63.493h-7l-0.73-3.283
				c-0.066-0.296,0.006-0.606,0.196-0.843c0.19-0.237,0.477-0.374,0.78-0.374h6.507c0.303,0,0.59,0.138,0.78,0.374
				c0.19,0.237,0.262,0.547,0.196,0.843L78.919,63.493z"/>
			
				<rect x="71.919" y="63.493" fill="#FFFFFF" stroke="#45413C" stroke-linejoin="round" stroke-miterlimit="10" width="7" height="2"/>
		</g>
		<g>
			<path fill="#45413C" stroke="#45413C" stroke-linejoin="round" stroke-miterlimit="10" d="M59.591,60.993c0,1.105-0.895,2-2,2
				H39.409c-1.105,0-2-0.895-2-2c0-1.105,0.895-2,2-2h18.181C58.695,58.993,59.591,59.889,59.591,60.993z"/>
			<path fill="#6DD627" stroke="#45413C" stroke-linejoin="round" stroke-miterlimit="10" d="M52.757,58.993H39.409
				c-1.105,0-2,0.896-2,2s0.895,2,2,2h13.348V58.993z"/>
			<path fill="#9CEB60" d="M52.757,58.993H39.409c-1.105,0-2,0.896-2,2h15.348V58.993z"/>
			<path fill="none" stroke="#45413C" stroke-linejoin="round" stroke-miterlimit="10" d="M52.757,58.993H39.409
				c-1.105,0-2,0.896-2,2s0.895,2,2,2h13.348V58.993z"/>
		</g>
	</g>
	<g>
		<path fill="#6DD627" d="M42.074,32.13c-0.381,0-0.729,0.217-0.897,0.559c-0.168,0.342-0.127,0.75,0.106,1.052l6.451,8.363
			c0.189,0.245,0.482,0.389,0.792,0.389c0.31,0,0.602-0.144,0.792-0.389l6.451-8.363c0.233-0.302,0.274-0.71,0.106-1.052
			c-0.168-0.342-0.516-0.559-0.897-0.559h-2.451v-4.637c0-1.105-0.896-2-2-2h-4c-1.105,0-2,0.895-2,2v4.637H42.074z"/>
		<path fill="#9CEB60" d="M46.525,28.306h4c1.104,0,2,0.896,2,2v-2.812c0-1.104-0.896-2-2-2h-4c-1.105,0-2,0.896-2,2v2.812
			C44.525,29.201,45.42,28.306,46.525,28.306z"/>
		<path fill="none" stroke="#45413C" stroke-linejoin="round" stroke-miterlimit="10" d="M42.074,32.13
			c-0.381,0-0.729,0.217-0.897,0.559c-0.168,0.342-0.127,0.75,0.106,1.052l6.451,8.363c0.189,0.245,0.482,0.389,0.792,0.389
			c0.31,0,0.602-0.144,0.792-0.389l6.451-8.363c0.233-0.302,0.274-0.71,0.106-1.052c-0.168-0.342-0.516-0.559-0.897-0.559h-2.451
			v-4.637c0-1.105-0.896-2-2-2h-4c-1.105,0-2,0.895-2,2v4.637H42.074z"/>
	</g>
</g>
</svg>
