<?xml version="1.0" encoding="utf-8"?>
<!-- Generator: Adobe Illustrator 21.0.0, SVG Export Plug-In . SVG Version: 6.00 Build 0)  -->
<svg version="1.1" id="Layer_1" xmlns="http://www.w3.org/2000/svg" xmlns:xlink="http://www.w3.org/1999/xlink" x="0px" y="0px"
	 width="96px" height="96px" viewBox="0 0 96 96" enable-background="new 0 0 96 96" xml:space="preserve">
<g>
	<g>
		<path fill="#FFE500" d="M84.766,49c0-22.091-17.909-40-40-40s-40,17.909-40,40c0,5.885,1.281,11.468,3.564,16.5h72.872
			C83.485,60.468,84.766,54.885,84.766,49z"/>
		<path fill="#ADC4D9" d="M8.33,65.5C14.615,79.357,28.56,89,44.766,89c16.206,0,30.151-9.643,36.436-23.5H8.33z"/>
		<path fill="#C0DCEB" d="M79.374,69c0.659-1.137,1.282-2.296,1.829-3.5H8.33c0.546,1.204,1.17,2.363,1.829,3.5H79.374z"/>
	</g>
	<g>
		
			<line fill="none" stroke="#45413C" stroke-linecap="round" stroke-linejoin="round" stroke-miterlimit="10" x1="5.766" y1="65.5" x2="83.766" y2="65.5"/>
		
			<line fill="none" stroke="#45413C" stroke-linecap="round" stroke-linejoin="round" stroke-miterlimit="10" x1="1.266" y1="65.5" x2="3.766" y2="65.5"/>
		
			<line fill="none" stroke="#45413C" stroke-linecap="round" stroke-linejoin="round" stroke-miterlimit="10" x1="85.766" y1="65.5" x2="88.266" y2="65.5"/>
	</g>
	<g>
		<line fill="none" stroke="#C0DCEB" stroke-linecap="round" stroke-miterlimit="10" x1="58.766" y1="76" x2="65.923" y2="76"/>
		<line fill="none" stroke="#C0DCEB" stroke-linecap="round" stroke-miterlimit="10" x1="54.592" y1="76" x2="56.381" y2="76"/>
		<line fill="none" stroke="#C0DCEB" stroke-linecap="round" stroke-miterlimit="10" x1="51.61" y1="76" x2="52.206" y2="76"/>
	</g>
	<g>
		<line fill="none" stroke="#C0DCEB" stroke-linecap="round" stroke-miterlimit="10" x1="28.923" y1="72.5" x2="36.079" y2="72.5"/>
		<line fill="none" stroke="#E0E0E0" stroke-linecap="round" stroke-miterlimit="10" x1="24.748" y1="72.5" x2="26.537" y2="72.5"/>
		<line fill="none" stroke="#C0DCEB" stroke-linecap="round" stroke-miterlimit="10" x1="21.766" y1="72.5" x2="22.363" y2="72.5"/>
	</g>
	<g>
		<line fill="none" stroke="#C0DCEB" stroke-linecap="round" stroke-miterlimit="10" x1="40.11" y1="83.5" x2="47.266" y2="83.5"/>
		<line fill="none" stroke="#C0DCEB" stroke-linecap="round" stroke-miterlimit="10" x1="35.935" y1="83.5" x2="37.724" y2="83.5"/>
		<line fill="none" stroke="#C0DCEB" stroke-linecap="round" stroke-miterlimit="10" x1="32.953" y1="83.5" x2="33.549" y2="83.5"/>
	</g>
</g>
<g>
	<ellipse opacity="0.15" fill="#45413C" cx="46.18" cy="79.667" rx="32.458" ry="1.5"/>
	<g>
		<g>
			<path fill="#00B8F0" d="M72.785,77.316c0.539-0.52,1.269-0.843,2.078-0.843h0.5c0.77,0,1.468,0.295,1.999,0.771V60.973h-13
				v16.271c0.531-0.477,1.229-0.771,1.999-0.771h0.5c0.808,0,1.538,0.323,2.078,0.843l0.368-10.344
				c0.031-0.837,0.718-1.499,1.556-1.499c0.837,0,1.524,0.662,1.555,1.499L72.785,77.316z"/>
		</g>
		<path fill="#D18660" stroke="#45413C" stroke-linecap="round" stroke-linejoin="round" stroke-miterlimit="10" d="M77.862,34.473
			c0-0.602-0.434-1.08-1-1.199v-0.801c0-3.314-2.686-6-6-6c-3.314,0-6,2.686-6,6v0.801c-0.566,0.119-1,0.598-1,1.199
			c0,0.646,0.497,1.16,1.126,1.225c0.565,2.726,2.98,4.775,5.874,4.775s5.309-2.049,5.874-4.775
			C77.365,35.632,77.862,35.119,77.862,34.473z"/>
		<g>
			<path fill="#45413C" d="M68.612,32.473c-0.414,0-0.75,0.336-0.75,0.75c0,0.414,0.336,0.75,0.75,0.75s0.75-0.336,0.75-0.75
				C69.362,32.808,69.026,32.473,68.612,32.473L68.612,32.473z"/>
		</g>
		<g>
			<path fill="#45413C" d="M73.112,32.473c-0.414,0-0.75,0.336-0.75,0.75c0,0.414,0.336,0.75,0.75,0.75s0.75-0.336,0.75-0.75
				C73.862,32.808,73.526,32.473,73.112,32.473L73.112,32.473z"/>
		</g>
		<circle fill="#BD704A" cx="67.612" cy="35.223" r="0.75"/>
		<circle fill="#BD704A" cx="74.112" cy="35.223" r="0.75"/>
		<path fill="#B89558" stroke="#45413C" stroke-linecap="round" stroke-linejoin="round" stroke-miterlimit="10" d="M77.092,79.473
			c0.744,0,1.257-0.799,0.897-1.451c-0.511-0.924-1.496-1.549-2.627-1.549h-0.5c-1.131,0-2.115,0.625-2.627,1.549
			c-0.36,0.651,0.153,1.451,0.897,1.451H77.092z"/>
		<rect x="64.362" y="60.973" fill="#009FD9" width="13" height="2.568"/>
		<g>
			<path fill="none" stroke="#45413C" stroke-linecap="round" stroke-linejoin="round" stroke-miterlimit="10" d="M72.785,77.316
				c0.539-0.52,1.269-0.843,2.078-0.843h0.5c0.77,0,1.468,0.295,1.999,0.771V60.973h-13v16.271c0.531-0.477,1.229-0.771,1.999-0.771
				h0.5c0.808,0,1.538,0.323,2.078,0.843l0.368-10.344c0.031-0.837,0.718-1.499,1.556-1.499c0.837,0,1.524,0.662,1.555,1.499
				L72.785,77.316z"/>
		</g>
		<path fill="#B89558" stroke="#45413C" stroke-linecap="round" stroke-linejoin="round" stroke-miterlimit="10" d="M68.59,79.473
			c0.744,0,1.257-0.799,0.897-1.451c-0.511-0.924-1.496-1.549-2.627-1.549h-0.5c-1.131,0-2.115,0.625-2.627,1.549
			c-0.36,0.651,0.153,1.451,0.897,1.451H68.59z"/>
		<path fill="#D18660" stroke="#45413C" stroke-linecap="round" stroke-linejoin="round" stroke-miterlimit="10" d="M64.362,60.973
			h-3.998v2.501c0,1.108,0.891,1.999,1.999,1.999c1.108,0,1.999-0.891,1.999-1.999V60.973z"/>
		<path fill="#FFFFFF" stroke="#45413C" stroke-linecap="round" stroke-linejoin="round" stroke-miterlimit="10" d="M66.554,40.402
			c0.114,0.854,0.401,1.676,0.853,2.409l0.125,0.202c0.927,1.397,1.898,2.59,2.557,3.414c0.398,0.498,1.147,0.498,1.546,0
			c0.66-0.824,1.63-2.017,2.557-3.414l0.125-0.202c0.452-0.733,0.739-1.555,0.853-2.409c0.129-0.965,0.192-1.943,0.192-2.929v-1.796
			l-3.46-0.869c-0.683-0.171-1.398-0.171-2.081,0l-3.46,0.869v1.796C66.362,38.459,66.425,39.436,66.554,40.402z"/>
		<path fill="none" stroke="#45413C" stroke-linecap="round" stroke-linejoin="round" stroke-miterlimit="10" d="M66.401,38.805
			c0,0,0.961,1.667,4.461,1.167"/>
		<path fill="none" stroke="#45413C" stroke-linecap="round" stroke-linejoin="round" stroke-miterlimit="10" d="M74.622,41.933
			c0,0-1.054,1.039-3.76,1.039"/>
		<path fill="none" stroke="#45413C" stroke-linecap="round" stroke-linejoin="round" stroke-miterlimit="10" d="M71.362,37.973
			c0,0,2.5,0,3.5-1"/>
		<path fill="#656769" d="M60.364,60.973h16.998v-13c1.707,0.453,10-2.823,10-10.5v-0.5c0-1.103-0.897-2-2-2s-2,0.897-2,2v0.5
			c0,3.309-2.692,6-6,6h-0.918c0.936-2.8,1.418-5.736,1.418-8.69v-3.31c0-3.87-3.13-7-7-7c-3.87,0-7,3.13-7,7v3.31
			c0,3.13,0.54,6.24,1.59,9.19c-0.02,0.02-0.05,0.04-0.07,0.05c-0.74,0.45-1.42,1-2.01,1.62c-1.86,1.89-3.01,4.47-3.01,7.33v1.5
			L60.364,60.973z M75.362,37.473c0,0.986-0.063,1.964-0.192,2.929c-0.114,0.854-0.401,1.676-0.853,2.409l-0.125,0.202
			c-0.927,1.397-1.898,2.59-2.557,3.414c-0.398,0.498-1.147,0.498-1.546,0c-0.66-0.824-1.63-2.017-2.557-3.414l-0.125-0.202
			c-0.452-0.733-0.739-1.555-0.853-2.409c-0.129-0.965-0.192-1.943-0.192-2.929v-3.315c0-2.352,1.725-4.448,4.067-4.665
			c2.686-0.249,4.933,1.847,4.933,4.48V37.473z"/>
		<path fill="#87898C" d="M70.862,26.973c3,0,5.61,1.654,6.98,4.097c-0.21-3.681-3.246-6.597-6.98-6.597
			c-3.734,0-6.77,2.916-6.98,6.597C65.251,28.626,67.862,26.973,70.862,26.973z"/>
		<path fill="none" stroke="#45413C" stroke-linecap="round" stroke-linejoin="round" stroke-miterlimit="10" d="M60.364,60.973
			h16.998v-13c1.707,0.453,10-2.823,10-10.5v-0.5c0-1.103-0.897-2-2-2s-2,0.897-2,2v0.5c0,3.309-2.692,6-6,6h-0.918
			c0.936-2.8,1.418-5.736,1.418-8.69v-3.31c0-3.87-3.13-7-7-7c-3.87,0-7,3.13-7,7v3.31c0,3.13,0.54,6.24,1.59,9.19
			c-0.02,0.02-0.05,0.04-0.07,0.05c-0.74,0.45-1.42,1-2.01,1.62c-1.86,1.89-3.01,4.47-3.01,7.33v1.5L60.364,60.973z M75.362,37.473
			c0,0.986-0.063,1.964-0.192,2.929c-0.114,0.854-0.401,1.676-0.853,2.409l-0.125,0.202c-0.927,1.397-1.898,2.59-2.557,3.414
			c-0.398,0.498-1.147,0.498-1.546,0c-0.66-0.824-1.63-2.017-2.557-3.414l-0.125-0.202c-0.452-0.733-0.739-1.555-0.853-2.409
			c-0.129-0.965-0.192-1.943-0.192-2.929v-3.315c0-2.352,1.725-4.448,4.067-4.665c2.686-0.249,4.933,1.847,4.933,4.48V37.473z"/>
		
			<line fill="none" stroke="#45413C" stroke-linecap="round" stroke-linejoin="round" stroke-miterlimit="10" x1="64.362" y1="50.973" x2="64.362" y2="60.973"/>
		<g>
			<path fill="#F0D5A8" stroke="#45413C" stroke-linecap="round" stroke-linejoin="round" stroke-miterlimit="10" d="M82.866,43.871
				l-1.797-0.877l9.745-23.067c0.253-0.599,0.741-1.068,1.35-1.296c0.609-0.228,1.285-0.196,1.869,0.09
				c0.584,0.285,1.026,0.798,1.22,1.419c0.195,0.621,0.125,1.294-0.191,1.861L82.866,43.871z"/>
			<path fill="#947746" stroke="#45413C" stroke-linecap="round" stroke-linejoin="round" stroke-miterlimit="10" d="M84.203,43.411
				c-0.242,0.496-0.841,0.702-1.337,0.46l-1.797-0.877c-0.496-0.242-0.702-0.841-0.46-1.337c0.242-0.496,0.841-0.702,1.337-0.46
				l1.797,0.877C84.24,42.316,84.446,42.915,84.203,43.411z"/>
		</g>
		<path fill="#D18660" stroke="#45413C" stroke-linecap="round" stroke-linejoin="round" stroke-miterlimit="10" d="M86.234,35.02
			c-0.919-0.534-2.122-0.136-2.519,0.902c-0.311,0.814,0.089,1.735,0.843,2.173l0.576,0.334c0.482,0.279,1.099,0.112,1.373-0.373
			l0.738-1.306c0.269-0.477,0.105-1.082-0.369-1.356L86.234,35.02z"/>
	</g>
	<path fill="#FFCEBF" stroke="#45413C" stroke-linecap="round" stroke-linejoin="round" stroke-miterlimit="10" d="M59.387,34.5
		c0.96,0,1.75,0.79,1.75,1.75v2c0,4.27-3.48,7.75-7.75,7.75h-2.249v15h-13V44.9c1.02-0.87,2.22-1.54,3.54-1.95
		c0.93-0.29,1.93-0.45,2.96-0.45h8.749c2.34,0,4.25-1.91,4.25-4.25v-2C57.637,35.29,58.427,34.5,59.387,34.5z"/>
	<path fill="#656769" stroke="#45413C" stroke-linecap="round" stroke-linejoin="round" stroke-miterlimit="10" d="M50.869,79.5
		c0.744,0,1.257-0.799,0.897-1.451c-0.511-0.924-1.496-1.549-2.627-1.549h-0.5c-1.131,0-2.115,0.626-2.627,1.549
		c-0.36,0.651,0.153,1.451,0.897,1.451H50.869z"/>
	<path fill="#FFCEBF" stroke="#45413C" stroke-linecap="round" stroke-linejoin="round" stroke-miterlimit="10" d="M51.638,34.5
		c0-0.602-0.434-1.08-1-1.2v-0.8c0-3.314-2.686-6-6-6c-3.314,0-6,2.686-6,6v0.8c-0.566,0.119-1,0.598-1,1.2
		c0,0.646,0.497,1.16,1.126,1.225c0.565,2.726,2.98,4.775,5.874,4.775c2.894,0,5.309-2.049,5.874-4.775
		C51.141,35.66,51.638,35.146,51.638,34.5z"/>
	<g>
		<path fill="#45413C" d="M42.388,32.5c-0.414,0-0.75,0.336-0.75,0.75S41.974,34,42.388,34s0.75-0.336,0.75-0.75
			S42.802,32.5,42.388,32.5L42.388,32.5z"/>
	</g>
	<g>
		<path fill="#45413C" d="M46.888,32.5c-0.414,0-0.75,0.336-0.75,0.75S46.474,34,46.888,34s0.75-0.336,0.75-0.75
			S47.302,32.5,46.888,32.5L46.888,32.5z"/>
	</g>
	<circle fill="#FFB59E" cx="41.388" cy="35.25" r="0.75"/>
	<circle fill="#FFB59E" cx="47.888" cy="35.25" r="0.75"/>
	<path fill="none" stroke="#45413C" stroke-linecap="round" stroke-linejoin="round" stroke-miterlimit="10" d="M43.138,37.046
		c0.908,0.606,2.092,0.606,3,0"/>
	<g>
		<path fill="#00DFEB" d="M46.562,77.343c0.539-0.52,1.27-0.843,2.078-0.843h0.5c0.77,0,1.468,0.295,1.999,0.771V61h-13v16.271
			c0.531-0.477,1.229-0.771,1.999-0.771h0.5c0.808,0,1.538,0.323,2.078,0.843l0.368-10.344c0.031-0.837,0.718-1.499,1.556-1.499
			c0.837,0,1.524,0.662,1.556,1.499L46.562,77.343z"/>
	</g>
	<rect x="38.138" y="61" fill="#00C9D4" width="13" height="2.5"/>
	<path fill="#656769" stroke="#45413C" stroke-linecap="round" stroke-linejoin="round" stroke-miterlimit="10" d="M42.367,79.5
		c0.744,0,1.257-0.799,0.897-1.451c-0.511-0.924-1.496-1.549-2.627-1.549h-0.5c-1.131,0-2.115,0.626-2.627,1.549
		c-0.36,0.651,0.153,1.451,0.897,1.451H42.367z"/>
	<path fill="#E8F4FA" d="M51.138,42.5V61h-13V44.9c1.02-0.87,2.22-1.54,3.54-1.95c0.21,1.44,1.45,2.55,2.96,2.55c1.66,0,3-1.34,3-3
		H51.138z"/>
	<g>
		<path fill="#FFFFFF" d="M41.678,42.95c-1.32,0.41-2.52,1.08-3.54,1.95v2.068c1.326-1.131,2.32-1.753,4.686-2.079
			C42.217,44.427,41.793,43.738,41.678,42.95z"/>
		<path fill="#FFFFFF" d="M47.638,42.5c0,0.827-0.333,1.575-0.872,2.117c1.227-0.035,2.666-0.049,4.372-0.049V42.5H47.638z"/>
	</g>
	<path fill="none" stroke="#45413C" stroke-linecap="round" stroke-linejoin="round" stroke-miterlimit="10" d="M51.138,42.5V61h-13
		V44.9c1.02-0.87,2.22-1.54,3.54-1.95c0.21,1.44,1.45,2.55,2.96,2.55c1.66,0,3-1.34,3-3H51.138z"/>
	<path fill="#FF6242" stroke="#45413C" stroke-linecap="round" stroke-linejoin="round" stroke-miterlimit="10" d="M38.638,36
		c0,4.031,3.574,8.386,5.222,10.447c0.401,0.501,1.155,0.501,1.556,0c1.648-2.061,5.222-6.417,5.222-10.447l-5.03-1.257
		c-0.637-0.159-1.303-0.159-1.94,0L38.638,36z"/>
	<path fill="#FFC44D" d="M44.638,25.5c-3.866,0-7,3.134-7,7V34c0.071-0.039,0.141-0.076,0.21-0.113
		c0.172-0.222,0.436-0.369,0.734-0.385c0.983-0.517,1.772-1.342,2.243-2.349C41.145,30.472,41.836,30,42.638,30h2h2
		c0.776,0,1.449,0.442,1.781,1.088c0.428,0.834,1.023,1.582,1.743,2.181l0.296,0.247c0.059-0.011,0.119-0.017,0.18-0.017
		c0.552,0,1,0.448,1,1v-2C51.638,28.634,48.504,25.5,44.638,25.5z"/>
	<path fill="#FFDB94" d="M44.638,25.5c-3.866,0-7,3.134-7,7V34c0.014-0.008,0.028-0.015,0.043-0.023
		c0.385-3.502,3.353-6.227,6.957-6.227c3.73,0,6.779,2.918,6.988,6.596c0.008,0.05,0.012,0.102,0.012,0.154v-2
		C51.638,28.634,48.504,25.5,44.638,25.5z"/>
	<path fill="none" stroke="#45413C" stroke-linecap="round" stroke-linejoin="round" stroke-miterlimit="10" d="M44.638,25.5
		c-3.866,0-7,3.134-7,7V34c0.071-0.039,0.141-0.076,0.21-0.113c0.172-0.222,0.436-0.369,0.734-0.385
		c0.983-0.517,1.772-1.342,2.243-2.349C41.145,30.472,41.836,30,42.638,30h2h2c0.776,0,1.449,0.442,1.781,1.088
		c0.428,0.834,1.023,1.582,1.743,2.181l0.296,0.247c0.059-0.011,0.119-0.017,0.18-0.017c0.552,0,1,0.448,1,1v-2
		C51.638,28.634,48.504,25.5,44.638,25.5z"/>
	<path fill="none" stroke="#45413C" stroke-linecap="round" stroke-linejoin="round" stroke-miterlimit="10" d="M38.871,37.87
		c0,0,2.267,2.63,5.767,2.13"/>
	<path fill="none" stroke="#45413C" stroke-linecap="round" stroke-linejoin="round" stroke-miterlimit="10" d="M48.832,41.642
		c0,0-1.488,1.358-4.194,1.358"/>
	<path fill="none" stroke="#45413C" stroke-linecap="round" stroke-linejoin="round" stroke-miterlimit="10" d="M45.138,38
		c0,0,2.5,0,3.5-1"/>
	<g>
		<path fill="none" stroke="#45413C" stroke-linecap="round" stroke-linejoin="round" stroke-miterlimit="10" d="M46.562,77.343
			c0.539-0.52,1.27-0.843,2.078-0.843h0.5c0.77,0,1.468,0.295,1.999,0.771V61h-13v16.271c0.531-0.477,1.229-0.771,1.999-0.771h0.5
			c0.808,0,1.538,0.323,2.078,0.843l0.368-10.344c0.031-0.837,0.718-1.499,1.556-1.499c0.837,0,1.524,0.662,1.556,1.499
			L46.562,77.343z"/>
	</g>
	<path fill="#FFCEBF" stroke="#45413C" stroke-linecap="round" stroke-linejoin="round" stroke-miterlimit="10" d="M39.729,61.665
		c-0.749-0.765-1.59-2.014-1.59-3.77V56v-1V44.9c-2.14,1.84-3.5,4.56-3.5,7.6V55v1v1.895c0,2.381,0.998,4.61,2.71,6.198
		c0.395,0.367,1.013,0.353,1.395-0.028l0.988-0.988C40.122,62.685,40.116,62.06,39.729,61.665z"/>
	<g>
		<path fill="#BDBEC0" stroke="#45413C" stroke-linecap="round" stroke-linejoin="round" stroke-miterlimit="10" d="M56.435,26.309
			l-1.839,0.785l6.008,14.077c0.217,0.508,0.804,0.744,1.312,0.527c0.508-0.217,0.744-0.804,0.527-1.312L56.435,26.309z"/>
		<path fill="#F0F0F0" d="M63.361,23.353L47.76,30.012c-1.016,0.434-2.191-0.038-2.625-1.054l-4.83-11.317
			c-0.434-1.016,0.038-2.191,1.054-2.625L56.96,8.357c1.016-0.433,2.191,0.038,2.625,1.054l4.83,11.317
			C64.849,21.744,64.377,22.92,63.361,23.353z"/>
		<path fill="#FFFFFF" d="M40.982,19.227l19.28-8.229l-0.677-1.586c-0.434-1.016-1.609-1.488-2.625-1.054l-15.601,6.659
			c-1.016,0.434-1.488,1.609-1.054,2.625L40.982,19.227z"/>
		<path fill="none" stroke="#45413C" stroke-linecap="round" stroke-linejoin="round" stroke-miterlimit="10" d="M63.361,23.353
			L47.76,30.012c-1.016,0.434-2.191-0.038-2.625-1.054l-4.83-11.317c-0.434-1.016,0.038-2.191,1.054-2.625L56.96,8.357
			c1.016-0.433,2.191,0.038,2.625,1.054l4.83,11.317C64.849,21.744,64.377,22.92,63.361,23.353z"/>
		<path fill="#FFFFFF" stroke="#45413C" stroke-linecap="round" stroke-linejoin="round" stroke-miterlimit="10" d="M56.416,16.82
			c-1.069-2.505-4.074-3.59-6.525-2.256c-2.137,1.163-2.92,3.86-1.965,6.098l0.397,0.93c0.131,0.308,0.408,0.529,0.736,0.59
			l1.538,0.287l0.75,1.758c0.217,0.508,0.804,0.744,1.312,0.527l3.516-1.501c0.508-0.217,0.744-0.804,0.527-1.312l-0.75-1.758
			l0.856-1.309c0.183-0.28,0.214-0.632,0.083-0.94L56.416,16.82z"/>
		<g>
			
				<ellipse transform="matrix(0.9197 -0.3926 0.3926 0.9197 -3.3425 21.2529)" fill="#FFFFFF" cx="50.296" cy="18.799" rx="0.582" ry="0.582"/>
			<path fill="#45413C" d="M50.296,18.217c-0.076,0-0.154,0.015-0.228,0.047c-0.296,0.126-0.433,0.468-0.307,0.764
				c0.095,0.221,0.31,0.354,0.536,0.354c0.076,0,0.154-0.015,0.228-0.047c0.296-0.126,0.433-0.468,0.307-0.764
				C50.737,18.35,50.522,18.217,50.296,18.217L50.296,18.217z"/>
		</g>
		<g>
			<path fill="#FFFFFF" d="M53.51,17.51c-0.025,0-0.061-0.013-0.077-0.051c-0.017-0.041,0.003-0.089,0.045-0.107
				c0,0,0.107,0.043,0.107,0.044l-0.043,0.107L53.51,17.51z"/>
			<path fill="#45413C" d="M53.51,16.845c-0.076,0-0.154,0.015-0.228,0.047c-0.296,0.126-0.433,0.468-0.307,0.764
				c0.095,0.221,0.31,0.354,0.536,0.354c0.076,0,0.154-0.015,0.228-0.047c0.296-0.126,0.433-0.468,0.307-0.764
				C53.951,16.978,53.736,16.845,53.51,16.845L53.51,16.845z"/>
		</g>
		<g>
			
				<line fill="none" stroke="#45413C" stroke-linecap="round" stroke-linejoin="round" stroke-miterlimit="10" x1="52.589" y1="19.72" x2="52.817" y2="20.256"/>
		</g>
		
			<line fill="none" stroke="#45413C" stroke-linecap="round" stroke-linejoin="round" stroke-miterlimit="10" x1="52.66" y1="22.855" x2="53.346" y2="24.462"/>
		
			<line fill="none" stroke="#45413C" stroke-linecap="round" stroke-linejoin="round" stroke-miterlimit="10" x1="54.803" y1="21.941" x2="55.488" y2="23.548"/>
	</g>
	<path fill="#FFCEBF" stroke="#45413C" stroke-linecap="round" stroke-linejoin="round" stroke-miterlimit="10" d="M58.792,33.604
		c-1,0.359-1.472,1.535-0.934,2.507c0.422,0.763,1.384,1.051,2.205,0.756l0.626-0.225c0.524-0.188,0.794-0.768,0.599-1.29
		l-0.523-1.406c-0.191-0.513-0.759-0.777-1.275-0.592L58.792,33.604z"/>
	<g>
		<path fill="#656769" d="M28.305,44.9c-1.75-1.49-4.02-2.4-6.5-2.4h-8.25c-0.952,0-1.834-0.317-2.544-0.85l-1.936,2.918
			C10.341,45.47,11.888,46,13.555,46h1.75v8.5V61h13v-6.5h3.5v-2C31.805,49.46,30.445,46.74,28.305,44.9z"/>
		<g>
			<path fill="#87898C" d="M23.728,77.343c0.539-0.52,1.27-0.843,2.078-0.843h0.5c0.77,0,1.468,0.295,1.999,0.771V61h-13v16.271
				c0.531-0.477,1.229-0.771,1.999-0.771h0.5c0.808,0,1.538,0.323,2.078,0.843l0.368-10.344c0.031-0.837,0.718-1.499,1.556-1.499
				c0.837,0,1.524,0.662,1.555,1.499L23.728,77.343z"/>
		</g>
		<g>
			<path fill="#87898C" d="M28.305,44.9c-1.75-1.49-4.02-2.4-6.5-2.4h-8.25c-0.878,0-1.696-0.27-2.375-0.73
				c0.582,1.107,1.567,2.646,4.375,2.646h6.25c2.48,0,4.75,0.91,6.5,2.4c2.14,1.84,3.5,4.56,3.5,7.6V52.5
				C31.805,49.46,30.445,46.74,28.305,44.9z"/>
		</g>
		<path fill="none" stroke="#45413C" stroke-linecap="round" stroke-linejoin="round" stroke-miterlimit="10" d="M28.305,44.9
			c-1.75-1.49-4.02-2.4-6.5-2.4h-8.25c-0.952,0-1.834-0.317-2.544-0.85l-1.936,2.918C10.341,45.47,11.888,46,13.555,46h1.75v8.5V61
			h13v-6.5h3.5v-2C31.805,49.46,30.445,46.74,28.305,44.9z"/>
		<path fill="#656769" d="M28.805,32.5c0-3.866-3.134-7-7-7s-7,3.134-7,7v1c0,3.866,3.134,7,7,7s7-3.134,7-7V32.5z"/>
		<path fill="#87898C" d="M21.805,25.5c-3.866,0-7,3.134-7,7v1c0,0.254,0.015,0.503,0.041,0.75c0.375-3.513,3.346-6.25,6.959-6.25
			c3.612,0,6.584,2.737,6.959,6.25c0.026-0.247,0.041-0.496,0.041-0.75v-1C28.805,28.634,25.671,25.5,21.805,25.5z"/>
		<path fill="none" stroke="#45413C" stroke-linecap="round" stroke-linejoin="round" stroke-miterlimit="10" d="M28.805,32.5
			c0-3.866-3.134-7-7-7s-7,3.134-7,7v1c0,3.866,3.134,7,7,7s7-3.134,7-7V32.5z"/>
		<path fill="#87898C" d="M15.305,61v18.5h4.5l0.444-12.501c0.031-0.837,0.718-1.499,1.556-1.499c0.837,0,1.524,0.662,1.556,1.499
			L23.805,79.5h4.5V61H15.305z"/>
		<path fill="#FFFFFF" stroke="#45413C" stroke-linecap="round" stroke-linejoin="round" stroke-miterlimit="10" d="M28.036,79.5
			c0.744,0,1.257-0.799,0.897-1.451c-0.511-0.924-1.496-1.549-2.627-1.549h-0.5c-1.131,0-2.116,0.626-2.627,1.549
			c-0.36,0.651,0.153,1.451,0.897,1.451H28.036z"/>
		<g>
			<path fill="#87898C" d="M23.728,77.337c0.539-0.518,1.271-0.837,2.078-0.837h0.5c0.768,0,1.468,0.289,1.999,0.763V61h-13v16.263
				c0.531-0.474,1.231-0.763,1.999-0.763h0.5c0.807,0,1.539,0.319,2.078,0.837l0.367-10.338c0.031-0.837,0.718-1.499,1.556-1.499
				c0.837,0,1.524,0.662,1.556,1.499L23.728,77.337z"/>
		</g>
		<path fill="#FFFFFF" stroke="#45413C" stroke-linecap="round" stroke-linejoin="round" stroke-miterlimit="10" d="M19.534,79.5
			c0.744,0,1.257-0.799,0.897-1.451c-0.511-0.924-1.496-1.549-2.627-1.549h-0.5c-1.131,0-2.115,0.626-2.627,1.549
			c-0.36,0.651,0.153,1.451,0.897,1.451H19.534z"/>
		<rect x="15.305" y="61" fill="#656769" width="13" height="2.5"/>
		<g>
			<path fill="none" stroke="#45413C" stroke-linecap="round" stroke-linejoin="round" stroke-miterlimit="10" d="M23.728,77.337
				c0.539-0.518,1.271-0.837,2.078-0.837h0.5c0.768,0,1.468,0.289,1.999,0.763V61h-13v16.263c0.531-0.474,1.231-0.763,1.999-0.763
				h0.5c0.807,0,1.539,0.319,2.078,0.837l0.367-10.338c0.031-0.837,0.718-1.499,1.556-1.499c0.837,0,1.524,0.662,1.556,1.499
				L23.728,77.337z"/>
		</g>
		
			<ellipse fill="#FFDA8F" stroke="#45413C" stroke-linecap="round" stroke-linejoin="round" stroke-miterlimit="10" cx="21.805" cy="33.25" rx="7" ry="2.25"/>
		<g>
			<path fill="#45413C" d="M19.555,32.5c-0.414,0-0.75,0.336-0.75,0.75S19.141,34,19.555,34s0.75-0.336,0.75-0.75
				S19.969,32.5,19.555,32.5L19.555,32.5z"/>
		</g>
		<g>
			<path fill="#45413C" d="M24.055,32.5c-0.414,0-0.75,0.336-0.75,0.75S23.641,34,24.055,34s0.75-0.336,0.75-0.75
				S24.469,32.5,24.055,32.5L24.055,32.5z"/>
		</g>
		<path fill="#FFDA8F" stroke="#45413C" stroke-linecap="round" stroke-linejoin="round" stroke-miterlimit="10" d="M30.055,65.5
			c0.967,0,1.75-0.784,1.75-1.75V54.5h-3.5V61v2.75C28.305,64.716,29.088,65.5,30.055,65.5z"/>
		<path fill="#FFDA8F" stroke="#45413C" stroke-linecap="round" stroke-linejoin="round" stroke-miterlimit="10" d="M9.305,38.248
			v-2c0-0.17-0.03-0.34-0.08-0.49c0.01-0.01,0.01-0.02,0.01-0.04c0.01-0.03,0.02-0.07,0.03-0.11c0-0.02,0.01-0.05,0.01-0.07
			c0.03-0.18,0.03-0.36,0-0.53c-0.08-0.55-0.41-1.03-0.92-1.28c-0.09-0.05-0.18-0.09-0.27-0.13l-0.62-0.23
			c-0.52-0.2-1.1,0.06-1.29,0.59l-0.52,1.39v0.01c-0.12,0.33-0.06,0.67,0.13,0.93l0.02,0.19v1.77c0,2.6,1.29,4.91,3.27,6.32
			l1.94-2.92C9.975,40.878,9.305,39.638,9.305,38.248z"/>
		<path fill="#FFDA8F" stroke="#45413C" stroke-linecap="round" stroke-linejoin="round" stroke-miterlimit="10" d="M21.805,45.5
			c1.504,0,2.749-1.107,2.966-2.55c-0.938-0.292-1.934-0.45-2.966-0.45h-3C18.805,44.157,20.148,45.5,21.805,45.5z"/>
		
			<line fill="none" stroke="#45413C" stroke-linecap="round" stroke-linejoin="round" stroke-miterlimit="10" x1="28.305" y1="54.5" x2="28.305" y2="51"/>
		<path fill="#FF8A14" stroke="#45413C" stroke-linecap="round" stroke-linejoin="round" stroke-miterlimit="10" d="M15.11,20.667
			c-0.534,1.725-2.482,2.621-4.176,1.812c-1.429-0.683-1.992-2.421-1.447-3.909c0.806-2.199,2.512-3.168,3.906-3.516
			c0.512-0.128,0.86,0.535,0.451,0.869c-1.706,1.393-1.781,2.752-1.781,2.752c0.519,0.503,1.162,0.389,1.911-0.198
			c0.212-0.167,0.522-0.112,0.687,0.102C14.991,19.007,15.392,19.758,15.11,20.667z"/>
		<path fill="#915E3A" stroke="#45413C" stroke-linecap="round" stroke-linejoin="round" stroke-miterlimit="10" d="M11.356,22.645
			c-0.337-0.104-0.634-0.272-0.901-0.471L4.482,41.453c-0.163,0.528,0.132,1.088,0.659,1.251l0,0
			c0.528,0.164,1.088-0.132,1.251-0.659l5.974-19.279C12.033,22.779,11.693,22.749,11.356,22.645z"/>
		<path fill="#FFDA8F" stroke="#45413C" stroke-linecap="round" stroke-linejoin="round" stroke-miterlimit="10" d="M6.928,36.905
			c0.993,0.379,2.117-0.207,2.341-1.295c0.176-0.854-0.367-1.698-1.182-2.009l-0.622-0.237c-0.52-0.198-1.103,0.067-1.295,0.589
			l-0.518,1.408c-0.189,0.514,0.071,1.084,0.582,1.28L6.928,36.905z"/>
		<path fill="#87898C" stroke="#45413C" stroke-linecap="round" stroke-linejoin="round" stroke-miterlimit="10" d="M28.305,72h-0.5
			c-0.552,0-1-0.448-1-1v-2c0-0.552,0.448-1,1-1h0.5c0.552,0,1,0.448,1,1v2C29.305,71.552,28.857,72,28.305,72z"/>
		<path fill="#87898C" stroke="#45413C" stroke-linecap="round" stroke-linejoin="round" stroke-miterlimit="10" d="M15.805,72h-0.5
			c-0.552,0-1-0.448-1-1v-2c0-0.552,0.448-1,1-1h0.5c0.552,0,1,0.448,1,1v2C16.805,71.552,16.357,72,15.805,72z"/>
	</g>
</g>
</svg>
