<?xml version="1.0" encoding="utf-8"?>
<!-- Generator: Adobe Illustrator 21.0.0, SVG Export Plug-In . SVG Version: 6.00 Build 0)  -->
<svg version="1.1" id="Layer_1" xmlns="http://www.w3.org/2000/svg" xmlns:xlink="http://www.w3.org/1999/xlink" x="0px" y="0px"
	 width="96px" height="96px" viewBox="0 0 96 96" enable-background="new 0 0 96 96" xml:space="preserve">
<g>
	<g>
		<path fill="#BDFBFC" d="M88.609,49c0-22.091-17.909-40-40-40s-40,17.909-40,40c0,5.885,1.282,11.468,3.564,16.5h72.872
			C87.328,60.468,88.609,54.885,88.609,49z"/>
		<path fill="#FCEFD9" d="M12.173,65.5C18.458,79.357,32.403,89,48.609,89c16.206,0,30.151-9.643,36.436-23.5H12.173z"/>
		<path fill="#FFF5E3" d="M83.217,69c0.659-1.137,1.282-2.296,1.829-3.5H12.173c0.546,1.204,1.17,2.363,1.829,3.5H83.217z"/>
	</g>
	<g>
		
			<line fill="none" stroke="#45413C" stroke-linecap="round" stroke-linejoin="round" stroke-miterlimit="10" x1="9.609" y1="65.5" x2="87.609" y2="65.5"/>
		
			<line fill="none" stroke="#45413C" stroke-linecap="round" stroke-linejoin="round" stroke-miterlimit="10" x1="5.109" y1="65.5" x2="7.609" y2="65.5"/>
		
			<line fill="none" stroke="#45413C" stroke-linecap="round" stroke-linejoin="round" stroke-miterlimit="10" x1="89.609" y1="65.5" x2="92.109" y2="65.5"/>
	</g>
</g>
<g>
	
		<rect x="63.359" y="28.5" fill="#BDBEC0" stroke="#45413C" stroke-linecap="round" stroke-linejoin="round" stroke-miterlimit="10" width="17.5" height="34"/>
	
		<rect x="63.359" y="26.5" fill="#C0DCEB" stroke="#45413C" stroke-linecap="round" stroke-linejoin="round" stroke-miterlimit="10" width="17.5" height="2"/>
	<path fill="#C0DCEB" stroke="#45413C" stroke-linecap="round" stroke-linejoin="round" stroke-miterlimit="10" d="M61.359,65.5h2
		v-39c0-0.552-0.448-1-1-1l0,0c-0.552,0-1,0.448-1,1V65.5z"/>
	<path fill="#C0DCEB" stroke="#45413C" stroke-linecap="round" stroke-linejoin="round" stroke-miterlimit="10" d="M80.859,65.5h2
		v-39c0-0.552-0.448-1-1-1l0,0c-0.552,0-1,0.448-1,1V65.5z"/>
	
		<rect x="41.859" y="28.5" fill="#BDBEC0" stroke="#45413C" stroke-linecap="round" stroke-linejoin="round" stroke-miterlimit="10" width="17.5" height="34"/>
	<g>
		<path fill="#8CA4B8" stroke="#45413C" stroke-linecap="round" stroke-linejoin="round" stroke-miterlimit="10" d="M57.359,33.5
			h-13.5v-2c0-0.552,0.448-1,1-1h11.5c0.552,0,1,0.448,1,1V33.5z"/>
		<path fill="#E8F4FA" stroke="#45413C" stroke-linecap="round" stroke-linejoin="round" stroke-miterlimit="10" d="M51.359,30.5
			l-3,3h9v-2c0-0.552-0.448-1-1-1H51.359z"/>
	</g>
	<g>
		<path fill="#8CA4B8" stroke="#45413C" stroke-linecap="round" stroke-linejoin="round" stroke-miterlimit="10" d="M57.359,49.5
			h-13.5v-2c0-0.552,0.448-1,1-1h11.5c0.552,0,1,0.448,1,1V49.5z"/>
		<path fill="#E8F4FA" stroke="#45413C" stroke-linecap="round" stroke-linejoin="round" stroke-miterlimit="10" d="M51.359,46.5
			l-3,3h9v-2c0-0.552-0.448-1-1-1H51.359z"/>
	</g>
	<g>
		<path fill="#8CA4B8" stroke="#45413C" stroke-linecap="round" stroke-linejoin="round" stroke-miterlimit="10" d="M57.359,35.5
			c0,0.552-0.448,1-1,1h-11.5c-0.552,0-1-0.448-1-1v-2h13.5V35.5z"/>
		<path fill="#E8F4FA" stroke="#45413C" stroke-linecap="round" stroke-linejoin="round" stroke-miterlimit="10" d="M51.359,33.5
			l-3,3h8c0.552,0,1-0.448,1-1v-2H51.359z"/>
	</g>
	<g>
		<path fill="#8CA4B8" stroke="#45413C" stroke-linecap="round" stroke-linejoin="round" stroke-miterlimit="10" d="M78.859,33.5
			h-13.5v-2c0-0.552,0.448-1,1-1h11.5c0.552,0,1,0.448,1,1V33.5z"/>
		<path fill="#E8F4FA" stroke="#45413C" stroke-linecap="round" stroke-linejoin="round" stroke-miterlimit="10" d="M72.859,30.5
			l-3,3h9v-2c0-0.552-0.448-1-1-1H72.859z"/>
	</g>
	<g>
		<path fill="#8CA4B8" stroke="#45413C" stroke-linecap="round" stroke-linejoin="round" stroke-miterlimit="10" d="M78.859,35.5
			c0,0.552-0.448,1-1,1h-11.5c-0.552,0-1-0.448-1-1v-2h13.5V35.5z"/>
		<path fill="#E8F4FA" stroke="#45413C" stroke-linecap="round" stroke-linejoin="round" stroke-miterlimit="10" d="M72.859,33.5
			l-3,3h8c0.552,0,1-0.448,1-1v-2H72.859z"/>
	</g>
	<g>
		<path fill="#8CA4B8" stroke="#45413C" stroke-linecap="round" stroke-linejoin="round" stroke-miterlimit="10" d="M78.859,41.5
			h-13.5v-2c0-0.552,0.448-1,1-1h11.5c0.552,0,1,0.448,1,1V41.5z"/>
		<path fill="#E8F4FA" stroke="#45413C" stroke-linecap="round" stroke-linejoin="round" stroke-miterlimit="10" d="M72.859,38.5
			l-3,3h9v-2c0-0.552-0.448-1-1-1H72.859z"/>
	</g>
	<g>
		<path fill="#8CA4B8" stroke="#45413C" stroke-linecap="round" stroke-linejoin="round" stroke-miterlimit="10" d="M78.859,43.5
			c0,0.552-0.448,1-1,1h-11.5c-0.552,0-1-0.448-1-1v-2h13.5V43.5z"/>
		<path fill="#E8F4FA" stroke="#45413C" stroke-linecap="round" stroke-linejoin="round" stroke-miterlimit="10" d="M72.859,41.5
			l-3,3h8c0.552,0,1-0.448,1-1v-2H72.859z"/>
	</g>
	<g>
		<path fill="#8CA4B8" stroke="#45413C" stroke-linecap="round" stroke-linejoin="round" stroke-miterlimit="10" d="M57.359,57.5
			h-13.5v-2c0-0.552,0.448-1,1-1h11.5c0.552,0,1,0.448,1,1V57.5z"/>
		<path fill="#E8F4FA" stroke="#45413C" stroke-linecap="round" stroke-linejoin="round" stroke-miterlimit="10" d="M51.359,54.5
			l-3,3h9v-2c0-0.552-0.448-1-1-1H51.359z"/>
	</g>
	<g>
		<path fill="#8CA4B8" stroke="#45413C" stroke-linecap="round" stroke-linejoin="round" stroke-miterlimit="10" d="M57.359,59.5
			c0,0.552-0.448,1-1,1h-11.5c-0.552,0-1-0.448-1-1v-2h13.5V59.5z"/>
		<path fill="#E8F4FA" stroke="#45413C" stroke-linecap="round" stroke-linejoin="round" stroke-miterlimit="10" d="M51.359,57.5
			l-3,3h8c0.552,0,1-0.448,1-1v-2H51.359z"/>
	</g>
	<g>
		<path fill="#00DBA8" stroke="#45413C" stroke-linecap="round" stroke-linejoin="round" stroke-miterlimit="10" d="M57.359,41.5
			h-13.5v-2c0-0.552,0.448-1,1-1h11.5c0.552,0,1,0.448,1,1V41.5z"/>
		<path fill="#E8F4FA" stroke="#45413C" stroke-linecap="round" stroke-linejoin="round" stroke-miterlimit="10" d="M51.359,38.5
			l-3,3h9v-2c0-0.552-0.448-1-1-1H51.359z"/>
	</g>
	<g>
		<path fill="#00DBA8" stroke="#45413C" stroke-linecap="round" stroke-linejoin="round" stroke-miterlimit="10" d="M57.359,43.5
			c0,0.552-0.448,1-1,1h-11.5c-0.552,0-1-0.448-1-1v-2h13.5V43.5z"/>
		<path fill="#E8F4FA" stroke="#45413C" stroke-linecap="round" stroke-linejoin="round" stroke-miterlimit="10" d="M51.359,41.5
			l-3,3h8c0.552,0,1-0.448,1-1v-2H51.359z"/>
	</g>
	<g>
		<path fill="#00DBA8" stroke="#45413C" stroke-linecap="round" stroke-linejoin="round" stroke-miterlimit="10" d="M78.859,49.5
			h-13.5v-2c0-0.552,0.448-1,1-1h11.5c0.552,0,1,0.448,1,1V49.5z"/>
		<path fill="#E8F4FA" stroke="#45413C" stroke-linecap="round" stroke-linejoin="round" stroke-miterlimit="10" d="M72.859,46.5
			l-3,3h9v-2c0-0.552-0.448-1-1-1H72.859z"/>
	</g>
	<g>
		<path fill="#00DBA8" stroke="#45413C" stroke-linecap="round" stroke-linejoin="round" stroke-miterlimit="10" d="M78.859,51.5
			c0,0.552-0.448,1-1,1h-11.5c-0.552,0-1-0.448-1-1v-2h13.5V51.5z"/>
		<path fill="#E8F4FA" stroke="#45413C" stroke-linecap="round" stroke-linejoin="round" stroke-miterlimit="10" d="M72.859,49.5
			l-3,3h8c0.552,0,1-0.448,1-1v-2H72.859z"/>
	</g>
	<g>
		<path fill="#00DBA8" stroke="#45413C" stroke-linecap="round" stroke-linejoin="round" stroke-miterlimit="10" d="M78.859,57.5
			h-13.5v-2c0-0.552,0.448-1,1-1h11.5c0.552,0,1,0.448,1,1V57.5z"/>
		<path fill="#E8F4FA" stroke="#45413C" stroke-linecap="round" stroke-linejoin="round" stroke-miterlimit="10" d="M72.859,54.5
			l-3,3h9v-2c0-0.552-0.448-1-1-1H72.859z"/>
	</g>
	<g>
		<path fill="#00DBA8" stroke="#45413C" stroke-linecap="round" stroke-linejoin="round" stroke-miterlimit="10" d="M78.859,59.5
			c0,0.552-0.448,1-1,1h-11.5c-0.552,0-1-0.448-1-1v-2h13.5V59.5z"/>
		<path fill="#E8F4FA" stroke="#45413C" stroke-linecap="round" stroke-linejoin="round" stroke-miterlimit="10" d="M72.859,57.5
			l-3,3h8c0.552,0,1-0.448,1-1v-2H72.859z"/>
	</g>
	<g>
		<path fill="#00DBA8" stroke="#45413C" stroke-linecap="round" stroke-linejoin="round" stroke-miterlimit="10" d="M57.359,51.5
			c0,0.552-0.448,1-1,1h-11.5c-0.552,0-1-0.448-1-1v-2h13.5V51.5z"/>
		<path fill="#E8F4FA" stroke="#45413C" stroke-linecap="round" stroke-linejoin="round" stroke-miterlimit="10" d="M51.359,49.5
			l-3,3h8c0.552,0,1-0.448,1-1v-2H51.359z"/>
	</g>
	
		<rect x="41.859" y="26.5" fill="#C0DCEB" stroke="#45413C" stroke-linecap="round" stroke-linejoin="round" stroke-miterlimit="10" width="17.5" height="2"/>
	<path fill="#C0DCEB" stroke="#45413C" stroke-linecap="round" stroke-linejoin="round" stroke-miterlimit="10" d="M39.859,65.5h2
		v-39c0-0.552-0.448-1-1-1l0,0c-0.552,0-1,0.448-1,1V65.5z"/>
	<path fill="#C0DCEB" stroke="#45413C" stroke-linecap="round" stroke-linejoin="round" stroke-miterlimit="10" d="M59.359,65.5h2
		v-39c0-0.552-0.448-1-1-1l0,0c-0.552,0-1,0.448-1,1V65.5z"/>
	<path fill="none" stroke="#45413C" stroke-linecap="round" stroke-linejoin="round" stroke-miterlimit="10" d="M43.859,54.5
		L43.859,54.5c1.381,0,2.5,1.119,2.5,2.5v18c0,2.025,1.642,3.667,3.667,3.667h3.333"/>
	<path fill="#E0E0E0" stroke="#45413C" stroke-linecap="round" stroke-linejoin="round" stroke-miterlimit="10" d="M54.359,79.5h2.5
		v-2h-2.5c-0.552,0-1,0.448-1,1l0,0C53.359,79.052,53.807,79.5,54.359,79.5z"/>
	<path fill="none" stroke="#45413C" stroke-linecap="round" stroke-linejoin="round" stroke-miterlimit="10" d="M54.359,62.5v5.673
		c0,1.285,1.042,2.327,2.327,2.327h2.173c2.209,0,4,1.791,4,4l0,0c0,2.209-1.791,4-4,4h-2"/>
	<path fill="none" stroke="#45413C" stroke-linecap="round" stroke-linejoin="round" stroke-miterlimit="10" d="M51.359,62.5v5.602
		c0,1.324,1.074,2.398,2.398,2.398h5.102"/>
	<g>
		<path fill="#F0F0F0" d="M19.359,52c0-5.247,4.253-9.5,9.5-9.5s9.5,4.253,9.5,9.5v1.5h-2.5L35.857,61H22.859l-0.004-7.5h-3.496V52z
			"/>
		<path fill="#FFCEBF" stroke="#45413C" stroke-linecap="round" stroke-linejoin="round" stroke-miterlimit="10" d="M29.359,26.5
			c-3.314,0-6,2.686-6,6v0.8c-0.566,0.119-1,0.598-1,1.2c0,0.646,0.497,1.16,1.126,1.225c0.565,2.726,2.98,4.775,5.874,4.775
			c3.314,0,6-2.686,6-6v-2C35.359,29.186,32.673,26.5,29.359,26.5z"/>
		<path fill="#FFFFFF" d="M28.859,42.5c-5.247,0-9.5,4.253-9.5,9.5v1.5h0.052c0.5-4.777,4.539-8.5,9.448-8.5
			c4.909,0,8.948,3.723,9.448,8.5h0.053V52C38.359,46.753,34.106,42.5,28.859,42.5z"/>
		<path fill="none" stroke="#45413C" stroke-linecap="round" stroke-linejoin="round" stroke-miterlimit="10" d="M19.359,52
			c0-5.247,4.253-9.5,9.5-9.5s9.5,4.253,9.5,9.5v1.5h-2.5L35.857,61H22.859l-0.004-7.5h-3.496V52z"/>
		<circle fill="#45413C" cx="28.609" cy="33.25" r="0.75"/>
		<circle fill="#45413C" cx="32.609" cy="33.25" r="0.75"/>
		<circle fill="#FFB59E" cx="26.609" cy="35.25" r="0.75"/>
		<path fill="none" stroke="#45413C" stroke-linecap="round" stroke-linejoin="round" stroke-miterlimit="10" d="M28.859,37.046
			c0.908,0.606,2.092,0.606,3,0"/>
		<path fill="#A86C4D" d="M35.859,31c0-3.59-2.91-6.5-6.5-6.5s-6.5,2.91-6.5,6.5v2c1.777-0.479,2.837-1.57,3.5-3
			C29.161,31.886,32.859,31.5,35.859,31z"/>
		<path fill="#DE926A" d="M29.359,27c2.731,0,5.065,1.686,6.027,4.073c0.157-0.025,0.319-0.047,0.473-0.073c0-3.59-2.91-6.5-6.5-6.5
			s-6.5,2.91-6.5,6.5v2c0.009-0.002,0.017-0.006,0.026-0.008C23.145,29.64,25.941,27,29.359,27z"/>
		<path fill="none" stroke="#45413C" stroke-linecap="round" stroke-linejoin="round" stroke-miterlimit="10" d="M35.859,31
			c0-3.59-2.91-6.5-6.5-6.5s-6.5,2.91-6.5,6.5v2c1.777-0.479,2.837-1.57,3.5-3C29.161,31.886,32.859,31.5,35.859,31z"/>
		<path fill="none" stroke="#45413C" stroke-linecap="round" stroke-linejoin="round" stroke-miterlimit="10" d="M25.359,29
			c0,0,0.387,0.647,1,1"/>
		<path fill="#FFCEBF" stroke="#45413C" stroke-linecap="round" stroke-linejoin="round" stroke-miterlimit="10" d="M19.359,63.75
			c0,0.966,0.783,1.75,1.75,1.75c0.966,0,1.75-0.784,1.75-1.75V53.5h-3.5V63.75z"/>
		
			<line fill="none" stroke="#45413C" stroke-linecap="round" stroke-linejoin="round" stroke-miterlimit="10" x1="22.859" y1="53.5" x2="22.859" y2="50.5"/>
		
			<line fill="none" stroke="#45413C" stroke-linecap="round" stroke-linejoin="round" stroke-miterlimit="10" x1="35.859" y1="53.5" x2="35.859" y2="50.5"/>
		<path fill="#FFCEBF" stroke="#45413C" stroke-linecap="round" stroke-linejoin="round" stroke-miterlimit="10" d="M26.89,42.707
			L29.359,46l2.375-3.054c-0.907-0.288-1.873-0.446-2.875-0.446C28.184,42.5,27.525,42.573,26.89,42.707z"/>
		<path fill="#00DFEB" stroke="#45413C" stroke-linecap="round" stroke-linejoin="round" stroke-miterlimit="10" d="M29.359,46
			l1.839,0.306c0.567,0.095,1.057-0.4,0.957-0.966l-0.421-2.395L29.359,46z"/>
		<path fill="#00DFEB" stroke="#45413C" stroke-linecap="round" stroke-linejoin="round" stroke-miterlimit="10" d="M26.89,42.707
			l-0.373,2.67c-0.078,0.557,0.407,1.029,0.962,0.937L29.359,46L26.89,42.707z"/>
		
			<line fill="none" stroke="#45413C" stroke-linecap="round" stroke-linejoin="round" stroke-miterlimit="10" x1="29.359" y1="46" x2="29.359" y2="61"/>
		<path fill="#FFFFFF" d="M42.859,49.5h-9.5c-0.552,0-1,0.448-1,1V56c0,0.552,0.448,1,1,1h9.5c0.552,0,1-0.448,1-1v-5.5
			C43.859,49.948,43.412,49.5,42.859,49.5z"/>
		<path fill="#F0F0F0" d="M42.859,52h-9.5c-0.552,0-1,0.448-1,1v3c0,0.552,0.448,1,1,1h9.5c0.552,0,1-0.448,1-1v-3
			C43.859,52.448,43.412,52,42.859,52z"/>
		<path fill="none" stroke="#45413C" stroke-linecap="round" stroke-linejoin="round" stroke-miterlimit="10" d="M42.859,49.5h-9.5
			c-0.552,0-1,0.448-1,1V56c0,0.552,0.448,1,1,1h9.5c0.552,0,1-0.448,1-1v-5.5C43.859,49.948,43.412,49.5,42.859,49.5z"/>
		
			<circle fill="#FFE500" stroke="#45413C" stroke-linecap="round" stroke-linejoin="round" stroke-miterlimit="10" cx="38.109" cy="54" r="1"/>
		
			<line fill="none" stroke="#45413C" stroke-linecap="round" stroke-linejoin="round" stroke-miterlimit="10" x1="38.109" y1="52" x2="38.609" y2="51.5"/>
		<path fill="#FFCEBF" stroke="#45413C" stroke-linecap="round" stroke-linejoin="round" stroke-miterlimit="10" d="M38.658,59
			h-1.597c-0.664,0-1.201-0.538-1.201-1.201v-0.486c0-0.449,0.364-0.813,0.813-0.813h2.375c0.449,0,0.813,0.364,0.813,0.813v0.486
			C39.859,58.462,39.321,59,38.658,59z"/>
		<path fill="#80DDFF" d="M35.359,76.5c0.171,0,0.337,0.015,0.5,0.042V61h-13v15.5h4c0.207,0,0.409,0.021,0.604,0.061l0.34-9.562
			c0.031-0.837,0.718-1.499,1.556-1.499c0.837,0,1.524,0.662,1.556,1.499l0.444,9.501H35.359z"/>
		<rect x="22.859" y="61" fill="#4ACFFF" width="13" height="2.5"/>
		<g>
			<path fill="none" stroke="#45413C" stroke-linecap="round" stroke-linejoin="round" stroke-miterlimit="10" d="M35.359,76.5
				c0.171,0,0.337,0.015,0.5,0.042V61h-13v15.5h4c0.207,0,0.409,0.021,0.604,0.061l0.34-9.562c0.031-0.837,0.718-1.499,1.556-1.499
				c0.837,0,1.524,0.662,1.556,1.499l0.444,9.501H35.359z"/>
		</g>
		<path fill="#947746" stroke="#45413C" stroke-linecap="round" stroke-linejoin="round" stroke-miterlimit="10" d="M38.359,79.5
			c0-1.657-1.343-3-3-3h-4v2c0,0.552,0.448,1,1,1H38.359z"/>
		<path fill="#947746" stroke="#45413C" stroke-linecap="round" stroke-linejoin="round" stroke-miterlimit="10" d="M29.859,79.5
			c0-1.657-1.343-3-3-3h-4v2c0,0.552,0.448,1,1,1H29.859z"/>
		<ellipse opacity="0.15" fill="#45413C" cx="30.859" cy="80.5" rx="10" ry="1.5"/>
	</g>
</g>
</svg>
