<?xml version="1.0" encoding="utf-8"?>
<!-- Generator: Adobe Illustrator 21.0.0, SVG Export Plug-In . SVG Version: 6.00 Build 0)  -->
<svg version="1.1" id="Layer_1" xmlns="http://www.w3.org/2000/svg" xmlns:xlink="http://www.w3.org/1999/xlink" x="0px" y="0px"
	 width="96px" height="96px" viewBox="0 0 96 96" enable-background="new 0 0 96 96" xml:space="preserve">
<circle fill="#BDFBFC" cx="48" cy="48.986" r="40"/>
<g>
	<path fill="#FFCEBF" d="M54.38,58.354c-0.135-1.347-1.268-2.372-2.622-2.372H40.719c-1.354,0-2.487,1.026-2.622,2.372
		l-1.003,10.036c-0.046,0.458,0.226,0.886,0.659,1.04c5.487,1.961,11.485,1.961,16.971,0c0.432-0.154,0.704-0.584,0.659-1.04
		L54.38,58.354z"/>
	<path fill="#E8F4FA" d="M55.53,38.437c0.138-0.826,0.004-1.83-0.71-2.27c-1.583-0.974-18.23-1.48-17.407,4.008l1.244,8.293
		c0.194,1.29,1.301,2.244,2.606,2.244h9.989c1.288,0,2.387-0.931,2.599-2.201L55.53,38.437z"/>
	<path fill="#FFFFFF" d="M37.621,41.565c1.982-3.989,15.765-3.491,17.198-2.609c0.243,0.149,0.398,0.377,0.519,0.627l0.191-1.147
		c0.138-0.826,0.004-1.83-0.71-2.27c-1.583-0.974-18.23-1.48-17.407,4.009L37.621,41.565z"/>
	<path fill="none" stroke="#45413C" stroke-linecap="round" stroke-linejoin="round" stroke-miterlimit="10" d="M55.53,38.437
		c0.138-0.826,0.004-1.83-0.71-2.27c-1.583-0.974-18.23-1.48-17.407,4.008l1.244,8.293c0.194,1.29,1.301,2.244,2.606,2.244h9.989
		c1.288,0,2.387-0.931,2.599-2.201L55.53,38.437z"/>
	<ellipse opacity="0.15" fill="#45413C" cx="45.58" cy="76.353" rx="10.977" ry="1.647"/>
	<path fill="#00F5BC" stroke="#45413C" stroke-linecap="round" stroke-linejoin="round" stroke-miterlimit="10" d="M52.166,55.981
		c0-1.455-1.18-2.635-2.635-2.635h-6.586c-1.455,0-2.635,1.18-2.635,2.635H52.166z"/>
	<path fill="#00F5BC" stroke="#45413C" stroke-linecap="round" stroke-linejoin="round" stroke-miterlimit="10" d="M50.935,45.38
		c-0.027,1.838,0.902,3.452,2.316,4.413c0.386-0.449,0.533-0.878,0.622-1.414l1.337-8.096C52.806,40.742,50.972,42.837,50.935,45.38
		z"/>
	
		<circle fill="#8CA4B8" stroke="#45413C" stroke-linecap="round" stroke-linejoin="round" stroke-miterlimit="10" cx="46.239" cy="50.053" r="3.293"/>
	
		<rect x="50.849" y="25.684" fill="#C0DCEB" stroke="#45413C" stroke-linecap="round" stroke-linejoin="round" stroke-miterlimit="10" width="3.952" height="5.269"/>
	<path fill="#E8F4FA" stroke="#45413C" stroke-linecap="round" stroke-linejoin="round" stroke-miterlimit="10" d="M54.801,25.684
		h-3.952v-1.976c0-1.091,0.885-1.976,1.976-1.976c1.091,0,1.976,0.885,1.976,1.976V25.684z"/>
	
		<rect x="44.074" y="24.46" transform="matrix(0.9952 -0.0978 0.0978 0.9952 -2.4285 4.6324)" fill="#C0DCEB" stroke="#45413C" stroke-linecap="round" stroke-linejoin="round" stroke-miterlimit="10" width="3.952" height="5.269"/>
	<path fill="#E8F4FA" stroke="#45413C" stroke-linecap="round" stroke-linejoin="round" stroke-miterlimit="10" d="M47.759,24.279
		l-3.933,0.386l-0.193-1.967c-0.107-1.086,0.687-2.053,1.773-2.16c1.086-0.107,2.053,0.687,2.16,1.773L47.759,24.279z"/>
	<polygon fill="#C0DCEB" stroke="#45413C" stroke-linecap="round" stroke-linejoin="round" stroke-miterlimit="10" points="
		38.05,35.036 34.605,36.974 33.034,34.098 36.478,32.16 	"/>
	<path fill="#E8F4FA" stroke="#45413C" stroke-linecap="round" stroke-linejoin="round" stroke-miterlimit="10" d="M36.478,32.16
		l-3.444,1.938l-0.969-1.722c-0.535-0.951-0.198-2.156,0.753-2.691c0.951-0.535,2.156-0.198,2.691,0.753L36.478,32.16z"/>
	
		<rect x="38.108" y="27.068" transform="matrix(0.9671 -0.2544 0.2544 0.9671 -6.1301 11.1591)" fill="#C0DCEB" stroke="#45413C" stroke-linecap="round" stroke-linejoin="round" stroke-miterlimit="10" width="3.952" height="4.43"/>
	<path fill="#E8F4FA" stroke="#45413C" stroke-linecap="round" stroke-linejoin="round" stroke-miterlimit="10" d="M41.431,26.638
		l-3.822,1.005l-0.503-1.911c-0.278-1.055,0.353-2.136,1.408-2.414c1.055-0.278,2.136,0.353,2.414,1.408L41.431,26.638z"/>
	<path fill="#ADC4D9" stroke="#45413C" stroke-linecap="round" stroke-linejoin="round" stroke-miterlimit="10" d="M54.801,36.158
		v-5.206h-3.952v4.636C52.825,35.673,54.352,35.898,54.801,36.158z"/>
	<g>
		<path fill="#45413C" d="M40.969,39.515c-0.364,0-0.659,0.295-0.659,0.659s0.295,0.659,0.659,0.659s0.659-0.295,0.659-0.659
			S41.333,39.515,40.969,39.515L40.969,39.515z"/>
	</g>
	<g>
		<path fill="#45413C" d="M51.508,37.539c-0.364,0-0.659,0.295-0.659,0.659c0,0.364,0.295,0.659,0.659,0.659
			s0.659-0.295,0.659-0.659C52.166,37.834,51.872,37.539,51.508,37.539L51.508,37.539z"/>
	</g>
	<g>
		<path fill="#45413C" d="M40.969,44.784c-0.364,0-0.659,0.295-0.659,0.659c0,0.364,0.295,0.659,0.659,0.659
			s0.659-0.295,0.659-0.659C41.628,45.079,41.333,44.784,40.969,44.784L40.969,44.784z"/>
	</g>
	<path fill="#ADC4D9" stroke="#45413C" stroke-linecap="round" stroke-linejoin="round" stroke-miterlimit="10" d="M56.777,42.15
		c-1.894,0-3.293,1.474-3.293,3.293c0,1.819,1.474,3.293,3.293,3.293c1.692,0,4.001-1.986,6.543-4.361l-3.233-3.233
		C58.902,41.765,57.73,42.15,56.777,42.15z"/>
	<path fill="#E8F4FA" stroke="#45413C" stroke-linecap="round" stroke-linejoin="round" stroke-miterlimit="10" d="M68.035,40.05
		c0.352-0.299,0.523-0.76,0.448-1.216c-0.074-0.456-0.382-0.839-0.811-1.011c-1.275-0.511-2.781-0.341-3.933,0.575
		c-0.196,0.205-0.408,0.4-0.62,0.595l2.876,2.875C66.67,41.244,67.352,40.629,68.035,40.05z"/>
	<path fill="#00F5BC" stroke="#45413C" stroke-linecap="round" stroke-linejoin="round" stroke-miterlimit="10" d="M63.118,38.993
		c-0.927,0.851-1.98,1.595-3.031,2.148l3.233,3.233c0.869-0.812,1.765-1.667,2.673-2.506L63.118,38.993z"/>
	<path fill="#ADC4D9" stroke="#45413C" stroke-linecap="round" stroke-linejoin="round" stroke-miterlimit="10" d="M49.029,35.554
		l-0.755-6.031l-3.933,0.387l0.535,5.877C46.266,35.629,47.696,35.559,49.029,35.554z"/>
	<path fill="#ADC4D9" stroke="#45413C" stroke-linecap="round" stroke-linejoin="round" stroke-miterlimit="10" d="M44.028,35.896
		l-1.47-4.974l-3.822,1.005l1.511,4.878C41.332,36.388,42.642,36.094,44.028,35.896z"/>
	<path fill="#ADC4D9" stroke="#45413C" stroke-linecap="round" stroke-linejoin="round" stroke-miterlimit="10" d="M37.413,40.176
		c-0.195-1.299,0.596-2.259,1.927-2.959l-1.29-2.18l-3.444,1.938l3.135,5.387L37.413,40.176z"/>
	<path fill="#FFDCD1" d="M40.014,58.794h12.45c0.782,0,1.498,0.27,2.031,0.713l-0.115-1.153c-0.135-1.347-1.268-2.372-2.622-2.372
		H40.719c-1.354,0-2.487,1.026-2.622,2.372l-0.115,1.153C38.516,59.063,39.232,58.794,40.014,58.794z"/>
	<path fill="none" stroke="#45413C" stroke-linecap="round" stroke-linejoin="round" stroke-miterlimit="10" d="M54.38,58.354
		c-0.135-1.347-1.268-2.372-2.622-2.372H40.719c-1.354,0-2.487,1.026-2.622,2.372l-1.003,10.036
		c-0.046,0.458,0.226,0.886,0.659,1.04c5.487,1.961,11.485,1.961,16.971,0c0.432-0.154,0.704-0.584,0.659-1.04L54.38,58.354z"/>
	
		<circle fill="none" stroke="#45413C" stroke-linecap="round" stroke-linejoin="round" stroke-miterlimit="10" cx="46.239" cy="50.053" r="0.5"/>
</g>
</svg>
