<?xml version="1.0" encoding="utf-8"?>
<!-- Generator: Adobe Illustrator 21.0.0, SVG Export Plug-In . SVG Version: 6.00 Build 0)  -->
<svg version="1.1" id="Layer_1" xmlns="http://www.w3.org/2000/svg" xmlns:xlink="http://www.w3.org/1999/xlink" x="0px" y="0px"
	 width="96px" height="96px" viewBox="0 0 96 96" enable-background="new 0 0 96 96" xml:space="preserve">
<g>
	<g>
		<path fill="#F7E5C6" d="M88,48C88,25.909,70.091,8,48,8S8,25.909,8,48c0,5.885,1.281,11.468,3.564,16.5h72.872
			C86.718,59.468,88,53.885,88,48z"/>
		<path fill="#FF6242" d="M11.564,64.5C17.849,78.357,31.794,88,48,88s30.151-9.643,36.436-23.5H11.564z"/>
		<path fill="#FF866E" d="M82.607,68c0.659-1.137,1.282-2.296,1.829-3.5H11.564c0.546,1.204,1.17,2.363,1.829,3.5H82.607z"/>
	</g>
	<g>
		
			<line fill="none" stroke="#45413C" stroke-linecap="round" stroke-linejoin="round" stroke-miterlimit="10" x1="9" y1="64.5" x2="87" y2="64.5"/>
		
			<line fill="none" stroke="#45413C" stroke-linecap="round" stroke-linejoin="round" stroke-miterlimit="10" x1="4.5" y1="64.5" x2="7" y2="64.5"/>
		
			<line fill="none" stroke="#45413C" stroke-linecap="round" stroke-linejoin="round" stroke-miterlimit="10" x1="89" y1="64.5" x2="91.5" y2="64.5"/>
	</g>
</g>
<g>
	<ellipse opacity="0.15" fill="#45413C" cx="37.719" cy="67.226" rx="8.25" ry="1.5"/>
	<ellipse opacity="0.15" fill="#45413C" cx="61.998" cy="66.226" rx="8.25" ry="1.5"/>
	<path fill="#FFFFFF" d="M33.498,56.006v-13c-3.314,0-6,2.687-6,6v7H33.498z"/>
	<path fill="#E8F4FA" d="M33.498,43.006c-0.936,0-1.816,0.22-2.606,0.602c-0.234,0.475-0.464,1.011-0.684,1.648
		c-0.999,2.896-1.342,7.044-0.476,10.75h3.765V43.006z"/>
	<path fill="none" stroke="#45413C" stroke-linecap="round" stroke-linejoin="round" stroke-miterlimit="10" d="M33.498,56.006v-13
		c-3.314,0-6,2.687-6,6v7H33.498z"/>
	<path fill="#FFFFFF" d="M34.498,61.006h-4.5c-1.381,0-2.5-1.119-2.5-2.5v-2.5h7V61.006z"/>
	<path fill="#E8F4FA" d="M32.007,61.006h2.491v-5h-4.765C30.166,57.854,30.901,59.59,32.007,61.006z"/>
	<path fill="none" stroke="#45413C" stroke-linecap="round" stroke-linejoin="round" stroke-miterlimit="10" d="M34.498,61.006h-4.5
		c-1.381,0-2.5-1.119-2.5-2.5v-2.5h7V61.006z"/>
	<path fill="#FFFFFF" d="M62.998,36.006l-2.5,13h1.5c3.313,0,6-2.687,6-6v-7H62.998z"/>
	<polygon fill="#E8F4FA" points="67.998,37.506 67.998,36.006 62.998,36.006 62.709,37.506 	"/>
	<path fill="#E8F4FA" d="M64.535,48.437c-0.168-1.153-0.422-2.235-0.748-3.181c-0.59-1.711-1.249-2.753-1.881-3.576l-1.408,7.326
		h1.5C62.906,49.006,63.764,48.799,64.535,48.437z"/>
	<path fill="none" stroke="#45413C" stroke-linecap="round" stroke-linejoin="round" stroke-miterlimit="10" d="M62.998,36.006
		l-2.5,13h1.5c3.313,0,6-2.687,6-6v-7H62.998z"/>
	<path fill="#FFFFFF" stroke="#45413C" stroke-linecap="round" stroke-linejoin="round" stroke-miterlimit="10" d="M65.498,31.006
		h-2.5c-1.381,0-2.5,1.119-2.5,2.5c0,1.381,1.119,2.5,2.5,2.5h5v-2.5C67.998,32.125,66.879,31.006,65.498,31.006z"/>
	<path fill="#E8F4FA" d="M62.156,45.256c-1.526-4.423-3.513-4.396-4.287-7.582l-0.767-3.761c-0.964-6.032-5.904-6.407-10.104-6.407
		s-9.141,0.375-10.104,6.407l-0.767,3.761c-0.774,3.187-2.761,3.159-4.287,7.582c-2.236,6.482-1.203,19.25,9.388,19.25h11.541
		C63.359,64.506,64.393,51.738,62.156,45.256z"/>
	<path fill="#E8F4FA" d="M62.156,45.256c-1.526-4.423-3.513-4.396-4.287-7.582l-0.767-3.761c-0.964-6.032-5.904-6.407-10.104-6.407
		s-9.141,0.375-10.104,6.407l-0.767,3.761c-0.774,3.187-2.761,3.159-4.287,7.582c-2.236,6.482-1.203,19.25,9.388,19.25h11.541
		C63.359,64.506,64.393,51.738,62.156,45.256z"/>
	<g>
		<path fill="#FFFFFF" d="M62.156,45.256c-0.521-1.51-1.096-2.495-1.656-3.273l0,0c-1.748,0.725-5.926,2.023-13.502,2.023
			s-11.754-1.298-13.502-2.023l0,0c-0.56,0.778-1.135,1.763-1.656,3.273c-0.398,1.155-0.691,2.514-0.846,3.961
			c1.74,3.08,6.14,8.289,16.004,8.289s14.264-5.21,16.004-8.289C62.848,47.77,62.555,46.411,62.156,45.256z"/>
		<circle fill="#E8F4FA" cx="46.998" cy="48.506" r="4"/>
	</g>
	<g>
		<path fill="#FFFFFF" d="M46.998,29.506c3.508,0,8.031,0.274,9.992,3.876c-1.17-5.508-5.923-5.876-9.992-5.876
			s-8.822,0.368-9.992,5.876C38.967,29.78,43.49,29.506,46.998,29.506z"/>
	</g>
	<path fill="none" stroke="#45413C" stroke-linecap="round" stroke-linejoin="round" stroke-miterlimit="10" d="M62.156,45.256
		c-1.526-4.423-3.513-4.396-4.287-7.582l-0.767-3.761c-0.964-6.032-5.904-6.407-10.104-6.407s-9.141,0.375-10.104,6.407
		l-0.767,3.761c-0.774,3.187-2.761,3.159-4.287,7.582c-2.236,6.482-1.203,19.25,9.388,19.25h11.541
		C63.359,64.506,64.393,51.738,62.156,45.256z"/>
	<g>
		<path fill="#6DD627" stroke="#45413C" stroke-linejoin="round" stroke-miterlimit="10" d="M56.676,58.396
			c-0.172-0.426-0.546-0.737-0.996-0.829c-0.45-0.092-0.916,0.049-1.24,0.373c-1.835,1.831-4.87,3.185-7.16,3.401
			c-0.429,0.04-0.813,0.28-1.038,0.648c-0.226,0.368-0.265,0.82-0.105,1.22l1.052,2.645c0.234,0.591,0.845,0.94,1.475,0.846
			c2.597-0.389,5.805-1.717,8.048-3.338c0.895-0.646,1.235-1.818,0.822-2.842L56.676,58.396z"/>
		<ellipse transform="matrix(1 -0.0026 0.0026 1 -0.1647 0.1371)" fill="#C8FFA1" cx="52.019" cy="62.69" rx="1.026" ry="1.027"/>
	</g>
	<path fill="#FFA694" d="M36.894,33.913c0.796-4.978,4.298-6.101,7.858-6.342c-1.166-1.305-4.197-4.298-6.683-3.287
		c-2.53,1.03-1.89,7.407-1.386,10.656L36.894,33.913z"/>
	<g>
		<path fill="#FFCABF" d="M37.729,25.684c1.855-0.756,4.015,0.722,5.476,2.062c0.51-0.082,1.027-0.14,1.548-0.175
			c-1.166-1.305-4.197-4.298-6.683-3.287c-0.962,0.392-1.464,1.558-1.69,3.03C36.666,26.527,37.099,25.94,37.729,25.684z"/>
	</g>
	<path fill="none" stroke="#45413C" stroke-linecap="round" stroke-linejoin="round" stroke-miterlimit="10" d="M36.894,33.913
		c0.796-4.978,4.298-6.101,7.858-6.342c-1.166-1.305-4.197-4.298-6.683-3.287c-2.53,1.03-1.89,7.407-1.386,10.656L36.894,33.913z"/>
	<path fill="#FFA694" d="M57.103,33.913c-0.796-4.978-4.298-6.101-7.858-6.342c1.166-1.305,4.197-4.298,6.683-3.287
		c2.53,1.03,1.89,7.407,1.386,10.656L57.103,33.913z"/>
	<g>
		<path fill="#FFCABF" d="M56.268,25.684c-1.855-0.756-4.015,0.722-5.476,2.062c-0.51-0.082-1.027-0.14-1.548-0.175
			c1.166-1.305,4.197-4.298,6.683-3.287c0.962,0.392,1.464,1.558,1.69,3.03C57.33,26.527,56.897,25.94,56.268,25.684z"/>
	</g>
	<path fill="none" stroke="#45413C" stroke-linecap="round" stroke-linejoin="round" stroke-miterlimit="10" d="M57.103,33.913
		c-0.796-4.978-4.298-6.101-7.858-6.342c1.166-1.305,4.197-4.298,6.683-3.287c2.53,1.03,1.89,7.407,1.386,10.656L57.103,33.913z"/>
	<polygon fill="none" stroke="#45413C" stroke-linecap="round" stroke-linejoin="round" stroke-miterlimit="10" points="
		46.998,35.708 45.798,34.509 48.198,34.509 	"/>
	
		<line fill="none" stroke="#45413C" stroke-linecap="round" stroke-linejoin="round" stroke-miterlimit="10" x1="39.798" y1="34.509" x2="42.798" y2="35.109"/>
	
		<line fill="none" stroke="#45413C" stroke-linecap="round" stroke-linejoin="round" stroke-miterlimit="10" x1="39.798" y1="38.109" x2="42.798" y2="37.509"/>
	<path fill="none" stroke="#45413C" stroke-linecap="round" stroke-linejoin="round" stroke-miterlimit="10" d="M44.598,32.708
		c-0.636-1.08-1.656-1.799-3-1.799"/>
	
		<line fill="none" stroke="#45413C" stroke-linecap="round" stroke-linejoin="round" stroke-miterlimit="10" x1="54.198" y1="34.509" x2="51.198" y2="35.109"/>
	
		<line fill="none" stroke="#45413C" stroke-linecap="round" stroke-linejoin="round" stroke-miterlimit="10" x1="54.198" y1="38.109" x2="51.198" y2="37.509"/>
	<path fill="none" stroke="#45413C" stroke-linecap="round" stroke-linejoin="round" stroke-miterlimit="10" d="M49.398,32.708
		c0.636-1.08,1.656-1.799,3-1.799"/>
	<path fill="#FF6242" d="M35.322,39.615c-0.518,0.823-1.162,1.45-1.826,2.368c1.748,0.725,5.926,2.023,13.502,2.023
		s11.754-1.298,13.502-2.023c-0.664-0.918-1.309-1.544-1.826-2.368c-2.275,0.668-6.028,1.391-11.676,1.391
		S37.598,40.283,35.322,39.615z"/>
	<path fill="#FF866E" d="M46.998,42.506c4.539,0,9.673-0.859,12.697-1.544c-0.369-0.446-0.719-0.865-1.021-1.347
		c-2.275,0.668-6.028,1.391-11.676,1.391s-9.4-0.723-11.676-1.391c-0.303,0.482-0.652,0.901-1.021,1.347
		C37.325,41.646,42.459,42.506,46.998,42.506z"/>
	<path fill="none" stroke="#45413C" stroke-linecap="round" stroke-linejoin="round" stroke-miterlimit="10" d="M35.322,39.615
		c-0.518,0.823-1.162,1.45-1.826,2.368c1.748,0.725,5.926,2.023,13.502,2.023s11.754-1.298,13.502-2.023
		c-0.664-0.918-1.309-1.544-1.826-2.368c-2.275,0.668-6.028,1.391-11.676,1.391S37.598,40.283,35.322,39.615z"/>
	<circle fill="#FFE500" cx="46.998" cy="47.506" r="3.5"/>
	<path fill="#FFFACF" d="M46.998,45.506c1.675,0,3.071,1.178,3.415,2.75c0.053-0.242,0.085-0.492,0.085-0.75
		c0-1.933-1.566-3.5-3.5-3.5c-1.934,0-3.5,1.567-3.5,3.5c0,0.258,0.032,0.508,0.085,0.75C43.927,46.684,45.323,45.506,46.998,45.506
		z"/>
	<circle fill="none" stroke="#45413C" stroke-miterlimit="10" cx="46.998" cy="47.506" r="3.5"/>
	
		<line fill="none" stroke="#45413C" stroke-linecap="round" stroke-linejoin="round" stroke-miterlimit="10" x1="42.498" y1="47.506" x2="51.498" y2="47.506"/>
	<g>
		<path fill="#FFE500" d="M36.748,57.006h-3.5c-0.69,0-1.25,0.559-1.25,1.25c0,0.69,0.56,1.25,1.25,1.25h3.5
			c0.69,0,1.25-0.56,1.25-1.25C37.998,57.565,37.438,57.006,36.748,57.006z"/>
		<path fill="#FFFACF" d="M33.248,58.256h3.5c0.457,0,0.841,0.258,1.059,0.625c0.111-0.187,0.191-0.392,0.191-0.625
			c0-0.691-0.56-1.25-1.25-1.25h-3.5c-0.69,0-1.25,0.559-1.25,1.25c0,0.233,0.08,0.438,0.191,0.625
			C32.407,58.514,32.791,58.256,33.248,58.256z"/>
		<path fill="none" stroke="#45413C" stroke-miterlimit="10" d="M36.748,57.006h-3.5c-0.69,0-1.25,0.559-1.25,1.25
			c0,0.69,0.56,1.25,1.25,1.25h3.5c0.69,0,1.25-0.56,1.25-1.25C37.998,57.565,37.438,57.006,36.748,57.006z"/>
	</g>
	<g>
		<path fill="#FFE500" d="M34.748,59.506h-3.5c-0.69,0-1.25,0.559-1.25,1.25c0,0.69,0.56,1.25,1.25,1.25h3.5
			c0.69,0,1.25-0.56,1.25-1.25C35.998,60.065,35.438,59.506,34.748,59.506z"/>
		<path fill="#FFFACF" d="M31.248,60.756h3.5c0.457,0,0.841,0.258,1.059,0.625c0.111-0.187,0.191-0.392,0.191-0.625
			c0-0.691-0.56-1.25-1.25-1.25h-3.5c-0.69,0-1.25,0.559-1.25,1.25c0,0.233,0.08,0.438,0.191,0.625
			C30.407,61.014,30.791,60.756,31.248,60.756z"/>
		<path fill="none" stroke="#45413C" stroke-miterlimit="10" d="M34.748,59.506h-3.5c-0.69,0-1.25,0.559-1.25,1.25
			c0,0.69,0.56,1.25,1.25,1.25h3.5c0.69,0,1.25-0.56,1.25-1.25C35.998,60.065,35.438,59.506,34.748,59.506z"/>
	</g>
	<g>
		<path fill="#FFE500" d="M36.748,62.006h-3.5c-0.69,0-1.25,0.559-1.25,1.25c0,0.69,0.56,1.25,1.25,1.25h3.5
			c0.69,0,1.25-0.56,1.25-1.25C37.998,62.565,37.438,62.006,36.748,62.006z"/>
		<path fill="#FFFACF" d="M33.248,63.256h3.5c0.457,0,0.841,0.258,1.059,0.625c0.111-0.187,0.191-0.392,0.191-0.625
			c0-0.691-0.56-1.25-1.25-1.25h-3.5c-0.69,0-1.25,0.559-1.25,1.25c0,0.233,0.08,0.438,0.191,0.625
			C32.407,63.514,32.791,63.256,33.248,63.256z"/>
		<path fill="none" stroke="#45413C" stroke-miterlimit="10" d="M36.748,62.006h-3.5c-0.69,0-1.25,0.559-1.25,1.25
			c0,0.69,0.56,1.25,1.25,1.25h3.5c0.69,0,1.25-0.56,1.25-1.25C37.998,62.565,37.438,62.006,36.748,62.006z"/>
	</g>
	<g>
		<path fill="#FFE500" d="M36.748,64.506h-3.5c-0.69,0-1.25,0.56-1.25,1.25c0,0.69,0.56,1.25,1.25,1.25h3.5
			c0.69,0,1.25-0.56,1.25-1.25C37.998,65.065,37.438,64.506,36.748,64.506z"/>
		<path fill="#FFFACF" d="M33.248,65.756h3.5c0.457,0,0.841,0.258,1.059,0.625c0.111-0.187,0.191-0.392,0.191-0.625
			c0-0.69-0.56-1.25-1.25-1.25h-3.5c-0.69,0-1.25,0.56-1.25,1.25c0,0.233,0.08,0.438,0.191,0.625
			C32.407,66.014,32.791,65.756,33.248,65.756z"/>
		<path fill="none" stroke="#45413C" stroke-miterlimit="10" d="M36.748,64.506h-3.5c-0.69,0-1.25,0.56-1.25,1.25
			c0,0.69,0.56,1.25,1.25,1.25h3.5c0.69,0,1.25-0.56,1.25-1.25C37.998,65.065,37.438,64.506,36.748,64.506z"/>
	</g>
	<g>
		<path fill="#FFE500" d="M42.748,62.006h-3.5c-0.69,0-1.25,0.559-1.25,1.25c0,0.69,0.56,1.25,1.25,1.25h3.5
			c0.69,0,1.25-0.56,1.25-1.25C43.998,62.565,43.438,62.006,42.748,62.006z"/>
		<path fill="#FFFACF" d="M39.248,63.256h3.5c0.457,0,0.841,0.258,1.059,0.625c0.111-0.187,0.191-0.392,0.191-0.625
			c0-0.691-0.56-1.25-1.25-1.25h-3.5c-0.69,0-1.25,0.559-1.25,1.25c0,0.233,0.08,0.438,0.191,0.625
			C38.407,63.514,38.791,63.256,39.248,63.256z"/>
		<path fill="none" stroke="#45413C" stroke-miterlimit="10" d="M42.748,62.006h-3.5c-0.69,0-1.25,0.559-1.25,1.25
			c0,0.69,0.56,1.25,1.25,1.25h3.5c0.69,0,1.25-0.56,1.25-1.25C43.998,62.565,43.438,62.006,42.748,62.006z"/>
	</g>
	<g>
		<path fill="#FFE500" d="M42.748,64.506h-3.5c-0.69,0-1.25,0.56-1.25,1.25c0,0.69,0.56,1.25,1.25,1.25h3.5
			c0.69,0,1.25-0.56,1.25-1.25C43.998,65.065,43.438,64.506,42.748,64.506z"/>
		<path fill="#FFFACF" d="M39.248,65.756h3.5c0.457,0,0.841,0.258,1.059,0.625c0.111-0.187,0.191-0.392,0.191-0.625
			c0-0.69-0.56-1.25-1.25-1.25h-3.5c-0.69,0-1.25,0.56-1.25,1.25c0,0.233,0.08,0.438,0.191,0.625
			C38.407,66.014,38.791,65.756,39.248,65.756z"/>
		<path fill="none" stroke="#45413C" stroke-miterlimit="10" d="M42.748,64.506h-3.5c-0.69,0-1.25,0.56-1.25,1.25
			c0,0.69,0.56,1.25,1.25,1.25h3.5c0.69,0,1.25-0.56,1.25-1.25C43.998,65.065,43.438,64.506,42.748,64.506z"/>
	</g>
	<g>
		<path fill="#FFE500" d="M60.748,61.006h-3.5c-0.69,0-1.25,0.559-1.25,1.25c0,0.69,0.56,1.25,1.25,1.25h3.5
			c0.69,0,1.25-0.56,1.25-1.25C61.998,61.565,61.438,61.006,60.748,61.006z"/>
		<path fill="#FFFACF" d="M57.248,62.256h3.5c0.457,0,0.841,0.258,1.059,0.625c0.111-0.187,0.191-0.392,0.191-0.625
			c0-0.691-0.56-1.25-1.25-1.25h-3.5c-0.69,0-1.25,0.559-1.25,1.25c0,0.233,0.08,0.438,0.191,0.625
			C56.407,62.514,56.791,62.256,57.248,62.256z"/>
		<path fill="none" stroke="#45413C" stroke-miterlimit="10" d="M60.748,61.006h-3.5c-0.69,0-1.25,0.559-1.25,1.25
			c0,0.69,0.56,1.25,1.25,1.25h3.5c0.69,0,1.25-0.56,1.25-1.25C61.998,61.565,61.438,61.006,60.748,61.006z"/>
	</g>
	<g>
		<path fill="#FFE500" d="M60.748,63.506h-3.5c-0.69,0-1.25,0.559-1.25,1.25c0,0.69,0.56,1.25,1.25,1.25h3.5
			c0.69,0,1.25-0.56,1.25-1.25C61.998,64.065,61.438,63.506,60.748,63.506z"/>
		<path fill="#FFFACF" d="M57.248,64.756h3.5c0.457,0,0.841,0.258,1.059,0.625c0.111-0.187,0.191-0.392,0.191-0.625
			c0-0.69-0.56-1.25-1.25-1.25h-3.5c-0.69,0-1.25,0.559-1.25,1.25c0,0.233,0.08,0.438,0.191,0.625
			C56.407,65.014,56.791,64.756,57.248,64.756z"/>
		<path fill="none" stroke="#45413C" stroke-miterlimit="10" d="M60.748,63.506h-3.5c-0.69,0-1.25,0.559-1.25,1.25
			c0,0.69,0.56,1.25,1.25,1.25h3.5c0.69,0,1.25-0.56,1.25-1.25C61.998,64.065,61.438,63.506,60.748,63.506z"/>
	</g>
	<g>
		<path fill="#FFE500" d="M66.748,61.006h-3.5c-0.69,0-1.25,0.559-1.25,1.25c0,0.69,0.56,1.25,1.25,1.25h3.5
			c0.69,0,1.25-0.56,1.25-1.25C67.998,61.565,67.438,61.006,66.748,61.006z"/>
		<path fill="#FFFACF" d="M63.248,62.256h3.5c0.457,0,0.841,0.258,1.059,0.625c0.111-0.187,0.191-0.392,0.191-0.625
			c0-0.691-0.56-1.25-1.25-1.25h-3.5c-0.69,0-1.25,0.559-1.25,1.25c0,0.233,0.08,0.438,0.191,0.625
			C62.407,62.514,62.791,62.256,63.248,62.256z"/>
		<path fill="none" stroke="#45413C" stroke-miterlimit="10" d="M66.748,61.006h-3.5c-0.69,0-1.25,0.559-1.25,1.25
			c0,0.69,0.56,1.25,1.25,1.25h3.5c0.69,0,1.25-0.56,1.25-1.25C67.998,61.565,67.438,61.006,66.748,61.006z"/>
	</g>
	<g>
		<path fill="#FFE500" d="M69.748,58.506h-3.5c-0.69,0-1.25,0.559-1.25,1.25c0,0.69,0.56,1.25,1.25,1.25h3.5
			c0.69,0,1.25-0.56,1.25-1.25C70.998,59.065,70.438,58.506,69.748,58.506z"/>
		<path fill="#FFFACF" d="M66.248,59.756h3.5c0.457,0,0.841,0.258,1.059,0.625c0.111-0.187,0.191-0.392,0.191-0.625
			c0-0.691-0.56-1.25-1.25-1.25h-3.5c-0.69,0-1.25,0.559-1.25,1.25c0,0.233,0.08,0.438,0.191,0.625
			C65.407,60.014,65.791,59.756,66.248,59.756z"/>
		<path fill="none" stroke="#45413C" stroke-miterlimit="10" d="M69.748,58.506h-3.5c-0.69,0-1.25,0.559-1.25,1.25
			c0,0.69,0.56,1.25,1.25,1.25h3.5c0.69,0,1.25-0.56,1.25-1.25C70.998,59.065,70.438,58.506,69.748,58.506z"/>
	</g>
	<g>
		<path fill="#FFE500" d="M67.076,56.006h-3.5c-0.69,0-1.25,0.559-1.25,1.25c0,0.69,0.56,1.25,1.25,1.25h3.5
			c0.69,0,1.25-0.56,1.25-1.25C68.326,56.565,67.767,56.006,67.076,56.006z"/>
		<path fill="#FFFACF" d="M63.576,57.256h3.5c0.457,0,0.841,0.258,1.059,0.625c0.111-0.187,0.191-0.392,0.191-0.625
			c0-0.691-0.56-1.25-1.25-1.25h-3.5c-0.69,0-1.25,0.559-1.25,1.25c0,0.233,0.08,0.438,0.191,0.625
			C62.735,57.514,63.119,57.256,63.576,57.256z"/>
		<path fill="none" stroke="#45413C" stroke-miterlimit="10" d="M67.076,56.006h-3.5c-0.69,0-1.25,0.559-1.25,1.25
			c0,0.69,0.56,1.25,1.25,1.25h3.5c0.69,0,1.25-0.56,1.25-1.25C68.326,56.565,67.767,56.006,67.076,56.006z"/>
	</g>
	<g>
		<path fill="#FFE500" d="M66.748,63.506h-3.5c-0.69,0-1.25,0.559-1.25,1.25c0,0.69,0.56,1.25,1.25,1.25h3.5
			c0.69,0,1.25-0.56,1.25-1.25C67.998,64.065,67.438,63.506,66.748,63.506z"/>
		<path fill="#FFFACF" d="M63.248,64.756h3.5c0.457,0,0.841,0.258,1.059,0.625c0.111-0.187,0.191-0.392,0.191-0.625
			c0-0.69-0.56-1.25-1.25-1.25h-3.5c-0.69,0-1.25,0.559-1.25,1.25c0,0.233,0.08,0.438,0.191,0.625
			C62.407,65.014,62.791,64.756,63.248,64.756z"/>
		<path fill="none" stroke="#45413C" stroke-miterlimit="10" d="M66.748,63.506h-3.5c-0.69,0-1.25,0.559-1.25,1.25
			c0,0.69,0.56,1.25,1.25,1.25h3.5c0.69,0,1.25-0.56,1.25-1.25C67.998,64.065,67.438,63.506,66.748,63.506z"/>
	</g>
	<g>
		<path fill="#FFEC60" stroke="#45413C" stroke-linecap="round" stroke-linejoin="round" stroke-miterlimit="10" d="M79.757,46.826
			c0.206-0.894,0.905-1.592,1.799-1.799l3.61-0.833c0.136-0.031,0.232-0.153,0.232-0.292c0-0.14-0.096-0.261-0.232-0.292
			l-3.61-0.833c-0.894-0.206-1.593-0.905-1.799-1.799l-0.833-3.608c-0.032-0.136-0.153-0.232-0.292-0.232
			c-0.14,0-0.261,0.096-0.292,0.232l-0.833,3.608c-0.206,0.894-0.905,1.593-1.799,1.799L72.1,43.609
			c-0.136,0.032-0.233,0.153-0.233,0.292c0,0.14,0.096,0.261,0.233,0.292l3.608,0.833c0.894,0.206,1.592,0.905,1.799,1.799
			l0.833,3.61c0.031,0.136,0.153,0.233,0.292,0.233s0.261-0.096,0.292-0.233L79.757,46.826z"/>
	</g>
	<g>
		<path fill="#FFEC60" stroke="#45413C" stroke-linecap="round" stroke-linejoin="round" stroke-miterlimit="10" d="M18.841,57.432
			l2.825-0.942c0.108-0.036,0.181-0.138,0.181-0.252c0-0.114-0.073-0.215-0.181-0.252l-2.322-0.774
			c-0.317-0.106-0.565-0.354-0.671-0.671l-0.774-2.321c-0.036-0.108-0.137-0.181-0.252-0.181c-0.114,0-0.215,0.073-0.252,0.181
			l-0.774,2.321c-0.106,0.317-0.354,0.565-0.671,0.671l-2.323,0.774c-0.108,0.036-0.181,0.138-0.181,0.252
			c0,0.114,0.073,0.215,0.181,0.252l2.323,0.774c0.317,0.106,0.565,0.354,0.671,0.671l0.774,2.323
			c0.036,0.108,0.137,0.181,0.252,0.181c0.114,0,0.215-0.073,0.252-0.181L18.841,57.432z"/>
	</g>
</g>
</svg>
