<?xml version="1.0" encoding="utf-8"?>
<!-- Generator: Adobe Illustrator 21.0.0, SVG Export Plug-In . SVG Version: 6.00 Build 0)  -->
<svg version="1.1" id="Layer_1" xmlns="http://www.w3.org/2000/svg" xmlns:xlink="http://www.w3.org/1999/xlink" x="0px" y="0px"
	 width="96px" height="96px" viewBox="0 0 96 96" enable-background="new 0 0 96 96" xml:space="preserve">
<circle fill="#BDFBFC" cx="48.1" cy="48.256" r="40"/>
<g>
	<ellipse opacity="0.15" fill="#45413C" cx="35.673" cy="73.277" rx="14" ry="1.5"/>
	<path fill="#FFF5E3" d="M45.023,72.727L45.023,72.727c-2.43,0-4.4-1.97-4.4-4.4v-24.2c0-2.43-1.97-4.4-4.4-4.4h-15.4l0,0
		c2.43,0,4.4,1.97,4.4,4.4v24.2c0,2.43,1.97,4.4,4.4,4.4H45.023z"/>
	<path fill="#F7E5C6" stroke="#45413C" stroke-linejoin="round" stroke-miterlimit="10" d="M25.223,44.127c0-2.43-1.97-4.4-4.4-4.4
		c-2.43,0-4.4,1.97-4.4,4.4v5.05c0,0.552,0.448,1,1,1h7.8V44.127z"/>
	<path fill="#FFFFFF" d="M23.023,39.727h13.2c1.845,0,3.42,1.139,4.073,2.75h-15.4c-0.368-0.908-1.035-1.652-1.874-2.14V39.727z"/>
	<path fill="none" stroke="#45413C" stroke-linejoin="round" stroke-miterlimit="10" d="M45.023,72.727L45.023,72.727
		c-2.43,0-4.4-1.97-4.4-4.4v-24.2c0-2.43-1.97-4.4-4.4-4.4h-15.4l0,0c2.43,0,4.4,1.97,4.4,4.4v24.2c0,2.43,1.97,4.4,4.4,4.4H45.023z
		"/>
	<path fill="#FFFFFF" stroke="#45413C" stroke-linejoin="round" stroke-miterlimit="10" d="M45.023,72.727
		c2.573,0,4.63-2.207,4.38-4.832c-0.218-2.288-2.27-3.968-4.568-3.968H32.582c-0.486,0-0.675,0.608-0.288,0.903
		c1.051,0.804,1.729,2.071,1.729,3.497c0,2.43-1.97,4.4-4.4,4.4H45.023z"/>
	
		<line fill="none" stroke="#45413C" stroke-linecap="round" stroke-linejoin="round" stroke-miterlimit="10" x1="37.323" y1="46.327" x2="29.073" y2="46.327"/>
	
		<line fill="none" stroke="#45413C" stroke-linecap="round" stroke-linejoin="round" stroke-miterlimit="10" x1="37.323" y1="49.627" x2="29.073" y2="49.627"/>
	
		<line fill="none" stroke="#45413C" stroke-linecap="round" stroke-linejoin="round" stroke-miterlimit="10" x1="35.876" y1="52.927" x2="31.476" y2="52.927"/>
	
		<line fill="none" stroke="#45413C" stroke-linecap="round" stroke-linejoin="round" stroke-miterlimit="10" x1="35.876" y1="56.227" x2="32.576" y2="56.227"/>
	<polygon fill="#525252" points="50.146,50.871 45.479,46.204 49.368,40.759 55.591,46.982 	"/>
	<polygon fill="#656769" points="49.368,40.76 45.479,46.204 48.148,48.874 52.815,44.207 	"/>
	<path fill="#525252" d="M55.591,46.982l-6.222-6.223L66.96,25.242c1.26-1.114,3.17-1.056,4.36,0.134
		c1.208,1.207,1.247,3.152,0.09,4.408L55.591,46.982z"/>
	<path fill="#656769" d="M71.32,25.376c-1.189-1.19-3.1-1.248-4.36-0.134L49.368,40.76l3.451,3.451L71.471,25.56
		C71.419,25.5,71.377,25.433,71.32,25.376z"/>
	<path fill="#FFE500" d="M44.465,57.02c-0.557,0.743-1.431,1.188-2.36,1.201c-1.463,0.02-3.723,0.228-5.182,1.206
		c0.978-1.469,1.185-3.723,1.206-5.183c0.013-0.93,0.457-1.801,1.201-2.359l4.982-3.737l3.889,3.889L44.465,57.02z"/>
	<path fill="#FFF48C" d="M44.312,48.149l-4.982,3.737c-0.743,0.557-1.188,1.431-1.201,2.359c-0.021,1.459-0.228,3.713-1.206,5.183
		l9.333-9.334L44.312,48.149z"/>
	<polygon fill="#FFE500" stroke="#45413C" stroke-linejoin="round" stroke-miterlimit="10" points="48.201,52.038 44.312,48.149 
		45.479,46.204 50.146,50.871 	"/>
	<path fill="none" stroke="#45413C" stroke-linejoin="round" stroke-miterlimit="10" d="M44.465,57.02
		c-0.557,0.743-1.431,1.188-2.36,1.201c-1.463,0.02-3.723,0.228-5.182,1.206c0.978-1.469,1.185-3.723,1.206-5.183
		c0.013-0.93,0.457-1.801,1.201-2.359l4.982-3.737l3.889,3.889L44.465,57.02z"/>
	<polygon fill="none" stroke="#45413C" stroke-linejoin="round" stroke-miterlimit="10" points="50.146,50.871 45.479,46.204 
		49.368,40.759 55.591,46.982 	"/>
	
		<ellipse transform="matrix(0.7071 -0.7071 0.7071 0.7071 -26.1506 45.6064)" fill="none" stroke="#45413C" stroke-linejoin="round" stroke-miterlimit="10" cx="41.979" cy="54.371" rx="1.1" ry="1.1"/>
	
		<line fill="none" stroke="#45413C" stroke-linejoin="round" stroke-miterlimit="10" x1="41.201" y1="55.149" x2="37.312" y2="59.038"/>
	<path fill="none" stroke="#45413C" stroke-linecap="round" stroke-linejoin="round" stroke-miterlimit="10" d="M70.124,31.181
		l0.703,0.703c0.832,0.832,0.862,2.17,0.069,3.039l-6.75,7.392"/>
	<polygon fill="#FFE500" stroke="#45413C" stroke-linejoin="round" stroke-miterlimit="10" points="51.021,39.301 49.368,40.759 
		55.591,46.982 57.081,45.361 	"/>
	<path fill="none" stroke="#45413C" stroke-linejoin="round" stroke-miterlimit="10" d="M55.591,46.982l-6.222-6.223L66.96,25.242
		c1.26-1.114,3.17-1.056,4.36,0.134c1.208,1.207,1.247,3.152,0.09,4.408L55.591,46.982z"/>
</g>
</svg>
