<?xml version="1.0" encoding="utf-8"?>
<!-- Generator: Adobe Illustrator 21.0.0, SVG Export Plug-In . SVG Version: 6.00 Build 0)  -->
<svg version="1.1" id="Layer_1" xmlns="http://www.w3.org/2000/svg" xmlns:xlink="http://www.w3.org/1999/xlink" x="0px" y="0px"
	 width="96px" height="96px" viewBox="0 0 96 96" enable-background="new 0 0 96 96" xml:space="preserve">
<circle fill="#BDFBFC" cx="48" cy="48" r="40"/>
<g>
	<path fill="#E8F4FA" d="M67.771,41.051H28.229V22.875c0-1.427,1.156-2.583,2.583-2.583h34.377c1.426,0,2.582,1.156,2.582,2.582
		V41.051z"/>
	<polygon fill="#E8F4FA" points="70.737,48.466 25.264,48.466 28.229,41.051 67.771,41.051 	"/>
	<polygon fill="#FFFFFF" points="68.543,42.98 67.771,41.051 28.229,41.051 27.457,42.98 	"/>
	<polygon fill="#FF866E" points="43.569,41.051 46.723,41.051 45.908,48.466 41.644,48.466 	"/>
	<polygon fill="#FFA694" points="46.511,42.98 46.723,41.051 43.569,41.051 43.068,42.98 	"/>
	<polygon fill="#4ACFFF" points="53.027,41.051 49.872,41.051 50.687,48.466 54.952,48.466 	"/>
	<polygon fill="#80DDFF" points="53.528,42.98 53.027,41.051 49.872,41.051 50.084,42.98 	"/>
	<polygon fill="#FFF48C" points="49.872,41.051 46.723,41.051 45.908,48.466 50.687,48.466 	"/>
	<polygon fill="#FFFACF" points="50.084,42.98 49.872,41.051 46.723,41.051 46.511,42.98 	"/>
	<ellipse opacity="0.15" fill="#45413C" cx="47.333" cy="73.997" rx="20.542" ry="1.712"/>
	<path fill="#DAEDF7" d="M69.002,60.06c-0.139,0.974-0.973,1.697-1.957,1.697h-38.09c-0.984,0-1.818-0.723-1.957-1.697
		l-1.735-11.594h45.473L69.002,60.06z"/>
	<polygon fill="#C0DCEB" points="70.472,50.23 70.737,48.466 25.264,48.466 25.528,50.23 	"/>
	<path fill="none" stroke="#45413C" stroke-linejoin="round" stroke-miterlimit="10" d="M69.002,60.06
		c-0.139,0.974-0.973,1.697-1.957,1.697h-38.09c-0.984,0-1.818-0.723-1.957-1.697l-1.735-11.594h45.473L69.002,60.06z"/>
	<path fill="#525252" stroke="#45413C" stroke-linejoin="round" stroke-miterlimit="10" d="M64.325,58.485H31.675
		c-0.552,0-1-0.448-1-1v-2.594h34.649v2.594C65.325,58.037,64.877,58.485,64.325,58.485z"/>
	<path fill="#DAEDF7" d="M65.782,54.891H30.217c-0.552,0-1-0.448-1-1v-1.099c0-0.552,0.448-1,1-1h35.565c0.552,0,1,0.448,1,1v1.099
		C66.782,54.443,66.335,54.891,65.782,54.891z"/>
	<path fill="#FFFFFF" d="M65.641,51.792H30.359c-0.63,0-1.141,0.51-1.141,1.141v0.533c0,0.129,0.034,0.25,0.074,0.367
		c0.154-0.448,0.567-0.775,1.067-0.775h35.282c0.5,0,0.914,0.327,1.068,0.775c0.04-0.117,0.074-0.237,0.074-0.367v-0.533
		C66.782,52.302,66.272,51.792,65.641,51.792z"/>
	<path fill="none" stroke="#45413C" stroke-linejoin="round" stroke-miterlimit="10" d="M65.782,54.891H30.217c-0.552,0-1-0.448-1-1
		v-1.099c0-0.552,0.448-1,1-1h35.565c0.552,0,1,0.448,1,1v1.099C66.782,54.443,66.335,54.891,65.782,54.891z"/>
	<polygon fill="none" stroke="#45413C" stroke-linejoin="round" stroke-miterlimit="10" points="70.737,48.466 25.264,48.466 
		28.229,41.051 67.771,41.051 	"/>
	<path fill="#FFFFFF" d="M65.189,20.292H30.812c-1.427,0-2.583,1.156-2.583,2.583v2.282c0-1.427,1.156-2.583,2.583-2.583h34.377
		c1.426,0,2.582,1.156,2.582,2.582v-2.282C67.771,21.448,66.615,20.292,65.189,20.292z"/>
	<path fill="none" stroke="#45413C" stroke-linejoin="round" stroke-miterlimit="10" d="M67.771,41.051H28.229V22.875
		c0-1.427,1.156-2.583,2.583-2.583h34.377c1.426,0,2.582,1.156,2.582,2.582V41.051z"/>
	<circle fill="#FF6242" cx="34.16" cy="34.676" r="2.966"/>
	<path fill="#FF866E" d="M34.16,33.28c1.365,0,2.502,0.926,2.847,2.181c0.069-0.251,0.118-0.511,0.118-0.785
		c0-1.638-1.327-2.966-2.966-2.966c-1.638,0-2.966,1.327-2.966,2.966c0,0.273,0.049,0.534,0.118,0.785
		C31.659,34.206,32.796,33.28,34.16,33.28z"/>
	<circle fill="none" stroke="#45413C" stroke-linejoin="round" stroke-miterlimit="10" cx="34.16" cy="34.676" r="2.966"/>
	<circle fill="#8CA4B8" cx="61.346" cy="36.603" r="1.977"/>
	<path fill="#ADC4D9" d="M61.346,36.173c0.817,0,1.518,0.496,1.819,1.204c0.101-0.239,0.158-0.499,0.158-0.773
		c0-1.092-0.885-1.977-1.977-1.977c-1.092,0-1.977,0.885-1.977,1.977c0,0.274,0.056,0.535,0.158,0.773
		C59.827,36.669,60.529,36.173,61.346,36.173z"/>
	<circle fill="none" stroke="#45413C" stroke-linejoin="round" stroke-miterlimit="10" cx="61.346" cy="36.603" r="1.977"/>
	<path fill="#00B8F0" d="M63.538,30.61h-4.3c-0.552,0-1-0.448-1-1v-4.3c0-0.552,0.448-1,1-1h4.3c0.552,0,1,0.448,1,1v4.3
		C64.538,30.162,64.09,30.61,63.538,30.61z"/>
	<path fill="#4ACFFF" d="M63.396,24.308h-4.017c-0.63,0-1.141,0.512-1.141,1.141v4.019c0,0.292,0.118,0.553,0.3,0.754l5.614-5.614
		C63.949,24.426,63.688,24.308,63.396,24.308z"/>
	<path fill="none" stroke="#45413C" stroke-linejoin="round" stroke-miterlimit="10" d="M63.538,30.61h-4.3c-0.552,0-1-0.448-1-1
		v-4.3c0-0.552,0.448-1,1-1h4.3c0.552,0,1,0.448,1,1v4.3C64.538,30.162,64.09,30.61,63.538,30.61z"/>
	<rect x="43.569" y="20.292" fill="#FF6242" width="3.15" height="20.76"/>
	<rect x="43.569" y="20.292" fill="#FF866E" width="3.15" height="2.283"/>
	<rect x="46.723" y="20.292" fill="#FFE500" width="3.149" height="20.76"/>
	<rect x="46.723" y="20.292" fill="#FFF48C" width="3.149" height="2.283"/>
	<rect x="49.872" y="20.292" fill="#00B8F0" width="3.15" height="20.76"/>
	<rect x="49.872" y="20.292" fill="#4ACFFF" width="3.15" height="2.283"/>
	<rect x="43.569" y="20.292" fill="none" stroke="#45413C" stroke-miterlimit="10" width="3.15" height="20.76"/>
	<rect x="46.723" y="20.292" fill="none" stroke="#45413C" stroke-miterlimit="10" width="3.149" height="20.76"/>
	<rect x="49.872" y="20.292" fill="none" stroke="#45413C" stroke-miterlimit="10" width="3.15" height="20.76"/>
	<circle fill="#00B8F0" cx="48.495" cy="31.166" r="7.087"/>
	<g>
		<path fill="#4ACFFF" d="M31.432,66.755c-0.43,0-0.824-0.242-1.019-0.626c-0.194-0.384-0.156-0.845,0.099-1.192
			c2.039-2.767,2.827-6.519,2.827-10.048h28.741c0,3.529,0.788,7.281,2.827,10.048c0.256,0.347,0.294,0.808,0.1,1.192
			c-0.194,0.384-0.589,0.626-1.019,0.626H31.432z"/>
	</g>
	<path fill="#80DDFF" d="M50.988,54.891H33.34c0,3.528-0.787,7.279-2.826,10.045c-0.256,0.348-0.294,0.808-0.099,1.193
		c0.195,0.383,0.588,0.626,1.018,0.626h7.693L50.988,54.891z"/>
	<path fill="#FFFFFF" d="M30.513,64.936c-0.256,0.348-0.294,0.808-0.099,1.193c0.195,0.383,0.588,0.626,1.018,0.626h32.549
		c0.43,0,0.825-0.242,1.019-0.626c0.195-0.383,0.156-0.845-0.099-1.193c-0.705-0.956-1.251-2.035-1.677-3.178H32.19
		C31.765,62.901,31.218,63.98,30.513,64.936z"/>
	<g>
		<path fill="none" stroke="#45413C" stroke-linejoin="round" stroke-miterlimit="10" d="M31.432,66.755
			c-0.43,0-0.824-0.242-1.019-0.626c-0.194-0.384-0.156-0.845,0.099-1.192c2.039-2.767,2.827-6.519,2.827-10.048h28.741
			c0,3.529,0.788,7.281,2.827,10.048c0.256,0.347,0.294,0.808,0.1,1.192c-0.194,0.384-0.589,0.626-1.019,0.626H31.432z"/>
	</g>
	<path fill="#4ACFFF" d="M53.317,25.998c-1.267-1.181-2.953-1.919-4.822-1.919c-3.914,0-7.087,3.173-7.087,7.087
		c0,1.869,0.738,3.556,1.92,4.822L53.317,25.998z"/>
	<circle fill="none" stroke="#45413C" stroke-miterlimit="10" cx="48.495" cy="31.166" r="7.087"/>
	<polygon fill="none" stroke="#45413C" stroke-miterlimit="10" points="43.569,41.051 46.723,41.051 45.908,48.466 41.644,48.466 	
		"/>
	<polygon fill="none" stroke="#45413C" stroke-miterlimit="10" points="53.027,41.051 49.872,41.051 50.687,48.466 54.952,48.466 	
		"/>
	<polygon fill="none" stroke="#45413C" stroke-miterlimit="10" points="49.872,41.051 46.723,41.051 45.908,48.466 50.687,48.466 	
		"/>
</g>
</svg>
