<?xml version="1.0" encoding="utf-8"?>
<!-- Generator: Adobe Illustrator 21.0.0, SVG Export Plug-In . SVG Version: 6.00 Build 0)  -->
<svg version="1.1" id="Layer_1" xmlns="http://www.w3.org/2000/svg" xmlns:xlink="http://www.w3.org/1999/xlink" x="0px" y="0px"
	 width="96px" height="96px" viewBox="0 0 96 96" enable-background="new 0 0 96 96" xml:space="preserve">
<circle fill="#BDFBFC" cx="48.1" cy="49" r="40"/>
<g>
	<g>
		<path fill="#F0F0F0" d="M65.834,50.266H43.076v12.758c0,0.965-0.777,1.742-1.743,1.742h24.5c0.965,0,1.743-0.777,1.743-1.742
			V52.008C67.576,51.044,66.799,50.266,65.834,50.266z"/>
		<path fill="#BDBEC0" d="M66.303,50.338c-0.15-0.042-0.306-0.071-0.469-0.071H43.076v12.758c0,0.965-0.777,1.742-1.743,1.742h0.669
			l23.627-13.717C65.929,50.875,66.155,50.624,66.303,50.338z"/>
		<path fill="none" stroke="#45413C" stroke-linejoin="round" stroke-miterlimit="10" d="M65.834,50.266H43.076v12.758
			c0,0.965-0.777,1.742-1.743,1.742h24.5c0.965,0,1.743-0.777,1.743-1.742V52.008C67.576,51.044,66.799,50.266,65.834,50.266z"/>
		<path fill="#4AEFF7" d="M55.076,60.766v-6.5c0-0.552,0.448-1,1-1h7c0.552,0,1,0.448,1,1v6.5c0,0.552-0.448,1-1,1h-7
			C55.524,61.766,55.076,61.319,55.076,60.766z"/>
		<path fill="#00DFEB" d="M55.076,54.266v2.909l6.733-3.909h-5.733C55.524,53.266,55.076,53.714,55.076,54.266z"/>
		<path fill="none" stroke="#45413C" stroke-linejoin="round" stroke-miterlimit="10" d="M55.076,60.766v-6.5c0-0.552,0.448-1,1-1h7
			c0.552,0,1,0.448,1,1v6.5c0,0.552-0.448,1-1,1h-7C55.524,61.766,55.076,61.319,55.076,60.766z"/>
		<path fill="#00DFEB" d="M43.076,53.266v8.5h7.5c0.552,0,1-0.448,1-1v-6.5c0-0.552-0.448-1-1-1H43.076z"/>
		<path fill="#00C9D4" d="M51.576,59.208v-4.941c0-0.552-0.448-1-1-1h-7.5v8.5h4.093L51.576,59.208z"/>
		<path fill="none" stroke="#45413C" stroke-linejoin="round" stroke-miterlimit="10" d="M43.076,53.266v8.5h7.5
			c0.552,0,1-0.448,1-1v-6.5c0-0.552-0.448-1-1-1H43.076z"/>
	</g>
	<g>
		<path fill="#F0F0F0" d="M65.629,49.049c0.835-0.484,1.118-1.549,0.635-2.383l-5.524-9.529c-0.483-0.838-1.546-1.119-2.381-0.635
			l-15.282,8.855v16.76L65.629,49.049z"/>
		<path fill="#FFFFFF" d="M65.629,49.049c0.835-0.484,1.118-1.549,0.635-2.383l-5.524-9.529c-0.483-0.838-1.546-1.119-2.381-0.635
			l-0.281,0.164c0.266,0.148,0.5,0.361,0.664,0.647l6.099,10.502c0.309,0.533,0.302,1.157,0.043,1.666L65.629,49.049z"/>
		<path fill="#BDBEC0" d="M58.359,36.503l-15.282,8.855v16.76l0.783-0.454l14.635-25.222C58.449,36.463,58.403,36.477,58.359,36.503
			z"/>
		<path fill="none" stroke="#45413C" stroke-linejoin="round" stroke-miterlimit="10" d="M65.629,49.049
			c0.835-0.484,1.118-1.549,0.635-2.383l-5.524-9.529c-0.483-0.838-1.546-1.119-2.381-0.635l-15.282,8.855v16.76L65.629,49.049z"/>
		<path fill="#9CEB60" d="M54.317,50.981l-3.26-5.625c-0.277-0.478-0.114-1.09,0.364-1.367l6.056-3.509
			c0.478-0.277,1.09-0.114,1.367,0.364l3.259,5.625c0.277,0.478,0.114,1.09-0.364,1.367l-6.056,3.509
			C55.205,51.622,54.593,51.459,54.317,50.981z"/>
		<path fill="#6DD627" d="M51.056,45.356l1.132,1.953l3.291-5.671l-4.059,2.351C50.942,44.266,50.779,44.878,51.056,45.356z"/>
		<path fill="none" stroke="#45413C" stroke-linejoin="round" stroke-miterlimit="10" d="M54.317,50.981l-3.26-5.625
			c-0.277-0.478-0.114-1.09,0.364-1.367l6.056-3.509c0.478-0.277,1.09-0.114,1.367,0.364l3.259,5.625
			c0.277,0.478,0.114,1.09-0.364,1.367l-6.056,3.509C55.205,51.622,54.593,51.459,54.317,50.981z"/>
		<path fill="#6DD627" d="M46.662,46.748l-3.586,2.079v7.689l0.424,0.732c0.277,0.478,0.889,0.641,1.367,0.364l6.057-3.511
			c0.478-0.277,0.641-0.889,0.364-1.367l-3.259-5.623C47.752,46.634,47.14,46.471,46.662,46.748z"/>
		<path fill="#46B000" d="M46.891,56.438l3.274-5.641l-2.136-3.686c-0.277-0.478-0.889-0.641-1.367-0.364l-3.586,2.079v7.689
			l0.424,0.732c0.277,0.478,0.889,0.641,1.367,0.364L46.891,56.438z"/>
		<path fill="none" stroke="#45413C" stroke-linejoin="round" stroke-miterlimit="10" d="M46.662,46.748l-3.586,2.079v7.689
			l0.424,0.732c0.277,0.478,0.889,0.641,1.367,0.364l6.057-3.511c0.478-0.277,0.641-0.889,0.364-1.367l-3.259-5.623
			C47.752,46.634,47.14,46.471,46.662,46.748z"/>
	</g>
	<g>
		<path fill="#F0F0F0" d="M57.316,35.185c0.483-0.836,0.199-1.898-0.636-2.382l-9.535-5.515c-0.836-0.484-1.897-0.2-2.381,0.636
			l-1.688,2.917v28.958L57.316,35.185z"/>
		<polygon fill="#BDBEC0" points="44.576,28.249 43.076,30.841 43.076,59.799 44.576,57.207 		"/>
		<g>
			<path fill="#FFFFFF" d="M46.17,28.756l10.407,6.011c0.269,0.155,0.473,0.375,0.621,0.623l0.118-0.204
				c0.483-0.836,0.199-1.898-0.636-2.382l-9.535-5.515c-0.836-0.484-1.897-0.2-2.381,0.636l-0.584,1.01
				C44.725,28.473,45.515,28.376,46.17,28.756z"/>
			<polygon fill="#FFFFFF" points="43.076,59.711 43.076,59.799 43.746,58.641 			"/>
		</g>
		<path fill="none" stroke="#45413C" stroke-linejoin="round" stroke-miterlimit="10" d="M57.316,35.185
			c0.483-0.836,0.199-1.898-0.636-2.382l-9.535-5.515c-0.836-0.484-1.897-0.2-2.381,0.636l-1.688,2.917v28.958L57.316,35.185z"/>
		<path fill="#FFF48C" d="M43.076,36.833v2.543l5.39,3.118c0.478,0.276,1.09,0.113,1.366-0.365l3.505-6.059
			c0.277-0.478,0.113-1.09-0.365-1.366l-5.627-3.254c-0.478-0.277-1.09-0.113-1.366,0.365L43.076,36.833z"/>
		<polygon fill="#FFE500" points="44.576,34.239 43.076,36.833 43.076,39.376 44.576,40.243 		"/>
		<polygon fill="#FFE500" points="44.576,34.239 43.076,36.833 43.076,38.261 44.576,37.86 		"/>
		<path fill="#FFE500" d="M43.076,53.808l4.002-6.919c0.277-0.478,0.113-1.09-0.365-1.366l-3.637-2.104V53.808z"/>
		<polygon fill="#EBCB00" points="44.576,44.286 43.076,43.419 43.076,53.808 44.576,51.215 		"/>
		<polygon fill="#EBCB00" points="44.576,44.286 43.076,43.419 43.076,47.409 44.576,47.008 		"/>
		<path fill="none" stroke="#45413C" stroke-linejoin="round" stroke-miterlimit="10" d="M43.076,53.808l4.002-6.919
			c0.277-0.478,0.113-1.09-0.365-1.366l-3.637-2.104V53.808z"/>
		<path fill="none" stroke="#45413C" stroke-linejoin="round" stroke-miterlimit="10" d="M43.076,36.833v2.543l5.39,3.118
			c0.478,0.276,1.09,0.113,1.366-0.365l3.505-6.059c0.277-0.478,0.113-1.09-0.365-1.366l-5.627-3.254
			c-0.478-0.277-1.09-0.113-1.366,0.365L43.076,36.833z"/>
	</g>
	<g>
		<path fill="#F0F0F0" d="M43.076,63.024c0,0.965-0.777,1.742-1.743,1.742H30.319c-0.966,0-1.743-0.777-1.743-1.742V27.508
			c0-0.965,0.777-1.742,1.743-1.742h11.015c0.965,0,1.743,0.777,1.743,1.742V63.024z"/>
		<path fill="#FFFFFF" d="M41.334,25.766H30.319c-0.966,0-1.743,0.777-1.743,1.742v1.5c0-0.965,0.777-1.742,1.743-1.742h11.015
			c0.965,0,1.743,0.777,1.743,1.742v-1.5C43.076,26.544,42.299,25.766,41.334,25.766z"/>
		<path fill="none" stroke="#45413C" stroke-linejoin="round" stroke-miterlimit="10" d="M43.076,63.024
			c0,0.965-0.777,1.742-1.743,1.742H30.319c-0.966,0-1.743-0.777-1.743-1.742V27.508c0-0.965,0.777-1.742,1.743-1.742h11.015
			c0.965,0,1.743,0.777,1.743,1.742V63.024z"/>
		<path fill="#FF866E" d="M39.076,38.266h-6.5c-0.552,0-1-0.448-1-1v-7c0-0.552,0.448-1,1-1h6.5c0.552,0,1,0.448,1,1v7
			C40.076,37.819,39.629,38.266,39.076,38.266z"/>
		<path fill="none" stroke="#45413C" stroke-linejoin="round" stroke-miterlimit="10" d="M39.076,38.266h-6.5c-0.552,0-1-0.448-1-1
			v-7c0-0.552,0.448-1,1-1h6.5c0.552,0,1,0.448,1,1v7C40.076,37.819,39.629,38.266,39.076,38.266z"/>
		<path fill="#FF6242" d="M39.076,50.766h-6.5c-0.552,0-1-0.448-1-1v-7c0-0.552,0.448-1,1-1h6.5c0.552,0,1,0.448,1,1v7
			C40.076,50.319,39.629,50.766,39.076,50.766z"/>
		<path fill="none" stroke="#45413C" stroke-linejoin="round" stroke-miterlimit="10" d="M39.076,50.766h-6.5c-0.552,0-1-0.448-1-1
			v-7c0-0.552,0.448-1,1-1h6.5c0.552,0,1,0.448,1,1v7C40.076,50.319,39.629,50.766,39.076,50.766z"/>
		<circle fill="#BDBEC0" stroke="#45413C" stroke-linejoin="round" stroke-miterlimit="10" cx="35.826" cy="59.766" r="1.5"/>
	</g>
	<ellipse opacity="0.15" fill="#45413C" cx="48.076" cy="71.174" rx="20" ry="1.5"/>
</g>
</svg>
