<?xml version="1.0" encoding="utf-8"?>
<!-- Generator: Adobe Illustrator 21.0.0, SVG Export Plug-In . SVG Version: 6.00 Build 0)  -->
<svg version="1.1" id="Layer_1" xmlns="http://www.w3.org/2000/svg" xmlns:xlink="http://www.w3.org/1999/xlink" x="0px" y="0px"
	 width="96px" height="96px" viewBox="0 0 96 96" enable-background="new 0 0 96 96" xml:space="preserve">
<g>
	<circle fill="#BDFBFC" cx="48" cy="49" r="40"/>
	<path fill="#ADC4D9" d="M11.564,65.5C17.849,79.357,31.794,89,48,89c16.206,0,30.151-9.643,36.436-23.5H11.564z"/>
	<g opacity="0.5">
		<g>
			<path fill="none" stroke="#8CA4B8" stroke-linecap="round" stroke-miterlimit="10" d="M78,72.611
				c-0.629-0.867-1.722-1.444-2.973-1.444c-1.251,0-2.344,0.578-2.973,1.444"/>
			<path fill="none" stroke="#8CA4B8" stroke-linecap="round" stroke-miterlimit="10" d="M71.994,72.611
				c-0.629-0.867-1.722-1.444-2.973-1.444c-1.251,0-2.344,0.578-2.973,1.444"/>
			<path fill="none" stroke="#8CA4B8" stroke-linecap="round" stroke-miterlimit="10" d="M65.988,72.611
				c-0.629-0.867-1.722-1.444-2.973-1.444c-1.251,0-2.344,0.578-2.973,1.444"/>
			<path fill="none" stroke="#8CA4B8" stroke-linecap="round" stroke-miterlimit="10" d="M59.982,72.611
				c-0.629-0.867-1.722-1.444-2.973-1.444c-1.251,0-2.344,0.578-2.973,1.444"/>
			<path fill="none" stroke="#8CA4B8" stroke-linecap="round" stroke-miterlimit="10" d="M53.976,72.611
				c-0.629-0.867-1.722-1.444-2.973-1.444c-1.251,0-2.344,0.578-2.973,1.444"/>
			<path fill="none" stroke="#8CA4B8" stroke-linecap="round" stroke-miterlimit="10" d="M47.97,72.611
				c-0.629-0.867-1.722-1.444-2.973-1.444c-1.251,0-2.344,0.578-2.973,1.444"/>
			<path fill="none" stroke="#8CA4B8" stroke-linecap="round" stroke-miterlimit="10" d="M41.964,72.611
				c-0.629-0.867-1.722-1.444-2.973-1.444c-1.251,0-2.344,0.578-2.973,1.444"/>
			<path fill="none" stroke="#8CA4B8" stroke-linecap="round" stroke-miterlimit="10" d="M35.958,72.611
				c-0.629-0.867-1.722-1.444-2.973-1.444c-1.251,0-2.344,0.578-2.973,1.444"/>
			<path fill="none" stroke="#8CA4B8" stroke-linecap="round" stroke-miterlimit="10" d="M29.951,72.611
				c-0.629-0.867-1.722-1.444-2.973-1.444s-2.344,0.578-2.973,1.444"/>
			<path fill="none" stroke="#8CA4B8" stroke-linecap="round" stroke-miterlimit="10" d="M23.945,72.611
				c-0.629-0.867-1.722-1.444-2.973-1.444c-1.251,0-2.344,0.578-2.973,1.444"/>
		</g>
		<g>
			<path fill="none" stroke="#8CA4B8" stroke-linecap="round" stroke-miterlimit="10" d="M71.994,76.463
				c-0.629-0.867-1.722-1.444-2.973-1.444c-1.251,0-2.344,0.578-2.973,1.444"/>
			<path fill="none" stroke="#8CA4B8" stroke-linecap="round" stroke-miterlimit="10" d="M65.988,76.463
				c-0.629-0.867-1.722-1.444-2.973-1.444c-1.251,0-2.344,0.578-2.973,1.444"/>
			<path fill="none" stroke="#8CA4B8" stroke-linecap="round" stroke-miterlimit="10" d="M59.982,76.463
				c-0.629-0.867-1.722-1.444-2.973-1.444c-1.251,0-2.344,0.578-2.973,1.444"/>
			<path fill="none" stroke="#8CA4B8" stroke-linecap="round" stroke-miterlimit="10" d="M53.976,76.463
				c-0.629-0.867-1.722-1.444-2.973-1.444c-1.251,0-2.344,0.578-2.973,1.444"/>
			<path fill="none" stroke="#8CA4B8" stroke-linecap="round" stroke-miterlimit="10" d="M47.97,76.463
				c-0.629-0.867-1.722-1.444-2.973-1.444c-1.251,0-2.344,0.578-2.973,1.444"/>
			<path fill="none" stroke="#8CA4B8" stroke-linecap="round" stroke-miterlimit="10" d="M41.964,76.463
				c-0.629-0.867-1.722-1.444-2.973-1.444c-1.251,0-2.344,0.578-2.973,1.444"/>
			<path fill="none" stroke="#8CA4B8" stroke-linecap="round" stroke-miterlimit="10" d="M35.958,76.463
				c-0.629-0.867-1.722-1.444-2.973-1.444c-1.251,0-2.344,0.578-2.973,1.444"/>
			<path fill="none" stroke="#8CA4B8" stroke-linecap="round" stroke-miterlimit="10" d="M29.951,76.463
				c-0.629-0.867-1.722-1.444-2.973-1.444s-2.344,0.578-2.973,1.444"/>
		</g>
		<g>
			<path fill="none" stroke="#8CA4B8" stroke-linecap="round" stroke-miterlimit="10" d="M65.988,80.315
				c-0.629-0.867-1.722-1.444-2.973-1.444c-1.251,0-2.344,0.578-2.973,1.444"/>
			<path fill="none" stroke="#8CA4B8" stroke-linecap="round" stroke-miterlimit="10" d="M59.982,80.315
				c-0.629-0.867-1.722-1.444-2.973-1.444c-1.251,0-2.344,0.578-2.973,1.444"/>
			<path fill="none" stroke="#8CA4B8" stroke-linecap="round" stroke-miterlimit="10" d="M53.976,80.315
				c-0.629-0.867-1.722-1.444-2.973-1.444c-1.251,0-2.344,0.578-2.973,1.444"/>
			<path fill="none" stroke="#8CA4B8" stroke-linecap="round" stroke-miterlimit="10" d="M47.97,80.315
				c-0.629-0.867-1.722-1.444-2.973-1.444c-1.251,0-2.344,0.578-2.973,1.444"/>
			<path fill="none" stroke="#8CA4B8" stroke-linecap="round" stroke-miterlimit="10" d="M41.964,80.315
				c-0.629-0.867-1.722-1.444-2.973-1.444c-1.251,0-2.344,0.578-2.973,1.444"/>
			<path fill="none" stroke="#8CA4B8" stroke-linecap="round" stroke-miterlimit="10" d="M35.958,80.315
				c-0.629-0.867-1.722-1.444-2.973-1.444c-1.251,0-2.344,0.578-2.973,1.444"/>
		</g>
		<g>
			<path fill="none" stroke="#8CA4B8" stroke-linecap="round" stroke-miterlimit="10" d="M59.982,84.167
				c-0.629-0.867-1.722-1.445-2.973-1.445c-1.251,0-2.344,0.578-2.973,1.445"/>
			<path fill="none" stroke="#8CA4B8" stroke-linecap="round" stroke-miterlimit="10" d="M53.976,84.167
				c-0.629-0.867-1.722-1.445-2.973-1.445c-1.251,0-2.344,0.578-2.973,1.445"/>
			<path fill="none" stroke="#8CA4B8" stroke-linecap="round" stroke-miterlimit="10" d="M47.97,84.167
				c-0.629-0.867-1.722-1.445-2.973-1.445c-1.251,0-2.344,0.578-2.973,1.445"/>
			<path fill="none" stroke="#8CA4B8" stroke-linecap="round" stroke-miterlimit="10" d="M41.964,84.167
				c-0.629-0.867-1.722-1.445-2.973-1.445c-1.251,0-2.344,0.578-2.973,1.445"/>
		</g>
	</g>
	<path fill="#C0DCEB" d="M84.436,65.5H11.564c0.491,1.082,1.027,2.138,1.609,3.167h69.654C83.409,67.638,83.945,66.582,84.436,65.5z
		"/>
	<g>
		
			<line fill="none" stroke="#45413C" stroke-linecap="round" stroke-linejoin="round" stroke-miterlimit="10" x1="9" y1="65.5" x2="87" y2="65.5"/>
		
			<line fill="none" stroke="#45413C" stroke-linecap="round" stroke-linejoin="round" stroke-miterlimit="10" x1="4.5" y1="65.5" x2="7" y2="65.5"/>
		
			<line fill="none" stroke="#45413C" stroke-linecap="round" stroke-linejoin="round" stroke-miterlimit="10" x1="89" y1="65.5" x2="91.5" y2="65.5"/>
	</g>
</g>
<g>
	<path fill="#BDBEC0" stroke="#45413C" stroke-linecap="round" stroke-linejoin="round" stroke-miterlimit="10" d="M66.126,38.896
		l3.59,6.581c0.401,0.734,0.61,1.558,0.61,2.394v12.025l0.814,0.814c0.375,0.375,0.586,0.884,0.586,1.414v3.372h-5.6V38.896z"/>
	
		<line fill="none" stroke="#45413C" stroke-linecap="round" stroke-linejoin="round" stroke-miterlimit="10" x1="67.526" y1="57.796" x2="71.026" y2="57.796"/>
	<path fill="#BDBEC0" stroke="#45413C" stroke-linecap="round" stroke-linejoin="round" stroke-miterlimit="10" d="M29.726,38.896
		l-3.589,6.581c-0.401,0.734-0.611,1.558-0.611,2.394v12.025l-0.814,0.814c-0.375,0.375-0.586,0.884-0.586,1.414v3.372h5.6V38.896z"
		/>
	<g>
		<g>
			<path fill="#FFFFFF" d="M80.954,17.336c-0.214,0-0.417,0.044-0.605,0.117c-0.214-1.336-1.362-2.359-2.758-2.359
				c-1.396,0-2.544,1.023-2.758,2.359c-0.188-0.073-0.391-0.117-0.605-0.117c-0.929,0-1.682,0.753-1.682,1.682
				c0,0.929,0.753,1.682,1.682,1.682h6.727c0.929,0,1.682-0.753,1.682-1.682C82.635,18.089,81.882,17.336,80.954,17.336z"/>
			<path fill="#FFFFFF" d="M80.954,17.336c-0.214,0-0.417,0.044-0.605,0.117c-0.214-1.336-1.362-2.359-2.758-2.359
				c-1.396,0-2.544,1.023-2.758,2.359c-0.188-0.073-0.391-0.117-0.605-0.117c-0.929,0-1.682,0.753-1.682,1.682
				c0,0.929,0.753,1.682,1.682,1.682h6.727c0.929,0,1.682-0.753,1.682-1.682C82.635,18.089,81.882,17.336,80.954,17.336z"/>
		</g>
		<g>
			<path fill="none" stroke="#45413C" stroke-linejoin="round" stroke-miterlimit="10" d="M80.954,17.336
				c-0.214,0-0.417,0.044-0.605,0.117c-0.214-1.336-1.362-2.359-2.758-2.359c-1.396,0-2.544,1.023-2.758,2.359
				c-0.188-0.073-0.391-0.117-0.605-0.117c-0.929,0-1.682,0.753-1.682,1.682c0,0.929,0.753,1.682,1.682,1.682h6.727
				c0.929,0,1.682-0.753,1.682-1.682C82.635,18.089,81.882,17.336,80.954,17.336z"/>
			<path fill="none" stroke="#45413C" stroke-linejoin="round" stroke-miterlimit="10" d="M80.954,17.336
				c-0.214,0-0.417,0.044-0.605,0.117c-0.214-1.336-1.362-2.359-2.758-2.359c-1.396,0-2.544,1.023-2.758,2.359
				c-0.188-0.073-0.391-0.117-0.605-0.117c-0.929,0-1.682,0.753-1.682,1.682c0,0.929,0.753,1.682,1.682,1.682h6.727
				c0.929,0,1.682-0.753,1.682-1.682C82.635,18.089,81.882,17.336,80.954,17.336z"/>
		</g>
	</g>
	<polygon fill="#E0E0E0" points="54.926,12.296 54.926,29.796 40.926,29.796 40.926,12.296 28.326,12.296 28.326,57.796 
		29.026,58.496 29.026,61.296 28.326,61.996 28.326,65.496 40.926,65.496 54.926,65.496 67.526,65.496 67.526,61.296 66.826,60.596 
		66.826,58.496 67.526,57.796 67.526,12.296 	"/>
	<polygon fill="#FFFFFF" points="67.526,35.396 67.526,19.296 54.926,19.296 54.926,29.796 54.926,35.396 	"/>
	<polygon fill="#FFFFFF" points="40.926,35.396 40.926,29.796 40.926,19.296 28.326,19.296 28.326,35.396 	"/>
	<polygon fill="#FFFFFF" points="67.526,57.796 67.526,54.758 28.326,54.758 28.326,57.796 29.026,58.496 29.026,61.296 
		28.326,61.996 28.326,65.496 40.926,65.496 67.526,65.496 67.526,61.296 66.826,60.596 66.826,58.496 	"/>
	<polygon fill="#FFFFFF" points="67.526,38.196 54.926,38.196 40.926,38.196 28.326,38.196 28.326,49.009 67.526,49.009 	"/>
	<polygon fill="none" stroke="#45413C" stroke-linecap="round" stroke-linejoin="round" stroke-miterlimit="10" points="
		54.926,12.296 54.926,29.796 40.926,29.796 40.926,12.296 28.326,12.296 28.326,57.796 29.026,58.496 29.026,61.296 28.326,61.996 
		28.326,65.496 40.926,65.496 54.926,65.496 67.526,65.496 67.526,61.296 66.826,60.596 66.826,58.496 67.526,57.796 67.526,12.296 
			"/>
	
		<rect x="28.326" y="47.996" fill="#DAEDF7" stroke="#45413C" stroke-linecap="round" stroke-linejoin="round" stroke-miterlimit="10" width="39.2" height="4.2"/>
	<path fill="#DAEDF7" stroke="#45413C" stroke-linecap="round" stroke-linejoin="round" stroke-miterlimit="10" d="M68.28,29.796
		H27.572c-0.276,0-0.441,0.308-0.288,0.538l0,0c0.679,1.019,1.041,2.215,1.041,3.439v1.623h39.2v-1.62
		c0-1.225,0.362-2.423,1.042-3.442l0,0C68.721,30.104,68.556,29.796,68.28,29.796z"/>
	<path fill="#E0E0E0" stroke="#45413C" stroke-linecap="round" stroke-linejoin="round" stroke-miterlimit="10" d="M47.926,54.996
		L47.926,54.996L47.926,54.996c-2.114,0.846-3.5,2.893-3.5,5.17v5.33h7v-5.33C51.426,57.889,50.04,55.842,47.926,54.996z"/>
	<path fill="#BDBEC0" stroke="#45413C" stroke-linecap="round" stroke-linejoin="round" stroke-miterlimit="10" d="M34.626,56.396
		L34.626,56.396L34.626,56.396c-1.691,0.846-2.8,2.893-2.8,5.17v3.93h5.6v-3.93C37.426,59.289,36.317,57.242,34.626,56.396z"/>
	<path fill="#BDBEC0" stroke="#45413C" stroke-linecap="round" stroke-linejoin="round" stroke-miterlimit="10" d="M34.626,38.896
		L34.626,38.896L34.626,38.896c-1.691,0.846-2.8,2.893-2.8,5.17v3.93h5.6v-3.93C37.426,41.789,36.317,39.742,34.626,38.896z"/>
	<path fill="#BDBEC0" stroke="#45413C" stroke-linecap="round" stroke-linejoin="round" stroke-miterlimit="10" d="M61.226,38.896
		L61.226,38.896L61.226,38.896c-1.691,0.846-2.8,2.893-2.8,5.17v3.93h5.6v-3.93C64.026,41.789,62.917,39.742,61.226,38.896z"/>
	<path fill="#BDBEC0" stroke="#45413C" stroke-linecap="round" stroke-linejoin="round" stroke-miterlimit="10" d="M61.226,56.396
		L61.226,56.396L61.226,56.396c-1.691,0.846-2.8,2.893-2.8,5.17v3.93h5.6v-3.93C64.026,59.289,62.917,57.242,61.226,56.396z"/>
	
		<line fill="none" stroke="#45413C" stroke-linecap="round" stroke-linejoin="round" stroke-miterlimit="10" x1="40.926" y1="47.996" x2="40.926" y2="57.096"/>
	
		<line fill="none" stroke="#45413C" stroke-linecap="round" stroke-linejoin="round" stroke-miterlimit="10" x1="54.926" y1="47.996" x2="54.926" y2="57.096"/>
	
		<line fill="none" stroke="#45413C" stroke-linecap="round" stroke-linejoin="round" stroke-miterlimit="10" x1="40.926" y1="35.396" x2="40.926" y2="38.896"/>
	
		<line fill="none" stroke="#45413C" stroke-linecap="round" stroke-linejoin="round" stroke-miterlimit="10" x1="54.926" y1="35.396" x2="54.926" y2="38.896"/>
	<path fill="#E0E0E0" stroke="#45413C" stroke-linecap="round" stroke-linejoin="round" stroke-miterlimit="10" d="M47.926,37.496
		L47.926,37.496c-3.093,0-5.6,2.507-5.6,5.6v4.9h11.2v-4.9C53.526,40.004,51.019,37.496,47.926,37.496z"/>
	<circle fill="#00B8F0" cx="47.926" cy="43.096" r="3.5"/>
	<path fill="#4ACFFF" d="M50.433,40.66c-0.636-0.655-1.522-1.064-2.507-1.064c-1.933,0-3.5,1.567-3.5,3.5
		c0,1.597,1.076,2.929,2.537,3.349L50.433,40.66z"/>
	
		<circle fill="none" stroke="#45413C" stroke-linecap="round" stroke-linejoin="round" stroke-miterlimit="10" cx="47.926" cy="43.096" r="3.5"/>
	
		<line fill="none" stroke="#45413C" stroke-linecap="round" stroke-linejoin="round" stroke-miterlimit="10" x1="40.926" y1="59.196" x2="40.926" y2="60.596"/>
	
		<line fill="none" stroke="#45413C" stroke-linecap="round" stroke-linejoin="round" stroke-miterlimit="10" x1="54.926" y1="59.196" x2="54.926" y2="60.596"/>
	
		<line fill="none" stroke="#45413C" stroke-linecap="round" stroke-linejoin="round" stroke-miterlimit="10" x1="34.626" y1="52.196" x2="34.626" y2="47.996"/>
	
		<line fill="none" stroke="#45413C" stroke-linecap="round" stroke-linejoin="round" stroke-miterlimit="10" x1="31.126" y1="52.196" x2="31.126" y2="50.096"/>
	
		<line fill="none" stroke="#45413C" stroke-linecap="round" stroke-linejoin="round" stroke-miterlimit="10" x1="38.126" y1="52.196" x2="38.126" y2="50.096"/>
	
		<line fill="none" stroke="#45413C" stroke-linecap="round" stroke-linejoin="round" stroke-miterlimit="10" x1="47.926" y1="52.196" x2="47.926" y2="47.996"/>
	
		<line fill="none" stroke="#45413C" stroke-linecap="round" stroke-linejoin="round" stroke-miterlimit="10" x1="44.426" y1="52.196" x2="44.426" y2="50.096"/>
	
		<line fill="none" stroke="#45413C" stroke-linecap="round" stroke-linejoin="round" stroke-miterlimit="10" x1="51.426" y1="52.196" x2="51.426" y2="50.096"/>
	
		<line fill="none" stroke="#45413C" stroke-linecap="round" stroke-linejoin="round" stroke-miterlimit="10" x1="61.226" y1="52.196" x2="61.226" y2="47.996"/>
	
		<line fill="none" stroke="#45413C" stroke-linecap="round" stroke-linejoin="round" stroke-miterlimit="10" x1="57.726" y1="52.196" x2="57.726" y2="50.096"/>
	
		<line fill="none" stroke="#45413C" stroke-linecap="round" stroke-linejoin="round" stroke-miterlimit="10" x1="64.726" y1="52.196" x2="64.726" y2="50.096"/>
	<path fill="#F0F0F0" stroke="#45413C" stroke-linecap="round" stroke-linejoin="round" stroke-miterlimit="10" d="M33.825,31.096
		l-0.599-0.6l-0.599,0.6c-0.513,0.513-0.801,1.208-0.801,1.933v2.368h2.8v-2.368C34.626,32.304,34.338,31.608,33.825,31.096z"/>
	<path fill="#F0F0F0" stroke="#45413C" stroke-linecap="round" stroke-linejoin="round" stroke-miterlimit="10" d="M40.825,31.096
		l-0.599-0.6l-0.599,0.6c-0.513,0.513-0.801,1.208-0.801,1.933v2.368h2.8v-2.368C41.626,32.304,41.338,31.608,40.825,31.096z"/>
	<path fill="#F0F0F0" stroke="#45413C" stroke-linecap="round" stroke-linejoin="round" stroke-miterlimit="10" d="M47.825,31.096
		l-0.599-0.6l-0.599,0.6c-0.513,0.513-0.801,1.208-0.801,1.933v2.368h2.8v-2.368C48.626,32.304,48.338,31.608,47.825,31.096z"/>
	<path fill="#F0F0F0" stroke="#45413C" stroke-linecap="round" stroke-linejoin="round" stroke-miterlimit="10" d="M54.825,31.096
		l-0.599-0.6l-0.599,0.6c-0.513,0.513-0.801,1.208-0.801,1.933v2.368h2.8v-2.368C55.626,32.304,55.338,31.608,54.825,31.096z"/>
	<path fill="#F0F0F0" stroke="#45413C" stroke-linecap="round" stroke-linejoin="round" stroke-miterlimit="10" d="M61.825,31.096
		l-0.599-0.6l-0.599,0.6c-0.513,0.513-0.801,1.208-0.801,1.933v2.368h2.8v-2.368C62.626,32.304,62.338,31.608,61.825,31.096z"/>
	
		<line fill="none" stroke="#45413C" stroke-linecap="round" stroke-linejoin="round" stroke-miterlimit="10" x1="37.426" y1="29.796" x2="37.426" y2="31.196"/>
	
		<line fill="none" stroke="#45413C" stroke-linecap="round" stroke-linejoin="round" stroke-miterlimit="10" x1="30.426" y1="29.796" x2="30.426" y2="31.196"/>
	
		<line fill="none" stroke="#45413C" stroke-linecap="round" stroke-linejoin="round" stroke-miterlimit="10" x1="44.426" y1="29.796" x2="44.426" y2="31.196"/>
	
		<line fill="none" stroke="#45413C" stroke-linecap="round" stroke-linejoin="round" stroke-miterlimit="10" x1="51.426" y1="29.796" x2="51.426" y2="31.196"/>
	
		<line fill="none" stroke="#45413C" stroke-linecap="round" stroke-linejoin="round" stroke-miterlimit="10" x1="58.426" y1="29.796" x2="58.426" y2="31.196"/>
	
		<line fill="none" stroke="#45413C" stroke-linecap="round" stroke-linejoin="round" stroke-miterlimit="10" x1="65.426" y1="29.796" x2="65.426" y2="31.196"/>
	<rect x="46.536" y="60.596" fill="#00B8F0" width="2.8" height="4.9"/>
	<polygon fill="#4ACFFF" points="49.336,61.166 49.336,60.596 46.536,60.596 46.536,65.496 46.738,65.496 	"/>
	
		<rect x="46.536" y="60.596" fill="none" stroke="#45413C" stroke-linecap="round" stroke-linejoin="round" stroke-miterlimit="10" width="2.8" height="4.9"/>
	<path fill="#00B8F0" d="M31.826,17.896L31.826,17.896L31.826,17.896c-0.896,0.896-1.4,2.112-1.4,3.38v8.52h2.8v-8.52
		C33.226,20.008,32.722,18.793,31.826,17.896z"/>
	<path fill="#4ACFFF" d="M33.226,22.593v-1.317c0-1.268-0.504-2.484-1.4-3.38l0,0l0,0c-0.896,0.896-1.4,2.112-1.4,3.38v5.985
		L33.226,22.593z"/>
	<path fill="none" stroke="#45413C" stroke-linecap="round" stroke-linejoin="round" stroke-miterlimit="10" d="M31.826,17.896
		L31.826,17.896L31.826,17.896c-0.896,0.896-1.4,2.112-1.4,3.38v8.52h2.8v-8.52C33.226,20.008,32.722,18.793,31.826,17.896z"/>
	<path fill="#00B8F0" d="M37.426,17.896L37.426,17.896L37.426,17.896c-0.896,0.896-1.4,2.112-1.4,3.38v8.52h2.8v-8.52
		C38.826,20.008,38.322,18.793,37.426,17.896z"/>
	<path fill="#4ACFFF" d="M38.826,22.593v-1.317c0-1.268-0.503-2.484-1.4-3.38l0,0l0,0c-0.896,0.896-1.4,2.112-1.4,3.38v5.985
		L38.826,22.593z"/>
	<path fill="none" stroke="#45413C" stroke-linecap="round" stroke-linejoin="round" stroke-miterlimit="10" d="M37.426,17.896
		L37.426,17.896L37.426,17.896c-0.896,0.896-1.4,2.112-1.4,3.38v8.52h2.8v-8.52C38.826,20.008,38.322,18.793,37.426,17.896z"/>
	<path fill="#00B8F0" d="M58.426,17.896L58.426,17.896L58.426,17.896c-0.896,0.896-1.4,2.112-1.4,3.38v8.52h2.8v-8.52
		C59.826,20.008,59.322,18.793,58.426,17.896z"/>
	<path fill="#4ACFFF" d="M59.826,22.593v-1.317c0-1.268-0.503-2.484-1.4-3.38l0,0l0,0c-0.896,0.896-1.4,2.112-1.4,3.38v5.985
		L59.826,22.593z"/>
	<path fill="none" stroke="#45413C" stroke-linecap="round" stroke-linejoin="round" stroke-miterlimit="10" d="M58.426,17.896
		L58.426,17.896L58.426,17.896c-0.896,0.896-1.4,2.112-1.4,3.38v8.52h2.8v-8.52C59.826,20.008,59.322,18.793,58.426,17.896z"/>
	<path fill="#00B8F0" d="M64.026,17.896L64.026,17.896L64.026,17.896c-0.896,0.896-1.4,2.112-1.4,3.38v8.52h2.8v-8.52
		C65.426,20.008,64.922,18.793,64.026,17.896z"/>
	<path fill="#4ACFFF" d="M65.426,22.593v-1.317c0-1.268-0.503-2.484-1.4-3.38l0,0l0,0c-0.896,0.896-1.4,2.112-1.4,3.38v5.985
		L65.426,22.593z"/>
	<path fill="none" stroke="#45413C" stroke-linecap="round" stroke-linejoin="round" stroke-miterlimit="10" d="M64.026,17.896
		L64.026,17.896L64.026,17.896c-0.896,0.896-1.4,2.112-1.4,3.38v8.52h2.8v-8.52C65.426,20.008,64.922,18.793,64.026,17.896z"/>
	
		<line fill="none" stroke="#45413C" stroke-linecap="round" stroke-linejoin="round" stroke-miterlimit="10" x1="27.626" y1="15.096" x2="41.626" y2="15.096"/>
	
		<line fill="none" stroke="#45413C" stroke-linecap="round" stroke-linejoin="round" stroke-miterlimit="10" x1="27.626" y1="12.296" x2="41.626" y2="12.296"/>
	
		<line fill="none" stroke="#45413C" stroke-linecap="round" stroke-linejoin="round" stroke-miterlimit="10" x1="54.226" y1="15.096" x2="68.226" y2="15.096"/>
	
		<line fill="none" stroke="#45413C" stroke-linecap="round" stroke-linejoin="round" stroke-miterlimit="10" x1="54.226" y1="12.296" x2="68.226" y2="12.296"/>
	
		<line fill="none" stroke="#45413C" stroke-linecap="round" stroke-linejoin="round" stroke-miterlimit="10" x1="27.626" y1="35.396" x2="68.226" y2="35.396"/>
	
		<line fill="none" stroke="#45413C" stroke-linecap="round" stroke-linejoin="round" stroke-miterlimit="10" x1="24.826" y1="47.996" x2="71.026" y2="47.996"/>
	
		<line fill="none" stroke="#45413C" stroke-linecap="round" stroke-linejoin="round" stroke-miterlimit="10" x1="28.326" y1="57.796" x2="24.826" y2="57.796"/>
	
		<rect x="28.326" y="12.296" fill="#ADC4D9" stroke="#45413C" stroke-linecap="round" stroke-linejoin="round" stroke-miterlimit="10" width="12.6" height="2.8"/>
	
		<rect x="54.926" y="12.296" fill="#ADC4D9" stroke="#45413C" stroke-linecap="round" stroke-linejoin="round" stroke-miterlimit="10" width="12.6" height="2.8"/>
	
		<line fill="none" stroke="#45413C" stroke-linecap="round" stroke-linejoin="round" stroke-miterlimit="10" x1="47.926" y1="39.596" x2="47.926" y2="46.596"/>
	
		<line fill="none" stroke="#45413C" stroke-linecap="round" stroke-linejoin="round" stroke-miterlimit="10" x1="44.426" y1="43.096" x2="51.426" y2="43.096"/>
	<rect x="31.826" y="43.796" fill="#00B8F0" width="5.6" height="4.2"/>
	<polygon fill="#4ACFFF" points="31.826,43.796 31.826,47.996 33.929,47.996 36.448,43.796 	"/>
	
		<rect x="31.826" y="43.796" fill="none" stroke="#45413C" stroke-linecap="round" stroke-linejoin="round" stroke-miterlimit="10" width="5.6" height="4.2"/>
	<rect x="58.426" y="43.796" fill="#00B8F0" width="5.6" height="4.2"/>
	<polygon fill="#4ACFFF" points="58.426,43.796 58.426,47.996 60.529,47.996 63.048,43.796 	"/>
	
		<rect x="58.426" y="43.796" fill="none" stroke="#45413C" stroke-linecap="round" stroke-linejoin="round" stroke-miterlimit="10" width="5.6" height="4.2"/>
	<rect x="31.826" y="61.296" fill="#00B8F0" width="5.6" height="4.2"/>
	<polygon fill="#4ACFFF" points="31.826,61.296 31.826,65.496 33.929,65.496 36.448,61.296 	"/>
	
		<rect x="31.826" y="61.296" fill="none" stroke="#45413C" stroke-linecap="round" stroke-linejoin="round" stroke-miterlimit="10" width="5.6" height="4.2"/>
	<rect x="58.426" y="61.296" fill="#00B8F0" width="5.6" height="4.2"/>
	<polygon fill="#4ACFFF" points="58.426,61.296 58.426,65.496 60.529,65.496 63.048,61.296 	"/>
	
		<rect x="58.426" y="61.296" fill="none" stroke="#45413C" stroke-linecap="round" stroke-linejoin="round" stroke-miterlimit="10" width="5.6" height="4.2"/>
	<g>
		<path fill="#6DD627" stroke="#45413C" stroke-linecap="round" stroke-linejoin="round" stroke-miterlimit="10" d="M81.029,57.888
			c0,2.327-0.834,4.335-1.76,4.335c-0.926,0-1.76-2.008-1.76-4.335c0-2.327,1.76-8.425,1.76-8.425S81.029,55.561,81.029,57.888z"/>
		
			<line fill="none" stroke="#45413C" stroke-linecap="round" stroke-linejoin="round" stroke-miterlimit="10" x1="79.269" y1="62.223" x2="79.269" y2="65.496"/>
	</g>
	<g>
		<path fill="none" stroke="#45413C" stroke-linecap="round" stroke-linejoin="round" stroke-miterlimit="10" d="M19.204,51.609
			c0,1.511-1.225,2.735-2.735,2.735s-2.735-1.225-2.735-2.735"/>
		<path fill="#FFE500" stroke="#45413C" stroke-linecap="round" stroke-linejoin="round" stroke-miterlimit="10" d="M14.748,50.597
			h-2.029c-0.121,0-0.227-0.048-0.314-0.12c-0.01,0.052-0.02,0.105-0.013,0.159l0.2,1.491c0.033,0.248,0.245,0.434,0.496,0.434
			h1.291c0.251,0,0.462-0.186,0.496-0.434l0.2-1.491c0.007-0.054-0.003-0.106-0.013-0.159
			C14.975,50.549,14.868,50.597,14.748,50.597z"/>
		<path fill="#C0DCEB" stroke="#45413C" stroke-linecap="round" stroke-linejoin="round" stroke-miterlimit="10" d="M13.733,48.463
			c-0.835,0-1.515,0.68-1.515,1.515c0,0.441,0.219,0.619,0.5,0.619h2.029c0.281,0,0.5-0.179,0.5-0.619
			C15.248,49.143,14.568,48.463,13.733,48.463z"/>
		<path fill="#FFE500" stroke="#45413C" stroke-linecap="round" stroke-linejoin="round" stroke-miterlimit="10" d="M20.218,50.597
			h-2.029c-0.121,0-0.227-0.048-0.314-0.12c-0.01,0.052-0.02,0.105-0.013,0.159l0.2,1.491c0.033,0.248,0.245,0.434,0.496,0.434
			h1.291c0.25,0,0.462-0.186,0.496-0.434l0.2-1.491c0.007-0.054-0.003-0.106-0.013-0.159C20.446,50.549,20.339,50.597,20.218,50.597
			z"/>
		<path fill="#C0DCEB" stroke="#45413C" stroke-linecap="round" stroke-linejoin="round" stroke-miterlimit="10" d="M19.204,48.463
			c-0.835,0-1.515,0.68-1.515,1.515c0,0.441,0.219,0.619,0.5,0.619h2.029c0.281,0,0.5-0.179,0.5-0.619
			C20.718,49.143,20.039,48.463,19.204,48.463z"/>
		
			<line fill="none" stroke="#45413C" stroke-linecap="round" stroke-linejoin="round" stroke-miterlimit="10" x1="16.468" y1="54.345" x2="16.468" y2="65.5"/>
	</g>
	<ellipse opacity="0.15" fill="#45413C" cx="34.971" cy="80.111" rx="13.5" ry="1.5"/>
	<g>
		<path fill="#FF6242" stroke="#45413C" stroke-linecap="round" stroke-linejoin="round" stroke-miterlimit="10" d="M40.195,63.934
			v3.511H23.481c-0.552,0-1,0.448-1,1v8.226c0,0.493,0.36,0.913,0.847,0.988l2.388,0.369h20.203c0.552,0,1-0.448,1-1v-5.469v-2.3
			c0-0.708-0.05-1.416-0.15-2.117l-0.355-2.49c-0.14-0.986-0.985-1.718-1.98-1.718h-3.238
			C40.643,62.934,40.195,63.382,40.195,63.934z"/>
		
			<circle fill="#656769" stroke="#45413C" stroke-linecap="round" stroke-linejoin="round" stroke-miterlimit="10" cx="28" cy="78.027" r="1.833"/>
		
			<circle fill="#656769" stroke="#45413C" stroke-linecap="round" stroke-linejoin="round" stroke-miterlimit="10" cx="41.099" cy="78.027" r="1.833"/>
		
			<rect x="32.258" y="71.397" fill="#E04122" stroke="#45413C" stroke-linecap="round" stroke-linejoin="round" stroke-miterlimit="10" width="3.5" height="6.63"/>
		<rect x="24.722" y="71.397" fill="#00B8F0" width="5.515" height="3.042"/>
		<polygon fill="#4ACFFF" points="24.722,71.397 24.722,74.439 26.609,74.439 28.434,71.397 		"/>
		
			<rect x="24.722" y="71.397" fill="none" stroke="#45413C" stroke-linecap="round" stroke-linejoin="round" stroke-miterlimit="10" width="5.515" height="3.042"/>
		<rect x="37.737" y="71.397" fill="#00B8F0" width="3.5" height="3.042"/>
		<polygon fill="#4ACFFF" points="37.737,71.397 37.737,74.439 38.755,74.439 40.58,71.397 		"/>
		
			<rect x="37.737" y="71.397" fill="none" stroke="#45413C" stroke-linecap="round" stroke-linejoin="round" stroke-miterlimit="10" width="3.5" height="3.042"/>
		<rect x="43.419" y="71.397" fill="#00B8F0" width="3.5" height="3.042"/>
		<polygon fill="#4ACFFF" points="43.419,71.397 43.419,74.439 44.437,74.439 46.262,71.397 		"/>
		
			<rect x="43.419" y="71.397" fill="none" stroke="#45413C" stroke-linecap="round" stroke-linejoin="round" stroke-miterlimit="10" width="3.5" height="3.042"/>
		<path fill="#00B8F0" d="M42.356,67.517h4.453c-0.015-0.125-0.022-0.251-0.04-0.376l-0.303-2.124h-4.11V67.517z"/>
		<polygon fill="#4ACFFF" points="45.036,65.017 42.356,65.017 42.356,67.517 43.536,67.517 		"/>
		<path fill="none" stroke="#45413C" stroke-linecap="round" stroke-linejoin="round" stroke-miterlimit="10" d="M42.356,67.517
			h4.453c-0.015-0.125-0.022-0.251-0.04-0.376l-0.303-2.124h-4.11V67.517z"/>
		<path fill="none" stroke="#45413C" stroke-linecap="round" stroke-linejoin="round" stroke-miterlimit="10" d="M24.843,65.496
			h15.353v1.948H23.843v-0.948C23.843,65.944,24.291,65.496,24.843,65.496z"/>
		
			<rect x="26.633" y="65.496" fill="none" stroke="#45413C" stroke-linecap="round" stroke-linejoin="round" stroke-miterlimit="10" width="2.333" height="1.948"/>
		
			<rect x="31.174" y="65.496" fill="none" stroke="#45413C" stroke-linecap="round" stroke-linejoin="round" stroke-miterlimit="10" width="2.333" height="1.948"/>
		
			<rect x="35.758" y="65.496" fill="none" stroke="#45413C" stroke-linecap="round" stroke-linejoin="round" stroke-miterlimit="10" width="2.333" height="1.948"/>
		<rect x="32.258" y="71.397" fill="#00B8F0" width="3.5" height="3.042"/>
		<polygon fill="#4ACFFF" points="32.258,71.397 32.258,74.439 33.276,74.439 35.101,71.397 		"/>
		
			<rect x="32.258" y="71.397" fill="none" stroke="#45413C" stroke-linecap="round" stroke-linejoin="round" stroke-miterlimit="10" width="3.5" height="3.042"/>
		
			<line fill="none" stroke="#45413C" stroke-linecap="round" stroke-linejoin="round" stroke-miterlimit="10" x1="24.909" y1="69.434" x2="44.856" y2="69.434"/>
	</g>
</g>
</svg>
