<?xml version="1.0" encoding="utf-8"?>
<!-- Generator: Adobe Illustrator 21.0.0, SVG Export Plug-In . SVG Version: 6.00 Build 0)  -->
<svg version="1.1" id="Layer_1" xmlns="http://www.w3.org/2000/svg" xmlns:xlink="http://www.w3.org/1999/xlink" x="0px" y="0px"
	 width="96px" height="96px" viewBox="0 0 96 96" enable-background="new 0 0 96 96" xml:space="preserve">
<g>
	<g>
		<path fill="#CDF7AD" d="M48.028,89.01c14.798,0,27.69-8.054,34.608-20H13.42C20.338,80.956,33.23,89.01,48.028,89.01z"/>
		<path fill="#E4FFD1" d="M11.592,65.51c0.546,1.204,1.17,2.363,1.828,3.5h69.215c0.658-1.137,1.282-2.296,1.828-3.5H11.592z"/>
	</g>
	<path fill="#BDFBFC" d="M88.028,49.01c0-22.091-17.909-40-40-40s-40,17.909-40,40c0,5.885,1.281,11.468,3.564,16.5h72.872
		C86.747,60.478,88.028,54.895,88.028,49.01z"/>
	<g>
		
			<line fill="none" stroke="#45413C" stroke-linecap="round" stroke-linejoin="round" stroke-miterlimit="10" x1="9.028" y1="65.51" x2="87.028" y2="65.51"/>
		
			<line fill="none" stroke="#45413C" stroke-linecap="round" stroke-linejoin="round" stroke-miterlimit="10" x1="4.528" y1="65.51" x2="7.028" y2="65.51"/>
		
			<line fill="none" stroke="#45413C" stroke-linecap="round" stroke-linejoin="round" stroke-miterlimit="10" x1="89.028" y1="65.51" x2="91.528" y2="65.51"/>
	</g>
</g>
<g>
	<g>
		<g>
			<path fill="#FFFFFF" d="M26.788,21.45c-0.281,0-0.548,0.058-0.796,0.154c-0.281-1.757-1.792-3.104-3.628-3.104
				c-1.837,0-3.347,1.346-3.628,3.104c-0.248-0.096-0.515-0.154-0.796-0.154c-1.222,0-2.212,0.991-2.212,2.212
				c0,1.222,0.991,2.212,2.212,2.212h8.849c1.222,0,2.212-0.99,2.212-2.212C29,22.44,28.01,21.45,26.788,21.45z"/>
			<path fill="#FFFFFF" d="M26.788,21.45c-0.281,0-0.548,0.058-0.796,0.154c-0.281-1.757-1.792-3.104-3.628-3.104
				c-1.837,0-3.347,1.346-3.628,3.104c-0.248-0.096-0.515-0.154-0.796-0.154c-1.222,0-2.212,0.991-2.212,2.212
				c0,1.222,0.991,2.212,2.212,2.212h8.849c1.222,0,2.212-0.99,2.212-2.212C29,22.44,28.01,21.45,26.788,21.45z"/>
		</g>
		<g>
			<path fill="none" stroke="#45413C" stroke-linejoin="round" stroke-miterlimit="10" d="M26.788,21.45
				c-0.281,0-0.548,0.058-0.796,0.154c-0.281-1.757-1.792-3.104-3.628-3.104c-1.837,0-3.347,1.346-3.628,3.104
				c-0.248-0.096-0.515-0.154-0.796-0.154c-1.222,0-2.212,0.991-2.212,2.212c0,1.222,0.991,2.212,2.212,2.212h8.849
				c1.222,0,2.212-0.99,2.212-2.212C29,22.44,28.01,21.45,26.788,21.45z"/>
			<path fill="none" stroke="#45413C" stroke-linejoin="round" stroke-miterlimit="10" d="M26.788,21.45
				c-0.281,0-0.548,0.058-0.796,0.154c-0.281-1.757-1.792-3.104-3.628-3.104c-1.837,0-3.347,1.346-3.628,3.104
				c-0.248-0.096-0.515-0.154-0.796-0.154c-1.222,0-2.212,0.991-2.212,2.212c0,1.222,0.991,2.212,2.212,2.212h8.849
				c1.222,0,2.212-0.99,2.212-2.212C29,22.44,28.01,21.45,26.788,21.45z"/>
		</g>
	</g>
	<path fill="#FF866E" d="M61.976,34.656c0.702,0,1.185-0.704,0.933-1.359l-1.555-4.044c-0.896-2.331-2.487-4.269-4.518-5.507
		l-6.037-3.679c-0.32-0.195-0.721-0.195-1.041,0l-6.037,3.679c-2.031,1.238-3.622,3.177-4.518,5.507l-1.556,4.044
		c-0.252,0.655,0.232,1.359,0.933,1.359H61.976z"/>
	<path fill="#FF6242" d="M49.903,25.703c-4.446,0-8.421,1.787-11.103,4.597l-1.153,2.997c-0.252,0.655,0.232,1.359,0.933,1.359
		h23.396c0.702,0,1.185-0.704,0.933-1.359l-0.454-1.179C59.903,28.281,55.244,25.703,49.903,25.703z"/>
	<path fill="none" stroke="#45413C" stroke-linecap="round" stroke-linejoin="round" stroke-miterlimit="10" d="M61.976,34.656
		c0.702,0,1.185-0.704,0.933-1.359l-1.555-4.044c-0.896-2.331-2.487-4.269-4.518-5.507l-6.037-3.679
		c-0.32-0.195-0.721-0.195-1.041,0l-6.037,3.679c-2.031,1.238-3.622,3.177-4.518,5.507l-1.556,4.044
		c-0.252,0.655,0.232,1.359,0.933,1.359H61.976z"/>
	
		<rect x="38.509" y="34.656" fill="#F0F0F0" stroke="#45413C" stroke-linecap="round" stroke-linejoin="round" stroke-miterlimit="10" width="23.538" height="3.75"/>
	<path fill="#FF866E" d="M68.278,58.656L68.278,58.656c-3.154-4.882-4.846-10.696-4.846-16.655v-2.595c0-0.552-0.448-1-1-1H38.124
		c-0.552,0-1,0.448-1,1v2.595c0,5.959-1.692,11.773-4.846,16.655l0,0H68.278z"/>
	<path fill="#FF6242" d="M32.278,58.656h36c-2.644-4.092-4.244-8.843-4.698-13.781H36.976
		C36.522,49.814,34.922,54.564,32.278,58.656z"/>
	<path fill="none" stroke="#45413C" stroke-linecap="round" stroke-linejoin="round" stroke-miterlimit="10" d="M68.278,58.656
		L68.278,58.656c-3.154-4.882-4.846-10.696-4.846-16.655v-2.595c0-0.552-0.448-1-1-1H38.124c-0.552,0-1,0.448-1,1v2.595
		c0,5.959-1.692,11.773-4.846,16.655l0,0H68.278z"/>
	<rect x="35.047" y="58.656" fill="#E8F4FA" width="30.462" height="6.844"/>
	<rect x="35.047" y="61.75" fill="#FFFFFF" width="30.462" height="3.75"/>
	
		<rect x="35.047" y="58.656" fill="none" stroke="#45413C" stroke-linecap="round" stroke-linejoin="round" stroke-miterlimit="10" width="30.462" height="6.844"/>
	<rect x="40.528" y="47.5" fill="#00B8F0" width="6" height="7.5"/>
	<polygon fill="#4ACFFF" points="40.528,47.5 40.528,55 41.056,55 45.556,47.5 	"/>
	
		<rect x="40.528" y="47.5" fill="none" stroke="#45413C" stroke-linecap="round" stroke-linejoin="round" stroke-miterlimit="10" width="6" height="7.5"/>
	
		<line fill="none" stroke="#45413C" stroke-linecap="round" stroke-linejoin="round" stroke-miterlimit="10" x1="40.528" y1="51.25" x2="46.528" y2="51.25"/>
	
		<line fill="none" stroke="#45413C" stroke-linecap="round" stroke-linejoin="round" stroke-miterlimit="10" x1="43.528" y1="47.5" x2="43.528" y2="55"/>
	<path fill="#BF8256" stroke="#45413C" stroke-linecap="round" stroke-linejoin="round" stroke-miterlimit="10" d="M58.528,65.5
		h-4.5v-3c0-1.243,1.007-2.25,2.25-2.25l0,0c1.243,0,2.25,1.007,2.25,2.25V65.5z"/>
	
		<line fill="none" stroke="#45413C" stroke-linecap="round" stroke-linejoin="round" stroke-miterlimit="10" x1="41.278" y1="65.5" x2="41.278" y2="61.75"/>
	
		<line fill="none" stroke="#45413C" stroke-linecap="round" stroke-linejoin="round" stroke-miterlimit="10" x1="48.028" y1="65.5" x2="48.028" y2="61.75"/>
	<path fill="none" stroke="#45413C" stroke-linecap="round" stroke-linejoin="round" stroke-miterlimit="10" d="M46.725,25.713
		l5.214-5.214c0.391-0.391,0.391-1.024,0-1.414L40.327,7.473c-0.391-0.391-1.024-0.391-1.414,0l-3.941,3.941
		c-0.703,0.703-0.703,1.843,0,2.546l30.612,30.612c0.703,0.703,0.703,1.843,0,2.545l-3.941,3.941c-0.39,0.391-1.024,0.391-1.414,0
		L48.617,39.446c-0.39-0.39-0.39-1.024,0-1.414l5.214-5.214"/>
	<path fill="none" stroke="#45413C" stroke-linecap="round" stroke-linejoin="round" stroke-miterlimit="10" d="M46.725,32.818
		l-5.214-5.214c-0.391-0.391-1.024-0.391-1.414,0L28.485,39.216c-0.391,0.39-0.391,1.024,0,1.414l3.941,3.941
		c0.703,0.703,1.843,0.703,2.546,0l30.612-30.612c0.703-0.703,1.843-0.703,2.546,0l3.941,3.941c0.188,0.188,0.293,0.442,0.293,0.707
		c0,0.265-0.105,0.52-0.293,0.707L60.459,30.927c-0.39,0.39-1.024,0.39-1.414,0l-5.214-5.214"/>
	<path fill="#FFF5E3" stroke="#45413C" stroke-linecap="round" stroke-linejoin="round" stroke-miterlimit="10" d="M65.584,47.117
		l-1.258,1.259L51.299,35.349l2.531-2.531l11.753,11.754C66.287,45.275,66.287,46.414,65.584,47.117z"/>
	<path fill="#FFF5E3" stroke="#45413C" stroke-linecap="round" stroke-linejoin="round" stroke-miterlimit="10" d="M49.262,23.19
		l-2.531,2.531L34.977,13.968c-0.703-0.703-0.703-1.843,0-2.546l1.258-1.258L49.262,23.19z"/>
	<path fill="#FFF5E3" stroke="#45413C" stroke-linecap="round" stroke-linejoin="round" stroke-miterlimit="10" d="M32.426,44.572
		l-1.258-1.258l13.026-13.026l2.531,2.531L34.972,44.572C34.269,45.275,33.129,45.275,32.426,44.572z"/>
	<path fill="#FFF5E3" stroke="#45413C" stroke-linecap="round" stroke-linejoin="round" stroke-miterlimit="10" d="M56.362,28.244
		l-2.531-2.531l11.753-11.753c0.703-0.703,1.843-0.703,2.546,0l1.258,1.258L56.362,28.244z"/>
	<path fill="#BF8256" stroke="#45413C" stroke-linecap="round" stroke-linejoin="round" stroke-miterlimit="10" d="M52.528,30.516
		c0,0.552-0.448,1-1,1h-2.5c-0.552,0-1-0.448-1-1v-2.5c0-0.552,0.448-1,1-1h2.5c0.552,0,1,0.448,1,1V30.516z"/>
	
		<line fill="none" stroke="#45413C" stroke-linecap="round" stroke-linejoin="round" stroke-miterlimit="10" x1="54.482" y1="45.312" x2="57.872" y2="41.922"/>
	
		<line fill="none" stroke="#45413C" stroke-linecap="round" stroke-linejoin="round" stroke-miterlimit="10" x1="57.857" y1="48.687" x2="61.247" y2="45.297"/>
	
		<line fill="none" stroke="#45413C" stroke-linecap="round" stroke-linejoin="round" stroke-miterlimit="10" x1="51.107" y1="41.937" x2="54.497" y2="38.547"/>
	
		<line fill="none" stroke="#45413C" stroke-linecap="round" stroke-linejoin="round" stroke-miterlimit="10" x1="42.683" y1="16.611" x2="46.074" y2="13.219"/>
	
		<line fill="none" stroke="#45413C" stroke-linecap="round" stroke-linejoin="round" stroke-miterlimit="10" x1="46.058" y1="19.986" x2="49.449" y2="16.594"/>
	
		<line fill="none" stroke="#45413C" stroke-linecap="round" stroke-linejoin="round" stroke-miterlimit="10" x1="39.308" y1="13.236" x2="42.699" y2="9.844"/>
	
		<line fill="none" stroke="#45413C" stroke-linecap="round" stroke-linejoin="round" stroke-miterlimit="10" x1="66.324" y1="25.062" x2="62.934" y2="21.672"/>
	
		<line fill="none" stroke="#45413C" stroke-linecap="round" stroke-linejoin="round" stroke-miterlimit="10" x1="62.949" y1="28.437" x2="59.559" y2="25.047"/>
	
		<line fill="none" stroke="#45413C" stroke-linecap="round" stroke-linejoin="round" stroke-miterlimit="10" x1="69.699" y1="21.687" x2="66.309" y2="18.297"/>
	
		<line fill="none" stroke="#45413C" stroke-linecap="round" stroke-linejoin="round" stroke-miterlimit="10" x1="37.434" y1="37.047" x2="34.044" y2="33.657"/>
	
		<line fill="none" stroke="#45413C" stroke-linecap="round" stroke-linejoin="round" stroke-miterlimit="10" x1="34.059" y1="40.422" x2="30.67" y2="37.032"/>
	
		<line fill="none" stroke="#45413C" stroke-linecap="round" stroke-linejoin="round" stroke-miterlimit="10" x1="40.809" y1="33.672" x2="37.434" y2="30.297"/>
	<g>
		<path fill="#6DD627" stroke="#45413C" stroke-linecap="round" stroke-linejoin="round" stroke-miterlimit="10" d="M75.884,57.892
			c0,2.327-0.834,4.335-1.76,4.335c-0.926,0-1.76-2.008-1.76-4.335c0-2.327,1.76-8.425,1.76-8.425S75.884,55.565,75.884,57.892z"/>
		
			<line fill="none" stroke="#45413C" stroke-linecap="round" stroke-linejoin="round" stroke-miterlimit="10" x1="74.124" y1="62.227" x2="74.124" y2="65.5"/>
	</g>
	<g>
		<path fill="#6DD627" stroke="#45413C" stroke-linecap="round" stroke-linejoin="round" stroke-miterlimit="10" d="M82.384,55.392
			c0,2.327-0.834,4.335-1.76,4.335c-0.926,0-1.76-2.008-1.76-4.335c0-2.327,1.76-8.425,1.76-8.425S82.384,53.065,82.384,55.392z"/>
		
			<line fill="none" stroke="#45413C" stroke-linecap="round" stroke-linejoin="round" stroke-miterlimit="10" x1="80.624" y1="59.727" x2="80.624" y2="65.5"/>
	</g>
</g>
</svg>
