<?xml version="1.0" encoding="utf-8"?>
<!-- Generator: Adobe Illustrator 21.0.0, SVG Export Plug-In . SVG Version: 6.00 Build 0)  -->
<svg version="1.1" id="Layer_1" xmlns="http://www.w3.org/2000/svg" xmlns:xlink="http://www.w3.org/1999/xlink" x="0px" y="0px"
	 width="96px" height="96px" viewBox="0 0 96 96" enable-background="new 0 0 96 96" xml:space="preserve">
<g>
	<g>
		<path fill="#BDFBFC" d="M88.499,48c0-22.091-17.909-40-40-40s-40,17.909-40,40c0,5.885,1.282,11.468,3.564,16.5h72.872
			C87.217,59.468,88.499,53.885,88.499,48z"/>
		<path fill="#FCEFD9" d="M12.063,64.5C18.348,78.357,32.293,88,48.499,88s30.151-9.643,36.436-23.5H12.063z"/>
		<path fill="#FFF5E3" d="M83.106,68c0.659-1.137,1.282-2.296,1.829-3.5H12.063c0.546,1.204,1.17,2.363,1.829,3.5H83.106z"/>
	</g>
	<g>
		
			<line fill="none" stroke="#45413C" stroke-linecap="round" stroke-linejoin="round" stroke-miterlimit="10" x1="9.499" y1="64.5" x2="87.499" y2="64.5"/>
		
			<line fill="none" stroke="#45413C" stroke-linecap="round" stroke-linejoin="round" stroke-miterlimit="10" x1="4.999" y1="64.5" x2="7.499" y2="64.5"/>
		
			<line fill="none" stroke="#45413C" stroke-linecap="round" stroke-linejoin="round" stroke-miterlimit="10" x1="89.499" y1="64.5" x2="91.999" y2="64.5"/>
	</g>
</g>
<g>
	<g>
		<path fill="#FFFFFF" stroke="#45413C" stroke-linecap="round" stroke-linejoin="round" stroke-miterlimit="10" d="M42.999,47.714
			c0,0,1.492-2.214,5.506-2.214s5.494,2.214,5.494,2.214L53.576,52H43.422L42.999,47.714z"/>
		<path fill="#4ACFFF" d="M57.499,56.5c0-4.971-4.029-9-9-9c-4.971,0-9,4.029-9,9v1.25c0,2.544,1.416,4.764,3.5,5.914V64
			l-0.877,7.89c-0.031,0.283,0.059,0.565,0.249,0.777C42.561,72.879,42.832,73,43.116,73h10.765c0.285,0,0.556-0.121,0.745-0.333
			c0.19-0.212,0.28-0.495,0.249-0.777L53.999,64h3.5V56.5z"/>
		<g>
			<path fill="#80DDFF" d="M48.499,47.5c-4.971,0-9,4.029-9,9v1.25c0,0.193,0.009,0.385,0.025,0.574
				C39.87,53.669,43.756,50,48.499,50c4.971,0,9,4.029,9,9v-2.5C57.499,51.529,53.47,47.5,48.499,47.5z"/>
		</g>
		<path fill="none" stroke="#45413C" stroke-linecap="round" stroke-linejoin="round" stroke-miterlimit="10" d="M57.499,56.5
			c0-4.971-4.029-9-9-9c-4.971,0-9,4.029-9,9v1.25c0,2.544,1.416,4.764,3.5,5.914V64l-0.877,7.89
			c-0.031,0.283,0.059,0.565,0.249,0.777C42.561,72.879,42.832,73,43.116,73h10.765c0.285,0,0.556-0.121,0.745-0.333
			c0.19-0.212,0.28-0.495,0.249-0.777L53.999,64h3.5V56.5z"/>
		<path fill="#FFCEBF" stroke="#45413C" stroke-linecap="round" stroke-linejoin="round" stroke-miterlimit="10" d="M45.063,48.18
			c1.459,0.722,2.633,1.945,3.287,3.471L48.499,52l0.15-0.349c0.654-1.526,1.827-2.749,3.287-3.471
			c-1.059-0.438-2.219-0.68-3.436-0.68S46.122,47.742,45.063,48.18z"/>
		<path fill="none" stroke="#45413C" stroke-linecap="round" stroke-linejoin="round" stroke-miterlimit="10" d="M54.999,40h-13
			v-3.237c0-3.59,2.91-6.5,6.5-6.5l0,0c3.59,0,6.5,2.91,6.5,6.5V40z"/>
		<path fill="#FFCEBF" stroke="#45413C" stroke-linecap="round" stroke-linejoin="round" stroke-miterlimit="10" d="M53.999,65.75
			c0,0.966,0.784,1.75,1.75,1.75s1.75-0.784,1.75-1.75V64h-3.5V65.75z"/>
		<path fill="#FFCEBF" stroke="#45413C" stroke-linecap="round" stroke-linejoin="round" stroke-miterlimit="10" d="M48.506,45.5
			c2.235,0,4.106-1.477,4.746-3.501L53.256,42c1.581,0,1.677-2.5,0.25-2.5v-1c0-2.762-2.239-5-5-5c-2.761,0-5,2.238-5,5v1
			c-1.427,0-1.331,2.5,0.25,2.5l0.004-0.001C44.4,44.023,46.27,45.5,48.506,45.5z"/>
		<g>
			<path fill="#45413C" d="M46.879,39c-0.345,0-0.625,0.28-0.625,0.625s0.28,0.625,0.625,0.625s0.625-0.28,0.625-0.625
				S47.224,39,46.879,39L46.879,39z"/>
		</g>
		<g>
			<path fill="#45413C" d="M50.129,39c-0.345,0-0.625,0.28-0.625,0.625s0.28,0.625,0.625,0.625s0.625-0.28,0.625-0.625
				S50.474,39,50.129,39L50.129,39z"/>
		</g>
		<circle fill="#FFB59E" cx="45.504" cy="41" r="0.5"/>
		<circle fill="#FFB59E" cx="51.504" cy="41" r="0.5"/>
		<path fill="none" stroke="#45413C" stroke-linecap="round" stroke-linejoin="round" stroke-miterlimit="10" d="M47.256,42.546
			c0.757,0.505,1.743,0.505,2.5,0"/>
		<path fill="#FFDF3D" stroke="#45413C" stroke-linecap="round" stroke-linejoin="round" stroke-miterlimit="10" d="M45.749,36.75
			c2.193,2.127,5.974,1.776,8.25,1.006c-0.004-3.034-2.465-5.493-5.5-5.493c-3.038,0-5.5,2.462-5.5,5.5c0,0.359,0,1.737,0,1.737
			S45.749,38.812,45.749,36.75"/>
		<path fill="#FFEF9E" d="M48.499,34.687c2.22,0,4.121,1.322,4.99,3.216c0.171-0.049,0.352-0.094,0.51-0.147
			c-0.004-3.034-2.465-5.493-5.5-5.493c-3.038,0-5.5,2.462-5.5,5.5c0,0.359,0,1.737,0,1.737s0.042-0.012,0.071-0.02
			C43.421,36.78,45.704,34.687,48.499,34.687z"/>
		<path fill="none" stroke="#45413C" stroke-linecap="round" stroke-linejoin="round" stroke-miterlimit="10" d="M45.749,36.75
			c2.193,2.127,5.974,1.776,8.25,1.006c-0.004-3.034-2.465-5.493-5.5-5.493c-3.038,0-5.5,2.462-5.5,5.5c0,0.359,0,1.737,0,1.737
			S45.749,38.812,45.749,36.75"/>
		<path fill="none" stroke="#45413C" stroke-linecap="round" stroke-linejoin="round" stroke-miterlimit="10" d="M45.749,36.75
			c-0.253-0.246-0.29-0.207-0.496-0.522"/>
		<polygon fill="#656769" points="46.999,78 47.216,73 42.999,73 42.999,78 		"/>
		<polygon fill="#525252" points="47.216,73 42.999,73 42.999,74.5 47.151,74.5 		"/>
		<polygon fill="none" stroke="#45413C" stroke-linecap="round" stroke-linejoin="round" stroke-miterlimit="10" points="46.999,78 
			47.216,73 42.999,73 42.999,78 		"/>
		<path fill="#915E3A" stroke="#45413C" stroke-linecap="round" stroke-linejoin="round" stroke-miterlimit="10" d="M42.842,78.5
			h3.844c0.486,0,0.823-0.489,0.656-0.946c-0.786-2.152-4.287-1.988-5.15-0.011C41.995,77.994,42.35,78.5,42.842,78.5z"/>
		<polygon fill="#656769" points="49.999,78 49.782,73 53.999,73 53.999,78 		"/>
		<polygon fill="#525252" points="49.782,73 53.999,73 53.999,74.5 49.847,74.5 		"/>
		<polygon fill="none" stroke="#45413C" stroke-linecap="round" stroke-linejoin="round" stroke-miterlimit="10" points="49.999,78 
			49.782,73 53.999,73 53.999,78 		"/>
		<path fill="#915E3A" stroke="#45413C" stroke-linecap="round" stroke-linejoin="round" stroke-miterlimit="10" d="M54.156,78.5
			h-3.844c-0.486,0-0.823-0.489-0.656-0.946c0.786-2.152,4.287-1.988,5.15-0.011C55.003,77.994,54.648,78.5,54.156,78.5z"/>
		
			<line fill="none" stroke="#45413C" stroke-linecap="round" stroke-linejoin="round" stroke-miterlimit="10" x1="53.999" y1="64" x2="53.999" y2="56.5"/>
		<path fill="#FFCEBF" stroke="#45413C" stroke-linecap="round" stroke-linejoin="round" stroke-miterlimit="10" d="M49.749,64.5
			c0.966,0,1.75-0.784,1.75-1.75S50.715,61,49.749,61h-1.75v3.5H49.749z"/>
		<path fill="#656769" d="M54.999,42.5h-1.5v-5h1.5c0.552,0,1,0.448,1,1v3C55.999,42.052,55.551,42.5,54.999,42.5z"/>
		<path fill="#87898C" d="M54.999,37.5h-1.5V39h1.5c0.552,0,1,0.448,1,1v-1.5C55.999,37.948,55.551,37.5,54.999,37.5z"/>
		<path fill="none" stroke="#45413C" stroke-linecap="round" stroke-linejoin="round" stroke-miterlimit="10" d="M54.999,42.5h-1.5
			v-5h1.5c0.552,0,1,0.448,1,1v3C55.999,42.052,55.551,42.5,54.999,42.5z"/>
		<path fill="#656769" d="M41.999,42.5h1.5v-5h-1.5c-0.552,0-1,0.448-1,1v3C40.999,42.052,41.447,42.5,41.999,42.5z"/>
		<path fill="#87898C" d="M41.999,37.5c-0.552,0-1,0.448-1,1V40c0-0.552,0.448-1,1-1h1.5v-1.5H41.999z"/>
		<path fill="none" stroke="#45413C" stroke-linecap="round" stroke-linejoin="round" stroke-miterlimit="10" d="M41.999,42.5h1.5
			v-5h-1.5c-0.552,0-1,0.448-1,1v3C40.999,42.052,41.447,42.5,41.999,42.5z"/>
		<path fill="#00B8F0" stroke="#45413C" stroke-linecap="round" stroke-linejoin="round" stroke-miterlimit="10" d="M48.499,52
			l-1.282-0.733c-1.434-0.82-3.108-1.119-4.737-0.847c-0.146,0.024-0.294-0.033-0.387-0.149c-0.092-0.116-0.115-0.273-0.059-0.41
			l0.702-1.717c0.151-0.369,0.55-0.572,0.938-0.475c2.095,0.524,3.825,1.997,4.676,3.982L48.499,52z"/>
		<path fill="#00B8F0" stroke="#45413C" stroke-linecap="round" stroke-linejoin="round" stroke-miterlimit="10" d="M48.499,52
			l1.282-0.733c1.434-0.82,3.108-1.119,4.737-0.847c0.146,0.024,0.294-0.033,0.387-0.149c0.092-0.116,0.115-0.273,0.059-0.41
			l-0.702-1.717c-0.151-0.369-0.55-0.572-0.938-0.475c-2.095,0.524-3.825,1.997-4.676,3.982L48.499,52z"/>
		<path fill="none" stroke="#45413C" stroke-linecap="round" stroke-linejoin="round" stroke-miterlimit="10" d="M42.999,63.664
			c0.965,0.532,2.072,0.836,3.25,0.836h3.5c0.965,0,1.75-0.785,1.75-1.75c0-0.965-0.785-1.75-1.75-1.75h-3.5
			c-1.792,0-3.25-1.458-3.25-3.25V56.5"/>
	</g>
	
		<rect x="16.25" y="44.75" transform="matrix(-1.836970e-16 1 -1 -1.836970e-16 80.75 12.75)" fill="none" stroke="#45413C" stroke-linecap="round" stroke-linejoin="round" stroke-miterlimit="10" width="35.5" height="4"/>
	<polyline fill="none" stroke="#45413C" stroke-linecap="round" stroke-linejoin="round" stroke-miterlimit="10" points="36,64.5 
		32,60.5 36,56.5 32,52.5 36,48.5 32,44.5 36,40.5 32,36.5 36,32.5 32.5,29 	"/>
	<ellipse opacity="0.15" fill="#45413C" cx="48" cy="79.25" rx="20" ry="1.5"/>
	
		<rect x="37" y="23.5" fill="none" stroke="#45413C" stroke-linecap="round" stroke-linejoin="round" stroke-miterlimit="10" width="24" height="4"/>
	<polyline fill="none" stroke="#45413C" stroke-linecap="round" stroke-linejoin="round" stroke-miterlimit="10" points="37,23.5 
		41,27.5 45,23.5 49,27.5 53,23.5 57,27.5 61,23.5 	"/>
	<path fill="#FF6196" stroke="#45413C" stroke-linecap="round" stroke-linejoin="round" stroke-miterlimit="10" d="M36.5,29h-5
		c-0.599,0-1.084-0.485-1.084-1.084v-4.832c0-0.599,0.485-1.084,1.084-1.084h5c0.599,0,1.084,0.485,1.084,1.084v4.832
		C37.584,28.515,37.099,29,36.5,29z"/>
	<g>
		<path fill="#BDBEC0" d="M78,56h-7c-0.552,0-1-0.448-1-1V44c0-0.552,0.448-1,1-1h7c0.552,0,1,0.448,1,1v11
			C79,55.552,78.552,56,78,56z"/>
		<path fill="#87898C" d="M79,55c0,0.552-0.448,1-1,1h-7c-0.552,0-1-0.448-1-1v-9c0-0.552,0.448-1,1-1h7c0.552,0,1,0.448,1,1V55z"/>
		<path fill="none" stroke="#45413C" stroke-linecap="round" stroke-linejoin="round" stroke-miterlimit="10" d="M79,55
			c0,0.552-0.448,1-1,1h-7c-0.552,0-1-0.448-1-1V44c0-0.552,0.448-1,1-1h7c0.552,0,1,0.448,1,1V55z"/>
		<rect x="73.5" y="56" fill="#F0F0F0" width="2" height="6.5"/>
		<rect x="73.5" y="56" fill="#BDBEC0" width="2" height="1.5"/>
		
			<rect x="73.5" y="56" fill="none" stroke="#45413C" stroke-linecap="round" stroke-linejoin="round" stroke-miterlimit="10" width="2" height="6.5"/>
		<path fill="#BDBEC0" stroke="#45413C" stroke-linecap="round" stroke-linejoin="round" stroke-miterlimit="10" d="M76.5,62.5h-4
			c-0.552,0-1,0.448-1,1v1h6v-1C77.5,62.948,77.052,62.5,76.5,62.5z"/>
		<circle fill="#656769" cx="74.5" cy="47.5" r="2.5"/>
		<path fill="#525252" d="M74.5,46.5c1.119,0,2.067,0.736,2.385,1.75C76.96,48.013,77,47.761,77,47.5c0-1.381-1.119-2.5-2.5-2.5
			c-1.381,0-2.5,1.119-2.5,2.5c0,0.261,0.04,0.513,0.115,0.75C72.433,47.236,73.381,46.5,74.5,46.5z"/>
		
			<circle fill="none" stroke="#45413C" stroke-linecap="round" stroke-linejoin="round" stroke-miterlimit="10" cx="74.5" cy="47.5" r="2.5"/>
		
			<circle fill="#656769" stroke="#45413C" stroke-linecap="round" stroke-linejoin="round" stroke-miterlimit="10" cx="74.5" cy="53" r="1"/>
	</g>
	<g>
		<path fill="#BDBEC0" d="M27.5,56h-7c-0.552,0-1-0.448-1-1V44c0-0.552,0.448-1,1-1h7c0.552,0,1,0.448,1,1v11
			C28.5,55.552,28.052,56,27.5,56z"/>
		<path fill="#87898C" d="M28.5,55c0,0.552-0.448,1-1,1h-7c-0.552,0-1-0.448-1-1v-9c0-0.552,0.448-1,1-1h7c0.552,0,1,0.448,1,1V55z"
			/>
		<path fill="none" stroke="#45413C" stroke-linecap="round" stroke-linejoin="round" stroke-miterlimit="10" d="M28.5,55
			c0,0.552-0.448,1-1,1h-7c-0.552,0-1-0.448-1-1V44c0-0.552,0.448-1,1-1h7c0.552,0,1,0.448,1,1V55z"/>
		<rect x="23" y="56" fill="#F0F0F0" width="2" height="6.5"/>
		<rect x="23" y="56" fill="#BDBEC0" width="2" height="1.5"/>
		
			<rect x="23" y="56" fill="none" stroke="#45413C" stroke-linecap="round" stroke-linejoin="round" stroke-miterlimit="10" width="2" height="6.5"/>
		<path fill="#BDBEC0" stroke="#45413C" stroke-linecap="round" stroke-linejoin="round" stroke-miterlimit="10" d="M26,62.5h-4
			c-0.552,0-1,0.448-1,1v1h6v-1C27,62.948,26.552,62.5,26,62.5z"/>
		<circle fill="#656769" cx="24" cy="47.5" r="2.5"/>
		<path fill="#525252" d="M24,46.5c1.119,0,2.067,0.736,2.385,1.75c0.074-0.237,0.115-0.489,0.115-0.75c0-1.381-1.119-2.5-2.5-2.5
			c-1.381,0-2.5,1.119-2.5,2.5c0,0.261,0.04,0.513,0.115,0.75C21.933,47.236,22.881,46.5,24,46.5z"/>
		
			<circle fill="none" stroke="#45413C" stroke-linecap="round" stroke-linejoin="round" stroke-miterlimit="10" cx="24" cy="47.5" r="2.5"/>
		
			<circle fill="#656769" stroke="#45413C" stroke-linecap="round" stroke-linejoin="round" stroke-miterlimit="10" cx="24" cy="53" r="1"/>
	</g>
	
		<circle fill="#FFE500" stroke="#45413C" stroke-linecap="round" stroke-linejoin="round" stroke-miterlimit="10" cx="34" cy="25.5" r="1.5"/>
	<path fill="#FF6196" stroke="#45413C" stroke-linecap="round" stroke-linejoin="round" stroke-miterlimit="10" d="M66.5,29h-5
		c-0.599,0-1.084-0.485-1.084-1.084v-4.832c0-0.599,0.485-1.084,1.084-1.084h5c0.599,0,1.084,0.485,1.084,1.084v4.832
		C67.584,28.515,67.099,29,66.5,29z"/>
	
		<circle fill="#FFE500" stroke="#45413C" stroke-linecap="round" stroke-linejoin="round" stroke-miterlimit="10" cx="64" cy="25.5" r="1.5"/>
	
		<rect x="46.25" y="44.75" transform="matrix(-1.836970e-16 1 -1 -1.836970e-16 110.75 -17.25)" fill="none" stroke="#45413C" stroke-linecap="round" stroke-linejoin="round" stroke-miterlimit="10" width="35.5" height="4"/>
	<polyline fill="none" stroke="#45413C" stroke-linecap="round" stroke-linejoin="round" stroke-miterlimit="10" points="66,64.5 
		62,60.5 66,56.5 62,52.5 66,48.5 62,44.5 66,40.5 62,36.5 66,32.5 62.5,29 	"/>
	<g>
		<path fill="#EBCB00" d="M58,78.5H39V62.4c0-0.497,0.403-0.9,0.9-0.9H57.1c0.497,0,0.9,0.403,0.9,0.9V78.5z"/>
		<path fill="#FFE500" d="M58,78.5H39V65.316c0-0.451,0.366-0.816,0.817-0.816h17.367c0.451,0,0.817,0.366,0.817,0.816V78.5z"/>
		<path fill="none" stroke="#45413C" stroke-linecap="round" stroke-linejoin="round" stroke-miterlimit="10" d="M58,78.5H39V62.4
			c0-0.497,0.403-0.9,0.9-0.9H57.1c0.497,0,0.9,0.403,0.9,0.9V78.5z"/>
		<path fill="#87898C" stroke="#45413C" stroke-linecap="round" stroke-linejoin="round" stroke-miterlimit="10" d="M39,78.5h-6
			c-0.552,0-1-0.448-1-1V66.586c0-0.667,0.531-1.263,1.327-1.487L39,63.5V78.5z"/>
		<path fill="#87898C" stroke="#45413C" stroke-linecap="round" stroke-linejoin="round" stroke-miterlimit="10" d="M65,77.5
			c0,0.552-0.448,1-1,1h-6v-15l5.673,1.599C64.469,65.324,65,65.919,65,66.586V77.5z"/>
		<path fill="#C0DCEB" stroke="#45413C" stroke-linecap="round" stroke-linejoin="round" stroke-miterlimit="10" d="M56.5,59.5H42
			c-0.552,0-1,0.448-1,1v1h15.5V59.5z"/>
		<path fill="#87898C" stroke="#45413C" stroke-linecap="round" stroke-linejoin="round" stroke-miterlimit="10" d="M56.5,59.5H48
			v-1c0-0.552,0.448-1,1-1h6.5c0.552,0,1,0.448,1,1V59.5z"/>
		
			<circle fill="#656769" stroke="#45413C" stroke-linecap="round" stroke-linejoin="round" stroke-miterlimit="10" cx="35.5" cy="74.5" r="1.5"/>
		
			<circle fill="#656769" stroke="#45413C" stroke-linecap="round" stroke-linejoin="round" stroke-miterlimit="10" cx="35.5" cy="68.5" r="1.5"/>
		
			<circle fill="#656769" stroke="#45413C" stroke-linecap="round" stroke-linejoin="round" stroke-miterlimit="10" cx="61.5" cy="74.5" r="1.5"/>
		
			<circle fill="#656769" stroke="#45413C" stroke-linecap="round" stroke-linejoin="round" stroke-miterlimit="10" cx="61.5" cy="68.5" r="1.5"/>
		
			<line fill="none" stroke="#45413C" stroke-linecap="round" stroke-linejoin="round" stroke-miterlimit="10" x1="41" y1="76.5" x2="44.5" y2="76.5"/>
		
			<line fill="none" stroke="#45413C" stroke-linecap="round" stroke-linejoin="round" stroke-miterlimit="10" x1="41" y1="74.5" x2="44.5" y2="74.5"/>
		
			<line fill="none" stroke="#45413C" stroke-linecap="round" stroke-linejoin="round" stroke-miterlimit="10" x1="41" y1="72.5" x2="44.5" y2="72.5"/>
		
			<line fill="none" stroke="#45413C" stroke-linecap="round" stroke-linejoin="round" stroke-miterlimit="10" x1="41" y1="70.5" x2="44.5" y2="70.5"/>
		
			<line fill="none" stroke="#45413C" stroke-linecap="round" stroke-linejoin="round" stroke-miterlimit="10" x1="46.5" y1="76.5" x2="50.5" y2="76.5"/>
		
			<line fill="none" stroke="#45413C" stroke-linecap="round" stroke-linejoin="round" stroke-miterlimit="10" x1="46.5" y1="74.5" x2="50.5" y2="74.5"/>
		
			<line fill="none" stroke="#45413C" stroke-linecap="round" stroke-linejoin="round" stroke-miterlimit="10" x1="46.5" y1="72.5" x2="50.5" y2="72.5"/>
		
			<line fill="none" stroke="#45413C" stroke-linecap="round" stroke-linejoin="round" stroke-miterlimit="10" x1="46.5" y1="70.5" x2="50.5" y2="70.5"/>
		
			<line fill="none" stroke="#45413C" stroke-linecap="round" stroke-linejoin="round" stroke-miterlimit="10" x1="46.5" y1="68.5" x2="50.5" y2="68.5"/>
		
			<line fill="none" stroke="#45413C" stroke-linecap="round" stroke-linejoin="round" stroke-miterlimit="10" x1="46.5" y1="66.5" x2="50.5" y2="66.5"/>
		
			<line fill="none" stroke="#45413C" stroke-linecap="round" stroke-linejoin="round" stroke-miterlimit="10" x1="52.5" y1="76.5" x2="56" y2="76.5"/>
		
			<line fill="none" stroke="#45413C" stroke-linecap="round" stroke-linejoin="round" stroke-miterlimit="10" x1="52.5" y1="74.5" x2="56" y2="74.5"/>
	</g>
</g>
</svg>
