<?xml version="1.0" encoding="utf-8"?>
<!-- Generator: Adobe Illustrator 21.0.0, SVG Export Plug-In . SVG Version: 6.00 Build 0)  -->
<svg version="1.1" id="Layer_1" xmlns="http://www.w3.org/2000/svg" xmlns:xlink="http://www.w3.org/1999/xlink" x="0px" y="0px"
	 width="96px" height="96px" viewBox="0 0 96 96" enable-background="new 0 0 96 96" xml:space="preserve">
<g>
	<g>
		<path fill="#CDF7AD" d="M48.193,88c14.798,0,27.691-8.053,34.608-20H13.585C20.502,79.947,33.395,88,48.193,88z"/>
		<path fill="#E4FFD1" d="M11.757,64.5c0.546,1.204,1.17,2.363,1.828,3.5H82.8c0.658-1.137,1.282-2.296,1.828-3.5H11.757z"/>
	</g>
	<path fill="#BDFBFC" d="M88.193,48c0-22.091-17.909-40-40-40c-22.091,0-40,17.909-40,40c0,5.885,1.281,11.468,3.564,16.5h72.872
		C86.911,59.468,88.193,53.885,88.193,48z"/>
	<g>
		
			<line fill="none" stroke="#45413C" stroke-linecap="round" stroke-linejoin="round" stroke-miterlimit="10" x1="9.193" y1="64.5" x2="87.193" y2="64.5"/>
		
			<line fill="none" stroke="#45413C" stroke-linecap="round" stroke-linejoin="round" stroke-miterlimit="10" x1="4.693" y1="64.5" x2="7.193" y2="64.5"/>
		
			<line fill="none" stroke="#45413C" stroke-linecap="round" stroke-linejoin="round" stroke-miterlimit="10" x1="89.193" y1="64.5" x2="91.693" y2="64.5"/>
	</g>
</g>
<g>
	<path fill="#FFF48C" d="M30.693,64.5h-6.25V52.375c0-0.552,0.448-1,1-1h4.25c0.552,0,1,0.448,1,1V64.5z"/>
	<rect x="24.443" y="53.875" fill="#FFE500" width="6.25" height="10.625"/>
	<path fill="none" stroke="#45413C" stroke-linecap="round" stroke-linejoin="round" stroke-miterlimit="10" d="M30.693,64.5h-6.25
		V52.493c0-0.618,0.501-1.118,1.118-1.118h4.014c0.617,0,1.118,0.501,1.118,1.118V64.5z"/>
	<path fill="#FFF48C" d="M59.295,64.5H42.09V52.375c0-0.552,0.448-1,1-1h15.204c0.552,0,1,0.448,1,1V64.5z"/>
	<rect x="42.09" y="53.875" fill="#FFE500" width="17.204" height="10.625"/>
	<path fill="none" stroke="#45413C" stroke-linecap="round" stroke-linejoin="round" stroke-miterlimit="10" d="M59.295,64.5H42.09
		V52.404c0-0.568,0.461-1.029,1.029-1.029h15.147c0.568,0,1.029,0.461,1.029,1.029V64.5z"/>
	<rect x="25.693" y="35.125" fill="#FFAA54" width="3.75" height="16.25"/>
	<rect x="25.693" y="42" fill="#FFCC99" width="3.75" height="9.375"/>
	
		<rect x="25.693" y="35.125" fill="none" stroke="#45413C" stroke-linecap="round" stroke-linejoin="round" stroke-miterlimit="10" width="3.75" height="16.25"/>
	<rect x="43.193" y="35.125" fill="#FFAA54" width="15" height="16.25"/>
	<rect x="43.193" y="42" fill="#FFCC99" width="15" height="9.375"/>
	
		<rect x="43.193" y="35.125" fill="none" stroke="#45413C" stroke-linecap="round" stroke-linejoin="round" stroke-miterlimit="10" width="15" height="16.25"/>
	<path fill="#4AEFF7" d="M47.568,22.625L47.568,22.625h-11.25l0,0c-1.183,4.733-4.481,8.658-8.94,10.64l-4.185,1.86h37.5
		l-4.186-1.86C52.049,31.283,48.751,27.358,47.568,22.625z"/>
	<path fill="#00DFEB" d="M56.507,33.265c-2.513-1.117-4.637-2.866-6.242-5.015H33.62c-1.605,2.149-3.729,3.898-6.241,5.015
		l-4.186,1.86h37.5L56.507,33.265z"/>
	<path fill="none" stroke="#45413C" stroke-linecap="round" stroke-linejoin="round" stroke-miterlimit="10" d="M47.568,22.625
		L47.568,22.625h-11.25l0,0c-1.183,4.733-4.481,8.658-8.94,10.64l-4.185,1.86h37.5l-4.186-1.86
		C52.049,31.283,48.751,27.358,47.568,22.625z"/>
	<path fill="#87898C" stroke="#45413C" stroke-linecap="round" stroke-linejoin="round" stroke-miterlimit="10" d="M54.443,37.625
		h-7.5v10.75c0,0.276,0.224,0.5,0.5,0.5h6.5c0.276,0,0.5-0.224,0.5-0.5V37.625z"/>
	<path fill="#00B8F0" d="M46.943,37.625v8.75h1.875c0-1.036,0.839-1.875,1.875-1.875s1.875,0.839,1.875,1.875h1.875v-8.75H46.943z"
		/>
	<path fill="#4ACFFF" d="M50.001,44.636l4.207-7.011h-7.265v8.75h1.875C48.818,45.584,49.308,44.911,50.001,44.636z"/>
	<path fill="none" stroke="#45413C" stroke-linecap="round" stroke-linejoin="round" stroke-miterlimit="10" d="M46.943,37.625v8.75
		h1.875c0-1.036,0.839-1.875,1.875-1.875s1.875,0.839,1.875,1.875h1.875v-8.75H46.943z"/>
	<path fill="#DAEDF7" stroke="#45413C" stroke-linecap="round" stroke-linejoin="round" stroke-miterlimit="10" d="M26.943,64.5
		h-2.5v-7.125c0-0.552,0.448-1,1-1h0.5c0.552,0,1,0.448,1,1V64.5z"/>
	
		<circle fill="#DAEDF7" stroke="#45413C" stroke-linecap="round" stroke-linejoin="round" stroke-miterlimit="10" cx="25.693" cy="55.125" r="1.25"/>
	<path fill="#DAEDF7" stroke="#45413C" stroke-linecap="round" stroke-linejoin="round" stroke-miterlimit="10" d="M37.568,64.5
		h-2.5v-7.125c0-0.552,0.448-1,1-1h0.5c0.552,0,1,0.448,1,1V64.5z"/>
	
		<circle fill="#DAEDF7" stroke="#45413C" stroke-linecap="round" stroke-linejoin="round" stroke-miterlimit="10" cx="36.318" cy="55.125" r="1.25"/>
	<path fill="#DAEDF7" stroke="#45413C" stroke-linecap="round" stroke-linejoin="round" stroke-miterlimit="10" d="M58.818,64.5
		h-2.5v-7.125c0-0.552,0.448-1,1-1h0.5c0.552,0,1,0.448,1,1V64.5z"/>
	
		<circle fill="#DAEDF7" stroke="#45413C" stroke-linecap="round" stroke-linejoin="round" stroke-miterlimit="10" cx="57.568" cy="55.125" r="1.25"/>
	<path fill="#DAEDF7" stroke="#45413C" stroke-linecap="round" stroke-linejoin="round" stroke-miterlimit="10" d="M69.443,64.5
		h-2.5v-7.125c0-0.552,0.448-1,1-1h0.5c0.552,0,1,0.448,1,1V64.5z"/>
	
		<circle fill="#DAEDF7" stroke="#45413C" stroke-linecap="round" stroke-linejoin="round" stroke-miterlimit="10" cx="68.193" cy="55.125" r="1.25"/>
	
		<rect x="71.943" y="42" fill="#DAEDF7" stroke="#45413C" stroke-linecap="round" stroke-linejoin="round" stroke-miterlimit="10" width="2.5" height="22.5"/>
	<path fill="#DAEDF7" stroke="#45413C" stroke-linecap="round" stroke-linejoin="round" stroke-miterlimit="10" d="M48.193,64.5
		h-2.5v-7.125c0-0.552,0.448-1,1-1h0.5c0.552,0,1,0.448,1,1V64.5z"/>
	
		<circle fill="#DAEDF7" stroke="#45413C" stroke-linecap="round" stroke-linejoin="round" stroke-miterlimit="10" cx="46.943" cy="55.125" r="1.25"/>
	<path fill="none" stroke="#45413C" stroke-linecap="round" stroke-linejoin="round" stroke-miterlimit="10" d="M26.943,57.625
		l1.395,1.395c0.708,0.707,1.667,1.105,2.667,1.105l0,0c1,0,1.96-0.397,2.667-1.105l1.395-1.395"/>
	<path fill="none" stroke="#45413C" stroke-linecap="round" stroke-linejoin="round" stroke-miterlimit="10" d="M37.568,57.625
		l1.395,1.395c0.708,0.707,1.667,1.105,2.667,1.105l0,0c1,0,1.96-0.397,2.667-1.105l1.395-1.395"/>
	<path fill="none" stroke="#45413C" stroke-linecap="round" stroke-linejoin="round" stroke-miterlimit="10" d="M48.193,57.625
		l1.395,1.395c0.708,0.707,1.667,1.105,2.667,1.105l0,0c1,0,1.96-0.397,2.667-1.105l1.395-1.395"/>
	<path fill="none" stroke="#45413C" stroke-linecap="round" stroke-linejoin="round" stroke-miterlimit="10" d="M58.818,57.625
		l1.395,1.395c0.708,0.707,1.667,1.105,2.667,1.105l0,0c1,0,1.96-0.397,2.667-1.105l1.395-1.395"/>
	<path fill="#FFE500" stroke="#45413C" stroke-linecap="round" stroke-linejoin="round" stroke-miterlimit="10" d="M77.258,38.25
		h-7.816v-1.875l-3.932,3.37c-0.233,0.2-0.233,0.56,0,0.759l3.932,3.37V42h7.816c0.399,0,0.638-0.445,0.416-0.777l-0.732-1.098
		l0.732-1.098C77.896,38.695,77.658,38.25,77.258,38.25z"/>
	<path fill="#D9FDFF" stroke="#45413C" stroke-linecap="round" stroke-linejoin="round" stroke-miterlimit="10" d="M75.318,59.5
		h-3.375V42h4.375v16.5C76.318,59.052,75.87,59.5,75.318,59.5z"/>
	
		<rect x="36.318" y="20.125" fill="#E0E0E0" stroke="#45413C" stroke-linecap="round" stroke-linejoin="round" stroke-miterlimit="10" width="11.25" height="2.5"/>
	
		<line fill="none" stroke="#45413C" stroke-linecap="round" stroke-linejoin="round" stroke-miterlimit="10" x1="36.318" y1="22.625" x2="36.318" y2="15.75"/>
	
		<line fill="none" stroke="#45413C" stroke-linecap="round" stroke-linejoin="round" stroke-miterlimit="10" x1="47.568" y1="22.625" x2="47.568" y2="15.75"/>
	<path fill="#FF6242" stroke="#45413C" stroke-linecap="round" stroke-linejoin="round" stroke-miterlimit="10" d="M36.318,12.758
		v2.992l3.303-1.415c0.404-0.173,0.404-0.746,0-0.919l-2.606-1.117C36.685,12.157,36.318,12.399,36.318,12.758z"/>
	<path fill="#FF6242" stroke="#45413C" stroke-linecap="round" stroke-linejoin="round" stroke-miterlimit="10" d="M47.568,12.758
		v2.992l3.303-1.415c0.404-0.173,0.404-0.746,0-0.919l-2.606-1.117C47.935,12.157,47.568,12.399,47.568,12.758z"/>
	<path fill="#FFE500" stroke="#45413C" stroke-linecap="round" stroke-linejoin="round" stroke-miterlimit="10" d="M57.568,35.125
		h-3.125h-3.125h-3.125h-3.125h-3.125h-3.125h-3.125h-3.125h-3.125h-3.125h-3.125v2.812c0,0.863,0.699,1.562,1.562,1.562
		c0.863,0,1.562-0.699,1.562-1.562c0,0.863,0.699,1.562,1.562,1.562c0.863,0,1.562-0.699,1.562-1.562
		c0,0.863,0.699,1.562,1.562,1.562c0.863,0,1.562-0.699,1.562-1.562c0,0.863,0.7,1.562,1.562,1.562s1.562-0.699,1.562-1.562
		c0,0.863,0.7,1.562,1.562,1.562s1.562-0.699,1.562-1.562c0,0.863,0.7,1.562,1.562,1.562s1.562-0.699,1.562-1.562
		c0,0.863,0.7,1.562,1.562,1.562s1.562-0.699,1.562-1.562c0,0.863,0.7,1.562,1.562,1.562s1.562-0.699,1.562-1.562
		c0,0.863,0.7,1.562,1.562,1.562s1.562-0.699,1.562-1.562c0,0.863,0.7,1.562,1.562,1.562s1.562-0.699,1.562-1.562
		c0,0.863,0.7,1.562,1.562,1.562s1.562-0.699,1.562-1.562c0,0.863,0.7,1.562,1.562,1.562s1.562-0.699,1.562-1.562v-2.812H57.568z"/>
	<path fill="#FF87AF" stroke="#45413C" stroke-linecap="round" stroke-linejoin="round" stroke-miterlimit="10" d="M34.443,30.75
		l0.63-0.42c2.035-1.356,4.425-2.08,6.87-2.08l0,0c2.445,0,4.836,0.724,6.87,2.08l0.63,0.42v4.375l-0.63-0.42
		c-2.035-1.356-4.425-2.08-6.87-2.08l0,0c-2.445,0-4.836,0.724-6.87,2.08l-0.63,0.42V30.75z"/>
	<polygon fill="#FF87AF" stroke="#45413C" stroke-linecap="round" stroke-linejoin="round" stroke-miterlimit="10" points="
		49.443,32 53.193,32 51.943,33.875 53.193,36.375 49.443,36.375 	"/>
	<polygon fill="#FF87AF" stroke="#45413C" stroke-linecap="round" stroke-linejoin="round" stroke-miterlimit="10" points="
		34.443,32 30.693,32 31.943,33.875 30.693,36.375 34.443,36.375 	"/>
	
		<line fill="none" stroke="#45413C" stroke-linecap="round" stroke-linejoin="round" stroke-miterlimit="10" x1="74.443" y1="44.5" x2="76.318" y2="44.5"/>
	
		<line fill="none" stroke="#45413C" stroke-linecap="round" stroke-linejoin="round" stroke-miterlimit="10" x1="74.443" y1="47" x2="76.318" y2="47"/>
	
		<line fill="none" stroke="#45413C" stroke-linecap="round" stroke-linejoin="round" stroke-miterlimit="10" x1="74.443" y1="49.5" x2="76.318" y2="49.5"/>
	
		<line fill="none" stroke="#45413C" stroke-linecap="round" stroke-linejoin="round" stroke-miterlimit="10" x1="74.443" y1="52" x2="76.318" y2="52"/>
	
		<line fill="none" stroke="#45413C" stroke-linecap="round" stroke-linejoin="round" stroke-miterlimit="10" x1="74.443" y1="54.5" x2="76.318" y2="54.5"/>
	
		<line fill="none" stroke="#45413C" stroke-linecap="round" stroke-linejoin="round" stroke-miterlimit="10" x1="74.443" y1="57" x2="76.318" y2="57"/>
</g>
</svg>
