<?xml version="1.0" encoding="utf-8"?>
<!-- Generator: Adobe Illustrator 21.0.0, SVG Export Plug-In . SVG Version: 6.00 Build 0)  -->
<svg version="1.1" id="Layer_1" xmlns="http://www.w3.org/2000/svg" xmlns:xlink="http://www.w3.org/1999/xlink" x="0px" y="0px"
	 width="96px" height="96px" viewBox="0 0 96 96" enable-background="new 0 0 96 96" xml:space="preserve">
<g>
	<g>
		<path fill="#BDFBFC" d="M88.4,48c0-22.091-17.909-40-40-40s-40,17.909-40,40c0,5.885,1.282,11.468,3.564,16.5h72.872
			C87.118,59.468,88.4,53.885,88.4,48z"/>
		<path fill="#FCEFD9" d="M11.964,64.5C18.249,78.357,32.194,88,48.4,88s30.151-9.643,36.436-23.5H11.964z"/>
		<path fill="#FFF5E3" d="M83.007,68c0.659-1.137,1.282-2.296,1.829-3.5H11.964c0.546,1.204,1.17,2.363,1.829,3.5H83.007z"/>
	</g>
	<g>
		
			<line fill="none" stroke="#45413C" stroke-linecap="round" stroke-linejoin="round" stroke-miterlimit="10" x1="9.4" y1="64.5" x2="87.4" y2="64.5"/>
		
			<line fill="none" stroke="#45413C" stroke-linecap="round" stroke-linejoin="round" stroke-miterlimit="10" x1="4.9" y1="64.5" x2="7.4" y2="64.5"/>
		
			<line fill="none" stroke="#45413C" stroke-linecap="round" stroke-linejoin="round" stroke-miterlimit="10" x1="89.4" y1="64.5" x2="91.9" y2="64.5"/>
	</g>
</g>
<g>
	<g>
		<path fill="#009FD9" d="M58,64.5v-2.176c0-8.616-6.984-15.6-15.6-15.6c-8.616,0-15.6,6.984-15.6,15.6V64.5H58z"/>
		<path fill="#00B8F0" d="M42.4,46.724c-8.616,0-15.6,6.984-15.6,15.6V64.5h0.204c1.208-7.413,7.641-13.072,15.396-13.072
			S56.588,57.087,57.796,64.5H58v-2.176C58,53.708,51.016,46.724,42.4,46.724z"/>
		<path fill="none" stroke="#45413C" stroke-linecap="round" stroke-linejoin="round" stroke-miterlimit="10" d="M58,64.5v-2.176
			c0-8.616-6.984-15.6-15.6-15.6c-8.616,0-15.6,6.984-15.6,15.6V64.5H58z"/>
		
			<line fill="none" stroke="#45413C" stroke-linecap="round" stroke-linejoin="round" stroke-miterlimit="10" x1="32.8" y1="64.5" x2="32.8" y2="60.734"/>
		
			<line fill="none" stroke="#45413C" stroke-linecap="round" stroke-linejoin="round" stroke-miterlimit="10" x1="52" y1="64.5" x2="52" y2="60.734"/>
		<polygon fill="#FFFFFF" stroke="#45413C" stroke-linecap="round" stroke-linejoin="round" stroke-miterlimit="10" points="
			42.4,51.734 38.8,49.334 37.601,51.734 42.4,64.5 47.201,51.734 46,49.334 		"/>
		<polygon fill="#FFCEBF" points="46,49.334 42.4,51.734 38.8,49.334 38.8,43.934 46,43.934 		"/>
		<path fill="#FFB59E" d="M38.8,47.129c2.137,0.966,5.031,0.98,7.2,0v-3.195h-7.2V47.129z"/>
		<polygon fill="none" stroke="#45413C" stroke-linecap="round" stroke-linejoin="round" stroke-miterlimit="10" points="46,49.334 
			42.4,51.734 38.8,49.334 38.8,43.934 46,43.934 		"/>
		<polygon fill="#FF6242" stroke="#45413C" stroke-linecap="round" stroke-linejoin="round" stroke-miterlimit="10" points="
			42.4,51.734 39.794,61.529 42.4,64.5 44.987,61.529 		"/>
		<path fill="#009FD9" stroke="#45413C" stroke-linecap="round" stroke-linejoin="round" stroke-miterlimit="10" d="M46,46.529
			v2.805l1.199,2.4L42.4,64.5h2.4l4.8-3.166l-1.8-3.405l4.2-3.6l-1.253-3.616C50.008,48.582,48.207,46.994,46,46.529z"/>
		<polyline fill="none" stroke="#45413C" stroke-linecap="round" stroke-linejoin="round" stroke-miterlimit="10" points="
			38.623,54.453 42.4,51.734 46.182,54.44 		"/>
		<path fill="#FFCEBF" stroke="#45413C" stroke-linecap="round" stroke-linejoin="round" stroke-miterlimit="10" d="M52.6,33.329
			v-2.4c0-5.633-4.567-10.2-10.2-10.2s-10.2,4.567-10.2,10.2v2.4c-0.994,0-1.8,0.806-1.8,1.8v0.6c0,0.994,0.806,1.8,1.8,1.8
			c0.057,0,0.11-0.012,0.166-0.017c0.845,4.781,5.011,8.417,10.034,8.417c5.024,0,9.19-3.635,10.034-8.417
			c0.055,0.005,0.109,0.017,0.166,0.017c0.994,0,1.8-0.806,1.8-1.8v-0.6C54.4,34.135,53.594,33.329,52.6,33.329z"/>
		<circle fill="#FFB59E" cx="36.4" cy="37.529" r="1.2"/>
		<circle fill="#FFB59E" cx="48.4" cy="37.529" r="1.2"/>
		<path fill="none" stroke="#45413C" stroke-linecap="round" stroke-linejoin="round" stroke-miterlimit="10" d="M39.4,39.929
			c1.817,1.6,4.183,1.6,6,0"/>
		<path fill="#614B44" stroke="#45413C" stroke-linejoin="round" stroke-miterlimit="10" d="M31.664,33.465
			c-1.177-1.629-1.864-3.62-1.864-5.784c0-5.468,4.432-9.9,9.9-9.9c2.7,0,8.1-0.652,9.9,1.748c7.894,1.754,5.145,15.255,4.34,14.45
			c-0.349-0.349-0.808-0.598-1.34-0.598c-0.472,0-0.879,0.186-1.2,0.484c-1.8-2.936-3-5.936-2.689-9.78
			c0,2.701-5.915,5.04-10.908,5.04c-1.299,0-2.536-0.158-3.59-0.51C34.6,30.929,34,35.129,34,35.129
			C34,33.959,32.89,33.131,31.664,33.465z"/>
		<path fill="#947063" d="M39.7,21.381c2.7,0,8.1-0.652,9.9,1.748c3.664,0.814,5.034,4.16,5.37,7.43
			c0.38-3.915-0.292-9.901-5.37-11.03c-1.8-2.4-7.2-1.748-9.9-1.748c-5.468,0-9.9,4.432-9.9,9.9c0,0.612,0.068,1.205,0.174,1.785
			C30.827,24.866,34.853,21.381,39.7,21.381z"/>
		<path fill="none" stroke="#45413C" stroke-linejoin="round" stroke-miterlimit="10" d="M31.664,33.465
			c-1.177-1.629-1.864-3.62-1.864-5.784c0-5.468,4.432-9.9,9.9-9.9c2.7,0,8.1-0.652,9.9,1.748c7.894,1.754,5.145,15.255,4.34,14.45
			c-0.349-0.349-0.808-0.598-1.34-0.598c-0.472,0-0.879,0.186-1.2,0.484c-1.8-2.936-3-5.936-2.689-9.78
			c0,2.701-5.915,5.04-10.908,5.04c-1.299,0-2.536-0.158-3.59-0.51C34.6,30.929,34,35.129,34,35.129
			C34,33.959,32.89,33.131,31.664,33.465z"/>
		<path fill="none" stroke="#45413C" stroke-linecap="round" stroke-linejoin="round" stroke-miterlimit="10" d="M47.8,34.329
			c-0.309-0.587-0.851-1-1.5-1c-0.649,0-1.191,0.413-1.5,1"/>
		<path fill="none" stroke="#45413C" stroke-linecap="round" stroke-linejoin="round" stroke-miterlimit="10" d="M40,34.329
			c-0.309-0.587-0.851-1-1.5-1s-1.191,0.413-1.5,1"/>
		<path fill="#009FD9" stroke="#45413C" stroke-linecap="round" stroke-linejoin="round" stroke-miterlimit="10" d="M38.8,46.529
			v2.805l-1.199,2.4L42.4,64.5H40l-4.8-3.166l1.8-3.405l-4.2-3.6l1.253-3.616C34.792,48.582,36.593,46.994,38.8,46.529z"/>
	</g>
	<g>
		<ellipse opacity="0.15" fill="#45413C" cx="59.887" cy="79.629" rx="8" ry="1.5"/>
		<path fill="#6DD627" d="M72.387,61.613c0-0.891-0.722-1.613-1.613-1.613h-6.452c-0.445,0-0.806-0.361-0.806-0.806v-6.452
			c0-0.891-0.722-1.613-1.613-1.613h-4.032c-0.891,0-1.613,0.722-1.613,1.613v6.452c0,0.445-0.361,0.806-0.806,0.806H49
			c-0.891,0-1.613,0.722-1.613,1.613v4.032c0,0.891,0.722,1.613,1.613,1.613h6.452c0.445,0,0.806,0.361,0.806,0.806v6.452
			c0,0.891,0.722,1.613,1.613,1.613h4.032c0.891,0,1.613-0.722,1.613-1.613v-6.452c0-0.445,0.361-0.806,0.806-0.806h6.452
			c0.891,0,1.613-0.722,1.613-1.613V61.613z"/>
		<path fill="#9CEB60" d="M61.903,51.129h-4.032c-0.891,0-1.613,0.722-1.613,1.613v6.452c0,0.445-0.361,0.806-0.806,0.806H49
			c-0.891,0-1.613,0.722-1.613,1.613v4.032c0,0.891,0.722,1.613,1.613,1.613h3.571l10.945-10.945v-3.571
			C63.516,51.851,62.794,51.129,61.903,51.129z"/>
		<path fill="none" stroke="#45413C" stroke-linejoin="round" stroke-miterlimit="10" d="M72.387,61.613
			c0-0.891-0.722-1.613-1.613-1.613h-6.452c-0.445,0-0.806-0.361-0.806-0.806v-6.452c0-0.891-0.722-1.613-1.613-1.613h-4.032
			c-0.891,0-1.613,0.722-1.613,1.613v6.452c0,0.445-0.361,0.806-0.806,0.806H49c-0.891,0-1.613,0.722-1.613,1.613v4.032
			c0,0.891,0.722,1.613,1.613,1.613h6.452c0.445,0,0.806,0.361,0.806,0.806v6.452c0,0.891,0.722,1.613,1.613,1.613h4.032
			c0.891,0,1.613-0.722,1.613-1.613v-6.452c0-0.445,0.361-0.806,0.806-0.806h6.452c0.891,0,1.613-0.722,1.613-1.613V61.613z"/>
	</g>
</g>
</svg>
