<?xml version="1.0" encoding="utf-8"?>
<!-- Generator: Adobe Illustrator 21.0.0, SVG Export Plug-In . SVG Version: 6.00 Build 0)  -->
<svg version="1.1" id="Layer_1" xmlns="http://www.w3.org/2000/svg" xmlns:xlink="http://www.w3.org/1999/xlink" x="0px" y="0px"
	 width="96px" height="96px" viewBox="0 0 96 96" enable-background="new 0 0 96 96" xml:space="preserve">
<g>
	<g>
		<path fill="#BDFBFC" d="M87.565,48c0-22.091-17.909-40-40-40s-40,17.909-40,40c0,5.885,1.281,11.468,3.564,16.5h72.872
			C86.284,59.468,87.565,53.885,87.565,48z"/>
		<path fill="#FCEFD9" d="M11.129,64.5C17.414,78.357,31.359,88,47.565,88c16.206,0,30.151-9.643,36.436-23.5H11.129z"/>
		<path fill="#FFF5E3" d="M82.173,68c0.659-1.137,1.282-2.296,1.829-3.5H11.129c0.546,1.204,1.17,2.363,1.829,3.5H82.173z"/>
	</g>
	<g>
		
			<line fill="none" stroke="#45413C" stroke-linecap="round" stroke-linejoin="round" stroke-miterlimit="10" x1="8.565" y1="64.5" x2="86.565" y2="64.5"/>
		
			<line fill="none" stroke="#45413C" stroke-linecap="round" stroke-linejoin="round" stroke-miterlimit="10" x1="4.065" y1="64.5" x2="6.565" y2="64.5"/>
		
			<line fill="none" stroke="#45413C" stroke-linecap="round" stroke-linejoin="round" stroke-miterlimit="10" x1="88.565" y1="64.5" x2="91.065" y2="64.5"/>
	</g>
</g>
<g>
	<g>
		<g>
			<path fill="#FFAA54" d="M56.874,64.5v-2.205c0-8.616-6.984-15.6-15.6-15.6c-8.616,0-15.6,6.984-15.6,15.6V64.5H56.874z"/>
			<path fill="#FFCC99" d="M41.274,46.695c-8.616,0-15.6,6.984-15.6,15.6V64.5h0.203c1.157-7.473,7.599-13.2,15.397-13.2
				c7.797,0,14.239,5.727,15.397,13.2h0.203v-2.205C56.874,53.679,49.89,46.695,41.274,46.695z"/>
			<path fill="#FFF48C" stroke="#45413C" stroke-linecap="round" stroke-linejoin="round" stroke-miterlimit="10" d="M41.274,53.295
				c3.116,0,5.647-2.384,5.942-5.422c-1.832-0.756-3.837-1.178-5.942-1.178s-4.11,0.423-5.942,1.178
				C35.627,50.911,38.159,53.295,41.274,53.295z"/>
			<path fill="none" stroke="#45413C" stroke-linecap="round" stroke-linejoin="round" stroke-miterlimit="10" d="M56.874,64.5
				v-2.205c0-8.616-6.984-15.6-15.6-15.6c-8.616,0-15.6,6.984-15.6,15.6V64.5H56.874z"/>
			<path fill="#D18660" stroke="#45413C" stroke-linecap="round" stroke-linejoin="round" stroke-miterlimit="10" d="M44.874,46.973
				c0,1.204-0.602,2.328-1.603,2.995c-1.209,0.806-2.785,0.806-3.994,0c-1.002-0.668-1.603-1.792-1.603-2.995V41.7h7.2V46.973z"/>
			<path fill="#BD704A" d="M37.674,46.971c0.091,0.041,0.176,0.086,0.272,0.124c2.015,0.806,4.641,0.806,6.656,0
				c0.095-0.038,0.181-0.083,0.272-0.124V42.9h-7.2V46.971z"/>
			<path fill="none" stroke="#45413C" stroke-linecap="round" stroke-linejoin="round" stroke-miterlimit="10" d="M44.874,46.973
				c0,1.204-0.602,2.328-1.603,2.995c-1.209,0.806-2.785,0.806-3.994,0c-1.002-0.668-1.603-1.792-1.603-2.995V41.7h7.2V46.973z"/>
			<path fill="#D18660" stroke="#45413C" stroke-linecap="round" stroke-linejoin="round" stroke-miterlimit="10" d="M51.474,33.3
				v-2.4c0-5.633-4.567-10.2-10.2-10.2s-10.2,4.567-10.2,10.2v2.4c-0.994,0-1.8,0.806-1.8,1.8v0.6c0,0.994,0.806,1.8,1.8,1.8
				c0.057,0,0.11-0.012,0.166-0.017c0.845,4.781,5.01,8.417,10.034,8.417c5.024,0,9.19-3.635,10.034-8.417
				c0.055,0.005,0.109,0.017,0.166,0.017c0.994,0,1.8-0.806,1.8-1.8v-0.6C53.274,34.106,52.468,33.3,51.474,33.3z"/>
			<circle fill="#BD704A" cx="35.274" cy="37.5" r="1.2"/>
			<circle fill="#BD704A" cx="47.274" cy="37.5" r="1.2"/>
			<path fill="none" stroke="#45413C" stroke-linecap="round" stroke-linejoin="round" stroke-miterlimit="10" d="M38.274,39.9
				c1.817,1.6,4.183,1.6,6,0"/>
			<path fill="none" stroke="#45413C" stroke-linecap="round" stroke-linejoin="round" stroke-miterlimit="10" d="M46.674,34.3
				c-0.309-0.587-0.851-1-1.5-1c-0.649,0-1.191,0.413-1.5,1"/>
			<path fill="none" stroke="#45413C" stroke-linecap="round" stroke-linejoin="round" stroke-miterlimit="10" d="M38.874,34.3
				c-0.309-0.587-0.851-1-1.5-1c-0.649,0-1.191,0.413-1.5,1"/>
			<path fill="#724F3D" d="M53.205,30.5c-0.185-0.523-0.694-0.815-1.222-0.775c-0.022-0.026-0.042-0.056-0.065-0.081
				c0.562-0.144,1.045-0.556,1.253-1.144c0.331-0.937-0.16-1.965-1.098-2.297c-0.393-0.139-0.799-0.126-1.166-0.003l-0.096-0.288
				c0.581-0.438,0.963-1.128,0.963-1.912c0-1.326-1.075-2.4-2.4-2.4c-0.509,0-0.98,0.161-1.368,0.432L47.874,21.9L47.8,21.863
				c0.044-0.181,0.073-0.368,0.073-0.563c0-1.325-1.075-2.4-2.4-2.4c-0.74,0-1.393,0.342-1.833,0.868
				c-0.163-1.167-1.155-2.068-2.367-2.068c-1.212,0-2.204,0.901-2.367,2.068c-0.44-0.527-1.094-0.868-1.833-0.868
				c-1.325,0-2.4,1.075-2.4,2.4c0,0.195,0.03,0.382,0.073,0.563L34.674,21.9l-0.132,0.132c-0.389-0.271-0.859-0.432-1.368-0.432
				c-1.325,0-2.4,1.074-2.4,2.4c0,0.784,0.381,1.473,0.963,1.912l-0.096,0.288c-0.367-0.123-0.773-0.135-1.166,0.003
				c-0.938,0.331-1.429,1.359-1.098,2.297c0.208,0.589,0.691,1.001,1.253,1.144c-0.019,0.021-0.035,0.045-0.053,0.066
				c-0.165-0.015-0.335,0-0.502,0.059c-0.625,0.221-0.952,0.906-0.732,1.531c0.111,0.313,0.337,0.551,0.614,0.683
				c0.391,1.325,2.317,1.5,2.317,3.118c0-8.426,3.925-10.178,6.6-8.951c1.2,0.551,3.6,0.551,4.8-0.049c2.244-1.122,6.6,0.175,6.6,9
				c0-1.628,1.945-1.796,2.321-3.142C53.131,31.693,53.409,31.078,53.205,30.5z"/>
			<path fill="#A86C4D" d="M41.274,22.5c4.03,0,7.632,1.111,10.054,2.858C51.6,24.972,51.774,24.51,51.774,24
				c0-1.326-1.075-2.4-2.4-2.4c-0.509,0-0.98,0.161-1.368,0.432L47.874,21.9L47.8,21.863c0.044-0.181,0.074-0.368,0.074-0.563
				c0-1.325-1.075-2.4-2.4-2.4c-0.74,0-1.393,0.342-1.833,0.868c-0.163-1.167-1.155-2.068-2.367-2.068
				c-1.212,0-2.204,0.901-2.367,2.068c-0.44-0.527-1.094-0.868-1.833-0.868c-1.325,0-2.4,1.075-2.4,2.4
				c0,0.195,0.03,0.382,0.073,0.563L34.674,21.9l-0.132,0.132c-0.389-0.271-0.859-0.432-1.368-0.432c-1.325,0-2.4,1.074-2.4,2.4
				c0,0.51,0.173,0.972,0.446,1.358C33.641,23.611,37.244,22.5,41.274,22.5z"/>
			<path fill="none" stroke="#45413C" stroke-linejoin="round" stroke-miterlimit="10" d="M53.205,30.5
				c-0.185-0.523-0.694-0.815-1.222-0.775c-0.022-0.026-0.042-0.056-0.065-0.081c0.562-0.144,1.045-0.556,1.253-1.144
				c0.331-0.937-0.16-1.965-1.098-2.297c-0.393-0.139-0.799-0.126-1.166-0.003l-0.096-0.288c0.581-0.438,0.963-1.128,0.963-1.912
				c0-1.326-1.075-2.4-2.4-2.4c-0.509,0-0.98,0.161-1.368,0.432L47.874,21.9L47.8,21.863c0.044-0.181,0.073-0.368,0.073-0.563
				c0-1.325-1.075-2.4-2.4-2.4c-0.74,0-1.393,0.342-1.833,0.868c-0.163-1.167-1.155-2.068-2.367-2.068
				c-1.212,0-2.204,0.901-2.367,2.068c-0.44-0.527-1.094-0.868-1.833-0.868c-1.325,0-2.4,1.075-2.4,2.4
				c0,0.195,0.03,0.382,0.073,0.563L34.674,21.9l-0.132,0.132c-0.389-0.271-0.859-0.432-1.368-0.432c-1.325,0-2.4,1.074-2.4,2.4
				c0,0.784,0.381,1.473,0.963,1.912l-0.096,0.288c-0.367-0.123-0.773-0.135-1.166,0.003c-0.938,0.331-1.429,1.359-1.098,2.297
				c0.208,0.589,0.691,1.001,1.253,1.144c-0.019,0.021-0.035,0.045-0.053,0.066c-0.165-0.015-0.335,0-0.502,0.059
				c-0.625,0.221-0.952,0.906-0.732,1.531c0.111,0.313,0.337,0.551,0.614,0.683c0.391,1.325,2.317,1.5,2.317,3.118
				c0-8.426,3.925-10.178,6.6-8.951c1.2,0.551,3.6,0.551,4.8-0.049c2.244-1.122,6.6,0.175,6.6,9c0-1.628,1.945-1.796,2.321-3.142
				C53.131,31.693,53.409,31.078,53.205,30.5z"/>
		</g>
		
			<line fill="none" stroke="#45413C" stroke-linecap="round" stroke-linejoin="round" stroke-miterlimit="10" x1="31.81" y1="64.5" x2="31.81" y2="60.26"/>
	</g>
	
		<line fill="none" stroke="#45413C" stroke-linecap="round" stroke-linejoin="round" stroke-miterlimit="10" x1="49.387" y1="64.5" x2="49.387" y2="60.967"/>
	<g>
		<ellipse opacity="0.15" fill="#45413C" cx="61.274" cy="79.629" rx="8" ry="1.5"/>
		<path fill="#6DD627" d="M73.774,61.613c0-0.891-0.722-1.613-1.613-1.613H65.71c-0.445,0-0.806-0.361-0.806-0.806v-6.452
			c0-0.891-0.722-1.613-1.613-1.613h-4.032c-0.891,0-1.613,0.722-1.613,1.613v6.452c0,0.445-0.361,0.806-0.806,0.806h-6.452
			c-0.891,0-1.613,0.722-1.613,1.613v4.032c0,0.891,0.722,1.613,1.613,1.613h6.452c0.445,0,0.806,0.361,0.806,0.806v6.452
			c0,0.891,0.722,1.613,1.613,1.613h4.032c0.891,0,1.613-0.722,1.613-1.613v-6.452c0-0.445,0.361-0.806,0.806-0.806h6.452
			c0.891,0,1.613-0.722,1.613-1.613V61.613z"/>
		<path fill="#9CEB60" d="M63.29,51.129h-4.032c-0.891,0-1.613,0.722-1.613,1.613v6.452c0,0.445-0.361,0.806-0.806,0.806h-6.452
			c-0.891,0-1.613,0.722-1.613,1.613v4.032c0,0.891,0.722,1.613,1.613,1.613h3.571l10.945-10.945v-3.571
			C64.903,51.851,64.181,51.129,63.29,51.129z"/>
		<path fill="none" stroke="#45413C" stroke-linejoin="round" stroke-miterlimit="10" d="M73.774,61.613
			c0-0.891-0.722-1.613-1.613-1.613H65.71c-0.445,0-0.806-0.361-0.806-0.806v-6.452c0-0.891-0.722-1.613-1.613-1.613h-4.032
			c-0.891,0-1.613,0.722-1.613,1.613v6.452c0,0.445-0.361,0.806-0.806,0.806h-6.452c-0.891,0-1.613,0.722-1.613,1.613v4.032
			c0,0.891,0.722,1.613,1.613,1.613h6.452c0.445,0,0.806,0.361,0.806,0.806v6.452c0,0.891,0.722,1.613,1.613,1.613h4.032
			c0.891,0,1.613-0.722,1.613-1.613v-6.452c0-0.445,0.361-0.806,0.806-0.806h6.452c0.891,0,1.613-0.722,1.613-1.613V61.613z"/>
	</g>
</g>
</svg>
