<?xml version="1.0" encoding="utf-8"?>
<!-- Generator: Adobe Illustrator 21.0.0, SVG Export Plug-In . SVG Version: 6.00 Build 0)  -->
<svg version="1.1" id="Layer_1" xmlns="http://www.w3.org/2000/svg" xmlns:xlink="http://www.w3.org/1999/xlink" x="0px" y="0px"
	 width="96px" height="96px" viewBox="0 0 96 96" enable-background="new 0 0 96 96" xml:space="preserve">
<g>
	<g>
		<path fill="#CDF7AD" d="M48,87c14.798,0,27.69-8.053,34.608-20H13.392C20.31,78.947,33.202,87,48,87z"/>
		<path fill="#E4FFD1" d="M11.564,63.5c0.546,1.204,1.17,2.363,1.828,3.5h69.215c0.658-1.137,1.282-2.296,1.828-3.5H11.564z"/>
	</g>
	<path fill="#BDFBFC" d="M88,47C88,24.909,70.091,7,48,7S8,24.909,8,47c0,5.885,1.281,11.468,3.564,16.5h72.872
		C86.718,58.468,88,52.885,88,47z"/>
	<g>
		
			<line fill="none" stroke="#45413C" stroke-linecap="round" stroke-linejoin="round" stroke-miterlimit="10" x1="9" y1="63.5" x2="87" y2="63.5"/>
		
			<line fill="none" stroke="#45413C" stroke-linecap="round" stroke-linejoin="round" stroke-miterlimit="10" x1="4.5" y1="63.5" x2="7" y2="63.5"/>
		
			<line fill="none" stroke="#45413C" stroke-linecap="round" stroke-linejoin="round" stroke-miterlimit="10" x1="89" y1="63.5" x2="91.5" y2="63.5"/>
	</g>
</g>
<g>
	<path fill="#6DD627" d="M16.5,63.5c0,0,16.25-9.75,45.75-9.75C80.75,53.75,83,63.5,83,63.5H16.5z"/>
	<path fill="#9CEB60" d="M62.25,56.625c11.848,0,17.031,3.999,19.227,6.875H83c0,0-2.25-9.75-20.75-9.75
		c-29.5,0-45.75,9.75-45.75,9.75h6.163C29.898,60.624,43.357,56.625,62.25,56.625z"/>
	<path fill="none" stroke="#45413C" stroke-linecap="round" stroke-linejoin="round" stroke-miterlimit="10" d="M16.5,63.5
		c0,0,16.25-9.75,45.75-9.75C80.75,53.75,83,63.5,83,63.5H16.5z"/>
	
		<line fill="none" stroke="#45413C" stroke-linecap="round" stroke-linejoin="round" stroke-miterlimit="10" x1="62" y1="53.5" x2="62" y2="39"/>
	<path fill="#FF6242" stroke="#45413C" stroke-linecap="round" stroke-linejoin="round" stroke-miterlimit="10" d="M62,34.516V39
		l4.855-2.081c0.808-0.346,0.808-1.492,0-1.838l-3.461-1.483C62.734,33.315,62,33.799,62,34.516z"/>
	<g>
		
			<line fill="none" stroke="#45413C" stroke-linecap="round" stroke-linejoin="round" stroke-miterlimit="10" x1="46.42" y1="72.866" x2="46.42" y2="57.366"/>
		<path fill="#656769" stroke="#45413C" stroke-linecap="round" stroke-linejoin="round" stroke-miterlimit="10" d="M46.42,51.366
			L46.42,51.366c-0.552,0-1,0.448-1,1v4.5c0,0.276,0.224,0.5,0.5,0.5h1c0.276,0,0.5-0.224,0.5-0.5v-4.5
			C47.42,51.814,46.972,51.366,46.42,51.366z"/>
		<path fill="#D18660" stroke="#45413C" stroke-linecap="round" stroke-linejoin="round" stroke-miterlimit="10" d="M39.75,51.5h3.5
			v2.75c0,1.243,1.007,2.25,2.25,2.25l0,0c0.966,0,1.75,0.784,1.75,1.75l0,0c0,0.966-0.784,1.75-1.75,1.75l0,0
			c-3.176,0-5.75-2.574-5.75-5.75V51.5z"/>
		<path fill="#FFFFFF" stroke="#45413C" stroke-linecap="round" stroke-linejoin="round" stroke-miterlimit="10" d="M45.5,56.5
			c-0.412,0-0.793-0.119-1.125-0.312l-1.042,3.386C44.002,59.847,44.733,60,45.5,60c0.967,0,1.75-0.784,1.75-1.75
			C47.25,57.283,46.467,56.5,45.5,56.5z"/>
		<path fill="#B8ECFF" d="M43.25,50v1.5h-2.5V59h-13v-7.5h-3.5V50c0-4.22,2.74-7.79,6.55-9.03c0.93-0.31,1.92-0.47,2.95-0.47
			c1.31,0,2.56,0.26,3.7,0.74c0.07,0.03,0.13,0.06,0.2,0.09C40.95,42.82,43.25,46.14,43.25,50z"/>
		<path fill="#E5F8FF" d="M37.65,41.33c-0.07-0.03-0.13-0.06-0.2-0.09c-1.14-0.48-2.39-0.74-3.7-0.74c-1.03,0-2.02,0.16-2.95,0.47
			c-3.81,1.24-6.55,4.81-6.55,9.03v1.5h0.052c0.394-3.776,2.993-6.889,6.498-8.03c0.93-0.31,1.92-0.47,2.95-0.47
			c1.31,0,2.56,0.26,3.7,0.74c0.07,0.03,0.13,0.06,0.2,0.09c3.011,1.36,5.19,4.243,5.548,7.669h0.052V50
			C43.25,46.14,40.95,42.82,37.65,41.33z"/>
		<path fill="none" stroke="#45413C" stroke-linecap="round" stroke-linejoin="round" stroke-miterlimit="10" d="M43.25,50v1.5h-2.5
			V59h-13v-7.5h-3.5V50c0-4.22,2.74-7.79,6.55-9.03c0.93-0.31,1.92-0.47,2.95-0.47c1.31,0,2.56,0.26,3.7,0.74
			c0.07,0.03,0.13,0.06,0.2,0.09C40.95,42.82,43.25,46.14,43.25,50z"/>
		<path fill="#C0DCEB" stroke="#45413C" stroke-linecap="round" stroke-linejoin="round" stroke-miterlimit="10" d="M46.974,76.42
			L46.974,76.42c0.289,0.29,0.665,0.477,1.07,0.535l1.773,0.253c0.609,0.087,1.173-0.336,1.26-0.945l0.161-1.126
			c0.096-0.671-0.425-1.271-1.103-1.271H48.24c-0.525,0-1.028-0.208-1.399-0.579l-0.42-0.421v2.216
			C46.42,75.584,46.619,76.065,46.974,76.42z"/>
		<path fill="#D18660" stroke="#45413C" stroke-linecap="round" stroke-linejoin="round" stroke-miterlimit="10" d="M34.25,24.5
			c-3.314,0-6,2.686-6,6v0.801c-0.566,0.119-1,0.598-1,1.199c0,0.646,0.497,1.16,1.126,1.225c0.565,2.726,2.98,4.775,5.874,4.775
			c3.314,0,6-2.686,6-6v-2C40.25,27.186,37.564,24.5,34.25,24.5z"/>
		<path fill="#F0D5A8" d="M27.75,59v17.5c0,0.552,0.448,1,1,1h3.5l0.393-12.379c0.023-0.723,0.492-1.393,1.193-1.569
			c1.043-0.262,1.987,0.501,2.019,1.503l0.364,11.477c0.017,0.54,0.459,0.968,1,0.968h3.531V59H27.75z"/>
		<rect x="27.75" y="59" fill="#DEBB7E" width="13" height="2.5"/>
		<path fill="none" stroke="#45413C" stroke-linecap="round" stroke-linejoin="round" stroke-miterlimit="10" d="M27.75,59v17.5
			c0,0.552,0.448,1,1,1h3.5l0.393-12.379c0.023-0.723,0.492-1.393,1.193-1.569c1.043-0.262,1.987,0.501,2.019,1.503l0.364,11.477
			c0.017,0.54,0.459,0.968,1,0.968h3.531V59H27.75z"/>
		
			<ellipse opacity="0.15" fill="#45413C" stroke="#45413C" stroke-width="0" stroke-miterlimit="10" cx="35.75" cy="78.5" rx="13" ry="1.5"/>
		<g>
			<path fill="#45413C" d="M33.5,30.5c-0.414,0-0.75,0.336-0.75,0.75S33.086,32,33.5,32s0.75-0.336,0.75-0.75S33.914,30.5,33.5,30.5
				L33.5,30.5z"/>
		</g>
		<g>
			<path fill="#45413C" d="M37.5,30.5c-0.414,0-0.75,0.336-0.75,0.75S37.086,32,37.5,32s0.75-0.336,0.75-0.75S37.914,30.5,37.5,30.5
				L37.5,30.5z"/>
		</g>
		<circle fill="#BD704A" cx="31.5" cy="33.25" r="0.75"/>
		<path fill="none" stroke="#45413C" stroke-linecap="round" stroke-linejoin="round" stroke-miterlimit="10" d="M33.75,35.046
			c0.908,0.606,2.092,0.606,3,0"/>
		<path fill="#614B44" d="M40.75,29c0-3.59-2.91-6.5-6.5-6.5s-6.5,2.91-6.5,6.5v2c1.777-0.479,2.837-1.57,3.5-3
			C34.051,29.886,37.75,29.5,40.75,29z"/>
		<path fill="#947063" d="M34.25,25c2.731,0,5.065,1.686,6.027,4.073c0.157-0.025,0.319-0.047,0.473-0.073c0-3.59-2.91-6.5-6.5-6.5
			s-6.5,2.91-6.5,6.5v2c0.009-0.002,0.017-0.006,0.026-0.008C28.036,27.64,30.832,25,34.25,25z"/>
		<path fill="none" stroke="#45413C" stroke-linecap="round" stroke-linejoin="round" stroke-miterlimit="10" d="M40.75,29
			c0-3.59-2.91-6.5-6.5-6.5s-6.5,2.91-6.5,6.5v2c1.777-0.479,2.837-1.57,3.5-3C34.051,29.886,37.75,29.5,40.75,29z"/>
		<path fill="none" stroke="#45413C" stroke-linecap="round" stroke-linejoin="round" stroke-miterlimit="10" d="M30.25,27
			c0,0,0.387,0.647,1,1"/>
		<path fill="#D18660" stroke="#45413C" stroke-linecap="round" stroke-linejoin="round" stroke-miterlimit="10" d="M24.25,61.75
			c0,0.966,0.784,1.75,1.75,1.75s1.75-0.784,1.75-1.75V51.5h-3.5V61.75z"/>
		
			<line fill="none" stroke="#45413C" stroke-linecap="round" stroke-linejoin="round" stroke-miterlimit="10" x1="27.75" y1="51.5" x2="27.75" y2="48.5"/>
		
			<line fill="none" stroke="#45413C" stroke-linecap="round" stroke-linejoin="round" stroke-miterlimit="10" x1="40.75" y1="51.5" x2="40.75" y2="48.5"/>
		<path fill="#87898C" stroke="#45413C" stroke-linecap="round" stroke-linejoin="round" stroke-miterlimit="10" d="M43.278,77.5
			c0-1.657-1.343-3-3-3h-4.123v2c0,0.552,0.448,1,1,1H43.278z"/>
		<path fill="#87898C" stroke="#45413C" stroke-linecap="round" stroke-linejoin="round" stroke-miterlimit="10" d="M34.75,77.5
			c0-1.657-1.343-3-3-3h-4v2c0,0.552,0.448,1,1,1H34.75z"/>
		<path fill="#D18660" stroke="#45413C" stroke-linecap="round" stroke-linejoin="round" stroke-miterlimit="10" d="M37.65,41.33
			c-1.52,1.2-3.4,2.67-3.4,2.67s-2-1.76-3.45-3.03c0.93-0.31,1.92-0.47,2.95-0.47c1.31,0,2.56,0.26,3.7,0.74
			C37.52,41.27,37.58,41.3,37.65,41.33z"/>
		<path fill="#A6FBFF" stroke="#45413C" stroke-linecap="round" stroke-linejoin="round" stroke-miterlimit="10" d="M30.8,40.97
			l-0.042,3.763c-0.002,0.169,0.082,0.328,0.222,0.421s0.319,0.11,0.475,0.044L34.25,44l3.209,1.203
			c0.166,0.062,0.351,0.032,0.489-0.079c0.138-0.111,0.207-0.286,0.181-0.461l-0.482-3.333L34.25,44L30.8,40.97z"/>
		
			<line fill="none" stroke="#45413C" stroke-linecap="round" stroke-linejoin="round" stroke-miterlimit="10" x1="34.25" y1="44" x2="34.25" y2="46.72"/>
		<path fill="#FFFFFF" stroke="#45413C" stroke-linecap="round" stroke-linejoin="round" stroke-miterlimit="10" d="M27.25,30.72
			l13.5-4.5l-2.058-2.882c-0.261-0.365-0.734-0.512-1.155-0.358l-9.628,3.501C27.513,26.624,27.25,27,27.25,27.42V30.72z"/>
		
			<line fill="none" stroke="#45413C" stroke-linecap="round" stroke-linejoin="round" stroke-miterlimit="10" x1="27.25" y1="30.72" x2="43.37" y2="25.346"/>
	</g>
	
		<circle fill="#E8F4FA" stroke="#45413C" stroke-linecap="round" stroke-linejoin="round" stroke-miterlimit="10" cx="59.215" cy="71.453" r="2.215"/>
	<path fill="#FFE500" stroke="#45413C" stroke-linecap="round" stroke-linejoin="round" stroke-miterlimit="10" d="M57.431,73.668
		h3.568c0.195,0,0.319,0.208,0.227,0.38l-1.076,1.286l-0.708,2.03c-0.097,0.181-0.357,0.181-0.454,0l-0.708-2.03l-1.076-1.286
		C57.112,73.876,57.236,73.668,57.431,73.668z"/>
	
		<ellipse opacity="0.15" fill="#45413C" stroke="#45413C" stroke-width="0" stroke-miterlimit="10" cx="59.25" cy="78.5" rx="5" ry="1.5"/>
</g>
</svg>
