<?xml version="1.0" encoding="utf-8"?>
<!-- Generator: Adobe Illustrator 21.0.0, SVG Export Plug-In . SVG Version: 6.00 Build 0)  -->
<svg version="1.1" id="Layer_1" xmlns="http://www.w3.org/2000/svg" xmlns:xlink="http://www.w3.org/1999/xlink" x="0px" y="0px"
	 width="96px" height="96px" viewBox="0 0 96 96" enable-background="new 0 0 96 96" xml:space="preserve">
<g>
	<g>
		<g>
			<g>
				<circle fill="#BDFBFC" cx="48" cy="48" r="40"/>
			</g>
			<g>
				<path fill="#CDF7AD" d="M11.551,64.5c2.566,5.66,6.413,10.617,11.169,14.5h50.559c4.757-3.883,8.603-8.84,11.17-14.5H11.551z"/>
			</g>
			<path fill="#E4FFD1" d="M82.648,68c0.655-1.133,1.257-2.3,1.801-3.5H11.551c0.544,1.2,1.146,2.367,1.801,3.5H82.648z"/>
			<g>
				<path fill="#ADC4D9" d="M48,88c9.589,0,18.389-3.374,25.279-9H22.721C29.611,84.626,38.411,88,48,88z"/>
			</g>
			<g>
				<line fill="none" stroke="#45413C" stroke-linecap="round" stroke-miterlimit="10" x1="9.5" y1="64.5" x2="86.5" y2="64.5"/>
			</g>
			<line fill="none" stroke="#45413C" stroke-linecap="round" stroke-miterlimit="10" x1="23.5" y1="79" x2="72.5" y2="79"/>
			<line fill="none" stroke="#45413C" stroke-linecap="round" stroke-miterlimit="10" x1="88.5" y1="64.5" x2="91.5" y2="64.5"/>
			<line fill="none" stroke="#45413C" stroke-linecap="round" stroke-miterlimit="10" x1="4.5" y1="64.5" x2="7.5" y2="64.5"/>
		</g>
		<line fill="none" stroke="#C0DCEB" stroke-linecap="round" stroke-miterlimit="10" x1="45" y1="83" x2="52.157" y2="83"/>
		<line fill="none" stroke="#C0DCEB" stroke-linecap="round" stroke-miterlimit="10" x1="41" y1="83" x2="42.5" y2="83"/>
		<line fill="none" stroke="#C0DCEB" stroke-linecap="round" stroke-miterlimit="10" x1="38" y1="83" x2="39" y2="83"/>
	</g>
</g>
<g>
	<g>
		<path fill="#DEA47A" d="M33.5,30.825h8.45V36.6H32.5v-4.775C32.5,31.273,32.948,30.825,33.5,30.825z"/>
		<path fill="#F0C2A1" d="M33.5,30.825h8.45v1.703H33.5c-0.552,0-1,0.448-1,1v-1.703C32.5,31.273,32.948,30.825,33.5,30.825z"/>
		<rect x="32.5" y="39.225" fill="#BF8256" width="9.45" height="25.275"/>
		<rect x="32.5" y="42" fill="#DEA47A" width="9.45" height="22.5"/>
		<polygon fill="#ADC4D9" points="75.025,21.9 37.225,21.9 33.55,30.825 78.7,30.825 		"/>
		<polygon fill="#8CA4B8" points="35.279,26.625 33.55,30.825 78.7,30.825 76.971,26.625 		"/>
		<polygon fill="none" stroke="#45413C" stroke-linecap="round" stroke-linejoin="round" stroke-miterlimit="10" points="
			75.025,21.9 37.225,21.9 33.55,30.825 78.7,30.825 		"/>
		<path fill="#DEA47A" d="M70.3,36.6H41.95v-5.775l12.878-10.97c0.747-0.637,1.846-0.637,2.594,0L70.3,30.825V36.6z"/>
		<path fill="#F0C2A1" d="M57.422,19.855c-0.747-0.637-1.846-0.637-2.594,0L41.95,30.825v2.018l12.878-10.97
			c0.747-0.637,1.846-0.637,2.594,0L70.3,32.843v-2.018L57.422,19.855z"/>
		<path fill="none" stroke="#45413C" stroke-linecap="round" stroke-linejoin="round" stroke-miterlimit="10" d="M70.3,36.6H41.95
			v-5.775l12.878-10.97c0.747-0.637,1.846-0.637,2.594,0L70.3,30.825V36.6z"/>
		<rect x="41.95" y="51.9" fill="#F0C2A1" width="28.35" height="12.6"/>
		
			<rect x="41.95" y="51.9" fill="none" stroke="#45413C" stroke-linecap="round" stroke-linejoin="round" stroke-miterlimit="10" width="28.35" height="12.6"/>
		<rect x="41.95" y="54.525" fill="#DEA47A" width="28.35" height="1.788"/>
		<rect x="41.95" y="36.6" fill="#BF8256" width="28.35" height="15.3"/>
		<rect x="32.5" y="54.525" fill="#BF8256" width="9.45" height="1.788"/>
		<polygon fill="#DEA47A" points="70.3,51.9 41.95,51.9 41.95,41.975 49.825,41.975 62.425,41.975 70.3,41.975 		"/>
		
			<rect x="41.95" y="36.6" fill="none" stroke="#45413C" stroke-linecap="round" stroke-linejoin="round" stroke-miterlimit="10" width="28.35" height="15.3"/>
		
			<rect x="41.95" y="51.9" fill="#915E3A" stroke="#45413C" stroke-linecap="round" stroke-linejoin="round" stroke-miterlimit="10" width="28.35" height="2.625"/>
		<path fill="#F0C2A1" d="M56.125,25.05c-3.479,0-6.3,2.821-6.3,6.3v5.25h12.6v-5.25C62.425,27.871,59.604,25.05,56.125,25.05z"/>
		<path fill="#DEA47A" d="M56.125,25.05c-3.479,0-6.3,2.821-6.3,6.3v2.703c0-3.479,2.821-6.3,6.3-6.3c3.479,0,6.3,2.821,6.3,6.3
			V31.35C62.425,27.871,59.604,25.05,56.125,25.05z"/>
		<path fill="none" stroke="#45413C" stroke-linecap="round" stroke-linejoin="round" stroke-miterlimit="10" d="M56.125,25.05
			c-3.479,0-6.3,2.821-6.3,6.3v5.25h12.6v-5.25C62.425,27.871,59.604,25.05,56.125,25.05z"/>
		<path fill="none" stroke="#45413C" stroke-linecap="round" stroke-linejoin="round" stroke-miterlimit="10" d="M32.5,64.5h9.45
			V30.825H33.5c-0.552,0-1,0.448-1,1V64.5z"/>
		
			<rect x="32.5" y="51.9" fill="#915E3A" stroke="#45413C" stroke-linecap="round" stroke-linejoin="round" stroke-miterlimit="10" width="9.45" height="2.625"/>
		
			<rect x="41.95" y="36.6" fill="#915E3A" stroke="#45413C" stroke-linecap="round" stroke-linejoin="round" stroke-miterlimit="10" width="28.35" height="2.625"/>
		
			<rect x="32.5" y="36.6" fill="#915E3A" stroke="#45413C" stroke-linecap="round" stroke-linejoin="round" stroke-miterlimit="10" width="9.45" height="2.625"/>
		<path fill="#00B8F0" stroke="#45413C" stroke-linecap="round" stroke-linejoin="round" stroke-miterlimit="10" d="M37.225,32.925
			L37.225,32.925c-0.58,0-1.05,0.47-1.05,1.05V36.6h2.1v-2.625C38.275,33.395,37.805,32.925,37.225,32.925z"/>
		<path fill="#00B8F0" stroke="#45413C" stroke-linecap="round" stroke-linejoin="round" stroke-miterlimit="10" d="M45.625,32.925
			L45.625,32.925c-0.58,0-1.05,0.47-1.05,1.05V36.6h2.1v-2.625C46.675,33.395,46.205,32.925,45.625,32.925z"/>
		<path fill="#00B8F0" stroke="#45413C" stroke-linecap="round" stroke-linejoin="round" stroke-miterlimit="10" d="M66.625,32.925
			L66.625,32.925c-0.58,0-1.05,0.47-1.05,1.05V36.6h2.1v-2.625C67.675,33.395,67.205,32.925,66.625,32.925z"/>
		
			<rect x="36.175" y="41.4" fill="#00B8F0" stroke="#45413C" stroke-linecap="round" stroke-linejoin="round" stroke-miterlimit="10" width="2.1" height="4.2"/>
		
			<rect x="36.175" y="47.7" fill="#00B8F0" stroke="#45413C" stroke-linecap="round" stroke-linejoin="round" stroke-miterlimit="10" width="2.1" height="4.2"/>
		
			<rect x="36.175" y="56.625" fill="#00B8F0" stroke="#45413C" stroke-linecap="round" stroke-linejoin="round" stroke-miterlimit="10" width="2.1" height="4.2"/>
		<rect x="70.3" y="39.225" fill="#BF8256" width="9.45" height="25.275"/>
		<path fill="#DEA47A" d="M79.75,31.825c0-0.552-0.448-1-1-1H70.3V36.6h9.45V31.825z"/>
		<path fill="#F0C2A1" d="M78.75,30.825H70.3v1.703h8.45c0.552,0,1,0.448,1,1v-1.703C79.75,31.273,79.302,30.825,78.75,30.825z"/>
		<rect x="70.3" y="42" fill="#DEA47A" width="9.45" height="22.5"/>
		<rect x="70.3" y="54.525" fill="#BF8256" width="9.45" height="1.788"/>
		<path fill="none" stroke="#45413C" stroke-linecap="round" stroke-linejoin="round" stroke-miterlimit="10" d="M70.3,64.5h9.45
			V31.825c0-0.552-0.448-1-1-1H70.3V64.5z"/>
		
			<rect x="70.3" y="51.9" fill="#915E3A" stroke="#45413C" stroke-linecap="round" stroke-linejoin="round" stroke-miterlimit="10" width="9.45" height="2.625"/>
		
			<rect x="70.3" y="36.6" fill="#915E3A" stroke="#45413C" stroke-linecap="round" stroke-linejoin="round" stroke-miterlimit="10" width="9.45" height="2.625"/>
		<path fill="#00B8F0" stroke="#45413C" stroke-linecap="round" stroke-linejoin="round" stroke-miterlimit="10" d="M75.025,32.925
			L75.025,32.925c-0.58,0-1.05,0.47-1.05,1.05V36.6h2.1v-2.625C76.075,33.395,75.605,32.925,75.025,32.925z"/>
		
			<rect x="73.975" y="41.4" fill="#00B8F0" stroke="#45413C" stroke-linecap="round" stroke-linejoin="round" stroke-miterlimit="10" width="2.1" height="4.2"/>
		
			<rect x="73.975" y="47.7" fill="#00B8F0" stroke="#45413C" stroke-linecap="round" stroke-linejoin="round" stroke-miterlimit="10" width="2.1" height="4.2"/>
		
			<rect x="73.975" y="56.625" fill="#00B8F0" stroke="#45413C" stroke-linecap="round" stroke-linejoin="round" stroke-miterlimit="10" width="2.1" height="4.2"/>
		
			<rect x="44.575" y="41.4" fill="#00B8F0" stroke="#45413C" stroke-linecap="round" stroke-linejoin="round" stroke-miterlimit="10" width="2.1" height="4.2"/>
		
			<rect x="44.575" y="47.7" fill="#00B8F0" stroke="#45413C" stroke-linecap="round" stroke-linejoin="round" stroke-miterlimit="10" width="2.1" height="4.2"/>
		
			<rect x="65.575" y="41.4" fill="#00B8F0" stroke="#45413C" stroke-linecap="round" stroke-linejoin="round" stroke-miterlimit="10" width="2.1" height="4.2"/>
		
			<rect x="57.7" y="44.5" fill="#00B8F0" stroke="#45413C" stroke-linecap="round" stroke-linejoin="round" stroke-miterlimit="10" width="2.1" height="4.2"/>
		
			<rect x="52.45" y="44.5" fill="#00B8F0" stroke="#45413C" stroke-linecap="round" stroke-linejoin="round" stroke-miterlimit="10" width="2.1" height="4.2"/>
		
			<rect x="65.575" y="47.7" fill="#00B8F0" stroke="#45413C" stroke-linecap="round" stroke-linejoin="round" stroke-miterlimit="10" width="2.1" height="4.2"/>
		
			<rect x="37.225" y="18.75" fill="#BF8256" stroke="#45413C" stroke-linecap="round" stroke-linejoin="round" stroke-miterlimit="10" width="3.675" height="3.15"/>
		<path fill="#DEA47A" stroke="#45413C" stroke-linecap="round" stroke-linejoin="round" stroke-miterlimit="10" d="M40.9,18.75
			h-3.675l-0.367-0.532c-0.211-0.306-0.235-0.704-0.063-1.033c0.173-0.329,0.514-0.535,0.885-0.535h2.744
			c0.367,0,0.705,0.201,0.88,0.524c0.175,0.323,0.158,0.716-0.043,1.023L40.9,18.75z"/>
		
			<rect x="71.35" y="18.75" fill="#BF8256" stroke="#45413C" stroke-linecap="round" stroke-linejoin="round" stroke-miterlimit="10" width="3.675" height="3.15"/>
		<path fill="#DEA47A" stroke="#45413C" stroke-linecap="round" stroke-linejoin="round" stroke-miterlimit="10" d="M75.025,18.75
			H71.35l-0.375-0.5c-0.227-0.303-0.264-0.708-0.094-1.047c0.169-0.339,0.516-0.553,0.894-0.553h2.741
			c0.36,0,0.692,0.193,0.869,0.506c0.178,0.313,0.174,0.697-0.01,1.006L75.025,18.75z"/>
		
			<line fill="none" stroke="#45413C" stroke-linecap="round" stroke-linejoin="round" stroke-miterlimit="10" x1="49.825" y1="39.225" x2="49.825" y2="46.65"/>
		
			<line fill="none" stroke="#45413C" stroke-linecap="round" stroke-linejoin="round" stroke-miterlimit="10" x1="62.425" y1="39.225" x2="62.425" y2="46.65"/>
		
			<rect x="50.35" y="51.9" fill="#F0C2A1" stroke="#45413C" stroke-linecap="round" stroke-linejoin="round" stroke-miterlimit="10" width="11.55" height="12.6"/>
		<rect x="52.45" y="54.525" fill="#00B8F0" width="7.35" height="9.975"/>
		<polygon fill="#4ACFFF" points="58.75,54.525 52.45,54.525 52.45,64.5 54.67,64.5 		"/>
		
			<rect x="56.125" y="54.525" fill="none" stroke="#45413C" stroke-linecap="round" stroke-linejoin="round" stroke-miterlimit="10" width="3.675" height="9.975"/>
		
			<line fill="none" stroke="#45413C" stroke-linecap="round" stroke-linejoin="round" stroke-miterlimit="10" x1="41.95" y1="51.9" x2="31.5" y2="51.9"/>
		
			<line fill="none" stroke="#45413C" stroke-linecap="round" stroke-linejoin="round" stroke-miterlimit="10" x1="41.95" y1="36.6" x2="31.5" y2="36.6"/>
		
			<line fill="none" stroke="#45413C" stroke-linecap="round" stroke-linejoin="round" stroke-miterlimit="10" x1="80.75" y1="51.9" x2="70.3" y2="51.9"/>
		
			<line fill="none" stroke="#45413C" stroke-linecap="round" stroke-linejoin="round" stroke-miterlimit="10" x1="80.75" y1="36.6" x2="70.3" y2="36.6"/>
		
			<rect x="52.45" y="54.525" fill="none" stroke="#45413C" stroke-linecap="round" stroke-linejoin="round" stroke-miterlimit="10" width="3.675" height="9.975"/>
	</g>
	<g>
		<ellipse opacity="0.15" fill="#45413C" cx="35.75" cy="76" rx="12.75" ry="1.5"/>
		<path fill="#FFFFFF" stroke="#45413C" stroke-linecap="round" stroke-linejoin="round" stroke-miterlimit="10" d="M47.341,75.131
			H44.51V57.178c0.673-1.153,2.157-1.153,2.831,0V75.131z"/>
		<rect x="27.526" y="58.32" fill="#00B8F0" width="16.984" height="16.811"/>
		<rect x="27.526" y="58.32" fill="#4ACFFF" width="16.984" height="3.18"/>
		
			<rect x="27.526" y="58.32" fill="none" stroke="#45413C" stroke-linecap="round" stroke-linejoin="round" stroke-miterlimit="10" width="16.984" height="16.811"/>
		<path fill="#FFFFFF" stroke="#45413C" stroke-linecap="round" stroke-linejoin="round" stroke-miterlimit="10" d="M44.875,57.125
			h2.101c0.66-0.37,1.112-1.068,1.112-1.879c0-1.194-0.968-2.162-2.163-2.162c-1.194,0-2.162,0.968-2.162,2.162
			C43.763,56.057,44.215,56.755,44.875,57.125z"/>
		<path fill="#FFFFFF" stroke="#45413C" stroke-linecap="round" stroke-linejoin="round" stroke-miterlimit="10" d="M27.549,75.131
			h-2.831V57.178c0.673-1.153,2.157-1.153,2.831,0V75.131z"/>
		<path fill="#FFFFFF" stroke="#45413C" stroke-linecap="round" stroke-linejoin="round" stroke-miterlimit="10" d="M25.084,57.125
			h2.101c0.66-0.37,1.112-1.068,1.112-1.879c0-1.194-0.968-2.162-2.162-2.162c-1.194,0-2.162,0.968-2.162,2.162
			C23.972,56.057,24.423,56.755,25.084,57.125z"/>
		<g>
			<g>
				<path fill="#FF6242" d="M35.97,60.899c-0.13-0.098-0.309-0.098-0.439,0c-1.142,0.858-2.523,1.46-4.035,1.673
					c-0.181,0.025-0.314,0.18-0.314,0.362v3.196c0,2.96,1.812,5.521,4.43,6.593c0.089,0.036,0.188,0.036,0.277,0
					c2.618-1.072,4.43-3.632,4.43-6.593v-3.196c0-0.182-0.134-0.336-0.315-0.361C38.493,62.359,37.112,61.757,35.97,60.899z"/>
				<path fill="none" stroke="#45413C" stroke-miterlimit="10" d="M35.97,60.899c-0.13-0.098-0.309-0.098-0.439,0
					c-1.142,0.858-2.523,1.46-4.035,1.673c-0.181,0.025-0.314,0.18-0.314,0.362v3.196c0,2.96,1.812,5.521,4.43,6.593
					c0.089,0.036,0.188,0.036,0.277,0c2.618-1.072,4.43-3.632,4.43-6.593v-3.196c0-0.182-0.134-0.336-0.315-0.361
					C38.493,62.359,37.112,61.757,35.97,60.899z"/>
			</g>
			<g>
				<path fill="#FFE500" d="M36.153,61.019l-4.971,4.971v0.139c0,0.847,0.163,1.654,0.436,2.409l6.476-6.476
					C37.396,61.793,36.745,61.442,36.153,61.019z"/>
				<path fill="#FFE500" d="M40.319,62.943l-7.589,7.588c0.439,0.554,0.956,1.039,1.541,1.443l6.048-6.048V62.943z"/>
			</g>
			<g>
				<path fill="none" d="M35.97,60.899c-0.13-0.098-0.309-0.098-0.439,0c-1.142,0.858-2.523,1.46-4.035,1.673
					c-0.181,0.025-0.314,0.18-0.314,0.362v3.196c0,2.96,1.812,5.521,4.43,6.593c0.089,0.036,0.188,0.036,0.277,0
					c2.618-1.072,4.43-3.632,4.43-6.593v-3.196c0-0.182-0.134-0.336-0.315-0.361C38.493,62.359,37.112,61.757,35.97,60.899z"/>
				<path fill="none" stroke="#45413C" stroke-miterlimit="10" d="M35.97,60.899c-0.13-0.098-0.309-0.098-0.439,0
					c-1.142,0.858-2.523,1.46-4.035,1.673c-0.181,0.025-0.314,0.18-0.314,0.362v3.196c0,2.96,1.812,5.521,4.43,6.593
					c0.089,0.036,0.188,0.036,0.277,0c2.618-1.072,4.43-3.632,4.43-6.593v-3.196c0-0.182-0.134-0.336-0.315-0.361
					C38.493,62.359,37.112,61.757,35.97,60.899z"/>
			</g>
		</g>
	</g>
</g>
</svg>
